<?xml version="1.0" encoding="utf-8"?>
<!-- Generator: Adobe Illustrator 16.0.0, SVG Export Plug-In . SVG Version: 6.00 Build 0)  -->
<!DOCTYPE svg PUBLIC "-//W3C//DTD SVG 1.1//EN" "http://www.w3.org/Graphics/SVG/1.1/DTD/svg11.dtd">
<svg version="1.1" id="Layer_1" xmlns="http://www.w3.org/2000/svg" xmlns:xlink="http://www.w3.org/1999/xlink" x="0px" y="0px"
	 width="2500px" height="2500px" viewBox="6649.771 -1367.468 2500 2500" enable-background="new 6649.771 -1367.468 2500 2500"
	 xml:space="preserve">
<g id="Layer_x0020_1">
	<g id="_322644984">
		<g>
			<path fill="#0A35A4" d="M8049.411-1081.926c12.637,1.499,27.701-0.285,40.123-2.213c2-0.286,4.07-0.5,6.212-0.643l18.706-4.069
				c11.494-2.499,22.917-5.355,34.269-8.496c30.129-8.354,60.187-16.921,90.314-25.131c25.417-6.926,51.118-13.708,76.964-19.134
				c29.699-6.283,78.391-15.35,106.734-0.785c7.496,3.783,13.564,8.71,18.135,15.777c2.783,4.355,4.497,9.067,7.139,13.352
				c1.643,2.642,3.428,4.426,6.211,5.854c4.855,2.498,11.566,3.427,16.992,3.783c11.923,0.929,24.631,0.143,36.482-0.856
				c20.848-1.785,41.766-4.783,62.471-8.067c31.699-4.998,63.756-8.782,95.812-10.924c25.987-1.713,52.403-2.499,78.462-1.285
				c17.635,0.857,37.697,2.642,54.689,7.711c10.209,2.998,24.416,8.853,26.486,20.775c2.143,12.209-9.781,22.062-18.776,28.059
				c-19.919,13.279-44.836,22.347-67.396,30.128c-11.638,3.998-23.274,7.782-34.912,11.852c-10.28,3.57-20.704,7.282-30.699,11.709
				c-10.067,4.498-28.558,13.493-31.699,25.202c-1.429,5.212,0.214,10.353,2.642,14.922c6.211,11.637,26.701,20.918,38.268,25.702
				c22.418,9.21,46.549,16.063,69.824,22.846c16.349,4.783,32.77,9.496,48.977,14.851c13.992,4.569,28.414,9.781,41.479,16.635
				c12.565,6.497,25.773,17.349,31.557,30.628c3.142,7.426,4.712,15.993,0.071,23.132c-17.991,27.701-115.873-7.925-142.004-15.135
				c3.07,9.638,19.063,16.706,26.701,19.562c36.982,13.422,106.021,28.558,160.853,52.547
				c34.198,15.778,65.969,36.054,76.392,60.114c5.998,13.85,9.281,30.913-1.428,43.479c-16.277,19.134-52.403,13.494-72.965,4.855
				c-42.266-17.706-91.027-32.842-136.935-35.697c-31.913-1.999-70.752,1.784-93.813,26.772
				c-9.995,10.78-21.919,18.063-36.197,21.847c-21.847,5.783-45.764,2.356-67.896,0c-19.848-2.142-41.623-4.141-60.758,2.784
				c-6.568,2.428-21.846,9.139-21.918,17.992c-0.071,8.21,12.852,15.207,19.063,17.92c19.277,8.567,44.479,11.066,65.326,11.352
				c29.271,0.356,61.971,3.713,89.886,12.923c16.063,5.354,41.052,16.277,43.265,35.697c1.5,12.565-7.211,22.917-16.42,30.199
				c-3.784,2.999-11.424,9.639-10.424,15.278c1.07,6.354,12.352,12.209,17.492,14.636c12.85,5.998,27.844,10.139,41.623,13.423
				c9.994,2.355,20.061,4.427,30.199,6.354c18.705,3.57,37.482,11.566,52.332,23.489c13.065,10.566,24.061,25.131,25.773,42.337
				c1.285,12.494-2.642,24.274-10.066,34.341c-9.21,12.637-25.416,19.563-40.195,23.203c-19.776,4.927-41.694,5.354-61.898,3.57
				c-52.189-4.569-105.308-24.774-147.859-55.188c-21.703-15.492-44.549-29.7-68.109-42.194
				c-19.99-10.495-40.98-20.062-62.328-27.344c-15.064-5.141-32.412-9.924-48.334-10.781c-6.996-0.428-18.99-0.214-24.346,5.141
				c-1.713,1.714-3.07,3.713-3.283,6.212c-0.286,3.712,1.855,8.139,3.641,11.209c3.141,5.497,7.068,10.709,10.638,15.992
				c9.567,14.278,17.277,29.771,8.21,46.549c-1.855,3.427-4.212,6.426-7.211,8.996c-17.42,14.636-48.977,6.14-68.253,0.071
				c-16.777-5.283-33.341-11.994-49.548-18.92c-19.99-8.496-39.767-17.563-59.543-26.63c-10.138-4.712-20.775-8.71-31.342-12.352
				c-14.85-5.14-29.986-9.709-45.193-13.851c-40.052-10.994-81.176-19.49-122.299-25.701
				c-49.477-7.497-99.666-11.852-149.785-12.209c-53.261-0.357-106.949,3.713-159.21,14.136
				c-92.385,18.491-178.915,56.616-246.026,124.084c-93.598,94.099-158.709,214.612-179.057,346.264
				c-3.713,24.203-5.926,48.691-6.141,73.18c-0.214,20.061,0.785,40.408,3.784,60.256c2.142,14.494,5.497,29.701,10.923,43.336
				c2.785,7.068,7.64,17.064,13.779,21.775c3.285,2.5,7.283,4.713,11.566,4.07c7.568-1.143,14.922-11.209,18.777-17.205
				c7.996-12.066,14.421-25.988,20.918-39.055c6.426-12.992,13.208-26.701,21.704-38.553c7.14-10.066,16.849-20.418,29.485-22.988
				c1.428-0.285,2.928-0.5,4.355-0.572c6.568-0.285,12.852,1.143,17.992,5.213c9.994,7.924,11.922,22.633,11.994,34.555
				c0,14.992-2.713,30.986-5.855,45.621c-2.498,12.209-5.568,24.203-8.639,36.197c-2.213,8.566-4.711,17.42-6.354,25.988
				c-14.779,79.033-30.2,217.895,9.566,290.574c5.926,10.854,12.066,21.92,18.705,32.271c0.5,0.713,1.357,1.998,2.285,3.498
				c0.071-0.928,0.071-1.713,0.071-2.285c0.071-7.281,0.071-14.564,0.643-21.918c0.856-10.566,2.927-22.918,9.425-31.627
				c7.139-9.496,17.705-17.85,30.128-17.92c16.492,0,26.916,14.207,32.771,27.986c10.566,24.988,12.422,59.9,12.422,86.672
				c0,34.199,11.994,70.896,27.345,101.096c21.204,41.908,51.976,78.678,88.528,108.092c46.479,37.482,101.096,62.041,159.068,75.75
				c78.319,18.49,160.923,16.777,240.027,4.354c66.897-10.494,133.794-22.273,199.977-36.625
				c39.053-8.496,78.034-17.99,116.373-29.414c11.924-3.498,23.846-7.283,35.626-11.209c8.496-2.785,16.992-5.783,25.487-8.568
				c11.495-3.854,23.633-7.781,35.841-8.281c6.425-0.285,12.637,0.428,18.849,1.785c11.137,2.285,22.132,7.068,30.484,14.922
				c7.141,6.781,11.994,15.635,12.566,25.559c0.713,13.137-6.497,24.561-16.707,32.342c-14.136,10.852-33.697,15.35-51.189,16.992
				c-11.78,1.07-25.273,3.998-35.626,9.996c-3.569,1.998-10.853,7.066-10.709,11.85c0.071,3.213,3.927,5.998,6.282,7.426
				c7.782,4.713,19.063,7.141,27.844,8.424c17.35,2.643,35.697,2.715,53.189,2.072c26.986-1.072,54.188-4.355,80.891-8.496
				c44.692-6.926,89.671-15.207,133.436-26.773c29.271-7.783,58.829-17.207,86.316-30.057c18.99-8.854,36.982-19.492,53.188-32.842
				c12.994-10.781,24.06-22.846,34.556-36.055c6.996-8.924,16.277-18.135,26.916-22.703c8.066-3.355,17.205-3.998,24.845,0.928
				c10.353,6.783,12.494,20.133,10.709,31.557c-2.499,16.207-12.423,31.557-23.347,43.336c-7.21,7.783-30.414,33.199-25.273,45.551
				c4.57,11.066,32.984,14.992,42.908,16.277c12.709,1.643,25.988,0.215,38.482-2.143c17.491-3.213,34.197-8.496,51.475-12.494
				c11.566-2.713,29.486-6.639,39.41,2.143c4.141,3.641,6.068,8.639,6.64,14.064c0.643,6.426-2.213,12.424-5.926,17.42
				c-4.497,5.926-10.566,11.209-16.491,15.707c-16.992,12.852-37.911,23.633-57.26,32.484
				c-26.486,12.209-54.045,22.49-81.746,31.486c-31.271,10.137-63.184,18.633-95.383,25.273
				c-22.561,4.641-45.265,8.354-68.182,10.924c-23.133,2.568-46.479,4.641-69.753,5.568c-15.278,0.57-30.914,0.713-46.121-0.643
				c-11.352-1-38.054-3.785-39.195-19.277c-0.643-9.352,8.71-15.92,16.063-19.633c4.141-2.143,8.781-4.998,12.066-8.496
				c0.643-0.715,2.855-3.355,2.713-4.426c-0.215-0.572-1.714-1.43-2.214-1.643c-2.999-1.57-7.14-2.428-10.423-2.855
				c-6.498-0.93-13.352-1-19.92-0.857c-9.852,0.285-19.848,1.213-29.699,2.428c-22.275,2.855-44.908,4.854-67.326,6.711
				c-35.34,2.998-70.752,5.426-106.163,7.424c-92.242,5.141-184.983,7.568-277.297,5.783c-47.405-0.928-94.812-2.998-142.003-6.854
				c-43.48-3.57-87.174-8.639-130.01-16.705c-45.336-8.496-90.386-18.92-135.078-30.414
				c-48.834-12.494-97.383-26.346-145.574-41.268c-45.764-14.135-91.385-29.271-136.506-45.479
				c-41.623-14.92-83.032-30.77-123.799-47.977c-33.912-14.279-67.824-29.557-100.381-46.906
				c-12.922-6.854-25.701-14.137-38.053-22.061c-9.853-6.283-19.634-13.064-28.416-20.705c-10.779-9.352-24.488-21.918-31.77-34.34
				c-4.498-7.711-7.068-16.492-2.643-24.846c3.143-5.854,8.639-9.566,14.065-13.137c2.784-1.785,7.854-4.855,9.424-7.854
				c3.284-6.283-8.853-19.49-12.423-23.346c-6.14-6.568-12.779-12.852-19.348-18.92c-8.639-7.996-17.42-15.777-26.201-23.561
				c-22.348-19.705-44.693-39.266-66.684-59.328c-53.902-49.262-105.949-101.809-149.643-160.496
				c-26.772-35.84-50.619-74.463-68.253-115.586c-10.924-25.418-21.133-51.334-29.629-77.678
				c-6.068-18.705-11.565-38.268-14.707-57.758c-2.856-17.35-6.782-51.834,12.637-61.758c19.205-9.709,45.05,12.566,57.687,24.775
				c8.354,7.996,18.991,17.49,29.486,22.631c3.713,1.785,10.066,4.355,14.136,2.285c7.497-3.928,8.21-22.775,8.21-29.771
				c0-10.994-1.213-22.203-2.783-33.057c-2.07-14.42-4.998-28.771-8.282-42.907c-7.211-31.199-11.994-63.041-14.993-94.883
				c-3.713-38.981-4.783-78.534-2.927-117.587c1.499-32.413,5.069-66.683,13.208-98.168c1-3.854,1.713-7.853,2.284-11.779
				c2.856-21.133-0.571-42.979-5.568-63.47c-5.641-23.347-13.494-46.192-20.134-69.253c-9.209-32.199-16.563-65.611-12.779-99.31
				c2.213-19.42,7.211-42.123,17.849-58.829c6.426-10.067,17.491-21.276,30.7-18.277c8.281,1.856,13.564,8.71,16.492,16.35
				c3.712,9.853,4.068,21.704,3.283,32.127c-0.285,3.855-0.285,7.711-0.07,11.495c0.855,14.207,5.283,29.343,12.779,41.408
				c4.926,7.925,13.351,17.492,23.274,18.42c8.139,0.785,14.993-4.712,19.99-10.638c10.853-12.779,17.849-32.913,22.347-48.763
				c8.567-30.771,15.635-62.113,22.418-93.384c7.496-34.056,14.707-68.253,22.846-102.166
				c8.781-36.839,18.635-73.607,31.057-109.376c11.638-33.342,25.773-66.54,44.479-96.525
				c13.279-21.419,31.557-46.479,52.476-61.114c11.852-8.353,28.772-15.563,42.552-7.068c10.066,6.212,13.707,18.206,14.136,29.486
				c0.643,15.207-4.142,31.485-10.067,45.336c-4.783,11.138-8.709,24.346-8.781,36.625c0,6.497,1.214,15.278,6.641,19.705
				c10.923,8.853,33.412-4.212,42.622-10.21c14.851-9.852,28.843-22.489,41.337-35.055c19.205-19.205,36.84-40.194,53.547-61.542
				c31.912-40.98,68.396-78.677,107.805-112.446c33.699-28.843,70.324-55.545,108.806-77.605
				c14.564-8.425,29.629-16.278,45.05-22.989c12.352-5.426,25.346-10.353,38.41-13.779c14.993-3.855,40.41-8.281,51.619,5.997
				c1.285,1.643,2.284,3.498,3.069,5.498c2.142,5.711,2.856,11.637,1.714,17.634c-2,10.566-9.281,19.276-16.921,26.487
				c-8.425,7.782-18.063,14.493-27.272,21.348c-11.78,8.71-29.7,21.989-33.77,36.768c-1.071,3.713-1.214,7.497-0.571,11.28
				c1.642,9.781,11.138,15.564,20.989,17.635c11.566,2.428,22.918-4.926,33.414-9.067c14.635-5.711,28.914-13.137,42.551-20.918
				c15.777-8.854,31.127-18.491,46.191-28.415c20.42-13.423,41.838-25.773,63.613-36.911
				c29.699-15.136,129.081-63.541,156.64-27.487c2.927,3.784,6.211,7.068,10.209,9.639c15.278,9.924,37.339,7.067,54.117,3.427
				c15.278-3.213,30.558-8.067,45.335-13.279c20.063-6.997,39.839-14.851,59.544-22.918c18.419-7.567,37.411-13.922,56.616-19.348
				c43.407-12.28,90.171-20.49,135.221-23.061c23.275-1.285,68.467-2.142,89.243,9.71c7.782,4.426,16.992,11.423,16.636,21.418
				c-0.43,13.922-19.206,21.775-30.201,25.845c-10.209,3.713-20.918,6.497-31.556,8.996c-14.065,3.213-28.272,5.783-42.552,8.067
				c-20.847,3.355-41.623,7.282-62.184,12.137c-18.35,4.355-36.697,9.496-54.475,15.85c-19.919,7.211-53.047,21.204-64.184,40.553
				c-4.926,8.424-10.924,15.921-17.92,22.703c-11.138,10.709-24.203,18.92-37.697,26.202c-14.635,7.854-29.771,14.778-44.621,22.274
				c-4.854,2.499-10.281,5.712-14.136,9.639C8034.204-1083.354,8042.343-1082.782,8049.411-1081.926z M8539.464-1257.557
				c43.265-23.988,102.736-45.05,152.427-31.842c13.636,3.642,29.2,9.567,39.553,19.491c7.354,7.067,12.208,16.635,9.853,26.986
				c-2.285,9.924-10.424,16.85-19.563,20.563c-11.28,4.497-24.346,4.497-36.125,1.999c-8.781-1.928-17.706-3.284-26.631-4.213
				c-33.983-3.498-77.392-1.07-109.376,11.852c-10.424,4.284-31.128,10.709-38.554-2.07c-4.354-7.496-0.57-16.35,4.07-22.632
				C8521.258-1245.776,8530.539-1252.63,8539.464-1257.557z M8865.165-1000.893c11.066-3.428,23.561-5.641,34.912-7.426
				c16.85-2.713,34.055-4.426,51.047-4.997c31.771-1,91.528,1.499,98.596,42.123c2.643,14.992-1.428,29.485-12.779,39.838
				c-15.135,13.779-39.053,16.278-56.758,5.926c-27.845-16.278-58.188-37.125-92.242-31.557
				c-10.209,1.714-21.704,1.643-31.557-1.999c-7.639-2.855-15.35-8.496-16.207-17.277c-0.57-5.926,2.285-11.138,6.568-15.064
				C8851.743-995.967,8858.739-998.965,8865.165-1000.893z M8476.565-307.794c-9.496-4.142-19.135-10.495-25.346-18.92
				c-4.855-6.497-8.211-15.492-4.213-23.274c6.354-12.28,23.489-10.21,34.412-7.068c11.139,3.213,22.775,8.139,33.342,12.851
				c15.564,6.926,30.914,14.851,45.479,23.703c27.13,16.492,75.893,51.19,59.614,89.101c-5.997,13.993-17.277,23.917-32.413,26.416
				c-20.205,3.284-41.694-7.71-50.833-25.987C8522.187-259.817,8508.121-293.872,8476.565-307.794z M7520.521,224.951
				c9.852-9.209,22.418-16.207,36.055-17.205c10.994-0.787,22.274,2.568,29.628,11.209c5.212,6.139,7.425,13.922,6.997,21.918
				c-0.5,9.637-4.783,18.848-10.281,26.701c-5.212,7.568-9.995,15.42-14.422,23.488c-9.281,16.85-17.063,34.84-23.131,53.117
				c-4.641,13.994-8.925,29.771-10.354,44.479c-0.643,6.213-2.569,13.994-9.638,15.564c-7.567,1.643-13.065-5.568-16.421-11.137
				c-4.426-7.426-7.781-16.279-10.352-24.488c-7.14-22.848-10.496-48.977-8.639-72.822
				C7492.034,269.287,7500.744,243.371,7520.521,224.951z M7479.54-136.876c12.494-6.497,28.058-12.565,42.408-12.137
				c10.138,0.285,20.205,4.069,25.416,13.351c4.998,8.853,3.57,19.491-0.713,28.344c-5.283,10.923-14.994,19.705-25.417,25.702
				c-7.711,4.569-15.278,9.495-22.489,14.85c-27.559,20.276-58.044,51.19-73.037,82.247c-4.854,10.209-15.85,28.914-29.914,24.416
				c-8.281-2.641-11.424-11.709-12.209-19.49c-1.07-10.281,1.143-21.563,4.498-31.271
				C7403.933-57.699,7433.847-113.315,7479.54-136.876z M6818.926,518.168c3.142-2.07,6.497-3.783,10.067-5.068
				c25.273-8.781,52.617,10.066,71.465,24.916c19.205,15.279,37.34,33.127,54.403,50.762c25.916,26.773,50.69,54.832,75.036,83.104
				c28.771,33.412,62.969,63.041,98.167,89.529c44.193,33.127,91.813,62.398,140.29,88.814
				c35.982,19.563,72.895,37.768,110.376,54.332c11.066,4.926,23.489,8.566,34.983,12.279c11.424,3.57,23.346,7.211,34.341,11.852
				c7.425,3.141,19.776,8.639,19.705,18.205c-0.071,9.639-11.852,13.852-19.419,16.207c-12.852,3.855-30.058,3.926-43.337,3.57
				c-21.276-0.572-42.766-2.855-63.827-5.641c-26.13-3.428-52.117-7.781-77.891-12.709c-28.344-5.354-56.545-11.352-84.604-17.848
				c-28.271-6.568-56.33-13.709-84.245-21.348c-25.487-7.068-50.833-14.564-75.893-22.918
				c-38.981-12.992-96.382-37.91-112.874-79.461c-4.855-12.352-5.712-25.631-1.5-38.34c3.428-10.209,10.066-19.563,18.991-25.701
				c2.855-2.07,5.569-4.283,8.139-6.711c4.355-4.213,8.067-9.139,10.638-14.637c13.137-28.629-15.564-54.475-36.768-68.824
				c-13.994-9.496-27.559-19.775-40.41-30.699c-11.637-9.924-22.917-20.563-32.984-32.127
				c-12.208-14.066-31.556-39.625-23.203-59.545C6810.716,525.094,6814.356,521.168,6818.926,518.168z M6990.63-988.97
				c-17.849,22.774-32.199,49.333-41.766,76.678c-7.782,22.275-13.565,48.405-12.066,72.108c0.785,13.279-0.57,34.983-16.349,39.267
				c-10.281,2.785-20.062-3.998-26.416-11.28c-8.64-9.853-13.993-23.203-16.706-35.911c-12.424-57.829-12.28-130.724,28.771-177.63
				c13.137-14.993,30.842-30.2,50.69-35.055c13.851-3.355,28.772-1.428,38.909,9.353c7.141,7.711,9.996,17.991,9.281,28.344
				C7004.124-1010.531,6998.269-998.751,6990.63-988.97z M8899.363,549.439c4.854-13.922,13.423-27.486,25.273-36.482
				c9.21-6.996,21.775-11.994,33.198-7.426c10.139,4.141,14.922,13.994,16.564,24.275c2.355,14.92-1.357,32.555-5.641,46.834
				c-12.994,43.336-48.263,74.537-88.172,93.242c-10.21,4.783-34.627,15.777-43.337,3.068c-5.283-7.781-0.286-18.133,4.284-24.916
				c6.496-9.781,16.063-18.92,25.201-26.273c2.214-1.785,4.284-3.783,6.141-5.926
				C8887.369,598.844,8892.01,570.287,8899.363,549.439z M6743.604-27.285c-17.705-18.705-32.77-40.98-40.053-65.897
				c-5.354-18.563-6.282-38.195-0.928-56.83c4.213-14.564,12.352-28.629,24.203-38.339c9.853-8.21,22.774-13.493,35.697-10.709
				c12.279,2.57,20.704,11.709,25.631,22.847c6.925,15.707,7.281,35.555,5.854,52.403c-1.07,12.565-0.856,25.131,0.5,37.696
				c1.071,9.995,2.855,19.705,4.855,29.486c3.069,15.063,4.854,39.267-12.352,46.905
				C6771.377-2.797,6753.101-15.506,6743.604-27.285z"/>
			<path fill="#FFFFFF" d="M7511.382,247.727c14.207-8.639,28.271-13.922,37.41-9.424c22.062,10.994-28.058,74.035-19.275,138.148
				c5.64-31.271,22.561-77.178,47.549-113.018c28.2-40.553-15.637-66.826-51.619-33.271
				C7519.806,235.445,7515.237,241.371,7511.382,247.727z"/>
			<path fill="#FFFFFF" d="M7418.212,959.529c10.638-4.141,19.705-8.994,20.633-13.779c2.355-12.064-57.9-0.285-210.328-90.313
				c-152.428-90.029-194.407-143.719-264.588-219.324c-61.613-66.326-114.445-118.301-149.144-87.887
				c-2.57-10.139-0.429-18.492,8.067-24.061c31.199-20.42,74.393,4.783,201.618,152.428
				c99.452,115.373,278.082,202.189,351.333,234.531c33.912,15.064,118.158,30.557,70.467,45.049
				C7439.416,958.244,7429.921,959.316,7418.212,959.529z M6937.155,670.668L6937.155,670.668c0,0,37.554,23.631,29.129,58.471
				c-6.068,25.203-47.906,34.984-57.188,62.328c-2.57-19.133,6.783-34.982,18.135-42.908
				C6949.578,732.994,6965.642,704.08,6937.155,670.668z"/>
			<path fill="#C3DBF3" d="M7432.919,207.246c-10.709,57.115-34.27,213.826,10.353,295.359
				c55.188,100.809,21.562,9.566,43.193-19.205c21.562-28.844,62.327-25.203,62.327,92.383
				c0,117.588,141.647,356.402,523.251,296.432c381.604-60.043,378.034-103.236,429.581-92.457
				c51.619,10.854,55.26,68.396-23.988,75.607c-79.177,7.211-92.385,79.248,123.655,45.621
				c215.969-33.627,271.157-76.82,311.994-128.439c40.767-51.547,73.751-5.354,28.2,43.838c-45.621,49.189-33.34,66.609,21.99,73.82
				c55.402,7.141,126.154-39.623,129.795-4.854c3.57,34.84-167.42,108.662-318.633,125.439
				c-151.215,16.777-163.209-5.996-135.008-20.418s34.198-40.195-51.547-29.416c-85.816,10.854-479.058,41.766-720.656-3.568
				c-241.6-45.336-614.351-175.203-704.379-253.236c-90.029-77.963,32.413-43.838-22.775-102.881
				c-55.188-59.113-253.236-199.477-328.843-375.893s-49.19-225.605,14.422-164.422c63.612,61.186,76.82,16.279,52.831-87.6
				c-24.06-103.879-24.06-232.746-4.854-307.211c19.206-74.393-45.55-159.566-35.982-244.74
				c9.638-85.245,58.829-92.456,53.974-30.058c-4.783,62.399,58.83,134.437,92.457,14.422
				c33.555-120.014,52.76-291.575,119.942-399.596c67.253-108.02,117.801-73.179,86.458,0
				c-31.413,73.18,15.564,126.012,147.573-43.193s325.987-260.376,342.408-217.183c16.421,43.194-85.603,62.971-77.178,112.161
				c3.284,19.348,27.845,27.13,44.479,23.774c19.775-3.998,37.339-3.427,47.549,0.856c8.21,3.428,10.28,8.425,5.068,15.921
				c-7.781,11.209-30.271,25.917-74.393,43.052c-73.965,28.7-130.51,92.17-155.426,141.433c-7.711,15.35-22.133,49.333-8.496,64.612
				c17.42,19.49,65.969-9.639,82.389-20.276c13.208-8.639,31.057-23.418,41.123-1.999c16.921,35.911-78.463,110.019-193.051,199.119
				c-50.262,39.053-141.932,121.871-97.168,194.765c1.071,1.713,3.285,2.284,4.927,1.214c1.714-1,2.284-3.213,1.214-4.927
				c-41.766-68.182,46.264-147.144,95.383-185.34c117.158-91.028,214.541-166.778,195.193-207.901
				c-13.137-27.986-34.342-12.137-51.547-0.928c-12.709,8.21-59.758,36.411-73.109,21.489c-10.637-11.923,3.642-44.764,9.567-56.544
				c24.274-48.12,79.462-110.091,151.571-138.077c45.621-17.706,69.181-33.342,77.677-45.55c7.925-11.352,4.284-21.419-8.14-26.631
				c-7.424-3.141-18.205-4.568-30.699-3.998c26.916-10.566,59.043-29.628,90.029-50.047
				c70.252-46.192,185.411-99.024,210.613-65.969c25.203,32.984,73.251,21.847,177.63-20.919
				c104.379-42.693,241.171-52.332,274.798-33.127c33.555,19.205,1.213,37.196-85.246,51.047
				c-86.387,13.779-166.135,37.768-185.982,71.966c-19.775,34.198-55.759,47.406-97.168,68.396
				c-33.697,17.063-32.413,40.552,38.34,29.629c12.779-1.999,45.691-0.144,23.773,16.277c-17.135,12.78-58.9,30.557-137.434,50.976
				c-164.994,42.979-155.07,128.226-155.07,128.439c0.215,1.999,1.928,3.427,3.928,3.284c1.928-0.215,3.427-1.999,3.213-3.927
				c0-0.214-9.281-79.463,149.714-120.871c79.604-20.705,122.228-38.91,139.934-52.118c6.997-5.212,17.349-15.921,6.711-23.346
				c-2.284-1.571-5.427-2.785-9.425-3.499c10.496-2.284,21.99-5.14,34.698-8.639c128.438-35.411,226.821-67.182,268.801-45.621
				c41.979,21.633-16.206,57.045,151.784,30.629c167.992-26.416,292.789-9.639,231.604,31.199
				c-61.185,40.766-193.194,49.19-164.351,103.165c19.92,37.41,145.717,53.975,201.547,83.032
				c13.779,7.211,23.988,17.42,28.201,27.13c23.346,54.045-129.082,0.714-137.292-2.499
				c-102.737-40.267-186.054-34.698-228.677-18.206c-25.631,9.924-53.189,36.197-12.494,48.977
				c8.282,2.643,43.979,17.421,37.482,31.129c-11.066,23.274-108.092-1.071-124.298-5.569
				c-153.784-42.337-230.39,0.214-230.604,0.286c-1.785,0.999-2.428,3.141-1.5,4.926c1,1.714,3.143,2.356,4.927,1.428
				c0.214-0.143,74.321-41.266,225.321,0.286c20.562,5.711,118.658,31.199,132.651,1.713c9.495-20.062-28.487-36.839-41.837-41.052
				c-33.271-10.495-4.427-28.7,12.922-35.411c40.98-15.85,121.014-21.205,220.467,17.063c0.428,6.069,4.783,18.563,31.913,28.344
				c59.044,21.419,207.187,49.048,233.032,108.806c21.133,48.763-29.415,53.76-64.97,38.839
				c-96.169-40.267-195.621-53.975-238.814-7.211c-43.194,46.835-109.233,3.641-161.994,22.846
				c-52.832,19.205-25.202,59.972,64.755,61.186c90.028,1.214,156.282,31.199,112.375,65.969
				c-43.979,34.84,31.627,52.832,82.032,62.398c50.404,9.639,91.242,51.118,63.612,88.815
				c-27.559,37.696-147.572,35.982-240.028-29.986c-92.385-66.04-189.553-97.239-212.399-74.393
				c-22.774,22.774,34.842,50.404,18.063,81.604c-16.849,31.199-81.604,3.569-175.202-39.624
				c-93.599-43.193-534.031-153.641-761.994,75.606c-228.034,229.248-202.832,519.61-156.068,555.593
				c46.834,35.982,64.826-110.377,111.66-112.805C7477.327,65.813,7438.917,175.332,7432.919,207.246z M7375.804,911.125
				c-73.251-32.342-251.881-119.158-351.333-234.531c-127.226-147.645-170.419-172.848-201.618-152.428
				c-31.199,20.418,22.775,79.248,86.388,122.441s45.621,82.746,17.991,101.951c-27.559,19.205-43.193,85.246,93.598,130.795
				c136.793,45.621,370.253,93.598,425.441,76.82C7493.962,941.682,7409.716,926.189,7375.804,911.125z M8877.588,663.385
				c25.702-12.064,69.396-39.195,84.245-88.814c25.631-85.389-36.839-76.25-55.688-22.775
				c-9.066,25.703-13.351,58.258-34.912,75.607C8835.18,656.389,8827.755,686.73,8877.588,663.385z M7525.446,230.162
				c35.982-33.555,79.819-7.281,51.619,33.271c-28.273,40.551-46.193,93.955-49.191,124.582
				C7523.233,435.066,7461.62,289.707,7525.446,230.162z M7394.866-8.58c9.924-29.343,37.268-95.739,87.957-121.941
				c65.969-34.127,78.605,17.277,34.842,42.693c-43.837,25.488-82.247,66.611-98.383,100.238
				C7400.007,52.248,7381.943,29.545,7394.866-8.58z M6749.03-31.997c-119.3-126.012,50.048-236.815,37.84-92.456
				c-2.499,29.058,1.999,52.118,5.426,69.253C6802.647-4.225,6768.164-8.08,6749.03-31.997z M6884.395-849.607
				c-7.71-35.697-18.849-118.872,27.13-171.348c59.9-68.396,111.232-20.847,73.395,27.559
				c-37.84,48.334-57.973,110.447-55.332,153.713C6932.8-788.423,6894.318-803.272,6884.395-849.607z M8542.962-1251.273
				c27.059-15.064,91.956-45.836,147.145-31.128c71.751,19.063,46.549,65.54-2.999,54.974
				c-49.477-10.566-105.593-5.926-140.147,8.067C8505.907-1202.797,8507.765-1231.712,8542.962-1251.273z M8867.308-994.039
				c-37.055,11.352-18.063,36.126,19.49,29.985c37.554-6.14,71.537,17.492,97.025,32.413c25.488,14.922,65.111-2.284,58.829-38.267
				C9033.014-1025.381,8897.579-1003.32,8867.308-994.039z M8479.421-350.131c-37.197-10.71-34.77,20.418,0,35.769
				c34.84,15.35,50.404,53.76,63.612,80.176c13.208,26.345,55.831,33.556,70.181,0
				C8635.417-285.947,8509.835-341.35,8479.421-350.131z"/>
			<path fill="#5396DC" d="M7852.147-936.924c20.063-22.703,57.402-47.834,126.583-65.896c23.347-6.068,43.479-11.923,60.757-17.492
				c15.707,11.066,28.271,24.061,53.975,30.485c65.825,16.492,194.407-64.112,358.972-34.769
				c97.239,17.349,88.243,37.125,41.837,41.337c-32.199,2.928-78.819-13.564-135.507-7.71
				c-105.235,10.852-105.164,28.486-76.035,40.98c17.563,7.496,54.474,5.926,60.329,20.275
				c15.635,38.34-128.297,8.282-247.168,46.265c-118.943,37.981-210.258,35.697-141.647,20.062
				c68.61-15.564,96.026-58.044-33.556-46.692C7875.637-906.152,7857.146-918.789,7852.147-936.924z M8884.299-983.401
				c-0.856,1.999,0.214,3.998,4.427,5.926c21.062,9.495,53.117-17.563,85.245,9.495c23.203,19.563,40.767,17.777,41.979,6.997
				C8993.462-993.396,8924.708-989.113,8884.299-983.401z M8567.593-1249.703c-4.283,2.856-7.496,5.712-9.139,8.496
				c-10.494,17.991,27.273-18.349,82.176-9.139c54.902,9.139,70.966-2.499,51.903-12.993
				C8661.62-1270.907,8607.573-1265.624,8567.593-1249.703z"/>
			<path fill="#5396DC" d="M7326.541-603.225c21.919-26.916,49.763-50.405,70.538-66.611
				c117.158-91.028,214.541-166.778,195.193-207.901c-13.137-27.986-34.342-12.137-51.547-0.928
				c-12.709,8.21-59.758,36.411-73.109,21.489c-10.637-11.923,3.642-44.764,9.567-56.544c5.854-11.566,13.423-23.918,22.632-36.34
				c30.557-0.571,78.105-12.138,130.438-64.97c89.886-90.6,181.199-128.01,229.247-140.29c47.978-12.28,79.178,18.277-62.47,64.897
				c-141.575,46.55-199.048,166.063-146.287,160.709c52.688-5.283,89.886-76.534,125.94-76.035
				c35.982,0.5-60.043,37.768-125.94,142.361c-65.969,104.664,52.688,133.579,231.532,94.526
				c178.844-39.124,374.393,94.455,344.407-22.703c-2.142-8.282-1.57-16.136,1.071-23.703c37.34-5.712,95.025-6.426,173.346,15.136
				c20.562,5.711,118.658,31.199,132.651,1.713c9.495-20.062-28.487-36.839-41.837-41.052c-33.271-10.495-4.427-28.7,12.922-35.411
				c12.779-4.927,29.344-8.854,49.119-10.781c-20.918,39.695,41.195,86.816,85.531,94.099c56.401,9.21,106.949,35.197,37.625,29.771
				c-69.324-5.427-37.625,46.763-142.075,24.631c-104.379-22.204-215.397,21.562-176.273,86.388
				c39.053,64.755,139.22,85.173,210.472,127.438c71.252,42.194-26.346,36.911-116.802-32.627
				c-90.386-69.609-250.452-93.884-186.769-56.401c63.684,37.41,55.188,88.314-14.422,51.547
				c-69.609-36.697-176.559-43.194-105.307-63.256s-63.184-85.316-263.945-86.744s-256.521,60.971-153.928,46.835
				c102.523-14.137,236.389,29.771,87.602,29.771c-148.786,0-332.412,119.442-447.572,110.161
				C7322.899-527.689,7316.974-562.388,7326.541-603.225z M8749.221-442.302c0,0-40.267-15.564-67.183-14.422
				c-26.916,1.214,21.633,29.415,58.187,44.407C8776.851-397.252,8803.267-424.096,8749.221-442.302z M8493.128-334.924
				c-4.568-0.5-8.424-0.072-9.066,2.713c-1.785,7.496,41.693,5.997,55.473,44.121c13.852,38.125,26.131,47.406,33.913,44.693
				c7.14-2.428,9.138-16.635,1.856-27.701c-0.785-0.999-1.57-2.07-2.356-3.069c-0.999-1.143-1.999-2.428-3.069-3.713
				c-6.711-7.925-15.351-16.35-26.273-25.273C8526.041-317.575,8508.906-327.785,8493.128-334.924z"/>
			<path fill="#FFFFFF" d="M8507.407-883.448c-1.785,0.643-3.498,1.213-5.141,1.855c-25.631,9.924-53.189,36.197-12.494,48.977
				c8.282,2.643,43.979,17.421,37.482,31.129c-5.141,10.852-29.129,11.352-54.831,8.281c16.063-1.143,34.626-4.141,33.913-11.494
				c-1.215-12.923-46.764-16.207-45.907-41.409C8461.072-864.314,8480.991-877.522,8507.407-883.448z"/>
			<path fill="#FFFFFF" d="M8032.205-1090.422c-6.426,11.923,9.139,20.99,58.401,13.423c12.779-1.999,45.691-0.144,23.773,16.277
				c-2.855,2.142-6.426,4.355-10.709,6.782c21.633-25.773-65.611-1.927-74.036-18.491
				C8026.065-1079.498,8027.421-1085.21,8032.205-1090.422z"/>
			<path fill="#FFFFFF" d="M6744.462-190.493c12.351,11.209,20.633,28.701,18.348,56.045
				c-5.212,62.113,19.776,96.883,22.561,117.444c7.497-4.284,11.424-16.064,6.926-38.196c-3.427-17.135-7.925-40.195-5.426-69.253
				C6791.725-182.211,6767.593-199.061,6744.462-190.493L6744.462-190.493z"/>
			<path fill="#FFFFFF" d="M6925.875-814.053c-10.709-29.058-13.636-64.541,2.57-105.165
				c31.699-79.747,35.269-126.368,3.642-121.228c50.118-37.696,86.244,4.354,52.832,47.049
				c-37.84,48.334-57.973,110.447-55.332,153.713C6930.373-827.689,6928.802-819.265,6925.875-814.053z"/>
			<path fill="#FFFFFF" d="M8867.308-994.039c-24.703,7.567-24.488,21.062-10.496,27.416c0.715-7.068,6.426-13.565,22.775-16.064
				c43.266-6.568,127.225-13.208,141.646,32.413c2.356,7.568,2.07,14.422-0.143,20.562c14.422-6.14,25.06-20.275,21.562-40.194
				C9033.014-1025.381,8897.579-1003.32,8867.308-994.039z"/>
			<path fill="#FFFFFF" d="M8898.292,652.176c24.061-14.992,52.189-39.766,63.541-77.605c22.99-76.678-24.988-77.105-48.69-37.768
				c6.997-2.713,14.064-3.713,20.49-1.5C8956.265,543.229,8955.979,598.631,8898.292,652.176z"/>
			<path fill="#FFFFFF" d="M6814.285,545.941c21.775-1.5,50.405,9.139,87.102,45.049
				c106.806,104.379,178.843,209.973,336.054,279.582c120.8,53.475,201.547,66.969,211.471,84.746
				c41.695-14.279-39.838-29.486-73.107-44.193c-73.251-32.342-251.881-119.158-351.333-234.531
				c-127.226-147.645-170.419-172.848-201.618-152.428C6814.999,529.307,6812.571,536.803,6814.285,545.941z"/>
			<path fill="#FFFFFF" d="M7393.01,28.33c6.425-0.07,13.279-4.641,19.634-17.99c19.205-40.48,45.049-81.104,87.601-104.735
				c26.559-14.708,24.845-41.623-2.427-42.766c52.688-19.276,60.042,25.987,19.848,49.333
				c-43.837,25.488-82.247,66.611-98.383,100.238C7408.288,35.041,7397.722,37.469,7393.01,28.33z"/>
			<path fill="#FFFFFF" d="M7526.946,392.871c-1.143-8.781-1.143-20.633,1.57-36.268c7.711-44.551,34.697-86.744,35.625-109.307
				c0.572-15.42-13.064-26.629-36.054-19.418c35.412-29.986,76.535-3.998,48.978,35.555
				c-28.273,40.551-46.193,93.955-49.191,124.582C7527.659,389.943,7527.374,391.586,7526.946,392.871z"/>
			<path fill="#FFFFFF" d="M7994.366-508.342c-168.92-19.063-381.961-3.784-518.682,133.722
				c-228.034,229.248-202.832,519.61-156.068,555.593c12.637,9.709,23.203,6.139,32.77-4.283
				c-6.568,11.494-16.277,17.705-30.984,16.348c-82.747-7.781-85.174-231.103-13.209-387.1
				c72.037-156.068,144.004-194.907,172.847-220.109C7502.814-433.234,7725.993-567.742,7994.366-508.342z"/>
			<path fill="#FFFFFF" d="M8411.453-499.132c-7.211,0.928-12.923,3.213-16.636,6.926c-22.774,22.774,34.842,50.404,18.063,81.604
				c-7.996,14.778-26.702,16.35-54.117,9.353c17.92-5.854,26.273-16.35,16.849-33.912
				C8350.268-482.782,8372.614-504.7,8411.453-499.132z"/>
			<path fill="#FFFFFF" d="M8498.626-636.495c5.426,15.921,36.91,30.771,90.6,31.485c90.028,1.214,156.282,31.199,112.375,65.969
				c-43.979,34.84,31.627,52.832,82.032,62.398c50.404,9.639,91.242,51.118,63.612,88.815c-2.498,3.427-5.711,6.496-9.639,9.209
				c6.926-24.488,3.713-48.905-27.558-60.186c-75.036-26.986-154.354-39.767-131.438-85.245c22.989-45.55-40.195-55.688-90.6-55.116
				C8553.956-578.736,8491.2-613.435,8498.626-636.495z M8454.075-347.775c24.346,4.998,55.974,17.063,89.529,44.622
				c53.117,43.551,53.046,75.035,32.127,91.242c14.707,1.713,29.986-4.713,37.482-22.275
				c22.203-51.761-103.379-107.163-133.793-115.944C8465.713-354.058,8457.431-352.345,8454.075-347.775L8454.075-347.775z"/>
			<path fill="#FFFFFF" d="M8832.823-711.459c-62.256-13.208-117.158-9.21-146.358,22.418
				c-13.779,14.921-29.771,20.704-46.978,22.274c54.045-20.062,33.983-62.541,108.734-63.041
				C8782.704-730.021,8810.263-721.954,8832.823-711.459z"/>
			<path fill="#FFFFFF" d="M8710.311-863.387c4.927,1.785,9.924,3.569,14.993,5.568c0.428,5.997,4.783,18.563,31.913,28.344
				c59.044,21.419,207.187,49.048,233.032,108.806c16.135,37.268-9.567,48.977-38.482,45.764
				c23.918-15.136,35.77-44.765-32.556-77.677c-32.841-15.85-58.829-26.06-80.604-33.627
				C8796.483-800.845,8713.666-809.983,8710.311-863.387z"/>
			<path fill="#FFFFFF" d="M8645.056-1005.748c-10.566,9.353-14.207,20.419-6.568,34.698c19.92,37.41,145.717,53.975,201.547,83.032
				c13.779,7.211,23.988,17.42,28.201,27.13c6.782,15.635-1.214,22.274-16.135,23.774c12.208-10.281-15.779-41.267-46.692-50.477
				c-38.411-11.352-123.013-21.561-174.06-73.18C8613.285-979.046,8623.923-994.039,8645.056-1005.748z"/>
			<path fill="#FFFFFF" d="M8307.931-1132.545c50.547-11.352,89.101-14.992,111.519-3.498
				c41.979,21.633-16.206,57.045,151.784,30.629c167.992-26.416,292.789-9.639,231.604,31.199
				c-4.142,2.784-8.639,5.426-13.423,7.925c9.281-13.565,9.354-28.059-24.202-34.27c-70.823-13.208-195.05,23.417-286.221,25.773
				C8401.458-1072.716,8440.725-1150.465,8307.931-1132.545z"/>
			<path fill="#FFFFFF" d="M7603.838-1155.319c-0.999,4.212-1.214,8.639-0.357,13.279c3.284,19.348,27.845,27.13,44.479,23.774
				c19.775-3.998,37.339-3.427,47.549,0.856c8.21,3.428,10.28,8.425,5.068,15.921c-2.142,2.999-5.283,6.283-9.639,9.781
				c3.285-7.211,4.498-15.992-8.281-17.706c-22.347-2.998-75.607,12.565-84.031-23.132
				C7596.841-1140.184,7599.126-1147.823,7603.838-1155.319z"/>
			<path fill="#FFFFFF" d="M7183.538-939.565c10.852,30.771,61.685,21.848,154.712-97.453
				c132.009-169.205,325.987-260.376,342.408-217.183c5.141,13.565-1.428,24.846-12.565,35.483c2.07-3.355,3.355-6.497,3.427-9.495
				c0.571-24.917-27.915-28.201-112.518,16.777s-152.356,121.229-241.171,230.391
				C7245.366-891.944,7185.966-897.299,7183.538-939.565z"/>
			<path fill="#FFFFFF" d="M7044.532-847.751c15.207-53.689,33.913-104.594,59.687-146.074
				c57.473-92.241,102.737-80.318,95.097-29.2c-7.71-25.345-42.336-21.918-78.891,29.986
				C7096.365-958.842,7068.165-900.869,7044.532-847.751z"/>
			<path fill="#FFFFFF" d="M6858.479-639.779c16.778-20.562,36.482-9.424,33.341,31.128c-3.783,49.405,35.27,104.808,68.396,66.255
				c-8.354,15.278-20.705,26.487-38.981,27.558C6863.69-511.483,6897.032-636.709,6858.479-639.779z"/>
			<path fill="#FFFFFF" d="M6773.447,118.859c-22.489-87.316,4.284-104.166,52.404-57.902
				c56.687,54.617,73.321,24.775,59.257-55.973c12.066,36.125,18.635,74.037,1.928,91.029
				c-36.625,37.195-69.609-27.059-96.025-24.633C6781.016,72.311,6775.875,93.229,6773.447,118.859z"/>
			<path fill="#FFFFFF" d="M8913.785,866.004c2.356,13.35,19.704,20.275,49.69,24.201c55.402,7.141,126.154-39.623,129.795-4.854
				c1.643,16.063-33.912,40.48-87.601,63.754c26.416-17.49,46.906-33.982,49.263-44.191c7.139-30.844-49.549,7.209-100.238,0
				C8924.28,900.629,8908.358,886.707,8913.785,866.004z"/>
			<path fill="#FFFFFF" d="M8424.732,884.637c0.499,18.92,47.834,36.34,176.559,16.35c215.969-33.627,271.157-76.82,311.994-128.439
				c35.126-44.406,64.47-16.277,42.766,23.846c1.428-12.279,0.999-26.486-8.21-27.629c-16.492-2.143-33.913,45.264-124.513,88.744
				c-90.6,43.551-291.933,72.037-356.687,62.398C8425.304,913.838,8420.877,896.631,8424.732,884.637z"/>
			<path fill="#FFFFFF" d="M7478.255,514.17c0.714-11.494,2.57-23.273,8.21-30.77c21.562-28.844,62.327-25.203,62.327,92.383
				c0,117.588,141.647,356.402,523.251,296.432c381.604-60.043,378.034-103.236,429.581-92.457
				c33.413,6.998,46.692,33.557,30.557,53.332c-1.07-10.424-6.782-21.275-23.061-27.771
				c-39.267-15.564-203.045,79.676-525.605,90.955c-322.562,11.354-419.443-171.631-434.723-232.816
				c-15.277-61.258-2.713-158.426-37.41-168.063C7492.962,490.324,7483.253,502.033,7478.255,514.17z"/>
			<path fill="#FFFFFF" d="M7432.919,207.246c-10.709,57.115-34.27,213.826,10.353,295.359c0.714,1.285,1.356,2.498,1.999,3.711
				c-26.345-35.125-59.686-103.021-42.837-210.684c23.132-147.787,50.833-220.039,7.067-215.256
				c6.641-7.211,13.779-11.779,21.775-12.209C7477.327,65.813,7438.917,175.332,7432.919,207.246z"/>
			<path fill="#5396DC" d="M8806.907,896.773c59.4-30.77,76.82-10.709,38.41,10.781c-38.41,21.418,12.28,38.268,67.469,26.273
				c55.115-12.066,57.329,19.205-63.256,35.982c-120.586,16.777-147.572-2.428-109.162-7.496
				c38.338-5.141,66.254-34.484,22.774-29.129c-36.126,4.498-129.224,9.424-162.28,7.354c-11.279-0.715-18.49-2.355-1.499-2.928
				c18.349-0.57,59.187-1.713,102.237-8.852C8743.224,921.904,8790.201,905.484,8806.907,896.773z M8943.271,543.586
				c-2.784,0.713-6.14,2.783-10.138,7.139c-14.707,15.85-12.851,47.977-30.557,68.967s-25.845,19.848-27.345,28.201
				c-1.499,8.424,47.835-20.848,65.612-54.332C8949.554,572.072,8949.339,553.938,8943.271,543.586z"/>
			<path fill="#5396DC" d="M8176.351,914.266c141.219-33.27,159.21-43.051,163.993-30.271c4.784,12.779-36.839,21.418-37.196,37.768
				c-0.285,16.422,106.807,7.854,110.447,18.063c3.57,10.211-206.901,19.205-404.949,9.568
				c-198.049-9.568-604.57-129.652-695.813-212.756c-91.17-83.033,31.199-45.836-22.774-96.24s-301.214-288.006-328.772-379.178
				c-27.629-91.242,69.539-39.623,109.162,64.756c39.625,104.451,218.396,317.205,167.992,192.051s2.428-187.98,58.829-11.709
				c56.401,176.273,132.151,179.701,116.373,95.67c-15.778-83.961,33.056-43.193,39.981,33.627
				C7477.684,902.557,7963.167,964.457,8176.351,914.266z M6757.955-171.502c-6.426-0.071-14.351,3.213-20.776,16.635
				c-12.922,26.987,0,68.682,16.064,93.884c16.063,25.202,13.279-1.785,8.21-25.845c-2.07-9.71-1.142-21.275,0.643-31.485
				c0-5.141,0.286-10.566,0.714-16.135C6764.095-149.584,6762.096-161.721,6757.955-171.502z M7028.469,771.834
				c0,0-36.625-11.994-47.405,5.996c-10.781,17.992,38.41,55.189,133.793,80.391c95.383,25.203,154.783,41.98,208.187,59.973
				c53.403,17.99,45.407,4.068,10.78-9.068c-1.642-0.57-3.427-1.355-5.426-2.213c-26.773-9.639-57.33-21.418-90.957-36.34
				c-81.746-36.197-140.504-82.104-193.051-132.58C7060.597,765.123,7058.454,777.402,7028.469,771.834z M6846.556,551.867
				c-1.428,10.566,6.782,25.201,30.699,41.123c21.419,14.279,50.119,32.484,77.678,52.76c-17.206-18.205-34.841-36.482-53.546-54.76
				C6880.61,570.645,6862.405,558.436,6846.556,551.867z"/>
			<path fill="#5396DC" d="M7088.726-114.101c-6.068,32.984-11.494,92.741,0.929,182.269
				c20.419,146.645,37.196,186.555-38.411,50.691c-75.605-135.863-94.812-355.688-64.754-454.069
				c29.985-98.382,62.398-88.529,40.766,40.838c-21.561,129.295,49.905,145.145,64.826-25.202
				c14.851-170.419,47.335-303.642,91.457-372.037c44.121-68.396-17.063-66.754-61.186,41.766
				c-44.121,108.52-37.625-33.341,20.133-122.156c57.688-88.814,75.607-34.198,142.79-98.382s133.15-167.563,215.968-217.11
				c82.818-49.548,21.848,23.988-68.252,100.666c-90.101,76.749-166.922,226.178-90.101,199.477
				c76.749-26.701,39.553,10.566-30.058,52.546c-69.537,41.98-177.771,201.619-153.569,357.616
				c24.274,155.997,108.021-27.059,139.22,0s-48.264,101.309-81.604,212.112c-33.342,110.805-34.413,327.915,39.766,442.933
				c74.18,115.016,76.607-32.271,99.382-34.627c22.847-2.428-10.78,82.889-15.563,133.223c-4.784,50.332,39.623,109.447,7.21,91.885
				c-32.413-17.564-92.456-136.363-140.433-220.324c-47.978-84.031-67.111-193.193-47.978-323.988
				C7177.897-203.13,7104.147-197.062,7088.726-114.101z M6954.075-1017.1c-8.21,1.285-18.49,6.426-29.699,20.419
				c-27.059,33.556-24.917,90.314-21.348,116.088c3.642,25.773,7.497-26.345,22.847-53.975c5.283-9.566,12.565-21.918,19.848-33.983
				C6951.577-988.685,6954.433-1005.034,6954.075-1017.1z M7517.735-112.459c-1.213-3.855-4.568-7.211-12.851-7.639
				c-18.919-0.929-59.4,38.695-79.534,83.103c-20.061,44.407,17.777-10.852,36.34-27.558l0,0
				c11.139-11.495,23.847-21.633,38.554-29.843C7509.383-99.465,7515.237-106.033,7517.735-112.459z M7536.37,252.795
				c-17.135,25.061-16.207,54.332-15.922,77.678c0.286,23.418,7.141-6.641,15.637-34.84c4.854-16.064,16.563-27.416,25.773-35.984
				c1.284-4.568,2.141-8.709,2.283-12.352c0.144-4.283-0.785-8.209-2.713-11.564C7552.862,237.518,7542.224,244.229,7536.37,252.795
				z"/>
			<path fill="#FFFFFF" d="M7758.55-1178.594c70.324-46.05,184.626-98.311,209.686-65.397
				c25.203,32.984,73.251,21.847,177.63-20.919c104.379-42.693,241.171-52.332,274.798-33.127
				c21.918,12.565,15.707,24.56-15.279,35.269c3.57-7.996,2.643-14.921-5.283-19.919c-39.623-24.773-142.789-1.784-258.02,41.98
				c-115.23,43.836-138.576,43.265-184.77,20.419C7919.544-1238.922,7836.37-1212.007,7758.55-1178.594z M7573.78-1030.95
				c-48.049,32.271-84.389,77.106-103.021,113.946c-7.711,15.35-22.133,49.333-8.496,64.612c7.567,8.424,20.847,7.781,34.912,3.427
				c-35.484,15.563-70.967,14.136-44.123-57.259C7475.756-966.838,7540.153-1011.816,7573.78-1030.95z M7948.959-1001.535
				c-93.741,30.842-118.657,76.32-125.083,101.595c-1-11.495,2.284-26.631,16.492-44.836
				C7864.928-976.333,7895.413-990.041,7948.959-1001.535z M7543.724-872.097l0.928-0.571c13.208-8.639,31.057-23.418,41.123-1.999
				c16.921,35.911-78.463,110.019-193.051,199.119c-36.625,28.486-95.168,80.104-106.949,134.222l0,0
				c-7.139-72.536,68.896-138.148,136.078-178.914c67.183-40.838,138.291-102.309,147.572-133.223
				C7576.137-875.596,7564.999-879.879,7543.724-872.097z"/>
			<g>
				<path d="M8104.813-720.384c-21.562-22.846-56.402-13.493-65.041-32.127c-8.639-18.563-42.979-25.916-63.826-30.129
					c-20.919-4.212-52.189-7.782-52.189-0.643c0,7.068-6.283,21.133-10.781,30.129c-4.568,8.924,12.209,56.973,14.922,102.165
					c2.713,45.122-29.344,35.055-45.406,62.113c-16.136,27.13-18.206,59.258-47.621,88.601
					c-21.989,21.918-104.521,83.96-157.854,131.724c-14.707,13.208-65.825,37.839-114.802,48.12
					c-25.345,5.354-22.774,3.712-30.914,18.49c-5.854,10.71-15.921,34.912-37.554,57.973
					c-17.206,18.277-39.695,39.624-67.539,63.113c-62.898,53.046-130.224,87.887-160.352,132.865
					c-30.058,44.907-111.52,116.444-106.307,133.437c5.211,16.99,125.083-100.096,231.176-185.412
					c59.613-47.978,109.947-80.391,151.213-96.811c32.271-12.78,57.615-18.849,74.25-22.562c20.42-4.641,20.563-4.854,29.486-24.916
					c10.066-22.775,42.623-74.536,58.615-89.387c58.972-54.688,159.139-135.935,198.405-150.214
					c39.196-14.207,56.759-2.213,98.453-35.769c41.623-33.484,88.886-30.843,79.319-41.552
					c-9.566-10.638-23.703-26.273-60.828-16.635c-37.054,9.71-51.762-4.783-20.918-26.345
					c30.913-21.633-14.994-56.901,34.625-50.404c49.619,6.568,62.899,32.913,97.811,45.692c34.912,12.851,73.68,24.702,70.609,16.35
					C8187.488-631.926,8133.442-689.97,8104.813-720.384z"/>
				<path fill="#4D4D4D" d="M8104.813-720.384c-21.562-22.846-56.402-13.493-65.041-32.127
					c-8.639-18.563-42.979-25.916-63.826-30.129c-18.92-3.855-46.336-7.068-51.404-2.428c8.854,2.714,38.339,3.642,56.33,8.211
					c23.774,5.997,47.478,14.351,53.189,24.845c5.711,10.424,10.494,10.139,32.27,17.635c7.711,2.642,19.349,6.426,23.775,8.71
					c8.424,4.427,21.846,18.563,30.914,30.271c5.211,6.782,3.069,9.853,8.924,13.851c18.705,12.923,37.839,41.837,50.547,55.616
					c9.496,10.353,17.777,27.201,21.275,34.912c0.215-0.357,0.215-0.856,0-1.499C8187.488-631.926,8133.442-689.97,8104.813-720.384
					z"/>
				<path fill="#4D4D4D" d="M7456.122-207.128c-9.139,8.425-19.133,17.206-29.914,26.273
					c-62.898,53.046-130.224,87.887-160.352,132.865c-27.773,41.552-99.524,105.806-106.093,128.724
					c4.854-7.781,13.422-19.135,28.558-33.342c29.344-27.629,63.041-66.611,81.318-85.958
					c18.349-19.348,26.701-34.555,76.178-71.823C7395.223-147.728,7456.122-207.128,7456.122-207.128L7456.122-207.128z
					 M7878.207-581.021c-12.494,25.346-16.706,54.188-43.337,80.747c-6.568,6.568-18.42,16.563-33.27,28.772
					c0,0-123.441,98.596-146.216,110.447c-22.774,11.923-50.69,25.702-70.681,32.128c-19.99,6.425-31.414,10.352-31.414,10.352
					s44.551-2.142,91.742-26.059c22.203-11.209,63.113-41.267,101.238-74.179l0,0c0,0,80.033-64.612,103.379-84.96
					s25.416-52.761,35.126-70.109c7.425-13.279,22.347-24.631,28.985-29.271c21.063-12.28,16.064-43.479,12.709-63.541l0,0
					c0.571,5.211,1.07,10.494,1.428,15.706c2.713,45.122-29.344,35.055-45.406,62.113c-1.285,2.143-2.5,4.355-3.57,6.497
					C7878.636-581.878,7878.421-581.449,7878.207-581.021z M8081.61-559.389c-0.215-0.5-0.571-1.143-1.143-1.785
					c-9.566-10.638-23.703-26.273-60.828-16.635c-37.054,9.71-51.762-4.783-20.918-26.345c22.773-15.992,3.783-39.338,12.207-47.905
					c-6.639,3.427-8.566,11.78-8.995,22.418c-0.643,14.35-3.069,20.062-14.064,26.701c-15.278,9.21-13.993,19.419-11.353,26.559
					c3.499,9.281,15.064,8.496,30.271,10.066c10.139,1.071,18.563,5.997,26.131,1.928c9.853-5.354,26.131-6.854,40.338,2.071
					C8076.684-560.174,8079.468-559.389,8081.61-559.389z"/>
				<path fill="#82B3E6" d="M8094.104-651.487c-2.713-4.641-5.569-14.708-11.994-19.277c-7.783-5.497-46.336-39.624-56.045-40.409
					c-9.639-0.856-47.121-10.923-61.971-16.706s-16.492-5.069-9.995,3.284s21.418,27.415,33.056,41.337
					c11.637,13.923,14.778,18.277,25.488,18.492c21.846,0.356,32.127-2.356,52.902,6.211c8.781,3.641,19.135,7.925,24.418,10.994
					C8094.89-644.776,8098.603-643.706,8094.104-651.487z M8097.96-672.478c1.855-1.643,14.064-4.284,21.846-5.212
					c4.57-0.571,5.283-0.571,8.639,2.499c8.925,8.067,27.345,31.842,35.412,43.907c9.424,14.064,16.421,20.348,6.64,17.492
					c-9.78-2.785-37.981-16.492-47.478-21.847c-9.424-5.427-16.992-12.565-19.848-18.706
					C8100.601-659.698,8095.175-669.907,8097.96-672.478z M8111.239-685.043c-8.711,2.07-22.561,6.711-27.701,4.427
					c-5.213-2.214-46.264-36.626-65.755-52.476s-34.269-23.274-51.476-30.414c-17.206-7.14-20.99-11.352-12.922-10.28
					c8.067,1.142,58.615,9.995,68.752,17.134c10.21,7.068,12.924,17.992,29.059,24.774c16.135,6.854,40.908,11.28,46.191,16.35
					c3.928,3.712,10.924,13.779,14.422,18.919C8114.595-692.54,8119.806-687.042,8111.239-685.043z M8012.214-721.597
					c-8.353-2.57-43.55-14.422-52.76-18.349c-9.139-3.855-18.848-9.21-21.562-13.279c-2.784-4.069-7.067-17.35-3.284-17.206
					c3.855,0.214,36.482,17.42,53.547,24.702c13.422,5.712,27.415,18.349,32.912,23.489
					C8027.278-716.313,8015.213-720.669,8012.214-721.597z"/>
				<path fill="#136ECF" d="M7953.6-725.238c0.143,0.214,0.286,0.429,0.5,0.643c6.497,8.354,21.418,27.415,33.056,41.337
					c11.637,13.923,14.778,18.277,25.488,18.492c21.846,0.356,32.127-2.356,52.902,6.211c8.781,3.641,19.135,7.925,24.418,10.994
					c1.642,0.929,3.141,1.643,4.283,1.928c-2.713-1.428-6.211-3.712-10.709-7.354c-13.065-10.352-19.205-17.063-31.414-17.92
					c-12.209-0.856-37.91-0.143-44.193-3.213C8003.29-676.333,7970.378-708.675,7953.6-725.238z M8169.568-614.077
					c-3.356-1.499-8.067-4.283-14.279-9.21c-14.921-11.923-45.05-29.485-50.118-35.555c-3.213-3.998-6.141-9.353-7.783-12.637
					c-1.142,3.57,3.428,12.28,5.783,17.135c2.855,6.141,10.424,13.279,19.848,18.706
					C8132.229-630.427,8159.002-617.361,8169.568-614.077z M8108.954-684.472c-7.211-0.215-18.634-1-23.631-3.642
					c-7.497-3.855-43.694-30.271-52.476-38.91c-8.782-8.71-22.989-19.848-34.983-24.845c-7.354-3.142-23.561-8.996-34.983-13.065
					c1.071,0.429,2.214,0.928,3.427,1.428c17.207,7.14,31.984,14.564,51.476,30.414s60.542,50.262,65.755,52.476
					C8088.249-678.546,8100.244-682.259,8108.954-684.472z M8007.788-723.025c-9.424-4.141-22.133-9.709-32.913-14.064
					c-19.848-7.925-32.271-14.636-34.555-17.92c-1.499-2.284-4.927-9.424-6.854-14.707c-1.428,2.642,2.07,12.993,4.427,16.492
					c2.714,4.069,12.423,9.424,21.562,13.279C7967.521-736.519,7995.223-727.095,8007.788-723.025z"/>
				<path fill="#FFFFFF" d="M8175.065-614.791c-0.571,0.214-1.57-0.071-3.213-1.285c-7.639-5.497-40.623-48.69-44.193-51.761
					c-3.569-3.07-8.566,1.856-13.493,5.568c-4.927,3.784-7.14,3.213-10.424-1.428c-2.213-3.213-4.997-6.782-5.354-9.067
					c2.785-1.642,14.064-4.069,21.418-4.926c4.57-0.571,5.283-0.571,8.639,2.499c8.925,8.067,27.345,31.842,35.412,43.907
					C8169.497-622.93,8174.209-617.361,8175.065-614.791z M8094.104-651.487c-2.713-4.641-5.569-14.708-11.994-19.277
					c-7.783-5.497-46.336-39.624-56.045-40.409c-9.639-0.856-47.121-10.923-61.971-16.706c-5.997-2.356-9.853-3.641-11.852-3.784
					c0.215,0.857,1.07,1.856,2.498,2.928c3.57,2.713,41.124,26.915,46.621,30.485c5.498,3.569,16.635-2.713,21.918-4.569
					c5.283-1.785,34.627,21.704,44.266,27.344c9.638,5.712,14.635,11.994,23.131,23.489c2.643,3.498,4.284,4.783,5.355,4.854
					C8095.89-648.061,8095.247-649.488,8094.104-651.487z M8022.353-720.883c-1.856-0.072-4.641-0.857-8.996-3.57
					c-9.781-6.14-17.491-12.423-36.84-20.633c-19.275-8.282-33.84-12.065-37.838-18.705c-1.785-2.928-2.928-5.069-3.285-6.426
					c6.283,1.714,36.555,17.563,52.762,24.488c13.422,5.712,27.415,18.349,32.912,23.489
					C8021.639-721.669,8022.067-721.24,8022.353-720.883z M8114.237-686.114c-1.785-0.856-3.855-2.284-6.068-4.712
					c-6.141-6.854-11.209-12.28-25.416-18.563c-14.279-6.211-38.054-13.993-46.193-24.346
					c-8.066-10.353-11.137-16.706-18.848-18.063c-6.854-1.143-62.398-16.563-66.896-22.133c0.643,0,1.499,0,2.57,0.144
					c8.067,1.142,58.615,9.995,68.752,17.134c10.21,7.068,12.924,17.992,29.059,24.774c16.135,6.854,40.908,11.28,46.191,16.35
					c3.928,3.712,10.924,13.779,14.422,18.919C8114.166-693.183,8118.307-688.613,8114.237-686.114z"/>
				<path fill="#82B3E6" d="M7513.81-209.413c8.139-5.14,17.991-12.422,24.131-19.348c12.066-13.493,38.196-39.195,41.766-42.837
					c3.498-3.641-7.711,1.856-29.557,7.068c-21.848,5.212-25.273,3.855-35.197,15.493c-9.996,11.565-29.344,41.551-42.409,56.401
					C7460.62-178.999,7509.312-206.557,7513.81-209.413z M7660.382-301.154c0,0-24.702,42.837-32.342,57.687
					c-7.639,14.85-20.633,10.424-52.902,21.775c-32.271,11.28-40.553,10.78-9.996-19.848c30.557-30.629,87.887-74.75,99.524-80.962
					C7676.304-328.784,7660.382-301.154,7660.382-301.154z M7655.813-329.07c-6.854,4.713-21.562,14.922-35.341,24.846
					c-18.706,13.565-38.268,19.419-55.901,24.488c-17.563,4.998-31.486,6.854-26.416-2.428c5.068-9.281,9.209-23.917,23.631-25.773
					c14.351-1.784,52.547-9.709,73.465-20.275C7644.675-332.997,7686.084-350.06,7655.813-329.07z"/>
				<path fill="#136ECF" d="M7513.81-209.413c4.354-2.713,9.209-6.068,13.707-9.709c-9.139,4.069-23.274,9.853-27.915,11.138
					c-5.212,1.428,4.284-20.419,11.638-36.555c-10.566,13.637-27.131,38.696-38.696,51.904
					C7460.62-178.999,7509.312-206.557,7513.81-209.413z M7619.474-234.4c-5.355,1.214-14.922-8.854-21.348-6.568
					c-6.496,2.284-35.911,12.065-35.84,9.709c0.071-2.355,11.28-16.849,17.349-24.06c-5.212,4.783-10.138,9.424-14.493,13.779
					c-30.557,30.628-22.275,31.128,9.996,19.848C7597.841-229.688,7610.978-229.831,7619.474-234.4z M7602.624-293.516
					c-4.426,0.714-24.061,6.354-30.629,7.925c-8.353,1.999-15.207-3.284-18.276-5.354c-4.284-2.784-5.141-4.854-2.713-12.137
					c-6.282,5.568-9.353,14.493-12.851,20.918c-5.07,9.281,8.853,7.426,26.416,2.428
					C7576.708-283.234,7589.63-287.09,7602.624-293.516z"/>
				<path fill="#FFFFFF" d="M7537.155-227.832c0.285-0.357,0.571-0.643,0.785-0.929c12.066-13.493,38.196-39.195,41.766-42.837
					c3.498-3.641-7.711,1.856-29.557,7.068c-14.637,3.498-20.99,3.998-26.631,7.496c-1.285,2.285-0.357,4.284,5.712,4.284
					c12.494-0.143,19.848,0.714,15.493,9.781C7542.866-238.97,7539.868-233.115,7537.155-227.832z M7584.347-259.531
					c30.985-27.63,70.824-57.901,80.319-62.971c11.638-6.282-4.284,21.348-4.284,21.348s-24.702,42.837-32.342,57.687
					c-1.57,2.998-3.283,5.212-5.426,6.925c0,0,3.713-6.14,6.64-15.35s12.78-32.056,15.278-36.625
					c5.283-9.71-4.354-2.07-14.492,6.354C7619.759-273.668,7596.627-266.386,7584.347-259.531z M7615.546-300.798
					c3.998-4.569,6.283-7.068,9.781-11.423c3.498-4.284-36.197,16.635-44.051,15.278c-7.853-1.356-23.773-7.711-24.631-9.639
					c1.571-0.643,3.285-1.07,5.141-1.356c14.351-1.784,52.547-9.709,73.465-20.275c9.424-4.784,50.833-21.847,20.563-0.857
					c-6.854,4.713-21.562,14.922-35.341,24.846C7618.831-303.011,7617.188-301.868,7615.546-300.798z"/>
			</g>
			<path fill="#FFFFFF" d="M8542.962-1251.273c27.059-15.064,91.956-45.836,147.145-31.128c59.686,15.85,52.26,50.689,19.633,55.901
				c36.697-47.405-76.893-50.547-145.145-21.989c-31.343,13.137-38.982,24.988-37.84,34.056
				C8508.192-1214.506,8515.118-1235.853,8542.962-1251.273z"/>
			<path fill="#FFFFFF" d="M8214.761-1217.718c-31.842,11.852-55.688,26.059-65.326,42.693
				c-9.495,16.492-22.774,28.059-38.624,37.982c6.925-8.354,12.565-20.063,26.202-41.552
				C8152.79-1203.368,8188.345-1213.506,8214.761-1217.718z"/>
		</g>
		<g>
			<path fill="#0A35A4" d="M8730.943-185.067c10.853,6.283,21.775,13.851,31.913,21.204c23.846,17.421,46.55,37.126,66.826,58.615
				c54.188,57.473,91.955,129.51,81.032,210.613c-8.067,59.473-32.484,112.518-72.822,156.854
				c-31.699,34.842-71.608,62.543-114.374,81.961c-13.564,6.141-27.486,11.852-41.623,16.35c-9.924,3.213-20.49,5.998-30.842,7.211
				c-11.566,1.357-29.344,1.357-34.984-11.352c-3.427-7.711-0.285-16.135,4.141-22.703c5.498-8.281,14.065-15.564,22.204-21.275
				c25.06-17.42,57.33-27.701,87.244-32.199c17.206-2.57,37.054-8.426,50.762-19.49c5.783-4.641,13.708-13.352,11.708-21.49
				c-1.428-5.783-7.566-9.211-12.707-11.066c-15.422-5.355-37.697,2.928-52.332,7.996c-10.496,3.641-21.205,7.426-32.057,9.566
				c-10.139,2-21.847,2.855-31.914-0.213c-7.781-2.428-14.564-7.426-17.491-15.352c-2.713-7.496-1.071-15.705,2.713-22.561
				c4.498-8.066,11.78-14.564,19.634-19.275c23.488-14.279,54.26-15.492,80.747-11.209c20.419,3.283,40.98-4.283,55.831-18.42
				c6.639-6.354,12.279-14.137,15.707-22.633c2.926-7.281,4.283-15.42,2.713-23.203c-2.356-11.066-10.067-18.705-19.92-23.773
				c-8.639-4.498-17.42-8.781-26.131-13.209c-6.639-3.355-13.279-6.781-19.704-10.566c-8.567-5.068-19.063-11.922-21.276-22.418
				c-1.998-9.566,3.356-18.775,8.854-26.129c7.568-10.424,12.637-22.633,8.781-35.484c-5.64-19.133-28.129-32.27-45.479-39.052
				c-14.278-5.568-31.77-9.567-47.191-8.854c-12.994,0.643-28.7-0.285-40.552-6.211c-8.14-4.069-15.351-11.423-14.493-21.204
				c1-11.209,11.566-17.635,21.561-19.848c14.708-3.142,31.057,1.071,44.479,7.14c4.997,2.213,10.638,3.355,16.063,3.641
				c6.926,0.357,14.422-0.57,20.848-3.213c4.069-1.642,8.996-4.568,10.709-8.853c3.213-7.711-5.997-17.42-10.994-21.989
				c-8.211-7.568-17.207-17.135-22.275-27.13c-3.498-7.14-5.641-16.207-0.429-23.132c4.497-5.997,12.138-7.211,19.062-6.497
				c8.782,0.856,18.063,4.712,25.773,8.71l0.144,0.071L8730.943-185.067z"/>
			<path fill="#C3DBF3" d="M8727.374-178.784c0,0,198.977,114.16,176.201,283.149c-17.491,129.867-110.805,200.404-183.055,233.246
				c-149.786,68.039-115.018-31.342,10.209-50.262c67.896-10.281,87.029-53.332,51.047-65.969
				c-25.273-8.781-59.043,11.566-88.101,17.277c-73.679,14.494-47.835-70.752,53.903-54.473
				c63.611,10.209,115.801-72.252,58.757-101.523c-56.973-29.271-76.035-34.055-55.759-61.686
				c42.551-57.972-43.123-96.953-89.957-94.739c-74.965,3.427-53.117-54.046,8.354-26.416c30.342,13.636,83.959-5.997,44.406-42.337
				C8673.757-178.784,8688.179-199.203,8727.374-178.784z"/>
			<path fill="#FFFFFF" d="M8727.374-178.784c0,0,198.977,114.16,176.201,283.149c-17.491,129.867-110.805,200.404-183.055,233.246
				c-119.729,54.402-121.514,1.785-53.332-31.199c-11.138,9.566-19.776,19.635-16.35,26.059
				c8.067,14.994,72.68,11.709,147.572-54.615c74.893-66.326,102.309-156.141,76.82-197.121
				c-25.487-40.98-13.779-74.68-20.704-105.878c-6.925-31.199-41.409-76.463-102.022-120.229
				c-49.049-35.411-57.758-25.559-45.836-3.641C8675.612-181.141,8690.534-197.918,8727.374-178.784z M8652.267,216.74
				c5.426-19.133,38.553-41.623,95.313-32.555c46.334,7.424,86.672-34.342,82.96-68.896c2.927,14.922,4.783,41.695-14.136,57.9
				c-27.273,23.348-57.188,22.205-114.803,21.563C8682.038,194.537,8665.546,204.104,8652.267,216.74z M8827.826,104.508
				c0-0.07-0.071-0.143-0.071-0.213l0,0L8827.826,104.508z M8759.644,58.389c-18.919-11.354-22.061-19.705-9.066-37.412
				c19.919-27.129,11.779-50.118-7.354-66.61l0,0c55.26,25.56,12.922,76.106,12.922,95.526
				C8756.146,52.463,8757.431,55.318,8759.644,58.389z M8638.772-74.763c-47.691-7.496-24.273-49.904,30.201-25.416
				c21.418,9.566,54.33,2.642,58.115-14.993c4.641,21.633-20.705,33.484-43.266,27.915c-27.916-6.854-46.479-15.278-50.404-3.284
				C8632.134-86.472,8634.704-80.688,8638.772-74.763z"/>
			<path fill="#5396DC" d="M8744.651-150.94c-5.498-1.071-10.424-0.429-10.424,5.568c0,13.423,43.193,29.344,37.197,48.549
				c-5.998,19.205-11.994,28.771,21.632,46.764c33.556,17.991,34.77,43.192,29.985,66.038c-4.854,22.775,1.785,33.557,20.348,46.764
				c18.635,13.209,42.052,28.844,21.062,70.824c-21.062,41.98-35.411,46.764-39.053,68.967c-2.356,14.564-0.571,35.982-5.926,54.76
				c58.829-63.256,78.677-139.648,55.759-176.559c-25.487-40.98-13.779-74.68-20.704-105.878
				c-6.925-31.199-41.409-76.463-102.022-120.229C8749.792-147.371,8747.149-149.228,8744.651-150.94z M8640.272-96.323
				c-3.07,3.569-0.215,9.566,6.854,11.923c10.639,3.427,29.771,1.784,40.41,2.498c14.064,0.857,17.848-0.714,2.213-4.283h-0.072
				c-1.927-0.214-3.926-0.571-5.854-1.071C8663.903-92.183,8648.769-97.823,8640.272-96.323z M8677.683,218.883
				c13.494,13.85,44.693-10.494,72.323-15.279c23.132-3.998,17.706-8.924,6.568-9.281c-2.214,0.143-4.569,0.287-6.925,0.357l0,0
				c-2.428,0.285-5.141,0.357-7.996,0.215c-11.781,0.213-24.988,0-40.053-0.143C8689.035,194.609,8667.688,208.674,8677.683,218.883
				z M8773.995,297.559c-21.705,5.713-47.549,6.855-72.395,15.994c-25.56,9.424-34.27,19.561-29.844,26.271
				C8694.032,339.969,8731.3,328.973,8773.995,297.559z"/>
		</g>
		<g>
			<g>
				<path d="M8635.347-0.799c6.496-2.713,11.352-3.426,18.42-2.213c10.637,1.855,20.204,8.068,28.058,15.279
					c9.138,8.424,14.778,20.775,17.563,32.697c4.711,19.848,3.355,50.262-19.92,57.83c-1.07,0.357-2.142,0.643-3.213,0.857
					c0.072,0.57,0.215,1.07,0.286,1.643c2.927,16.348-0.214,42.408-18.42,48.832c-5.497,1.928-11.28,2.143-16.849,0.357
					c-26.131-8.496-11.424-37.553-30.271,1c-4.213,8.496-9.424,16.135-16.35,22.633c-22.203,20.846-53.475,22.703-82.104,18.42
					c-18.563-2.713-53.547,5.854-71.752,10.566c-37.054,9.566-74.036,21.846-110.162,34.555
					c-30.842,10.852-61.398,22.203-91.885,33.912c16.35,43.051,47.691,81.389,78.748,113.803
					c47.835,49.834,102.737,94.313,154.428,140.146c98.523,87.531,141.789,134.08,192.408,255.521
					c-133.009-67.254-238.744-87.814-389.672-65.184c4.783,11.354,9.281,22.775,13.208,34.414
					c7.21,21.133,14.351,42.479,20.775,63.896c1.785,5.926,3.713,12.139,5.141,18.207l2.713,11.352l-10.138,5.783
					c-6.068,3.498-13.137,6.639-20.205,9.494c4.783,10.924,9.566,21.705,14.422,32.557c4.783,10.637,9.566,21.275,14.422,31.842
					c3.213,6.926,6.426,13.994,9.852,20.705c0.215,0.355,0.357,0.57,0.643,0.785c2.071,1.928,7.854,3.426,10.496,4.068
					c8.139,2.143,15.92,3.928,23.703,7.283c25.987,10.994,30.699,34.697,21.203,58.4c1.571,10.852,0.357,22.061-3.855,31.627
					c-9.209,20.777-33.697,23.348-52.76,16.564c-21.99,32.484-80.533-5.283-101.166-22.918
					c-15.778-13.422-36.269-62.969-44.621-82.674c-9.211-21.99-17.921-44.193-26.346-66.469c-7.354,0.713-14.85,1.355-22.203,1.998
					c26.773,46.551,49.904,90.102,76.035,137.078c-77.82-4.926-150.928-7.996-228.248-19.133
					c-49.334-7.141-99.168-16.137-147.287-29.201c-24.917-6.783-50.834-14.35-75.821-23.775l-0.071,0.145
					c-7.996,19.705-27.844,68.682-43.408,82.031c-20.848,17.777-79.033,55.688-101.237,22.918
					c-19.063,6.783-43.551,4.213-52.761-16.564c-4.212-9.566-5.426-20.775-3.855-31.627c-9.424-23.703-4.712-47.406,21.205-58.4
					c6.854-2.928,13.707-4.426,20.989-5.855c3.142-0.57,7.925-1.355,10.78-2.926c3.928-2.143,10.281-18.705,12.424-23.346
					c4.783-10.711,9.566-21.49,14.278-32.199c0.929-2.143,1.856-4.213,2.784-6.283l3.641-8.281
					c-36.768-57.473-23.846-135.936-8.853-198.406c9.71-40.195,19.491-80.391,28.986-120.656
					c7.425-31.414,14.708-62.971,20.847-94.74c8.782-45.408,15.922-92.814,12.566-139.148c-3.428-48.334-7.068-96.74-11.352-144.932
					c-3.998-45.049-18.706-68.039-31.343-119.943c-10.424-43.051-17.706-87.671-19.634-131.936
					c-1.713-38.41,1.143-54.617,5.426-92.456c4.427,10.209,9.567,11.138,10.496-6.64c1.57-30.058,5.068-60.257,12.137-89.529
					c1.57-6.711,3.283-13.564,4.998-20.347c3.498-5.783,7.21-11.709,10.994-17.492c10.852-16.492,22.061-31.771,29.629-38.768
					c6.211-5.782,12.922-11.851,19.99-18.134c19.776,4.927,29.986-7.996,30.129-26.202c30.057,18.277,57.758-19.134,44.836-36.125
					c-16.207-21.275-6.498-51.19,14.278-63.541c17.349-10.281,40.694-14.351,58.614-2.999c21.99,13.993,22.348,41.409,16.279,64.041
					c-5.641,21.204-17.492,39.053-34.056,52.689c9.281,11.352,18.991,23.061,29.2,34.341c7.996,8.853,25.202-0.286,51.262-5.712
					c44.55-9.281,109.02-4.641,152.355,6.711l13.065-9.21c11.138-7.854,23.061-14.85,35.126-21.204
					c17.206-9.139,36.482-17.849,55.188-23.417c14.137-4.213,35.697-9.139,45.479,5.926c1.071,1.642,1.928,3.427,2.499,5.354
					c1.999,6.854-2.57,20.062-4.284,26.844c-3.283,12.78-6.639,25.631-9.852,38.411c-2.785,10.994-5.568,22.061-8.211,33.127
					c-1.928,8.21-3.213,15.706-4.283,23.274c18.205,16.063,37.34,18.349,36.982,22.274c-0.357,3.928-15.35,14.422-34.412,16.421
					c3.213,11.209,4.854,23.061,5.354,36.055c1.142,27.201-1.642,51.476,9.995,77.249l3.998,8.996
					c3.427,0.856,6.711,1.784,9.924,2.784c12.279,3.998,25.346,8.71,33.056,19.848c9.995,14.493,6.425,33.556,2.713,49.547
					c-1.928,8.354-3.854,16.564-6.212,24.418c9.639,2.568,19.563,5.354,28.916,8.639l22.132,7.639l-15.636,17.492
					c-5.926,6.639-11.779,13.492-17.491,20.561c29.985,1.928,59.829,1.643,89.957,3.355c15.636,0.928,31.271,1.643,46.978,1.57
					c18.277-0.143,42.194-1.07,59.472-7.281c10.28-3.713,6.64-3.498,13.708-10.566c7.211-7.068,13.493-12.852,20.49-20.563
					C8550.815-2.439,8595.079-30.998,8635.347-0.799z"/>
				<path fill="#072778" d="M8268.235,705.08c91.671-14.352,234.816-15.207,372.108,54.188
					c-115.088-276.225-630.2-406.877-343.193-727.795c0,0-11.638-4.07-29.058-8.568c-0.215,0.572-0.429,1.072-0.643,1.643
					c0,0-42.837,101.666-160.852,108.092c-4.07,0.213-8.211,0.355-12.424,0.428c11.139,8.639,19.991,16.92,29.13,32.127
					c15.063,24.918,22.061,54.26,23.774,83.176c2.284,38.768-3.498,78.533-3.784,117.516c-0.356,47.406,6.711,89.742,26.416,133.221
					c21.632,47.836,45.122,94.6,68.182,141.719c9.853,20.133,19.563,40.338,28.772,60.758
					C8267.165,702.725,8267.664,703.938,8268.235,705.08z"/>
				<path fill="#052061" d="M8168.14,119.072c-17.705,7.211-38.124,12.281-61.541,13.566c-4.07,0.213-8.211,0.355-12.424,0.428
					c11.139,8.639,19.991,16.92,29.13,32.127c15.063,24.918,22.061,54.26,23.774,83.176c2.284,38.768-3.498,78.533-3.784,117.516
					c-0.356,47.406,6.711,89.742,26.416,133.221c18.276,40.268,37.768,79.82,57.259,119.516
					c7.996-69.539,6.925-159.354-33.27-227.535C8143.009,305.27,8154.718,187.898,8168.14,119.072z"/>
				<path fill="#82B3E6" d="M8241.962,317.979c-47.477-81.391-47.406-171.775,55.188-286.506c0,0-11.638-4.07-29.058-8.568
					c-0.215,0.572-0.429,1.072-0.643,1.643c0,0-1.5,3.57-4.783,9.496l11.994,2.783c0,0-65.397,76.035-69.039,160.354
					C8203.552,244.156,8215.118,281.496,8241.962,317.979z"/>
				<path fill="#9AC2EB" d="M8127.374-79.76c25.06,0.071,78.463-0.5,111.232,10.066c26.488,8.567,32.699,14.493,24.561,49.619
					c-3.713,15.85-9.496,34.84-18.42,52.545c-34.556,68.682-111.09,81.391-180.843,87.102c-26.56,2.215-51.333,19.99-31.413,42.908
					c-3.998-26.129,26.13-30.914,45.049-30.699c-1.142,10.924-2.641,21.275-6.211,33.627c-2.355,7.926-6.64,17.135-11.137,25.059
					c-25.274-24.559-46.479-41.408-82.176-53.26c9.995-31.199,23.488-61.113,41.766-86.602
					c16.777-23.346,42.408-46.621,68.324-59.186c-75.178-26.772-163.35-22.846-243.026-16.492l-1.071-4.569
					c-10.352-46.12-20.348-92.241-21.989-139.719c-1.571-42.693,0.571-85.959,5.64-128.367c1.357-11.423,2.856-23.132,4.783-34.698
					c2.143-13.064,4.213-17.705,8.496-21.489c24.488,30.199,53.189,63.256,83.318,84.245l-24.203-35.84
					c54.188-26.772,134.15-21.062,190.267-4.783c50.048,14.422,84.031,60.186,133.079,84.103c0,0-41.98,1.071-63.684-15.278
					c3.427,22.989-3.355,42.194-3.355,42.194c-6.711-6.497-29.7-26.845-38.553-26.773c4.711,10.353,4.283,16.85,5.354,27.559
					c-11.637-8.924-48.119-28.486-61.471-26.059c0,0,39.695,27.486,51.119,38.98c11.494,11.495,16.35,20.205,16.35,20.205
					c5.568-11.78,7.354-16.92,6.354-29.843c11.066,8.567,17.706,20.348,21.275,33.77c15.779-17.92,20.276-39.339,22.062-53.188
					c3.998,1.213,9.853,2.57,17.991,3.427c6.354,13.993,6.568,30.128,6.568,45.05c-9.639,7.425-19.848,16.063-28.771,24.488
					c-16.778,15.636-21.705,15.85-22.49,11.994c-2.07-10.923-10.566-3.213-9.281,7.425c0.643,5.427,2.785,13.637,10.066,13.137
					c1.714-0.143,4.284-1.57,7.64-3.855c0.571,7.497,2.714,14.208,5.926,19.349C8152.147-92.325,8137.869-88.47,8127.374-79.76z
					 M7771.187-378.118c5.354-15.635,12.279-25.916,21.133-28.058c0.357-0.071,0.785-0.144,1.143-0.144
					c-0.643,7.926-4.213,19.92-9.853,25.274C7780.968-378.546,7775.97-377.832,7771.187-378.118z M8203.552-149.798l0.143,8.281
					c0.643,16.35,2.785,33.198,10.781,50.904c-4.855-0.856-11.209-1.928-18.42-2.642c3.855-6.068,6.211-14.564,6.14-23.917
					c-0.071-8.496-2.07-16.207-5.354-22.061l-1.713-3.213C8197.911-144.872,8200.696-147.371,8203.552-149.798z"/>
				<path fill="#5396DC" d="M8205.622,79.021c-38.98,28.842-92.099,36.482-141.718,40.551c-26.56,2.215-51.333,19.99-31.413,42.908
					c-3.998-26.129,26.13-30.914,45.049-30.699c-2.427,22.703-6.14,38.695-17.348,58.686c-25.274-24.559-46.479-41.408-82.176-53.26
					c5.854-18.42,12.994-36.34,21.633-53.189C8067.688,117.502,8145.579,113.719,8205.622,79.021z M7888.273-28.07
					c-14.636,0.785-29.058,1.856-43.193,2.998l-1.071-4.569c-9.709-43.265-19.063-86.529-21.633-130.938
					c5.426,15.707,11.066,19.848,16.207,2.856c13.707-45.765,40.123-75.464,53.546-88.315
					C7892.058-245.896,7828.659-144.801,7888.273-28.07z"/>
				<path fill="#5396DC" d="M8084.395-208.271c10.995,8.067,22.917,17.206,28.415,22.703c2.784,2.785,5.212,5.427,7.211,7.782
					l-4.498,13.993C8115.522-163.792,8098.815-195.419,8084.395-208.271z M8133.585-175.714c2.07-5.854,2.57-10.995,1.928-19.491
					c7.925,6.14,13.565,13.922,17.492,22.774c-3.285,6.426-7.14,12.423-11.638,16.492
					C8141.367-155.938,8139.939-165.934,8133.585-175.714z"/>
				<path fill="#82B3E6" d="M8164.356-289.731c7.496-19.419,18.135-34.983,26.63-45.479c-0.429,0.357-0.856,0.714-1.356,1.071
					c-11.352,8.567-25.416,21.632-32.842,37.696l0,0c-12.137-10.066-27.915-20.419-46.834-27.63
					c40.052-28.201,108.447-55.902,112.445-42.266c0,0.071-17.134,68.753-24.987,103.95
					C8183.633-269.741,8164.356-289.731,8164.356-289.731z"/>
				<path fill="#FFFFFF" d="M8127.659-316.005c-5.568-2.927-11.494-5.711-17.705-8.067c38.41-27.059,102.808-53.546,111.59-43.765
					c-8.854,0.071-19.349,2.427-31.771,8.353C8147.864-339.493,8132.729-323.145,8127.659-316.005z M7834.942-344.063
					c1.498-4.855,3.355-7.497,5.996-9.853c23.133,28.486,49.977,59.543,78.32,80.604l0,0
					C7919.259-273.311,7871.496-298.37,7834.942-344.063z M8203.552-149.798l0.143,8.281c0.643,16.35,2.785,33.198,10.781,50.904
					c0,0-6.783-8.781-12.28-24.06c0-0.785,0-1.643,0-2.499c-0.071-8.496-2.07-16.207-5.354-22.061
					c-0.143-1.428-0.215-2.928-0.357-4.427C8198.84-145.729,8201.196-147.728,8203.552-149.798z M8195.342-159.722
					c-1.714-20.063-5.069-41.409-16.492-54.902c3.998,1.213,9.853,2.57,17.991,3.427c6.354,13.993,6.568,30.128,6.568,45.05
					C8200.696-164.077,8197.983-161.936,8195.342-159.722z M8223.399-226.19c0,0-24.702-4.498-44.836-18.705
					c-49.833-35.197-60.613-48.406-127.582-62.542c28.272,9.424,42.837,25.202,42.837,25.202
					c-59.187-25.487-126.011-31.842-187.481-13.922l-6.283-9.353c54.188-26.772,134.15-21.062,190.267-4.783
					C8141.938-295.372,8175.993-249.322,8223.399-226.19z M8127.374-79.76c25.06,0.071,78.463-0.5,111.232,10.066
					c26.488,8.567,32.699,14.493,24.561,49.619c-2.57,10.994-6.141,23.561-11.066,36.125c3.783-26.701,5.068-52.475-1.214-63.755
					C8235.394-75.477,8127.374-79.76,8127.374-79.76z"/>
				<path fill="#136ECF" d="M8164.356-289.731c7.496-19.348,18.135-34.983,26.63-45.479l0,0
					c15.136-11.352,13.993-9.281,10.424,5.426c-3.355,13.708-10.21,36.482-15.136,59.9
					C8175.137-278.594,8164.356-289.731,8164.356-289.731L8164.356-289.731z"/>
				<path d="M8008.288-151.083c-0.857,1.213-6.354,11.423-7.068,12.779c-3.284,6.14-5.141,13.494-5.068,21.418
					c0.143,20.99,13.85,37.911,30.699,37.769c16.85-0.071,30.414-17.206,30.271-38.196c-0.072-3.927-0.571-7.782-1.5-11.352
					L8008.288-151.083z"/>
				<path fill="#FFFFFF" d="M8038.487-125.952c-4.283,0-7.71,5.212-7.71,11.637c0.071,6.354,3.569,11.495,7.853,11.495
					c4.284-0.071,7.711-5.212,7.64-11.638C8046.27-120.812,8042.7-125.952,8038.487-125.952z"/>
				<path fill="#0F59A7" d="M7900.554-253.392c0,0-43.051,32.484-61.971,95.669c-5.141,16.991-10.781,12.851-16.207-2.856
					c-0.143-2.927-0.285-5.854-0.356-8.781c-1.571-42.693,0.571-85.959,5.64-128.367c0.929-7.925,1.928-15.992,3.142-23.988
					C7845.723-303.796,7867.783-280.593,7900.554-253.392z"/>
				<path d="M7900.554-253.392c0,0-43.051,32.484-61.971,95.669c-6.854,22.846-14.707,7.496-21.704-22.918
					c9.638,22.204,18.776,6.925,25.917-13.422c10.352-29.129,40.694-58.187,40.694-58.187c-47.12-43.551-65.825-75.465-72.894-96.24
					C7822.876-330.427,7847.864-297.156,7900.554-253.392z"/>
				<path fill="#FFFFFF" d="M8185.989-127.737c3.427-1.071,6.854,2.57,7.567,8.067s-1.499,10.78-4.927,11.852
					c-3.498,1-6.854-2.642-7.567-8.139S8182.562-126.737,8185.989-127.737z"/>
				<path d="M8263.523-38.637c-7.71,9.424-19.276,20.561-28.2,23.988c-14.494,5.496-15.351-6.997-23.061-15.563
					c-7.711-8.496-47.335-30.129-14.422-34.341c20.49-2.642,42.766-1.071,56.758,1.285
					C8264.951-61.483,8270.163-46.633,8263.523-38.637z"/>
				<path d="M8191.629,7.77c-10.495,1.213-23.274,1.143-35.769-3c-97.739-32.483-91.1,80.248-38.41,90.172
					c35.626,6.711,48.477-12.352,56.116-42.336C8177.636,36.898,8185.917,19.479,8191.629,7.77z"/>
				<path fill="#FF99CC" d="M8148.079,78.807c-3.999-26.344-37.625-44.479-55.831-37.553
					C8087.25,74.238,8124.519,95.941,8148.079,78.807z"/>
				<path d="M8083.252-128.309c0.571,5.354,0.286,13.922-6.925,14.993c-9.567,1.499-58.473-31.557-90.1-42.694
					c-27.345-9.638-33.627-22.274,2.427-11.637c15.207,4.497,39.409,15.992,59.257,27.486c19.848,11.495,24.703,10.638,24.561,6.64
					C8072.114-144.587,8082.038-139.018,8083.252-128.309z"/>
				<path fill="#9AC2EB" d="M7850.292-447.371c0,0-11.138,25.488-35.697,26.702c-24.631,1.143-21.918-26.416,6.854-43.551
					c28.844-17.063,65.397-6.782,51.904,43.551c-13.494,50.404-63.398,63.256-63.398,63.256s2.355,1.855,6.211,2.498
					c3.784,0.571,4.569,0,4.569,0s-17.92,84.746-14.351,186.126c3.642,101.38,43.766,195.621,37.197,249.596
					c-6.498,54.045-54.546,102.594-86.959,117.016c-32.413,14.42-64.826-29.416-91.242-138.006
					c-26.345-108.591-18.563-176.987-18.563-176.987s5.997,13.779,11.709,17.706c5.711,3.927-3.355-76.535,15.277-153.927
					c7.283-30.414,13.637-51.904,18.635-66.683c4.426-5.783,8.496-10.424,11.852-13.565c2.713-2.498,5.568-5.068,8.424-7.71
					c4.855,3.498,11.852,6.282,21.063,3.998c12.922-3.213,21.918-14.778,26.486-26.63c31.343,8.639,46.692-14.279,49.334-42.123
					C7814.595-406.176,7854.147-408.104,7850.292-447.371z"/>
				<path fill="#5396DC" d="M7826.304,130.281c-18.492,32.271-47.692,57.76-69.682,67.541
					c-32.413,14.42-64.826-29.416-91.242-138.006c-26.345-108.591-18.563-176.987-18.563-176.987s5.997,13.779,11.709,17.706
					c5.711,3.927-3.355-76.535,15.277-153.927c7.283-30.414,13.637-51.904,18.635-66.683c4.426-5.783,8.496-10.424,11.852-13.565
					c2.713-2.498,5.568-5.068,8.424-7.71c4.855,3.498,11.852,6.282,21.063,3.998c1.713-0.429,3.426-1,4.997-1.714
					c-11.066,17.35-26.702,49.049-33.127,121.014c-8.996,100.238-5.141,138.577-3.284,161.352
					c1.785,22.847-17.135,5.712-17.135,5.712s14.064,143.146,68.11,190.838C7775.827,159.697,7802.671,149.201,7826.304,130.281z"/>
				<path fill="#FFFFFF" d="M7797.817-433.163c-0.072-9.21,7.924-21.704,23.631-31.057c27.986-16.563,63.184-7.425,53.047,39.053
					c-1.571-18.134-13.28-31.199-29.13-33.627C7824.59-462.078,7805.456-442.302,7797.817-433.163z M7820.734-354.915
					c0,0-17.92,84.746-14.351,186.126c2.57,70.966,22.918,138.362,32.771,190.98C7794.39-74.834,7777.826-234.258,7820.734-354.915z
					"/>
				<path fill="#0A35A4" d="M7850.72-9.938c0,0,56.973-4.783,118.516-2.998c61.471,1.785,86.387,7.781,86.387,7.781
					s-90.314,43.838-114.017,240.172c-2.927-61.256-8.496-124.084-31.699-168.777c24.488,84.818,23.703,207.688,26.63,300.643
					c0.785,25.773,1.785,54.902,5.426,80.32c24.274,227.676,132.295,378.318,240.1,572.299
					c-97.524-6.213-239.742-19.777-347.548-49.049c-181.2-49.191-232.247-102.809-188.768-283.865
					c43.479-180.984,68.753-275.297,62.756-359.328c-5.997-83.961-11.352-145.217-11.352-145.217s14.921,69.252,63.827,43.836
					c48.977-25.416,103.521-106.234,100.523-159.639c-0.785-14.992-2.07-27.557-3.355-37.91
					c29.129,41.41,41.908,110.447,41.908,110.447C7890.059,22.904,7850.72-9.938,7850.72-9.938z"/>
				<path fill="#072778" d="M7780.968,954.461c-137.435-46.049-174.061-106.164-135.222-267.873
					c43.479-180.984,68.753-275.297,62.756-359.328c-5.997-83.961-11.352-145.217-11.352-145.217s14.921,69.252,63.827,43.836
					c48.977-25.416,103.521-106.234,100.523-159.639c-0.785-14.992-2.07-27.557-3.355-37.91c0,0,42.693,76.465-22.133,172.133
					s-13.851,177.916-79.319,389.1C7708.003,746.561,7714.214,874.428,7780.968,954.461z"/>
				<path fill="#82B3E6" d="M7931.538,217.383c3.07,51.689,3.57,104.166,4.998,149.5c0.785,25.773,1.785,54.902,5.426,80.32
					c24.274,227.676,132.295,378.318,240.1,572.299c-56.973-3.643-129.224-9.781-200.975-20.063
					c1.713,0.143,71.252,6.283,105.021,6.568c34.197,0.285,70.466,0.57,70.466,0.57
					c-105.378-189.266-222.965-361.041-225.892-586.506C7929.54,328.117,7930.968,255.936,7931.538,217.383z"/>
				<path fill="#82B3E6" d="M7850.72-9.938c0,0,56.973-4.783,118.516-2.998c61.471,1.785,86.387,7.781,86.387,7.781
					s-68.396,33.271-101.736,171.205c11.779-87.814,64.969-163.137,64.969-163.137C7968.164-8.795,7902.981-10.865,7850.72-9.938z"
					/>
				<path fill="#136ECF" d="M8138.94,459.697c4.068,14.85,9.424,30.127,16.563,45.906
					c46.479,102.451,96.598,191.838,117.588,253.664c21.061,61.828,25.559,80.676,25.559,80.676s-46.621,26.559-139.576,38.34
					c-2.355,0.285-21.204,1.998-37.696,3.57c-3.355-5.855-6.712-11.709-10.067-17.635c-26.344-46.336-51.975-93.17-74.393-141.576
					c-37.768-81.389-63.898-162.564-76.178-250.666C8045.771,471.977,8101.958,466.479,8138.94,459.697z"/>
				<path fill="#0F59A7" d="M8024.923,696.012c-31.342-72.607-53.26-145.572-64.184-224.035c6.782,0,13.351-0.072,19.705-0.143l0,0
					C7987.013,555.508,8005.646,633.613,8024.923,696.012z"/>
				<path fill="#82B3E6" d="M8138.94,459.697c4.068,14.85,9.424,30.127,16.563,45.906
					c46.479,102.451,96.598,191.838,117.588,253.664c21.061,61.828,25.559,80.676,25.559,80.676s-46.621,26.559-139.576,38.34
					c-2.355,0.285-21.204,1.998-37.696,3.57c129.438-27.131,157.925-46.693,157.925-46.693s-3.142-38.268-37.554-110.875
					c-59.829-126.227-100.237-188.982-116.802-262.232C8129.872,461.268,8134.513,460.482,8138.94,459.697z"/>
				<path fill="#5396DC" d="M8127.659,371.168c0.072,23.559,1.928,48.334,7.782,74.535c-35.197,6.068-90.386,10.994-176.772,10.781
					c-2.928-24.988-4.855-50.191-5.998-75.607C8004.933,380.52,8074.042,378.521,8127.659,371.168z"/>
				<path fill="#136ECF" d="M7979.23,456.412c-6.64,0.072-13.493,0.072-20.562,0.072c-2.928-24.988-4.855-50.191-5.998-75.607
					c6.212-0.072,12.637-0.143,19.277-0.215C7974.59,405.223,7977.017,430.639,7979.23,456.412z"/>
				<path fill="#C3DBF3" d="M8127.659,371.168c0.072,23.559,1.928,48.334,7.782,74.535c-4.212,0.715-8.639,1.428-13.422,2.07
					c-4.142-22.918-5.997-47.264-5.497-75.178C8120.306,372.166,8124.019,371.668,8127.659,371.168z"/>
				<path fill="#136ECF" d="M7973.019,151.986c16.564,5.498,38.41,15.564,57.973,32.77c37.197,32.699,55.26,58.188,55.26,58.188
					c1.356-10.854-10.566-33.557-14.993-40.41c3.569-6.211,11.423-20.49,14.993-32.77c4.783-16.207,5.068-19.205,5.068-19.205
					s35.983,27.344,40.195,98.738c1.928,33.127-2.713,68.682-3.713,107.52c-51.832,6.855-122.513,8.568-175.701,8.639
					C7950.03,298.416,7953.386,221.238,7973.019,151.986z"/>
				<path fill="#0F59A7" d="M7970.234,365.385c-6.211,0.07-12.28,0.07-18.134,0.07c-1.143-36.695-0.643-76.391,3.283-116.23
					C7960.382,284.209,7965.522,323.477,7970.234,365.385z"/>
				<path fill="#82B3E6" d="M8113.666,179.973c8.282,15.707,16.063,38.34,17.849,69.324c1.928,33.127-2.713,68.682-3.713,107.52
					c-3.498,0.5-7.139,0.93-10.852,1.357c0.571-12.637,1.5-25.916,2.998-40.195C8126.803,251.295,8120.448,206.316,8113.666,179.973
					z"/>
				<path fill="#82B3E6" d="M7973.019,151.986c16.564,5.498,38.41,15.564,57.973,32.77c37.197,32.699,55.26,58.188,55.26,58.188
					s-64.826-66.111-117.23-75.75C7970.234,162.053,7971.591,156.984,7973.019,151.986z M8076.255,211.387
					c-1.928-3.785-3.783-6.926-4.997-8.854c3.569-6.211,11.423-20.49,14.993-32.77c4.783-16.207,5.068-19.205,5.068-19.205
					C8094.104,175.332,8082.396,200.32,8076.255,211.387z"/>
				<path fill="#9AC2EB" d="M8271.733,88.445c21.775-0.928,31.485-1,30.914-3.498c-0.856-3.57-14.279-6.998-14.279-6.998
					s27.273,1.785,57.83,1.785c25.773,0,105.449,9.924,146.716-4.926c-2.57,15.635,2.499,32.984,16.278,44.051
					c0,0-16.992-38.41,3.141-58.188c20.063-19.775,54.332-7.211,55.688,6.283c1.429,13.494-11.137,18.135-23.773,19.348
					c-12.566,1.215,0.714,13.066,4.141,17.563c3.427,4.498,2.285,17.422,2.285,17.422s7.211-9.924,5.068-18.35
					c-2.142-8.354-4.926-8.496,6.64-11.209c10.71-2.498,18.42-13.85,14.208-28.844c6.854-10.637,14.921-22.061,28.486-13.35
					c10.281,6.711,21.561,12.064,30.914,12.637c-11.709-0.143-23.133,11.994-29.844,21.061c-1.998,2.713-7.781,13.994,1.285,7.711
					c4.355-3.07,8.781-10.281,13.922-10.566c7.996-0.428,22.061,0.43,31.557,10.139c13.851,14.279,10.139,45.336,0,48.904
					c-10.209,3.57-17.42-7.639-18.277-20.561c-0.856-12.922-23.346-1.785-31.271,14.85c-6.711,14.137-15.563,58.188-88.529,47.406
					c-46.335-6.854-184.483,42.623-281.08,79.676c-1.285-4.355-2.356-8.709-3.284-13.137
					C8218.259,189.396,8239.464,135.422,8271.733,88.445z M8637.773,62.172c7.497-0.072,13.565-3.713,16.563-12.922
					c6.783-20.99-10.78-36.555-10.78-36.555s10.78-4.498,27.701,11.066c16.991,15.635,20.989,58.543,3.427,64.184
					c-11.066,3.641-14.85-8.139-18.777-15.279C8653.767,68.74,8648.696,62.742,8637.773,62.172z M8533.323,39.539
					c76.963-83.53,124.94-0.713,106.521,7.354c-16.35,7.141-31.343-19.205-50.619-9.637c-8.996,4.496-13.994,11.137-16.707,16.99
					C8564.237,43.324,8545.746,39.469,8533.323,39.539z"/>
				<path fill="#5396DC" d="M8541.392,86.945c-7.283,2.785,3.926,12.852,6.996,16.92c3.427,4.498,2.285,17.422,2.285,17.422
					s7.211-9.924,5.068-18.35c-2.142-8.354-4.926-8.496,6.64-11.209c10.71-2.498,18.42-13.85,14.208-28.844
					c6.854-10.637,14.921-22.061,28.486-13.35c10.281,6.711,21.561,12.064,30.914,12.637c-11.709-0.143-23.133,11.994-29.844,21.061
					c-1.57,2.143-5.426,9.496-2.713,9.568l0,0l0,0c0.072,0,0.143,0,0.215,0c2.927-0.072,32.556-0.643,36.696,20.133
					c2.713,13.779,3.569,22.346,7.282,27.059c-7.354-1.143-12.279-10.566-12.994-21.133c-0.856-12.922-23.346-1.785-31.271,14.85
					c-6.711,14.137-15.563,58.188-88.529,47.406c-46.335-6.854-184.483,42.623-281.08,79.676c-1.285-4.355-2.356-8.709-3.284-13.137
					c-4.283-20.275-4.427-40.053-1.57-59.186c14.35,6.711,36.197,9.496,69.752,1.998c94.74-21.203,166.707-39.908,206.33-39.908
					c39.624,0,44.979-28.629,32.699-42.48C8525.398,94.299,8534.395,88.088,8541.392,86.945L8541.392,86.945z M8562.881,46.322
					c4.854-5.213,14.778-13.494,29.843-15.207c16.35-1.855,23.703,8.139,31.628,14.635c-10.923-4.926-22.062-14.992-35.126-8.494
					c-8.996,4.496-13.994,11.137-16.707,16.99C8570.021,50.963,8566.665,48.393,8562.881,46.322z M8651.839,54.604
					c2.213,1.57,4.354,4.141,6.925,8.496c5.14,8.711,5.997,18.848,9.71,25.273c-6.497-1.643-9.496-10.066-12.566-15.707
					c-2.141-3.926-7.211-9.924-18.134-10.494C8643.628,62.1,8648.554,59.887,8651.839,54.604z"/>
				<path fill="#FFFFFF" d="M8271.733,88.445c21.775-0.928,31.485-1,30.914-3.498c-0.856-3.57-14.279-6.998-14.279-6.998
					s27.273,1.785,57.83,1.785c25.773,0,105.449,9.924,146.716-4.926c-0.429,2.855-0.643,5.783-0.643,8.711
					c-11.423,2.713-45.621,9.637-88.243,8.139c-52.476-1.785-71.252,0-71.252,0s22.988,8.424-12.423,10.779
					c-15.921,1.143-40.838,5.426-63.541,9.781C8261.453,104.152,8266.45,96.227,8271.733,88.445z M8502.552,90.088
					c-0.428-10.354,1.643-21.42,9.781-29.416c20.063-19.775,54.332-7.211,55.688,6.283c0.643,6.141-1.57,10.424-5.354,13.352
					c0.928-6.498-0.072-17.85-22.704-19.777C8517.331,58.674,8506.836,78.164,8502.552,90.088z M8616.641,82.377
					c1.499-1.143,3.07-1.928,4.712-2c7.996-0.428,22.061,0.43,31.557,10.139c11.923,12.279,10.852,36.91,3.855,45.906
					C8664.903,95.799,8627.707,84.732,8616.641,82.377z M8545.175,40.539c7.282-8.639,28.559-30.342,58.187-27.559
					c27.559,2.57,36.054,22.49,38.554,32.342c11.994-13.637-35.055-85.602-108.592-5.783
					C8536.894,39.539,8541.034,39.826,8545.175,40.539z M8653.052,26.332c9.71,5.141,24.988,16.992,26.987,41.623
					c0.643,7.854,0.286,13.35-0.714,17.277c11.994-11.281,7.211-47.406-8.067-61.471c-16.921-15.564-27.701-11.066-27.701-11.066
					S8649.411,17.836,8653.052,26.332z"/>
				<path fill="#9AC2EB" d="M8168.069,892.775c15.35,40.553,48.977,125.441,65.183,139.291
					c19.063,16.279,64.897,43.051,77.249,27.201c12.423-15.85-1.5-45.049-18.848-52.475c-17.277-7.426-17.277-6.926-17.277-6.926
					s24.06-1.285,40.837,11.352c16.849,12.637,14.136,40.91,14.136,40.91s25.773,9.139,33.413-8.211
					c7.711-17.348,1.285-47.549-20.062-53.26c-21.275-5.641-30.699-3.928-30.699-3.928s25.986-6.711,42.336,1
					c16.35,7.639,17.135,15.85,17.135,15.85s-0.428-21.561-17.848-28.986c-17.492-7.424-35.912-6.283-42.623-19.348
					c-6.497-12.564-26.916-58.115-39.481-86.672c-0.999,0.285-1.928,0.641-2.856,0.998
					C8236.322,880.781,8202.053,888.135,8168.069,892.775z"/>
				<path fill="#FFFFFF" d="M8362.19,980.449c-2.284-2.357-5.068-4.355-8.566-5.855c-17.492-7.424-35.912-6.283-42.623-19.348
					c-6.497-12.564-26.916-58.115-39.481-86.672c-0.999,0.285-1.928,0.641-2.856,0.998c-2.569,0.857-5.14,1.715-7.781,2.57
					c16.277,37.125,33.912,77.678,37.768,86.602C8303.861,970.953,8338.273,970.238,8362.19,980.449z"/>
				<path fill="#5396DC" d="M8168.069,892.775c15.35,40.553,48.977,125.441,65.183,139.291
					c19.063,16.279,64.897,43.051,77.249,27.201c5.783-7.354,5.854-17.705,2.499-27.344c-6.497,2.428-19.919,3.998-42.908-3.283
					c-34.198-10.781-51.976-83.533-61.471-107.379c-5.926-14.92-8.925-25.844-9.638-33.482
					C8188.702,889.705,8178.35,891.42,8168.069,892.775z M8326.708,1028.354c3.783,11.852,2.641,23.775,2.641,23.775
					s25.773,9.139,33.413-8.211c4.354-9.781,4.212-23.631-0.571-34.84c-0.714,4.426-3.213,9.994-10.138,14.35
					C8343.985,1028.354,8333.847,1028.641,8326.708,1028.354z"/>
				<path fill="#9AC2EB" d="M7740.13,956.031c-13.637,33.342-29.414,67.682-39.124,76.035c-20.348,17.35-64.897,43.051-77.32,27.201
					c-12.352-15.85,1.499-45.049,18.849-52.475c17.348-7.426,17.348-6.926,17.348-6.926s-24.131-1.285-40.908,11.352
					c-16.85,12.637-14.064,40.91-14.064,40.91s-25.773,9.139-33.484-8.211c-7.64-17.348-1.214-47.549,20.062-53.26
					c21.347-5.641,30.7-3.928,30.7-3.928s-25.988-6.711-42.338,1c-16.349,7.639-17.063,15.85-17.063,15.85
					s0.356-21.561,17.848-28.986c17.421-7.424,34.127-2.998,42.552-19.348c4.142-7.996,15.921-34.484,26.845-59.328
					c16.492,19.705,37.839,34.482,60.828,46.477C7720.282,947.322,7730.135,951.818,7740.13,956.031z"/>
				<path fill="#82B3E6" d="M7740.13,956.031c-13.637,33.342-29.414,67.682-39.124,76.035c-20.348,17.35-64.897,43.051-77.32,27.201
					c-5.783-7.354-5.854-17.705-2.499-27.344c6.497,2.428,19.919,3.998,42.908-3.283c27.059-8.568,41.338-49.549,52.832-83.176
					C7724.495,949.25,7732.205,952.748,7740.13,956.031z M7607.55,1028.354c-3.855,11.852-2.641,23.775-2.641,23.775
					s-25.773,9.139-33.484-8.211c-4.283-9.781-4.141-23.631,0.643-34.84c0.714,4.426,3.141,9.994,10.138,14.35
					C7590.201,1028.354,7600.411,1028.641,7607.55,1028.354z M7567.284,996.084c-4.213,4.283-4.498,7.496-4.498,7.496
					s0.071-5.211,2.213-11.352C7565.642,993.656,7566.427,994.941,7567.284,996.084z"/>
			</g>
			<g>
				<path d="M7703.719-457.58c0-27.701,23.56-52.618,51.903-43.836c20.348-38.482,67.611-24.061,81.391,14.064l4.997,13.851
					c-14.421,5.069-23.917,7.425-35.197,18.991c-7.282,6.068-14.851,24.06-4.712,31.199l8.424,3.927l-0.57,9.495
					c-0.857,13.279-3.855,28.059-13.565,37.911l-0.499,0.499l-0.572,0.5c-2.498,2.07-5.354,3.784-8.424,4.926
					c-8.139,2.999-17.777,3.499-26.131,0.643c-2.642,7.426-6.568,14.065-11.852,19.349l-1.713,1.713l-2.143,1.071
					c-5.854,3.07-12.351,4.354-18.919,3.284c-16.492-2.855-24.917-18.634-28.772-33.413c-3.498-13.636-12.994-7.14-15.85-5.283
					C7672.733-406.104,7666.45-447.656,7703.719-457.58z"/>
				<path fill="#9AC2EB" d="M7691.225-399.465c0,0,15.85,1.214,21.275,22.204c2.284,8.924,5.64,15.135,9.71,18.634
					c9.21,7.925,17.349,1.784,21.847-7.211c11.565-22.989,3.569-62.685-18.349-73.822
					C7696.294-454.653,7684.014-417.742,7691.225-399.465z M7768.616-492.492c0,0,9.71,6.711,16.635,13.637
					c4.569,4.641,9.139,10.566,11.78,14.064c4.854-4.997,10.566-9.281,16.492-12.851c2.784-1.643,5.712-3.142,8.782-4.427
					C7812.238-510.055,7781.11-519.051,7768.616-492.492z M7719.354-457.651c0,0,22.346,2.855,35.34,24.06
					s6.283,50.619,6.283,50.619s7.496,7.068,20.561,2.213c9.854-3.641,12.28-21.133,12.852-30.128c0,0-0.285-0.144-0.714-0.429
					c-2.642-1.928-5.497-4.069-7.354-7.068c-6.426-10.423-4.641-22.989,0.929-33.27c0.285-0.571,0.57-1.071,0.928-1.643
					c-2.285-3.284-23.988-34.197-43.408-34.197C7724.209-487.494,7719.354-465.291,7719.354-457.651z"/>
				<path fill="#5396DC" d="M7691.225-399.465c0,0,15.85,1.214,21.275,22.204c2.284,8.924,5.64,15.135,9.71,18.634
					c4.355,3.783,8.424,4.354,12.065,2.998c-7.567-5.711-3.069-32.127-16.349-43.836
					C7702.005-413.458,7691.225-399.465,7691.225-399.465z M7751.339-438.446c6.211,4.569,12.065,10.709,16.064,18.776
					c14.135,28.201,26.986,8.782,26.986,8.782c-0.571,8.995-2.998,26.487-12.852,30.128c-13.064,4.855-20.561-2.213-20.561-2.213
					s6.711-29.415-6.283-50.619C7753.624-435.305,7752.481-436.947,7751.339-438.446z"/>
				<path fill="#FFFFFF" d="M7747.555-375.548c5.712-23.132-2.784-54.402-21.847-64.112c-18.634-9.495-30.342,1.785-34.626,15.992
					c7.354-3.284,15.992-4.926,25.487-3.069C7740.201-422.025,7746.127-391.112,7747.555-375.548z M7722.495-471.716
					c3.784-1.285,8.711-1.571,14.922-0.144c18.92,4.284,36.055,23.275,45.05,34.841c0.643-5.069,2.356-10.066,4.784-14.636
					c0.285-0.571,0.57-1.071,0.928-1.643c-2.285-3.284-23.988-34.197-43.408-34.197
					C7732.562-487.494,7725.851-479.712,7722.495-471.716z M7771.829-497.989c4.569-1.856,10.281-3.07,16.563-1.643
					c11.565,2.642,19.562,16.921,22.704,23.489c0.855-0.5,1.642-1,2.427-1.499c2.784-1.643,5.712-3.142,8.782-4.427
					C7813.024-507.842,7785.751-517.552,7771.829-497.989z"/>
			</g>
		</g>
	</g>
</g>
</svg>
