<?xml version="1.0" encoding="utf-8"?>
<!-- Generator: Adobe Illustrator 16.0.0, SVG Export Plug-In . SVG Version: 6.00 Build 0)  -->
<!DOCTYPE svg PUBLIC "-//W3C//DTD SVG 1.1//EN" "http://www.w3.org/Graphics/SVG/1.1/DTD/svg11.dtd">
<svg version="1.1" id="Layer_1" xmlns="http://www.w3.org/2000/svg" xmlns:xlink="http://www.w3.org/1999/xlink" x="0px" y="0px"
	 width="2200px" height="2500px" viewBox="1849.771 -1367.468 2200 2500" enable-background="new 1849.771 -1367.468 2200 2500"
	 xml:space="preserve">
<g id="Layer_x0020_1">
	<g id="_324669128">
		<path d="M2494.208-405.34l2.999,3.427c9.353,10.852,53.331,26.559,67.396,31.128c15.778,5.212,31.913,9.853,48.12,13.422
			c5.996,1.356,21.204,4.641,27.201,3.855c2.855-0.429,5.711-0.429,8.424,0c-1.57,7.996-3.141,16.063-4.426,24.132
			c-9.71,60.971-6.212,135.863-4.142,195.264c0.144,8.496,0.357,15.136,0.357,21.204c-67.61-64.112-147.287-73.036-205.045-146.645
			c5.068,1.214,10.066,1.928,12.637,1.214c1.928-0.5-52.118-51.975-59.972-60.757c-0.714,0.286-1.356,0.571-1.928,0.785
			c-39.124,16.778-67.61-12.637-78.105-48.19c-0.785-2.643-3.07-10.424-5.498-12.28c-1.999-1.499-5.283-2.927-7.496-4.069
			c-5.998-3.213-11.495-6.64-16.849-10.781c-12.137-9.353-22.275-22.418-28.058-36.554c-5.212-12.708-7.854-28.843,0.214-40.98
			c2.785-4.212,6.783-7.354,11.709-8.71c11.78-3.427,21.49,4.212,29.7,12.423c-0.286-0.643-0.571-1.356-0.928-1.999
			c-9.21-20.276-19.491-65.969,5.926-79.248c4.855-2.499,10.281-3.498,15.707-2.428c12.637,2.57,18.777,14.064,23.917,24.56
			c4.069,8.354,7.996,17.135,13.636,24.56c0.857,1.143,2.784,3.428,4.641,5.283c-1.285-6.068-4.284-15.135-5.212-18.634
			c-4.069-15.063-6.711-30.057-4.926-45.764c1.642-14.851,7.854-32.342,24.774-35.269c11.637-1.999,21.561,4.568,28.487,13.279
			c6.782,8.639,11.352,19.848,14.422,30.343c5.854,20.204,16.706,44.407,28.271,62.47c2.285-1.428,3.998-2.855,4.57-4.141
			c3.069-7.425,7.496-14.636,12.493-20.99c9.853-12.565,24.774-24.988,41.838-22.989c9.924,1.214,17.848,6.997,23.346,15.207
			c4.569,6.783,7.14,14.279,6.568,22.489c-0.785,12.637-8.639,22.633-15.064,32.913c-7.282,11.709-11.78,22.561-13.851,36.34
			C2498.777-422.688,2496.849-413.907,2494.208-405.34z"/>
		<path fill="#9AC2EB" d="M2452.228-365.716c0,0,24.131-19.92,31.271-68.182c7.14-48.335,39.695-58.044,24.988-79.963
			c-14.778-21.918-40.195,6.426-48.263,25.846c-7.996,19.419-47.764,22.132-60.258,36.91c-12.494,14.708-10.28,38.125-10.28,38.125
			s-10.566-20.562-0.143-39.98c10.423-19.42,37.411-26.773,37.411-26.773s-20.42-31.271-31.2-68.324s-31.271-43.123-34.84-11.209
			c-3.57,31.984,15.635,61.685,9.781,72.394c-5.783,10.71-18.705,15.636-34.34-4.926c-15.636-20.562-19.634-48.478-32.128-41.98
			c-12.565,6.497-8.067,51.048,12.922,75.464c20.99,24.418,4.427,26.845-10.709,24.418c-15.207-2.499-35.269-38.768-42.408-27.987
			c-7.14,10.78,2.642,38.41,24.06,54.902c21.49,16.563,27.701,8.496,35.769,35.769c7.996,27.201,27.201,49.548,55.331,37.482
			c28.129-12.065,37.982-9.353,37.982-9.353s-8.496,4.641-12.28,7.925c-3.784,3.213-4.712,4.783-4.712,4.783
			s44.551,49.69,100.381,93.17c-18.277-3.927-30.985-11.423-32.771-11.423c47.549,43.193,108.52,61.113,160.709,96.882
			c-2.07-56.83-4.354-124.94,4.641-181.199c0.215-1.356,0.429-2.642,0.643-3.927c-34.983-2.784-130.938-32.841-149.286-54.046
			C2484.498-390.919,2469.291-365.716,2452.228-365.716z"/>
		<path fill="#5396DC" d="M2417.173-343.084c0,0-8.496,4.641-12.28,7.925c-3.784,3.213-4.712,4.783-4.712,4.783
			s44.551,49.69,100.381,93.17c-18.277-3.927-30.985-11.423-32.771-11.423c47.549,43.193,108.52,61.113,160.709,96.882
			c-0.57-15.492-1.142-31.842-1.499-48.619c-15.064-13.922-36.769-20.848-52.118-25.131c-24.702-6.783-37.482-14.493-37.482-14.493
			s24.061,2.428,24.061,0c0-2.356-33.841-9.353-74.179-39.981C2461.509-299.533,2432.737-324.021,2417.173-343.084z"/>
		<path fill="#FFFFFF" d="M2631.286-320.166c0.57-4.355,1.142-8.64,1.855-12.78c0.215-1.356,0.429-2.642,0.643-3.927
			c-34.983-2.784-130.938-32.841-149.286-54.046c0,0-2.641,4.355-6.854,9.425C2492.208-370.429,2547.54-332.089,2631.286-320.166z"
			/>
		<path fill="#C3DBF3" d="M2492.28-521.499c-12.851,2.713-26.487,20.205-32.056,33.484c-7.996,19.419-47.764,22.132-60.258,36.91
			c-12.494,14.708-10.28,38.125-10.28,38.125s-10.566-20.562-0.143-39.98c6.068-11.352,17.776-18.563,26.487-22.633
			c-9.566-8.566-17.849-30.199-25.273-58.9c-6.568-25.273-17.706-35.84-27.202-36.554c-1.214,3.07-2.142,6.997-2.642,11.78
			c-2.999,26.63,9.853,51.689,10.852,65.469l0,0c16.706,46.478-30.771,42.693-52.903-3.213
			c-8.282-17.135-16.492-23.846-21.276-22.632c-1.499,13.636,2.57,34.198,12.066,50.69c2.285,3.427,4.712,6.996,7.496,10.637
			c5.141,5.998,7.997,10.639,9.21,14.208c20.062,38.339-37.125,22.632-51.261-1.356c-3.712-6.354-8.424-8.567-13.351-8.21
			c-0.5,13.136,9.21,33.483,26.345,46.691c21.49,16.563,27.701,8.496,35.769,35.769c4.212,14.279,11.495,27.201,21.561,34.556
			c10.566-1.143,21.133-5.854,31.699-13.851c26.487-20.063,71.68-15.064,77.678-60.258c5.926-45.192,29.343-56.83,42.693-85.244
			C2503.631-509.147,2498.991-516.93,2492.28-521.499z"/>
		<path d="M2672.337-365.788c-2.642-2.998-5.141-5.854-7.426-8.495c-15.635-17.635-34.341-36.769-45.478-57.544l-4.927-9.139
			c0,0,13.065-15.921,45.407-27.13c-5.497-12.565-8.925-26.345-12.352-40.767c-3.783-15.921-7.496-34.983,2.356-49.548
			c7.639-11.138,20.633-15.921,32.913-19.99c3.212-1.071,6.496-2.07,9.924-2.928l3.926-8.995
			c11.424-25.845,8.496-50.119,9.425-77.32c0.499-12.994,1.999-24.917,5.141-36.126c-19.063-1.856-34.127-12.279-34.556-16.135
			c-0.356-3.927,18.777-6.354,36.911-22.561c-1.143-7.568-2.57-15.064-4.498-23.204c-2.713-11.065-5.568-22.061-8.424-33.055
			c-3.356-12.852-6.712-25.56-10.139-38.34c-1.784-6.854-6.425-19.99-4.427-26.844c0.571-1.928,1.357-3.713,2.428-5.426
			c9.71-15.136,31.271-10.353,45.479-6.212c18.705,5.498,37.981,14.065,55.331,23.061c12.065,6.212,24.06,13.137,35.197,20.919
			l13.208,9.139c43.265-11.638,107.663-16.707,152.284-7.782c26.131,5.283,43.408,14.278,51.333,5.426
			c15.35-17.206,29.629-35.483,42.623-51.976c6.711-8.495,12.779-17.705,19.633-26.059c8.067-9.71,18.563-18.705,32.199-15.564
			c26.273,5.998,35.84,42.623,40.409,65.255c6.925,34.483,8.853,72.395,9.139,107.592c0.214,29.985-0.999,60.399-3.998,90.243
			c-1.999,19.419-5.212,45.978-12.637,64.04l-3.499,8.567c16.564,21.918,30.486,46.407,44.479,70.109
			c-8.067,8.996-16.063,17.85-24.703,26.345c9.995,3.642,22.275,7.925,30.7,13.494c-2.285,27.63-49.191,70.109-72.037,91.741
			c32.342,0,95.24,6.783,95.24,6.783c3.569,9.353,6.64,23.631,4.641,44.051c0.714,0.356,1.356,0.785,2.07,1.142
			c31.557,18.634,74.322,24.488,110.662,21.918l13.136-0.856l3.999,12.565c2.498,7.782,7.425,16.207,15.135,19.848l12.637,5.854
			l2.57,5.497c0.786,1.643,1.856,3.142,3.142,4.498l10.78,11.423l-10.78,11.566c-3.569,3.784-7.211,9.709-7.211,15.064
			c0,6.64,7.711,12.137,12.994,14.707c1.143,0.571,2.427,1.143,3.641,1.57l47.692,18.635l-49.477,13.279
			c-10.995,2.927-39.053,11.494-53.617,15.85c-11.566,3.427-10.853,2.213,0.999,7.282c-23.561,4.712-42.408,7.425-66.04,10.066
			c-21.275,2.355-43.122,2.213-64.469,0.214c-22.561-2.142-49.263,1-71.467,5.283c-16.777,17.277-26.13,31.771-32.77,59.472
			c-9.281,38.268-1.856,77.463,14.207,112.875c19.063,42.123,46.479,80.89,78.748,114.017c12.994,13.352,24.418,25.203,39.91,35.912
			c43.551,30.057,188.768-42.837,237.173-72.18c-37.554,182.77-124.44,294.859-307.782,357.044c0.643,2.213,1.356,4.426,2.142,6.64
			c8.282,24.488,16.278,49.619,22.133,74.821c3.069,13.137,5.926,27.63,6.211,41.123c0.286,14.779-7.211,31.628-16.492,42.979
			l-6.996,8.567c-7.854,28.844-24.988,36.911-47.335,26.559c-3.855,4.569-8.71,8.068-14.636,9.853
			c-38.41,11.138-60.899-61.256-68.682-86.03c-9.639-30.699-18.277-61.756-26.131-92.955c-69.538,6.782-140.718,3.854-209.543-7.64
			c-7.067,27.844-14.778,55.474-23.346,82.817c-7.425,23.703-28.344,90.457-64.755,79.819c-5.354-1.57-9.853-4.641-13.422-8.639
			c-20.776,8.924-38.268-3.642-44.336-25.488l-6.141-7.567c-8.781-10.709-15.777-26.487-15.492-40.338
			c0.214-12.494,2.927-25.845,5.712-37.982c5.354-23.203,12.708-46.264,20.347-68.753c1.143-3.284,2.143-6.568,3.142-9.852
			c-157.354-57.116-266.801-144.218-298.215-302.143c27.344,13.994,68.753,41.267,98.596,29.915
			c36.697-13.851,66.54-36.055,88.601-68.539c39.553-58.115,46.978-138.72,48.191-207.188c0.357-16.706,0.214-33.341,0-50.047
			c-2.142-59.4-5.568-134.294,4.141-195.265c1.928-12.208,4.498-24.346,6.854-36.411
			C2639.996-369.357,2659.201-368.501,2672.337-365.788z"/>
		<path fill="#136ECF" d="M2939.496-307.244c-32.842,17.849-82.675,42.266-114.517,54.902l36.554,25.274
			c-37.839-5.141-82.032-39.196-105.45-68.254l1.571,15.422c1.57,29.271,1.642,59.257,1.214,88.243
			c-0.286,24.702-1.214,49.477-2.785,74.394c49.405-7.854,104.165-13.208,157.568-11.924
			C2921.29-169.238,2936.997-260.623,2939.496-307.244z"/>
		<path fill="#82B3E6" d="M2939.496-307.244c-32.842,17.849-82.675,42.266-114.517,54.902l7.567,5.212
			C2850.11-254.341,2898.872-275.759,2939.496-307.244z M2861.533-227.067c-37.839-5.141-82.032-39.196-105.45-68.254l1.285,12.565
			C2781.213-250.2,2821.98-230.923,2861.533-227.067z"/>
		<path fill="#136ECF" d="M2745.16-12.741c-1.856,12.279-3.855,24.417-6.212,36.482c-3.355,17.92-7.282,35.697-11.923,53.332
			c-15.492,59.186-49.262,103.879-102.094,127.082c-20.49,89.886-39.267,145.859-39.267,145.859s71.965,77.963,303.569,29.985
			c231.604-47.978,266.444-42.622,292.218-40.195c25.773,2.428,52.189,12.637,52.189,12.637s-35.055-49.619-72.894-124.583
			c-14.922,0.5-30.414,0.5-44.551-1.285c-39.553-4.927-77.177-14.422-111.875-34.983c-56.759-33.698-86.888-87.102-95.098-151.928
			c-2.713-21.204-4.212-42.551-4.498-63.97C2858.606-26.592,2803.132-24.808,2745.16-12.741z"/>
		<path fill="#9AC2EB" d="M2799.277-573.331c-25.131,0.285-78.463,0-111.161,10.852c-26.416,8.781-32.628,14.707-24.203,49.762
			c5.568,23.418,15.85,53.689,33.983,76.393c7.854,1.143,15.707,2.142,23.561,2.927l0,0c0,0,3.855,10.71,8.71,25.346
			c81.104,57.329,166.278,23.917,166.278,23.917c-32.842,22.061-68.039,26.059-98.311,21.204
			c-1.642,15.707-7.782,34.483-26.916,46.335c0,0,4.284-8.996,7.211-21.562c-6.64,2.356-16.35,3.784-27.701,4.641
			c9.067,20.776,16.635,39.91,62.042,72.68c0,0,79.748-30.771,128.296-58.614c2.999-24.561,9.353-81.104,8.639-120.586
			c58.973-5.711,123.584-11.066,181.913-21.847c20.563-15.563,39.768-33.198,57.402-52.761
			c-12.566-21.204-27.202-44.836-37.769-58.686c-22.347-29.415-40.98-38.411-40.98-38.411s13.065,0,27.915,6.712
			c10.21,4.568,13.779,6.568,15.064,7.354c21.133-51.547,25.702-293.646-21.204-304.355c-9.638-2.213-19.919,16.778-34.841,35.697
			c-26.915,34.056-60.471,76.464-96.168,101.666l23.988-35.982c-54.402-26.345-134.293-20.134-190.338-3.499
			c-49.904,14.851-83.531,60.757-132.437,85.103c0,0,41.979,0.785,63.541-15.778c-3.284,23.061,3.642,42.194,3.642,42.194
			c6.64-6.568,29.557-27.059,38.41-27.059c-4.641,10.353-4.213,16.921-5.212,27.63c11.565-9.067,47.905-28.844,61.328-26.487
			c0,0-39.553,27.772-50.904,39.338c-11.353,11.566-16.207,20.348-16.207,20.348c-5.64-11.78-7.425-16.992-6.497-29.843
			c-11.066,8.639-17.634,20.49-21.133,33.912c-15.85-17.777-20.49-39.267-22.418-53.046c-3.927,1.214-9.78,2.642-17.92,3.569
			c-7.567,16.921-6.14,36.84-6.211,54.046c4.569,0.714,9.995,1.785,16.35,3.142c21.703,4.569,31.699,13.279,39.124,18.491
			c5.64,3.927,5.426,13.779,0.143,13.137c-4.069-0.5-1.642-0.286-13.208-4.783c0.571,3.141,0.928,6.496,0.928,9.995
			c0,9.066-2.284,17.277-5.997,23.346C2774.431-585.754,2788.71-581.97,2799.277-573.331z M2722.456-634.517
			c-0.499,16.35-2.498,33.127-10.352,50.976c4.854-0.999,11.209-2.07,18.42-2.784c-3.927-6.068-6.354-14.564-6.354-23.917
			c0-8.496,1.999-16.207,5.212-22.133C2726.882-633.16,2724.598-633.874,2722.456-634.517z"/>
		<path fill="#5396DC" d="M2730.167-408.053c81.104,57.329,166.278,23.917,166.278,23.917
			c-32.842,22.061-68.039,26.059-98.311,21.204c-1.642,15.707-7.782,34.483-26.916,46.335c0,0,4.284-8.996,7.211-21.562
			c-6.64,2.356-16.35,3.784-27.701,4.641c9.067,20.776,16.635,39.91,62.042,72.68c0,0,79.748-30.771,128.296-58.614
			c2.713-21.847,7.925-68.824,8.639-106.664C2794.85-370.214,2730.167-408.053,2730.167-408.053z M2997.04-444.536
			c45.05-4.354,91.527-9.424,134.578-17.349c20.563-15.563,39.768-33.198,57.402-52.761
			C3189.02-514.646,3147.682-503.937,2997.04-444.536z"/>
		<path fill="#5396DC" d="M2841.328-702.127c-10.923,8.139-22.846,17.349-28.271,22.917c-2.785,2.785-5.141,5.426-7.14,7.854
			l4.569,13.851C2810.486-657.506,2827.049-689.205,2841.328-702.127z M2792.351-669.214c-2.07-5.854-2.642-11.066-1.999-19.491
			c-7.925,6.14-13.493,13.993-17.349,22.847c3.355,6.425,7.211,12.422,11.709,16.42
			C2784.712-649.438,2786.069-659.362,2792.351-669.214z"/>
		<path fill="#FFFFFF" d="M3137.687-605.245c0.143,0.071,0.356,0.143,0.499,0.215c10.21,4.568,13.779,6.568,15.064,7.354
			c21.133-51.547,25.702-293.646-21.204-304.355c-2.142-0.5-4.354,0.071-6.711,1.499c5.569,3.142,10.066,8.14,13.065,15.85
			c19.205,49.191,17.42,164.637,8.71,227.178C3142.827-626.806,3139.757-612.241,3137.687-605.245z M3189.02-514.646
			c-12.566-21.204-27.202-44.836-37.769-58.686c-8.995-11.924-17.491-20.419-24.274-26.416
			c13.994,23.773,46.264,65.54,35.912,93.313C3181.88-512.789,3189.02-514.646,3189.02-514.646z"/>
		<path fill="#82B3E6" d="M2760.795-783.018c-7.568-19.348-18.349-34.84-26.916-45.335c0.428,0.356,0.856,0.714,1.356,1.07
			c11.423,8.496,25.56,21.49,33.127,37.482l0,0c11.994-10.138,27.772-20.633,46.62-27.986
			c-40.266-27.916-108.805-55.117-112.731-41.48c0,0.071,17.563,68.61,25.702,103.736
			C2741.662-762.955,2760.795-783.018,2760.795-783.018z"/>
		<path fill="#FFFFFF" d="M2797.349-809.576c5.568-2.998,11.423-5.783,17.634-8.21c-38.624-26.773-103.165-52.832-111.946-42.908
			c8.925,0,19.419,2.284,31.842,8.067C2777.001-832.922,2792.28-816.716,2797.349-809.576z M2722.456-634.517
			c-0.499,16.35-2.498,33.127-10.352,50.976c0,0,6.711-8.853,12.137-24.131c-0.071-0.857-0.071-1.714-0.071-2.57
			c0-8.496,1.999-16.207,5.212-22.133C2726.882-633.16,2724.598-633.874,2722.456-634.517z M2746.801-707.839
			c-3.927,1.214-9.78,2.642-17.92,3.569c-7.567,16.921-6.14,36.84-6.211,54.046c2.499,0.429,5.212,0.929,8.21,1.5
			C2730.167-688.42,2746.801-707.839,2746.801-707.839z M2702.251-719.048c0,0,24.631-4.712,44.693-19.063
			c49.548-35.482,60.257-48.834,127.153-63.398c-28.272,9.567-42.694,25.488-42.694,25.488
			c59.044-25.916,125.798-32.771,187.34-15.207l6.282-9.424c-54.402-26.345-134.293-20.134-190.338-3.499
			C2783.141-788.872,2749.443-742.536,2702.251-719.048z M2799.277-573.331c-25.131,0.285-78.463,0-111.161,10.852
			c-26.416,8.781-32.628,14.707-24.203,49.762c2.642,10.995,6.282,23.489,11.28,36.055c-3.927-26.631-5.426-52.404,0.785-63.756
			C2691.256-568.263,2799.277-573.331,2799.277-573.331z"/>
		<path fill="#136ECF" d="M2760.795-783.018c-7.568-19.348-18.349-34.84-26.916-45.335l0,0c-15.207-11.28-14.064-9.139-10.424,5.497
			c3.427,13.708,10.495,36.482,15.564,59.757C2750.157-771.809,2760.795-783.018,2760.795-783.018L2760.795-783.018z"/>
		<path d="M2715.459-463.099c2.07-5.283,5.497-12.565,9.067-12.922c5.568-0.5,62.398,14.707,71.037,21.133
			c8.567,6.426,8.067,9.638,8.067,9.638s-68.967-15.421-75.106-15.421c-6.069,0-10.924,15.421-10.924,15.421
			C2713.96-449.104,2712.318-454.959,2715.459-463.099z"/>
		<path d="M2935.498-636.587c4.712,6.711,7.639,15.492,7.639,25.131c0,20.99-13.636,38.053-30.485,38.053
			c-16.849,0-30.485-17.063-30.485-38.053c0-3.927,0.5-7.782,1.356-11.352c-16.849,5.141-20.633,7.425-26.559,7.996
			c-7.711,0.714-7.996-10.495,0.285-14.993c10.781-5.926,32.628-18.42,64.256-23.632c39.195-6.496,50.833-4.712,50.618,2.07
			C2971.98-644.583,2963.484-643.513,2935.498-636.587z"/>
		<ellipse fill="#FFFFFF" cx="2900.157" cy="-615.097" rx="7.711" ry="11.566"/>
		<path fill="#136ECF" d="M3024.883-748.534c0,0,43.266,32.199,62.613,95.24c19.419,63.042,44.051-165.063,40.267-196.406
			C3124.05-881.042,3128.191-835.492,3024.883-748.534z"/>
		<path d="M3024.883-748.534c0,0,43.266,32.199,62.613,95.24c7.068,22.847,14.778,7.426,21.561-23.06
			c-9.495,22.274-18.705,7.067-26.059-13.208c-10.495-29.129-41.052-57.901-41.052-57.901
			c46.764-43.907,65.326-75.964,72.251-96.739C3101.99-826.068,3077.215-792.655,3024.883-748.534z"/>
		<path fill="#0F59A7" d="M2921.218,90.709c8.639,110.447,79.319,177.987,268.087,190.338
			c-8.925-15.706-18.634-33.556-28.558-53.188c-14.922,0.5-30.414,0.5-44.551-1.285c-39.553-4.927-77.177-14.422-111.875-34.983
			C2963.27,167.244,2936.14,132.618,2921.218,90.709z"/>
		<path fill="#0F59A7" d="M2761.794-15.883c-8.139,66.254-21.133,132.937-41.837,177.63
			c-33.199,71.895-82.604,111.304-117.444,131.58c6.568-23.561,14.351-53.688,22.418-89.172
			c52.832-23.203,86.602-67.896,102.094-127.082c4.641-17.635,8.567-35.412,11.923-53.332c2.356-12.065,4.355-24.203,6.212-36.482
			C2750.728-13.884,2756.297-14.955,2761.794-15.883z M2756.083-295.321l1.571,15.422c1.57,29.271,1.642,59.257,1.214,88.243
			c-0.286,24.702-1.214,49.477-2.785,74.394c4.641-0.786,9.281-1.5,13.922-2.143
			C2769.505-212.646,2756.083-295.321,2756.083-295.321z"/>
		<path fill="#5396DC" d="M2755.155-102.771c-1.856,25.06-4.427,50.048-7.782,74.894c51.618-10.353,104.808-13.565,157.354-10.924
			c0.286-25.559,2.428-51.047,6.426-76.178c-10.852-0.214-21.489-0.214-31.842,0.071
			C2838.116-113.836,2796.349-109.481,2755.155-102.771z"/>
		<path fill="#136ECF" d="M2755.155-102.771c-1.856,25.06-4.427,50.048-7.782,74.894c5.354-1.071,10.709-2.07,16.063-2.999
			c2.143-21.418,4.998-55.116,6.568-74.179C2765.079-104.341,2760.081-103.556,2755.155-102.771z"/>
		<path fill="#C3DBF3" d="M2769.077-94.06c44.622-10.21,114.803-9.639,140.361-9.067c0.5-3.927,1.071-7.925,1.714-11.852
			c-10.852-0.214-21.489-0.214-31.842,0.071c-36.269,0.928-72.894,4.427-109.306,9.853
			C2769.719-101.771,2769.434-98.058,2769.077-94.06z"/>
		<path fill="#0A35A4" d="M2707.463-420.333c0,0,27.701,51.262,33.841,128.653c0.5,6.854,0.785,12.279,0.856,16.635
			c2.214,51.189,5.569,211.613-30.199,348.12c-43.194,164.992-214.184,129.652-214.184,129.652
			c204.902-77.678,129.295-366.754,148.286-514.755c0.999-7.996,5.426-33.341,7.068-40.48c12.708,2.07,37.839-0.571,50.547,24.417
			c8.425,16.635,21.419,44.407,26.487,81.175c-0.214-40.694-5.926-77.463-29.629-110.376
			c-20.775-28.771-52.189-56.188-66.325-82.531C2667.553-421.261,2707.463-420.333,2707.463-420.333z"/>
		<path fill="#0A35A4" d="M3224.075-359.79c0,0-78.605-6.64-96.598-3.642c-17.563,2.927-93.313,29.771-134.079,81.818
			c24.988-40.195,66.897-74.179,121.8-95.026c13.851-15.064,82.532-74.893,81.318-86.673
			c-46.906,18.849-188.625,35.055-229.034,39.267c-2.07,97.025-30.271,244.741-38.553,298.072
			c-8.996,47.335-11.994,102.38-4.212,163.708c18.848,148.786,150.214,167.991,193.407,173.346
			c43.266,5.427,138.006-7.21,138.006-7.21s-82.175-56.688-128.938-159.853c-37.625-82.89-11.494-141.647,0.214-161.495
			c2.856-4.854,9.353-13.707,9.353-13.707c-15.706,4.641-11.708,2.784-23.56,11.994
			C3083.926-96.487,3150.824-306.03,3224.075-359.79z"/>
		<path fill="#072778" d="M2928.929-126.116c-8.996,47.406-11.994,102.451-4.212,163.851
			c18.848,148.786,150.214,167.991,193.407,173.346c11.138,1.429,25.702,1.643,41.123,1.143
			c-83.531-33.983-157.639-99.667-187.768-177.63c-27.415-70.752-30.699-153.783-25.702-224.036l7.068-85.03l0,0
			C2943.994-212.646,2933.499-155.316,2928.929-126.116z M3026.882-322.38c23.489-22.275,53.261-40.98,88.315-54.26
			c7.282-7.925,29.7-28.201,49.19-47.406c-88.458,13.637-138.648,102.309-138.648,102.309L3026.882-322.38z M2606.44,194.517
			c39.267-81.461,62.398-192.693,37.981-341.266l0,0c2.642,139.719-4.426,295.573-146.644,349.477
			C2497.778,202.728,2551.538,213.865,2606.44,194.517z"/>
		<path fill="#82B3E6" d="M3224.075-359.79c0,0-78.605-6.64-96.598-3.642c-17.563,2.927-93.313,29.771-134.079,81.818
			c21.704-17.849,51.976-40.124,78.106-50.904c46.478-19.205,64.184-20.062,76.82-18.849c12.565,1.143,43.193,4.213,43.193,4.213
			s-22.846,34.483-36.125,80.39C3175.241-305.602,3199.3-341.585,3224.075-359.79z M2643.494-282.398
			c0.5-10.353,1.356-20.276,2.57-29.629c0.999-7.996,5.426-33.341,7.068-40.48c11.637,1.927,33.626-0.144,47.049,18.563
			c-14.708-4.355-41.98-6.069-41.98-6.069C2651.632-327.021,2643.565-283.041,2643.494-282.398z M3196.516-463.313
			c-46.906,18.849-188.625,35.055-229.034,39.267c-0.785,36.982-5.354,81.391-11.209,125.084
			c9.425-41.053,18.206-80.533,21.276-113.731C2977.549-412.693,3138.33-431.971,3196.516-463.313z M2707.463-420.333
			c0,0,12.352,22.775,22.347,60.899c-12.852-37.696-27.345-54.402-27.345-54.402c-21.347-1.856-51.476-12.565-68.253-25.987
			C2667.553-421.261,2707.463-420.333,2707.463-420.333z M2742.161-274.188c0,0.785-1.428,320.919-81.604,436.863
			c21.989-19.848,40.623-48.548,51.404-89.6C2747.515-62.718,2744.375-221.999,2742.161-274.188z M3234.426,206.511
			c13.137-1.499,21.704-2.641,21.704-2.641s-82.175-56.688-128.938-159.853c-29.486-64.898-19.848-114.945-8.71-143.218l0,0
			C3118.482-99.2,3033.665,42.019,3234.426,206.511z"/>
		<path fill="#072778" d="M2419.171,190.091c54.403,27.772,129.225,39.98,188.196,20.775c-7.425,31.984-15.563,63.827-24.631,95.383
			c-4.641,16.064-9.495,31.699-14.778,47.549c59.614,64.612,183.198,63.185,274.726,50.19l31.129,9.067
			c33.412,9.781,67.753,17.277,102.308,21.418c38.696,4.713,78.463,5.283,117.016-0.785c36.769-5.854,98.597-18.276,132.865-45.05
			c39.481-30.699,21.062-42.408-1.499-78.819c-16.706-26.916-32.271-54.617-46.691-82.818h0.143
			c95.454-5.497,214.255-28.2,294.217-76.82C3360.223,649.3,2510.557,544.636,2419.171,190.091z M2736.45-388.349
			c4.141,13.208,7.996,26.416,10.994,39.981c3.499,0,19.634-0.5,32.771-6.283c0,0,2.57-5.568,2.642-11.923
			C2765.864-370.999,2750.514-377.496,2736.45-388.349z M3163.817-467.239c8.567-1.57,17.992-3.284,26.845-5.212
			c-4.569-2.142-9.853-4.354-14.564-5.712C3174.241-476.521,3163.817-467.239,3163.817-467.239z M2644.065-445.535
			c5.354-2.784,12.708-6.14,21.918-9.353c2.713,5.141,6.211,11.066,10.495,16.563
			C2662.414-440.395,2650.918-443.465,2644.065-445.535z"/>
		<path fill="#0B3B6E" d="M2878.167,398.063c58.115,16.992,137.292,32.128,212.542,20.205
			c91.027-14.422,124.083-37.196,136.078-51.833c-15.493-5.354-31.2-9.638-46.764-11.065c-7.64-0.714-14.993-1.356-22.703-1.428
			c-14.279-0.144-28.915,1.07-43.123,2.569c-27.63,2.928-55.259,7.354-82.604,11.995c-46.549,7.996-92.955,17.206-139.147,26.772
			C2887.877,396.206,2883.094,397.135,2878.167,398.063z"/>
		<path fill="#9AC2EB" d="M3212.223-327.021c7.853,3.284,16.206,7.426,24.845,12.494c45.121,26.63,100.595,25.631,120.371,24.203
			c4.213,13.137,12.352,24.56,24.061,29.985l7.14,3.355c1.499,3.213,3.569,6.14,5.996,8.782
			c-6.711,7.21-11.779,16.849-11.779,26.559c0,13.779,10.852,24.131,22.418,29.771c1.642,0.785,3.284,1.499,4.926,2.213
			c-5.141,1.356-23.703,6.426-46.764,14.207c-27.272,9.211-72.68,5.712-72.68,5.712s9.425,4.569,17.849,6.711
			c8.354,2.214,8.354,2.214,8.354,2.214s-32.771,8.924-83.96,3.998c-43.266-4.069-107.734,10.78-108.948,15.492
			c2.642-11.494,6.711-24.702,8.425-29.985c9.21-28.415,21.062-56.83,34.341-83.532
			C3177.739-276.616,3193.731-305.316,3212.223-327.021z"/>
		<path fill="#FFFFFF" d="M3212.223-327.021c7.853,3.284,16.206,7.426,24.845,12.494c45.121,26.63,100.595,25.631,120.371,24.203
			c1.214,3.783,2.713,7.354,4.569,10.709c-22.061,5.997-69.824,11.138-135.436-23.489c-8.424-4.426-16.563-8.21-24.346-11.28
			C3205.511-318.81,3208.795-323.022,3212.223-327.021z"/>
		<path fill="#5396DC" d="M3143.469-202.08c2.714,0.929,5.641,1.356,8.996,1.071c46.978-3.498,100.452,9.781,100.452,9.781
			s-9.495-7.854-12.208-9.496c-2.785-1.642-2.785-1.642-2.785-1.642s52.118,11.565,104.879,4.354
			c21.775-2.927,36.197-5.497,45.55-7.496c4.212,5.854,10.495,10.495,16.921,13.637c1.642,0.785,3.284,1.499,4.926,2.213
			c-5.141,1.356-23.703,6.426-46.764,14.207c-27.272,9.211-72.68,5.712-72.68,5.712s9.425,4.569,17.849,6.711
			c8.354,2.214,8.354,2.214,8.354,2.214s-32.771,8.924-83.96,3.998c-43.266-4.069-107.734,10.78-108.948,15.492
			c2.642-11.494,6.711-24.702,8.425-29.985C3135.831-181.59,3139.471-191.87,3143.469-202.08z"/>
		<path d="M3148.752,671.575c-3.783,4.712-8.566,8.425-14.636,10.21c-37.339,10.852-59.686-61.328-67.182-85.245
			c-15.207-48.335-27.915-97.668-39.124-147.073c-5.854-25.631-11.353-51.476-16.064-77.392l-1.57-8.425
			c80.391-14.35,119.8-17.92,143.146-18.134l17.705,64.612c6.141,22.561,11.994,47.477,19.42,69.252
			c8.281,24.488,16.277,49.548,22.132,74.75c2.999,12.994,5.854,27.416,6.14,40.838c0.286,14.493-7.139,31.057-16.206,42.266
			l-7.14,8.71C3188.591,671.29,3170.885,682.57,3148.752,671.575z M2728.953,648.872c-20.49,9.353-36.125,2.57-43.622-24.56
			l-6.282-7.782c-8.567-10.495-15.493-25.987-15.207-39.624c0.214-12.352,2.855-25.702,5.64-37.696
			c5.427-23.132,12.709-46.192,20.348-68.682c6.854-20.062,11.138-41.338,14.064-62.256l1.071-7.782
			c37.91,3.998,86.316,3.427,147.216-6.426l-2.999,14.493c-11.923,57.116-26.13,114.517-43.551,170.205
			c-7.211,22.846-27.915,89.314-63.255,79.033C2736.877,656.226,2732.452,653.013,2728.953,648.872z"/>
		<path fill="#9AC2EB" d="M3196.445,553.774c4.854,19.99,6.497,32.913,6.711,41.552c0.285,15.992-12.78,32.056-12.78,32.056
			s2.214-24.202-3.283-42.837c-5.427-18.705-13.209-19.848-13.209-19.848s13.708,34.698,7.782,70.967
			c-5.997,36.34-28.2,20.633-28.2,20.633s5.497-26.845,0-54.974c-5.569-28.13-15.422-27.13-15.422-27.13s7.854,32.056,6.568,62.47
			s-28.129,65.755-62.827-44.764c-32.627-104.165-52.546-210.614-54.688-222.608c1.5-0.286,2.999-0.5,4.498-0.785
			c27.345-4.641,54.974-9.067,82.604-11.995c8.354-0.856,16.85-1.642,25.346-2.142l16.42,59.9
			C3168.672,460.818,3185.165,507.297,3196.445,553.774z M2719.315,410.414c-2.784,20.49-7.354,43.551-14.707,65.112
			c-19.776,58.187-24.917,87.029-25.203,101.736c-0.285,14.708,11.709,29.415,11.709,29.415s-1.999-22.204,2.999-39.339
			c4.997-17.063,12.137-18.134,12.137-18.134s-12.565,31.771-7.14,65.112c5.498,33.27,25.916,18.848,25.916,18.848
			s-5.14-24.56,0-50.333c5.069-25.845,14.065-24.917,14.065-24.917s-7.14,29.415-5.997,57.259
			c1.213,27.915,25.845,60.328,57.615-41.052c20.204-64.327,35.055-129.581,43.193-168.777
			C2796.349,410.414,2757.225,412.913,2719.315,410.414z"/>
		<path fill="#5396DC" d="M2682.118,554.846c0,5.211,0.429,10.138,1.429,14.278c2.569,11.066,5.426,15.85,7.425,17.849
			c-0.643,10.853,0.143,19.705,0.143,19.705s-11.994-14.707-11.709-29.415C2679.548,571.908,2680.262,564.697,2682.118,554.846z
			 M3155.036,410.985c-28.915-8.067-88.387-20.49-97.025,10.78c-4.569,16.635-1.143,58.829,5.212,106.164
			c-21.562-80.177-34.412-149.144-36.126-158.639c1.5-0.286,2.999-0.5,4.498-0.785c27.345-4.641,54.974-9.067,82.604-11.995
			c8.354-0.856,16.85-1.642,25.346-2.142L3155.036,410.985z M3200.657,573.622c1.714,9.353,2.356,16.35,2.499,21.704
			c0.285,15.992-12.78,32.056-12.78,32.056s1.357-14.921-0.713-30.343C3192.732,593.684,3197.73,586.688,3200.657,573.622z
			 M3183.022,610.961c0.357,7.854,0,16.278-1.356,24.703c-5.997,36.34-28.2,20.633-28.2,20.633s1.356-6.568,1.999-16.563
			c2.642,2.356,6.497,2.713,12.279-3.355C3174.883,628.738,3179.953,618.601,3183.022,610.961z M3144.469,619.386
			c0.285,5.641,0.357,11.495,0.143,17.277c-1.285,28.772-25.345,61.971-57.33-28.344c9.282,14.564,24.774,34.983,37.554,33.413
			C3135.117,640.519,3141.114,629.596,3144.469,619.386z M2698.04,604.25c2.713,6.783,7.067,13.494,13.85,14.422
			c4.855,0.643,8.425-1.428,10.995-4.498c0.5,11.28,2.142,18.991,2.142,18.991s-20.418,14.422-25.916-18.848
			C2698.61,610.89,2698.253,607.534,2698.04,604.25z M2733.022,611.89c2.928,2.998,7.997,4.141,16.992,0
			c22.775-10.495,55.188-153.57,54.546-165.564c-0.429-8.781-30.271-17.491-56.688-34.983c28.772,0.144,57.829-2.142,86.03-5.997
			c-8.139,39.196-22.989,104.45-43.193,168.777c-31.771,101.38-56.402,68.967-57.615,41.052
			C2733.094,614.103,2733.022,613.032,2733.022,611.89z"/>
		
			<ellipse transform="matrix(0.2812 -0.9596 0.9596 0.2812 2563.1328 2185.001)" fill="#FFFFFF" cx="2740.199" cy="-618.56" rx="10.127" ry="6.368"/>
		<path d="M2663.555-530.28c7.854,9.353,19.42,20.418,28.415,23.774c14.564,5.426,15.278-7.068,22.918-15.636
			c7.64-8.639,47.191-30.557,14.208-34.555c-20.49-2.428-42.694-0.714-56.759,1.784
			C2662.056-553.127,2656.916-538.205,2663.555-530.28z"/>
		<g>
			<path fill="#0A35A4" d="M2361.842-256.911c1,0.5,1.856,0.929,2.427,1.214c7.925,3.784,16.349,7.068,24.774,9.639
				c2.713,0.856,5.426,1.642,8.14,2.355c17.563,4.355,39.123,3.642,56.615-0.714c14.779-3.641,29.629-10.352,40.195-21.561
				c13.351-14.208,20.704-35.198,24.631-53.975c4.998-23.917,5.712-49.619,3.642-73.965c-1.071-11.852-1.5-26.202,1.213-37.91
				c1.357-5.712,4.713-15.136,12.138-14.493c4.354,0.356,6.854,3.854,8.21,7.925c0.429-2.499,0.857-5.069,1.143-7.568
				c2.142-16.421,2.284-33.627,1.499-50.119c-1.07-22.774-5.783-45.549-16.777-65.683c-6.782-12.494-14.993-22.132-25.202-31.842
				c-3.284-3.142-7.354-5.783-11.209-8.067c-5.354-3.213-10.995-5.997-16.278-9.281c-4.212-2.642-9.853-6.497-9.853-12.066
				c0-3.783,2.499-6.568,5.497-8.567c6.783-4.497,15.422-0.999,22.062,2.856c-2.356-2.713-4.854-5.354-7.211-7.782
				c-8.567-8.639-18.276-16.492-28.843-22.561c-24.418-14.137-50.548-17.135-75.393-1.999
				c-39.125,23.988-58.687,67.039-65.827,110.875l-0.143,0.715c-1.571-0.715-3.284-1.285-5.141-1.643
				c-5.426-1.07-10.852-0.071-15.707,2.428c-25.417,13.279-15.136,58.972-5.926,79.248c0.357,0.643,0.643,1.356,0.928,1.999
				c-8.21-8.211-17.92-15.85-29.7-12.423c-4.926,1.356-8.924,4.498-11.709,8.71c-7.925,11.852-5.568,27.559-0.571,40.124
				c-3.641,2.499-8.282,4.283-12.494,2.213c-14.351-6.782,1.071-41.837,5.14-50.833c5.355-11.994,8.996-24.417,11.923-37.196
				c3.498-15.136,6.068-30.414,9.566-45.55c4.141-17.491,9.496-34.056,17.135-50.333c10.566-22.418,25.56-39.124,44.479-54.688
				c6.497-5.354,13.351-10.353,19.633-15.778c3.57-2.998,8.354-7.425,10.138-11.78c0.214-0.57,0.857-2.284,0.714-2.998
				c-1-0.929-6.64-1.643-7.996-1.785c-4.712-0.643-10.138-1.57-13.422-5.354c-2.713-3.213-2.999-7.282-2.142-11.28
				c0.286-1.214,0.785-2.356,1.428-3.355c4.784-7.782,17.92-7.425,25.917-6.925c12.565,0.928,25.702,3.569,38.053,6.14
				c8.282,1.713,16.563,3.498,24.917,5.141c6.496,1.284,13.351,2.569,19.99,3.141c19.205,1.714,39.338,10.424,55.259,20.99
				c21.775,14.351,39.41,34.127,51.262,57.401c5.426,10.638,10.78,21.347,16.135,32.056c0.072,0.144,0.215,0.357,0.286,0.5
				c1.214-3.998,3.927-7.354,8.21-8.71c7.64-2.356,14.065,3.427,17.206,9.853c5.069,10.566,4.427,25.273,2.856,36.554
				c-2.57,17.492-2.642,34.983-2.143,52.547c0.5,17.206,1.5,34.412,0.929,51.618c-0.357,10.209-1.285,20.348-3.213,30.414
				c-1.785,9.781-3.927,19.562-5.997,29.271c-2.928,13.493-5.926,27.201-7.782,40.838c-0.571,4.641-1.143,9.71-0.928,14.422
				c0,0.999,0.285,4.283,0.928,5.497c0.928-0.214,2.57-1.214,3.142-1.57c5.64-3.713,17.92-10.853,23.774-4.07
				c4.498,5.069,0.5,12.709-2.713,17.35c-5.569,8.067-14.065,15.707-21.847,21.704c-6.997,5.426-12.994,11.637-18.42,18.634
				c-4.998,6.426-9.281,13.279-13.708,20.133c-5.069,7.996-10.209,15.778-16.421,22.918c-7.354,8.425-15.635,15.421-25.202,21.275
				c-9.709,5.997-19.705,11.28-30.129,15.921c-2.498,1.143-4.997,2.214-7.496,3.284c0.571,0.215,1.071,0.357,1.428,0.5
				c4.498,1.57,10.066,4.569,9.853,10.138c-0.285,6.712-8.853,9.71-14.278,10.924c-7.497,1.57-16.064,1.428-23.489-0.643
				c-3.498-1-6.854-2.428-9.924-4.355c-5.212-3.284-10.78-5.497-16.778-7.067c-7.639-2.071-15.635-2.999-23.488-4.213
				c-8.996-1.356-17.634-2.998-26.202-6.068c-23.132-8.354-47.691-22.561-60.186-44.55c-2.713-4.784-5.997-10.853-7.14-16.278
				c-0.856-3.855-0.5-8.139,2.999-10.638c1.071-0.714,2.213-1.214,3.427-1.428c-3.784-4.355-7.639-8.639-11.352-13.065
				c-4.998-5.854-9.709-11.923-13.993-18.206c-10.281-14.992-17.777-31.128-21.204-49.048c-3.427-18.063-2.57-38.268-2.285-56.688
				l0.143-7.425c5.926,10.78,14.279,20.49,23.917,27.915c5.354,4.142,10.852,7.568,16.849,10.781
				c0.928,0.428,1.999,0.999,3.07,1.499c4.355,30.271,17.777,63.041,41.694,82.675c3.142,2.642,6.354,5.283,9.424,7.996
				c4.926,4.284,9.995,8.925,14.208,13.922c3.212,3.855,7.425,9.781,4.998,15.064
				C2366.911-259.053,2364.555-257.625,2361.842-256.911z"/>
			<path fill="#FFFFFF" d="M2365.198-208.72c-18.706-6.782-44.836-19.848-57.687-42.408c-21.275-37.482,14.85-10.424,0-27.701
				s-39.624-42.408-46.692-79.533c-3.213-17.206-2.499-38.839-2.213-55.616c5.355,7.71,11.923,14.707,19.277,20.347
				c4.712,3.642,9.567,6.783,14.778,9.639c4.07,33.342,18.563,68.324,43.765,89.029c17.42,14.278,43.265,36.91,15.207,33.412
				c-14.779-1.928,15.992,15.35,44.335,22.489c28.344,7.14,76.464,2.999,101.523-23.632c25.06-26.63,34.056-79.533,29.558-131.651
				c-4.569-52.118,12.708-56.973,13.564-34.483c0.786,22.489,13.565-7.496,10.638-67.468c-2.855-60.043-28.914-87.03-43.479-100.81
				c-14.493-13.778-46.05-21.489-32.484-30.485c13.564-8.995,47.049,31.771,33.27,9.425
				c-13.779-22.418-70.252-82.176-127.797-46.978c-42.693,26.13-61.328,72.894-68.11,114.159c-0.143-0.071-0.286-0.071-0.5-0.143
				c-5.426-1.07-10.852-0.071-15.707,2.428c-25.417,13.279-15.136,58.972-5.926,79.248c0.357,0.643,0.643,1.356,0.928,1.999
				c-8.21-8.211-17.92-15.85-29.7-12.423c-4.926,1.356-8.924,4.498-11.709,8.71c-6.925,10.424-5.997,23.774-2.285,35.412
				c-12.351,9.495-18.705-2.999-1.285-41.98c18.919-42.194,15.135-83.175,38.625-132.937c23.489-49.833,66.968-64.184,74.321-82.532
				c7.425-18.349-26.701-4.141-22.561-22.132c4.069-17.992,75.179,5.283,105.164,7.854c29.985,2.642,77.249,25.916,102.666,75.749
				c25.487,49.905,24.702,52.689,24.631,35.911c0-16.777,26.345-15.85,19.562,31.485c-6.782,47.406,3.855,90.528-4.354,134.364
				c-8.211,43.908-27.059,109.163-3.284,93.385c23.846-15.778,27.13,1.07-6.354,27.201c-33.483,26.059-34.27,58.687-73.322,82.675
				c-38.981,23.988-56.687,20.847-35.34,28.272c21.418,7.496-13.923,19.99-33.627,7.496
				C2412.247-203.864,2389.186-200.081,2365.198-208.72z"/>
			<path fill="none" d="M2376.335-688.063c17.277-8.996-8.71-16.85,8.639-18.349c17.42-1.499,43.266,5.997,75.964,18.349
				c32.627,12.28,56.83,32.984,82.175,81.604c25.345,48.62,29.058,55.402,32.984,40.195c3.927-15.278,3.284,2.57,0,34.698
				c-3.284,32.199,10.78,84.531-7.64,143.859c-18.49,59.329-21.489,72.252-5.568,68.896c15.921-3.284-15.921,11.423-25.202,30.628
				s-16.207,46.764-64.469,60.614c-48.335,13.779-46.55,13.493-38.125,22.774c8.424,9.281-5.069-4.498-32.699-7.211
				c-27.629-2.713-59.543-8.139-74.321-28.486c-14.779-20.348-4.569-23.488-35.483-66.896
				c-21.347-29.985-22.989-67.04-22.704-93.241c2.57,2.499,5.212,4.854,7.997,6.996c4.712,3.642,9.567,6.783,14.778,9.639
				c4.07,33.342,18.563,68.324,43.765,89.029c17.42,14.278,43.265,36.91,15.207,33.412c-14.779-1.928,15.992,15.35,44.335,22.489
				c28.344,7.14,76.464,2.999,101.523-23.632c25.06-26.63,34.056-79.533,29.558-131.651c-4.569-52.118,12.708-56.973,13.564-34.483
				c0.786,22.489,13.565-7.496,10.638-67.468c-2.855-60.043-28.914-87.03-43.479-100.81c-14.493-13.778-46.05-21.489-32.484-30.485
				c13.564-8.995,47.049,31.771,33.27,9.425c-13.779-22.418-70.252-82.176-127.797-46.978
				c-42.693,26.13-61.328,72.894-68.11,114.159c-0.143-0.071-0.286-0.071-0.5-0.143c-5.426-1.07-10.852-0.071-15.707,2.428
				c-25.417,13.279-15.136,58.972-5.926,79.248c0.357,0.643,0.643,1.356,0.928,1.999c-8.21-8.211-17.92-15.85-29.7-12.423
				c-1.856,0.5-3.641,1.285-5.212,2.284c6.354-14.992,14.708-35.982,20.133-61.113
				C2289.376-597.177,2321.433-659.505,2376.335-688.063z"/>
			<path fill="#C3DBF3" d="M2269.886-400.628c2.57,2.499,5.212,4.854,7.997,6.996c4.712,3.642,9.567,6.783,14.778,9.639
				c4.07,33.342,18.563,68.324,43.765,89.029c17.42,14.278,43.265,36.91,15.207,33.412c-14.779-1.928,15.992,15.35,44.335,22.489
				c28.344,7.14,76.464,2.999,101.523-23.632c25.06-26.63,34.056-79.533,29.558-131.651c-4.569-52.118,12.708-56.973,13.564-34.483
				c0.786,22.489,13.565-7.496,10.638-67.468c-2.855-60.043-28.914-87.03-43.479-100.81c-14.493-13.778-46.05-21.489-32.484-30.485
				c13.564-8.995,47.049,31.771,33.27,9.425c-13.779-22.418-70.252-82.176-127.797-46.978
				c-42.693,26.13-61.328,72.894-68.11,114.159c-0.143-0.071-0.286-0.071-0.5-0.143c-5.426-1.07-10.852-0.071-15.707,2.428
				c-25.417,13.279-15.136,58.972-5.926,79.248c0.357,0.643,0.643,1.356,0.928,1.999c-8.21-8.211-17.92-15.85-29.7-12.423
				c-1.856,0.5-3.641,1.285-5.212,2.284c6.354-14.992,14.708-35.982,20.133-61.113c12.708-58.472,44.764-120.8,99.667-149.357
				c17.277-8.996-8.71-16.85,8.639-18.349c17.42-1.499,43.266,5.997,75.964,18.349c32.627,12.28,56.83,32.984,82.175,81.604
				c25.345,48.62,29.058,55.402,32.984,40.195c3.927-15.278,3.284,2.57,0,34.698c-3.284,32.199,10.78,84.531-7.64,143.859
				c-18.49,59.329-21.489,72.252-5.568,68.896c15.921-3.284-15.921,11.423-25.202,30.628s-16.207,46.764-64.469,60.614
				c-48.335,13.779-46.55,13.493-38.125,22.774c8.424,9.281-5.069-4.498-32.699-7.211c-27.629-2.713-59.543-8.139-74.321-28.486
				c-14.779-20.348-4.569-23.488-35.483-66.896C2271.243-337.372,2269.601-374.427,2269.886-400.628z"/>
			<path fill="#5396DC" d="M2285.093-388.563c2.427,1.643,4.926,3.142,7.567,4.569c4.07,33.342,18.563,68.324,43.765,89.029
				c17.42,14.278,43.265,36.91,15.207,33.412c-14.779-1.928,15.992,15.35,44.335,22.489c28.344,7.14,76.464,2.999,101.523-23.632
				c25.06-26.63,34.056-79.533,29.558-131.651c-2.213-25.273,0.714-39.48,4.427-44.764c1.499-0.144,2.713,0.928,2.784,5.068
				c0.143,9.995-1,25.988,4.141,22.347c5.212-3.569,7.925-16.206,7.925-16.206l0,0c3.284-10.924,6.568-35.056,4.926-68.396
				c-2.855-60.043-28.914-87.03-43.479-100.81c-10.424-9.924-29.558-16.635-34.555-22.988c1.642-1.999,4.141-3.213,8.066-2.143
				c10.639,2.928,30.771,19.634,33.627,19.777c2.856,0.143-3.783-11.353-3.783-11.353l0,0c-0.571-0.999-1.356-2.499-2.57-4.354
				c-13.779-22.418-70.252-82.176-127.797-46.978c-42.693,26.13-61.328,72.894-68.11,114.159c-0.143-0.071-0.286-0.071-0.5-0.143
				c-3.998-0.785-8.067-0.428-11.923,0.856c9.21-31.984,16.492-65.469,49.905-99.952c0,0,14.351-14.493,30.914-21.633
				c16.492-7.067,27.915-27.059,59.4-10.494c31.485,16.563,59.4,34.197,80.676,71.108c21.347,36.911,38.41,61.186,39.053,94.17
				c0.571,32.983,5.568,79.033-8.71,116.729c-14.351,37.696-9.924,70.538-25.56,105.021c-15.563,34.483-31.343,56.688-79.248,63.256
				s-96.24-0.215-113.945-31.771c-17.706-31.485-35.84-52.689-43.694-90.028C2286.592-365.431,2285.521-377.282,2285.093-388.563z
				 M2281.666-500.081c1.785,11.78,5.426,22.989,8.853,30.629c0.357,0.643,0.643,1.356,0.928,1.999
				c-4.355-4.355-9.139-8.567-14.422-10.995C2277.454-484.517,2278.81-491.585,2281.666-500.081z"/>
			<path fill="#0A35A4" d="M2413.888-605.316c6.283,7.925,12.494,15.493,17.921,24.203c7.567,12.279,13.065,25.273,15.492,39.481
				c1.285,7.21,1.714,14.636,1.856,21.918c0.215,9.066-0.071,18.134-0.215,27.272c0,1.642-0.07,6.282,0.144,9.924
				c3.212-2.642,7.14-4.641,11.138-2.927c12.279,5.211,0.428,34.34-2.643,41.979c-3.783,9.21-6.354,18.634-8.424,28.344
				c-2.642,12.28-4.569,24.702-7.14,36.982c-2.999,14.207-6.925,27.772-12.708,41.123c-7.639,17.777-18.491,31.271-32.77,44.122
				c-4.713,4.212-9.711,8.281-14.279,12.565c-2.57,2.427-5.926,5.783-7.14,9.067c-0.143,0.356-0.429,1.213-0.5,1.713
				c1.143,0.5,3.927,0.857,4.784,1c3.641,0.57,7.424,1.285,10.066,4.069c2.713,2.855,3.07,6.568,2.355,10.28
				c-0.285,1.285-0.785,2.499-1.57,3.642c-4.141,6.068-13.779,5.926-20.276,5.354c-9.138-0.785-18.705-2.855-27.629-4.926
				c-6.069-1.357-12.066-2.785-18.134-4.07c-4.641-0.999-9.567-2.07-14.351-2.498c-14.493-1.428-29.486-8.639-41.123-17.063
				c-16.421-11.852-29.272-27.987-37.768-46.335c-3.641-7.711-7.14-15.493-10.709-23.203c-1.356,2.355-3.427,4.212-6.283,4.926
				c-6.568,1.643-11.423-3.713-13.779-9.139c-3.57-8.567-3.07-20.133-1.928-29.129c1.856-14.064,1.928-28.129,1.499-42.266
				c-0.357-13.851-1.071-27.772-0.643-41.623c0.286-7.996,1-15.921,2.356-23.774c1.357-7.854,2.856-15.706,4.427-23.488
				c1.999-10.495,4.212-21.204,5.498-31.843c0.357-2.427,1.356-11.279,0.571-15.063c-0.214,0.143-0.428,0.285-0.571,0.428
				c-4.641,3.356-13.708,8.925-18.92,3.57c-4.141-4.213-1.285-10.78,1.285-14.993c4.069-6.64,10.495-12.851,16.35-17.849
				c10.638-9.067,16.563-19.348,23.417-31.128c8.567-14.636,16.278-25.773,30.557-35.412c6.997-4.712,14.279-8.924,21.847-12.637
				c1.285-0.643,2.642-1.285,3.998-1.928c-3.641-1.57-7.211-4.283-6.997-8.639c0.286-6.854,9.281-9.495,14.85-10.209
				c7.497-0.928,15.85,0.428,22.132,4.854c4.069,2.784,8.424,4.569,13.137,5.854c5.426,1.428,10.995,2.142,16.492,3.07
				c6.354,1.07,12.565,2.355,18.563,4.783c17.849,7.068,35.626,18.776,44.622,36.197c2.07,3.998,4.569,9.066,5.354,13.564
				c0.643,3.498,0.071,7.211-3.142,9.281C2414.603-605.673,2414.246-605.459,2413.888-605.316z M2366.412-622.022
				c0-0.071-0.072-0.071-0.143-0.071c-5.498-2.928-11.423-5.427-17.277-7.497c-2.142-0.714-4.212-1.356-6.354-1.999
				c-13.779-3.783-31.057-2.713-44.55,1.785c-9.353,3.07-18.134,8.139-24.631,15.636c-9.781,11.423-15.064,28.271-17.849,42.766
				c-3.641,19.205-4.141,39.623-2.642,59.043c0.786,9.566,1.143,20.99-0.856,30.414c-1.071,4.997-3.713,12.994-10.209,12.494
				c-2.356-0.143-4.07-1.356-5.283-2.999c-0.071,0.714-0.214,1.499-0.286,2.214c-1.5,13.064-1.571,26.559-1,39.623
				c0.785,17.921,4.141,36.126,12.137,52.262c4.854,9.78,10.709,17.491,18.206,25.273c2.213,2.284,4.998,4.283,7.639,5.997
				c3.927,2.642,8.139,4.926,12.065,7.567c3.57,2.428,7.854,5.712,7.854,10.495c0,3.213-1.928,5.712-4.426,7.497
				c-0.786,0.57-1.642,1.07-2.642,1.428c-3.284,1.07-6.711,0.5-9.996-0.857c1.071,1.143,2.071,2.285,3.07,3.355
				c6.568,7.068,14.208,13.637,22.632,18.42c16.635,9.639,33.913,10.995,50.476-0.143c37.197-24.917,49.976-76.749,49.976-119.086
				c0-13.494-3.642-24.988-9.138-37.196c-2-4.355-4.213-8.782-5.926-13.351c-1.429-3.928-2.5-8.425-0.857-12.494
				c1-2.499,2.784-4.427,5.068-5.783c2-1.285,4.284-1.856,6.568-1.571c5.283,0.786,8.782,5.712,11.424,9.925
				c0.5,0.713,1.428,2.427,2.428,3.998c1.285-5.069,2.427-13.494,2.713-15.85c2.07-16.136,0.356-33.771-3.784-49.477
				c-4.641-17.35-13.137-35.555-26.63-47.691c-2.356-2.214-4.783-4.355-7.068-6.568c-3.641-3.499-7.497-7.354-10.495-11.353
				c-2.642-3.569-5.64-8.495-3.427-12.993C2363.984-620.31,2365.055-621.38,2366.412-622.022z"/>
			<path fill="#FFFFFF" d="M2449.8-476.521c-10.495,11.494-2.07-34.555-7.211-64.255s-23.203-49.834-34.055-63.612
				c-10.853-13.779,15.563,7.781,0-22.133c-9.425-18.063-28.486-28.558-42.123-33.912c-17.492-6.926-34.341-3.927-49.191-14.279
				c-14.422-9.995-40.195,0-24.631,5.997c15.636,5.926,2.713,3.427-25.773,22.632s-29.129,45.265-53.546,66.184
				c-24.488,20.847-22.061,34.34-4.641,21.703c17.349-12.565,3.57,39.624-2.427,74.679c-5.997,35.127,1.785,69.61-3.142,107.521
				c-4.998,37.91,14.279,38.625,14.279,25.202c-0.071-13.422-0.643-11.209,17.992,28.701c18.563,39.909,53.046,58.472,74.964,60.613
				c21.918,2.071,73.821,20.705,76.82,6.283s-21.918-2.999-16.492-17.706c5.354-14.707,37.126-26.131,54.26-65.969
				c17.206-39.838,14.422-72.608,28.201-106.378C2466.935-479.091,2460.224-488.015,2449.8-476.521z M2419.386-490.085
				c-6.568,51.475-12.423-1.214-25.346,6.925c-12.993,8.067,13.066,27.844,13.066,64.755s-10.067,94.955-52.119,123.084
				c-41.98,28.13-83.246-19.633-93.313-37.554c-10.067-17.92,14.421,14.708,24.345,7.497c9.853-7.211-13.136-13.352-23.774-24.346
				c-10.638-11.066-29.628-32.699-31.771-80.676c-2.07-47.978,7.211-71.966,7.854-53.975c0.571,17.991,13.208,14.064,9.853-27.63
				c-3.284-41.694,3.355-83.96,21.632-105.307c18.277-21.275,53.403-24.56,74.108-18.849c20.704,5.641,43.193,19.491,32.413,17.992
				c-20.562-2.856-1.643,15.207,11.066,26.701C2413.103-568.405,2423.599-522.998,2419.386-490.085z"/>
			<path fill="#C3DBF3" d="M2436.306-511.218c1.5-57.188-28.629-85.531-35.125-97.097c-6.426-11.495,7.781-8.354-8.854-28.059
				c-16.635-19.634-52.761-21.133-67.468-27.558c-14.708-6.426-14.85,5.996-28.843,8.71c-13.922,2.713-45.122,23.417-51.119,40.909
				c-4.784,14.064-19.205,33.27-24.774,40.409c-6.64,8.567,2.927,4.426,3.784,13.351c0.571,6.426-0.928,19.919-7.496,56.83
				c-6.64,36.911-6.925,73.18-3.641,91.456c3.355,18.349,1.856,37.196,8.424,42.623c6.568,5.426,13.494,29.985,35.34,65.683
				s75.821,42.908,93.384,39.339c17.492-3.642,4.998-13.993,20.99-21.919c15.993-7.924,45.335-36.054,53.618-85.102
				c8.281-48.977,20.348-72.822,22.132-87.102C2448.444-473.022,2434.807-454.103,2436.306-511.218z M2419.386-490.085
				c-6.568,51.475-12.423-1.214-25.346,6.925c-12.993,8.067,13.066,27.844,13.066,64.755s-10.067,94.955-52.119,123.084
				c-41.98,28.13-83.246-19.633-93.313-37.554c-10.067-17.92,14.421,14.708,24.345,7.497c9.853-7.211-13.136-13.352-23.774-24.346
				c-10.638-11.066-29.628-32.699-31.771-80.676c-2.07-47.978,7.211-71.966,7.854-53.975c0.571,17.991,13.208,14.064,9.853-27.63
				c-3.284-41.694,3.355-83.96,21.632-105.307c18.277-21.275,53.403-24.56,74.108-18.849c20.704,5.641,43.193,19.491,32.413,17.992
				c-20.562-2.856-1.643,15.207,11.066,26.701C2413.103-568.405,2423.599-522.998,2419.386-490.085z"/>
			<path fill="#5396DC" d="M2253.965-607.03c-5.569,13.494-12.422,34.77-14.493,61.186c-3.712,46.479-12.351,46.621-15.064,66.611
				c-2.642,19.99-4.855,82.104,11.352,105.307c16.278,23.132,10.638,38.981,25.917,58.187c15.35,19.205,44.265,39.91,70.752,35.055
				c26.487-4.783,32.984-17.706,48.62-29.7c15.563-11.994,28.772-38.981,30.557-71.68c1.856-32.699,18.349-58.4,14.422-77.178
				c-3.927-18.848,6.497-49.405-6.782-90.528c-13.279-41.052-30.7-49.048-32.842-59.257c-2.07-10.21-8.781-29.844-37.911-34.912
				c-29.129-5.141-32.342-7.854-49.762,2.642C2271.742-625.021,2265.531-634.945,2253.965-607.03z M2419.386-490.085
				c-1,7.496-1.928,12.708-2.855,16.349l0,0c0,0-1.785,10.78-6.212,12.494s-8.425-2.998-13.636-13.208
				c-1.714-3.355-3.998-3.713-6.283-2.713c-0.285,10.353,16.707,28.986,16.707,58.758c0,36.911-10.067,94.955-52.119,123.084
				c-41.98,28.13-83.246-19.633-93.313-37.554c-9.281-16.563,10.923,10.067,21.847,8.496c0-2.427-2.285-6.711-12.423-13.493
				c-6.068-4.069-10.495-10.495-13.708-17.135c-10.709-12.28-25.06-34.056-26.916-75.393c-2.07-47.978,7.211-71.966,7.854-53.975
				c0,0.928,0.071,1.785,0.143,2.57c1.428,1.285,3.142,1.714,4.855-0.785c3.355-4.855,0.5-27.487,4.069-51.119
				c0.143-34.055,7.282-65.968,22.418-83.603c18.277-21.275,53.403-24.56,74.108-18.849c15.564,4.284,32.198,13.137,34.841,16.636
				l0,0c0,0,1.57,1.57,0.785,3.427c-0.715,1.57-10.21-0.143-10.709,5.068c3.499,5.712,11.922,13.565,18.563,19.563
				C2413.103-568.405,2423.599-522.998,2419.386-490.085z"/>
			<path fill="#0A35A4" d="M2349.991-194.155c14.422,5.069,29.558,9.21,44.55,12.28c10.21,2.07,34.127,8.353,34.27,21.989
				c0,7.354-6.926,11.994-12.851,14.636c-9.282,4.284-23.917,0.286-33.056-2.784c-14.422-4.854-28.915-12.279-41.909-20.205
				c-15.778-9.638-35.055-23.702-45.835-38.838c-1.785-2.499-3.712-5.354-4.998-8.14c-1.285-2.784-1.928-6.068,0.5-8.567
				c2.499-2.427,5.854-1.855,8.71-0.714c2.499,1,5.069,2.499,7.354,3.855c6.497,3.855,12.78,8.14,19.063,12.28
				c4.569,3.069,9.209,6.068,13.922,8.924C2342.78-197.582,2346.635-195.298,2349.991-194.155z"/>
			<path fill="#C3DBF3" d="M2348.349-189.586c8.424,2.928,25.417,8.425,45.264,12.423c28.129,5.712,40.695,18.277,20.348,27.559
				c-20.348,9.353-92.742-29.058-114.945-60.258C2276.883-241.062,2331.214-195.512,2348.349-189.586z"/>
			<path fill="#FFFFFF" d="M2348.349-189.586c8.424,2.928,25.417,8.425,45.264,12.423c26.131,5.283,38.838,16.563,24.131,25.56
				c0-6.141-4.997-15.207-31.413-20.063c-42.408-7.782-69.467-29.914-81.104-40.338c-7.068-6.211-8.353-3.855-8.282-0.928
				C2280.738-237.777,2331.856-195.298,2348.349-189.586z"/>
			<path fill="#0A35A4" d="M2464.436-722.261c-7.854-2.142-17.42-5.068-24.346-9.424c-4.283-2.642-8.853-6.926-7.853-12.565
				c1.855-10.566,20.633-12.065,28.914-11.638c10.209,0.571,21.775,4.069,31.199,7.925c12.494,5.069,24.703,12.066,34.912,20.919
				c9.067,7.854,16.778,17.277,21.562,28.344c2.57,5.926,5.497,13.065,6.64,19.419c0.714,4.142,0.785,9.639-3.784,11.709
				c-5.568,2.499-11.138-3.642-13.993-7.711C2520.91-699.557,2492.351-714.692,2464.436-722.261z"/>
			<path fill="#C3DBF3" d="M2465.721-726.901c-48.048-13.065-26.272-25.416-4.783-24.202c21.418,1.213,68.182,19.205,83.531,54.331
				c12.994,29.843,3.855,28.415-2.855,18.776C2524.194-703.127,2494.921-718.977,2465.721-726.901z"/>
			<path fill="#FFFFFF" d="M2438.164-739.467c-5.713-7.354,8.639-12.423,22.774-11.637c21.418,1.213,68.182,19.205,83.531,54.331
				c7.996,18.348,7.64,24.916,4.569,24.916c-15.064-41.908-47.263-59.114-74.893-67.896
				C2446.587-748.605,2439.662-742.108,2438.164-739.467z"/>
			<path fill="#5396DC" d="M2313.365-205.078c8.782,8.924,26.63,24.845,50.833,34.769c26.13,10.709,40.837,9.496,45.622,6.64
				c-4.784-2.998-12.138-5.854-23.489-7.996C2351.847-177.948,2327.573-193.798,2313.365-205.078z"/>
			<path fill="#5396DC" d="M2452.442-744.179c0.571,2.428,3.142,6.283,13.279,8.567c11.709,2.57,41.766,12.779,59.686,25.56
				c-15.421-15.636-34.198-24.274-51.261-29.7C2464.722-742.822,2457.654-744.036,2452.442-744.179z"/>
		</g>
		<g>
			<path d="M3569.91-714.55c30.128,8.853,37.481,44.193,57.972,43.479c20.49-0.643,42.552,26.63,55.76,43.336
				c13.208,16.778,30.485,43.051,24.131,46.264c-6.282,3.213-15.992,15.136-21.989,23.274c-5.926,8.068-56.33,14.851-97.882,32.842
				c-41.48,17.991-17.991,41.98-34.912,68.61c-16.92,26.63-44.621,42.908-57.544,82.461
				c-9.566,29.557-27.701,131.151-46.192,200.333c-5.141,19.063-3.998,75.82,8.925,124.227c6.711,24.916,6.996,21.918-2.499,35.84
				c-6.926,10.138-23.988,29.985-34.698,59.686c-8.567,23.632-17.491,53.332-25.845,88.815
				c-18.919,80.033-19.633,155.854-46.121,203.046c-26.486,47.12-53.474,152.142-70.966,155.141
				c-17.563,2.998,32.771-156.783,60.971-290.076c15.85-74.822,21.99-134.365,17.992-178.558
				c-3.142-34.556-9.21-59.972-13.352-76.464c-5.14-20.348-4.926-20.562,8.854-37.482c15.778-19.348,47.263-71.751,53.26-92.741
				c22.204-77.249,49.405-203.403,44.408-244.813c-4.998-41.408-23.703-51.689-12.565-104.021
				c11.065-52.332-12.637-93.241,1.213-89.528c13.851,3.641,34.198,9.281,42.266,46.691c8.14,37.482,27.701,44.051,33.056,6.783
				c5.283-37.34,57.473-12.352,29.272-53.618c-28.272-41.337-57.759-41.337-84.96-66.61c-27.201-25.346-55.259-54.617-46.478-55.688
				C3453.608-748.319,3529.857-726.33,3569.91-714.55z"/>
			<path fill="#4D4D4D" d="M3569.91-714.55c30.128,8.853,37.481,44.193,57.972,43.479c20.49-0.643,42.552,26.63,55.76,43.336
				c11.994,15.136,27.201,38.125,25.345,44.765c-6.354-6.64-20.562-32.484-32.77-46.549c-16.064-18.492-34.27-35.912-46.121-36.269
				c-11.923-0.357-13.851-4.712-30.343-20.776c-5.854-5.64-14.422-14.35-18.563-17.277c-7.711-5.568-26.416-11.066-40.98-13.851
				c-8.354-1.642-10.139,1.643-16.35-1.714c-19.99-10.852-54.474-14.85-72.466-19.99c-13.493-3.783-32.27-3.569-40.766-3.213
				c0.285-0.356,0.714-0.643,1.356-0.714C3453.608-748.319,3529.857-726.33,3569.91-714.55z"/>
			<path fill="#4D4D4D" d="M3405.059,95.992c-3.355,11.994-6.711,24.846-9.924,38.625c-18.919,80.033-19.633,155.854-46.121,203.046
				c-24.488,43.551-49.404,136.578-66.896,152.784c4.712-7.782,10.995-20.633,16.85-40.48
				c11.423-38.696,30.914-86.388,39.909-111.447c8.996-25.06,18.777-39.409,29.771-100.381
				C3379.572,177.168,3405.059,95.992,3405.059,95.992L3405.059,95.992z M3547.92-449.462
				c-16.992,22.632-40.838,39.41-52.476,75.179c-2.855,8.781-6.426,23.917-10.566,42.693c0,0-32.271,154.641-32.556,180.271
				c-0.286,25.702,0,56.901,3.284,77.606c3.355,20.704,4.997,32.77,4.997,32.77s-18.276-40.767-18.276-93.67
				c0-24.916,8.353-74.964,20.49-123.869l0,0c0,0,21.489-100.595,29.129-130.581c7.567-29.985,35.555-46.478,46.691-62.97
				c8.496-12.637,11.852-31.128,12.994-39.124c1.428-24.346,31.485-33.913,50.904-39.981l0,0c-4.926,1.785-9.853,3.713-14.636,5.783
				c-41.48,17.991-17.991,41.98-34.912,68.61c-1.356,2.07-2.713,4.141-4.212,6.068
				C3548.491-450.247,3548.206-449.819,3547.92-449.462z M3436.687-621.095c0.643-0.071,1.285,0,2.142,0.215
				c13.851,3.641,34.198,9.281,42.266,46.691c8.14,37.482,27.701,44.051,33.056,6.783c3.927-27.559,33.342-21.133,37.197-32.485
				c-0.071,7.426-6.64,12.923-15.921,18.135c-12.494,6.996-16.492,11.78-17.492,24.631c-1.356,17.706-10.994,21.204-18.563,22.061
				c-9.924,1.071-14.351-9.566-22.703-22.417c-5.498-8.568-13.708-13.922-13.494-22.49c0.357-11.137-5.64-26.344-20.062-35.055
				C3439.615-617.097,3437.687-619.167,3436.687-621.095z"/>
			<path fill="#82B3E6" d="M3513.293-673.855c5.354,0.286,15.564-1.713,22.561,1.999c8.425,4.427,56.259,23.418,61.399,31.699
				c5.069,8.282,31.057,37.126,42.908,47.764s11.994,12.422,1.57,10.352c-10.352-1.999-34.126-6.711-51.832-10.78
				s-22.989-4.926-27.986-14.422c-10.21-19.276-12.423-29.7-29.486-44.407c-7.211-6.14-15.707-13.422-20.775-16.777
				C3506.94-671.499,3504.297-674.354,3513.293-673.855z M3530.214-686.849c0.643-2.356-2.499-14.422-5.212-21.775
				c-1.571-4.355-1.856-4.927-6.141-6.64c-11.209-4.284-40.766-9.995-55.188-11.709c-16.777-2.07-25.488-5.497-18.563,1.999
				c6.925,7.496,31.842,26.416,40.98,32.413c9.067,5.997,18.776,9.495,25.56,9.353
				C3517.649-683.351,3529.214-683.137,3530.214-686.849z M3535.426-704.341c2.142,8.711,4.212,23.132,8.566,26.773
				c4.355,3.569,53.547,24.702,76.535,34.912c22.918,10.209,36.269,20.062,50.405,32.198c14.136,12.138,19.562,13.565,14.992,6.926
				c-4.641-6.711-35.411-47.835-46.335-53.688c-10.923-5.926-21.918-3.355-35.269-14.637
				c-13.351-11.352-28.486-31.413-35.412-33.912c-5.068-1.785-17.277-3.498-23.417-4.283
				C3540.637-710.694,3533.356-712.908,3535.426-704.341z M3612.747-632.518c6.068,6.282,32.627,32.342,40.266,38.768
				c7.568,6.425,16.707,12.708,21.562,13.279s18.705-1.571,16.778-4.855c-1.856-3.284-31.914-24.702-46.192-36.625
				c-11.138-9.353-28.701-16.206-35.769-18.705C3601.251-643.584,3610.604-634.73,3612.747-632.518z"/>
			<path fill="#136ECF" d="M3642.518-581.827c-0.215-0.072-0.5-0.143-0.786-0.215c-10.352-1.999-34.126-6.711-51.832-10.78
				s-22.989-4.926-27.986-14.422c-10.21-19.276-12.423-29.7-29.486-44.407c-7.211-6.14-15.707-13.422-20.775-16.777
				c-1.571-1.071-2.928-2.07-3.642-2.928c2.499,1.714,6.068,3.855,11.28,6.212c15.207,6.996,23.989,9.495,30.271,19.99
				s17.206,33.698,22.774,37.91C3576.478-604.103,3620.171-589.324,3642.518-581.827z M3445.754-724.26
				c2.927,2.285,7.496,5.212,14.707,8.496c17.349,7.925,46.621,26.916,54.331,28.629c4.998,1.143,11.138,1.285,14.779,1.285
				c-2.642,2.642-12.494,2.499-17.92,2.642c-6.783,0.143-16.492-3.355-25.56-9.353
				C3477.239-698.344,3453.537-716.335,3445.754-724.26z M3535.925-702.056c3.499,6.354,9.353,16.206,13.922,19.419
				c6.926,4.998,46.764,25.345,58.473,29.271s28.058,11.566,37.981,19.991c6.068,5.141,18.706,16.991,27.487,25.345
				c-0.929-0.785-1.856-1.57-2.855-2.428c-14.137-12.137-27.487-21.989-50.405-32.198c-22.988-10.21-72.18-31.343-76.535-34.912
				C3539.995-680.923,3537.924-693.274,3535.925-702.056z M3616.102-629.162c7.925,6.497,18.634,15.35,27.344,22.989
				c16.063,14.064,27.701,22.203,31.628,22.703c2.713,0.357,10.638,0.143,16.206-0.571c-1.713,2.57-12.494,4.069-16.706,3.57
				c-4.854-0.571-13.993-6.854-21.562-13.279C3646.301-599.391,3625.383-619.81,3616.102-629.162z"/>
			<path fill="#FFFFFF" d="M3443.898-729.543c0.071,0.643,0.856,1.356,2.57,2.285c8.425,4.354,61.827,14.278,66.183,16.063
				s2.213,8.496,1.143,14.564c-1.143,6.068,0.356,7.782,5.997,8.639c3.855,0.571,8.353,1.356,10.495,0.643
				c0.214-3.213-2.713-14.279-5.283-21.275c-1.571-4.355-1.856-4.927-6.141-6.64c-11.209-4.284-40.766-9.995-55.188-11.709
				C3453.75-728.187,3446.611-729.899,3443.898-729.543z M3513.293-673.855c5.354,0.286,15.564-1.713,22.561,1.999
				c8.425,4.427,56.259,23.418,61.399,31.699c5.069,8.282,31.057,37.126,42.908,47.764c4.783,4.283,7.64,7.139,8.71,8.853
				c-0.856,0.214-2.142-0.143-3.712-0.928c-4.069-1.928-42.623-24.488-48.263-27.772c-5.712-3.284-5.141-16.064-5.854-21.633
				c-0.786-5.568-34.983-21.133-44.407-27.13c-9.496-6.068-17.278-7.64-31.343-10.066c-4.354-0.714-6.282-1.643-6.854-2.57
				C3509.367-673.927,3510.938-673.998,3513.293-673.855z M3607.535-641.156c0.928,1.57,2.927,3.712,7.282,6.354
				c9.853,5.997,18.99,9.995,35.055,23.488c16.063,13.565,26.059,24.773,33.77,25.345c3.427,0.286,5.854,0.286,7.211,0
				c-4.355-4.783-32.128-24.631-45.692-35.982c-11.138-9.353-28.701-16.206-35.769-18.705
				C3608.605-640.942,3608.034-641.085,3607.535-641.156z M3535.069-707.481c1.57,1.213,3.784,2.427,6.926,3.283
				c8.924,2.356,15.992,4.427,28.058,14.279c11.994,9.924,29.7,27.63,42.551,30.2c12.923,2.499,19.991,2.355,24.632,8.71
				c4.069,5.568,42.979,48.12,49.976,49.69c-0.285-0.643-0.714-1.356-1.285-2.213c-4.641-6.711-35.411-47.835-46.335-53.688
				c-10.923-5.926-21.918-3.355-35.269-14.637c-13.351-11.352-28.486-31.413-35.412-33.912c-5.068-1.785-17.277-3.498-23.417-4.283
				C3541.352-710.623,3535.426-712.266,3535.069-707.481z"/>
			<path fill="#82B3E6" d="M3381,43.518c0.928-9.567,2.999-21.633,6.426-30.271c6.568-16.777,17.634-51.761,19.348-56.544
				c1.642-4.784,1.785,7.71,6.997,29.557c5.283,21.775,7.996,24.274,2.142,38.41c-5.854,14.065-23.846,44.907-31.2,63.256
				C3377.929,104.702,3380.5,48.872,3381,43.518z M3396.707-128.687c0,0-27.13,41.409-36.911,54.902
				c-9.781,13.494,0,23.132,4.498,57.045c4.498,33.912,8.71,41.052,22.203,0c13.494-41.123,26.987-112.232,27.273-125.44
				C3414.055-155.316,3396.707-128.687,3396.707-128.687z M3423.622-137.183c-1.07,8.211-3.569,25.917-6.211,42.694
				c-3.641,22.847,0,42.908,3.427,60.899c3.427,18.063,8.067,31.199,14.137,22.561c5.997-8.71,17.134-19.063,12.279-32.698
				c-4.926-13.708-15.064-51.333-15.064-74.75C3432.189-129.043,3428.691-173.665,3423.622-137.183z"/>
			<path fill="#136ECF" d="M3381,43.518c0.5-5.069,1.356-10.924,2.499-16.563c0.5,9.995,1.713,25.202,2.713,29.914
				c1.07,5.283,16.277-13.065,27.272-26.916c-7.354,15.564-22.204,41.694-28.772,57.973C3377.929,104.702,3380.5,48.872,3381,43.518
				z M3355.583-62.004c1.285,5.354,14.637,9.281,15.564,16.063c0.856,6.783,5.426,37.482,7.496,36.412
				c1.999-1.143,9.853-17.706,13.565-26.416c-1.856,6.854-3.784,13.279-5.712,19.205c-13.493,41.052-17.705,33.912-22.203,0
				C3361.152-40.585,3355.369-52.365,3355.583-62.004z M3415.912-73.712c1.428,4.283,5.212,24.345,6.782,30.913
				c2.07,8.354,9.853,12.138,12.994,13.922c4.498,2.57,6.64,2.356,12.065-3.069c-2.07,8.139-8.71,14.921-12.779,20.918
				c-6.069,8.639-10.71-4.498-14.137-22.561C3418.482-45.868,3416.054-59.22,3415.912-73.712z"/>
			<path fill="#FFFFFF" d="M3386.925,14.389c0.143-0.357,0.285-0.785,0.5-1.143c6.568-16.777,17.634-51.761,19.348-56.544
				c1.642-4.784,1.785,7.71,6.997,29.557c3.569,14.564,5.926,20.562,5.354,27.13c-1.429,2.142-3.642,2.214-6.354-3.213
				c-5.568-11.208-9.639-17.349-15.778-9.353C3394.279,4.251,3390.423,9.534,3386.925,14.389z M3393.922-42.085
				c10.638-40.052,19.633-89.314,19.848-100.095c0.285-13.137-17.063,13.493-17.063,13.493s-27.13,41.409-36.911,54.902
				c-1.999,2.785-3.142,5.355-3.784,7.996c0,0,3.855-6.068,10.78-12.851c6.854-6.782,22.775-25.916,25.702-30.2
				c6.283-9.066,3.855,2.999,0.929,15.778C3390.423-79.995,3394.421-56.078,3393.922-42.085z M3416.625-88.491
				c2.213-5.64,3.427-8.853,5.711-13.922c2.285-5.069,1.571,39.838,6.283,46.192c4.783,6.426,17.635,17.777,19.776,17.635
				c-0.143-1.643-0.5-3.427-1.143-5.141c-4.926-13.708-15.064-51.333-15.064-74.75c0-10.566-3.498-55.188-8.567-18.706
				c-1.07,8.211-3.569,25.917-6.211,42.694C3417.053-92.418,3416.839-90.49,3416.625-88.491z"/>
		</g>
		<path d="M3388.639-256.982l-7.14-3.355c-28.701-13.351-35.769-61.971-16.85-85.673c9.639-12.066,25.916-18.277,39.91-11.066
			c6.711-6.283,15.778-10.066,24.631-12.138c10.852-2.427,25.487-3.069,35.697,1.999c9.924,4.998,22.774,16.064,30.843,23.703
			c9.495,8.925,22.488,22.489,25.131,35.555c3.854,18.92-0.144,36.911-3.713,55.474c-6.854,35.412-23.632,65.397-63.756,68.182
			c-15.921,1.071-33.555-0.429-48.119-7.567c-11.566-5.641-22.418-15.992-22.418-29.771c0-9.71,5.068-19.349,11.779-26.559
			C3392.208-250.843,3390.138-253.77,3388.639-256.982z"/>
		<path fill="#9AC2EB" d="M3398.063-341.514c0,0-10.281-6.568-20.276,5.926c-12.494,15.636-7.425,51.547,10.78,60.043
			c-3.284-11.923,3.855-25.631,11.138-29.843C3399.705-305.388,3388.21-320.952,3398.063-341.514z M3413.841-316.525
			c0,0-8.068-9.424-1.571-23.203c6.426-13.779,35.412-17.349,45.121-12.423c9.71,4.855,44.051,32.913,47.05,47.549
			c2.927,14.564,0.214,27.844-3.784,48.905c-4.069,21.133-12.994,52.189-48.405,54.617c-35.412,2.427-52.547-11.209-52.547-20.562
			c0-9.354,10.138-17.849,10.138-17.849s16.85,1.784,27.773,1.499c10.994-0.285,22.061-6.64,22.061-6.64
			s-47.049-0.214-55.974-19.705c-8.924-19.49,1.499-35.982,14.779-38.481c13.208-2.57,47.977,8.853,47.977,8.853
			S3459.391-317.453,3413.841-316.525z"/>
		<path fill="#FFFFFF" d="M3423.908-349.866c13.708,1.356,26.202,4.926,35.769,11.994c32.698,24.346,42.194,41.623,44.907,59.971
			c1.356-9.709,1.642-17.991-0.143-26.701c-2.999-14.636-37.34-42.693-47.05-47.549
			C3450.752-355.507,3435.188-354.936,3423.908-349.866z"/>
		<path fill="#5396DC" d="M3371.147-317.025c-1.57,16.35,4.783,35.555,17.42,41.48c-3.284-11.923,3.855-25.631,11.138-29.843
			c0,0-0.499-0.643-1.214-1.856c-2.284-3.355-7.925-10.066-16.92-10.78C3376.788-318.453,3373.432-317.953,3371.147-317.025z
			 M3411.627-320.31c1.285-2.713,5.354-5.354,14.564-7.139c23.489-4.498,37.269,26.13,39.839,32.413
			c-2.143-4.641-12.638-22.275-52.189-21.49C3413.841-316.525,3412.699-317.882,3411.627-320.31z M3495.945-237.42
			c-5.997,17.349-17.706,34.555-43.693,36.34c-35.412,2.427-52.547-11.209-52.547-20.562c0-9.354,10.138-17.849,10.138-17.849
			s16.85,1.784,27.773,1.499c10.994-0.285,22.061-6.64,22.061-6.64s-35.055-0.143-50.404-12.78
			C3426.407-277.758,3478.81-246.987,3495.945-237.42z"/>
	</g>
</g>
</svg>
