<?xml version="1.0" encoding="utf-8"?>
<!-- Generator: Adobe Illustrator 16.0.0, SVG Export Plug-In . SVG Version: 6.00 Build 0)  -->
<!DOCTYPE svg PUBLIC "-//W3C//DTD SVG 1.1//EN" "http://www.w3.org/Graphics/SVG/1.1/DTD/svg11.dtd">
<svg version="1.1" id="Layer_1" xmlns="http://www.w3.org/2000/svg" xmlns:xlink="http://www.w3.org/1999/xlink" x="0px" y="0px"
	 width="2200px" height="2500px" viewBox="4249.771 1332.532 2200 2500" enable-background="new 4249.771 1332.532 2200 2500"
	 xml:space="preserve">
<g id="Layer_x0020_1">
	<g id="_321027240">
		<path d="M5029.104,3300.018l-7.567,1.07c-16.064,2.355-35.627-2.643-40.695-20.205c-3.355-11.779,0.285-26.273,6.568-36.482
			c8.924-14.564,24.061-22.488,41.195-21.418l0.285-1c6.854-22.988,13.637-45.979,20.418-68.967c0.43-1.57,0.857-3.07,1.285-4.57
			c-47.619-15.35-93.598-37.91-133.65-68.109c-22.988-17.35-48.977-41.053-64.541-65.611c-9.138-14.564-17.634-35.055-8.639-51.404
			c12.28-22.348,25.988-44.621,39.482-66.111c37.053-59.186,77.105-116.801,119.442-172.348
			c45.835-60.256,76.321-129.438,88.243-204.26l0.715-4.854c-13.422-7.926-25.06-18.992-34.412-32.842
			c-18.849-27.701-23.775-61.186-11.852-92.742c5.854-15.277,15.492-29.271,27.915-39.908l0,0
			c-1.214-23.49,2.57-36.197,5.854-42.695l5.211-0.285c7.497-0.428,18.92-1.213,27.773-2.855c-1-1.285-1.928-2.498-2.855-3.855
			c-14.708-21.348-28.559-44.336-42.123-66.469l-10.281-16.635c14.351-6.782,25.346-9.638,25.346-9.638
			c-3.499-4.641-6.854-9.353-10.067-14.136c-9.924-14.851-16.635-28.13-24.132-44.051c11.709-6.068,19.063-9.424,28.986-18.848
			c40.767-38.481,30.414-69.324,27.487-119.443c-2.499-42.479,1.642-88.743,9.781-130.509c5.497-28.201,19.919-94.384,53.403-99.168
			c26.344-3.783,45.264,28.986,57.258,48.62c12.709,20.848,24.846,43.265,35.555,65.469c48.692-27.844,129.295-27.772,178.487,0.214
			c10.709-22.274,22.846-44.764,35.627-65.683c11.994-19.634,30.912-52.403,57.186-48.62c33.557,4.784,47.979,70.967,53.475,99.168
			c8.068,41.766,12.281,88.029,9.781,130.509c-2.928,50.119-13.279,80.962,27.416,119.443c9.924,9.424,17.35,12.779,29.057,18.848
			c-7.496,15.921-14.207,29.2-24.131,44.051c-3.213,4.783-6.568,9.495-10.066,14.136c0,0,10.994,2.855,25.346,9.638l-10.281,16.635
			c-13.564,22.133-27.486,45.121-42.193,66.469c-0.857,1.357-1.785,2.57-2.785,3.855c8.854,1.643,20.275,2.428,27.771,2.855
			l5.213,0.285c3.283,6.498,6.996,19.205,5.854,42.695l0,0c12.424,10.637,22.061,24.631,27.916,39.908
			c11.922,31.557,6.996,65.041-11.852,92.742c-9.354,13.85-20.99,24.916-34.412,32.842l0.713,4.854
			c11.852,74.822,42.41,144.004,88.244,204.26c42.266,55.547,82.391,113.162,119.443,172.348
			c13.494,21.49,27.201,43.693,39.48,66.111c8.996,16.277,0.5,36.84-8.709,51.404c-15.492,24.559-41.48,48.262-64.469,65.611
			c-40.053,30.199-86.031,52.76-133.652,68.109c0.43,1.5,0.857,3,1.285,4.57c6.783,22.988,13.566,45.979,20.42,68.967l0.285,1
			c17.135-1.07,32.199,6.854,41.195,21.418c6.283,10.209,9.924,24.703,6.568,36.482c-5.07,17.563-24.631,22.561-40.768,20.205
			l-7.496-1.07c-3.568,2.641-7.639,4.641-12.064,5.854c-7.568,2.213-17.207,2.855-25.131,2.285l-11.639-0.785
			c-1.213,0.428-2.498,0.855-3.855,1.143c-10.566,2.426-23.773,3.355-34.625,2.998c-15.207-0.5-33.127-3.855-42.695-16.992
			c-3.426-4.713-6.068-12.566-7.996-18.063c-3.283-9.354-6.211-18.848-9.139-28.273c-7.139-23.416-13.85-46.977-20.49-70.607
			l-1.285,0.213c-50.117,6.068-101.309,8.496-151.784,8.496c-50.406,0-101.596-2.428-151.715-8.496l-1.355-0.213
			c-6.568,23.631-13.279,47.191-20.42,70.607c-2.926,9.426-5.854,18.92-9.139,28.273c-1.928,5.496-4.568,13.35-7.995,18.063
			c-9.567,13.137-27.487,16.492-42.694,16.992c-10.852,0.357-24.06-0.572-34.697-2.998c-1.285-0.287-2.499-0.715-3.713-1.143
			l-11.78,0.785c-7.925,0.57-17.491-0.072-25.131-2.285C5036.743,3304.658,5032.673,3302.658,5029.104,3300.018z"/>
		<path fill="#072778" d="M4866.609,3005.729c18.776,29.629,79.319,91.314,189.481,126.867c3.927-15.42,7.282-31.057,10.424-46.477
			c-6.783-1.285-13.565-2.785-20.705-4.498c-40.48-9.781-88.387-26.131-120.799-53.189
			C4919.37,3023.648,4841.907,2966.604,4866.609,3005.729z M5832.865,3005.729c-18.707,29.629-79.248,91.314-189.41,126.867
			c-3.928-15.42-7.283-31.057-10.496-46.477c6.783-1.285,13.637-2.785,20.777-4.498c40.48-9.781,88.314-26.131,120.727-53.189
			C5780.176,3023.648,5857.639,2966.604,5832.865,3005.729z M5499.451,3161.084c-91.456,11.137-207.971,11.137-299.429,0
			c8.496-30.486,16.777-61.115,24.988-91.672l0.213-0.855c94.1,19.061,154.999,19.061,249.097,0l0.215,0.855
			C5482.674,3099.969,5491.027,3130.598,5499.451,3161.084z"/>
		<path fill="#136ECF" d="M5106.21,3031.574c30.842,4.496,78.463,12.494,140.076,26.129c67.967,14.994,139.006,14.994,206.974,0
			c61.541-13.635,109.234-21.633,140.076-26.129c-4.57-21.99-10.781-43.838-18.635-64.898
			c-6.211-16.564-13.992-32.912-21.346-49.049c-9.996-21.846-19.635-43.764-28.344-66.182
			c-20.205-51.904-34.627-104.736-44.551-158.996c-42.338,6.426-92.456,9.566-130.723,11.066
			c-38.197-1.5-88.317-4.641-130.653-11.066c-9.996,54.26-24.418,107.092-44.551,158.996c-8.711,22.418-18.348,44.336-28.344,66.182
			c-7.354,16.137-15.135,32.484-21.347,49.049C5116.99,2987.736,5110.778,3009.584,5106.21,3031.574z"/>
		<path fill="#0F59A7" d="M5106.21,3031.574c13.779,1.998,31.057,4.783,51.332,8.352c3.355-33.982,11.424-80.246,29.629-138.219
			c22.633-71.967,33.627-150.357,38.982-208.258c-2.357-0.357-4.785-0.643-7.068-1c-9.996,54.26-24.418,107.092-44.551,158.996
			c-8.711,22.418-18.348,44.336-28.344,66.182c-7.354,16.137-15.135,32.484-21.347,49.049
			C5116.99,2987.736,5110.778,3009.584,5106.21,3031.574z"/>
		<path fill="#0F59A7" d="M5541.932,3039.926c20.348-3.568,37.553-6.354,51.404-8.352c-4.57-21.99-10.781-43.838-18.635-64.898
			c-6.211-16.564-13.992-32.912-21.346-49.049c-9.996-21.846-19.635-43.764-28.344-66.182
			c-20.205-51.904-34.627-104.736-44.551-158.996c-2.355,0.357-4.713,0.643-7.068,1c5.355,57.9,16.35,136.291,38.982,208.258
			C5530.508,2959.68,5538.648,3005.943,5541.932,3039.926z"/>
		<path fill="#5396DC" d="M5222.298,2673.602c28.771,5.711,73.536,12.207,127.44,12.352c53.973-0.145,98.667-6.641,127.51-12.352
			c-1.5-8.996-2.855-17.992-4.07-27.059c-1.783-13.209-3.426-26.488-4.854-39.768c-34.555,4.855-79.463,8.211-118.586,10.424
			c-39.053-2.213-83.961-5.568-118.516-10.424c-1.428,13.279-3.07,26.559-4.855,39.768
			C5225.081,2655.609,5223.796,2664.605,5222.298,2673.602z"/>
		<path fill="#C3DBF3" d="M5468.324,2606.775c-34.555,4.855-79.463,8.211-118.586,10.424c-39.053-2.213-83.961-5.568-118.516-10.424
			C5281.341,2628.623,5396.644,2632.834,5468.324,2606.775z"/>
		<path fill="#136ECF" d="M5222.298,2673.602c1.785,0.355,3.568,0.713,5.496,1.07c3.213-41.053,3.428-67.896,3.428-67.896
			c-1.428,13.279-3.07,26.559-4.855,39.768C5225.081,2655.609,5223.796,2664.605,5222.298,2673.602z"/>
		<path fill="#136ECF" d="M5471.75,2674.672c1.928-0.357,3.713-0.715,5.498-1.07c-1.5-8.996-2.855-17.992-4.07-27.059
			c-1.783-13.209-3.426-26.488-4.854-39.768C5468.324,2606.775,5468.537,2633.619,5471.75,2674.672z"/>
		<path fill="#136ECF" d="M5232.935,2589.926c28.344,4.498,70.325,9.781,116.803,11.066c46.549-1.285,88.53-6.568,116.801-11.066
			c-2.57-26.844-4.426-53.83-5.498-80.818c-5.426-1.57-9.709-2.926-12.352-3.783c-32.485-11.066-62.256-30.699-87.672-53.475
			c-3.713-3.355-7.496-6.854-11.279-10.566c-3.713,3.713-7.568,7.211-11.209,10.566c-25.418,22.775-55.189,42.408-87.674,53.475
			c-2.641,0.857-6.924,2.213-12.352,3.783C5237.433,2536.096,5235.577,2563.082,5232.935,2589.926z"/>
		<path fill="#0F59A7" d="M5462.826,2544.02c-0.713-11.637-1.355-23.273-1.785-34.912c-5.426-1.57-9.709-2.926-12.352-3.783
			c-32.485-11.066-62.256-30.699-87.672-53.475c-3.713-3.355-7.496-6.854-11.279-10.566c-3.713,3.713-7.568,7.211-11.209,10.566
			c-25.418,22.775-55.189,42.408-87.674,53.475c-2.641,0.857-6.924,2.213-12.352,3.783c-0.498,12.137-1.141,24.346-1.928,36.482
			c58.331-4.641,67.684-46.049,119.801-46.049C5387.576,2499.541,5432.912,2539.021,5462.826,2544.02z"/>
		<path fill="#82B3E6" d="M5457.9,2365.176L5457.9,2365.176c-1.07-0.498-2.143-1.07-3.285-1.57v-0.07
			C5455.758,2364.105,5456.83,2364.678,5457.9,2365.176z"/>
		<path fill="#9AC2EB" d="M5462.041,1936.738c0,0,1.357-7.496-2.143-16.35c-3.426-8.853-8.352-11.708-8.352-11.708
			s23.559-50.119,48.762-87.316c25.131-37.196,39.553-26.986,54.545,11.424c14.994,38.41,26.988,116.373,23.418,177.559
			c-3.57,61.256-2.713,53.26-2.713,53.26s-5.355-4.926-14.992-11.066c-9.568-6.14-20.705-5.568-20.705-5.568
			s17.92,8.425,39.053,51.618s50.477,58.472,50.477,58.472s-14.922,31.557-44.123,62.755c-34.27,7.854-71.252,10.068-105.021,9.496
			c-2.07,21.205-4.711,42.266-7.354,63.328c-5.568,1.926-9.566,4.426-12.422,7.281c-9.566-15.564-25.488-27.486-44.336-20.275
			c-8.281-9.211-19.848-15.922-32.627-15.137c-9.281,0.572-18.563,5.641-26.916,13.137c-22.846-11.137-45.693-1.498-61.258,16.777
			c-6.354,8.711-10.994,15.064-14.777,25.488c-5.713,2.285-10.782,5.283-15.35,9.639c-6.426-3.428-13.637-6.854-20.777-10.352
			c0.5-3.07,1-3.713,0.43-6.711c2.998,1.07,17.348,6.496,19.633,7.709c-5.711-8.566-27.771-24.131-37.84-27.557
			c-2.641-21.063-5.283-42.123-7.354-63.328c-33.77,0.572-70.822-1.643-105.021-9.496c-29.2-31.198-44.193-62.755-44.193-62.755
			s29.415-15.278,50.548-58.472c21.061-43.193,39.053-51.618,39.053-51.618s-11.138-0.571-20.705,5.568
			c-9.639,6.141-14.992,11.066-14.992,11.066s0.856,7.996-2.713-53.26c-3.642-61.186,8.353-139.148,23.417-177.559
			c14.993-38.41,29.343-48.62,54.546-11.424c25.201,37.197,48.762,87.316,48.762,87.316s-4.926,2.855-8.424,11.708
			c-3.428,8.854-2.07,16.35-2.07,16.35C5278.486,1877.124,5418.205,1873.055,5462.041,1936.738z"/>
		<path fill="#FFFFFF" d="M5556.854,2062.75c6.354,7.782,13.992,19.276,22.061,35.84c21.133,43.193,50.477,58.472,50.477,58.472
			C5573.703,2151.636,5573.846,2092.521,5556.854,2062.75z M5070.084,2157.062c0,0,29.415-15.278,50.548-58.472
			c8.067-16.563,15.707-28.058,22.061-35.84C5125.7,2092.521,5125.843,2151.636,5070.084,2157.062z"/>
		<path fill="#FFFFFF" d="M5460.541,1921.96c-0.213-0.5-0.428-1.071-0.643-1.571c-3.426-8.853-8.352-11.708-8.352-11.708
			s23.559-50.119,48.762-87.316c25.131-37.196,39.553-26.986,54.545,11.424c3,7.639,5.855,16.92,8.568,27.272
			c-12.352-25.773-29.559-54.902-40.48-44.979c-18.563,16.992-62.043,107.306-62.043,107.306L5460.541,1921.96z M5135.839,1861.203
			c2.713-10.853,5.711-20.49,8.853-28.415c14.993-38.41,29.343-48.62,54.546-11.424c25.201,37.197,48.762,87.316,48.762,87.316
			s-4.926,2.855-8.424,11.708c-0.215,0.643-0.43,1.285-0.643,1.999l0,0c0,0-43.48-90.313-62.113-107.306
			C5165.753,1805.016,5148.261,1835.144,5135.839,1861.203z M5246.571,1925.958c46.264-45.836,158.424-48.62,206.403-0.143
			C5378.152,1888.761,5321.394,1888.833,5246.571,1925.958z"/>
		<g>
			<path d="M5348.166,2339.545c31.271-3.355,46.264,26.988,65.969,18.42c19.778-8.639,47.194,8.426,63.756,19.063
				c16.492,10.639,39.053,28.701,33.627,34.127c-5.426,5.498-12.279,20.49-16.277,30.486c-3.998,9.924-51.477,35.91-87.817,68.967
				c-36.34,33.055-8.281,46.479-18.775,78.178c-10.566,31.627-33.914,57.758-37.697,100.023
				c-2.855,31.484-0.143,40.551-2.928,112.875c-0.713,19.99,12.852,72.893,36.127,113.445c11.994,20.848,11.637,17.92,5.496,34.697
				c-4.498,12.209-16.705,37.625-20.633,69.752c-3.07,25.488-5.141,56.975-5.496,93.6c-0.715,82.674,14.35,111.16-0.93,165.85
				c-15.35,54.688-20.061,94.383-36.41,104.021c-16.35,9.709-1.143-90.742-3.143-227.105c-1.07-76.535-7.281-91.814-20.846-131.938
				c-10.709-31.271-22.205-52.832-29.844-66.754c-9.496-17.135-9.354-17.35,0.357-38.768c10.995-24.273,30.057-85.816,31.27-107.949
				c4.498-81.318,5.283-117.086-8.709-154.068c-13.994-37.055-34.413-39.482-35.198-93.027
				c-0.715-53.547-32.842-82.818-18.563-84.746s35.268-4.568,51.405,27.488c16.135,32.127,36.625,30.699,33.555-6.498
				c-3.07-37.125,53.189-33.912,16.635-61.828c-36.555-27.844-65.184-16.42-97.239-29.629
				c-31.986-13.279-65.684-29.914-57.402-34.268C5227.866,2352.969,5306.687,2344.043,5348.166,2339.545z"/>
			<path fill="#4D4D4D" d="M5348.166,2339.545c31.271-3.355,46.264,26.988,65.969,18.42c19.778-8.639,47.194,8.426,63.756,19.063
				c14.922,9.639,34.84,25.273,34.412,32.271c-7.639-3.785-27.129-22.633-42.051-31.057c-19.705-11.139-41.195-20.49-52.833-16.207
				c-11.637,4.283-14.494,0.928-33.984-7.711c-6.996-3.07-17.277-7.924-21.918-9.066c-8.711-2.213-28.059-0.143-42.836,2.855
				c-8.426,1.713-9.496,5.498-16.279,4.783c-21.775-2.498-56.116,7.139-74.75,9.354c-13.992,1.641-32.127,9.209-40.338,12.85
				c0.143-0.498,0.572-0.855,1.143-1.141C5227.866,2352.969,5306.687,2344.043,5348.166,2339.545z"/>
			<path fill="#4D4D4D" d="M5239.433,2479.336c0.57-0.357,1.213-0.57,2.07-0.643c14.279-1.928,35.268-4.568,51.405,27.488
				c16.135,32.127,36.625,30.699,33.555-6.426c-2.213-27.488,27.773-32.914,28.986-45.051c1.57,6.996-3.57,14.779-11.424,23.275
				c-10.637,11.422-13.492,17.49-11.564,29.914c2.568,17.205-5.998,24.273-13.209,27.986c-9.354,4.926-15.992-3.428-26.986-12.279
				c-7.211-5.926-16.35-7.711-17.993-15.922c-2.213-10.566-11.352-22.561-27.273-25.131
				C5243.144,2481.906,5240.788,2480.764,5239.433,2479.336z M5412.421,2506.109c-1.643,1.5-3.355,2.998-4.998,4.498
				c-36.34,33.055-8.281,46.479-18.775,78.178c-10.566,31.627-33.914,57.758-37.697,100.023
				c-2.855,31.484-0.143,40.551-2.928,112.875c-0.57,15.92,7.926,52.832,23.203,87.672c-15.707-20.918-22.916-42.338-27.201-60.543
				c-6.996-29.414-6.639-144.717,2.143-179.129c8.854-34.412,33.984-63.469,30.271-96.098
				C5372.654,2520.959,5412.421,2506.109,5412.421,2506.109L5412.421,2506.109z M5380.794,2972.459
				c-4.641,12.779-9.568,28.844-11.781,47.119c-3.07,25.488-5.141,56.975-5.496,93.6c-0.715,82.674,14.35,111.16-0.93,165.85
				c-4.354,15.277-7.781,29.486-10.922,42.123c13.922-80.033,6.424-126.441,1.998-189.41
				C5348.31,3055.705,5380.794,2972.459,5380.794,2972.459L5380.794,2972.459z"/>
			<path fill="#82B3E6" d="M5302.189,2399.875c5.211-1.785,14.777-7.641,22.346-6.926c9.211,0.928,59.9,0.215,66.611,5.996
				c6.783,5.783,38.411,22.848,52.26,28.273c13.852,5.354,14.352,6.996,3.785,9.139c-10.496,2.141-34.627,6.924-52.69,9.994
				c-18.135,3.07-23.418,4.285-30.342-2.641c-14.209-14.207-18.635-23.203-38.482-30.344c-8.354-3.068-18.205-6.568-23.918-7.781
				C5296.548,2404.516,5293.335,2402.873,5302.189,2399.875z M5315.753,2381.098c0.143-2.498-5.568-12.637-9.781-18.492
				c-2.498-3.498-2.998-3.926-7.496-3.854c-11.852,0.285-41.766,6.424-56.188,10.422c-16.777,4.57-25.988,4.785-17.635,9.068
				c8.354,4.355,36.768,12.494,46.979,14.635c10.209,2.07,20.418,1.643,26.915-1.213
				C5304.33,2389.236,5315.611,2384.881,5315.753,2381.098z M5316.966,2362.535c3.998,7.424,9.211,20.205,14.209,21.846
				c5.068,1.715,57.543,2.5,82.031,3.143c24.561,0.713,39.696,4.783,56.118,10.709c16.348,5.926,21.988,5.141,16.063,0.643
				c-5.996-4.498-44.906-31.199-56.83-32.484c-11.922-1.285-21.989,5.354-37.483-0.072c-15.492-5.426-34.625-18.49-41.908-18.133
				c-5.283,0.285-17.492,3.426-23.631,5.068C5320.609,2354.539,5313.041,2355.324,5316.966,2362.535z M5407.923,2400.088
				c7.283,3.57,38.768,17.777,47.622,20.848c8.852,3.141,19.063,5.426,23.916,4.07c4.855-1.285,17.777-8.711,15.207-11.066
				c-2.498-2.428-36.41-10.781-52.902-16.492c-12.924-4.498-31.487-4.07-38.911-3.713
				C5394.359,2394.162,5405.353,2398.803,5407.923,2400.088z"/>
			<path fill="#136ECF" d="M5448.047,2436.215c-0.285,0-0.57,0.07-0.855,0.143c-10.496,2.141-34.627,6.924-52.69,9.994
				c-18.135,3.07-23.418,4.285-30.342-2.641c-14.209-14.207-18.635-23.203-38.482-30.344c-8.354-3.068-18.205-6.568-23.918-7.781
				c-1.713-0.357-3.213-0.785-4.141-1.285c2.785,0.643,6.783,1.213,12.352,1.428c16.277,0.715,25.346-0.428,33.77,6.996
				c8.424,7.498,24.203,25.061,30.486,26.916C5378.937,2440.926,5424.63,2437.855,5448.047,2436.215z M5225.511,2378.67
				c3.283,1.07,8.424,2,16.135,2.285c18.633,0.713,51.262,7.211,59.116,5.854c5.068-0.928,11.064-3.07,14.635-4.568
				c-1.998,3.498-11.637,7.211-16.85,9.424c-6.496,2.855-16.705,3.283-26.915,1.213
				C5261.778,2390.807,5234.72,2383.096,5225.511,2378.67z M5317.966,2364.533c4.783,4.641,12.709,11.566,17.777,12.852
				c7.854,2,51.047,5.711,63.326,4.783c12.209-0.855,29.772,0,41.268,4.07c7.066,2.498,21.846,8.709,32.27,13.137
				c-1.07-0.357-2.143-0.715-3.283-1.143c-16.422-5.926-31.557-9.996-56.118-10.709c-24.488-0.643-76.963-1.428-82.031-3.143
				C5326.605,2382.883,5321.822,2372.031,5317.966,2364.533z M5411.921,2401.945c9.139,2.998,21.491,7.211,31.629,10.994
				c18.705,7.068,31.77,10.139,35.768,9.066c2.713-0.713,10.352-3.998,15.635-6.854c-1.141,3.07-11.279,8.711-15.492,9.854
				c-4.854,1.355-15.064-0.93-23.916-4.07C5447.834,2418.223,5422.988,2407.156,5411.921,2401.945z"/>
			<path fill="#FFFFFF" d="M5222.511,2374.457c0.215,0.572,1.143,1,3,1.143c9.139,0.857,63.184-10.637,67.825-10.637
				s6.354,6.568,6.568,12.707c0.215,6.141,2.07,7.211,7.711,5.783c3.926-0.928,6.139-1.355,8.139-2.855
				c-0.5-3.141-5.855-12.422-9.781-17.992c-2.498-3.498-2.998-3.926-7.496-3.854c-11.852,0.285-41.766,6.424-56.188,10.422
				C5232.364,2371.887,5225.081,2373.029,5222.511,2374.457z M5302.189,2399.875c5.211-1.785,14.777-7.641,22.346-6.926
				c9.211,0.928,59.9,0.215,66.611,5.996c6.783,5.783,38.411,22.848,52.26,28.273c5.57,2.141,8.996,3.713,10.354,4.926
				c-0.715,0.5-2.07,0.715-3.713,0.57c-4.498-0.213-46.834-6.496-53.047-7.354c-6.281-0.928-8.496-13.137-10.494-18.063
				c-1.928-4.926-38.553-6.283-49.119-8.281c-10.496-2-18.42-0.5-32.627,2.713c-4.428,1-6.426,0.857-7.211,0.215
				C5298.404,2401.303,5299.904,2400.66,5302.189,2399.875z M5400.998,2393.949c1.215,1.143,3.57,2.355,8.426,3.141
				c10.924,1.855,20.633,2.07,39.266,8.568c18.564,6.424,30.701,13.135,38.34,10.709c3.428-1.072,5.783-2,7.068-2.857
				c-5.283-2.783-36.697-10.637-52.332-16.063c-12.924-4.498-31.487-4.07-38.911-3.713
				C5402.07,2393.807,5401.427,2393.877,5400.998,2393.949z M5315.968,2359.75c1.713,0.572,4.141,0.785,7.424,0.43
				c9.139-1.215,16.564-2.143,30.344,2.57c13.85,4.641,34.982,14.42,48.047,11.779c13.137-2.643,19.92-5.498,25.846-1.357
				c5.211,3.643,52.404,28.559,59.473,27.273c-0.357-0.428-0.93-0.928-1.715-1.57c-5.996-4.498-44.906-31.199-56.83-32.484
				c-11.922-1.285-21.989,5.354-37.483-0.072c-15.492-5.426-34.625-18.49-41.908-18.133c-5.283,0.285-17.492,3.426-23.631,5.068
				C5321.322,2354.396,5315.253,2355.109,5315.968,2359.75z"/>
			<path fill="#82B3E6" d="M5329.675,3030.574c-1.213-9.424-1.855-21.563-0.5-31.057c2.713-18.35,5.783-55.545,6.354-60.686
				c0.572-5.213,3.5,6.568,13.352,25.059c9.924,18.492,13.137,19.777,10.566,35.27c-2.643,15.564-13.279,51.619-16.42,71.752
				C5340.169,3089.332,5330.388,3035.715,5329.675,3030.574z M5306.972,2862.369c0,0-17.207,49.547-23.775,66.039
				c-6.496,16.492,5.141,21.703,16.992,51.904c11.781,30.129,17.492,35.268,21.561-8.639c3.998-43.908,1.43-116.088-1.141-128.654
				C5317.966,2830.455,5306.972,2862.369,5306.972,2862.369z M5331.246,2843.877c0.715,8.139,2.213,25.846,3.355,42.623
				c1.5,22.846,9.424,40.408,16.777,55.973c7.354,15.635,14.779,26.201,18.635,15.707c3.926-10.494,12.494-24.631,4.783-35.555
				c-7.781-10.924-25.988-42.408-31.127-64.469C5341.312,2848.232,5328.105,2807.609,5331.246,2843.877z"/>
			<path fill="#136ECF" d="M5329.675,3030.574c-0.643-5.07-1.143-10.852-1.213-16.635c2.713,9.209,7.209,23.061,9.209,27.129
				c2.213,4.57,12.922-18.633,20.563-35.91c-3.713,17.49-12.352,47.834-15.207,65.754
				C5340.169,3089.332,5330.388,3035.715,5329.675,3030.574z M5281.769,2941.117c2.428,4.498,16.207,2.998,18.563,9.066
				c2.357,6.068,13.564,33.199,15.35,31.342c1.715-1.855,5.713-20.561,7.354-30.199c-0.285,7.211-0.713,14.064-1.285,20.348
				c-4.068,43.906-9.779,38.768-21.561,8.639C5291.835,2959.107,5283.626,2950.256,5281.769,2941.117z M5337.744,2906.633
				c2.283,3.428,10.422,20.918,13.422,26.416c3.783,7.139,12.207,7.568,15.707,8.068c4.926,0.643,6.924-0.357,10.994-7.568
				c-0.215,8.424-5.141,17.348-7.854,24.631c-3.855,10.494-11.281-0.072-18.635-15.707
				C5346.382,2931.836,5341.099,2920.197,5337.744,2906.633z"/>
			<path fill="#FFFFFF" d="M5329.033,3000.803c0.07-0.43,0.143-0.857,0.143-1.285c2.713-18.35,5.783-55.545,6.354-60.686
				c0.572-5.213,3.5,6.568,13.352,25.059c6.639,12.352,10.281,17.064,11.137,23.418c-0.928,2.643-2.998,3.57-6.854-0.5
				c-7.854-8.354-13.137-12.564-17.348-2.713C5333.958,2988.451,5331.318,2994.877,5329.033,3000.803z M5323.322,2944.973
				c1.498-41.838-0.572-91.742-2.713-101.953c-2.643-12.564-13.637,19.35-13.637,19.35s-17.207,49.547-23.775,66.039
				c-1.285,3.355-1.855,6.211-1.855,8.924c0,0,2.355-7.211,7.568-16.207c5.211-9.066,16.42-33.27,18.348-38.48
				c4.141-10.994,4.355,1.355,4.355,14.492C5311.613,2910.559,5320.751,2931.621,5323.322,2944.973z M5335.173,2892.426
				c0.928-6.211,1.355-9.639,2.498-15.35c1.07-5.641,10.281,36.91,16.277,41.051c5.998,4.213,21.063,9.924,23.061,8.924
				c-0.5-1.498-1.213-2.998-2.213-4.426c-7.781-10.924-25.988-42.408-31.127-64.469c-2.357-9.924-15.564-50.547-12.424-14.279
				c0.715,8.139,2.213,25.846,3.355,42.623C5334.744,2888.498,5334.886,2890.498,5335.173,2892.426z"/>
		</g>
		<path fill="#136ECF" d="M5536.863,1848.495c0,0-4.498-16.207-11.994-13.494c-7.498,2.713-17.422,26.416-29.986,55.188
			c-8.781,20.133-14.707,33.698-18.99,43.336c-3.785,8.639-6.426,10.638-0.572,18.206c8.354,10.852,26.059,34.769,39.053,58.758
			c17.707,32.841,32.199,19.49,34.627-6.854C5551.355,1977.576,5551.928,1907.895,5536.863,1848.495z"/>
		<path d="M5536.863,1848.495c0,0-4.498-16.207-11.994-13.494c-7.498,2.713-17.422,26.416-29.986,55.188
			c-8.781,20.133-14.707,33.698-18.99,43.336c-3.785,8.639-6.426,10.638-0.572,18.206c8.354,10.852,26.059,34.769,39.053,58.758
			c13.066,24.273,24.418,23.346,30.414,10.494c-14.279,10.353-24.488-17.705-37.053-37.481
			c-14.066-22.204-25.773-33.556-22.775-42.552c2.998-8.995,29.414-67.539,38.125-88.814c3.568-8.853,8.852-7.711,13.85-3.355
			L5536.863,1848.495z"/>
		<path fill="#5396DC" d="M5070.084,2157.062c0,0,14.993,31.557,44.193,62.755c23.988,5.498,49.263,8.211,73.894,9.139
			C5148.689,2219.889,5116.919,2217.461,5070.084,2157.062z M5264.134,1972.15c-6.354,6.996-15.207,11.78-24.701,12.423
			c24.773,9.638,44.479,7.567,56.473,2.213c2.713-4.141,4.568-8.854,4.998-14.064
			C5300.904,1972.722,5281.769,1978.647,5264.134,1972.15z M5300.332,2009.275c-3.426,5.64-9.566,11.28-11.637,11.28
			c22.988,0,50.334-4.141,55.117-31.199C5335.029,2000.208,5317.896,2007.633,5300.332,2009.275z M5574.488,1920.032
			c3.783,29.985,5.426,61.971,3.783,90.314c-3.57,61.256-2.713,53.26-2.713,53.26s-5.355-4.926-14.992-11.066
			c-2.713-1.713-5.498-2.927-8.141-3.783c2.143-3.927,5.926-12.852,11.281-33.057
			C5569.348,1994.354,5572.703,1950.089,5574.488,1920.032z M5147.118,2048.757c-2.641,0.856-5.496,2.07-8.139,3.783
			c-9.639,6.141-14.992,11.066-14.992,11.066s0.856,7.996-2.713-53.26c-1.714-28.344,0-60.329,3.783-90.314
			c1.714,30.057,5.141,74.321,10.781,95.668C5141.192,2035.905,5144.978,2044.83,5147.118,2048.757z M5295.333,2294.424
			c4.285-4.996,9.068-9.352,14.209-12.779c-15.637-4.426-31.057-11.494-45.909-21.203c-16.063-10.424-30.342-17.277-43.479-22.133
			c1.928,18.135,4.213,36.268,6.496,54.332c10.068,3.426,32.129,18.99,37.84,27.557c-2.285-1.213-16.635-6.639-19.633-7.709
			c0.57,2.998,0.07,3.641-0.43,6.711c7.141,3.498,14.352,6.924,20.777,10.352c4.568-4.355,9.637-7.354,15.35-9.639
			C5284.339,2309.488,5288.98,2303.135,5295.333,2294.424z M5460.471,2299.922c2.855-2.855,6.854-5.355,12.422-7.281
			c2.285-18.064,4.498-36.197,6.426-54.332c-13.137,4.855-27.416,11.709-43.408,22.133c-8.354,5.426-16.778,9.994-25.417,13.779
			c2,1.713,3.928,3.498,5.641,5.426C5434.982,2272.436,5450.904,2284.357,5460.471,2299.922z M5454.615,2363.605
			c1.143,0.5,2.215,1.072,3.285,1.57l0,0c-1.07-0.498-2.143-1.07-3.285-1.641V2363.605z M5585.268,2219.816
			c29.201-31.198,44.123-62.755,44.123-62.755c-46.836,60.399-78.535,62.827-118.016,71.894
			C5536.006,2228.027,5561.279,2225.314,5585.268,2219.816z"/>
		<path fill="#136ECF" d="M5162.683,1848.495c0,0,4.498-16.207,11.994-13.494s17.42,26.416,29.986,55.188
			c8.781,20.133,14.707,33.698,18.99,43.336c3.713,8.639,6.426,10.638,0.572,18.206c-8.354,10.852-26.061,34.769-39.053,58.758
			c-17.777,32.841-32.199,19.49-34.627-6.854C5148.19,1977.576,5147.618,1907.895,5162.683,1848.495z"/>
		<path d="M5162.683,1848.495c0,0,4.498-16.207,11.994-13.494s17.42,26.416,29.986,55.188c8.781,20.133,14.707,33.698,18.99,43.336
			c3.713,8.639,6.426,10.638,0.572,18.206c-8.354,10.852-26.061,34.769-39.053,58.758c-13.137,24.273-24.418,23.346-30.415,10.494
			c14.208,10.353,24.489-17.705,36.983-37.481c14.135-22.204,25.844-33.556,22.846-42.552c-2.998-8.995-29.414-67.539-38.125-88.814
			c-3.641-8.853-8.924-7.711-13.85-3.355L5162.683,1848.495z"/>
		<path d="M5263.634,2145.21c0,0,25.704-32.627,86.104-32.627c60.398,0,86.172,32.627,86.172,32.627
			c0-6.211-23.631-45.05-86.172-45.05C5287.267,2100.16,5263.634,2138.999,5263.634,2145.21z"/>
		<path d="M5317.751,2129.504c-7.066,11.352,14.279,23.488,23.561,29.485c2.713,1.785,5.568,2.642,8.426,2.713
			c2.855-0.071,5.711-0.928,8.496-2.713c9.281-5.997,30.557-18.134,23.559-29.485
			C5375.011,2118.509,5324.535,2118.509,5317.751,2129.504z"/>
		<path d="M5349.738,2200.256c-14.779,4.783-31.129,10.066-43.623,18.705c4.07-17.491,27.631-24.56,43.623-30.771
			c16.063,6.211,39.553,13.279,43.693,30.771C5380.937,2210.322,5364.587,2205.039,5349.738,2200.256z"/>
		<g>
			<path d="M5288.91,2041.688c0,0-22.776-10.066-48.122-11.78c-25.416-1.785-39.48,3.927-40.838,7.854
				c-1.355,3.927,0.785,6.426,13.209,6.14c5.568-0.143,14.35-0.214,23.916,0.286c-5.711,6.211-9.424,15.921-9.424,26.701
				c0,18.849,11.209,34.127,24.988,34.127c13.852,0,24.989-15.278,24.989-34.127c0-8.067-2.071-15.492-5.499-21.347
				c6.069,1.928,10.211,2.927,13.137,3.213C5293.835,2053.683,5297.333,2046.472,5288.91,2041.688z"/>
			
				<ellipse transform="matrix(0.3457 -0.9383 0.9383 0.3457 1501.6624 6269.8154)" fill="#FFFFFF" cx="5246.644" cy="2058.131" rx="9.139" ry="6.568"/>
			<path d="M5393.716,2041.688c0,0,22.775-10.066,48.12-11.78c25.346-1.785,39.482,3.927,40.838,7.854
				c1.357,3.927-0.785,6.426-13.207,6.14c-5.57-0.143-14.422-0.214-23.988,0.286c5.781,6.211,9.494,15.921,9.494,26.701
				c0,18.849-11.209,34.127-24.988,34.127c-13.85,0-25.059-15.278-25.059-34.127c0-8.067,2.07-15.492,5.568-21.347
				c-6.068,1.928-10.281,2.927-13.207,3.213C5388.718,2053.683,5385.22,2046.472,5393.716,2041.688z"/>
			
				<ellipse transform="matrix(0.3457 -0.9383 0.9383 0.3457 1617.0757 6435.3936)" fill="#FFFFFF" cx="5423.202" cy="2058.131" rx="9.139" ry="6.568"/>
		</g>
		<path d="M5436.91,2418.938c-6.354,1.783-12.422,1.141-17.563-1.357c-3.07,6.641-8.354,11.852-16.635,13.994
			c-14.779,3.711-29.914-6.355-35.412-19.848c-0.785-2.07-1.928-4.213-3.285-6.426c-2.213,6.068-6.424,11.137-13.279,13.85
			c-14.85,5.783-30.414-4.711-37.41-17.492c-5.068-9.281-12.852-18.99-19.848-26.914c-12.137-13.779-21.348-20.848-42.624-20.92
			c7.141-20.49,16.992-28.699,29.702-33.912c3.426-9.352,8.709-18.135,13.85-24.416c15.637-18.992,38.91-29.201,62.186-17.85
			c8.354-7.496,17.635-12.564,26.916-13.137c12.779-0.785,24.346,5.926,32.627,15.137c5.568-2.07,11.422-2.713,17.348-1.428
			c22.633,4.711,36.84,35.055,38.555,56.188c0.285,3.283,1.428,21.061,3.568,23.416c2.215,1.715,13.209,1.285,15.779,1.143
			c1.855-0.07,3.641-0.143,5.496-0.143l7.498-7.068c20.418-19.348,50.617-23.846,77.605-20.418c3.713,0.5,7.424,1.213,11.066,2.285
			c27.844,7.781,49.832,30.27,59.971,56.973c11.852,31.127,6.926,64.254-11.709,91.67c-17.848,26.273-43.621,42.408-75.25,45.764
			c-12.922,1.357-29.771,0.572-42.336-3.355l-12.566-3.855l0.715-3.355c-21.418-1.5-42.766-6.496-62.828-13.279
			c-5.283-1.855-10.494-3.855-15.707-6.141l-7.281-3.141l0,0c32.199-25.488,65.896-44.979,69.182-53.26
			c3.998-9.996,10.852-24.988,16.277-30.486c5.426-5.426-17.135-23.488-33.627-34.127c-6.496-4.141-14.564-9.281-23.275-13.492
			C5459.828,2381.668,5459.686,2412.582,5436.91,2418.938z"/>
		<path fill="#82B3E6" d="M5304.259,2365.248c4.854,5.426,15.563,18.205,21.703,29.486c8.139,14.85,27.916,17.92,25.703-5.713
			c-0.93-9.209-3.643-17.135-6.641-23.346c-4.641-0.855-8.996-2.926-12.564-6.568c-1.785-1.855-3.213-3.855-4.355-6.068
			C5321.394,2359.822,5313.183,2364.748,5304.259,2365.248z M5281.199,2350.184c-1.357-4.141-1.857-8.424-1.857-12.352
			c-4.211,2.643-8.209,6.355-11.495,11.281C5271.917,2348.828,5276.416,2348.971,5281.199,2350.184z M5413.064,2362.178
			c2,4.783,3.783,9.996,4.641,14.35c2.213,11.566,2.07,20.135,2.07,20.135s2.428,11.422,13.209,8.424
			c10.852-3.07,17.563-30.342,5.283-48.049c-2.285-3.283-4.855-5.711-7.426-7.424c-0.57,0.57-1.07,1.141-1.643,1.713
			C5424.916,2355.539,5419.275,2359.537,5413.064,2362.178z M5357.662,2365.391c2.643,7.211,3.998,14.137,3.998,14.137
			s12.994,11.994,18.99,26.844c5.998,14.779,30.771,19.705,27.631-11.779c-1.143-11.352-3.928-21.275-7.354-29.416
			c-5.426,0.287-10.781-0.928-15.492-4.426c-2.285-1.713-3.998-3.641-5.283-5.783
			C5373.583,2360.035,5366.085,2363.748,5357.662,2365.391z"/>
		<path fill="#5396DC" d="M5304.259,2365.248c4.854,5.426,15.563,18.205,21.703,29.486c1.857,3.355,4.283,6.139,6.926,8.139
			c-0.572-3.213-1.07-7.781-3.213-14.779c-3.355-10.637-9.781-20.633-13.637-26.131
			C5312.326,2363.82,5308.4,2365.033,5304.259,2365.248z M5360.732,2364.748c4.283,3.07,11.066,8.711,16.492,16.92
			c6.639,10.139,8.354,27.059,14.492,35.412c-4.641-1.643-8.994-5.641-11.066-10.709c-5.996-14.85-18.99-26.844-18.99-26.844
			s-1.355-6.926-3.998-14.137C5358.732,2365.248,5359.732,2364.963,5360.732,2364.748z M5416.777,2360.393
			c3.713,2.07,7.424,7.211,7.496,19.492c0.143,13.777,0.857,21.346,3.213,25.486c-6.141-1.428-7.711-8.709-7.711-8.709
			s0.143-8.568-2.07-20.135c-0.857-4.354-2.641-9.566-4.641-14.35C5414.349,2361.607,5415.562,2361.035,5416.777,2360.393z"/>
		<path fill="#FFFFFF" d="M5340.384,2406.229c6.711,1,12.566-3.783,11.281-17.207c-0.93-9.209-3.643-17.135-6.641-23.346
			c-3.783-0.713-7.354-2.213-10.494-4.711l0,0C5343.24,2375.314,5352.593,2399.375,5340.384,2406.229z M5386.791,2361.678
			c13.922,16.207,19.277,45.193,10.496,56.26c6.781-0.5,12.637-7.068,10.994-23.346c-1.143-11.352-3.928-21.275-7.354-29.416
			C5396.001,2365.463,5391.146,2364.463,5386.791,2361.678z M5423.916,2355.895c14.352,8.568,17.993,35.412,8.854,49.191
			c0.07,0,0.143,0,0.215,0c10.852-3.07,17.563-30.342,5.283-48.049c-2.285-3.283-4.855-5.711-7.426-7.424
			c-0.57,0.57-1.07,1.141-1.643,1.713C5427.629,2352.896,5425.844,2354.396,5423.916,2355.895z"/>
		<path fill="#0A35A4" d="M5206.233,2243.949c0,0,5.426,54.473,9.281,80.104c1,6.141,2.57,17.992,4.141,34.77
			c-3.855-0.5-7.639-0.785-11.422-1c-2.143-0.143-4.213-0.213-6.283-0.213l-1-1.285c-4.426-5.998-11.852-11.639-18.635-15.494
			c-3.426-6.568-8.139-12.707-14.492-17.42c-24.274-17.99-32.699-14.992-44.693-32.412c-11.994-17.35-41.693-65.684-41.693-65.684
			S5137.837,2245.092,5206.233,2243.949z M5493.313,2243.949c0,0-5.426,54.473-9.354,80.104c-0.928,6.141-2.498,17.992-4.068,34.77
			c3.854-0.5,7.639-0.785,11.422-1c2.07-0.143,4.213-0.213,6.283-0.213l0.928-1.285c4.498-5.998,11.924-11.639,18.635-15.494
			c3.498-6.568,8.209-12.707,14.564-17.42c24.273-17.99,32.699-14.992,44.693-32.412c11.994-17.35,41.693-65.684,41.693-65.684
			S5561.707,2245.092,5493.313,2243.949z M5476.82,2513.678c1.713,38.98,5.283,82.816,11.852,130.723
			c23.703,174.061,78.391,257.449,100.594,316.85c22.205,59.4,26.416,112.16,26.416,112.16s97.811-14.35,148.787-56.973
			c51.047-42.623,79.248-40.195,79.248-40.195S5786.672,2870.65,5683.508,2735c-56.26-73.893-81.533-149-91.457-211.756
			c-8.139,2.998-16.777,4.998-25.846,5.926c-8.066,0.857-17.49,0.928-26.559-0.143
			C5529.865,2527.957,5500.236,2520.246,5476.82,2513.678z M5607.186,2323.553c-8.639-0.713-23.203-2.213-31.127-4.641
			c-9.211-2.855-29.271,2.785-44.051,15.279c15.992-5.426,33.342-6.211,50.119-4.07c3.783,0.5,7.568,1.285,11.209,2.285
			c2.785,0.785,5.498,1.713,8.211,2.785C5603.33,2330.693,5605.258,2326.838,5607.186,2323.553z M5222.653,2513.678
			c-1.641,38.98-5.211,82.816-11.779,130.723c-23.703,174.061-78.463,257.449-100.666,316.85
			c-22.133,59.4-26.345,112.16-26.345,112.16s-97.811-14.35-148.786-56.973c-51.047-42.623-79.248-40.195-79.248-40.195
			s57.044-105.592,160.209-241.242c56.26-73.893,81.533-149,91.457-211.756c8.139,2.998,16.777,4.998,25.845,5.926
			c7.996,0.857,17.491,0.928,26.559-0.143C5169.679,2527.957,5199.308,2520.246,5222.653,2513.678z M5094.929,2323.34
			c8.782-0.785,21.348-2.213,28.487-4.428c9.281-2.855,29.343,2.785,44.122,15.279c-15.992-5.426-33.342-6.211-50.119-4.07
			c-3.784,0.5-7.568,1.285-11.209,2.285c-2,0.572-3.998,1.215-5.854,1.928C5098.642,2330.121,5096.786,2326.48,5094.929,2323.34z"/>
		<path fill="#072778" d="M5135.339,2529.385c17.063,9.637,41.908,17.063,78.033,17.063c2.57,0,5.07,0,7.498-0.072
			c0.785-11.279,1.355-22.131,1.783-32.697c-23.346,6.568-52.975,14.279-62.755,15.35
			C5151.546,2529.955,5142.907,2530.027,5135.339,2529.385z M5478.605,2546.09c34.555,3.428,65.254-1.713,86.744-16.777
			c-7.783,0.715-16.922,0.715-25.703-0.285c-9.781-1.07-39.41-8.781-62.826-15.35
			C5477.32,2524.172,5477.891,2534.953,5478.605,2546.09z"/>
		<path fill="#072778" d="M5201.95,2357.609l-1-1.285c-4.426-5.998-11.852-11.639-18.635-15.494
			c-3.426-6.568-8.139-12.707-14.492-17.42c-24.274-17.99-32.699-14.992-44.693-32.412c-5.783-8.354-15.635-23.918-24.346-37.768
			C5123.416,2289.355,5192.954,2274.863,5201.95,2357.609z"/>
		<path fill="#072778" d="M5600.762,2253.23c-24.703,36.125-94.17,21.633-103.166,104.379l0.928-1.285
			c4.498-5.998,11.924-11.639,18.635-15.494c3.498-6.568,8.209-12.707,14.564-17.42c24.273-17.99,32.699-14.992,44.693-32.412
			C5582.197,2282.645,5592.051,2267.08,5600.762,2253.23z"/>
		<path fill="#82B3E6" d="M5592.051,2523.244c2.213,155.354,114.23,249.666,190.98,372.252c24.631,39.338,43.479,73.82,43.479,73.82
			s-33.84,6.926-62.041,37.84c-13.779,14.992-34.984,29.201-53.189,39.768c19.348-7.996,38.268-17.992,53.189-30.486
			c51.047-42.623,79.248-40.195,79.248-40.195S5786.672,2870.65,5683.508,2735C5627.248,2661.107,5601.975,2586,5592.051,2523.244z"
			/>
		<path fill="#82B3E6" d="M5206.233,2243.949c0,0,5.426,54.473,9.281,80.104c1,6.141,2.57,17.992,4.141,34.77
			c-5.996-51.404-24.488-104.521-24.488-104.521c-33.342-2.143-65.969-12.422-97.025-23.988l0,0
			C5119.774,2236.096,5160.327,2244.734,5206.233,2243.949z M5094.929,2323.34c9.639,7.354,30.558-4.855,54.902-0.072
			c-10.423-4.568-20.561-6.139-26.415-4.355C5116.276,2321.127,5103.711,2322.555,5094.929,2323.34z"/>
		<path fill="#9AC2EB" d="M5326.248,2427.289c-15.92,2.785-34.697,3.785-50.262-1.855c0,0,21.42,22.346,59.973,7.426l0,0
			c-15.922,15.277-38.982,34.197-66.684,47.904c-9.994-4.426-19.918-3.141-27.771-2.07c-5.283,0.715-4.141,5.213-0.643,13.422
			c-64.113,20.49-100.311,7.141-100.311,7.141s6.712,8.066,16.35,10.137c9.566,2.143,14.707,1.5,14.707,1.5
			s-63.326,19.49-101.522-36.697c-38.124-56.258-0.214-122.227,49.333-128.58c38.197-4.855,58.545,9.709,65.826,16.563
			c-20.633,4.426-37.695,17.207-44.407,37.41c0,0,15.707-20.203,46.978-25.201c-5.641,4.926,27.059,20.99,58.045,33.84
			C5272.845,2419.365,5297.406,2413.012,5326.248,2427.289z"/>
		<path fill="#FFFFFF" d="M5075.081,2370.459c11.638-13.422,27.273-22.631,44.336-24.844c38.197-4.855,58.545,9.709,65.826,16.563
			c-3.713,0.857-7.354,1.928-10.852,3.285c-6.854-4.928-26.559-16.779-55.83-14.564
			C5102.497,2352.039,5087.219,2360.893,5075.081,2370.459z M5146.048,2394.234c6.926-6.354,20.848-16.492,41.766-19.848
			c-1.855,1.57,0.428,4.426,5.355,7.854C5165.325,2382.453,5146.119,2394.162,5146.048,2394.234z"/>
		<path fill="#5396DC" d="M5326.248,2427.289c-15.92,2.785-34.697,3.785-50.262-1.855c0,0,21.42,22.346,59.973,7.426l0,0
			c-15.922,15.277-38.982,34.197-66.684,47.904c-9.994-4.426-19.918-3.141-27.771-2.07c-5.283,0.715-4.141,5.213-0.643,13.422
			c-64.113,20.49-100.311,7.141-100.311,7.141s6.712,8.066,16.35,10.137c9.566,2.143,14.707,1.5,14.707,1.5
			s-63.326,19.49-101.522-36.697c-8.71-12.922-13.422-26.273-14.993-39.338c9.211,12.209,21.133,22.49,36.412,28.059
			c60.756,22.203,89.029,8.139,89.029,8.139c-10.068-0.785-21.776-2.143-27.701-11.424c0,0,46.477,6.855,84.459-18.348
			c16.635-10.924,25.131-20.275,29.486-27.201C5286.052,2417.438,5304.972,2416.795,5326.248,2427.289z"/>
		<path fill="#9AC2EB" d="M5117.919,3250.469c0,0-24.346-7.496-32.414,4.498c-8.139,11.994-10.494,34.77,0,37.197
			c10.496,2.355,49.477,6.996,59.972-7.496c8.496-11.709,48.978-161.281,64.47-219.324c-24.061-5.141-47.334-10.639-68.967-15.494
			c-17.064-3.783-33.057-4.354-37.482-4.426c-2.855,15.635-4.141,30.057-5.426,45.836c-5.498-0.785-10.853-1.57-16.136-2.428
			c-4.427,21.775-10.28,47.549-16.563,68.896c-13.779,46.834-20.348,69.037-20.348,69.037s12.279-5.711,22.775-2.998
			c10.494,2.641,11.709,11.066,11.709,11.066s-32.984-13.209-43.837,15.277c-10.78,28.559,1.642,37.197,10.066,39.625
			s19.349,1.643,19.349,1.643s-1.928-38.055,13.493-46.479C5094.073,3236.477,5111.421,3241.902,5117.919,3250.469z
			 M5027.747,3239.76c0,0-7.639,6.496-10.209,19.705c-2.57,13.207,1.642,25.059,1.642,25.059s-19.063,2.643-22.204-8.281
			C4993.835,3265.318,5002.401,3237.975,5027.747,3239.76z"/>
		<path fill="#5396DC" d="M5079.722,3268.746c-2.569,10.709-1.355,21.775,5.783,23.418c10.496,2.355,49.477,6.996,59.972-7.496
			c8.496-11.709,48.978-161.281,64.47-219.324c-24.061-5.141-47.334-10.639-68.967-15.494c-17.064-3.783-33.057-4.354-37.482-4.426
			c-1.5,8.281-2.57,16.207-3.428,24.203c41.766,4.355,72.467,19.42,76.32,23.488c5.713,5.998-20.133,93.885-32.412,132.865
			c-12.279,39.053-13.208,47.406-39.624,48.334C5091.859,3274.744,5084.22,3271.887,5079.722,3268.746z M5031.674,3266.248
			c-1.499,15.92,7.497,21.631,14.064,23.488c8.425,2.428,19.349,1.643,19.349,1.643s-0.715-13.566,2.07-26.346
			c-4.498,1.713-11.709,3.428-22.347,3.285C5038.885,3268.246,5034.673,3267.389,5031.674,3266.248z M4997.618,3262.535
			c0.785,0.428,1.5,0.713,2.356,1c6.997,1.928,12.851,0.855,17.063-0.857c-1.356,11.852,2.142,21.846,2.142,21.846
			s-19.063,2.643-22.204-8.281C4995.977,3272.816,4996.19,3267.818,4997.618,3262.535z"/>
		<path fill="#9AC2EB" d="M5439.123,2484.904c4.713,2.072,9.566,3.928,14.564,5.641c67.184,22.775,105.307,8.711,105.307,8.711
			s-6.781,8.066-16.348,10.137c-9.568,2.143-14.709,1.5-14.709,1.5s63.328,19.49,101.453-36.697
			c38.195-56.258,0.285-122.227-49.264-128.58c-38.195-4.855-58.543,9.709-65.896,16.563c20.705,4.426,37.768,17.207,44.479,37.41
			c0,0-22.203-28.629-66.539-26.201c-31.557,1.713-31.984-7.854-34.484-37.84c-1.498-18.49-17.348-52.26-38.411-41.551
			c-3.213,1.643-6.496,4.498-9.709,8.639c-4.57,6.068-9.211,13.137-14.422,24.773c-13.494,30.059,10.494,26.988,23.918,13.709
			c10.067-10.066,13.135-13.994,25.774,3.498c4.496,6.139,7.639,12.707,9.779,18.92c8.141,3.926,15.779,8.709,23.275,13.492
			c16.492,10.639,39.053,28.701,33.627,34.127c-5.426,5.498-12.279,20.49-16.277,30.486
			C5492.385,2448.779,5466.824,2464.344,5439.123,2484.904z M5347.667,2351.541c11.422,3.141,28.057-10.496,34.91-19.492
			c2.57-10.852,10.996-25.273,17.707-34.055c2.213-2.928,4.498-5.141,6.781-6.783c-3.426-4.283-11.85-12.992-22.631-12.35
			c-18.992,1.213-41.48,34.982-44.479,56.188C5339.029,2341.83,5339.599,2349.326,5347.667,2351.541z M5329.89,2324.695
			c6.496-15.992,21.346-33.627,21.346-33.627c-31.984-16.777-60.686,26.631-59.756,48.191c0.57,13.422,15.85,11.924,23.416,6.711
			C5320.751,2341.83,5327.248,2331.051,5329.89,2324.695z"/>
		<path fill="#5396DC" d="M5391.146,2342.473c0.357,13.209,17.42,9.068,27.916-1.355c9.495-9.496,12.78-13.494,23.702,0.713
			c-2.926-10.281-7.496-21.846-14.85-19.275c-9.282,3.283-22.631,24.059-34.198,21.346
			C5392.574,2343.615,5391.789,2343.115,5391.146,2342.473z M5294.193,2346.543c3.568-0.5,8.566-3.143,15.35-10.996
			c9.924-11.422,18.92-16.705,24.273-19.133c-1.428,2.713-2.785,5.498-3.926,8.281c-2.643,6.355-9.139,17.135-14.994,21.275
			C5309.113,2349.898,5299.046,2351.754,5294.193,2346.543z M5339.669,2340.475c2.072,1.855,5.213,2.713,10.068,1.713
			c21.631-4.355,27.344-28.344,40.123-27.916c-3.213,5.998-5.998,12.352-7.283,17.777c-6.854,8.996-23.488,22.633-34.91,19.492
			C5341.742,2349.898,5339.814,2345.4,5339.669,2340.475z"/>
		<path fill="#FFFFFF" d="M5621.75,2367.461c-11.352-11.779-25.844-19.848-41.623-21.846c-38.195-4.855-58.543,9.709-65.896,16.563
			c4.07,0.928,7.996,2.07,11.709,3.57c6.426-4.713,26.344-17.064,56.258-14.85
			C5596.549,2351.969,5610.328,2359.107,5621.75,2367.461z M5551.285,2392.234c-9.854-8.281-29.559-20.49-59.115-18.848
			c-31.557,1.713-31.984-7.854-34.484-37.84c-1.498-18.49-17.348-52.26-38.411-41.551c-3.213,1.643-6.496,4.498-9.709,8.639
			c-4.57,6.068-9.211,13.137-14.422,24.773c-0.357,0.857-0.715,1.715-1.07,2.57c5.639-9.494,14.564-20.848,26.059-24.059
			c20.706-5.855,30.557,21.488,30.272,47.834l0,0c1.713,3.283,3.141,6.568,4.211,9.781c8.141,3.926,15.779,8.709,23.275,13.492
			c2.785,1.785,5.783,3.855,8.781,5.998c3.285,0.215,6.211,0.143,8.426-0.143l0,0
			C5514.373,2382.24,5533.936,2382.953,5551.285,2392.234z M5398.5,2300.492c-4.355-4.068-13.352-9.994-26.559-5.926
			c-9.066,2.785-18.063,11.566-24.988,19.992c8.781-17.564,23.988-34.842,37.482-35.697c10.781-0.643,19.205,8.066,22.631,12.35
			c-2.283,1.643-4.568,3.855-6.781,6.783C5399.712,2298.779,5399.07,2299.637,5398.5,2300.492z M5342.669,2302.42
			c-21.133-8.209-41.195,9.496-50.049,27.346c5.498-22.418,30.844-53.262,58.615-38.697
			C5351.236,2291.068,5347.31,2295.781,5342.669,2302.42z"/>
		<path fill="#5396DC" d="M5439.123,2484.904c4.713,2.072,9.566,3.928,14.564,5.641c67.184,22.775,105.307,8.711,105.307,8.711
			s-6.781,8.066-16.348,10.137c-9.568,2.143-14.709,1.5-14.709,1.5s63.328,19.49,101.453-36.697
			c8.781-12.922,13.492-26.273,15.064-39.338c-9.281,12.209-21.133,22.49-36.412,28.059c-60.756,22.203-89.1,8.139-89.1,8.139
			c10.137-0.785,21.775-2.143,27.701-11.424c0,0-30.486,4.498-62.328-7.211C5473.75,2460.561,5456.9,2471.697,5439.123,2484.904z"/>
		<path fill="#9AC2EB" d="M5581.627,3250.469c0,0,24.346-7.496,32.414,4.498c8.066,11.994,10.494,34.77,0,37.197
			c-10.496,2.355-49.477,6.996-59.973-7.496c-8.496-11.709-48.977-161.281-64.469-219.324c24.061-5.141,47.334-10.639,68.967-15.494
			c17.064-3.783,33.057-4.354,37.482-4.426c2.855,15.635,4.141,30.057,5.426,45.836c5.498-0.785,10.852-1.57,16.135-2.428
			c4.428,21.775,10.209,47.549,16.564,68.896c13.779,46.834,20.348,69.037,20.348,69.037s-12.281-5.711-22.775-2.998
			c-10.494,2.641-11.709,11.066-11.709,11.066s32.984-13.209,43.836,15.277c10.781,28.559-1.713,37.197-10.066,39.625
			c-8.424,2.428-19.348,1.643-19.348,1.643s1.928-38.055-13.494-46.479C5605.473,3236.477,5588.053,3241.902,5581.627,3250.469z
			 M5671.799,3239.76c0,0,7.639,6.496,10.209,19.705c2.498,13.207-1.643,25.059-1.643,25.059s18.992,2.643,22.205-8.281
			C5705.711,3265.318,5697.143,3237.975,5671.799,3239.76z"/>
		<path fill="#5396DC" d="M5619.822,3268.746c2.5,10.709,1.357,21.775-5.781,23.418c-10.496,2.355-49.477,6.996-59.973-7.496
			c-8.496-11.709-48.977-161.281-64.469-219.324c24.061-5.141,47.334-10.639,68.967-15.494c17.064-3.783,33.057-4.354,37.482-4.426
			c1.5,8.281,2.57,16.207,3.428,24.203c-41.768,4.355-72.467,19.42-76.322,23.488c-5.711,5.998,20.135,93.885,32.414,132.865
			c12.279,39.053,13.207,47.406,39.553,48.334C5607.686,3274.744,5615.326,3271.887,5619.822,3268.746z M5667.871,3266.248
			c1.5,15.92-7.566,21.631-14.064,23.488c-8.424,2.428-19.348,1.643-19.348,1.643s0.643-13.566-2.07-26.346
			c4.498,1.713,11.637,3.428,22.346,3.285C5660.66,3268.246,5664.873,3267.389,5667.871,3266.248z M5701.928,3262.535
			c-0.787,0.428-1.572,0.713-2.357,1c-6.996,1.928-12.85,0.855-17.063-0.857c1.355,11.852-2.143,21.846-2.143,21.846
			s18.992,2.643,22.205-8.281C5703.498,3272.816,5703.355,3267.818,5701.928,3262.535z"/>
		<path fill="#136ECF" d="M5231.437,2330.121c7.709,2.357,15.777,5.855,25.059,10.854c-2.355,3.998-3.713,7.281-5.641,12.85
			c-5.783,1.215-11.422,2.5-16.92,3.928C5233.149,2346.756,5232.222,2337.404,5231.437,2330.121z"/>
		<path d="M5315.824,1901.826c-20.061,19.848-44.479,45.836-76.391,44.193c14.707,41.267,61.471,26.702,61.471,26.702
			c-1.215,15.777-15.564,26.416-28.202,33.626c24.274,8.425,57.616-0.356,71.11-16.991c2.213,11.994,0.428,19.49-3.57,31.199
			c25.844-5.141,45.051-21.133,40.338-49.334c-3.285,13.494-13.707,26.916-25.203,33.271c1.715-14.208-1.998-30.485-10.779-39.839
			c-3.428,17.706-29.271,34.056-47.121,35.84c12.994-8.639,21.848-27.629,19.063-46.264c-17.277,11.924-46.049,14.422-61.686-2.142
			C5283.126,1952.802,5307.828,1926.743,5315.824,1901.826z"/>
		<path fill="#FFFFFF" d="M5315.111,1904.111L5315.111,1904.111c0,0-1.07,28.771-21.418,41.979
			c-20.42,13.208-38.84,5.997-38.84,5.997C5282.269,1952.73,5306.33,1928.313,5315.111,1904.111z M5316.539,1954.229
			c0,0,22.203,29.415-19.063,46.264C5310.47,1991.854,5319.324,1972.864,5316.539,1954.229z"/>
		<path fill="#FFFFFF" d="M5272.274,2136.929c0.07,0,23.702-14.279,62.042-14.564c17.563-2.784,42.766-0.429,47.477,7.14
			c3.143,5.068,0.572,10.352-3.998,15.136c3.855-1.999,8.426-4.998,13.422-9.425c13.352-11.851,38.268,3.642,38.34,3.642
			c-10.924-9.496-36.413-26.273-79.819-26.273C5309.185,2112.583,5284.269,2127.29,5272.274,2136.929z"/>
		<path fill="#82B3E6" d="M5493.313,2243.949c0,0-5.426,54.473-9.354,80.104c-0.928,6.141-2.498,17.992-4.068,34.77
			c5.996-51.404,24.488-104.521,24.488-104.521c33.27-2.143,65.896-12.422,97.023-23.988l0,0
			C5579.771,2236.096,5539.219,2244.734,5493.313,2243.949z M5607.186,2323.553c-9.852,7.498-34.768-4.141-58.328,0.072
			c10.709-4.855,21.203-6.568,27.201-4.713C5583.982,2321.34,5598.547,2322.84,5607.186,2323.553z"/>
		<path fill="#82B3E6" d="M5107.495,2523.244c-2.285,155.354-114.231,249.666-190.98,372.252
			c-24.631,39.338-43.551,73.82-43.551,73.82s33.912,6.926,62.113,37.84c13.707,14.992,34.982,29.201,53.189,39.768
			c-19.349-7.996-38.268-17.992-53.189-30.486c-51.047-42.623-79.248-40.195-79.248-40.195s57.044-105.592,160.209-241.242
			C5072.298,2661.107,5097.571,2586,5107.495,2523.244z"/>
	</g>
</g>
</svg>
