<?xml version="1.0" encoding="utf-8"?>
<!-- Generator: Adobe Illustrator 16.0.0, SVG Export Plug-In . SVG Version: 6.00 Build 0)  -->
<!DOCTYPE svg PUBLIC "-//W3C//DTD SVG 1.1//EN" "http://www.w3.org/Graphics/SVG/1.1/DTD/svg11.dtd">
<svg version="1.1" id="Layer_1" xmlns="http://www.w3.org/2000/svg" xmlns:xlink="http://www.w3.org/1999/xlink" x="0px" y="0px"
	 width="2200px" height="2500px" viewBox="1849.771 1332.532 2200 2500" enable-background="new 1849.771 1332.532 2200 2500"
	 xml:space="preserve">
<g id="Layer_x0020_1">
	<g id="_323072944">
		<path d="M2584.589,3082.473c-23.417-21.846-16.563-28.914-10.28-41.836c29.057-55.189,54.902-112.447,77.677-170.49
			c20.847-53.119,39.409-107.521,53.974-162.709c12.566-47.192,22.918-97.097,26.203-145.86l0.785-11.779
			c-11.066-11.424-20.563-24.488-28.13-38.482c-17.563-32.056-25.987-69.466-23.274-105.948c1.855-25.846,8.71-53.902,24.56-74.822
			c-8.425-35.125-2.499-46.334,27.701-48.834c-16.992-26.129-27.272-50.262-38.411-77.819c13.494-7.354,22.348-11.495,37.412-15.993
			c-13.494-15.777-24.561-31.771-35.698-49.262c22.562-13.779,60.114-37.982,65.826-64.184c3.712-16.992,0.999-41.267,0-58.758
			c-1.642-29.058-1.642-56.759,4.641-85.388c4.997-22.489,13.136-46.764,25.06-66.611c9.139-15.136,24.416-33.698,44.407-30.628
			c7.925,1.213,14.422,5.782,19.205,12.137c12.565,16.635,24.417,39.695,33.271,59.472c1.285-0.571,3.926-1.785,5.211-2.356
			c-7.211-15.635-3.713-33.555-0.5-45.264c36.697,38.481,120.443,9.566,189.695,46.121c1.071,0.499,2.143,0.999,3.285,1.499
			c8.781-19.776,20.633-42.837,33.197-59.472c4.784-6.354,11.353-10.924,19.277-12.137c19.919-3.07,35.269,15.492,44.407,30.628
			c11.923,19.848,20.062,44.122,24.988,66.611c6.354,28.629,6.354,56.33,4.712,85.388c-1,17.491-3.713,41.766,0,58.758
			c5.711,26.201,43.193,50.404,65.826,64.184c-11.138,17.491-22.275,33.484-35.697,49.262c14.992,4.498,23.846,8.639,37.339,15.993
			c-11.065,27.558-21.347,51.69-38.339,77.819c20.562,1.715,34.983,8.496,33.484,34.699c13.85,17.848,21.49,40.98,24.916,62.756
			c4.927,31.412,2.214,65.182-7.211,95.525c-7.211,23.487-18.705,45.835-34.84,64.468c-4.855,5.641-9.924,10.709-15.279,15.279
			l0.715,9.924c3.569,48.477,13.922,97.881,26.416,144.788c14.564,54.547,32.912,108.449,53.546,160.996
			c22.774,58.043,48.69,115.301,77.749,170.49c3.069,6.281,9.352,20.703-2.999,34.27c-43.551,47.691-112.875,80.104-184.27,100.879
			c4.927,22.633,9.781,45.336,14.778,67.969c16.85-0.785,31.557,7.281,39.625,22.275c5.711,10.637,8.066,25.273,3.854,36.767
			c-6.068,16.635-25.131,21.348-40.98,19.133l-7.71-1.141c-3.642,2.641-7.854,4.641-12.352,5.926
			c-7.711,2.141-17.206,2.783-25.203,2.213l-11.708-0.785c-1.214,0.428-2.499,0.855-3.855,1.141
			c-10.423,2.357-23.132,3.285-33.698,3c-15.635-0.357-34.412-3.57-43.551-17.777c-3.141-4.855-5.211-12.852-6.782-18.419
			c-2.499-9.424-4.712-18.92-6.854-28.416c-4.854-21.275-9.281-42.621-13.636-64.041c-4.712,0.43-9.281,0.857-13.851,1.143
			c-46.549,3.428-93.884,3.07-140.29-0.928c-1.143-0.07-2.214-0.215-3.284-0.285c-4.355,21.418-8.781,42.836-13.637,64.111
			c-2.142,9.496-4.355,18.992-6.926,28.416c-1.498,5.567-3.641,13.563-6.781,18.419c-9.139,14.207-27.916,17.42-43.48,17.777
			c-10.566,0.285-23.346-0.643-33.697-3c-1.357-0.285-2.713-0.713-3.928-1.141l-11.708,0.785c-7.925,0.57-17.491-0.072-25.131-2.213
			c-4.498-1.285-8.71-3.285-12.423-5.926l-7.639,1.141c-15.85,2.215-34.912-2.498-41.053-19.133
			c-4.212-11.493-1.784-26.13,3.855-36.767c8.068-14.994,22.847-23.061,39.695-22.275c4.998-22.918,9.924-45.836,14.851-68.754
			l0.143-0.5C2693.395,3153.797,2627.996,3123.096,2584.589,3082.473z"/>
		<path fill="#072778" d="M2596.084,3070.193c44.764,41.908,104.235,71.18,169.704,90.314c2.142-11.494,3.927-23.133,5.497-34.697
			l0.215-1.285C2717.025,3112.174,2644.632,3094.324,2596.084,3070.193z M2911.719,3186.852c25.773,2.143,51.404,3.213,76.606,3.143
			c25.202,0.07,50.904-1,76.606-3.143c-5.712-28.771-11.281-57.543-16.777-86.387l-0.144-0.928
			c-19.491,2.283-39.267,3.711-59.686,3.711s-40.195-1.428-59.614-3.711l-0.215,0.928
			C2923.07,3129.309,2917.502,3158.08,2911.719,3186.852z M3210.934,3160.508c65.396-19.135,124.939-48.406,169.705-90.314
			c-48.62,24.131-121.014,41.98-175.417,54.332l0.144,1.285C3207.006,3137.375,3208.791,3149.014,3210.934,3160.508z"/>
		<path fill="#136ECF" d="M2826.045,3066.266c17.85,3.428,37.482,7.498,58.83,12.209c67.896,14.994,139.004,14.994,206.973,0
			c21.275-4.711,40.908-8.781,58.758-12.209c-5.141-44.336-10.496-88.6-15.779-132.936c-7.496-62.113-14.635-124.299-20.49-186.555
			c-0.999-10.852-1.998-21.633-2.927-32.484c-84.388,11.924-161.78,11.924-246.169,0c-0.928,10.852-1.928,21.633-2.927,32.484
			c-5.782,62.256-12.923,124.441-20.419,186.555C2836.54,2977.666,2831.186,3021.93,2826.045,3066.266z"/>
		<path fill="#0F59A7" d="M2826.045,3066.266c5.641,1.072,11.424,2.215,17.35,3.428c14.492-134.721,21.846-355.402,21.846-355.402
			c-0.928,10.852-1.928,21.633-2.927,32.484c-5.782,62.256-12.923,124.441-20.419,186.555
			C2836.54,2977.666,2831.186,3021.93,2826.045,3066.266z M3136.469,3069.051c4.855-0.928,9.566-1.855,14.137-2.785
			c-5.141-44.336-10.496-88.6-15.779-132.936c-7.496-62.113-14.635-124.299-20.49-186.555c-0.999-10.852-1.998-21.633-2.927-32.484
			C3114.122,2844.729,3130.9,3015.361,3136.469,3069.051z"/>
		<path fill="#5396DC" d="M2866.812,2695.513c79.677,14.923,163.351,14.923,243.026,0c-1.784-22.561-3.498-45.121-4.926-67.682
			c-82.389,11.424-150.785,11.424-233.104,0C2870.311,2650.392,2868.668,2672.952,2866.812,2695.513z"/>
		<path fill="#C3DBF3" d="M2871.809,2627.831l-0.07,0.5c55.759,23.061,177.486,23.061,233.174,0v-0.5
			C3022.523,2639.255,2954.127,2639.255,2871.809,2627.831z"/>
		<path fill="#136ECF" d="M2872.88,2610.911c82.604,13.064,148.358,13.064,230.962,0c-0.715-10.566-1.285-21.061-1.856-31.627
			c-11.923-3.143-23.917-6.998-35.983-11.424c18.563-2.643,15.422-2.855-2.213-11.566c-20.275-10.066-47.049-24.346-60.757-35.982
			c-11.994-10.209-25.63-17.92-40.194-23.275c-21.775-8.066-24.346,9.996-33.913,26.061c-16.136,27.201-39.053,31.199-8.353,33.912
			c-10.639,7.924-26.846,17.49-45.979,24.346C2874.022,2591.206,2873.451,2601.058,2872.88,2610.911z"/>
		<path fill="#0F59A7" d="M2872.88,2610.911c53.261-15.35,58.401-63.113,86.602-76.035c16.921-7.711,35.341,12.922,70.038,36.768
			c23.774,16.35,33.842,27.131,74.322,39.268c-0.715-10.566-1.285-21.061-1.856-31.627c-11.923-3.143-23.917-6.998-35.983-11.424
			c18.563-2.643,15.422-2.855-2.213-11.566c-20.275-10.066-47.049-24.346-60.757-35.982c-11.994-10.209-25.63-17.92-40.194-23.275
			c-21.775-8.066-24.346,9.996-33.913,26.061c-16.136,27.201-39.053,31.199-8.353,33.912c-10.639,7.924-26.846,17.49-45.979,24.346
			C2874.022,2591.206,2873.451,2601.058,2872.88,2610.911z"/>
		<path fill="#0A35A4" d="M2858.672,2586.208c-11.279,203.263-34.482,351.048-53.902,529.606c0,0-162.565-33.412-215.611-67.324
			c78.533-149.287,150.5-347.479,159.709-485.843c9.71,7.711,20.276,14.137,31.699,19.063
			C2807.125,2593.062,2834.541,2592.276,2858.672,2586.208z"/>
		<path fill="#072778" d="M2858.672,2586.208c-0.643,11.924-1.355,23.633-2.07,35.197c-6.854,0.715-14.207,0.5-22.203-0.713
			c-31.128-4.926-53.117-24.773-68.039-46.121c4.569,2.641,9.353,4.998,14.207,7.139
			C2807.125,2593.062,2834.541,2592.276,2858.672,2586.208z"/>
		<path fill="#0A35A4" d="M3117.835,2582.925c11.209,204.974,34.626,353.403,54.116,532.89c0,0,162.566-33.412,215.541-67.324
			c-77.963-148.217-149.5-344.693-159.496-482.915C3194.156,2588.278,3156.674,2590.636,3117.835,2582.925z"/>
		<path fill="#072778" d="M3117.835,2582.925c0.643,11.852,1.285,23.416,1.999,34.912c36.91,5.068,73.75-4.498,97.525-45.836
			C3186.373,2588.636,3152.604,2589.851,3117.835,2582.925z"/>
		<path fill="#9AC2EB" d="M2720.453,2144.063c0,0,22.774,35.84,66.396,75.535c3.713,0.786,7.426,1.571,11.138,2.285
			c31.628,6.068,61.471,9.353,93.456,11.781c-5.783,22.773-7.854,40.98-8.426,61.826c2.214,1.928,4.142,3.785,5.926,5.498
			c4.998-6.211,9.854-12.566,14.422-19.063c4.927-6.926,14.779-21.348,16.635-29.699c2.428-10.711-1.07-26.417-4.283-36.627
			c-4.498-14.422-4.998-33.341,10.281-41.551c17.491-9.425,36.054,5.14,44.979,19.419c3.141,4.997,6.14,10.353,10.424,14.493
			c4.426,4.141,8.781,7.781,14.992,8.496c10.924,1.213,25.702-6.068,34.841-11.209c15.563-8.854,34.269-17.421,52.046-20.276
			c13.137-2.07,30.414-1.214,36.912,12.708c4.854,10.495-0.144,21.348-7.211,29.271c-1.428,1.643-2.999,3.213-4.641,4.713
			c27.415-2.642,54.33-6.426,81.532-12.066c43.622-39.695,66.325-75.535,66.325-75.535s-51.262-31.342-58.829-66.04
			c-7.567-34.697,8.14-85.888-4.641-144.146c-12.851-58.187-42.551-100.166-58.9-78.534c-16.349,21.562-33.198,60.543-33.198,60.543
			s8.781,4.926,20.848,15.563c4.783-11.352,14.564-34.341,20.061-44.907c3.499-6.711,8.496-5.568,13.779,1
			c-3.855,0.071-8.496,1.785-11.637,8.853c-4.283,9.853-11.78,29.844-15.85,40.909c5.997,5.854,12.565,12.994,19.134,21.49
			c22.989,29.985,28.2,75.321,28.2,75.321c-8.853-42.979-57.329-97.953-98.596-115.803l0,0
			c-68.824-36.625-136.078-11.494-171.275-36.268c0,19.633,23.774,48.405,61.828,45.835c-17.063,6.782-30.629,27.63-30.629,42.052
			c32.057-24.561,70.467-24.846,71.109-25.488c-7.925,6.568-19.276,28.201-16.706,42.837c13.708-16.421,26.345-22.918,42.337-25.345
			c-19.563,7.567-42.337,44.692-42.337,44.692s-7.782-9.139-8.496-21.704c-0.786-12.637,3.142-25.845,3.142-25.845
			s-12.137,1.499-27.63,9.496c-15.421,7.925-27.701,21.132-27.701,21.132s-6.282-13.778-4.784-28.058
			c1.5-14.207,7.926-24.917,7.926-24.917s-6.426-0.285-18.635-6.568c-5.068-2.642-10.566-7.21-15.207-11.565
			c-40.908,17.92-89.172,72.822-98.024,115.517c0,0,5.212-45.336,28.272-75.321c6.497-8.496,13.064-15.636,19.134-21.49
			c-4.069-11.065-11.565-31.057-15.921-40.909c-3.142-7.067-7.782-8.781-11.638-8.853c5.283-6.568,10.353-7.711,13.779-1
			c5.569,10.566,15.351,33.556,20.062,44.907c12.138-10.709,20.919-15.563,20.919-15.563s-16.921-38.981-33.198-60.543
			c-16.35-21.632-46.05,20.348-58.9,78.534c-12.852,58.258,2.927,109.448-4.641,144.146
			C2771.785,2112.721,2720.453,2144.063,2720.453,2144.063z M3083.137,2344.754l10.066-4.785l0.144-14.277
			c-4.498-1.928-7.068-5.713-7.497-11.852l-14.707,9.209l0,0c-2.355,7.926-6.711,15.279-13.637,21.918
			c-4.641,4.428-9.924,8.068-15.563,11.139c-5.997,3.213-12.208,5.783-18.563,8.281c-4.354,1.643-9.139,3.355-13.279,5.498
			c-2.927,1.498-6.282,4.926-9.781,9.424c6.997,1.355,13.993,2.713,20.99,4.068
			C3036.802,2372.025,3060.576,2355.676,3083.137,2344.754z M3071.285,2322.691c0.643-2.07,4.498-11.852,22.418-27.271
			c-0.5-16.422-2.07-32.129-5.568-49.262c-1.643,0.998-3.284,1.926-4.926,2.783c-17.85,9.781-1.143,16.564-7.996,38.197
			c-2.856,8.852-2.714,4.783-2,14.635C3073.713,2309.057,3073.142,2316.053,3071.285,2322.691z"/>
		<path fill="#FFFFFF" d="M2778.996,2000.273c1.071,30.414,4.855,57.045,0.357,77.749c-7.568,34.698-58.9,66.04-58.9,66.04
			C2813.623,2106.152,2792.633,2056.247,2778.996,2000.273z"/>
		<path fill="#FFFFFF" d="M3256.197,2144.063c0,0-51.262-31.342-58.829-66.04c-4.497-20.704-0.785-47.335,0.286-77.749
			C3184.018,2056.247,3163.1,2106.152,3256.197,2144.063z"/>
		<path fill="#FFFFFF" d="M3131.613,1959.722c-17.063-18.276-36.768-33.483-55.045-41.409l0,0
			c-68.824-36.625-136.078-11.494-171.275-36.268c0,0,10.995,24.773,70.752,24.773
			C3038.158,1906.89,3094.561,1933.021,3131.613,1959.722z M2906.863,1924.953c-2.57-1.999-5.068-4.213-7.354-6.354
			c-16.563,7.211-34.34,20.562-50.262,36.696C2874.808,1936.661,2906.863,1924.953,2906.863,1924.953L2906.863,1924.953z
			 M3007.602,1944.443c-7.925,6.568-19.276,28.201-16.706,42.837c4.069-17.349,19.205-46.406,39.267-46.835
			C3030.162,1940.445,3018.453,1936.732,3007.602,1944.443z M2967.121,1927.88c-17.063,6.782-30.629,27.63-30.629,42.052
			c14.208-24.632,38.768-45.479,69.11-39.268C3005.603,1930.664,2992.68,1920.598,2967.121,1927.88z"/>
		<path fill="#FFFFFF" d="M3177.807,1888.113c-14.208-31.557-32.414-48.049-43.979-32.771
			c-16.349,21.562-33.198,60.543-33.198,60.543s2.784,1.57,7.425,4.926c7.14-15.063,25.631-52.975,33.698-61.042
			C3148.392,1853.13,3164.955,1869.051,3177.807,1888.113z M2866.883,1922.025c5.641-4.141,9.21-6.14,9.21-6.14
			s-16.921-38.981-33.198-60.543c-11.78-15.563-30.343,1.714-44.693,34.27c9.996-16.063,19.49-28.058,26.488-29.843
			C2845.18,1854.415,2862.1,1905.962,2866.883,1922.025z"/>
		<path fill="#5396DC" d="M2720.453,2144.063c0,0,22.774,35.84,66.396,75.535c3.713,0.786,7.426,1.571,11.138,2.285
			c31.628,6.068,61.471,9.353,93.456,11.781c-5.783,22.773-7.854,40.98-8.426,61.826c2.214,1.928,4.142,3.785,5.926,5.498
			c4.998-6.211,9.854-12.566,14.422-19.063c4.927-6.926,14.779-21.348,16.635-29.699c1.714-7.426,0.5-17.277-1.428-26.061
			c-22.275-8.853-43.408-17.777-69.681-19.562C2794.988,2203.034,2720.453,2144.063,2720.453,2144.063z M2983.827,1966.361
			c0.856-4.354,1.714-7.282,1.714-7.282s-12.137,1.499-27.63,9.496c-3.284,1.713-6.497,3.641-9.425,5.64
			c0.286,6.854,1,13.922,4.713,19.491C2953.199,1993.706,2968.049,1974.5,2983.827,1966.361z M2927.497,1950.94
			c2.427-8.567,5.854-14.208,5.854-14.208s-6.426-0.285-18.635-6.568c-2.57-1.356-5.211-3.141-7.854-5.211
			C2910.861,1938.018,2920.072,1947.156,2927.497,1950.94z M3083.137,2344.754l10.066-4.785l0.144-14.277
			c-4.498-1.928-7.068-5.713-7.497-11.852l-14.707,9.209l0,0c-2.355,7.926-6.711,15.279-13.637,21.918
			c-4.641,4.428-9.924,8.068-15.563,11.139c-5.997,3.213-12.208,5.783-18.563,8.281c-4.354,1.643-9.139,3.355-13.279,5.498
			c-2.927,1.498-6.282,4.926-9.781,9.424c6.997,1.355,13.993,2.713,20.99,4.068
			C3036.802,2372.025,3060.576,2355.676,3083.137,2344.754z M3121.262,2200.321c2.928,9.639-1.785,19.349-8.281,26.63
			c-1.428,1.643-2.999,3.213-4.641,4.713c27.415-2.642,54.33-6.426,81.532-12.066c43.622-39.695,66.325-75.535,66.325-75.535
			s-52.547,41.48-114.374,51.476C3134.327,2196.752,3127.545,2198.394,3121.262,2200.321z M3071.285,2322.691
			c0.643-2.07,4.498-11.852,22.418-27.271c-0.5-16.422-2.07-32.129-5.568-49.262c-1.643,0.998-3.284,1.926-4.926,2.783
			c-17.85,9.781-1.143,16.564-7.996,38.197c-2.856,8.852-2.714,4.783-2,14.635
			C3073.713,2309.057,3073.142,2316.053,3071.285,2322.691z"/>
		<path fill="#9AC2EB" d="M2929.424,2211.245c3.213,10.352,7.997,29.415,4.642,44.194c-4.784,21.275-44.979,71.965-82.175,106.449
			c-37.197,34.555-72.895,85.814-72.895,85.814s1.5-15.277,7.211-28.486c5.641-13.207,15.707-25.486,15.707-25.486
			c-18.848-28.986-29.7-55.332-61.828-70.752c-14.85,7.854-37.839,28.842-41.837,83.674
			c-7.425,101.878,80.747,207.187,186.34,156.567c0,0-8.995-0.857-12.708-1.928c-3.642-1.143-4.07-1.428-4.07-1.428
			s29.844-14.564,47.691-44.693c17.921-30.129,57.973-142.431,87.959-158.067c18.92-9.852,61.898-15.635,54.83-59.686
			c-5.14,1.857-9.424,3.213-14.777,4.07c21.775-13.852,21.346-22.633,15.85-46.049c-5.355,2.07-10.781,4.496-15.85,7.354
			c0,0,11.779-14.994,32.841-26.488c58.615-32.128,28.986-56.402-38.054-18.563c-39.338,22.203-54.474,12.351-66.824,0.643
			c-5.783-5.498-9.211-11.709-12.709-17.278C2944.132,2177.689,2919.857,2180.545,2929.424,2211.245z"/>
		<path fill="#5396DC" d="M2702.033,2380.664c-1.785,7.711-3.07,16.279-3.784,25.988c-7.425,101.878,80.747,207.187,186.34,156.567
			c0,0-8.995-0.857-12.708-1.928c-3.642-1.143-4.07-1.428-4.07-1.428s29.844-14.564,47.691-44.693
			c17.921-30.129,57.973-142.431,87.959-158.067c18.92-9.852,61.898-15.635,54.83-59.686c0,0-8.281,21.275-52.688,34.984
			c-44.336,13.707-79.819,96.596-96.026,124.797c-16.206,28.2-41.123,43.835-36.268,37.839c4.783-5.926,4.712-18.062,4.712-18.062
			s-66.683,71.394-130.866,18.062C2716.24,2469.408,2705.174,2422.502,2702.033,2380.664z M2929.424,2211.245
			c3.213,10.352,7.997,29.415,4.642,44.194c-3.07,13.564-20.419,38.98-42.266,64.611c16.563-16.707,31.556-33.484,38.624-45.693
			c20.563-35.34,11.994-50.618,5.998-72.394c-2-7.354-1.429-12.565,0.143-16.35
			C2928.925,2186.257,2924.284,2194.753,2929.424,2211.245z M3043.514,2301.488c21.775-13.852,21.346-22.633,15.85-46.049
			c-1.285,0.498-2.57,1.07-3.855,1.57C3057.578,2272.002,3053.723,2290.064,3043.514,2301.488z M3043.514,2262.793
			c0,0,11.779-14.994,32.841-26.488c27.345-14.993,35.483-28.272,29.558-34.341c-1.928,5.854-8.281,13.851-25.203,23.56
			C3042.514,2247.371,3043.514,2262.793,3043.514,2262.793z"/>
		<path fill="#9AC2EB" d="M2992.752,2392.445c33.127,6.568,77.105,14.707,117.086,26.771c69.254,20.92,82.961,53.975,82.961,53.975
			c-3.998-21.703-15.707-35.125-30.771-45.264l0.929-2.998c16.563-49.691,38.696-92.742,90.6-108.449
			c68.039,58.9,37.696,289.005-143.931,250.952c13.279-1.143,14.207-4.641,18.276-6.141c0,0-58.972-5.498-114.802-52.904
			c-19.848-16.848-41.98-26.271-62.113-31.341c5.211-11.709,10.494-23.488,15.92-35.125
			C2971.047,2432.996,2981.899,2410.008,2992.752,2392.445z"/>
		<path fill="#5396DC" d="M3283.685,2375.811c17.134,88.1-32.485,221.249-174.06,191.622c13.279-1.143,14.207-4.641,18.276-6.141
			c0,0-58.972-5.498-114.802-52.904c-19.848-16.848-41.98-26.271-62.113-31.341c5.211-11.709,10.494-23.488,15.92-35.125
			c4.141-8.926,14.993-31.914,25.846-49.477c0,0-9.211,44.336,7.567,60.113c16.778,15.85,64.184,52.831,87.887,59.757
			c23.703,6.854,59.4,6.568,59.4,6.568c-5.069-4.213-10.067-8.426-14.993-12.922c0,0,69.039,24.701,120.015-37.554
			C3275.76,2440.137,3282.828,2405.367,3283.685,2375.811z"/>
		<path fill="#0A35A4" d="M3108.196,2403.367c-0.714-23.916-1.071-46.977-0.499-65.111c2.141-66.039-4.284-91.527-4.284-91.527
			c48.62-3.641,108.021-15.064,154.498-29.701c-11.565,28.916-20.99,43.48-37.769,68.682c-26.059,0.215-61.327,8.426-72.037,35.412
			c28.13-24.631,74.537-26.273,109.806-20.703c-62.827,14.92-89.601,62.826-108.591,120.014
			C3135.398,2412.436,3118.406,2406.367,3108.196,2403.367z"/>
		<path fill="#072778" d="M3108.196,2403.367c-0.143-5.496-0.285-10.922-0.429-16.205c12.424-0.143,22.99-1.215,30.7-3.785
			c12.065-3.855,22.632-8.496,31.913-13.35c-8.354,15.42-15.135,32.412-21.061,50.404
			C3135.398,2412.436,3118.406,2406.367,3108.196,2403.367z M3237.635,2258.508c-5.068,8.426-10.709,16.922-17.492,27.201
			c-18.776,0.145-42.408,4.498-58.115,16.992c1.857-3.713,11.139-19.49,37.982-31.342
			C3209.648,2267.146,3223.355,2262.648,3237.635,2258.508z"/>
		<path fill="#82B3E6" d="M3107.555,2373.453c-0.215-12.85-0.144-24.844,0.143-35.197c2.141-66.039-4.284-91.527-4.284-91.527
			c41.766-3.141,91.456-11.994,134.079-23.703l0.285,0.143c0,0-40.552,14.137-73.393,22.133
			c-32.842,7.924-47.406,9.139-47.406,9.139S3119.334,2319.766,3107.555,2373.453z M3219.287,3105.105
			c52.332-12.566,133.65-34.484,168.205-56.615c-77.963-148.217-149.5-344.693-159.496-482.915
			c-0.428,0.285-0.856,0.572-1.213,0.857c-7.14,157.64,143.217,480.915,143.217,480.915
			C3344.655,3066.623,3271.119,3089.184,3219.287,3105.105z M3165.17,2309.842c27.629-13.709,63.897-13.994,92.741-9.424
			c-6.854,1.641-13.28,3.641-19.349,6.068C3208.363,2299.561,3179.234,2305.771,3165.17,2309.842z"/>
		<path fill="#0A35A4" d="M2868.596,2322.764c-0.785-54.545,4.713-76.035,4.713-76.035c-48.619-3.641-108.02-15.064-154.569-29.701
			c11.565,28.916,21.062,43.48,37.839,68.682c25.988,0.215,61.328,8.426,71.966,35.412c-28.13-24.631-74.464-26.273-109.805-20.703
			c47.835,11.352,74.821,41.836,93.313,80.961v-0.715c3.998-4.498,7.997-8.852,11.995-13.137
			c5.568-5.854,11.279-11.564,17.205-17.063c8.781-8.139,17.207-16.635,25.273-25.416
			C2867.24,2324.264,2867.883,2323.549,2868.596,2322.764z"/>
		<path fill="#072778" d="M2799.915,2359.104c4.427,7.068,8.425,14.492,12.137,22.275v-0.715c3.998-4.498,7.997-8.852,11.995-13.137
			l0.855-0.855C2815.693,2365.457,2807.269,2362.674,2799.915,2359.104z M2738.943,2258.295
			c5.069,8.496,10.709,17.063,17.635,27.414c19.134,0.215,43.337,4.641,59.043,17.777l0,0c0,0-7.781-18.633-38.338-32.127
			C2767.502,2267.076,2753.508,2262.506,2738.943,2258.295z"/>
		<path fill="#82B3E6" d="M2868.596,2322.764c-0.785-54.545,4.713-76.035,4.713-76.035c-41.766-3.141-91.457-11.994-134.15-23.703
			l-0.215,0.143c0,0,40.481,14.137,73.322,22.133c32.842,7.924,47.406,9.139,47.406,9.139s-1.213,35.125,2.713,75.035
			c1.428-1.5,2.785-2.928,4.141-4.426C2867.24,2324.264,2867.883,2323.549,2868.596,2322.764z M2761.79,3106.176
			c-51.976-12.352-137.006-34.912-172.632-57.686c78.533-149.287,150.5-347.479,159.709-485.843
			c9.281,156.499-143.074,484.058-143.074,484.058C2631.994,3066.695,2709.814,3090.184,2761.79,3106.176z M2811.48,2309.842
			c-27.629-13.709-63.898-13.994-92.741-9.424c6.925,1.641,13.351,3.641,19.348,6.068
			C2768.287,2299.561,2797.416,2305.771,2811.48,2309.842z"/>
		<path fill="#136ECF" d="M3155.316,1887.542c-3.855,0.071-8.496,1.785-11.637,8.853c-4.283,9.853-11.78,29.844-15.85,40.909
			c5.997,5.854,12.565,12.994,19.134,21.49c12.208,15.992,19.419,36.269,23.489,51.761c8.21-35.055,8.496-70.609-5.069-104.308
			C3162.1,1898.18,3158.672,1891.754,3155.316,1887.542z"/>
		<g>
			<path d="M3086.136,2009.912c3.427,4.855,5.569,11.28,5.569,18.349c0,15.064-9.639,27.272-21.49,27.272
				s-21.418-12.208-21.418-27.272c0-1.643,0.07-3.213,0.285-4.783c-4.926,5.568-8.281,10.566-11.209,11.852
				c-15.707,6.496,3.284-43.837,39.268-41.552c23.702,1.499,37.768,21.275,37.481,29.414c-0.286,8.067-6.711,4.141-13.922-3.355
				C3097.131,2016.123,3092.133,2012.125,3086.136,2009.912z"/>
			<path fill="#FFFFFF" d="M3075.641,2008.271c0.215,1.142,0.357,2.355,0.357,3.641c0,5.641-2.57,10.21-5.783,10.21
				c-3.142,0-5.712-4.569-5.712-10.21c0-0.214,0-0.356,0-0.571c0.214-0.071,0.429-0.214,0.643-0.285
				C3068.787,2009.27,3072.285,2008.484,3075.641,2008.271z"/>
			<path d="M2890.586,2009.912c-3.498,4.855-5.568,11.28-5.568,18.349c0,15.064,9.566,27.272,21.418,27.272
				s21.49-12.208,21.49-27.272c0-1.643-0.143-3.213-0.357-4.783c4.998,5.568,8.281,10.566,11.28,11.852
				c15.707,6.496-3.355-43.837-39.267-41.552c-23.703,1.499-37.84,21.275-37.554,29.414c0.285,8.067,6.782,4.141,13.993-3.355
				C2879.592,2016.123,2884.589,2012.125,2890.586,2009.912z"/>
			<path fill="#FFFFFF" d="M2901.081,2008.271c-0.286,1.142-0.429,2.355-0.429,3.641c0,5.641,2.642,10.21,5.783,10.21
				c3.213,0,5.783-4.569,5.783-10.21c0-0.214,0-0.356,0-0.571c-0.215-0.071-0.429-0.214-0.643-0.285
				C2907.863,2009.27,2904.365,2008.484,2901.081,2008.271z"/>
		</g>
		<path d="M2889.943,2106.58c42.693-8.567,52.475-41.623,98.382-41.623c45.978,0,55.759,33.056,98.453,41.623
			c-39.481-19.99-51.476-52.403-98.453-52.403C2941.419,2054.177,2929.424,2086.59,2889.943,2106.58z"/>
		<path fill="#136ECF" d="M2821.333,1887.542c3.855,0.071,8.496,1.785,11.638,8.853c4.355,9.853,11.852,29.844,15.921,40.909
			c-6.069,5.854-12.637,12.994-19.134,21.49c-12.279,15.992-19.49,36.269-23.561,51.761c-8.21-35.055-8.424-70.609,5.141-104.308
			C2814.551,1898.18,2817.978,1891.754,2821.333,1887.542z"/>
		<path fill="#136ECF" d="M3033.446,2385.877c17.491-10.781,38.91-23.275,59.614-33.627c-0.214,15.777,0.143,31.699,0.643,47.406
			C3073.784,2394.373,3053.65,2389.945,3033.446,2385.877z"/>
		<path fill="#82B3E6" d="M3033.446,2385.877c17.491-10.781,38.91-23.275,59.614-33.627c-0.071,3.355-0.071,6.639-0.071,9.994
			c-14.993,8.139-30.2,18.42-42.265,27.201C3044.941,2388.232,3039.229,2387.02,3033.446,2385.877z"/>
		<path d="M2956.34,2082.734c-7.067,10.281,14.279,21.348,23.561,26.773c2.713,1.642,5.568,2.355,8.425,2.428
			c2.855-0.072,5.712-0.786,8.495-2.428c9.282-5.426,30.558-16.492,23.561-26.773
			C3013.599,2072.739,2963.123,2072.739,2956.34,2082.734z"/>
		<path fill="#FFFFFF" d="M2938.063,2082.449c38.41-17.492,67.183-15.778,101.38,0.571c-13.707-9.496-27.772-18.063-51.118-18.063
			C2965.479,2064.957,2951.557,2073.168,2938.063,2082.449z"/>
		<path fill="#FFFFFF" d="M3097.201,2198.68c-11.708-1.143-32.342,4.069-58.9,19.063c-39.338,22.203-54.474,12.351-66.824,0.643
			c-5.783-5.498-9.211-11.709-12.709-17.278c-4.712-7.567-10.424-12.351-15.635-14.421c0.214,0.285,14.064,17.634,22.988,36.411
			c8.996,18.919,31.057,28.772,67.325,4.497C3055.578,2212.815,3079.496,2202.392,3097.201,2198.68z M2796.631,2400.869
			c2.998-4.355,5.283-7.139,5.283-7.139c-7.996-12.281-14.493-24.061-21.847-34.699L2796.631,2400.869z M3057.363,2405.652
			c17.42,3.928,35.341,8.354,52.475,13.564c46.264,13.994,67.754,33.414,76.893,44.766c-4.783-4.07-15.207-11.852-37.482-23.846
			C3130.758,2430.141,3090.848,2416.434,3057.363,2405.652z M3170.024,2433.996c-2.499-2.143-5.212-4.141-7.997-6.068l0.929-2.998
			c8.353-25.131,18.206-48.549,32.556-67.611C3182.947,2382.877,3173.236,2420.789,3170.024,2433.996z M3242.918,2320.266
			c3.428-1.43,6.926-2.643,10.638-3.785c9.995,8.711,17.849,21.063,23.489,35.77
			C3267.121,2338.686,3254.127,2327.904,3242.918,2320.266z M2748.368,2327.477c-2.642-1.572-5.354-3.07-8.282-4.498
			c-10.424,5.568-24.846,17.49-33.912,43.121C2720.453,2339.756,2738.516,2333.188,2748.368,2327.477z"/>
		<g>
			<path d="M2590.371,2097.656c21.205-23.132,52.547-10.21,61.686-29.7c9.139-19.491,41.052-24.774,60.471-27.701
				c19.42-2.855,48.264-4.212,47.835,3.498c-0.5,7.711,4.284,23.489,7.854,33.556c3.569,10.138-14.993,60.971-20.49,109.805
				s24.488,40.409,37.411,71.109c12.993,30.771,12.707,65.826,37.695,100.096c1.571,2.07,2.999,4.068,4.427,5.926
				c-1.071,1.07-2.142,2.213-3.212,3.283c-9.639,10.211-16.922,21.063-25.988,31.271c-12.565-11.924-24.56-20.705-38.41-28.059
				c-34.983-18.633-51.904-6.996-87.744-46.691c-35.911-39.768-79.391-40.623-69.895-51.477
				c9.424-10.852,23.488-26.701,56.758-13.207c33.342,13.494,47.764-1.07,20.919-26.986c-26.772-25.989,17.563-60.615-28.272-57.474
				c-45.835,3.142-59.828,30.699-92.67,41.837c-32.77,11.138-69.039,20.92-65.754,12.137
				C2508.768,2187.185,2562.1,2128.427,2590.371,2097.656z M3026.878,2536.519c4.927,13.922,12.708,36.34,27.772,58.4
				c14.564,21.203,33.698,46.191,57.688,73.965c53.974,62.614,84.103,74.036,108.662,125.228
				c24.56,51.26,47.264,84.174,41.338,102.236s-60.758-67.469-152.214-168.635c-51.403-56.759-66.04-64.185-102.737-85.317
				c-28.629-16.492-51.475-25.131-66.468-30.484c-18.419-6.641-18.491-6.926-25.345-29.344c-1.428-4.926-3.641-11.066-6.283-17.92
				c-21.133-14.637,2.143-22.988,15.279-45.121c9.566-16.064,14.992-35.697,36.768-27.631
				C3006.316,2508.603,3019.453,2525.81,3026.878,2536.519z"/>
			<path fill="#4D4D4D" d="M2590.371,2097.656c21.205-23.132,52.547-10.21,61.686-29.7c9.139-19.491,41.052-24.774,60.471-27.701
				c17.563-2.642,42.838-3.927,47.192,1.499c-8.21,2.285-35.269,0.929-52.118,4.427c-22.203,4.641-44.479,11.852-50.404,22.703
				c-5.926,10.924-10.281,10.21-30.629,16.636c-7.281,2.284-18.134,5.426-22.418,7.639c-7.996,4.069-21.203,18.42-30.342,30.414
				c-5.212,6.854-3.428,10.424-9.067,14.351c-17.991,12.494-37.482,42.408-49.976,56.33c-9.425,10.495-18.135,28.13-21.848,36.269
				c-0.214-0.429-0.143-1,0.072-1.643C2508.768,2187.185,2562.1,2128.427,2590.371,2097.656z"/>
			<path fill="#4D4D4D" d="M2600.867,2274.43c0.214-0.572,0.57-1.215,1.143-1.857c9.424-10.852,23.488-26.701,56.758-13.207
				c33.342,13.494,47.764-1.07,20.919-26.986c-19.776-19.135-0.786-43.052-7.925-52.976c5.854,4.212,7.068,13.493,6.782,25.06
				c-0.429,15.563,1.429,21.989,11.066,30.129c13.351,11.209,11.495,22.131,8.567,29.699c-3.855,9.854-14.351,7.996-28.415,8.568
				c-9.353,0.355-17.349,4.996-24.06-0.072c-8.639-6.496-23.418-9.424-37.055-0.928
				C2605.365,2273.93,2602.795,2274.572,2600.867,2274.43z M2748.582,2180.474c-0.357,2.214-0.643,4.427-0.856,6.64
				c-5.497,48.834,24.488,40.409,37.411,71.109c12.993,30.771,12.707,65.826,37.695,100.096c1.571,2.07,2.999,4.068,4.427,5.926
				c-1.071,1.07-2.142,2.213-3.212,3.283c-1.143,1.285-2.357,2.57-3.499,3.855c-12.351-15.777-22.274-29.984-27.059-39.338
				c-16.063-31.699-16.349-70.109-40.694-92.17C2728.449,2217.885,2748.582,2180.474,2748.582,2180.474L2748.582,2180.474z
				 M3032.447,2551.796c4.926,12.637,11.852,27.916,22.203,43.123c14.564,21.203,33.698,46.191,57.688,73.965
				c53.974,62.614,84.103,74.036,108.662,125.228c6.854,14.42,13.637,27.344,19.633,38.908
				c-42.408-69.322-78.676-99.309-123.44-143.646C3062.933,2635.685,3032.447,2551.796,3032.447,2551.796L3032.447,2551.796z"/>
			<path fill="#82B3E6" d="M2595.584,2173.334c2.713-4.783,5.996-15.492,12.208-19.919c7.497-5.354,45.122-39.409,54.046-39.481
				c8.924-0.143,43.908-8.139,57.9-13.207c13.994-5.069,15.422-4.213,8.925,4.354s-21.489,28.059-33.056,42.266
				c-11.566,14.279-14.707,18.705-24.56,18.063c-20.062-1.356-29.272-5.14-48.905,2.57c-8.281,3.213-17.992,7.068-23.061,9.924
				C2594.441,2180.545,2590.943,2181.474,2595.584,2173.334z M2593.371,2150.273c-1.571-1.998-12.494-5.782-19.563-7.425
				c-4.213-0.999-4.855-0.999-8.139,2.07c-8.711,7.997-27.131,32.413-35.341,44.836c-9.567,14.564-16.421,20.776-7.282,18.491
				c9.21-2.213,35.911-14.85,44.979-19.99c8.996-5.141,16.35-12.209,19.42-18.705
				C2590.158,2163.91,2595.798,2153.272,2593.371,2150.273z M2582.09,2135.566c7.854,2.928,20.205,9.067,25.131,6.997
				c4.855-1.999,44.765-36.055,63.684-51.761c18.92-15.636,32.914-22.562,49.191-28.915c16.207-6.426,19.919-10.638,12.494-10.139
				c-7.496,0.571-54.332,6.212-64.112,13.065c-9.853,6.926-12.993,18.563-28.272,24.703c-15.207,6.068-38.195,8.924-43.408,13.993
				c-3.783,3.712-10.923,14.136-14.422,19.419C2579.52,2127.143,2574.379,2132.711,2582.09,2135.566z M2675.188,2103.725
				c7.854-2.142,40.838-12.208,49.548-15.707c8.71-3.498,17.849-8.496,20.633-12.708c2.785-4.212,7.64-18.349,4.141-18.42
				c-3.498-0.143-34.555,15.921-50.689,22.561c-12.637,5.141-26.273,17.706-31.628,22.847
				C2661.053,2108.223,2672.404,2104.51,2675.188,2103.725z"/>
			<path fill="#136ECF" d="M2729.162,2104.438c-0.213,0.214-0.356,0.429-0.499,0.643c-6.497,8.567-21.489,28.059-33.056,42.266
				c-11.566,14.279-14.707,18.705-24.56,18.063c-20.062-1.356-29.272-5.14-48.905,2.57c-8.281,3.213-17.992,7.068-23.061,9.924
				c-1.57,0.929-2.998,1.571-3.998,1.785c2.498-1.356,5.854-3.569,10.209-7.068c12.709-10.209,18.777-16.991,29.986-16.991
				c11.28,0,34.77,2.855,40.695,0C2680.329,2153.559,2712.671,2121.073,2729.162,2104.438z M2523.975,2208.032
				c3.213-1.428,7.64-4.069,13.637-8.925c14.493-11.779,43.266-28.415,48.263-34.626c3.213-3.998,6.282-9.639,7.996-13.065
				c0.856,3.927-3.998,13.065-6.425,18.135c-3.07,6.496-10.424,13.564-19.42,18.705
				C2559.244,2193.254,2533.827,2205.248,2523.975,2208.032z M2584.16,2136.352c6.641,0.286,17.135,0.357,21.848-2.07
				c7.139-3.641,42.122-29.414,50.689-38.124c8.639-8.711,22.347-19.705,33.698-24.203c6.925-2.784,22.204-7.854,32.913-11.423
				c-1,0.428-2.07,0.856-3.213,1.356c-16.277,6.354-30.271,13.279-49.191,28.915c-18.919,15.706-58.828,49.762-63.684,51.761
				C2602.723,2144.42,2591.942,2139.422,2584.16,2136.352z M2679.4,2102.511c8.854-3.784,20.919-8.781,31.057-12.637
				c18.635-6.997,30.557-13.351,32.842-16.777c1.5-2.356,5.141-9.853,7.211-15.422c1.214,3.07-2.713,13.993-5.141,17.635
				c-2.784,4.212-11.923,9.21-20.633,12.708C2717.168,2091.017,2691.182,2099.084,2679.4,2102.511z"/>
			<path fill="#FFFFFF" d="M2518.977,2206.818c0.5,0.285,1.429,0,3-1.143c7.424-5.354,40.48-49.69,43.906-52.688
				c3.499-3.07,7.783,2.642,11.995,7.139c4.284,4.427,6.354,3.999,9.638-0.785c2.285-3.284,5.069-6.996,5.569-9.424
				c-2.428-1.999-12.638-5.497-19.276-7.068c-4.213-0.999-4.855-0.999-8.139,2.07c-8.711,7.997-27.131,32.413-35.341,44.836
				C2524.617,2198.394,2519.905,2204.105,2518.977,2206.818z M2595.584,2173.334c2.713-4.783,5.996-15.492,12.208-19.919
				c7.497-5.354,45.122-39.409,54.046-39.481c8.924-0.143,43.908-8.139,57.9-13.207c5.641-2.071,9.211-3.142,11.066-3.142
				c-0.285,0.856-1.07,1.856-2.428,2.927c-3.569,2.713-39.48,25.988-44.764,29.415c-5.283,3.498-15.064-4.213-19.776-6.64
				c-4.712-2.428-33.127,20.775-42.337,26.201c-9.281,5.426-14.207,11.78-22.775,23.561c-2.641,3.641-4.283,4.926-5.283,4.926
				C2593.728,2176.976,2594.37,2175.477,2595.584,2173.334z M2665.907,2103.725c1.642,0.071,4.284-0.643,8.425-3.213
				c9.424-5.854,16.92-12.065,35.126-19.49c18.206-7.426,31.771-10.353,35.911-17.277c1.856-2.999,2.999-5.283,3.428-6.783
				c-5.855,1.428-34.627,16.207-49.977,22.489c-12.637,5.141-26.273,17.706-31.628,22.847
				C2666.621,2102.868,2666.193,2103.296,2665.907,2103.725z M2579.448,2134.139c1.714-0.785,3.713-2.142,5.854-4.641
				c6.068-6.925,11.066-12.494,24.56-18.134c13.423-5.569,35.769-12.209,43.837-22.775c8.139-10.638,11.352-17.277,18.49-18.063
				c6.354-0.714,58.258-13.137,62.756-18.706c-0.57-0.143-1.355-0.143-2.355-0.071c-7.496,0.571-54.332,6.212-64.112,13.065
				c-9.853,6.926-12.993,18.563-28.272,24.703c-15.207,6.068-38.195,8.924-43.408,13.993c-3.783,3.712-10.923,14.136-14.422,19.419
				C2579.948,2126.5,2575.879,2131.068,2579.448,2134.139z"/>
			<path fill="#82B3E6" d="M3032.375,2629.116c-7.139-6.283-15.635-14.922-20.847-22.988
				c-10.067-15.564-32.342-45.551-35.341-49.834c-2.998-4.213,6.997,2.713,26.631,10.066c19.633,7.354,22.846,6.211,31.199,19.563
				c8.281,13.422,24.061,47.477,35.055,64.684C3078.996,2666.313,3036.303,2632.544,3032.375,2629.116z M2914.074,2542.015
				c5.641,14.137,10.639,26.203,15.992,40.98c5.998,16.779,18.135,12.994,46.979,27.844c28.771,14.852,36.411,14.994,10.494-20.703
				c-15.35-21.133-38.98-48.191-57.829-68.324c-0.286,0.428-0.499,0.855-0.785,1.285
				C2924.07,2531.378,2918.572,2537.446,2914.074,2542.015z M2934.922,2511.601c2.07,2,4.069,4.07,6.068,6.068
				c16.278,16.137,33.77,24.061,49.548,30.986c15.85,6.854,28.415,9.924,24.417-0.5c-3.998-10.494-6.854-26.773-19.919-29.844
				c-10.138-2.426-33.198-10.066-51.618-19.49C2939.99,2501.892,2937.492,2506.532,2934.922,2511.601z"/>
			<path fill="#136ECF" d="M3032.375,2629.116c-3.783-3.355-7.996-7.354-11.852-11.637c8.068,5.141,20.563,12.564,24.774,14.279
				c4.712,1.998-2.57-22.49-8.21-40.553c8.71,15.564,22.275,44.121,31.984,59.4
				C3078.996,2666.313,3036.303,2632.544,3032.375,2629.116z M2937.35,2593.562c4.783,1.785,14.207-8.496,19.919-5.496
				c5.782,2.998,32.056,15.992,32.198,13.492c0.072-2.57-9.281-19.205-14.35-27.557c4.498,5.568,8.71,11.064,12.422,16.135
				c25.917,35.697,18.277,35.555-10.494,20.703C2956.769,2600.417,2944.774,2599.132,2937.35,2593.562z M2956.626,2530.663
				c3.998,1.072,21.632,8.854,27.558,11.066c7.568,2.785,14.208-2.355,17.135-4.355c4.07-2.713,4.998-4.854,3.285-12.994
				c5.354,6.568,7.567,16.492,10.352,23.775c3.998,10.424-8.567,7.354-24.417,0.5
				C2979.758,2543.942,2968.121,2538.731,2956.626,2530.663z"/>
			<path fill="#FFFFFF" d="M3012.242,2607.198c-0.215-0.357-0.5-0.713-0.714-1.07c-10.067-15.564-32.342-45.551-35.341-49.834
				c-2.998-4.213,6.997,2.713,26.631,10.066c13.137,4.926,18.92,5.998,23.846,10.281c1,2.57,0.071,4.641-5.568,4.141
				c-11.352-1.143-18.135-0.785-14.779,9.424C3007.744,2594.704,3010.101,2601.272,3012.242,2607.198z M2971.119,2569.003
				c-13.208-16.207-28.486-33.342-41.409-47.191c-0.286,0.428-0.499,0.855-0.785,1.285c-1.928,3.355-3.998,6.281-6.068,8.994
				c2.284,2.357,5.14,5.498,7.925,8.711C2939.634,2550.94,2960.338,2560.649,2971.119,2569.003z M2914.074,2542.015
				c5.426,13.566,11.066,27.346,15.992,40.98c1.215,3.428,2.643,5.998,4.498,7.996c0,0-2.998-6.996-5.068-17.205
				c-1.713-8.639-7.354-28.344-10.281-37.34C2917.43,2538.517,2915.717,2540.374,2914.074,2542.015z M2945.346,2521.739
				c-3.355-5.283-5.283-8.211-8.211-13.137c-2.927-4.998,32.057,20.848,39.268,20.063c7.282-0.857,22.346-6.498,23.274-8.568
				c-1.428-0.785-2.927-1.428-4.641-1.785c-10.138-2.426-33.198-10.066-51.618-19.49c-3.428,3.07-5.926,7.711-8.496,12.779
				c2.07,2,4.069,4.07,6.068,6.068C2942.49,2519.097,2943.918,2520.454,2945.346,2521.739z"/>
		</g>
		<path fill="#9AC2EB" d="M2837.896,3271.24c0,0-24.846-7.496-32.056,4.498c-7.14,11.994-7.711,34.769,2.927,37.196
			c10.709,2.355,50.119,6.996,59.472-7.498c7.068-10.993,32.771-143.716,44.979-207.899c-29.7-4.141-58.972-10.066-89.314-15.92
			c-0.429,3.283-4.497,31.199-5.854,53.33c-8.853-1.998-19.49-4.354-31.271-6.996c-2.428,17.064-5.283,34.984-8.71,50.547
			c-10.066,46.836-14.922,69.039-14.922,69.039s11.852-5.711,22.561-2.998s12.566,11.066,12.566,11.066
			s-34.056-13.209-42.552,15.277c-8.567,28.559,4.569,37.267,13.137,39.624c8.567,2.428,19.491,1.641,19.491,1.641
			s-4.927-38.052,9.852-46.476C2812.98,3257.246,2830.758,3262.674,2837.896,3271.24z M2746.939,3260.531
			c0,0-7.139,6.496-8.639,19.705c-1.57,13.207,3.57,25.058,3.57,25.058s-18.777,2.643-22.846-8.28
			C2715.027,3286.09,2721.452,3258.746,2746.939,3260.531z"/>
		<path fill="#5396DC" d="M2801.199,3289.518c-1.713,10.708,0.357,21.774,7.568,23.417c10.709,2.355,50.119,6.996,59.472-7.498
			c7.068-10.993,32.771-143.716,44.979-207.899c-29.7-4.141-58.972-10.066-89.314-15.92c-0.143,1.141-0.785,5.283-1.499,11.064
			c33.698,5.998,57.973,17.707,61.613,21.205c6.141,5.998-12.708,93.885-21.918,132.865c-9.281,39.053-9.496,47.406-35.84,48.334
			C2813.766,3295.514,2805.912,3292.658,2801.199,3289.518z M2752.938,3287.018c-0.215,15.921,9.209,21.632,15.921,23.489
			c8.567,2.428,19.491,1.641,19.491,1.641s-1.785-13.563-0.072-26.343c-4.355,1.713-11.352,3.428-21.989,3.285
			C2760.291,3289.018,2756.008,3288.16,2752.938,3287.018z M2718.597,3283.307c0.785,0.428,1.57,0.713,2.427,0.998
			c7.14,1.928,12.923,0.857,16.992-0.855c-0.428,11.852,3.855,21.845,3.855,21.845s-18.777,2.643-22.846-8.28
			C2717.811,3293.586,2717.525,3288.59,2718.597,3283.307z"/>
		<path fill="#9AC2EB" d="M3138.754,3271.24c0,0,24.916-7.496,32.056,4.498s7.782,34.769-2.927,37.196
			c-10.709,2.355-50.048,6.996-59.4-7.498c-7.068-10.993-32.842-143.716-44.979-207.899c29.699-4.141,58.972-10.066,89.314-15.92
			c0.428,3.283,4.498,31.199,5.854,53.33c8.854-1.998,19.42-4.354,31.271-6.996c2.355,17.064,5.283,34.984,8.639,50.547
			c10.139,46.836,14.992,69.039,14.992,69.039s-11.851-5.711-22.561-2.998c-10.78,2.713-12.637,11.066-12.637,11.066
			s34.056-13.209,42.623,15.277c8.567,28.559-4.569,37.267-13.208,39.624c-8.567,2.428-19.419,1.641-19.419,1.641
			s4.926-38.052-9.854-46.476C3163.742,3257.246,3145.893,3262.674,3138.754,3271.24z M3229.781,3260.531
			c0,0,7.14,6.496,8.639,19.705c1.5,13.207-3.641,25.058-3.641,25.058s18.848,2.643,22.846-8.28
			C3261.623,3286.09,3255.27,3258.746,3229.781,3260.531z"/>
		<path fill="#5396DC" d="M3175.521,3289.518c1.713,10.708-0.357,21.774-7.639,23.417c-10.709,2.355-50.048,6.996-59.4-7.498
			c-7.068-10.993-32.842-143.716-44.979-207.899c29.699-4.141,58.972-10.066,89.314-15.92c0.143,1.141,0.714,5.283,1.499,11.064
			c-33.77,5.998-58.044,17.707-61.613,21.205c-6.212,5.998,12.708,93.885,21.918,132.865c9.21,39.053,9.424,47.406,35.769,48.334
			C3162.956,3295.514,3170.738,3292.658,3175.521,3289.518z M3223.784,3287.018c0.214,15.921-9.281,21.632-15.992,23.489
			c-8.567,2.428-19.419,1.641-19.419,1.641s1.713-13.563,0-26.343c4.354,1.713,11.423,3.428,22.061,3.285
			C3216.431,3289.018,3220.715,3288.16,3223.784,3287.018z M3258.054,3283.307c-0.714,0.428-1.571,0.713-2.427,0.998
			c-7.141,1.928-12.923,0.857-16.992-0.855c0.5,11.852-3.855,21.845-3.855,21.845s18.848,2.643,22.846-8.28
			C3258.91,3293.586,3259.125,3288.59,3258.054,3283.307z"/>
		<path d="M2988.325,2140.707c-14.778,4.783-31.128,10.066-43.622,18.776c4.069-17.563,27.629-24.631,43.622-30.842
			c16.063,6.211,39.552,13.279,43.693,30.842C3019.453,2150.773,3003.176,2145.49,2988.325,2140.707z"/>
	</g>
</g>
</svg>
