<?xml version="1.0" encoding="utf-8"?>
<!-- Generator: Adobe Illustrator 16.0.0, SVG Export Plug-In . SVG Version: 6.00 Build 0)  -->
<!DOCTYPE svg PUBLIC "-//W3C//DTD SVG 1.1//EN" "http://www.w3.org/Graphics/SVG/1.1/DTD/svg11.dtd">
<svg version="1.1" id="Layer_1" xmlns="http://www.w3.org/2000/svg" xmlns:xlink="http://www.w3.org/1999/xlink" x="0px" y="0px"
	 width="2200px" height="2200px" viewBox="7641.943 -1223.931 2200 2200" enable-background="new 7641.943 -1223.931 2200 2200"
	 xml:space="preserve">
<g id="Layer_x0020_1">
	<g id="_509296336">
		<path d="M9091.325-304.85c14.9,1.341,31.068,1.267,44.553-0.521l32.26-4.321l-15.124,28.833
			c-15.497,29.279-24.214,69.734-25.927,102.664c-2.607,50.96,9.313,108.923,65.488,123.823l15.422,4.173l-5.216,24.66
			c-10.952-2.683-23.021,0.969-36.878,14.603c-8.494,8.27-16.168,17.806-24.214,26.597c-24.064,26.449-49.172,46.341-84.561,55.355
			l-8.866,2.235l-6.631-6.184c-43.807-40.157-66.307-92.458-67.723-151.538c-0.819-34.793,6.482-78.451,22.053-109.966
			c6.333-12.814,12.367-25.853,17.807-39.04c5.886-14.304,11.622-29.801,14.9-44.925c1.117-5.29,3.576-19.072,1.043-24.139
			c-5.215-10.505-23.617-17.508-34.719-19.147l-38.368-5.588l25.032-19.966c0.075-2.012,0-4.023,0-5.737
			c-0.074-6.332-0.297-12.665-0.596-18.998c-0.074-1.788-0.148-3.502-0.223-5.289c-0.075,0.074-0.15,0.074-0.225,0.074
			l-44.701,16.539l24.438-40.901c3.873-6.482,7.971-12.89,11.846-19.445c2.384-4.098,7.822-13.038,9.015-17.434l2.905-11.548
			l11.846-1.118c22.202-2.011,47.905-2.607,70.033,0.075c9.982,1.191,20.041,2.234,30.023,2.831
			c2.608,0.148,5.588,0.372,8.121,0.298l29.279-0.596l-14.229,25.554C9097.286-383.599,9092.442-347.391,9091.325-304.85z
			 M8532.481-336.141l9.462,2.012l2.683,9.908c5.289,19.818,4.32,49.247,2.012,69.213l-2.087,18.402l-18.104-3.874
			c-28.236-6.034-58.335-17.136-80.463-36.134l-9.982-13.932l7.972-9.611c15.198-18.104,41.796-34.569,63.401-43.063l7.897-3.055
			l7.227,4.545c1.788,1.117,3.576,2.235,5.364,3.278C8529.129-337.705,8530.991-336.662,8532.481-336.141z"/>
		<path d="M8389.81-516.288c14.751-17.434,31.813-33.228,50.065-46.862c42.987-32.185,50.886-17.136,64.37-77.706
			c20.711-92.606,10.058-106.613,80.389-179.029c60.422-62.21,136.563-122.632,221.645-145.504
			c26.225-7.077,59.155-14.751,86.498-13.857c18.104,0.521,39.859,6.184,43.882,26.896c3.65,18.774-12.89,34.048-25.704,44.999
			c-5.513,4.769-14.304,11.25-18.699,16.764c-11.623,14.305-12.964,30.546-17.359,48.352c-6.705,26.598-11.846,32.558-7.525,42.69
			c8.866,20.712,11.771,39.934,14.379,66.232c13.858-2.011,29.057-2.607,43.063-2.905c37.178-0.745,74.801,1.862,111.605,6.929
			c23.319,3.204,24.586,6.631,45.969-2.757c62.061-27.193,143.566-3.277,105.123,75.099c-16.465,33.452-49.693,65.712-77.707,89.553
			c-39.784,33.973-81.207,65.189-126.431,91.638c-58.112,33.974-119.278,58.038-183.574,77.632
			c-27.343,8.345-55.505,14.379-83.741,18.7c-52.449,8.121-106.688,10.952-159.733,9.611c-21.308-0.597-42.69-1.863-63.849-4.173
			c-1.49-0.148-2.98-0.298-4.471-0.446c0.447,0.819,0.895,1.564,1.342,2.384l10.729,19.594l-21.755,4.917
			c-40.679,9.164-83.368,7.897-123.601-3.203c-31.439-8.643-67.723-24.586-86.646-52.599c-12.963-19.147-16.763-45-0.596-63.625
			c6.258-7.152,14.975-10.505,24.512-11.697C8338.179-484.103,8358.741-479.559,8389.81-516.288z"/>
		<path fill="#EB0032" d="M8474.593-363.93c-26.522,5.96-67.723,10.132-115.404-2.98c-83.518-23.021-96.033-69.511-79.047-89.03
			c17.061-19.521,85.305,7.673,155.859,27.044c27.715,7.6,122.482,28.758,182.158,9.462c-71.225,4.247-122.631-7.003-188.789-27.119
			c-45.148-13.634-79.718-23.841-79.718-23.841s20.041,3.949,53.046-35.016c33.004-39.04,69.957-59.528,69.957-59.528
			s-7.227,16.987-15.272,27.045c-7.972,9.983-11.474,11.474-11.474,11.474s53.791-16.764,74.727-110.786
			c21.01-93.947,9.015-101.994,76.066-170.983c66.979-68.989,139.47-120.992,213.973-140.958
			c74.502-20.042,106.464-15.497,109.518,0c2.98,15.496-30.545,34.941-41.051,47.979c-10.504,12.963-11.994,20.487-11.994,20.487
			s-5.215-17.731-4.992-24.958c0.299-7.301,0.299-7.301,0.299-7.301s-12.07,7.301-7.004,37.251
			c4.992,30.024-2.533,52.524-2.533,52.524s-11.026-15.497-16.986-29.279c-6.035-13.709-5.736-26.449-5.736-26.449
			s-14.007,26.002,7.971,60.496c21.979,34.495,23.99,57.442,26.971,88.51c3.055,30.993,14.379,62.061,34.793,69.511
			s35.984,2.98,35.984,2.98s-24.734-10.059-37.773-24.288c-12.963-14.23-14.229-35.017-14.229-35.017s59.229-8.493,150.272,4.023
			c90.967,12.517,98.715,9.536,98.715,9.536s-12.441-3.278-20.488-6.034c-7.971-2.757-23.244-7.525-23.244-7.525
			s38.741-16.986,71.225-4.991c32.558,11.995,33.525,60.496-61.465,141.555c-94.99,80.984-175.975,126.952-303.971,165.992
			c-128.07,38.965-293.019,29.503-343.01,16.465c-49.991-12.964-122.557-44.776-142.523-43.957
			c-19.967,0.745-11.771,16.242-11.771,16.242s1.788-3.8,6.929-5.961c7.152,9.761,29.801,35.389,75.844,48.427
			c33.601,9.537,66.009,7.749,87.019,4.619C8469.304-374.286,8471.688-369.294,8474.593-363.93z"/>
		<path fill="#BC0028" d="M8918.106-939.537c-7.301,13.336-30.545,27.938-38.965,38.369c-10.504,12.963-11.994,20.487-11.994,20.487
			s-3.8-13.037-4.769-21.308c7.003-6.929,22.724-20.935,40.977-28.087C8909.688-932.608,8914.456-935.961,8918.106-939.537z
			 M8858.803-908.842c-3.054,4.768-6.481,14.677-3.353,33.153c4.992,30.024-2.533,52.524-2.533,52.524s-11.026-15.497-16.986-29.279
			c-0.373-0.895-0.745-1.788-1.117-2.683c3.576-3.129,8.418-9.462,10.504-21.755C8848.819-897.22,8858.803-908.842,8858.803-908.842
			L8858.803-908.842z M8826.469-866.227c-1.714,10.877-0.968,27.938,11.696,47.83c21.979,34.495,23.99,57.442,26.971,88.51
			c3.055,30.993,14.379,62.061,34.793,69.511s35.984,2.98,35.984,2.98s-24.734-10.059-37.773-24.288
			c-12.963-14.23-14.229-35.017-14.229-35.017s59.229-8.493,150.272,4.023c90.967,12.517,98.715,9.536,98.715,9.536
			s-12.441-3.278-20.488-6.034c-7.971-2.757-23.244-7.525-23.244-7.525s38.741-16.986,71.225-4.991
			c32.558,11.995,33.525,60.496-61.465,141.555c-33.303,28.311-64.817,52.375-97.301,73.385
			c82.475-104.899-40.752-117.118-102.963-133.359c-68.914-17.881-45.073-113.021-63.104-152.954
			C8817.603-833.073,8826.469-866.227,8826.469-866.227L8826.469-866.227z"/>
		<path fill="#FFA3B9" d="M8393.683-360.056c-11.025-1.342-22.574-3.576-34.494-6.854c-64.445-17.731-86.572-49.47-85.529-71.97
			c1.342-29.577,58.709-10.877,74.875-5.812c123.525,38.816,292.424,107.21,607.793-35.09
			c-47.31,25.703-98.717,46.489-161.373,65.637c-128.07,38.965-293.019,29.503-343.01,16.465
			c-48.576-12.591-118.236-42.839-140.586-43.957c0,0-21.234-3.353-21.83,16.688
			C8289.156-410.941,8331.847-373.392,8393.683-360.056z M8397.78-456.016c-28.684-8.642-48.128-14.379-48.128-14.379
			s20.041,3.949,53.046-35.016c33.004-39.04,69.957-59.528,69.957-59.528s-7.227,16.987-15.272,27.045
			c-7.972,9.983-11.474,11.474-11.474,11.474s53.791-16.764,74.727-110.786c21.01-93.947,9.015-101.994,76.066-170.983
			c66.979-68.989,139.47-120.992,213.973-140.958c67.201-18.03,99.833-16.167,107.73-4.247
			c-13.783-9.164-121.216,5.215-176.422,45.521c-55.133,40.381-176.869,108.923-196.092,247.498
			c-19.296,138.5-79.792,137.085-129.336,171.281C8397.11-475.684,8394.204-464.583,8397.78-456.016z"/>
		<path fill="#640015" d="M8315.083-432.473c3.129,0.298,6.854,1.267,11.101,3.055c16.241,6.779,65.19,28.981,119.354,43.584
			c-16.391,1.043-35.91,0.298-56.398-4.545C8347.044-400.362,8323.726-422.639,8315.083-432.473z"/>
		<path d="M8706.147-510.7c0,0,75.545-9.462,131.05-41.498c55.505-31.962,61.464-69.958,61.464-69.958
			S8848.372-559.127,8706.147-510.7z"/>
		<path fill="#C7738A" d="M8899.779-436.719c3.278,4.396,6.034,8.642,7.823,12.367c7.822,16.763,16.539,12.963,28.087-16.093
			c1.862-4.693,3.278-9.686,4.47-14.826C8926.823-448.64,8913.413-442.456,8899.779-436.719z"/>
		<path d="M8892.255-449.012l6.258,7.375c3.502,4.173,6.929,8.345,10.133,12.666c2.756,3.725,5.215,7.524,7.524,11.398
			c2.086-2.533,3.948-5.141,5.216-7.077c7.971-11.921,12.963-25.704,15.197-39.859l0.82-5.364
			c23.99-12.144,46.713-25.331,69.139-40.082l-1.268,28.981c-0.968,22.946-5.289,46.862-15.197,67.797
			c-0.82,1.64-1.64,3.353-2.533,5.066l13.187-14.155l3.427,37.549c0.969,10.431,0.373,22.276-0.521,32.633
			c-2.234,24.958-8.195,49.768-17.508,73.087c-32.036,79.42-98.344,128.069-178.807,152.433
			c-72.64,21.978-158.243,28.385-223.656-17.062c-19.594-13.634-36.805-31.887-47.98-53.12c-7.449-14.23-14.229-34.271-9.76-50.438
			c6.184-22.202,4.769-45.298,1.49-68.021l-9.164-4.247c-23.318-11.026-34.196-27.268-46.042-49.172l-0.969-1.714
			c-1.415-2.905-2.683-5.587-3.8-7.972l-0.447,0.075l-9.834-18.179c55.43,12.293,213.896,19.967,337.795-17.731
			C8830.566-425.022,8862.603-436.421,8892.255-449.012z"/>
		<path fill="#FFD7E0" d="M8539.187-372.945c-1.266,8.195-1.49,18.552,0.745,30.993c5.96,33.303,11.325,66.308,2.161,99.313
			s58.856,161,260.312,99.982c201.53-61.018,184.99-240.495,184.99-240.495s-8.94,9.761-27.715,20.712
			c-18.774,11.026-31.292,8.792-31.292,8.792s27.566-26.747,46.564-66.755c9.686-20.488,12.814-43.584,13.561-61.315
			c-2.161,1.341-4.248,2.533-6.408,3.8c-9.536,5.588-19.221,10.952-28.906,16.018c-6.408,40.381-29.802,62.657-36.283,66.755
			c-8.717,5.513-8.717-6.259-21.755-23.767c-2.683-3.65-5.96-7.748-9.536-11.921c-28.162,11.474-56.994,21.383-86.498,30.397
			c-27.268,8.27-55.281,14.23-83.442,18.551c-8.94,1.416-18.03,2.683-27.044,3.726c17.284,11.771,34.792,6.779,34.792,6.779
			s-4.769,21.01-31.515,32.036c-26.746,10.952-57.59-3.427-57.59-3.427c0.297,2.235,4.842,8.717,9.61,10.133
			c0,0-57.665,20.115-83.667-39.562c-1.266-0.074-2.607-0.074-3.873-0.148C8550.66-372.498,8544.923-372.646,8539.187-372.945z
			 M8486.96-376.596c3.875,7.078,10.952,19.445,16.987,26.15c8.717,9.76,21.456,15.795,21.456,15.795s-2.458-10.729-3.129-24.512
			c-3.65-4.172-8.27-9.983-10.504-14.9C8501.19-374.808,8492.995-375.776,8486.96-376.596z M8574.874-371.977
			c8.939,19.222,24.213,33.452,49.32,32.558c-7.674-5.364-13.635-17.359-12.74-26.672c25.331,22.5,71.225,26.896,97.599,4.769
			c0,0-21.979,1.267-36.357-15.05C8640.212-373.168,8607.356-371.753,8574.874-371.977z"/>
		<path fill="#FFA3B9" d="M8850.831-161.432c150.271-72.566,136.563-221.721,136.563-221.721
			C8988.587-353.947,8916.989-245.173,8850.831-161.432z"/>
		<path fill="#FFFFFF" d="M8539.187-372.945c-1.266,8.195-1.49,18.552,0.745,30.993c5.96,33.303,11.325,66.308,2.161,99.313
			c-2.533,9.015,0.744,25.107,10.951,42.541c-0.372-29.802,7.078-61.241,10.58-84.486c4.47-30.099-4.918-56.324-3.354-87.615
			c-1.266-0.074-2.607-0.074-3.873-0.148C8550.66-372.498,8544.923-372.646,8539.187-372.945z M8968.918-470.395
			c-5.216,2.906-10.505,5.737-15.72,8.493c-6.408,40.381-29.802,62.657-36.283,66.755c-7.525,4.693-8.568-3.353-17.061-16.987
			c3.576,7.152,6.928,15.348,8.791,23.916C8913.637-364.675,8968.769-424.277,8968.918-470.395z M8494.411-375.627
			c5.066,9.015,15.943,26.225,29.949,35.165c-0.744-4.396-1.713-11.101-2.086-18.7c-3.65-4.172-8.27-9.983-10.504-14.9
			C8505.064-374.584,8499.253-375.105,8494.411-375.627z M8709.053-361.322c-18.253,10.579-64.222,9.686-86.572-11.548
			c-6.034,0.298-11.995,0.446-18.029,0.596c0.074,9.686,2.161,17.657,8.567,25.778c0,0-21.829-3.428-38.145-25.48
			c8.939,19.222,24.213,33.452,49.32,32.558c-7.674-5.364-13.635-17.359-12.74-26.672
			C8636.785-343.591,8682.679-339.195,8709.053-361.322z M8622.331-291.588c-8.195,5.886-11.994,11.548-13.708,19.892
			c-9.238,1.416-16.093,1.342-16.093,1.342C8598.789-277.582,8605.644-285.106,8622.331-291.588z"/>
		<path d="M8660.999-301.05c0,0-35.389-3.65-63.998,14.826c-23.395,15.124-26.971,34.494-11.25,42.541
			c15.721,7.972,19.817,3.501,32.781-8.792c12.963-12.218,13.783-24.734,0-21.232c-13.783,3.501-26.002,3.353-26.002,3.353
			C8602.364-281.604,8613.466-293.674,8660.999-301.05z"/>
		<path d="M8640.286-216.639c0,0,46.49-20.265,76.738-24.288c30.248-4.022,37.773-1.489,39.785,5.514
			c2.011,7.003-9.239,60.496-46.267,83.518C8673.515-128.949,8666.065-194.213,8640.286-216.639z"/>
		<path fill="#FF99CC" d="M8744.517-224.387c0,0.074-2.385,25.479-22.203,46.937c-19.892,21.531-37.25,20.041-39.783,3.055
			c-3.875-26.598,19.892-38.741,42.242-45.224c-6.406,4.619-11.398,11.399-12.74,21.01
			C8712.032-198.609,8724.325-216.862,8744.517-224.387z"/>
		<path d="M8217.634,95.527c1.341-2.31,2.607-4.545,3.948-6.779c12.591-21.457,26.3-42.541,41.424-62.359
			c7.376-9.76,15.198-19.222,23.617-28.162l16.614-17.806l10.729,21.903c12.218,25.183,20.86,52.301,26.373,79.644
			c6.557,32.558,3.949,66.456-4.246,98.492l-5.961,23.021c-0.223,1.938-0.596,3.8-1.191,5.662
			c-2.98,9.611-10.355,15.423-17.582,21.829c-7.674,6.854-13.783,13.411-19.371,22.128c-20.115,31.44-37.103,53.344-77.186,55.43
			c-8.939,0.521-17.73,0.298-26.522-1.117c-3.8-0.597-8.12-1.788-11.921-2.087c-2.682-0.223-5.513,0.895-7.971,1.938
			c-33.154,14.007-70.853,6.481-83.443-31.439c-1.416-4.247-5.736-17.807-9.313-20.861c-1.416-1.117-3.502-2.16-5.066-2.98
			c-4.246-2.086-8.493-4.098-12.74-6.332c-12.665-6.631-24.586-16.54-32.707-28.312c-8.27-12.144-12.963-27.268-7.375-41.498
			c3.055-7.748,8.791-13.932,16.986-16.315c15.348-4.471,31.217,6.854,41.2,17.582c1.118,1.192,3.65,3.204,6.407,5.066
			c-1.416-4.172-3.129-8.195-3.949-10.133c-6.332-15.422-12.144-29.875-14.602-46.563c-1.564-10.505-0.969-21.681,4.395-31.067
			c4.918-8.717,13.411-14.603,23.469-15.646c14.678-1.565,28.014,7.45,33.526,20.86c4.694,11.474,9.76,22.872,15.72,33.75
			c1.789,3.353,6.631,11.696,11.324,17.657c-0.744-13.262-4.098-34.271-4.768-40.604c-2.012-17.881,2.31-36.953,19.146-46.266
			c12.518-6.929,29.205-5.812,39.859,4.022C8213.908,74.965,8216.367,85.395,8217.634,95.527z"/>
		<path fill="#FFD7E0" d="M8219.646,126.744c0,0,36.879-71.97,79.195-117.044c8.717,17.955,18.477,43.212,25.033,75.62
			c6.705,33.154,2.459,65.563-4.098,90.894c-28.236-26.821-67.648,25.927-81.133,2.31
			C8230.597,164.517,8219.646,138.813,8219.646,126.744z M8184.629,219.798c0,0,21.456-16.763,49.022-11.548
			c27.492,5.289,31.738-12.964,48.948-19.222c17.284-6.259,29.28-2.98,30.771,10.281c1.489,13.187-17.285,16.241-35.464,44.701
			c-18.253,28.535-31.291,46.043-64.072,47.757c-32.706,1.788-32.483-8.271-51.929,0c-19.52,8.27-50.512,10.281-61.018-21.233
			c-10.504-31.589-13.262-28.236-35.239-39.784c-22.053-11.474-38.294-33.452-32.26-48.725c5.96-15.273,23.468-0.745,30.248,6.481
			c6.705,7.301,33.749,25.777,37.475,8.493c3.726-17.21-16.019-41.722-20.712-73.981c-4.768-32.259,22.202-33.973,29.205-16.986
			c7.004,16.986,28.014,66.755,47.234,68.021c19.297,1.192,11.027-32.26,7.302-65.562c-3.8-33.229,21.755-36.433,30.993-27.938
			c9.238,8.493,4.023,39.188,14.975,69.734c11.027,30.472,18.477,43.211,18.477,43.211S8196.4,194.243,8184.629,219.798z"/>
		<path fill="#FFA3B9" d="M8325.216,92.696c4.693,30.546,0.596,60.124-5.439,83.518c-19.52-18.552-44.403,0.969-62.358,6.929
			C8278.056,168.614,8314.71,137.397,8325.216,92.696z"/>
		<path fill="#FFFFFF" d="M8033.761,181.057c4.992,1.49,9.984,4.396,14.752,9.313c19.146,20.115,50.363,32.632,51.705,9.313
			c0.372-0.744,0.67-1.639,0.894-2.682c3.726-17.21-16.019-41.722-20.712-73.981c-1.043-6.779-0.596-12.293,0.746-16.465
			c4.693-4.098,13.037,0.074,19.146,9.834c13.709,21.755,26.002,63.029,52.674,68.468c13.559,2.832,17.582-11.92,16.166-31.439
			c-0.297-12.293-3.203-28.609-4.991-44.925c-0.745-6.109-0.372-11.25,0.597-15.423c3.873-2.607,8.791-4.396,14.975-4.172
			c19.371,0.745,17.807,90.223,40.753,105.645c-10.356,2.012-27.864,7.897-35.836,25.257c0,0,21.456-16.763,49.022-11.548
			c27.492,5.289,31.738-12.964,48.948-19.222c2.831-1.043,5.513-1.788,8.046-2.31c6.78,4.843,10.281,11.622,0.447,20.637
			c-21.68,19.818-23.84,36.953-54.387,63.253c-30.471,26.374-47.011-3.203-86.944,20.041c-8.419,4.843-16.763,5.96-24.661,4.694
			c-10.355-2.98-19.444-10.356-24.213-24.81c-10.504-31.589-13.262-28.236-35.239-39.784c-22.053-11.474-38.294-33.452-32.26-48.725
			C8033.538,181.727,8033.612,181.354,8033.761,181.057z"/>
		<path d="M8994.919-149.139l9.238,4.768l-6.928,14.677c-5.291,11.102-7.451,30.546-7.525,42.393
			c-0.447,41.274,15.57,81.133,37.848,115.255c29.279,44.776,74.576,69.958,122.557,90.372c20.711,8.791,42.242,16.614,62.582,26.3
			c16.539,7.822,35.016,18.401,44.031,35.016c13.262,24.214,8.195,57.367,1.415,82.847c-9.536,35.688-23.841,64.893-40.827,97.003
			c-33.898,2.31-66.01,2.086-99.982,0c-61.912-3.726-126.207-13.857-184.842-34.644c-56.994-20.19-111.529-51.929-147.664-101.548
			c-49.246-67.723-78.004-147.962-89.775-230.436c-3.874-27.119-6.034-54.686-6.034-82.027c-0.075-2.832,0-5.737,0-8.568
			c-2.533,0.745-5.066,1.49-7.524,2.235c-14.9,4.47-33.602,7.897-49.321,8.046l-14.155,0.149l-2.533-13.857
			c-1.714-9.536-3.055-19.371-4.098-28.981c-1.043-10.505-1.043-22.5,0-33.005l1.713-16.614l16.615,1.564
			c17.135,1.564,34.941,2.161,52.076,2.459c37.104,0.596,75.025-0.969,111.754-6.259c25.629-3.725,52.227-9.462,76.143-19.37
			c29.131-11.995,58.037-27.938,83.592-46.862c24.958-18.477,31.589-64.52,34.196-93.948l10.282,1.714
			c8.865,1.564,18.252,3.8,26.373,7.674c5.514,2.533,10.431,5.812,14.379,10.431c11.771,13.708,9.537,32.408,5.662,48.65
			c-2.905,12.144-7.077,24.213-11.324,35.91c-6.332,17.284-13.262,34.346-20.339,51.332
			C9007.286-173.874,9001.401-161.357,8994.919-149.139z"/>
		<path fill="#FFA3B9" d="M8996.782-311.928c9.089,1.714,18.252,4.843,22.35,10.431c9.239,12.889-49.171,76.887-142.97,115.628
			c-93.874,38.816-248.019,24.362-248.019,24.362s-1.49,15.05,0,29.652c1.489,14.603,3.873,27.641,3.873,27.641
			s21.01-0.224,44.627-7.376s30.248-9.388,30.248-9.388s-2.533,26.226,0.225,66.979c17.73,6.556,35.463,9.983,53.045,9.238
			c-15.57,6.556-33.525,7.003-52.077,3.427c6.034,67.425,26.448,166.961,90.298,254.725
			c109.146,149.974,408.125,130.007,408.125,130.007c-73.832-56.473-118.684-108.849-132.02-147.962
			c0,0,34.049,49.991,82.996,90.446c49.023,40.529,54.983,46.787,54.983,46.787s53.567-101.025,29.503-144.981
			c-23.99-44.031-162.49-49.545-228.5-150.57c-65.934-100.951-31.439-173.963-31.439-173.963s-17.508,31.216-37.549,49.469
			c-19.967,18.254-39.711,21.309-39.711,21.309s51.705-29.727,92.234-126.878s40.529-115.032,19.967-124.644
			c-4.917-2.384-11.101-4.098-17.656-5.438C8998.569-319.303,8997.751-315.578,8996.782-311.928z"/>
		<path fill="#F58EAA" d="M9111.292,241.255c12.889,14.229,28.535,30.099,46.191,44.627c49.023,40.529,54.983,46.787,54.983,46.787
			s23.245-43.808,32.26-86.273c-9.835,10.43-21.979,19.966-36.729,25.331C9175.29,283.721,9133.494,257.943,9111.292,241.255z
			 M9240.405,185.079c-27.938-41.646-162.192-48.948-226.936-147.962c-65.934-100.951-31.439-173.963-31.439-173.963
			s-17.508,31.216-37.549,49.469c-1.564,1.49-3.129,2.832-4.694,4.098c-4.47,69.512,29.056,142.301,117.64,190.429
			C9135.134,149.318,9198.013,163.25,9240.405,185.079z M8941.501-99.67c16.986-19.817,37.4-49.768,55.504-93.276
			c20.041-48.055,30.174-76.738,32.781-94.618c-7.896,26.97-22.425,58.931-47.532,92.233
			C8960.946-167.169,8946.642-134.09,8941.501-99.67z"/>
		<path fill="#C7738A" d="M8627.472-146.904c0,4.619,0.15,9.835,0.672,15.05c1.489,14.603,3.873,27.641,3.873,27.641
			s16.764-0.224,37.178-5.29c-20.713-21.531-35.389-40.455-35.389-40.455L8627.472-146.904z M8706.073-75.456
			c0.223,6.631,0.521,13.783,1.043,21.457c17.73,6.556,35.463,9.983,53.045,9.238C8760.161-44.761,8743.92-45.208,8706.073-75.456z
			 M8741.834-39.844c-10.729,1.415-22.128,0.745-33.75-1.49c6.034,67.425,26.448,166.961,90.298,254.725
			c16.986,23.319,38.518,42.541,62.805,58.336C8742.28,128.085,8738.258-24.198,8741.834-39.844z"/>
		<path fill="#FFD7E0" d="M8971.228-240.852c-24.288,19.072-56.697,39.188-95.065,54.982
			c-92.011,37.996-241.984,24.959-247.87,24.438l-0.745,9.313c0,0.372,0,0.819,0,1.267
			C8733.267-134.686,8901.27-152.566,8971.228-240.852z"/>
		<path fill="#640015" d="M8998.048-434.409c39.711-3.428,70.555,4.098,106.465,3.277c-26.002,46.714-27.789,88.956-28.311,141.332
			c0,0,31.365,5.141,61.911,1.117c-33.824,64.296-56.622,222.241,50.14,250.553c-40.305-6.557-57.738,73.161-135.297,92.83
			c-92.755-85.157-59.303-206.521-41.944-241.687c19.743-39.859,45.224-100.057,33.749-123.078
			c-9.014-17.955-32.93-25.107-42.838-27.343c4.395-30.024,0.521-66.084-1.192-84.858c-4.619,7.822-7.302,10.355-13.187,14.155
			C8991.938-416.678,8995.366-425.097,8998.048-434.409z M8456.861-289.354c0,0,17.955-21.456,51.034-35.835
			c2.906,1.862,6.109,3.65,9.611,5.364c0.223,0.074,0.521,0.223,0.744,0.372l9.164,4.247l0.149,1.117l0,0l0.149,0.895v0.372
			l0.074,0.596l0.074,0.373c0.074,0.67,0.148,1.267,0.224,1.862l0.074,0.148l0.075,1.044l0.074,0.224l0.074,0.744l0.074,0.373
			l0.074,0.596v0.447l0.075,0.596l0.075,0.447l0.074,0.447v0.521l0.148,0.67v0.447l0.074,0.819l0.074,0.521l0.075,0.447v0.521
			l0.075,0.447l0.074,0.596v0.373l0.074,0.596v0.298c0.074,0.671,0.148,1.416,0.224,2.086v0.447l0.074,0.671v0.298l0.075,0.596
			v0.447l0.074,0.596v0.298l0.074,0.671v0.224c0,0.819,0.074,1.564,0.074,2.31l0.074,0.224v0.819v0.148l0.075,0.745v0.224v0.671
			v0.298c0.074,1.416,0.074,2.831,0.074,4.247v0.224v0.67v0.224v0.745v0.224c0,1.117,0,2.235,0,3.427l0,0l-0.074,0.895v0.074
			c0,0.298,0,0.596,0,0.819v0.074c-0.075,1.788-0.149,3.576-0.298,5.364v0.075c-0.149,1.788-0.299,3.576-0.521,5.364l0,0
			c-0.074,0.298-0.074,0.596-0.149,0.894l0,0c-0.149,1.49-0.372,2.98-0.597,4.47c-0.074,0.299-0.148,0.597-0.148,0.895l-0.074,0.074
			c0,0.224-0.074,0.521-0.074,0.82h-0.075C8507.374-261.937,8478.095-271.175,8456.861-289.354z"/>
		<path fill="#FFA3B9" d="M9010.415-435.154c33.899-1.192,61.986,4.768,94.098,4.022c-22.202,40.008-26.746,76.589-27.938,119.13
			c-8.271-42.094,8.642-109.892,8.642-109.892s-32.706-2.458-57.963-9.983C9021.89-433.441,9016.152-434.484,9010.415-435.154z"/>
		<path d="M9203.303-430.089c-16.986,8.717-30.099,22.5-39.337,39.04c-3.949,7.227-7.973,16.167-9.76,24.139l-1.863,8.121
			c-27.193,14.527-56.846,24.139-69.213,59.229c-0.148-10.282-0.521-20.488-0.596-30.695c0.745-18.253,2.757-39.412,7.972-54.76
			c11.25-33.005,24.214-49.842,16.466-49.842c-5.29,0-68.99-4.098-108.924-6.78l33.898-20.86
			c9.91-6.035,20.414-11.771,30.771-17.136c22.202-11.548,45.372-22.053,69.063-30.099c28.236-9.686,63.998-18.179,93.576-10.729
			c6.63,1.714,13.111,3.948,19.295,6.779c30.547,13.783,54.834,40.083,77.781,63.774c26.076,27.045,51.258,51.705,84.486,70.032
			c28.684,15.869,59.229,29.131,91.266,36.655c8.717,2.086,17.359,3.576,26.15,4.992c6.481,1.117,14.155,2.16,19.742,5.588
			c0.969,0.596,1.863,1.341,2.758,2.086c6.556,5.736,8.27,14.453,5.96,22.648c-1.714,6.258-5.588,11.771-9.909,16.465
			c-13.336,14.305-35.314,25.033-53.12,32.26c-11.697,4.769-23.618,9.164-35.687,12.964c-67.127,21.01-137.085,21.084-206.67,18.253
			l-28.908-1.192c29.727-29.503,69.438-62.73,29.727-129.112C9295.537-367.208,9276.39-467.563,9203.303-430.089z M8664.202-261.713
			c-28.236,52.972-36.357,88.658-27.417,152.283c2.979-0.223,5.96-0.521,8.717-0.744c13.708-1.342,30.397-5.439,43.733-8.866
			c26.076-6.557,21.979-9.909,20.936,16.986c-0.597,14.9,0.223,30.993,1.266,45.894c2.607,36.432,8.419,73.087,17.583,108.477
			c24.437,94.395,73.608,181.637,161.446,229.989c80.984,44.552,172.325,65.785,264.634,64.072
			c53.642-1.043,114.958-9.611,156.828-20.712c-4.619,18.626-82.698,84.784-106.241,102.366
			c-61.613,45.894-129.038,88.286-199.369,119.204c-43.658,19.222-90.223,34.645-137.531,41.424
			c-63.401,9.164-130.678,11.622-193.855-0.074c-54.76-10.133-107.582-31.366-148.484-70.182
			c-39.635-37.624-61.762-85.901-70.628-139.395c-11.474-68.915-12.964-141.033,0.521-209.799
			c3.576-18.402,8.271-36.805,14.379-54.462c-13.56,7.376-26.97,14.081-39.263,19.743c-23.244,10.803-44.404,27.193-62.284,45.446
			c-22.649,23.171-22.053,26.896-51.108,45c6.556-20.488,9.014-57.367,9.014-90.894c0-45.297-10.578-87.838-29.576-127.771
			c-23.618,24.66-46.416,60.645-46.416,60.645l-31.887,54.09l-12.293-33.005c-4.545-12.219-8.643-25.778-11.25-38.519
			c-4.619-22.946-8.865-45.297-11.995-68.542c-5.513-40.753-8.345-82.772-5.96-123.823c0.745-12.964,2.086-25.927,4.098-38.816
			c5.588-36.059,15.422-74.726,31.439-107.656c4.769-9.76,10.58-20.189,17.583-28.534c7.302-8.791,18.478-16.688,30.323-10.952
			c3.65,1.788,6.556,4.694,8.492,8.195c8.42,15.571,16.391,28.535,28.014,42.169c19.445,22.574,43.51,40.082,72.119,48.799
			c16.688,5.141,33.377,8.717,50.811,10.133c8.344,0.671,16.688,0.819,25.032,0.969c-1.192-5.142-2.16-10.431-2.979-14.528
			c-2.832-14.752-4.694-30.322-5.737-45.298l-0.894-12.144c70.628,31.291,103.037,42.392,169.195,36.804
			C8624.194-254.486,8644.98-258.882,8664.202-261.713z M9134.388-161.209c5.812,14.678,14.528,29.504,30.174,35.017
			c21.605,7.674,59.453-2.607,81.58-6.929c40.977-7.897,79.569-11.101,118.906,6.184c50.886,22.351,84.188,68.915,104.825,118.906
			c21.457,52.077,23.543,101.398,20.19,133.956c-36.805-53.717-62.359-104.08-126.281-126.729
			c-20.563-7.375-42.84-10.505-64.52-12.963c-29.205-3.354-58.262-5.886-87.467-10.133c-44.775-6.631-79.568-30.62-97.672-72.416
			c-7.377-16.987-12.74-40.381-12.145-59.23l2.384-81.282L9134.388-161.209z"/>
		<path fill="#640015" d="M8246.019,50.006c5.439-8.046,11.102-15.943,16.987-23.617c7.376-9.76,15.198-19.222,23.617-28.162
			l4.47-4.842c-4.172-7.897-8.643-15.721-13.484-23.469c-13.113-21.01-22.352-44.851-29.057-68.617
			c-8.493-30.248-13.41-62.061-15.943-93.352c-0.223-2.682-0.447-5.364-0.596-8.121c-4.321,17.881-6.854,36.581-8.419,54.536
			c-0.671,8.419-1.118,16.912-1.192,25.331c-0.67,41.051,4.619,83.22,12.666,123.376
			C8238.196,18.492,8241.698,34.584,8246.019,50.006z"/>
		<path fill="#640015" d="M9271.845-272.441c48.502,2.459,146.92-4.693,183.649-23.84c0.745-0.447,1.788-0.969,2.905-1.565
			c-50.14-14.006-102.143-40.604-135.967-80.984c-9.164-10.951-19.743-23.319-31.664-33.749c2.832,15.422-2.16,38.741-15.123,47.83
			c5.959,20.34,8.046,42.317,4.47,63.327C9278.551-291.886,9275.942-281.754,9271.845-272.441z"/>
		<path fill="#EB0032" d="M9258.658-450.278c29.727,8.27,52.972,32.408,76.589,60.645c36.506,43.436,92.532,65.786,127.996,75.694
			c35.537,9.909,30.322,16.764,0,32.559c-40.977,21.382-151.166,29.428-201.232,25.107c-0.894,1.043-1.862,2.16-2.831,3.129
			c-3.054,3.129-6.929,6.184-11.101,8.419c117.268,4.768,172.398-4.471,235.354-30.024c50.736-20.563,57.665-40.009,51.854-43.585
			c-9.014-5.513-54.685-1.564-136.488-46.861c-81.879-45.224-114.063-122.93-177.539-138.948
			c-63.477-16.018-180.521,55.952-180.521,55.952s62.508,2.905,78.005,5.811c15.496,2.831,2.011,12.442-5.216,28.684
			c-13.411,30.024-22.351,50.215-20.638,82.4c5.588-7.376,12.442-14.155,20.488-20.414c0.671-18.253,4.098-64.146,23.021-90.67
			c23.99-33.749,40.753-39.337,40.753-39.337s-55.354,51.184-46.563,118.757c2.012-1.191,4.098-2.31,6.258-3.427l0.969-4.172
			c2.086-9.388,6.854-20.265,11.473-28.609c10.803-19.52,26.375-35.612,46.342-45.894c19.444-9.983,41.944-13.932,62.656-5.364
			C9258.435-450.354,9258.509-450.354,9258.658-450.278z M8232.907,64.758c0,0-34.57-111.978-26.002-211.811
			c8.493-99.908,42.467-133.509,40.977-105.422c-1.49,28.088,0,142.971,43.957,213.524c44.03,70.479,52.002,131.944,52.002,172.995
			c0,40.977-11.994,64.222-11.994,64.222s35.537-52.524,92.531-78.973c56.994-26.523,101.473-56.548,123.973-82.996
			c22.5-26.522,22.5-49.991,22.5-49.991s11.994,32.707-18.477,66.456c-30.472,33.75-56.994,45.521-56.994,45.521
			s-52.004,104.006-23.021,277.969c28.98,174.038,194.004,224.551,394.044,195.793c199.965-28.758,412.968-225.743,412.968-225.743
			s-196.762,60.943-397.024-49.32c-200.188-110.189-188.938-399.706-188.938-399.706s-30.546,7.748-46.266,9.238
			c-15.795,1.489-24.512,1.267-24.512,1.267s-9.76-49.843-3.278-91.043c6.556-41.125,16.019-59.602,16.019-59.602
			s-40.977,8.121-99.982-2.607c-59.007-10.729-81.73-34.123-81.73-34.123s1.715,23.99,5.439,43.212
			c3.799,19.296,6.035,24.512,6.035,24.512s42.689,6.631,73.086,28.534c30.397,21.829,27.492,49.47,27.492,49.47
			s-10.355-35.017-60.348-56.473c-49.99-21.531-68.468-1.267-140.512-23.245c-71.969-21.979-104.453-88.882-109.966-99.014
			c-5.513-10.133-41.498,37.475-56.473,133.509c-15.05,95.959,10.206,208.011,13.708,225.221
			c3.502,17.285,10.505,35.985,10.505,35.985L8232.907,64.758z M9118.743-155.025c0,0-2.98,99.983,95.512,114.511
			c125.238,18.402,181.563-0.298,262.025,116.97c0,0-18.998-144.609-118.012-188.045S9160.39-49.977,9118.743-155.025z"/>
		<path fill="#FFA3B9" d="M9224.313-503.324c-1.043-0.299-2.011-0.597-3.054-0.82c-63.477-16.018-180.521,55.952-180.521,55.952
			s12.739,0.596,28.087,1.49C9109.951-473.002,9169.106-502.505,9224.313-503.324z"/>
		<path fill="#BC0028" d="M9258.658-450.278c29.727,8.27,52.972,32.408,76.589,60.645c36.506,43.436,92.532,65.786,127.996,75.694
			c35.537,9.909,30.322,16.764,0,32.559c-40.977,21.382-151.166,29.428-201.232,25.107c-0.894,1.043-1.862,2.16-2.831,3.129
			c-3.054,3.129-6.929,6.184-11.101,8.419c117.043,4.768,172.176-4.396,235.056-29.876c26.97-17.508,34.942-33.526,3.204-43.733
			c-108.029-34.718-90.969-32.259-170.984-107.805c-80.016-75.472-135.072-23.99-149.303-8.195
			c-14.156,15.72-21.68,24.734-21.233,10.952c0.298-7.228,2.086-15.124,3.726-20.861c-11.921,20.936-22.127,49.246-17.955,81.282
			c2.012-1.191,4.098-2.31,6.258-3.427l0.969-4.172c2.086-9.388,6.854-20.265,11.473-28.609
			c10.803-19.52,26.375-35.612,46.342-45.894c19.444-9.983,41.944-13.932,62.656-5.364
			C9258.435-450.354,9258.509-450.354,9258.658-450.278z M9125.299-439.401c3.129,4.619-6.184,13.187-11.771,25.703
			c-13.411,30.024-22.351,50.215-20.638,82.4c5.588-7.376,12.442-14.155,20.488-20.414c0.671-18.253,4.098-64.146,23.021-90.67
			c2.459-3.501,4.843-6.705,7.152-9.61C9139.156-447.746,9132.749-443.499,9125.299-439.401z"/>
		<path fill="#FFA3B9" d="M9118.817-151.747c6.034,36.283,31.514,102.889,136.861,103.634
			c144.758,1.043,190.354,47.682,220.602,124.568c-80.463-117.268-136.787-98.567-262.025-116.97
			C9126.491-53.478,9119.339-134.313,9118.817-151.747z"/>
		<path fill="#BC0028" d="M8268.817-288.832c9.089,21.159,25.107,48.055,53.27,76.217c65.487,65.563,181.338,43.882,200.262,44.254
			c9.984,0.224,18.477,2.906,24.214,5.439c-0.745-0.671-1.49-1.416-2.235-2.161c-5.588-3.8-12.963-9.238-20.936-16.018
			c-5.363-3.278-11.324-6.333-18.029-9.238c-49.99-21.531-68.468-1.267-140.512-23.245
			C8315.902-228.559,8285.208-264.32,8268.817-288.832z M8647.663,565.117c-92.458-25.331-158.021-85.156-175.305-188.864
			c-11.996-72.118-10.133-132.167-3.801-177.837c1.268-8.717,2.683-17.359,4.396-26.002c9.387-47.979,22.426-74.13,22.426-74.13
			s26.522-11.771,56.994-45.521c4.396-4.843,7.972-9.76,10.729-14.528C8522.796,214.434,8504.692,424.605,8647.663,565.117z
			 M8342.202,159.823c17.656-26.001,44.403-51.779,85.156-67.946c109.295-43.436,140.811-91.042,140.885-91.117
			c-2.757,9.238-8.345,21.979-19.893,35.538c-22.5,26.448-66.979,56.473-123.973,82.996c-56.994,26.448-92.531,78.973-92.531,78.973
			S8338.924,184.633,8342.202,159.823z M8502.308-201.738c-10.951-12.516-20.936-27.268-26.746-43.956
			c-2.906-8.345-4.843-15.795-6.184-22.574c-10.952-6.407-15.721-11.325-15.721-11.325s1.715,23.99,5.439,43.212
			c3.799,19.296,6.035,24.512,6.035,24.512S8482.118-209.188,8502.308-201.738z"/>
		<path fill="#FFA3B9" d="M8233.875-292.482c4.396-4.172,9.238-6.779,13.933-5.886c15.049,3.055,10.803,57.293,18.773,129.784
			c7.973,72.49,66.457,149.452,77.483,212.481c5.588,31.813,7.897,71.373-1.415,112.052c0.744-6.631,1.191-13.933,1.191-21.904
			c0-41.051-7.972-102.516-52.002-172.995c-43.957-70.554-45.447-185.437-43.957-213.524c1.49-28.087-32.483,5.514-40.977,105.422
			c-8.568,99.833,26.002,211.811,26.002,211.811l-10.282,17.359c0,0-7.003-18.7-10.505-35.985
			c-3.502-17.21-28.758-129.262-13.708-225.221C8206.682-232.284,8221.433-270.653,8233.875-292.482z M8483.98-260.818
			L8483.98-260.818c37.251,25.107,85.082,35.761,129.709,31.738c-3.874,33.601-9.164,108.326,8.94,136.861
			c0,0-9.76-49.843-3.278-91.043c6.556-41.125,16.019-59.602,16.019-59.602s-40.977,8.121-99.982-2.607
			C8513.483-249.494,8496.571-255.23,8483.98-260.818z M8622.63-92.219c17.656,8.046,59.527,5.885,59.527,5.885
			s1.564,341.297,234.832,400.75c-11.473-5.29-23.021-11.026-34.644-17.434c-200.188-110.189-188.938-399.706-188.938-399.706
			s-30.546,7.748-46.266,9.238C8631.347-91.996,8622.63-92.219,8622.63-92.219z"/>
		<path d="M8781.097,726.639c-29.875,10.803-44.329,1.564-71.001-9.313c-22.499-9.536-25.182-29.429-26.374-50.96
			c-0.895-15.72-0.819-31.738-0.596-47.532c0.074-8.047,0-16.093-0.373-24.064l-0.969-20.116l19.893,2.683
			c37.996,4.991,76.887,4.991,114.957,1.937l17.807-1.489l0.373,17.88c0.298,18.7,0.744,39.412,3.65,57.739
			c3.725,23.171-1.49,55.729-25.703,66.159C8803.97,723.361,8793.464,722.169,8781.097,726.639z M9045.433,616.227
			c-16.242,5.513-35.762,8.791-45.895,5.065c-17.731-6.407-25.927-23.691-25.927-41.646c0-7.45-0.819-15.124-1.788-22.426
			l-1.639-12.739l11.771-4.918c35.687-14.975,70.182-33.079,103.409-52.822l20.042-11.994l4.991,22.797
			C9119.935,541.574,9085.962,602.294,9045.433,616.227z"/>
		<path fill="#FFD7E0" d="M8699.517,593.95c0.298,7.301,0.521,15.72,0.372,25.106c-0.521,40.009,0.745,60.497,3.726,69.512
			c3.055,9.015,13.037,13.262,13.037,13.262s-4.246-21.531-3.501-33.526s7.972-20.488,7.972-20.488s-1.49,39.039,10.505,56.771
			c11.995,17.732,43.808,6.259,43.808,6.259s-16.391-16.987-18.998-35.985c-2.682-18.998,11.473-28.013,11.473-28.013
			s-11.25,35.017,16.019,53.27c27.193,18.179,42.988-12.814,37.997-44.031c-2.608-16.316-3.576-40.529-3.949-60.124
			C8776.104,599.314,8736.321,598.793,8699.517,593.95z M8988.513,555.06c1.117,8.866,1.861,17.508,1.861,24.586
			c0,28.684,26.523,34.867,42.766,17.434c16.24-17.434,8.492-52.748,8.492-52.748s7.004,5.215,9.76,22.724
			c2.758,17.508-3.277,30.546-3.277,30.546s24.287-11.548,28.311-34.271c3.949-22.724-5.289-42.988-5.289-42.988
			s7.748,4.247,11.994,14.23c4.247,9.983,3.8,17.731,3.8,17.731s13.262-22.5,7.078-51.184
			C9061.003,520.788,9025.316,539.563,8988.513,555.06z"/>
		<path fill="#FFA3B9" d="M8701.304,675.828c0.597,5.662,1.342,9.834,2.311,12.74c3.055,9.015,13.037,13.262,13.037,13.262
			s-2.533-12.666-3.352-23.99C8710.021,678.51,8705.552,678.585,8701.304,675.828z M9006.69,547.088
			c0.82,7.524,1.416,15.124,1.788,22.425c1.267,27.864,21.531,23.915,32.483,13.336c-1.639,5.29-4.098,10.207-7.822,14.23
			c-16.242,17.434-42.766,11.25-42.766-17.434c0-7.078-0.744-15.72-1.861-24.586C8994.621,552.452,9000.655,549.844,9006.69,547.088
			z M9051.541,567.874c4.991,0.149,13.857-0.745,19.595-7.6c3.576-4.246,5.215-10.058,5.96-15.422
			c0.521,5.662,0.446,11.995-0.671,18.477c-4.023,22.724-28.311,34.271-28.311,34.271S9054,584.935,9051.541,567.874z
			 M9081.417,531.069c3.502-0.596,8.939-2.384,13.932-7.376c-1.639,17.062-8.419,28.609-8.419,28.609s0.447-7.748-3.8-17.731
			C9082.608,533.305,9082.013,532.188,9081.417,531.069z M8724.922,688.195c1.564,6.184,3.726,11.921,6.705,16.391
			c11.995,17.732,43.808,6.259,43.808,6.259s-12.591-13.038-17.434-29.057c-1.938,4.321-5.439,9.388-13.038,11.995
			C8735.575,696.987,8729.094,693.113,8724.922,688.195z M8771.411,686.929c2.757,4.769,6.779,9.313,12.517,13.188
			c27.193,18.179,42.988-12.814,37.997-44.031c-2.608-16.316-3.576-40.529-3.949-60.124c-7.45,0.597-14.826,1.118-22.127,1.416
			c-0.074,14.007,0,38.891,1.341,59.155C8798.828,680.745,8782.214,692.069,8771.411,686.929z"/>
		<polygon fill="#FFA3B9" points="8758.374,2.921 8874.747,-60.406 8798.828,-81.863 		"/>
		<path fill="#FF3B59" d="M7824.185,186.793c0,0-11.025,44.031,21.457,80.016c32.483,36.06,16.986,176.497,151.539,169.047
			c75.247-4.247,125.164-41.35,143.641-91.713l0,0l0,0c18.551-50.662,56.697-171.133-18.551-182.979
			c18.998,26.97,18.402,69.884-17.434,21.308c-54.09-73.311-99.089-56.547-111.68-92.159c-14.006-39.486-1.49-61.018-1.49-61.018
			s-37.996,19.37-30.024,67.946c7.972,48.575-21.978,69.585-51.481,52.599c-29.503-16.986-21.979-59.975-21.979-59.975
			s-28.013,25.629-13.037,67.499c14.975,41.796,13.037,75.397-10.506,75.397C7841.172,232.762,7828.134,219.798,7824.185,186.793z"
			/>
		<path fill="#FF6F89" d="M7967.155,207.355c0,0-15.422,29.28,1.49,59.453c16.912,30.174,7.6,45.521-7.972,48.055
			c-15.496,2.458-30.546-23.543-30.546-23.543s-22.5,85.529,71.001,82.475c74.726-2.385,110.339-98.27,15.124-125.389
			C7987.122,240.137,7975.798,228.217,7967.155,207.355z"/>
		<path d="M9178.345-201.439c-3.65,5.513-8.27,10.132-13.783,13.187c-8.643,4.769-18.774,7.376-28.609,6.631
			c-10.207-0.819-20.189-5.514-25.107-14.9c-3.203-6.185-3.576-13.188-1.49-19.818c2.012-6.332,3.428-13.187,4.248-19.817
			c2.16-16.912,4.022-23.841-13.635-12.964l-15.943,10.431c-21.605-55.877-0.447-100.504,52.822-127.697l0.969-4.172
			c2.086-9.388,6.854-20.265,11.473-28.609c10.803-19.52,26.375-35.612,46.342-45.894c19.444-9.983,41.944-13.932,62.656-5.364
			c15.422,6.407,28.385,19.743,32.186,36.283c3.501,15.348-1.342,39.933-14.826,49.395c5.959,20.34,8.046,42.317,4.47,63.327
			c-2.831,16.912-8.717,35.688-20.936,48.278c-5.065,5.141-12.292,10.132-19.594,11.398c-5.438,16.688-18.179,28.088-34.271,34.495
			c-7.152,2.905-16.315,5.215-24.139,5.662L9178.345-201.439z"/>
		<path fill="#FFD7E0" d="M9172.235-363.632c-43.584,12.665-90.744,45.297-80.239,103.111c45.298-40.008,41.349,19.967,32.26,48.874
			c-4.247,13.484,14.976,19.52,32.78,9.76c17.732-9.76,19.445-48.055,19.445-48.055s4.769,0.745,8.271,9.76
			c3.501,9.016-4.47,23.021-4.47,23.021s36.207-2.012,44.701-30.248c8.568-28.236,3.502-35.984,3.502-35.984s5.289,0.969,8.12,8.717
			c2.905,7.748,0,17.657,0,17.657s20.638-2.906,28.162-47.012s-14.603-81.729-14.603-81.729l16.167,8.866
			c0,0,13.411-14.007,8.94-33.75s-32.482-41.051-72.491-20.488c-40.008,20.488-49.768,63.998-49.768,63.998
			S9165.828-368.027,9172.235-363.632z"/>
		<path fill="#FFFFFF" d="M9172.235-363.632c-43.584,12.665-90.744,45.297-80.239,103.111c45.298-40.008,41.349,19.967,32.26,48.874
			c-2.31,7.227,2.235,12.367,9.685,14.006c16.391-25.629,16.689-83.592-2.086-99.609c-10.877-9.313-22.35-8.792-12.59-25.778
			C9133.94-348.731,9172.235-363.632,9172.235-363.632z M9179.09-413.549c-20.414,21.158-26.076,46.415-26.076,46.415
			s4.173-0.298,9.015,0.298c0.149-3.576,0.895-9.387,2.98-17.657C9166.722-391.496,9172.98-403.118,9179.09-413.549z"/>
		<path fill="#FFA3B9" d="M9184.305-226.771c-1.564,5.364-4.022,9.61-4.022,9.61s36.207-2.012,44.701-30.248
			c2.012-6.557,3.203-11.92,3.948-16.465C9223.12-251.58,9210.381-233.327,9184.305-226.771L9184.305-226.771z M9236.456-275.197
			c0.075,0.148,0.149,0.372,0.149,0.521c2.905,7.748,0,17.657,0,17.657s20.638-2.906,28.162-47.012
			c1.043-6.333,1.564-12.591,1.564-18.551c-1.415,4.098-3.278,8.344-5.587,12.814
			C9247.036-283.468,9239.958-276.539,9236.456-275.197z M9259.255-380.768l7.077,3.874c0,0,13.411-14.007,8.94-33.75
			c-3.278-14.453-19.146-29.651-43.063-28.832c9.164,3.055,19.072,8.717,23.543,19.147
			C9262.979-403.268,9260.67-387.026,9259.255-380.768z"/>
		<path d="M8706.147-510.7c0,0,75.545-9.462,131.05-41.498c55.505-31.962,61.464-69.958,61.464-69.958
			S8848.372-559.127,8706.147-510.7z"/>
		<g>
			<path d="M8778.19-385.461c7.152,7.301,11.771,18.923,11.771,32.035c0,22.128-13.187,40.009-29.428,40.009
				c-16.316,0-29.504-17.881-29.504-40.009c0-7.301,1.49-14.155,4.023-20.041C8744.665-376.521,8761.503-381.662,8778.19-385.461z"
				/>
			<path fill="#FFFFFF" d="M8747.993-346.807c3.503-1.242,7.643,2.149,9.244,7.574c1.603,5.426,0.061,10.831-3.443,12.073
				c-3.503,1.243-7.643-2.148-9.244-7.573C8742.947-340.158,8744.489-345.563,8747.993-346.807z"/>
			<path d="M8716.503-358.864c-2.16,1.49-5.141,1.043-6.705-1.117c-1.564-2.161-1.043-5.141,1.117-6.631
				c0.074-0.074,27.715-20.414,92.011-26.97c2.608-0.224,4.917,1.713,5.216,4.321c0.223,2.607-1.64,4.991-4.322,5.215
				C8742.132-377.713,8716.577-358.938,8716.503-358.864z"/>
		</g>
		<g>
			<path d="M8570.851-355.288c-3.055,5.96-4.545,14.081-4.098,22.872c1.862,39.859,50.215,44.105,44.031,0.895
				C8597.597-333.533,8582.771-339.791,8570.851-355.288z"/>
			<path fill="#FFFFFF" d="M8580.833-330.031c2.98-0.521,6.78,3.055,8.494,7.897c1.713,4.843,0.596,9.163-2.385,9.61
				c-2.979,0.521-6.779-3.055-8.492-7.897C8576.736-325.264,8577.854-329.584,8580.833-330.031z"/>
			<path d="M8567.423-360.056c-3.277,0-6.779,0.148-10.504,0.446c-6.855,0.521-5.662,9.462,0.372,8.94
				c6.184-0.446,11.846-0.596,17.062-0.446C8571.968-353.724,8569.658-356.703,8567.423-360.056z"/>
		</g>
		<g>
			<g>
				<polygon fill="#FFA3B9" points="9806.997,-680.715 9730.11,-623.571 9737.562,-681.312 				"/>
				<polygon fill="#FF144D" points="9717.743,-576.188 9764.681,-622.752 9806.997,-680.715 9730.11,-623.571 				"/>
				<path fill="#FF144D" d="M9730.11-623.571l-105.495,16.613l5.737,32.707l20.115,14.9
					C9667.38-572.836,9730.11-623.571,9730.11-623.571z"/>
				<polygon fill="#FF547D" points="9730.11,-623.571 9717.743,-576.188 9685.187,-552.198 9660.973,-551.677 9650.394,-559.425 
									"/>
				<polygon fill="#FF547D" points="9624.615,-606.958 9730.11,-623.571 9737.562,-681.312 				"/>
				<polygon fill="#FFA3B9" points="9737.562,-681.312 9628.638,-635.716 9624.615,-606.958 				"/>
				<path fill-opacity="0.2" d="M9735.028-661.643l-99.014,47.234l-10.356,13.635l4.694,26.522l25.404,18.774l8.866-1.49
					l59.304-42.913l47.98-54.76L9735.028-661.643z M9612.247-584.606l-18.252,21.829l9.238,16.241l30.844-5.29
					c-7.822-8.27-15.795-17.135-17.434-20.413C9615.377-574.772,9613.813-579.168,9612.247-584.606z"/>
			</g>
			<g>
				<polygon fill="#EB0032" points="8925.11,-165.381 9001.476,-193.691 9028.595,-151.076 8973.611,-112.856 8890.69,-124.702 				
					"/>
				<path fill="#FFA3B9" d="M8821.774-23.751l68.916-100.951l73.98-12.069c0,0-21.382,56.547-24.213,58.41
					C8937.626-76.499,8821.774-23.751,8821.774-23.751z"/>
				<polygon fill="#FF547D" points="8993.728,-65.771 8940.458,-78.361 8964.671,-136.771 9025.391,-156.068 9034.183,-142.359 				
					"/>
				<polygon fill="#FF144D" points="8821.774,-23.751 8896.054,-11.905 8993.728,-65.771 8940.458,-78.361 				"/>
				<polygon fill="#FFA3B9" points="8689.831,48.144 8821.774,-23.751 8736.396,-48.635 				"/>
				<polygon fill="#FF547D" points="8896.054,-11.905 8689.831,48.144 8821.774,-23.751 				"/>
				<polygon fill="#FF547D" points="8890.69,-124.702 8821.774,-23.751 8736.396,-48.635 				"/>
				<polygon fill="#FF547D" points="8890.69,-124.702 9003.338,-190.786 8998.719,-198.013 8887.562,-184.229 				"/>
				<polygon fill="#FFBCCC" points="8736.396,-48.635 8887.562,-184.229 8890.69,-124.702 				"/>
				<polygon fill-opacity="0.2" points="8765.451,-40.217 8889.647,-145.116 8999.24,-175.736 9015.407,-152.938 8958.935,-73.966 
					8858.878,-17.865 8750.029,15.362 				"/>
				<polygon fill="#FFD7E0" points="8736.396,-48.635 8718.291,18.864 8796.37,-31.127 8821.774,-23.751 8689.831,48.144 				"/>
			</g>
			<path d="M9738.306-596.602c0,0-21.531,26.001-37.922,47.16c-16.465,21.084-108.103,32.93-208.532,89.85
				c-55.952,31.664-137.383,81.804-210.172,129.337c-0.521-9.536-2.012-18.998-4.321-28.162c-0.521-2.16-1.117-4.247-1.713-6.333
				c2.458-1.713,4.693-4.022,6.631-6.705c69.138-44.105,140.362-91.042,185.213-123.897
				c98.045-71.672,132.316-127.325,155.711-142.599c23.318-15.198,64.295-22.425,64.295-22.425s-34.42,14.081-43.063,29.577
				c-8.643,15.422-17.806,35.166-11.697,35.836c6.185,0.745,33.303-4.098,42.766-9.462c9.387-5.289,13.559-7.152,13.559-7.152
				s-5.662,17.881-20.86,27.566s-25.107,23.691-6.631,23.691c18.477-0.074,30.024-3.129,43.138-11.101
				C9717.743-579.392,9738.306-596.602,9738.306-596.602z M9108.237-204.793c-35.09,31.962-37.4,46.267-38.741,72.715
				c-1.639,33.079-16.986,41.424-42.987,58.708c-25.928,17.284-27.566,36.432-57.145,43.137
				c-29.502,6.706-50.811,24.959-70.404,27.119c-19.594,2.161-42.243,2.607-42.243,2.607s30.174-11.994,48.278-21.01
				c18.104-9.089,16.465-16.613,37.847-27.715c21.382-11.101,30.546-8.419,39.71-28.162c9.164-19.668,19.222-30.694,27.566-44.925
				c8.344-14.229,20.339-27.193-26.896-0.298c-47.234,26.896-46.639,36.134-68.095,46.564
				c-21.457,10.505-52.003,23.915-52.003,23.915s17.731-23.021,35.91-34.569c18.179-11.622,27.045-17.284,37.027-39.636
				c9.91-22.351,30.323-37.847,41.424-53.865c11.176-15.943,10.877-13.634-16.092-10.729c-26.896,2.98-42.616,7.302-62.359,22.724
				c-19.668,15.422-37.996,13.485-53.717,28.534c-15.645,14.976-54.535,42.243-54.535,42.243s10.654-17.434,18.104-29.727
				c7.525-12.218,20.041-9.908,34.57-26.672c14.602-16.763,32.109-42.839,51.033-47.756c18.924-4.992,36.06-15.422,48.055-27.79
				c12.069-12.441,26.076-13.782,50.885-10.058c22.947,3.502,42.169,12.964,87.168-9.163l0,0
				c27.566-9.016,38.071-16.689,34.645,10.206c-0.82,6.631-3.875,15.721-5.887,22.053
				C9108.163-212.541,9107.79-208.592,9108.237-204.793z"/>
			<path fill="#4D4D4D" d="M8983.147-35.076c-3.874,2.012-8.344,3.651-13.783,4.843c-29.502,6.706-50.811,24.959-70.404,27.119
				c-19.594,2.161-42.243,2.607-42.243,2.607s30.174-11.994,48.278-21.01c18.104-9.089,16.465-16.613,37.847-27.715
				c21.382-11.101,30.546-8.419,39.71-28.162c5.215-11.175,10.729-19.594,16.018-27.417c-3.873,8.568-7.971,18.179-9.982,25.107
				c-4.471,15.273-10.506,18.998-20.936,24.885c-10.431,5.96-28.311,9.536-35.389,18.998c-7.078,9.536-13.41,12.441-20.712,16.986
				c-7.227,4.47-5.438,4.843,4.022,2.905c9.463-1.937,31.217-19.892,58.709-18.7C8977.411-34.479,8980.392-34.703,8983.147-35.076z
				 M8926.749-82.906c-3.277,2.384-6.928,4.619-11.622,6.854c-21.457,10.505-52.003,23.915-52.003,23.915
				s17.731-23.021,35.91-34.569c18.179-11.622,27.045-17.284,37.027-39.636c9.238-20.86,27.641-35.761,39.114-50.661
				c-2.235,4.843-5.886,10.952-12.069,18.104c-16.241,18.924-21.754,29.652-23.841,42.02c-2.086,12.293-15.943,20.414-32.632,33.378
				c-16.614,12.963-17.732,16.241,2.905,8.12C8916.095-77.989,8921.907-80.597,8926.749-82.906z M8833.1-129.098
				c-17.955,14.527-42.317,31.663-42.317,31.663s10.654-17.434,18.104-29.727c7.525-12.218,20.041-9.908,34.57-26.672
				c11.696-13.336,25.182-32.706,39.783-42.466c-7.152,7.674-11.324,16.465-17.73,26.075c-11.399,17.21-15.051,20.712-30.845,30.77
				c-15.869,10.058-22.202,19.669-17.434,17.136C8818.124-122.766,8824.011-125.299,8833.1-129.098z M9039.174-235.041
				c11.25-1.415,24.511-5.215,41.423-13.559l0,0c16.094-5.29,26.375-10.133,31.516-7.823
				C9080.075-239.139,9056.384-234.221,9039.174-235.041z M9282.276-371.455c69.138-44.105,140.362-91.042,185.213-123.897
				c98.045-71.672,132.316-127.325,155.711-142.599c8.344-5.438,19.072-9.908,29.279-13.336c-6.93,4.173-14.156,8.94-21.309,14.454
				c-33.898,26.225-54.609,68.989-105.049,108.252c-32.855,25.629-145.875,100.132-249.508,167.407
				c-0.299-1.191-0.672-2.384-0.969-3.576C9278.104-366.463,9280.339-368.772,9282.276-371.455z M9631.396-602.115
				c-1.043,4.173-0.82,6.929,1.34,7.152c6.185,0.745,33.303-4.098,42.766-9.462c9.387-5.289,13.559-7.152,13.559-7.152
				s-3.352,4.769-16.688,13.262c-13.262,8.493-44.256,17.359-44.926,7.748C9627.223-594.144,9629.011-598.315,9631.396-602.115z"/>
		</g>
		<g>
			<path fill="#FFCD54" d="M7870.377-78.213c5.886-60.272,57.367-108.773,57.367-108.773s-64.222,28.46-80.538,104.452
				C7838.639-42.749,7862.331,5.007,7870.377-78.213z"/>
			<path fill="#FFCD54" d="M7713.251,286.925c-32.633-50.96-22.127-120.992-22.127-120.992s-32.855,62.135,1.266,131.944
				C7710.271,334.457,7758.399,357.33,7713.251,286.925z"/>
			<path fill="#FFCD54" d="M8064.382-99.818c27.715-42.243,63.401-41.646,63.401-41.646s-43.137-19.669-82.474,27.938
				C8024.746-88.718,8026.087-41.408,8064.382-99.818z"/>
			<path fill="#FFCD54" d="M8209.065,514.53c-16.912,58.112-76.514,96.257-76.514,96.257s68.393-16.092,98.566-87.764
				C8246.839,485.549,8232.46,434.216,8209.065,514.53z"/>
			<path fill="#FFCD54" d="M7912.694,593.354c-57.516,18.998-123.004,0-123.004,0s55.207,43.584,130.008,22.574
				C7958.886,604.901,8084.05,536.881,7912.694,593.354z"/>
			<path fill="#FFCD54" d="M8784.524,27.805c-36.283,26.896-69.512,12.814-103.037,25.107
				c-33.527,12.293-49.321,35.984-78.154,35.984c0,0,50.289-23.319,67.201-66.307c16.912-43.063,56.623-55.579,77.334-81.581
				c20.787-26.001,42.914-38.443,42.914-38.443c-16.093,1.64-26.672,5.886-36.805,11.995c-37.102,22.5-68.468,58.708-113.691,38.593
				c-24.734-11.026-51.854-2.98-66.754,12.218c72.715-8.717,86.87,63.029,10.133,98.939
				c-77.334,36.209-127.771-41.721-191.621-41.721c33.676,27.491-7.45,45.595-9.686,46.563
				c-45.596,16.912-88.583,9.238-141.182-70.852c-57.517-87.466-143.566-68.468-143.566-68.468s54.535,29.577,27.565,63.625
				c-55.653,70.032-205.181-28.312-156.009-154.966c0,0-67.052,36.805-59.006,114.361c7.973,77.483-47.533,106.465-83.518,86.498
				c-35.984-20.041-25.479-61.539-25.479-61.539c-92.011,111.009-57.069,211.736-28.759,292.869
				c15.795,45.224,41.573,95.513,28.535,124.941c-17.881,40.529-59.677,37.325-81.804,13.187
				c66.53,173.964,223.136,116.001,305.088,99.76c50.662-10.059,68.096,29.13,42.913,70.33
				c54.016-26.374,67.648-67.5,84.338-114.213c26.299-73.906,187.97-80.835,144.088,49.396
				c87.689-77.93,18.551-170.909,79.047-274.244c61.241-104.452,170.016-149.526,176.05-94.991
				c5.96,54.462-60.05,78.526-60.05,78.526c120.024-12.591,117.119-90.894,175.901-132.019
				c31.366-21.979,70.927-17.062,103.856-30.472c26.746-10.878,36.506-46.862,86.349-61.391
				C8856.717-0.507,8820.882,0.983,8784.524,27.805z M8424.974,127.042c-34.643,27.119-80.09,70.256-97.746,120.099
				c-30.025,85.23-32.111,120.619-88.51,113.988c-56.398-6.556-113.393,58.038-125.388,99.014
				c-11.995,40.977-61.837-11.771-112.573,14.604c-50.662,26.373-137.682,10.579-158.021-24.81
				c-21.382-37.177-5.215-78.973-27.269-134.03c-23.617-59.155-66.828-242.655,32.931-242.655c54.61,0,92.384-30.099,98.418-72.714
				c5.96-42.616,26.598,8.12,85.306,28.758c58.708,20.711,92.234,22.872,119.875-6.557c27.715-29.429,57.889,2.533,99.088,44.18
				c76.589,77.334,98.939,34.421,169.494,26.3C8450.752,89.716,8456.265,102.53,8424.974,127.042z"/>
		</g>
	</g>
</g>
</svg>
