<?xml version="1.0" encoding="utf-8"?>
<!-- Generator: Adobe Illustrator 16.0.0, SVG Export Plug-In . SVG Version: 6.00 Build 0)  -->
<!DOCTYPE svg PUBLIC "-//W3C//DTD SVG 1.1//EN" "http://www.w3.org/Graphics/SVG/1.1/DTD/svg11.dtd">
<svg version="1.1" id="Layer_1" xmlns="http://www.w3.org/2000/svg" xmlns:xlink="http://www.w3.org/1999/xlink" x="0px" y="0px"
	 width="2200px" height="2200px" viewBox="5241.943 -1223.931 2200 2200" enable-background="new 5241.943 -1223.931 2200 2200"
	 xml:space="preserve">
<g id="Layer_x0020_1">
	<g>
		<path fill="#FFCD54" d="M6934.368,702.039c-39.562,75.62-234.013,177.613-283.259,144.609
			c-36.581-24.512-10.133-67.351,5.885-87.689c-18.029,12.293-37.475,32.26-46.34,63.773
			c-23.245,82.848,81.357,84.561,137.457,65.115c134.402-46.563,201.977-111.008,235.727-175.379
			c63.252-120.843-5.141-155.188,76.961-291.678c56.547-94.021,80.611-185.66,30.248-267.017
			c26.15,147.067-32.11,174.038-84.188,242.952C6938.466,487.396,6985.402,604.515,6934.368,702.039z"/>
		<path fill="#FFCD54" d="M5611.5,229.171c-122.109,233.118,29.577,235.13,94.171,440.832
			c21.606,67.872,68.021,135.371,154.667,190.503c102.441,65.189,206.969,11.771,155.041-73.087
			c3.65,32.483-7.004,75.546-103.41,43.658c-145.205-48.054-172.324-206.372-187.672-262.249
			c-11.102-40.604-52.003-76.961-74.279-106.092C5602.262,400.303,5591.459,303.674,5611.5,229.171z"/>
		<path fill="#FFCD54" d="M7035.096-301.81c-21.233,73.311-136.787,89.18-163.683-4.693
			c-15.72-54.983,12.964-145.578,62.955-200.338c149.005-163.384-92.384-369.234-65.19-548.711
			c-11.994,27.863-20.637,66.158-20.041,118.683c1.938,162.788,101.398,226.785,71.97,339.582
			c-19.37,74.577-209.353,234.088-60.868,382.869C6932.654-149.079,7046.568-183.201,7035.096-301.81z"/>
		<path fill="#FFCD54" d="M6553.287-885.835c67.797,59.453,124.42,35.836,142.375,91.638c18.029,55.803,59.304,54.462,59.304,54.462
			c-27.864-76.663,59.304-119.726,59.378-224.7c0-25.927,4.844-56.92,10.878-85.752c-22.053,28.087-43.435,65.264-51.034,109.816
			c-18.029,105.123-213.003,79.494-243.027-44.999c-11.176-46.49-5.886-88.212,5.215-122.259
			C6488.917-1042.29,6485.49-945.288,6553.287-885.835z"/>
		<path fill="#FFCD54" d="M6081.463-821.986c22.201,21.01,71.671,52.003,181.488,19.817
			c102.813-30.099,139.096-82.399,174.336-174.41c26.598-69.66,55.057-138.426,134.625-213.748
			c-44.924,25.629-161.818,102.366-195.271,224.477c-41.647,152.209-248.987,154.519-284.973,85.528
			c-35.985-69.063,37.476-165.022,37.476-165.022s-172.475,88.509-123.004,232.522c40.826,131.124-92.384,206.372-184.692,168.599
			c76.737,45.596,218.218,19.595,234.235-74.204c5.514-31.738,2.311-80.611-0.894-100.206
			C6050.171-847.317,6074.533-828.543,6081.463-821.986z"/>
		<path fill="#FFCD54" d="M5828.824-371.618c-32.186-133.137-137.383-234.832-108.699-379.517
			c-98.12,153.773,69.957,302.63,66.158,439.193c-3.65,129.783-116.597,145.429-134.925,59.975l0,0
			c-11.995,90.445,74.876,118.906,141.556,78.749C5843.129-203.466,5852.813-272.455,5828.824-371.618z"/>
		<path fill="#FFCD54" d="M5634.521-278.862c-31.59,60.794-87.765,202.646-15.348,338.241
			c65.711,123.302,116.447,164.576,137.159,215.834c39.188,97.301-42.095,143.79-95.513,97.227
			c51.556,82.772,199.221,16.018,137.682-108.104C5696.358,58.411,5578.645,56.176,5634.521-278.862z"/>
		<path d="M5901.018-561.525l19.37-9.388c25.853-12.517,53.493-22.499,80.909-31.067c24.885-7.748,50.141-14.528,75.547-20.488
			c37.921-29.577,73.607-58.187,108.624-91.563c13.634-12.889,25.183-27.789,38.667-40.902
			c11.771-11.473,24.362-21.232,38.518-29.651c43.658-25.853,99.461-37.177,149.154-43.584c59.379-7.6,127.921-11.176,187.15,0.372
			c25.928,4.992,75.248,18.179,79.793,49.991c3.873,27.417-16.093,37.848-40.232,38.891c-17.73,0.819-20.711,10.653-32.631,24.362
			c-8.717,10.058-17.359,20.265-25.779,30.62c-24.734,30.248-46.488,40.231-37.697,77.408l3.055,13.113
			c26.225,19.668,52.076,39.635,78.451,59.154c23.691,17.434,47.383,34.867,71.149,52.152
			c30.845,22.5,118.608,87.242,135.223,106.464c17.508,20.339,47.606,56.25,34.271,85.156
			c-10.281,22.352-39.412,26.821-61.166,28.312c-16.093,1.117-32.558,0.819-48.65,0.148c-21.308-0.894-42.615-2.532-63.849-4.47
			c-91.042-8.195-181.265-2.905-272.308-0.149c-59.825,1.863-119.502,2.31-179.178-2.831
			c-64.743-5.662-127.697-17.88-189.387-38.518c-69.883-23.394-137.605-60.198-189.459-113.169
			c-27.269-27.938-59.156-71.15-65.786-110.786c-2.757-16.837-4.694-38.368,10.579-50.14c14.678-11.324,34.569-4.992,50.066,0.894
			C5870.694-575.383,5885.893-568.454,5901.018-561.525z"/>
		<path d="M6199.251,810.365c-26.001,7.972-27.565,3.129-57.218-5.289c-12.219-3.502-22.649-10.356-29.354-21.309
			c-17.955-29.354-0.372-73.533,14.007-101.472l6.035-11.771l12.963,2.234c33.898,5.737,68.318,8.94,102.664,10.059l19.297,0.67
			l-1.938,19.222c-0.67,6.482-2.086,19.967-0.745,26.226c3.651,16.315,4.619,34.718-1.714,50.513
			c-5.438,13.559-16.241,24.064-30.918,26.746C6218.771,808.652,6216.759,805.001,6199.251,810.365z M6496.367,810.217
			c-22.648,16.018-30.621,12.069-59.08,12.218c-11.996,0.075-23.171-3.278-32.483-10.951
			c-31.067-25.704-23.469-86.722-16.316-122.185l2.533-12.814l12.964-1.49c35.239-4.172,70.404-9.387,105.197-16.539l18.402-3.726
			l2.98,18.551c1.34,8.568,3.873,24.512,7.599,31.813c8.345,16.763,14.751,36.729,12.218,55.728
			c-2.086,15.795-10.578,30.099-25.852,36.282C6509.777,802.99,6512.088,799.115,6496.367,810.217z"/>
		<path fill="#FFD7E0" d="M6146.95,787.717c-6.854-14.155-10.804-43.286,4.172-53.12c-5.065,30.918,1.64,71.149,42.913,58.559
			c-10.058-18.774-16.315-42.02,0-59.453c0,0-0.894,27.641,9.016,41.722c18.774,26.821,56.771,13.783,44.403-42.615
			c-1.64-7.227-0.894-20.414,0.298-31.962c-39.561-1.341-74.651-5.215-105.049-10.355
			C6125.195,724.613,6107.166,776.467,6146.95,787.717z M6437.138,804.405c-10.952-13.187-23.319-43.733-11.175-59.006
			c3.873,35.091,22.275,76.737,59.975,50.14c-15.497-17.284-28.461-40.529-17.211-64.594c0,0,7.078,30.248,21.158,42.467
			c26.598,23.245,60.869-2.831,32.186-60.198c-3.948-7.822-7.152-23.617-9.313-37.103c-29.95,6.109-65.264,11.847-106.613,16.764
			C6397.576,735.192,6391.467,804.629,6437.138,804.405z"/>
		<path fill="#FFA3B9" d="M6146.95,787.717c-2.161-4.396-4.023-10.355-5.066-16.688c-2.235,0.298-5.588-0.745-10.579-4.619
			c-3.65-2.831-6.333-7.078-8.27-11.771C6123.258,770.134,6129.591,782.8,6146.95,787.717z M6153.059,774.902
			c5.291,15.496,17.583,25.405,40.977,18.253c-3.576-6.705-6.631-13.932-8.418-21.233c-3.354,4.769-8.643,8.643-17.285,7.674
			C6161.18,778.851,6156.338,776.988,6153.059,774.902z M6198.357,765.962c1.191,3.502,2.756,6.705,4.693,9.462
			c18.774,26.821,56.771,13.783,44.403-42.615c-1.64-7.227-0.894-20.414,0.298-31.962c-7.152-0.224-14.155-0.596-21.01-0.969
			c-1.416,29.279,12.963,65.413-3.799,70.479C6211.768,773.71,6203.646,770.209,6198.357,765.962z M6404.804,779.67
			c3.353,2.235,6.705,3.875,9.834,4.471c5.364,1.043,9.089,1.341,11.548,1.341c3.129,7.524,7.152,14.305,10.952,18.924
			C6419.778,804.555,6409.869,794.496,6404.804,779.67z M6439.149,788.015c6.184,2.384,15.496,4.693,25.927,2.683
			c6.184-1.192,10.058-3.354,12.367-5.737c2.682,3.726,5.514,7.302,8.494,10.579
			C6464.331,810.813,6448.983,803.586,6439.149,788.015z M6492.195,775.35c9.164-0.82,19.817-5.514,14.527-23.916
			c-7.599-26.672-17.582-46.266-16.838-70.926c7.973-1.416,15.572-2.906,22.873-4.396c2.16,13.485,5.364,29.28,9.313,37.103
			C6549.935,768.867,6518.42,795.093,6492.195,775.35z"/>
		<path fill="#EB0032" d="M6046.744-519.134c0,0-53.046,20.042-134.03-15.943c-80.984-35.984-107.954-54.015-99.015,0
			c7.749,46.117,73.088,152.209,242.432,208.905c226.041,75.695,418.854,21.01,636.477,40.529
			c156.008,14.007,191.099,1.564,123.152-77.482c-68.021-78.973-214.492-126.952-319.02-142.971
			c-104.527-16.018-132.988-11.026-132.988-11.026s91.49-9.983,183.5,8.493c91.937,18.552,136.489,42.02,136.489,42.02
			s-99.536-72.491-131.497-97.523c-32.036-24.959-72.044-52.45-72.044-52.45l43.509,14.454c0,0-9.982-42.467-6.48-72.938
			c3.501-30.546-26.971-65.563-26.971-65.563s15.496,9.536,29.95,24.064c14.528,14.453,18.03,35.984,18.03,35.984
			s10.504-14.527,11.473-47.532c1.043-33.005-10.505-47.011-10.505-47.011s6.556,4.022,18.999,26.522
			c12.516,22.5,7.002,52.524,7.002,52.524s42.541-52.003,53.047-59.006c10.504-7.003,44.999,4.47,41.498-20.041
			c-3.502-24.437-86.498-54.462-245.561-33.974c-158.989,20.488-174.486,70.032-215.462,108.997
			c-40.977,39.04-81.506,70.479-81.506,70.479s46.489-7.972,90.521-7.972c43.957,0,60.496,2.98,60.496,2.98
			c-98.27,8.419-251.968,38.592-339.508,80.984C5928.732-553.628,5960.693-524.125,6046.744-519.134z"/>
		<path fill="#BC0028" d="M5813.699-535.077c7.749,46.117,73.088,152.209,242.432,208.905
			c226.041,75.695,418.854,21.01,636.477,40.529c72.789,6.557,119.203,7.302,141.182-1.713c7.227-13.933,3.65-31.813-16.166-54.834
			c-104.08-120.694-309.932-152.209-556.387-152.209c-246.454,0-312.165-9.238-405.74-53.94
			C5825.322-562.718,5807.441-572.701,5813.699-535.077z M6594.562-497.677c59.975,15.646,89.18,31.067,89.18,31.067
			s-99.536-72.491-131.497-97.523c-11.474-8.94-23.99-18.179-35.24-26.374c4.396,4.47,9.463,10.058,15.348,16.986
			C6554.404-547.37,6581.523-513.918,6594.562-497.677z M6501.806-609.431l21.903,7.302c0,0-9.982-42.467-6.48-72.938
			c1.489-12.814-3.055-26.374-8.717-37.772c1.861,11.398,3.055,28.311-2.906,41.572
			C6498.602-655.474,6490.109-629.397,6501.806-609.431z M6510.97-725.133c3.055,2.607,6.184,5.438,9.238,8.567
			c14.528,14.453,18.03,35.984,18.03,35.984s10.504-14.527,11.473-47.532c0.148-3.278,0.074-6.407-0.074-9.388
			c-2.607,3.651-6.184,7.152-11.026,9.238C6529.968-724.463,6517.898-724.611,6510.97-725.133z M6558.428-748.229
			c12.219,22.425,6.779,52.151,6.779,52.151s42.541-52.003,53.047-59.006c9.089-6.109,36.506,1.862,41.051-12.219
			c-4.843,0.895-12.293,0.969-23.767-0.969c-33.601-5.811-43.212,10.654-54.61,18.7
			C6572.584-743.609,6562.973-746.366,6558.428-748.229z"/>
		<path fill="#FFA3B9" d="M5813.699-535.077c7.749,46.117,73.088,152.209,242.432,208.905c33.602,11.25,66.531,19.595,98.939,25.778
			c95.885-42.765,370.278-176.124,235.354-174.56c-128.889,1.49-307.546-19.297-374.076-27.79
			c-57.592-6.407-106.764-19.743-160.852-45.596C5825.322-562.718,5807.441-572.701,5813.699-535.077z"/>
		<path fill="#FFA3B9" d="M6651.035-787.79c-25.332-20.563-104.9-38.294-236.844-21.308
			c-158.989,20.488-174.486,70.032-215.462,108.997c-40.977,39.04-81.506,70.479-81.506,70.479s39.337-6.779,79.866-7.822
			c-4.32-4.769-5.363-13.634,6.408-30.248c24.66-34.644,49.171-63.551,86.422-93.65
			C6323.521-788.46,6550.01-824.817,6651.035-787.79z M6163.415-620.606c-83.146,14.454-174.56,37.848-234.683,66.979
			c0,0,8.492,7.822,28.385,16.093c14.453-9.016,51.481-29.876,120.471-54.909C6114.094-605.705,6142.48-614.646,6163.415-620.606z"
			/>
		<path d="M6307.727-481.063c316.189-8.27,492.537,132.987,506.99,158.988c14.527,26.002-26.002,26.448-107.954,19.967
			c-82.027-6.481-285.047,3.502-415.054,3.502c-130.008,0-260.089-35.538-347.48-95.513c-87.392-59.9-115.256-138.202-111.53-149.75
			c2.31-7.003,31.142,5.736,53.046,16.688C5999.211-470.558,6186.586-477.934,6307.727-481.063z"/>
		<path fill="#640015" d="M5872.855-491.418c21.01,32.557,49.693,60.645,81.58,82.474c93.5,64.147,225.221,92.309,337.273,92.309
			c55.652,0,111.381-1.489,167.034-2.831c47.235-1.117,94.47-2.31,141.704-2.682c35.463-0.298,72.342-0.671,107.73,2.086
			c45.298,3.65,120.322,21.755,54.387-24.958c-29.801-21.085-63.104-38.816-96.48-53.419
			c-48.725-21.308-100.057-36.879-152.135-47.458c-67.648-13.708-136.861-18.998-205.775-17.21
			c-128.965,3.353-313.508,10.355-430.402-47.979C5846.556-526.658,5857.955-514.515,5872.855-491.418z"/>
		<path d="M6011.355-477.039l-0.895-13.635c100.132,15.869,214.27,11.771,297.266,9.611c114.585-3.055,210.842,13.634,287.58,37.326
			c-7.972,22.723-20.19,54.312-30.77,66.978c5.886-1.862,11.102-4.023,15.795-6.705c-2.012,15.869-6.78,40.231-14.23,72.64
			c-6.184,26.821-16.838,51.481-36.208,80.389c-52.003,77.408-134.552,114.212-225.222,123.45
			c-75.173,7.674-159.733,0.149-217.846-53.418c-30.396-28.088-47.086-61.986-56.994-101.696
			c-3.725-15.05-8.568-31.589-2.906-46.787c4.545-12.293,14.454-20.19,25.704-25.778
			C6026.032-382.272,6014.261-431.891,6011.355-477.039z"/>
		<path fill="#C7738A" d="M6515.291-445.674c-17.583-3.576-35.24-6.557-52.972-9.015c14.081,35.91,17.583,55.877,17.583,55.877
			S6503.072-408.199,6515.291-445.674z M6065.295-435.318c2.16,6.482,4.396,12.666,6.705,18.328
			c1.192-4.693,2.459-9.611,3.949-14.826C6075.949-431.816,6071.852-432.562,6065.295-435.318z"/>
		<path fill="#FFD7E0" d="M6087.05-464.076c-20.339,8.568-40.604,7.227-40.604,7.227c30.695,20.265,89.479,17.285,118.311-3.725
			c-9.015,12.665-12.889,31.813-6.779,46.489c9.983-25.182,42.615-44.999,69.287-39.263c-62.061,14.603-54.61,59.975-61.315,65.786
			c-3.726,3.203-12.293-8.047-14.305-11.325c-7.674-12.665-8.94-21.68-7.823-40.604c-16.092,6.258-33.898,8.121-51.108,7.897
			c-8.717,25.777-16.241,66.53-11.995,93.501c18.402-3.726,60.57-6.259,77.482,0c0,0-49.246,2.979-83.964,15.272
			c-36.953,12.964-33.452,25.405-25.778,56.026c9.164,36.804,43.138,162.267,254.277,140.735
			c131.945-13.485,232.076-89.701,251.373-222.837c-20.414,15.123-39.412,25.479-63.551,28.683c0,0,50.736-40.827,76.736-113.021
			c-12.367-3.353-24.809-6.481-37.325-9.238c-0.521,2.087-1.192,4.098-1.862,6.035c-13.038,36.283-59.752,77.259-61.763,54.163
			c-0.969-11.026-7.674-40.827-19.595-74.502c-45.968-5.588-92.383-7.525-138.574-6.333
			C6243.281-461.394,6164.384-458.786,6087.05-464.076z M6047.639-467.429c-5.216-0.596-10.506-1.192-15.721-1.862l0,0
			c0,0,0.074,1.267,0.224,3.501C6036.016-465.193,6045.701-465.343,6047.639-467.429z M6032.291-463.48
			c1.415,15.497,7.301,60.348,31.142,108.7c0,0-0.894-15.273,4.694-44.329c-6.482-13.709-11.325-28.386-14.901-42.243
			c-0.819-0.447-1.64-0.969-2.458-1.49C6039.815-449.622,6034.377-459.159,6032.291-463.48z"/>
		<path d="M6121.098-267.762c15.795-7.301,43.36-17.657,64.146-12.889c17.285,3.948,28.311,16.614,32.781,30.546
			c16.018,49.842-70.852,103.856-83.294,38.667c-2.384-12.517-0.745-23.319-13.857-38.295
			C6108.656-263.664,6102.1-259.045,6121.098-267.762z"/>
		<path fill="#FF547D" d="M6156.486-191.546c0.969,0.447,1.938,0.82,3.055,1.118c7.45,2.012,16.167-0.745,22.648-4.247
			c9.016-4.768,16.838-12.367,21.979-20.712c4.992-8.046,7.748-17.21,6.557-26.373c-7.004,2.979-14.454,14.453-17.583,20.637
			c-0.671-9.983,4.47-16.838,8.866-21.382c-5.588,0.968-12.666,3.277-21.01,8.27
			C6162.521-223.209,6157.604-199.145,6156.486-191.546z"/>
		<path fill="#FFA3B9" d="M6327.842-129.484c119.428-20.19,208.16-94.842,226.266-219.41
			c-20.414,15.123-39.412,25.479-63.551,28.683c0,0,50.736-40.827,76.736-113.021c-12.367-3.353-24.809-6.481-37.325-9.238
			c-0.521,2.087-1.192,4.098-1.862,6.035c-13.038,36.283-59.752,77.259-61.763,54.163c-0.969-11.026-7.674-40.827-19.595-74.502
			c-17.061-2.087-34.121-3.651-51.258-4.694c29.504,96.184,48.65,239.079-56.398,322.522
			C6334.92-135.594,6331.27-132.465,6327.842-129.484z"/>
		<path fill="#FFFFFF" d="M6046.445-456.85c30.695,20.265,89.479,17.285,118.311-3.725c-9.015,12.665-12.889,31.813-6.779,46.489
			c8.418-21.158,32.855-38.592,56.25-40.157l0,0c0,0-10.506-1.862-25.183,2.087c-14.677,3.874-26.374,17.358-26.374,17.358
			s-0.895-0.298,3.278-9.462c2.533-5.513,7.227-12.292,10.505-16.688c-12.293-0.074-24.66-0.298-37.103-0.67
			c-7.45,2.756-17.434,5.736-30.844,8.419C6071.031-445.823,6046.445-456.85,6046.445-456.85z M6064.326-373.704
			c-6.034-13.336-17.806-42.765-22.5-76.291c-5.141-5.215-8.12-10.579-9.535-13.485c1.415,15.497,7.301,60.348,31.142,108.7
			C6063.433-354.78,6063.061-361.188,6064.326-373.704z M6040.188-465.566c-0.074-0.894-0.074-1.862-0.148-2.756
			c-2.683-0.299-5.439-0.671-8.121-0.969l0,0c0,0,0.074,1.267,0.224,3.501C6034.004-465.491,6037.207-465.343,6040.188-465.566z
			 M6106.123-431.891c-4.471,0.224-8.941,0.372-13.411,0.298c-8.717,25.777-16.241,66.53-11.995,93.501
			c13.485-2.757,39.636-4.843,59.379-3.278c3.055-21.531-4.619-32.632-7.45-37.103c-10.132-16.018-34.942-21.158-33.974-28.832
			C6099.492-413.488,6104.26-426.824,6106.123-431.891z M6150.303-337.496c-15.273,1.416-49.842,5.364-76.067,14.677
			c-36.953,12.964-33.452,25.405-25.778,56.026c8.121,32.632,35.762,134.775,188.641,142.672
			c-16.391-1.266-61.314-7.227-91.041-33.973c-38.369-34.495-60.943-83.22-60.05-103.335c0.894-20.116,17.136-32.633,17.136-32.633
			s-33.377,7.973-30.025-11.548C6076.396-325.055,6150.229-337.422,6150.303-337.496z"/>
		<path d="M6047.713-284.301c10.281,11.473,27.044,18.625,30.546,17.358c3.501-1.267,12.069-18.7,24.884-27.119
			c11.25-7.524,14.155-25.33-6.779-21.829c-11.475,1.938-32.037,5.439-42.541,4.917
			C6044.732-311.42,6038.771-294.359,6047.713-284.301z"/>
		<path d="M5890.14,559.59c7.972,74.726,29.205,148.186,66.604,218.591l20.414,38.368l-42.168-10.803
			c-53.418-13.708-99.238-41.646-127.697-89.999c-47.533-80.835-30.547-191.844-4.918-277.149
			c16.838-56.25,40.604-113.244,68.691-165.769c-7.524,1.64-15.049,2.086-22.574-1.564c-11.175-5.513-15.198-16.838-18.551-28.013
			c-6.332-21.084-9.536-43.957-11.623-65.936c-3.277-35.09-3.203-69.585-3.055-104.75c0.075-7.525,0-14.976,0-22.5l-0.297-37.624
			c2.979,2.161,54.759,19.445,54.759-16.315c0-14.976-0.224-29.876-0.671-44.702l-0.744-28.981l26.522,10.431l-3.054-14.23
			l53.045-0.446c-4.992-11.697-9.611-23.543-14.08-35.166c-16.987-44.851-31.59-91.787-40.53-138.947
			c-1.341-7.301-2.607-14.603-3.65-21.903l-5.066-33.898l31.515,13.41c28.832,12.219,79.047,14.528,109.668,8.643l13.634-2.683
			c-0.596,30.919,23.097,100.802,71.075,136.787c0.671-0.149,12.518-2.98,12.592-3.129c17.582-3.576,35.09-7.674,52.375-11.847
			c51.854-12.367,105.868-18.327,159.212-18.774c20.488-0.148,42.765,0.298,63.551,2.459c-0.224-1.863-0.447-3.726-0.671-5.514
			c-4.098-35.612-8.865-71.075-13.857-106.613c63.924-2.607,125.611-2.905,189.535,2.086c29.503,2.31,57.143,5.737,86.199,10.505
			c-2.906,16.614-5.438,30.323-10.951,46.639c-7.6,22.649-17.881,44.776-29.652,65.563c-13.336,23.767-29.131,46.564-45.819,68.021
			c-4.321,5.514-8.717,11.102-13.187,16.54c12.293-1.415,27.268-6.184,38.07-12.069l38.518-21.084
			c-11.846,26.075-16.316,52.151-18.104,75.396c-1.117,14.155-0.074,30.695,0.521,44.851c0.596,14.305,1.49,28.534,2.458,42.765
			c27.864-9.611,53.791-14.007,80.463-26.821l0.597,29.876c0.223,12.367-0.149,25.032-0.671,37.325
			c-1.267,31.962-3.948,63.998-7.674,95.811c-3.055,25.182-6.109,51.929-11.026,77.334c11.92,4.991,24.064,11.175,35.314,17.358
			c27.565,14.9,54.238,32.26,78.898,51.631c68.542,53.939,123.748,125.313,137.457,213.45
			c13.037,83.964-19.297,155.486-83.22,209.054c-21.382,17.881-45.446,33.154-70.479,45.521
			c-10.803,5.289-22.723,10.729-34.197,14.603l-32.035,10.729l7.152-33.005c4.768-22.426,3.725-53.344-0.149-75.62
			c-2.235-13.038-4.619-25.479-8.419-38.22c-5.736-19.297-13.857-37.922-22.947-55.877c-0.297-0.447-0.521-0.895-0.744-1.342
			l-1.043,1.044c-14.305,14.603-46.639,28.46-65.115,35.389c-30.472,11.473-62.657,19.817-94.47,26.597
			c-50.364,10.803-101.919,17.732-153.252,22.724c-94.692,9.164-194.079,6.109-286.687-17.508
			c-25.106-6.333-50.214-14.379-74.129-24.586c-8.792-3.726-18.477-8.121-26.821-13.038l-8.493-4.992l-0.82-9.834
			c-3.203-37.027-5.215-74.577-6.48-111.828c-27.119,7.45-51.557,20.637-73.236,38.667L5890.14,559.59z"/>
		<path fill="#EB0032" d="M5939.758,787.195c-84.336-158.84-93.053-339.955-36.953-531.949
			C5816.531,404.252,5697.923,725.135,5939.758,787.195z"/>
		<path fill="#FFA3B9" d="M5888.053,312.092c4.248-18.849,9.164-37.772,14.752-56.846
			c-63.998,110.563-145.727,315.668-84.933,439.491c-7.749-41.796-11.101-87.168-6.407-134.402
			C5823.906,434.426,5864.361,351.28,5888.053,312.092z"/>
		<path fill="#89001D" d="M5905.562-280.65c32.483,13.857,86.87,16.315,120.694,9.834c7.674,33.079,20.041,56.771,40.008,83.965
			c0,0-33.451,20.488-48.501,35.761c-10.878,11.101-8.94,23.394-6.185,32.931c5.216,17.582,7.674,24.213,15.348,38.965
			c-3.203,16.167-8.717,49.916-6.854,82.847c3.055,55.132-8.791,89.18-22.798,142.523c-18.999,63.923-25.778,153.923-26.97,219.261
			c-0.969,52.152-0.746,128.294-0.746,130.678c-33.973,8.345-62.357,24.139-85.9,43.882c-3.055-50.14-2.459-140.064,23.394-260.312
			c30.248-140.885,37.698-208.31,8.493-342.042l58.783-0.446C5974.328-62.805,5921.505-172.846,5905.562-280.65z"/>
		<path fill="#FFA3B9" d="M5905.562-280.65c32.409,13.783,86.646,16.315,120.471,9.834c-3.65,0.745-45.224,9.388-66.978,9.388
			c-23.17,0-33.602,0-33.602,0s8.345,55.877,20.34,108.252c6.407,27.864,12.367,49.321,16.539,63.327
			C5945.793-129.112,5916.736-205.403,5905.562-280.65z M5894.088,350.014c3.354-22.127,7.6-45.596,12.964-70.33
			c30.248-140.885,37.698-208.31,8.493-342.042l58.783-0.446l-48.875,8.344c20.638,85.977,20.713,186.257,0.299,272.605
			C5916.364,258.003,5903.55,302.481,5894.088,350.014z"/>
		<path fill="#FFA3B9" d="M6077.662-172.846c0,0-13.857,6.78-29.13,18.254c-7.003,5.289-12.144,9.61-15.795,12.739
			c-18.998,16.614,27.194,87.466,39.562,101.548c31.961,36.506,59.006,44.999,59.006,44.999
			c30.844-20.712,95.214-46.639,126.506-46.043c-35.762,11.623-79.048,28.833-123.525,62.508
			c-34.57-13.336-78.377-49.768-96.035-83.145c-4.842,26.672-6.184,48.65-2.979,75.396c2.608,24.66,1.192,62.731-14.976,116.224
			c-32.109,106.018-34.494,295.999-32.482,367s7.003,129.561,7.003,129.561s128.964,76.439,375.94,52.449
			c247.051-23.989,303.449-85.305,303.449-85.305c-107.955-234.981-290.486-315.892-327.439-689.671h57.516
			c0,0-1.489-33.974-3.277-51.779c-1.713-17.731-2.235-18.998-2.235-18.998s-104.005-12.964-221.942,15.272
			c-118.013,28.236-135.521,23.021-124.271,12.219c11.25-10.729,34.197-22.724,34.197-22.724L6077.662-172.846z"/>
		<path fill="#F58EAA" d="M6131.305,4.694c30.844-20.712,95.214-46.639,126.506-46.043c-19.297,6.333-40.828,14.23-63.551,25.48
			c21.307-3.129,44.552-2.161,63.848,9.387c45.373,27.194,47.831,349.566,183.947,676.484
			c186.853-27.492,232.15-76.663,232.15-76.663c-107.955-234.981-290.486-315.892-327.439-689.671h57.516
			c0,0-1.489-33.974-3.277-51.779c-1.713-17.731-2.235-18.998-2.235-18.998s-24.362-2.98-62.806-2.98
			c7.227,6.854,11.995,17.062,3.129,31.143c-18.849,30.099-109.146,40.678-152.357,77.408
			C6143.523-24.734,6131.305,4.694,6131.305,4.694z"/>
		<path fill="#C7738A" d="M6639.338,616.063c26.001-13.112,34.867-22.723,34.867-22.723
			c-54.164-118.013-127.176-197.135-191.1-293.987c39.71,87.614,84.113,179.774,121.365,245.561
			C6619.223,570.84,6630.621,594.605,6639.338,616.063z"/>
		<path fill="#FFD7E0" d="M6035.271,13.411c2.608,24.66,1.192,62.731-14.976,116.224c-32.109,106.018-34.494,295.999-32.482,367
			s7.003,129.561,7.003,129.561s7.078,4.172,21.159,10.355c-25.629-141.183-11.846-380.634,10.058-477.412
			C6045.999,70.927,6039.74,27.641,6035.271,13.411z"/>
		<path fill="#FFD7E0" d="M6077.662-172.846c0,0-13.857,6.78-29.13,18.254c-7.003,5.289-12.144,9.61-15.795,12.739
			c-18.401,16.093,24.362,83.07,38.294,100.058c-23.691-36.209-35.164-80.538-23.989-77.558c16.019,4.172,49.47-0.372,127.548-24.66
			c37.326-11.622,83.518-19.669,121.514-24.884c-34.941,1.937-76.215,6.779-119.277,17.061
			c-41.424,9.909-70.48,15.646-90.223,18.552l0,0c0,0-0.373,0.074-1.043,0.148c-15.646,2.235-25.332,2.608-30.695,1.714
			c-8.941-0.596-15.869-2.757-14.379-8.345c2.533-9.462,25.107-22.574,39.635-30.248L6077.662-172.846z"/>
		<path fill="#EB0032" d="M6402.568-280.65c0,0,15.943,114.51,17.434,157.051c1.564,42.541,0,48.278,0,48.278l-53.939-2.98
			c31.067,394.119,328.109,533.364,371.47,782.427c7.972,46.042,0,83.07,0,83.07s203.02-68.021,175.007-248.02
			C6884.525,359.178,6671.82,271.19,6671.82,271.19s-6.109,52.971-31.217,41.944c-25.032-10.951-103.559-67.946-132.539-100.951
			c-29.057-33.004-22.053-54.014-22.053-54.014s10.504,31.887,49.99,64.52c39.562,32.557,91.191,71,104.602,73.459
			c13.411,2.533,21.979-43.956,31.217-121.961c8.121-68.468,8.941-122.184,9.09-134.328c-4.545,1.341-9.164,2.533-13.56,3.949
			c0,0-9.909,131.348-18.327,191.844c-8.42,60.496-30.994-30.472-40.008-94.022C6600,78.154,6594.04-22.871,6596.052-48.873
			c2.012-26.001,7.972-35.984,7.972-35.984s-21.01,11.548-45,14.305c-23.989,2.682-44.775-5.514-44.775-5.514
			s-17.955,0.969-30.993,11.25c-12.964,10.207-16.466,15.943-16.466,15.943s6.482-23.691,28.759-33.451
			c22.202-9.76,35.984-7.525,35.984-7.525s38.965-43.211,67.499-93.725c28.535-50.513,35.017-87.019,35.017-87.019
			S6537.717-286.238,6402.568-280.65z"/>
		<path fill="#FFA3B9" d="M6913.283,544.913c-0.223-1.938-0.446-3.8-0.744-5.737C6884.525,359.178,6671.82,271.19,6671.82,271.19
			s-0.894,7.748-3.427,16.688C6696.258,301.736,6871.339,394.045,6913.283,544.913z M6656.398,270.967
			c5.514-20.936,10.356-54.164,15.422-96.779c8.121-68.468,8.941-122.184,9.09-134.328c-2.385,0.671-4.768,1.341-7.152,2.012
			C6674.354,76.217,6674.727,191.249,6656.398,270.967z"/>
		<path fill="#FFA3B9" d="M6402.568-280.65c0,0,15.943,114.51,17.434,157.051c1.564,42.541,0,48.278,0,48.278l-41.274,6.556
			c0,0,1.49,133.435,82.475,290.039c41.722,80.687,101.919,159.51,152.88,236.396c-101.25-138.128-228.277-285.643-248.02-535.972
			l53.939,2.98c0,0,7.301-24.437,6.705-67.351c-0.596-42.839-10.058-127.921-10.058-127.921s44.999-3.129,92.085-3.129
			c47.16,0,125.313,3.129,125.313,3.129S6537.717-286.238,6402.568-280.65z M6598.957-69.51c2.385-10.804,5.066-15.348,5.066-15.348
			s-21.01,11.548-45,14.305c-23.989,2.682-44.775-5.514-44.775-5.514s-9.09,0.521-19.072,4.47
			c5.736-1.341,12.293-1.267,19.146,2.012C6532.277-60.942,6566.847-57.963,6598.957-69.51z"/>
		<path fill="#EB0032" d="M5888.277-49.097c0,0,4.991,1.938,13.262,3.874c14.751,51.929,20.189,99.237,19.295,146.92l0,0
			c-3.65,65.785-23.914,118.905-37.4,147.589c-3.947,1.341-7.599,2.459-10.877,3.353c-15.943,4.396-18.625,3.651-24.213-14.9
			c-15.943-53.12-14.007-137.681-13.857-165.098c0-1.415,0-10.281,0-17.955c4.098,1.862,6.854,3.949,10.133,6.557
			c-0.15,57.963,2.011,140.735,14.602,169.94C5870.248,197.73,5892.747,120.844,5888.277-49.097z"/>
		<path fill="#FFA3B9" d="M5888.277-49.097c0,0,4.991,1.938,13.262,3.874c1.266,4.545,2.532,9.09,3.65,13.56
			c-5.29-0.745-11.399-2.533-16.614-4.321C5888.5-40.305,5888.426-44.626,5888.277-49.097z M5851.771,247.424
			c-1.117-2.459-2.235-5.662-3.427-9.686c-15.943-53.12-14.007-137.681-13.857-165.098c0-1.415,0-10.281,0-17.955
			c1.787,0.819,3.277,1.639,4.768,2.607C5837.913,86.051,5834.263,192.888,5851.771,247.424z"/>
		<path fill="#FFFFFF" d="M6112.604-389.499c-5.886-0.745-11.847-0.074-17.657,2.459l-0.373,2.384
			c-0.521,4.023-0.596,8.121-0.223,12.069c0.969,9.686,6.481,25.257,16.539,29.429c1.788,0.224,3.725,0.224,5.812,0.074
			c2.831-0.298,5.29-0.819,7.45-1.564c-12.592-3.055-18.402-18.029-17.061-29.875
			C6107.762-380.187,6109.699-385.252,6112.604-389.499L6112.604-389.499z"/>
		<path fill="#FFFFFF" d="M6118.713-385.476c2.087,0.67,2.98,4.246,1.938,8.046s-3.576,6.333-5.662,5.662
			c-2.086-0.596-2.98-4.172-2.012-7.972C6114.02-383.539,6116.553-386.072,6118.713-385.476z"/>
		<path d="M6609.313,74.429c0,0,21.681-9.983,44.852-24.884c13.708-8.791,40.827-9.983,49.842-20.936
			c-8.344-1.49-16.167-3.65-22.426-6.034c-19.668-7.45-32.706-27.417-26.075-48.427c13.708-43.658-33.153,0.224-34.048-70.853
			c-0.074-2.979,0.074-6.034,0.373-9.089C6592.997-68.766,6608.195,66.531,6609.313,74.429z"/>
		<g>
			<path fill="#BC0028" d="M6486.012,158.17c0,0,10.504,31.887,49.99,64.52c39.562,32.557,91.191,71,104.602,73.459
				c5.216,0.969,9.686-5.364,13.709-18.029l0,0c6.407-20.116,11.771-56.101,17.508-103.932c8.121-68.468,8.941-122.184,9.09-134.328
				c-4.545,1.341-9.164,2.533-13.56,3.949c0,0-9.909,131.348-18.327,191.844c-8.42,60.496-30.994-30.472-40.008-94.022
				C6600,78.154,6594.04-22.871,6596.052-48.873c0.372-4.769,0.894-9.09,1.415-12.814l0,0c0,0-11.696,45.298-5.215,135.297
				c2.086,28.311-61.391,25.107-96.258,17.657C6455.764,82.698,6476.252,132.168,6486.012,158.17z M5920.164,64.52
				c0.67,12.442,0.895,24.885,0.67,37.252c-3.65,65.785-23.914,118.831-37.4,147.515c-3.947,1.341-7.599,2.459-10.877,3.353
				c-12.814,3.502-17.061,3.726-21.158-5.96c2.234,1.714,4.842,2.31,7.748,1.267c14.379-5.066,32.707-104.08,35.687-136.488
				c2.98-32.409,3.576-47.98,3.576-47.98S5910.031,66.531,5920.164,64.52z M6472.451-61.314c4.322-7.228,11.623-16.019,23.097-21.01
				c22.202-9.76,35.984-7.525,35.984-7.525s37.772-41.87,66.159-91.34C6511.789-158.02,6472.451-61.314,6472.451-61.314z
				 M6472.451-61.314L6472.451-61.314L6472.451-61.314z"/>
		</g>
		<path fill="#640015" d="M5855.422,69.735c0.744,23.319,2.756,85.156,3.948,103.409c1.489,23.096,9.313-62.061,10.803-92.383l0,0
			C5863.914,76.515,5859.146,72.864,5855.422,69.735z"/>
		<path fill="#640015" d="M6619.744,69.288c1.937,36.208,7.077,111.978,17.284,136.638c9.089,21.755,13.634-82.549,15.72-155.486
			C6640.082,58.485,6627.939,65.041,6619.744,69.288z"/>
		<path d="M6284.109-409.614c0.373,0.521,0.819,1.043,1.191,1.639c0.149,0.149,0.225,0.298,0.373,0.521
			c4.843,7.078,7.748,16.614,7.748,27.045c0,22.053-13.187,40.008-29.428,40.008c-16.316,0-29.504-17.955-29.504-40.008
			c0-2.012,0.149-3.949,0.299-5.886c-2.832,1.862-5.439,3.65-7.823,5.215l-0.224,0.224c-29.727,19.892-24.064-20.414-24.064-20.563
			c0.373-2.608,2.757-4.471,5.364-4.098c2.608,0.372,4.47,2.756,4.098,5.364c0,0.074-2.683,19.296,9.238,11.324l0.298-0.149
			c21.309-14.305,61.391-41.125,93.873-41.125c2.683,0,4.844,2.16,4.844,4.843c0,2.607-2.161,4.768-4.844,4.768
			c-10.653,0-22.499,3.353-34.196,8.27C6282.321-411.552,6283.215-410.657,6284.109-409.614z"/>
		<path fill="#FFFFFF" d="M6250.137-384.73c3.576-0.82,7.301,3.055,8.195,8.642c0.894,5.514-1.268,10.729-4.918,11.548
			c-3.65,0.745-7.301-3.129-8.195-8.717C6244.25-378.771,6246.485-383.985,6250.137-384.73z"/>
		<path d="M6263.845-413.34c2.235-0.596,4.544-1.117,6.929-1.639c5.588-0.521,10.729,1.267,14.527,6.929l0,0
			c-22.275,3.8-38.294,9.089-48.947,13.56l0,0C6236.354-394.49,6250.137-408.423,6263.845-413.34z"/>
		<path d="M6094.574-383.762c-2.682,7.227-3.725,16.39-2.458,26.001c0.968,7.897,3.353,14.9,6.63,20.414
			c6.93-0.299,14.454-0.224,22.352,0.223c3.428,0.149,6.779,0.373,10.058,0.671c3.948-7.748,5.737-18.626,4.247-30.099
			c-0.074-0.597-0.149-1.192-0.224-1.863c25.479,12.293,10.728-24.511,10.728-24.586c-0.818-2.16-3.277-3.277-5.438-2.384
			c-2.161,0.819-3.204,3.278-2.385,5.438c0,0,7.078,17.807-2.31,12.368c-10.281-5.886-21.531-10.356-31.737-12.814
			c-10.506-2.608-20.116-3.13-26.822-1.043c-2.234,0.67-3.426,2.979-2.756,5.215s2.98,3.427,5.215,2.757
			C6083.399-384.582,6088.614-384.656,6094.574-383.762z"/>
		<path fill="#FFFFFF" d="M6106.42-371.618c3.055,0.447,5.439,4.843,5.439,9.909c0,5.065-2.533,8.865-5.514,8.418
			c-3.055-0.446-5.513-4.842-5.513-9.908C6100.907-368.266,6103.365-371.991,6106.42-371.618z"/>
		<path d="M6094.202-384.358c18.03-0.148,30.695,2.98,38.443,5.886l0,0c-12.517-10.431-38.071-6.184-38.071-6.184L6094.202-384.358z
			"/>
		<path d="M5879.933,84.114c0,0-20.041-9.238-41.349-22.947c-12.592-8.12-37.624-9.238-45.895-19.296
			c7.674-1.341,14.901-3.353,20.638-5.514c18.104-6.928,30.099-25.33,24.064-44.701c-12.665-40.156,30.472,0.298,31.366-65.264
			c0-2.757-0.075-5.514-0.299-8.345C5894.982-47.83,5880.901,76.813,5879.933,84.114z"/>
		<path d="M5829.346-115.404c-0.969-0.968-1.938-1.862-3.055-2.682c-23.021-18.551-55.43-13.932-78.451,1.938
			c-17.732,12.293-40.008,36.878-33.824,60.57c3.203,11.92,8.046,15.496,6.109,29.056c-3.055,20.638,4.246,47.979,19.221,62.955
			c17.211,17.21,56.623,11.995,77.558,4.098c18.104-6.929,30.174-25.331,24.064-44.702c-12.665-40.156,30.546,0.224,31.366-65.264
			c0.223-15.273-3.726-32.781-17.285-41.722c-7.004-4.619-15.199-6.034-23.395-4.693L5829.346-115.404z"/>
		<path fill="#FFD7E0" d="M5754.917-57.366c0,0,1.565-12.889,21.606-20.265s38.74-2.533,38.74-2.533s12.89-13.783,0-24.139
			c-12.963-10.431-35.761-12.219-57.366,2.756c-21.681,14.976-29.056,32.707-26.747,41.424c2.311,8.791,9.239,17.285,6.482,36.208
			c-2.757,18.85,5.736,39.338,14.23,47.905c8.567,8.493,37.549,8.047,58.781,0c21.16-8.12,17.732-34.271-4.395-34.271
			s-35.464,4.768-35.464,4.768s-0.224-11.771,17.956-14.305c18.178-2.532,44.478-2.979,41.944-25.777S5795.67-81.58,5754.917-57.366
			z M5834.561-98.343c0,0,0.969,9.089-2.31,14.603c-3.204,5.514-4.843,7.376-4.843,7.376s7.376,6.481,11.92,15.348
			c4.471,8.865,3.651,19.892,3.651,19.892C5856.018-39.039,5863.914-103.26,5834.561-98.343z"/>
		<path fill="#FFA3B9" d="M5754.917-57.366c0,0,1.565-12.889,21.606-20.265s38.74-2.533,38.74-2.533s4.023-4.396,5.291-10.058
			c-7.823-3.8-23.99-8.792-43.361,1.117C5749.702-75.098,5754.917-57.366,5754.917-57.366z M5740.166,2.683
			c2.831,9.09,7.301,16.838,11.697,21.308c8.567,8.493,37.549,8.047,58.781,0c21.16-8.12,17.732-34.271-4.395-34.271
			s-35.464,4.768-35.464,4.768s-0.224-11.771,17.956-14.305c18.178-2.532,44.478-2.979,41.944-25.777
			c-0.298-2.384-0.894-4.694-1.788-6.854c-6.929-2.533-20.786-5.812-41.572,0.074C5763.41-45.67,5739.123-28.087,5740.166,2.683z
			 M5854.379-64.221c-1.938,1.267-4.471,1.714-8.047,0.596c-5.886-1.937-11.25-5.736-14.975-8.791
			c2.458,2.757,5.588,6.705,7.971,11.399c4.471,8.865,3.651,19.892,3.651,19.892C5848.566-40.23,5853.186-51.48,5854.379-64.221z"/>
		<path fill="#FFD7E0" d="M5869.801-47.83l1.937,0.745c1.564,6.407,2.458,14.379,2.757,18.998
			c1.043,12.964,0.074,28.236-0.447,41.274c-0.745,16.019-1.713,32.036-2.906,47.979c-16.986-4.991-23.393-18.401-50.586-22.276
			c16.018-7.822,26.075-25.032,20.413-43.063C5830.09-38.815,5860.563-13.559,5869.801-47.83z"/>
		<path fill="#FFA3B9" d="M5873.973,13.783c-0.671,15.795-1.639,31.59-2.832,47.384c-16.986-4.991-23.393-18.401-50.586-22.276
			c15.049-7.375,24.809-22.946,21.307-39.709C5852.889,6.706,5864.957,11.176,5873.973,13.783z"/>
		<path fill="#FFCD54" d="M5888.426-706.954c0,0,75.248-26.821,62.582-96.854c-12.665-70.032,1.416-105.794,1.416-105.794
			s-39.412,43.957-31.962,122.93C5925.23-735.489,5888.426-706.954,5888.426-706.954z"/>
		<path fill="#FFCD54" d="M5944.08,264.336c-72.417,205.18,182.232,196.314,124.195,472.793
			C6225.997,519.284,5936.703,459.012,5944.08,264.336z M6031.918,288.922c0,0-13.783,49.246,13.262,85.23
			c26.97,35.985,49.768,52.227,49.768,52.227C6097.182,352.92,6037.356,346.065,6031.918,288.922z M6605.215,722.75
			c0,0,10.804-97.226,96.035-151.24c158.988-100.728,26.001-215.908,74.428-307.174c-80.687,31.44,13.559,185.735-67.201,252.042
			C6673.534,544.987,6592.028,624.929,6605.215,722.75z M6768.973,672.908c91.116-27.938,116.895-107.433,95.214-194.229
			C6855.172,602.727,6768.973,576.055,6768.973,672.908z M6341.924,737.129c0,0-0.671-95.959,26.895-126.579
			c27.641-30.621,71.448-59.379,91.191-102.591c19.818-43.211-20.339-100.205-20.339-100.205s23.394,61.762-11.995,80.984
			c-35.463,19.221-76.217-18.03-54.61-74.429c21.605-56.398-6.631-105.57-6.631-105.57s13.708,59.603-14.528,94.917
			c-28.236,35.313-15.794,88.657,5.812,119.278c21.606,30.62-10.356,40.231-22.202,90.595
			C6323.67,663.968,6341.924,737.129,6341.924,737.129z M5839.031,470.708c0,0,2.979,78.601,64.221,117.64
			c61.166,38.965,36.58,108.029,36.58,108.029C5926.348,563.314,5794.553,666.054,5839.031,470.708z"/>
		<path fill="#FFCD54" d="M7065.791-266.123c28.162,56.398,64.444,222.167-2.757,305.908
			c-67.053,83.592-119.726,113.244-143.12,158.541c-44.328,85.827,28.982,161.225,84.784,121.813
			c-40.976,52.896-121.886,14.975-144.685-52.6c-37.623-111.53,81.953-175.453,143.865-241.984
			C7055.732-29.949,7087.173-93.873,7065.791-266.123z"/>
		<path fill="#FFCD54" d="M5964.121,543.348c0,0,72.043,39.711,80.388,136.191c8.419,96.48,45.671,218.516,145.206,218.516
			c99.609,0,123.152-68.914,123.152-68.914s-6.705,101.473-108.104,111.977c-101.398,10.505-156.902-39.784-171.654-172.175
			C6018.434,636.551,6022.978,622.545,5964.121,543.348z"/>
		<path fill="#FFCD54" d="M6340.955,793.752c10.132,11.025,20.339,28.906,23.99,54.685c8.194,58.261,102.515,57.144,138.574,27.193
			c18.85-15.646,35.762-47.682,27.938-111.828c-13.56-110.637-25.107-176.944,64.222-251.968c0,0-70.256,80.09-39.04,209.725
			c22.574,93.799,15.05,171.579-38.89,203.839c-57.145,34.122-163.98,12.964-176.646-56.622
			C6336.187,841.731,6349.522,823.329,6340.955,793.752z"/>
		<g>
			<g id="_508968632">
				<polygon fill="#FFA3B9" points="6608.419,551.842 6618.254,456.553 6655.729,501.03 				"/>
				<polygon fill="#FF144D" points="6591.656,415.428 6594.264,481.511 6608.419,551.842 6618.254,456.553 				"/>
				<path fill="#FF144D" d="M6618.254,456.553l59.006-89.031l-28.014-17.88l-24.586,4.843
					C6623.17,376.016,6618.254,456.553,6618.254,456.553z"/>
				<polygon fill="#FF547D" points="6618.254,456.553 6591.656,415.428 6595.977,375.195 6611.921,356.942 6624.735,354.409 				"/>
				<polygon fill="#FF547D" points="6677.26,367.521 6618.254,456.553 6655.729,501.03 				"/>
				<polygon fill="#FFA3B9" points="6655.729,501.03 6695.736,390.021 6677.26,367.521 				"/>
				<path fill-opacity="0.2" d="M6642.988,485.906l32.111-104.899l-3.13-16.837l-22.724-14.528l-30.992,6.034l-4.844,7.6
					l-8.492,72.715l7.971,72.342L6642.988,485.906z M6669.213,343.309l-3.799-28.236l-18.254-4.098l-16.912,26.225
					c11.324-0.074,23.245,0,26.821,1.043C6659.752,338.987,6664.072,340.775,6669.213,343.309z"/>
			</g>
			<g id="_510203112">
				<polygon fill="#EB0032" points="6824.402,-446.493 6793.707,-371.097 6743.939,-379.813 6752.954,-446.195 6817.697,-499.315 
									"/>
				<path fill="#FFA3B9" d="M6789.833-618.371l27.864,119.056l-41.051,62.656c0,0-27.269-53.939-26.747-57.292
					C6750.421-497.305,6789.833-618.371,6789.833-618.371z"/>
				<polygon fill="#FF547D" points="6704.602,-463.182 6749.899,-493.951 6776.646,-436.659 6749.825,-378.845 6733.807,-381.602 
									"/>
				<polygon fill="#FF144D" points="6789.833,-618.371 6730.977,-571.583 6704.602,-463.182 6749.899,-493.951 				"/>
				<polygon fill="#FFA3B9" points="6826.041,-764.247 6789.833,-618.371 6865.9,-664.488 				"/>
				<polygon fill="#FF547D" points="6730.977,-571.583 6826.041,-764.247 6789.833,-618.371 				"/>
				<polygon fill="#FF547D" points="6817.697,-499.315 6789.833,-618.371 6865.9,-664.488 				"/>
				<polygon fill="#FF547D" points="6817.697,-499.315 6790.279,-371.692 6798.699,-370.203 6863.74,-461.469 				"/>
				<polygon fill="#FFA3B9" points="6865.9,-664.488 6863.74,-461.469 6817.697,-499.315 				"/>
				<polygon fill-opacity="0.2" points="6840.048,-648.768 6833.417,-486.353 6782.01,-384.88 6754.221,-388.382 6734.18,-483.298 
					6760.404,-594.978 6809.502,-697.716 				"/>
				<polygon fill="#FFD7E0" points="6865.9,-664.488 6828.351,-723.42 6812.482,-632.079 6789.833,-618.371 6826.041,-764.247 				
					"/>
			</g>
			<path d="M6592.773,444.334c0,0-4.619-33.451-9.09-59.825c-4.47-26.374,48.726-101.994,74.652-214.344
				c25.927-112.425,63.402-325.13,69.437-411.181c6.034-86.125-2.235-97.896-25.479-121.514
				c-23.246-23.617-18.998-40.529-14.23-71.373c4.843-30.77-8.195-45,6.779-71.299c15.05-26.3,16.019-54.313,27.641-70.182
				c11.623-15.943,26.598-32.931,26.598-32.931s-11.548,30.397-17.061,49.843c-5.588,19.37,1.043,23.319-5.216,46.564
				c-6.184,23.318-14.379,28.236-6.034,48.277c8.344,20.041,9.686,34.941,14.527,50.736c4.769,15.794,6.258,33.377,18.328-19.595
				c12.144-53.046,4.917-58.856,11.697-81.729c6.779-22.873,17.508-54.536,17.508-54.536s4.991,28.608,1.266,49.916
				c-3.799,21.233-5.587,31.59,4.173,54.015c9.76,22.426,7.376,47.905,11.622,66.979c4.321,18.998,2.757,17.21,18.85-4.62
				c16.018-21.829,23.469-36.356,25.405-61.315c1.937-24.958,15.72-37.177,15.272-58.856c-0.447-21.681,5.737-68.767,5.737-68.767
				s5.662,19.595,9.61,33.378c3.949,13.857-6.184,21.456-3.725,43.584c2.533,22.053,9.908,52.599,0.819,69.883
				c-9.164,17.285-13.038,36.953-11.995,54.238c0.969,17.21-7.524,28.534-27.045,44.255c-19.52,15.72-41.273,23.468-55.43,83.145
				c-14.229,59.603-62.88,318.499-76.29,439.192c-13.337,120.77,4.544,183.575,0,211.141c-4.62,27.491-26.97,62.582-26.97,62.582
				s12.889-34.941,7.375-51.704c-5.588-16.838-13.932-36.879-18.625-32.856c-4.619,4.023-19.445,27.343-21.904,37.848
				c-2.459,10.579-3.799,14.9-3.799,14.9s-9.389-16.316-6.259-34.048c3.129-17.657-0.597-34.494-13.038-20.86
				s-17.955,24.288-20.936,39.263C6593.966,417.588,6592.773,444.334,6592.773,444.334z"/>
			<path fill="#4D4D4D" d="M6689.18-491.717c1.117-4.246,2.906-8.642,5.662-13.484c15.05-26.3,16.019-54.313,27.641-70.182
				c11.623-15.943,26.598-32.931,26.598-32.931s-11.548,30.397-17.061,49.843c-5.588,19.37,1.043,23.319-5.216,46.564
				c-6.184,23.318-14.379,28.236-6.034,48.277c4.693,11.474,7.227,21.158,9.387,30.396c-3.725-8.642-8.047-18.178-11.771-24.362
				c-8.27-13.634-6.929-20.563-4.246-32.259c2.682-11.697,12.144-27.269,9.908-38.891c-2.16-11.697,0-18.328,1.564-26.746
				c1.49-8.419,0-7.302-4.917,0.968c-4.917,8.271-6.407,36.507-25.853,55.952C6692.607-496.41,6690.744-494.101,6689.18-491.717z
				 M6762.49-500.955c0.521-4.098,1.342-8.27,2.832-13.261c6.779-22.873,17.508-54.536,17.508-54.536s4.991,28.608,1.266,49.916
				c-3.799,21.233-5.587,31.59,4.173,54.015c9.089,20.936,7.674,44.553,10.878,63.104c-2.087-4.917-4.098-11.771-5.216-21.158
				c-2.905-24.735-7.077-36.06-14.826-45.894c-7.674-9.909-4.321-25.629-2.533-46.639c1.714-21.01-0.074-24.064-7.972-3.353
				C6766.066-512.205,6764.055-506.17,6762.49-500.955z M6859.865-538.802c1.416-23.097,5.29-52.6,5.29-52.6
				s5.662,19.595,9.61,33.378c3.949,13.857-6.184,21.456-3.725,43.584c2.012,17.582,7.152,40.604,4.47,57.963
				c-0.819-10.431-4.47-19.445-7.302-30.621c-4.916-20.041-4.991-25.107-1.787-43.584c3.277-18.477,0.521-29.651-0.895-24.362
				C6865.305-554.149,6863.144-548.04,6859.865-538.802z M6798.699-315.294c-7.973,11.175-15.348,27.118-21.309,52.375
				c-14.229,59.603-62.88,318.499-76.29,439.192c-13.337,120.77,4.544,183.575,0,211.141c-1.64,9.909-5.588,20.786-9.983,30.621
				c1.639-7.897,2.98-16.466,3.725-25.48c3.576-42.689-13.932-86.87-8.791-150.569c5.141-63.626,52.599-343.457,74.205-465.79
				C6769.047-273.573,6784.021-300.691,6798.699-315.294z M6669.139,369.235c-2.384-3.576-4.545-5.289-6.258-3.8
				c-4.619,4.023-19.445,27.343-21.904,37.848c-2.459,10.579-3.799,14.9-3.799,14.9s-1.342-5.736,1.415-21.233
				c2.757-15.57,17.136-44.403,24.66-38.368C6666.01,360.816,6667.872,364.914,6669.139,369.235z"/>
		</g>
		<path d="M6664.222-142.15c1.043-0.969,2.086-1.938,3.278-2.905c25.033-20.116,60.197-15.124,85.23,2.16
			c19.147,13.262,43.361,40.008,36.655,65.712c-3.427,12.963-8.791,16.837-6.63,31.589c3.277,22.425-4.619,52.077-20.861,68.318
			c-18.7,18.626-61.465,13.038-84.188,4.396c-19.67-7.524-32.707-27.491-26.076-48.501c13.708-43.584-33.154,0.298-34.123-70.852
			c-0.148-16.54,4.098-35.538,18.85-45.298c7.525-4.991,16.465-6.481,25.331-4.991L6664.222-142.15z"/>
		<path fill="#FFA3B9" d="M6745.057-79.121c0,0-1.787-14.007-23.543-21.979c-21.754-7.972-42.02-2.756-42.02-2.756
			s-4.395-4.769-5.811-10.878c8.567-4.172,26.15-9.61,47.16,1.117C6750.645-98.343,6745.057-79.121,6745.057-79.121z
			 M6761.074-13.932c-3.129,9.835-7.971,18.254-12.814,23.096c-9.238,9.238-40.752,8.717-63.699,0
			c-23.021-8.791-19.296-37.177,4.693-37.177c24.064,0,38.519,5.142,38.519,5.142s0.224-12.74-19.521-15.497
			c-19.742-2.757-48.203-3.204-45.445-28.013c0.297-2.607,0.894-5.066,1.937-7.45c7.524-2.757,22.499-6.259,45.074,0.074
			C6735.818-66.381,6762.118-47.309,6761.074-13.932z M6637.028-86.497c2.086,1.267,4.917,1.862,8.791,0.521
			c6.333-2.086,12.218-6.184,16.241-9.462c-2.682,2.98-6.109,7.302-8.643,12.368c-4.916,9.61-4.022,21.531-4.022,21.531
			C6643.361-60.495,6638.369-72.714,6637.028-86.497z"/>
		<path fill="#FFD7E0" d="M6620.266-68.766l-2.087,0.82c-1.639,7.003-2.607,15.57-2.979,20.563
			c-1.117,14.155-0.074,30.695,0.521,44.851c0.744,17.358,1.862,34.718,3.129,52.077c18.402-5.438,25.405-19.967,54.908-24.139
			c-17.434-8.568-28.311-27.193-22.127-46.788C6663.402-58.931,6630.322-31.588,6620.266-68.766z"/>
		<path fill="#FFA3B9" d="M6615.721-1.937c0.744,17.136,1.862,34.346,3.129,51.481c18.402-5.438,25.405-19.967,54.908-24.139
			c-16.316-8.047-26.896-24.884-23.096-43.137C6638.667-9.535,6625.555-4.693,6615.721-1.937z"/>
		<path fill="#FFD7E0" d="M6745.057-79.121c0,0-1.787-14.007-23.543-21.979c-21.754-7.972-42.02-2.756-42.02-2.756
			s-13.932-14.976,0-26.226c14.007-11.25,38.816-13.261,62.285,2.98c23.468,16.241,31.514,35.538,28.98,44.999
			c-2.458,9.537-9.982,18.775-7.003,39.264c3.055,20.488-6.258,42.764-15.497,52.002c-9.238,9.238-40.752,8.717-63.699,0
			c-23.021-8.791-19.296-37.177,4.693-37.177c24.064,0,38.519,5.142,38.519,5.142s0.224-12.74-19.521-15.497
			c-19.742-2.757-48.203-3.204-45.445-28.013C6665.563-91.116,6700.729-105.346,6745.057-79.121z M6658.56-123.6
			c0,0-1.044,9.909,2.458,15.869c3.502,6.035,5.29,8.047,5.29,8.047s-8.046,6.929-12.89,16.614
			c-4.916,9.61-4.022,21.531-4.022,21.531C6635.314-59.229,6626.672-128.889,6658.56-123.6z"/>
		<path fill="#FFCD54" d="M6993.523-94.319c-1.564,108.178-98.344,84.561-147.217,177.837
			C6828.947-44.85,6969.607-4.916,6993.523-94.319z"/>
	</g>
</g>
</svg>
