<?xml version="1.0" encoding="utf-8"?>
<!-- Generator: Adobe Illustrator 16.0.0, SVG Export Plug-In . SVG Version: 6.00 Build 0)  -->
<!DOCTYPE svg PUBLIC "-//W3C//DTD SVG 1.1//EN" "http://www.w3.org/Graphics/SVG/1.1/DTD/svg11.dtd">
<svg version="1.1" id="Layer_1" xmlns="http://www.w3.org/2000/svg" xmlns:xlink="http://www.w3.org/1999/xlink" x="0px" y="0px"
	 width="2200px" height="2200px" viewBox="5241.943 1176.069 2200 2200" enable-background="new 5241.943 1176.069 2200 2200"
	 xml:space="preserve">
<g id="Layer_x0020_1">
	<g id="_509297392">
		<path d="M6025.326,3085.45l-2.012-0.373c-7.152-1.043-14.156-5.438-18.773-10.877c-10.059-11.697-10.654-27.79-7.973-42.243
			c1.043-5.29,2.906-10.058,5.439-14.379l0.299-7.004c0.371-7.227,3.723-15.124,7.82-20.935
			c9.537-13.56,24.811-20.861,40.605-24.362c66.232-14.678,56.994-26.598,59.305-90.819l30.471,10.729
			c21.605,7.6,42.912,16.391,63.551,26.523c6.854,3.353,13.932,6.481,21.084,9.238l11.771,4.619l-1.117,12.517
			c-1.043,11.101-2.088,23.841-1.193,34.941c0.895,10.952,0.672,21.903-2.904,32.483c-9.908,29.577-44.256,45.223-70.854,56.398
			c-17.059,7.227-33.004,15.272-49.32,24.139c-11.025,6.034-22.275,12.367-34.568,15.496c-6.557,1.714-13.111,2.385-19.893,2.235
			c-12.219-0.149-23.543-4.917-30.172-15.571C6026.295,3087.313,6025.773,3086.344,6025.326,3085.45z"/>
		<path fill="#FFD7E0" d="M6219.033,2936.594c-1.266,14.379-1.938,28.087-1.191,37.772c2.531,31.291-5.961,47.905-63.477,72.119
			c-57.516,24.139-68.988,40.976-97.004,40.529c-28.012-0.447-21.23-34.645-2.979-46.938c18.252-12.367,33.006-18.551,33.006-18.551
			s-12.145-1.862-30.547,6.407c-18.328,8.345-25.258,21.605-27.715,26.076c-2.535,4.545-3.277,14.528-3.277,14.528
			s-18.479-2.906-12.742-33.452c5.738-30.62,58.484-34.867,58.484-34.867s-12.738-4.321-29.727,0
			c-16.984,4.247-22.723,11.101-22.723,11.101s0.969-22.053,35.24-29.651c47.234-10.431,72.639-25.555,76.439-82.103l4.098,1.49
			c21.01,7.376,41.648,15.869,61.688,25.703C6203.984,2930.41,6211.436,2933.688,6219.033,2936.594z"/>
		<path fill="#FFA3B9" d="M6219.033,2936.594c-1.266,14.379-1.938,28.087-1.191,37.772c2.531,31.291-5.961,47.905-63.477,72.119
			c-57.516,24.139-68.988,40.976-97.004,40.529c-25.404-0.447-22.199-28.535-7.82-42.988c-2.832,4.917-3.578,11.25,6.703,15.348
			c19.297,7.822,59.23-21.979,99.984-35.985c71-24.362,34.121-84.709-26.896-109.742c0.67-4.321,1.193-9.015,1.49-14.081l4.098,1.49
			c21.01,7.376,41.648,15.869,61.688,25.703C6203.984,2930.41,6211.436,2933.688,6219.033,2936.594z M6036.65,3042.834
			c-4.098,4.769-6.332,9.015-7.523,11.176c-2.535,4.545-3.277,14.528-3.277,14.528s-18.479-2.906-12.742-33.452
			c1.863-10.058,8.867-17.284,17.359-22.425c-2.98,2.979-6.406,8.195-6.555,16.018
			C6023.688,3037.321,6031.213,3041.195,6036.65,3042.834z M6029.723,3004.316c-7.748,3.576-10.58,7.003-10.58,7.003
			s0.447-10.653,12.293-19.668C6029.275,2996.568,6027.785,3001.933,6029.723,3004.316z"/>
		<path d="M6658.822,3085.45l2.012-0.373c7.152-1.043,14.156-5.438,18.773-10.877c10.059-11.697,10.656-27.79,7.898-42.243
			c-0.969-5.29-2.832-10.058-5.363-14.379l-0.299-7.004c-0.373-7.227-3.799-15.124-7.896-20.935
			c-9.463-13.56-24.811-20.861-40.531-24.362c-66.232-14.678-56.992-26.598-59.379-90.819l-30.395,10.729
			c-21.682,7.6-42.914,16.391-63.551,26.523c-6.855,3.353-13.934,6.481-21.086,9.238l-11.77,4.619l1.117,12.517
			c1.043,11.101,2.086,23.841,1.191,34.941c-0.895,10.952-0.672,21.903,2.906,32.483c9.908,29.577,44.254,45.223,70.777,56.398
			c17.135,7.227,33.078,15.272,49.395,24.139c11.027,6.034,22.277,12.367,34.57,15.496c6.555,1.714,13.111,2.385,19.891,2.235
			c12.145-0.149,23.543-4.917,30.174-15.571C6657.854,3087.313,6658.375,3086.344,6658.822,3085.45z"/>
		<path fill="#FFD7E0" d="M6465.115,2936.594c1.266,14.379,1.938,28.087,1.191,37.772c-2.531,31.291,5.961,47.905,63.477,72.119
			c57.516,24.139,68.99,40.976,97.004,40.529c28.012-0.447,21.232-34.645,2.98-46.938c-18.254-12.367-33.006-18.551-33.006-18.551
			s12.143-1.862,30.545,6.407c18.328,8.345,25.184,21.605,27.715,26.076c2.535,4.545,3.279,14.528,3.279,14.528
			s18.477-2.906,12.74-33.452c-5.738-30.62-58.484-34.867-58.484-34.867s12.738-4.321,29.727,0
			c16.986,4.247,22.723,11.101,22.723,11.101s-0.969-22.053-35.238-29.651c-47.236-10.431-72.715-25.555-76.441-82.103l-4.098,1.49
			c-21.01,7.376-41.646,15.869-61.688,25.703C6480.166,2930.41,6472.715,2933.688,6465.115,2936.594z"/>
		<path fill="#FFA3B9" d="M6465.115,2936.594c1.266,14.379,1.938,28.087,1.191,37.772c-2.531,31.291,5.961,47.905,63.477,72.119
			c57.516,24.139,68.99,40.976,97.004,40.529c25.404-0.447,22.201-28.535,7.746-42.988c2.906,4.917,3.652,11.25-6.629,15.348
			c-19.297,7.822-59.305-21.979-100.059-35.985c-70.926-24.362-34.047-84.709,26.971-109.742c-0.67-4.321-1.191-9.015-1.49-14.081
			l-4.098,1.49c-21.01,7.376-41.646,15.869-61.688,25.703C6480.166,2930.41,6472.715,2933.688,6465.115,2936.594z
			 M6647.498,3042.834c4.098,4.769,6.332,9.015,7.523,11.176c2.535,4.545,3.279,14.528,3.279,14.528s18.477-2.906,12.74-33.452
			c-1.938-10.058-8.867-17.284-17.359-22.425c2.98,2.979,6.406,8.195,6.557,16.018
			C6660.387,3037.321,6652.936,3041.195,6647.498,3042.834z M6654.428,3004.316c7.746,3.576,10.578,7.003,10.578,7.003
			s-0.447-10.653-12.293-19.668C6654.873,2996.568,6656.363,3001.933,6654.428,3004.316z"/>
		<path stroke="#373435" stroke-width="2.8992" d="M6023.166,2863.507c-93.426-27.269-165.246-107.731-210.992-190.28
			c-31.363-56.622-62.508-70.777-126.877-60.868c-112.498,17.284-153.4,129.262-189.908,221.496
			c-18.328-70.33-30.77-112.425-17.508-188.938c11.102-63.924,39.338-127.102,80.762-177.093
			c37.773-45.67,89.477-83.22,149.379-91.787c68.316-9.76,128.963,21.233,175.75,69.213c17.582,18.029,37.326,41.125,62.582,47.682
			c24.66,6.333,58.262,4.098,73.535-11.474c13.188-13.336,17.285-28.534,21.902-45.819
			c-20.859-36.134-47.457-100.578-46.787-140.214c0.521-31.142,12.367-66.083,39.635-83.74
			c-9.387-9.015-18.625-18.402-27.789-27.641c-44.477-44.925-87.914-90.894-131.348-136.861
			c30.398-11.548,60.125-22.724,91.191-32.707c36.73-11.92,74.129-22.723,111.902-31.217c-5.289-7.599-10.059-15.422-14.453-23.17
			l-10.654-18.924c47.83,2.683,100.729-16.837,143.045-33.451c26.598-10.431,53.047-21.681,80.09-30.993
			c20.043-6.929,44.105-14.155,65.414-14.155c21.383,0,45.445,7.227,65.488,14.155c26.969,9.313,53.492,20.563,80.09,30.993
			c42.316,16.614,95.215,36.134,143.045,33.451l-10.654,18.924c-4.395,7.748-9.164,15.571-14.453,23.17
			c37.773,8.494,75.172,19.297,111.902,31.217c30.994,9.983,60.795,21.159,91.191,32.707
			c-43.434,45.968-86.869,91.937-131.422,136.861c-9.09,9.238-18.328,18.626-27.715,27.641
			c24.586,15.943,36.656,45.968,39.188,74.577c3.875,44.478-23.617,110.04-46.414,149.377c4.693,17.285,8.791,32.483,21.902,45.819
			c15.348,15.571,48.949,17.807,73.535,11.474c21.531-5.588,39.188-23.245,54.535-39.263
			c48.801-50.812,107.582-88.584,183.873-77.632c59.9,8.567,111.529,46.117,149.377,91.787
			c41.424,49.991,69.66,113.169,80.762,177.093c12.814,74.279,0.447,119.8-17.508,188.938
			c-36.508-92.234-77.408-204.212-189.906-221.496c-64.371-9.909-95.514,4.246-126.879,60.868
			c-45.746,82.549-117.566,163.012-210.992,190.28c9.686,59.229-88.508,81.059-131.57,83.145c-18.105,0.895-40.457,0-57.814,5.29
			c-5.439,1.639-10.432,3.948-15.123,7.077c-50.59,33.526-178.211,33.526-228.799,0c-4.693-3.129-9.76-5.438-15.123-7.077
			c-17.359-5.29-39.711-4.396-57.891-5.29C6111.674,2944.565,6013.48,2922.736,6023.166,2863.507z"/>
		<path d="M6672.754,1750.512l9.463-3.948c19.594-8.121,43.508-15.05,64.445-18.551c19.668-3.278,43.285-4.619,61.688,4.098
			c26.969,12.665,18.773,50.14,11.324,71.373c-11.027,31.589-31.59,63.7-54.834,88.584c-24.213,26.001-55.58,48.948-91.936,56.92
			c-56.549,12.517-124.047-10.878-176.348-30.174c-28.238-10.431-56.324-21.681-85.008-30.993
			c-21.309-6.854-46.863-14.081-69.512-14.081c-22.574,0-48.129,7.227-69.438,14.081c-28.684,9.313-56.77,20.563-85.082,30.993
			c-52.225,19.296-119.799,42.69-176.271,30.174c-36.357-7.972-67.799-30.919-91.936-56.92
			c-23.246-24.884-43.809-56.995-54.836-88.584c-7.449-21.233-15.645-58.708,11.324-71.373c18.328-8.717,42.02-7.376,61.689-4.098
			c20.936,3.501,44.85,10.43,64.443,18.551l9.463,3.948c8.568-2.31,16.986-5.065,25.107-8.12
			c41.572-15.869,83.592-30.845,125.537-45.745l13.709-4.917c7.152-11.92,13.262-24.288,18.254-34.048
			c7.895-15.348,15.867-30.844,25.404-45.298c22.574-34.047,52.301-56.175,88.211-76.514c20.713-11.697,48.873-34.048,62.061-53.939
			c9.76-14.826,21.234-31.291,41.424-33.377c30.77-3.279,37.4,32.185,35.91,54.014c-0.82,10.952-2.012,22.351-4.098,33.153
			l-1.713,9.388c4.617,11.101,8.865,25.331,8.865,36.506v11.623c5.365,6.184,10.281,12.591,14.604,19.146
			c9.609,14.454,17.582,29.95,25.404,45.298c5.064,9.76,11.174,22.128,18.252,34.048l13.785,4.917
			c41.943,14.9,83.963,29.876,125.535,45.745C6655.768,1745.446,6664.186,1748.202,6672.754,1750.512z"/>
		<path fill="#EB0032" d="M5995.303,1760.868c0,0-76.441-31.664-112.127-14.826c-35.686,16.763,33.973,166.215,131.869,187.821
			c97.822,21.531,238.855-75.77,326.992-75.77c88.211,0,229.244,97.301,327.066,75.77
			c97.822-21.606,167.557-171.059,131.871-187.821c-35.688-16.838-112.129,14.826-112.129,14.826
			c8.941,6.332,35.688,13.336,35.688,13.336s-36.656,0.298-83.145-17.359c-46.488-17.731-125.164-45.596-125.164-45.596
			s0.67,2.385,9.238,11.995c13.41,14.9,41.797,25.182,31.813,54.983c-5.514,16.465-25.703,21.829-25.703,21.829
			s38.219-33.601,1.266-56.398s-54.832-81.655-82.176-123.004c-20.563-31.143-53.717-55.132-68.988-65.115
			c18.625,0.819,51.777,26.075,51.777,26.075s0-14.229-9.535-35.09c-9.537-20.861-20.861-25.331-20.861-25.331
			s6.26-1.341,11.623,1.564c5.438,2.979,11.994,10.281,11.994,10.281s2.533-13.485,3.799-31.515
			c1.268-18.029-3.203-38.965-17.508-37.475c-14.379,1.49-27.342,21.308-40.008,38.369
			c-27.492,36.878-93.426,48.575-139.469,118.235c-27.416,41.349-45.223,100.206-82.176,123.004s1.266,56.398,1.266,56.398
			s-20.189-5.364-25.703-21.829c-9.982-29.802,18.402-40.083,31.813-54.983c8.568-9.61,9.164-11.995,9.164-11.995
			s-78.6,27.864-125.09,45.596c-46.563,17.657-83.145,17.359-83.145,17.359S5986.361,1767.2,5995.303,1760.868z"/>
		<path fill="#BC0028" d="M5932.123,1882.232c23.023,24.586,51.557,44.702,82.922,51.631c97.822,21.531,238.855-75.77,326.992-75.77
			c88.211,0,229.244,97.301,327.066,75.77c31.365-6.929,59.826-27.045,82.922-51.631c-49.395,44.479-112.945,59.975-209.65,26.3
			c-41.721-14.528-84.635-31.44-119.428-45.968c-60.496-25.107-101.25-25.107-161.746,0
			c-34.793,14.527-77.705,31.439-119.426,45.968C6045.07,1942.207,5981.443,1926.711,5932.123,1882.232z"/>
		<path fill="#FFA3B9" d="M6538.799,1792.159c8.865-11.324,19.891-32.558-5.961-48.501c-36.953-22.798-54.832-81.655-82.176-123.004
			c-16.838-25.405-42.02-46.117-59.006-58.262c67.127,50.812,58.709,139.171,141.182,190.652
			C6553.549,1766.009,6541.256,1788.21,6538.799,1792.159z M6793.523,1743.36c-37.848-10.133-104.678,17.508-104.678,17.508
			c8.941,6.332,35.688,13.336,35.688,13.336s-36.656,0.298-83.145-17.359c-46.488-17.731-125.164-45.596-125.164-45.596
			s0.67,2.385,9.238,11.995c2.012,2.16,4.32,4.247,6.779,6.333c30.695,12.441,101.92,43.36,158.988,50.736
			c69.736,9.015,77.557,19.817,11.623,82.251c-65.934,62.507-173.293,20.487-173.293,20.487s86.57,50.886,140.586,36.283
			s115.777-98.716,128.441-149.824C6801.719,1756.771,6799.111,1748.501,6793.523,1743.36z M5995.303,1760.868
			c0,0-66.828-27.641-104.676-17.508c-5.59,5.141-8.195,13.41-5.066,26.15c12.59,51.108,74.428,135.222,128.441,149.824
			c54.016,14.603,140.586-36.283,140.586-36.283s-107.357,42.02-173.293-20.487c-66.008-62.434-58.111-73.236,11.623-82.251
			c56.994-7.376,128.295-38.295,158.988-50.736c2.459-2.086,4.768-4.173,6.779-6.333c8.568-9.61,9.164-11.995,9.164-11.995
			s-78.6,27.864-125.09,45.596c-46.563,17.657-83.145,17.359-83.145,17.359S5986.361,1767.2,5995.303,1760.868z M6424.811,1470.01
			c-2.758-4.098-6.707-6.557-11.848-5.96c-14.379,1.49-27.342,21.308-40.008,38.369c-27.492,36.878-93.426,48.575-139.469,118.235
			c-27.416,41.349-45.223,100.206-82.176,123.004c-26.375,16.241-14.453,37.996-5.438,49.171
			c-0.449-0.67-16.988-25.703,5.512-39.784c22.797-14.229,39.637-21.308,83.742-104.974
			c44.031-83.667,119.949-90.894,146.396-135.893C6398.809,1482.601,6413.336,1467.029,6424.811,1470.01z"/>
		<path d="M5992.918,1894.749c0,0,31.664,60.348,190.428-8.195c162.342-70.182,155.115-70.182,317.457,0
			c158.766,68.543,190.428,8.195,190.428,8.195c-89.328,57.367-251.146-74.13-349.193-74.13
			C6244.066,1820.619,6082.172,1952.116,5992.918,1894.749z"/>
		<path fill="#C7738A" d="M6114.357,1945.933c0.521,0.819,1.043,1.639,1.49,2.31c12.666,17.582,20.861,24.139,20.861,24.139
			s-0.598-14.305,0.445-32.483C6129.631,1942.133,6122.031,1944.219,6114.357,1945.933z M6569.717,1945.933
			c-0.445,0.819-0.969,1.639-1.488,2.31c-12.594,17.582-20.789,24.139-20.789,24.139s0.598-14.305-0.52-32.483
			C6554.443,1942.133,6562.119,1944.219,6569.717,1945.933z"/>
		<path fill="#FFD7E0" d="M6078.818,1951.818c15.723,27.864,36.285,56.101,64.969,67.499c-13.412,4.098-25.48,4.769-38.52-0.894
			c0,0,12.666,51.481,59.453,96.183c100.355,25.703,254.203,25.777,354.707,0c46.789-44.701,59.453-96.183,59.453-96.183
			c-13.039,5.662-25.182,4.991-38.518,0.894c28.684-11.398,49.246-39.635,64.967-67.499c-8.719-0.819-17.508-2.086-26.301-3.874
			c-16.092,28.534-38.965,44.105-38.965,44.105c-4.023,2.756-2.98-7.823-1.713-27.343c0.67-9.313,0.447-18.477-0.299-27.565
			c-17.73-5.663-34.793-12.219-50.438-18.328c-26.598-10.431-53.121-21.681-80.09-30.993c-20.043-6.854-44.105-14.081-65.488-14.081
			c-17.582,0-37.027,4.917-54.535,10.505c9.834,7.897,22.201,14.081,37.475,15.72c0,0-31.365,4.619-53.27-10.43
			c-2.607,0.969-5.217,1.862-7.822,2.831c2.83,6.854,7.301,14.826,14.154,20.935c15.123,13.336,32.408,13.188,32.408,13.188
			s-2.682,8.866-11.994,12.441c-9.313,3.576-20.861,0-20.861,0s9.016,17.434,36.73,15.721c27.715-1.64,39.336-24.586,39.336-24.586
			s-3.352,37.251-43.656,35.687c-40.381-1.49-53.27-40.753-53.27-40.753s11.547,4.619,18.477,4.917c6.854,0.298,8.939,0,8.939,0
			s-25.479-6.556-35.389-31.887c-17.434,6.779-34.793,14.007-52.227,20.786c-15.645,6.109-32.707,12.665-50.438,18.328
			c-0.82,9.089-0.969,18.253-0.299,27.565c1.268,19.52,2.311,30.099-1.713,27.343c0,0-22.871-15.571-38.965-44.105
			C6096.326,1949.732,6087.537,1950.999,6078.818,1951.818z"/>
		<path fill="#FFA3B9" d="M6078.818,1951.818c3.279,5.811,6.781,11.696,10.506,17.358c8.42-1.117,17.434-2.607,26.822-4.619
			c-3.801-4.917-7.602-10.43-11.027-16.613C6096.326,1949.732,6087.537,1950.999,6078.818,1951.818z M6105.268,2018.424
			c0,0,12.666,51.481,59.453,96.183c11.771,3.055,24.289,5.736,37.4,8.046C6139.912,2079.441,6105.268,2018.424,6105.268,2018.424z
			 M6482.027,2122.652c13.111-2.31,25.629-4.991,37.4-8.046c46.789-44.701,59.453-96.183,59.453-96.183
			S6544.236,2079.441,6482.027,2122.652z M6593.334,1971.412c4.32-6.407,8.27-13.038,11.996-19.594
			c-8.719-0.819-17.508-2.086-26.301-3.874c-4.172,7.45-8.865,14.006-13.41,19.594
			C6575.08,1969.624,6584.318,1970.966,6593.334,1971.412z M6538.576,1960.312c0.371-7.823,0.148-15.571-0.523-23.17
			c-17.73-5.663-34.793-12.219-50.438-18.328c-26.598-10.431-53.121-21.681-80.09-30.993c-20.043-6.854-44.105-14.081-65.488-14.081
			c-17.582,0-37.027,4.917-54.535,10.505c9.834,7.897,22.201,14.081,37.475,15.72c0,0-13.709,2.012-29.354-0.968
			c8.641,4.544,20.859,9.015,34.643,7.748c26.447-2.384,32.707-15.422,109.818,15.198
			C6473.533,1935.204,6506.986,1950.254,6538.576,1960.312z M6271.707,1889.534c-2.607,0.969-5.217,1.862-7.822,2.831
			c2.83,6.854,7.301,14.826,14.154,20.935c15.123,13.336,32.408,13.188,32.408,13.188S6278.635,1917.919,6271.707,1889.534z
			 M6295.025,1939.897c-8.492,1.788-17.434-0.969-17.434-0.969s9.016,17.434,36.73,15.721c7.078-0.373,13.113-2.161,18.105-4.619
			C6322.295,1950.254,6306.201,1948.912,6295.025,1939.897z M6311.939,1965.824c-0.598,0-1.268,0-1.938-0.074
			c-40.381-1.49-53.27-40.753-53.27-40.753s11.547,4.619,18.477,4.917c6.854,0.298,8.939,0,8.939,0s-25.479-6.556-35.389-31.887
			c-17.434,6.779-34.793,14.007-52.227,20.786c-15.645,6.109-32.707,12.665-50.438,18.328c-0.598,6.481-0.82,13.037-0.672,19.594
			c13.41-4.321,26.971-9.834,39.859-16.838c66.16-36.059,47.533,7.972,89.777,22.947
			C6289.514,1967.985,6301.881,1967.985,6311.939,1965.824z"/>
		<path d="M6286.533,2061.858c33.676-23.096,77.408-23.096,111.082,0C6366.994,2027.96,6317.154,2027.96,6286.533,2061.858z"/>
		<path d="M6316.631,2060.518c-6.332,2.979-10.875,9.61-3.725,14.9c8.791,6.557,18.775,10.207,26.225,16.763
			c2.609,2.235,3.279,2.235,5.813,0c7.523-6.556,17.508-10.206,26.299-16.763c7.078-5.29,2.607-11.921-3.725-14.9
			C6362.973,2058.356,6321.178,2058.356,6316.631,2060.518z"/>
		<path d="M6331.979,2110.956c0,0,7.152,4.991,17.658,0.298c10.506-4.619,59.303-14.454,77.035-21.085
			c17.807-6.705,13.412-18.699,13.412-18.699s9.461,5.065,5.885,17.284c-3.65,12.293-48.799,20.414-76.365,27.641
			c-12.145,3.203-19.297,4.917-23.99,5.736C6338.236,2123.249,6325.646,2121.088,6331.979,2110.956z"/>
		<path fill="#EB0032" d="M6182.752,2205.425c0,0-16.168-4.843-42.543,0.596c-26.447,5.365-79.568,9.016-96.033,19.521
			c-16.465,10.43-31.813,34.792-32.408,70.181c-0.598,35.389,29.129,116.672,64.52,161.075
			c35.387,44.403,53.418,63.029,62.359,58.187c9.014-4.769,60.047-56.398,82.25-101.398c22.201-44.999,27.268-82.176,27.268-82.176
			l-17.061,12.889c0,0-6.332,41.722-35.465,83.443c-29.055,41.646-59.379,75.247-50.959,41.051
			C6162.188,2397.344,6151.236,2276.202,6182.752,2205.425z"/>
		<path fill="#BC0028" d="M6027.486,2364.786c11.922,32.707,29.504,67.797,48.801,92.011c35.387,44.403,53.418,63.029,62.359,58.187
			c9.014-4.769,60.047-56.398,82.25-101.398c22.201-44.999,27.268-82.176,27.268-82.176l-17.061,12.889
			c-3.875,49.693-43.809,120.098-71.15,141.48c-27.342,21.308-29.951,16.167-24.959-29.652
			c5.066-45.818,14.752-14.305-53.641-49.097C6062.279,2397.27,6043.951,2381.922,6027.486,2364.786z"/>
		<path fill="#FFA3B9" d="M6182.752,2205.425c0,0-16.168-4.843-42.543,0.596c-26.447,5.365-79.568,9.016-96.033,19.521
			c-7.674,4.843-15.123,12.814-20.936,23.468c11.547-8.791,26.523-15.198,45.746-17.806c102.961-13.933,98.418-12.591,96.926,3.353
			c-0.895,9.089-4.246,33.601-3.725,60.049C6165.838,2261.525,6171.65,2230.309,6182.752,2205.425z"/>
		<path fill="#FFD7E0" d="M6195.639,2218.612c0,0-12.59,25.777-17.656,75.62c-5.141,49.768-6.631,69.287-6.631,69.287
			s37.848-22.202,117.045-68.394c79.195-46.191,94.469-53.12,94.469-53.12s-20.488-29.577-65.191-37.475
			C6272.975,2196.56,6202.271,2215.632,6195.639,2218.612z"/>
		<path fill="#FFA3B9" d="M6186.549,2245.508c-3.203,12.218-6.48,28.46-8.566,48.725c-5.141,49.768-6.631,69.287-6.631,69.287
			s37.848-22.202,117.045-68.394c79.195-46.191,94.469-53.12,94.469-53.12c-43.809-7.003-105.719,20.488-154.146,41.051
			C6194.447,2297.659,6187.594,2265.474,6186.549,2245.508z"/>
		<path fill="#EB0032" d="M6501.398,2205.425c0,0,16.166-4.843,42.541,0.596c26.449,5.365,79.494,9.016,96.033,19.521
			c16.467,10.43,31.814,34.792,32.408,70.181c0.598,35.389-29.129,116.672-64.52,161.075
			c-35.387,44.403-53.418,63.029-62.432,58.187c-8.939-4.769-59.975-56.398-82.178-101.398
			c-8.045-16.315-13.855-31.663-18.027-44.553l15.123,2.757c5.289,15.497,14.006,35.687,28.088,55.952
			c29.129,41.646,59.453,75.247,51.033,41.051C6521.887,2397.344,6532.912,2276.202,6501.398,2205.425z"/>
		<path fill="#BC0028" d="M6656.811,2364.265c-11.92,32.855-29.578,68.244-48.949,92.532
			c-35.387,44.403-53.418,63.029-62.432,58.187c-8.939-4.769-59.975-56.398-82.178-101.398
			c-8.045-16.315-13.855-31.663-18.027-44.553l15.123,2.757c12.518,45,41.125,96.481,63.551,113.989
			c27.342,21.308,29.949,16.167,24.959-29.652c-5.066-45.818-14.754-14.305,53.641-49.097
			C6621.795,2397.194,6640.197,2381.624,6656.811,2364.265z"/>
		<path fill="#FFA3B9" d="M6501.398,2205.425c0,0,16.166-4.843,42.541,0.596c26.449,5.365,79.494,9.016,96.033,19.521
			c7.674,4.843,15.123,12.814,20.936,23.468c-11.621-8.791-26.523-15.198-45.744-17.806c-102.963-13.933-98.418-12.591-96.928,3.353
			c0.895,9.089,4.246,33.601,3.725,60.049C6518.311,2261.525,6512.498,2230.309,6501.398,2205.425z"/>
		<path fill="#FFD7E0" d="M6292.568,2310.102c0,0,87.02-54.313,119.725-66.308c32.707-11.995,81.283-12.591,81.283-12.591
			s13.188,19.817,14.975,69.287c1.117,30.695,3.055,54.61,4.396,68.319c-32.484-4.694-126.059-19.595-189.09-44.105
			C6313.727,2320.159,6303.295,2315.316,6292.568,2310.102z"/>
		<path fill="#FFA3B9" d="M6292.568,2310.102c0,0,27.566-17.211,57.516-34.421c-0.074,2.459,1.787,4.918,6.48,7.376
			c27.344,14.23,121.961,35.091,150.348-4.396c0.744,6.557,1.34,13.783,1.639,21.829c1.117,30.695,3.055,54.61,4.396,68.319
			c-32.484-4.694-126.059-19.595-189.09-44.105C6313.727,2320.159,6303.295,2315.316,6292.568,2310.102z"/>
		<path fill="#640015" d="M6095.283,1996.817c0,0,6.186,6.407,11.25,9.983c5.141,3.576,10.059,6.035,10.059,6.035
			s-12.813-2.31-16.316-3.874c-3.5-1.564-4.992-2.683-4.992-2.683s0.969,14.528,8.271,35.165
			c7.375,20.712,13.037,32.111,13.037,32.111s-26.672,8.27-36.133,15.124c-9.461,6.929-11.922,11.995-1.641,40.529
			c10.207,28.46,19.82,42.913,19.82,42.913s-102.293-61.465-137.086-88.658c-34.867-27.118-46.266-33.451-46.266-33.451
			S6005.285,2015.815,6095.283,1996.817z"/>
		<path fill="#EB0032" d="M5919.236,2069.011c0,0,65.113,51.779,123.002,84.784s62.658,35.091,62.658,35.091l40.527-32.707
			l6.93,32.707c0,0-51.705,7.375-73.535,10.505c-21.902,3.203-29.428,3.203-29.428,3.203S6011.768,2166.684,5919.236,2069.011z"/>
		<path fill="#FFA3B9" d="M5919.236,2069.011c0,0,65.113,51.779,123.002,84.784s62.658,35.091,62.658,35.091l40.527-32.707
			l-31.289,38.146c-5.738,0.819-11.623,1.639-17.137,2.458C6068.018,2180.243,5983.904,2130.028,5919.236,2069.011z"/>
		<path fill="#FFA3B9" d="M6124.713,2084.433c0,0-35.389,8.419-36.58,23.17c-1.193,14.752,24.885,59.826,24.885,59.826
			s32.406-28.311,36.729-31.589c4.396-3.353,15.049,51.556,15.049,51.556s15.871-1.49,26.82,4.693
			c10.953,6.109,11.102,7.302,11.102,7.302c62.881-18.85,148.855-19.222,195.049,35.165c10.951-3.726,44.998-18.551,78.303-16.764
			c6.035-23.318,17.879-32.781,43.285-30.396c0,0,10.652-54.908,15.051-51.556c4.32,3.278,36.729,31.589,36.729,31.589
			s26.076-45.074,24.885-59.826c-1.193-14.751-36.582-23.17-36.582-23.17l-5.887,9.09c0,0,19.52,4.32,22.799,7.45
			c3.354,3.203,0.15,15.496-97.6,34.867c-52,10.281-101.621,12.069-136.711,11.548c-35.016,0.521-84.635-1.267-136.637-11.548
			c-97.748-19.371-100.953-31.664-97.6-34.867c3.279-3.13,22.799-7.45,22.799-7.45L6124.713,2084.433z"/>
		<path fill="#C7738A" d="M6098.787,2140.384c6.779,14.23,14.23,27.045,14.23,27.045s5.438-4.693,12.068-10.505
			C6115.697,2151.783,6106.908,2146.27,6098.787,2140.384z M6161.965,2173.836c1.639,7.748,2.83,13.56,2.83,13.56
			s15.871-1.49,26.82,4.693c10.953,6.109,11.102,7.302,11.102,7.302c7.824-2.31,15.945-4.396,24.289-6.109
			C6204.059,2188.215,6182.154,2181.659,6161.965,2173.836z M6364.389,2207.437c12.441,6.854,23.766,15.795,33.377,27.119
			c10.951-3.726,44.998-18.551,78.303-16.764c6.035-23.318,17.879-32.781,43.285-30.396c0,0,0.521-2.459,1.34-6.407
			C6477.482,2198.198,6422.053,2206.915,6364.389,2207.437z M6561.744,2159.308c5.365,4.619,9.389,8.121,9.389,8.121
			s9.463-16.316,16.689-32.558C6580.893,2143.886,6572.102,2152.007,6561.744,2159.308z"/>
		<path fill="#FFD7E0" d="M6149.746,2135.84L6149.746,2135.84c0.373-0.298,0.818-0.149,1.268,0.372
			c102.516,30.024,279.607,30.024,382.123,0c0.447-0.521,0.893-0.67,1.268-0.372l0,0c14.527-4.321,27.564-9.313,38.59-14.826
			c42.766-21.531,3.43-28.386,3.43-28.386s9.535,6.631-2.012,14.305l0,0c-6.93,6.035-29.877,15.869-95.664,28.907
			c-52,10.281-101.621,12.069-136.711,11.548c-35.016,0.521-84.635-1.267-136.637-11.548
			c-65.787-13.038-88.734-22.872-95.736-28.907l0,0c-11.549-7.674-1.938-14.305-1.938-14.305s-39.338,6.854,3.428,28.386
			C6122.18,2126.526,6135.217,2131.519,6149.746,2135.84z"/>
		<path fill="#640015" d="M6588.791,1996.817c0,0-6.109,6.407-11.25,9.983c-5.066,3.576-10.059,6.035-10.059,6.035
			s12.889-2.31,16.391-3.874c3.5-1.564,4.918-2.683,4.918-2.683s-0.895,14.528-8.195,35.165
			c-7.377,20.712-13.113,32.111-13.113,32.111s26.746,8.27,36.207,15.124c9.463,6.929,11.922,11.995,1.641,40.529
			c-10.207,28.46-19.818,42.913-19.818,42.913s102.291-61.465,137.084-88.658c34.793-27.118,46.191-33.451,46.191-33.451
			S6678.789,2015.815,6588.791,1996.817z"/>
		<path fill="#EB0032" d="M6764.914,2069.011c0,0-65.115,51.779-123.004,84.784s-62.656,35.091-62.656,35.091l-40.529-32.707
			l-6.93,32.707c0,0,51.705,7.375,73.535,10.505c21.902,3.203,29.354,3.203,29.354,3.203S6672.381,2166.684,6764.914,2069.011z"/>
		<path fill="#FFA3B9" d="M6764.914,2069.011c0,0-65.115,51.779-123.004,84.784s-62.656,35.091-62.656,35.091l-40.529-32.707
			l31.291,38.146c5.736,0.819,11.623,1.639,17.135,2.458C6616.131,2180.243,6700.246,2130.028,6764.914,2069.011z"/>
		<path fill="#EB0032" d="M6055.127,2450.911c9.688,15.273,21.234,31.738,33.379,45c26.895,29.428,38.814,35.239,53.119,31.216
			c-6.408,106.315-123.6,114.734-123.6,114.734c124.344,3.948,137.605-91.713,138.648-122.632
			c9.016-7.822,21.531-22.797,33.154-37.922c1.49,64.817-2.607,112.499-56.92,156.009
			c-165.77,132.689-475.326-258.673-634.24,142.523c-59.453-228.946,179.104-521.741,373.107-322.819
			c28.76,29.429,62.137,60.123,100.879,70.628c66.008,18.03,93.648-17.955,93.648-17.955c-19.742,16.987-76.514,24.81-104.08,1.788
			C6029.275,2524.669,6049.986,2469.909,6055.127,2450.911z"/>
		<path fill="#BC0028" d="M6112.049,2518.783c11.994,9.387,20.264,10.952,29.576,8.344c-6.408,106.315-123.6,114.734-123.6,114.734
			c124.344,3.948,137.605-91.713,138.648-122.632c9.016-7.822,21.531-22.797,33.154-37.922c1.49,64.817-2.607,112.499-56.92,156.009
			c-165.77,132.689-475.326-258.673-634.24,142.523c0,0,2.83-168.972,171.951-209.799c169.121-40.828,236.248,58.41,368.49,15.422
			C6086.568,2569.966,6106.311,2544.784,6112.049,2518.783z"/>
		<path fill="#FFA3B9" d="M6055.127,2450.911c2.086,3.278,4.246,6.631,6.557,10.058c-1.639,10.803-6.928,26.747-22.574,41.572
			c-15.123,14.305-34.867,19.521-49.545,21.233c-10.355-2.16-19.965-6.109-27.342-12.293
			C6029.275,2524.669,6049.986,2469.909,6055.127,2450.911z M5567.807,2483.171c76.664-96.034,197.059-135.744,303.969-26.15
			c28.76,29.429,62.137,60.123,100.879,70.628c26,7.152,46.043,5.812,60.793,1.714l0,0c0,0-30.322,30.77-101.994-2.235
			c-52.971-24.362-89.701-83.517-144.236-106.762C5701.389,2383.784,5634.783,2430.423,5567.807,2483.171z"/>
		<path fill="#640015" d="M5790.791,2618.393c13.338,12.517,25.629,27.864,36.061,46.714
			c41.275,74.354,109.668,156.082,201.977,182.605c20.414-60.198,37.996-142.151,43.361-167.779
			c-31.813,4.693-64.742,0.223-95.811-6.854c-41.35-9.536-81.805-24.14-122.26-36.879
			C5834.004,2629.866,5812.623,2623.459,5790.791,2618.393z"/>
		<path fill="#FFA3B9" d="M6088.506,2676.654c-6.258,29.95-7.824,40.901-27.344,118.31s-45.596,86.423,19.223,117.64
			c64.816,31.143,115.852,5.364,156.604,32.409c44.926,29.801,165.396,29.651,210.172,0c40.678-27.045,91.787-1.267,156.604-32.409
			c64.818-31.217,38.742-40.231,19.223-117.64s-21.158-88.359-27.342-118.31c-101.994-31.813-124.643-118.683-115.404-210.098
			c-20.936-27.343-43.51-66.158-50.066-100.057c-7.078-1.64-14.752-3.428-22.723-5.364c-45.895,72.863-102.441,55.43-130.305-1.564
			c36.059,47.458,82.398,54.535,117.713-1.64c-40.381-10.281-86.199-24.213-116.744-41.423l-16.242,10.206
			c-7.301,52.674-25.629,97.599-57.965,139.842C6213.146,2557.972,6191.244,2645.512,6088.506,2676.654z"/>
		<path fill="#C7738A" d="M6088.506,2676.654c-6.258,29.95-7.824,40.901-27.344,118.31s-45.596,86.423,19.223,117.64
			c7.896,3.8,15.57,6.705,23.02,9.015c-15.271-108.699,54.238-240.718,94.395-290.336c54.389-67.201,50.365-192.664,50.365-192.664
			s283.631,256.215,319.318,363.051c18.18,54.388,19.52,93.576,16.465,118.906c6.48-2.086,13.039-4.768,19.816-7.972
			c64.818-31.217,38.742-40.231,19.223-117.64s-21.158-88.359-27.342-118.31c-101.994-31.813-124.643-118.683-115.404-210.098
			c-20.936-27.343-43.51-66.158-50.066-100.057c-7.078-1.64-14.752-3.428-22.723-5.364c-29.801,47.309-64.148,56.547-92.16,41.572
			c11.176,7.227,26.746,13.187,45,11.622c46.266-3.874,46.861-47.979,61.539-7.301c14.676,40.604,13.781,32.26,18.625,75.396
			c4.77,43.212,17.359,80.463,17.359,80.463l-180.668-167.706c0,0-9.238-19.221-7.451-37.325c1.861-18.104,9.908-10.952,37.848,0
			c27.863,10.952,48.277,7.599,43.51,17.508c-4.844,9.909-35.24,17.657-50.438,8.271c31.289,23.542,66.23,18.849,94.244-25.704
			c-40.381-10.281-86.199-24.213-116.744-41.423l-16.242,10.206c-7.301,52.674-25.629,97.599-57.965,139.842
			C6213.146,2557.972,6191.244,2645.512,6088.506,2676.654z"/>
		<path fill="#640015" d="M6893.357,2618.393c-13.336,12.517-25.629,27.864-36.135,46.714
			c-41.201,74.354-109.594,156.082-201.902,182.605c-20.412-60.198-38.07-142.151-43.361-167.779
			c31.813,4.693,64.744,0.223,95.813-6.854c41.348-9.536,81.803-24.14,122.184-36.879
			C6850.145,2629.866,6871.527,2623.459,6893.357,2618.393z"/>
		<path fill="#640015" d="M6213.297,2357.857c-12.518,7.301-31.291,18.924-43.807,26.225c-1.268,19.073-5.59,55.132-9.463,70.927
			c-0.818,3.427,3.65-0.819,14.379-16.242C6186.773,2421.11,6207.932,2386.839,6213.297,2357.857z"/>
		<path fill="#640015" stroke="#373435" stroke-width="2.8992" d="M6481.803,2381.027c4.695,21.904,44.105,84.039,43.512,74.503
			c-0.449-7.45-6.855-36.805-10.58-69.437C6504.678,2384.679,6491.861,2382.667,6481.803,2381.027z"/>
		<path fill="#EB0032" d="M6629.021,2450.911c-9.686,15.273-21.309,31.738-33.377,45c-26.896,29.428-38.816,35.239-53.121,31.216
			c6.408,106.315,123.6,114.734,123.6,114.734c-124.344,3.948-137.605-91.713-138.648-122.632
			c-9.016-7.822-21.531-22.797-33.229-37.922c-1.416,64.817,2.682,112.499,56.994,156.009
			c165.77,132.689,475.328-258.673,634.242,142.523c59.377-228.946-179.105-521.741-373.109-322.819
			c-28.758,29.429-62.137,60.123-100.953,70.628c-65.934,18.03-93.574-17.955-93.574-17.955
			c19.668,16.987,76.516,24.81,104.08,1.788C6654.873,2524.669,6634.162,2469.909,6629.021,2450.911z"/>
		<path fill="#BC0028" d="M6572.102,2518.783c-11.994,9.387-20.264,10.952-29.578,8.344c6.408,106.315,123.6,114.734,123.6,114.734
			c-124.344,3.948-137.605-91.713-138.648-122.632c-9.016-7.822-21.531-22.797-33.229-37.922
			c-1.416,64.817,2.682,112.499,56.994,156.009c165.77,132.689,475.328-258.673,634.242,142.523c0,0-2.832-168.972-171.953-209.799
			c-169.121-40.828-236.248,58.41-368.49,15.422C6597.58,2569.966,6577.838,2544.784,6572.102,2518.783z"/>
		<path fill="#BC0028" d="M6166.955,1806.389c0,0,39.488,19.445,111.531,26.821c22.947-7.6,44.479-12.591,63.551-12.591
			c19.148,0,40.68,4.991,63.625,12.591c72.043-7.376,111.531-26.821,111.531-26.821
			C6437.922,1819.502,6246.227,1819.502,6166.955,1806.389z"/>
		<path fill="#FFA3B9" d="M6629.021,2450.911c-2.086,3.278-4.32,6.631-6.557,10.058c1.639,10.803,6.928,26.747,22.574,41.572
			c15.123,14.305,34.867,19.521,49.545,21.233c10.355-2.16,19.891-6.109,27.342-12.293
			C6654.873,2524.669,6634.162,2469.909,6629.021,2450.911z M7116.268,2483.171c-76.588-96.034-196.984-135.744-303.895-26.15
			c-28.758,29.429-62.137,60.123-100.953,70.628c-25.926,7.152-45.967,5.812-60.719,1.714l0,0c0,0,30.248,30.77,101.994-2.235
			c52.971-24.362,89.627-83.517,144.162-106.762C6982.76,2383.784,7049.365,2430.423,7116.268,2483.171z"/>
		<g>
			<g>
				<path d="M6466.904,1949.435c7.746,7.301,12.738,18.923,12.738,32.035c0,22.053-14.23,40.009-31.738,40.009
					s-31.662-17.956-31.662-40.009c0-7.301,1.49-14.155,4.246-20.041C6430.92,1958.3,6448.947,1953.233,6466.904,1949.435z"/>
				<path fill="#FFFFFF" d="M6437.314,1963.804c3.963,0.503,6.246,5.414,5.102,10.971c-1.146,5.556-5.287,9.652-9.25,9.149
					s-6.246-5.415-5.102-10.971C6429.211,1967.396,6433.352,1963.301,6437.314,1963.804z"/>
				<path d="M6400.521,1975.957c-2.309,1.564-5.512,1.117-7.152-1.043c-1.713-2.161-1.191-5.141,1.117-6.705
					c0.148-0.075,29.875-20.34,99.016-26.896c2.83-0.298,5.363,1.639,5.66,4.321c0.299,2.607-1.787,4.917-4.617,5.215
					C6428.162,1957.107,6400.596,1975.957,6400.521,1975.957z"/>
			</g>
			<g>
				<path d="M6217.244,1949.435c-7.746,7.301-12.738,18.923-12.738,32.035c0,22.053,14.23,40.009,31.738,40.009
					s31.664-17.956,31.664-40.009c0-7.301-1.566-14.155-4.248-20.041C6253.23,1958.3,6235.201,1953.233,6217.244,1949.435z"/>
				<path fill="#FFFFFF" d="M6246.834,1963.804c-3.961,0.503-6.246,5.414-5.102,10.971c1.148,5.556,5.289,9.652,9.25,9.149
					c3.965-0.503,6.248-5.415,5.102-10.971C6254.939,1967.396,6250.799,1963.301,6246.834,1963.804z"/>
				<path d="M6283.627,1975.957c2.309,1.564,5.514,1.117,7.152-1.043c1.641-2.161,1.117-5.141-1.191-6.705
					c-0.074-0.075-29.801-20.34-98.941-26.896c-2.83-0.298-5.363,1.639-5.66,4.321c-0.299,2.607,1.787,4.917,4.617,5.215
					C6255.986,1957.107,6283.553,1975.957,6283.627,1975.957z"/>
			</g>
		</g>
		<g>
			<g>
				<polygon fill="#FFA3B9" points="6684.004,2813.068 6610.248,2751.976 6668.135,2745.494 				"/>
				<polygon fill="#FF144D" points="6561.299,2751.231 6617.697,2785.726 6684.004,2813.068 6610.248,2751.976 				"/>
				<path fill="#FF144D" d="M6610.248,2751.976l-41.201-98.566l-30.396,13.336l-9.688,23.096
					C6546.1,2703.103,6610.248,2751.976,6610.248,2751.976z"/>
				<polygon fill="#FF547D" points="6610.248,2751.976 6561.299,2751.231 6530.307,2725.229 6523.973,2701.836 6529.039,2689.767 
									"/>
				<polygon fill="#FF547D" points="6569.047,2653.409 6610.248,2751.976 6668.135,2745.494 				"/>
				<polygon fill="#FFA3B9" points="6668.135,2745.494 6598.029,2650.504 6569.047,2653.409 				"/>
				<path fill-opacity="0.2" d="M6648.467,2747.729l-69.438-85.008l-15.719-6.779l-24.66,10.803l-12.145,29.131l3.576,8.27
					l55.729,47.458l64.594,33.601L6648.467,2747.729z M6544.461,2646.704l-25.555-12.591l-13.561,12.889l12.367,28.684
					c6.186-9.536,12.965-19.371,15.797-21.755C6535.596,2652.068,6539.469,2649.535,6544.461,2646.704z"/>
			</g>
			<g>
				<polygon fill="#EB0032" points="5973.994,2078.771 6019.664,2146.195 5984.723,2182.702 5934.582,2138.373 5926.387,2055.004 
									"/>
				<path fill="#FFA3B9" d="M5811.951,2012.017l114.436,42.987l29.279,68.989c0,0-60.049-7.301-62.508-9.61
					C5890.627,2111.999,5811.951,2012.017,5811.951,2012.017z"/>
				<polygon fill="#FF547D" points="5893.531,2169.067 5893.158,2114.383 5955.666,2123.993 5988.82,2178.381 5977.57,2190.152 				
					"/>
				<polygon fill="#FF144D" points="5811.951,2012.017 5818.061,2086.966 5893.531,2169.067 5893.158,2114.383 				"/>
				<polygon fill="#FFA3B9" points="5710.775,1900.933 5811.951,2012.017 5815.826,1923.135 				"/>
				<polygon fill="#FF547D" points="5818.061,2086.966 5710.775,1900.933 5811.951,2012.017 				"/>
				<polygon fill="#FF547D" points="5926.387,2055.004 5811.951,2012.017 5815.826,1923.135 				"/>
				<polygon fill="#FF547D" points="5926.387,2055.004 6017.279,2148.729 6023.166,2142.545 5983.455,2037.794 				"/>
				<polygon fill="#FFA3B9" points="5815.826,1923.135 5983.455,2037.794 5926.387,2055.004 				"/>
				<polygon fill-opacity="0.2" points="5814.484,1953.383 5945.908,2049.118 6001.709,2148.281 5983.381,2169.44 
					5893.307,2133.381 5815.006,2049.491 5756.893,1951.595 				"/>
				<polygon fill="#FFD7E0" points="5815.826,1923.135 5745.943,1921.645 5813.068,1985.567 5811.951,2012.017 5710.775,1900.933 
									"/>
			</g>
			<path d="M6586.033,2766.355c0,0-30.398-14.752-54.834-25.704c-24.436-10.877-57.666-97.151-136.787-181.19
				c-39.486-42.019-98.27-100.354-155.711-154.816c4.471-9.76,13.934-33.973,13.934-33.973
				c61.166,58.634,126.652,119.576,170.684,156.679c92.98,78.153,155.115,98.27,175.529,117.342
				c20.338,19.072,37.027,57.144,37.027,57.144s-21.83-30.099-38.889-34.867c-17.063-4.694-38.371-8.94-37.625-2.757
				c0.746,6.109,11.92,31.365,19.297,39.263c7.375,7.897,10.207,11.399,10.207,11.399s-18.701-1.192-31.738-13.634
				c-12.965-12.517-28.982-18.775-24.586-0.82c4.469,17.955,10.207,28.46,21.008,39.263
				C6564.428,2750.411,6586.033,2766.355,6586.033,2766.355z M6018.846,2227.478c-15.496-5.141-27.045-3.576-42.84-0.521
				c-32.559,6.259-44.254-6.705-67.275-27.789c-22.947-21.159-41.945-18.179-55.506-45.298
				c-13.484-27.044-36.281-43.435-42.988-61.986c-6.777-18.477-12.59-40.38-12.59-40.38s18.85,26.448,31.887,41.87
				c13.113,15.422,20.043,12.069,35.91,30.248c15.871,18.104,15.422,27.641,36.73,31.813c21.309,4.247,34.42,11.399,50.215,16.093
				c15.795,4.768,31.291,13.336-6.035-26.15c-37.4-39.486-46.266-36.729-61.465-55.132c-15.273-18.328-35.611-44.776-35.611-44.776
				s26.596,11.697,42.168,26.672c15.646,14.9,23.17,22.127,47.311,26.523c24.063,4.32,43.881,20.488,62.133,27.491
				c18.18,7.003,15.797,7.301,6.559-18.179s-17.211-39.71-36.805-55.206c-19.67-15.497-22.203-33.676-40.457-45.372
				c-18.326-11.697-54.012-42.988-54.012-42.988s19.443,6.184,33.152,10.579c13.633,4.321,14.379,17.062,34.121,27.269
				c19.744,10.132,49.246,20.935,58.484,38.145c9.314,17.211,23.543,31.366,38.445,40.157c14.898,8.717,19.594,22.053,21.828,47.011
				c1.863,20.787-1.713,39.71,20.861,71.3c-16.092,2.458-36.061,6.332-47.236,13.484
				C6029.275,2216.526,6023.613,2221.667,6018.846,2227.478z"/>
			<path fill="#4D4D4D" d="M5861.271,2166.088c-2.832-3.278-5.512-7.228-8.047-12.219c-13.484-27.044-36.281-43.435-42.988-61.986
				c-6.777-18.477-12.59-40.38-12.59-40.38s18.85,26.448,31.887,41.87c13.113,15.422,20.043,12.069,35.91,30.248
				c15.871,18.104,15.422,27.641,36.73,31.813c12.145,2.459,21.605,5.812,30.473,9.09c-9.238-1.714-19.596-3.428-26.746-3.726
				c-15.945-0.745-20.938-5.736-29.207-14.453s-15.943-25.182-26.82-29.876c-10.953-4.619-15.273-10.132-21.383-16.093
				c-6.109-5.96-6.035-4.098-1.863,4.619c4.098,8.717,26.748,25.629,32.113,52.6
				C5859.334,2160.649,5860.229,2163.479,5861.271,2166.088z M5894.352,2099.93c-3.131-2.608-6.186-5.663-9.463-9.686
				c-15.273-18.328-35.611-44.776-35.611-44.776s26.596,11.697,42.168,26.672c15.646,14.9,23.17,22.127,47.311,26.523
				c22.424,4.022,41.273,18.402,58.41,26.001c-5.217-1.043-11.996-3.129-20.414-7.45c-22.203-11.25-33.898-14.081-46.416-13.187
				c-12.518,0.894-23.693-10.654-40.232-23.767c-16.465-13.112-19.965-13.336-7.227,4.768
				C5886.975,2090.766,5890.924,2095.757,5894.352,2099.93z M5916.926,1998.01c-18.402-14.007-40.752-33.601-40.752-33.601
				s19.443,6.184,33.152,10.579c13.633,4.321,14.379,17.062,34.121,27.269c15.721,8.12,37.773,16.613,50.664,28.534
				c-9.164-5.141-18.627-7.078-29.504-11.026c-19.445-7.003-23.691-9.76-37.252-22.724c-13.561-12.963-24.361-16.837-20.787-12.814
				C5907.24,1984.972,5911.115,1990.112,5916.926,1998.01z M6068.762,2173.017c2.98,7.748,7.451,16.167,14.305,25.853
				c-1.49,0.224-2.98,0.446-4.545,0.745C6073.381,2189.705,6070.326,2180.839,6068.762,2173.017z M6252.635,2370.672
				c61.166,58.634,126.652,119.576,170.684,156.679c92.98,78.153,155.115,98.27,175.529,117.342
				c7.303,6.854,14.154,16.167,19.893,25.256c-5.662-5.736-12.07-11.622-19.074-17.21c-33.525-26.746-80.016-36.729-130.08-76.365
				c-32.408-25.629-129.932-116.075-219.111-200.039C6251.814,2372.907,6252.635,2370.672,6252.635,2370.672z M6565.992,2661.157
				c-4.322-0.074-6.928,0.819-6.631,3.055c0.746,6.109,11.92,31.365,19.297,39.263c7.375,7.897,10.207,11.399,10.207,11.399
				s-5.439-2.086-16.84-12.964c-11.398-10.877-27.34-38.89-18.178-41.796C6557.201,2658.997,6561.67,2659.742,6565.992,2661.157z"/>
		</g>
	</g>
</g>
</svg>
