<?xml version="1.0" encoding="utf-8"?>
<!-- Generator: Adobe Illustrator 16.0.0, SVG Export Plug-In . SVG Version: 6.00 Build 0)  -->
<!DOCTYPE svg PUBLIC "-//W3C//DTD SVG 1.1//EN" "http://www.w3.org/Graphics/SVG/1.1/DTD/svg11.dtd">
<svg version="1.1" id="Layer_1" xmlns="http://www.w3.org/2000/svg" xmlns:xlink="http://www.w3.org/1999/xlink" x="0px" y="0px"
	 width="2200px" height="2200px" viewBox="2841.943 1176.069 2200 2200" enable-background="new 2841.943 1176.069 2200 2200"
	 xml:space="preserve">
<g id="Layer_x0020_1">
</g>
<g id="_509313256_1_">
	<path d="M3679.807,3093.792l-2.012-0.299c-7.152-1.117-14.156-5.514-18.775-10.951c-10.058-11.697-10.654-27.715-7.897-42.168
		c0.969-5.291,2.831-10.133,5.364-14.455l0.298-6.928c0.374-7.227,3.8-15.199,7.823-21.01c9.537-13.484,24.885-20.787,40.604-24.287
		c11.398-2.533,22.947-5.439,33.75-9.984c23.617-9.908,35.24-24.139,30.174-50.885c-0.148-0.82-0.299-1.564-0.447-2.385
		l-4.098-27.641l30.396,10.729c21.607,7.674,42.914,16.391,63.551,26.598c6.855,3.354,13.934,6.408,21.084,9.238l11.771,4.545
		l-1.117,12.592c-1.043,11.025-2.086,23.84-1.191,34.867c0.895,11.025,0.67,21.977-2.906,32.557
		c-9.908,29.578-44.254,45.223-70.777,56.398c-17.135,7.227-33.078,15.199-49.395,24.064c-11.027,6.035-22.277,12.441-34.57,15.57
		c-6.555,1.641-13.111,2.311-19.891,2.236c-12.145-0.225-23.543-4.992-30.174-15.572
		C3680.775,3095.653,3680.254,3094.761,3679.807,3093.792z M4280.67,3025.919c2.533,4.322,4.396,9.164,5.439,14.455
		c2.682,14.453,2.086,30.471-7.973,42.168c-4.619,5.438-11.621,9.834-18.773,10.951l-2.012,0.299
		c-4.992,10.578-15.422,18.104-31.738,18.402c-6.781,0.074-13.336-0.596-19.893-2.236c-12.293-3.129-23.543-9.535-34.568-15.57
		c-16.316-8.865-32.262-16.838-49.322-24.064c-26.596-11.176-60.943-26.82-70.852-56.398c-3.576-10.58-3.799-21.531-2.904-32.557
		c0.445-5.887,0.297-12.145,0-18.031l-0.672-14.676l14.453-2.684c26.82-4.916,56.324-14.154,78.451-30.396l24.512-17.955
		l2.162,30.322c2.234,31.291,40.156,40.232,64.965,45.746c15.795,3.5,31.066,10.803,40.604,24.287
		c4.098,5.811,7.451,13.783,7.822,21.01L4280.67,3025.919z"/>
	<g>
		<path fill="#FFD7E0" d="M3873.514,2945.011c-1.268,14.303-1.938,28.012-1.193,37.697c2.533,31.291-5.959,47.906-63.477,72.119
			c-57.516,24.213-68.988,41.051-97.002,40.529c-28.012-0.447-21.232-34.57-2.98-46.938c18.254-12.367,33.006-18.477,33.006-18.477
			s-12.145-1.938-30.547,6.408c-18.328,8.27-25.256,21.531-27.715,26.076c-2.533,4.469-3.277,14.453-3.277,14.453
			s-18.477-2.832-12.74-33.451c5.736-30.621,58.484-34.867,58.484-34.867s-12.74-4.248-29.727,0
			c-16.986,4.246-22.723,11.174-22.723,11.174s0.969-22.053,35.238-29.65c47.236-10.506,72.715-25.555,76.439-82.104l4.098,1.416
			c21.01,7.451,41.648,15.943,61.689,25.777C3858.463,2938.751,3865.914,2942.03,3873.514,2945.011z"/>
		<path fill="#FFD7E0" d="M4064.91,2962.519c0.297,7.674,0.373,14.602-0.074,20.189c-2.533,31.291,5.961,47.906,63.477,72.119
			s68.988,41.051,97.002,40.529c28.014-0.447,21.232-34.57,2.98-46.938s-33.006-18.477-33.006-18.477s12.145-1.938,30.547,6.408
			c18.328,8.27,25.258,21.531,27.715,26.076c2.533,4.469,3.277,14.453,3.277,14.453s18.477-2.832,12.742-33.451
			c-5.738-30.621-58.484-34.867-58.484-34.867s12.738-4.248,29.727,0c16.984,4.246,22.723,11.174,22.723,11.174
			s-0.969-22.053-35.24-29.65c-30.025-6.707-60.123-20.861-75.1-63.105C4129.281,2944.563,4094.859,2957.005,4064.91,2962.519z"/>
	</g>
	<g>
		<path fill="#FFA3B9" d="M3873.514,2945.011c-1.268,14.303-1.938,28.012-1.193,37.697c2.533,31.291-5.959,47.906-63.477,72.119
			c-57.516,24.213-68.988,41.051-97.002,40.529c-25.404-0.373-22.201-28.535-7.748-42.988c-2.906,4.992-3.65,11.25,6.631,15.422
			c19.297,7.748,59.305-21.979,100.057-35.984c40.68-14.006,32.484-58.262,33.451-73.758c0.598-9.09-32.631-24.586-60.42-35.984
			c0.67-4.396,1.191-9.09,1.488-14.082l4.098,1.416c21.01,7.451,41.648,15.943,61.689,25.777
			C3858.463,2938.751,3865.914,2942.03,3873.514,2945.011z M3691.131,3051.251c-4.098,4.693-6.332,9.014-7.525,11.176
			c-2.533,4.469-3.277,14.453-3.277,14.453s-18.477-2.832-12.74-33.451c1.938-10.059,8.865-17.211,17.359-22.426
			c-2.98,3.055-6.408,8.195-6.557,16.018C3678.242,3045.737,3685.691,3049.536,3691.131,3051.251z M3684.201,3012.733
			c-7.748,3.502-10.578,7.002-10.578,7.002s0.447-10.652,12.293-19.742C3683.756,3004.985,3682.266,3010.274,3684.201,3012.733z"/>
		<path fill="#FFA3B9" d="M4064.91,2962.519c0.297,7.674,0.373,14.602-0.074,20.189c-2.533,31.291,5.961,47.906,63.477,72.119
			s68.988,41.051,97.002,40.529c25.404-0.373,22.201-28.535,7.822-42.988c2.832,4.992,3.578,11.25-6.705,15.422
			c-19.221,7.748-59.229-21.979-99.982-35.984s-32.559-58.262-33.525-73.758c-0.076-0.82,0.148-1.713,0.67-2.607
			C4083.908,2958.421,4074.148,2960.804,4064.91,2962.519z M4246.027,3051.251c4.098,4.693,6.332,9.014,7.523,11.176
			c2.533,4.469,3.277,14.453,3.277,14.453s18.477-2.832,12.742-33.451c-1.863-10.059-8.867-17.211-17.359-22.426
			c2.98,3.055,6.48,8.195,6.555,16.018C4258.99,3045.737,4251.465,3049.536,4246.027,3051.251z M4252.955,3012.733
			c7.748,3.502,10.58,7.002,10.58,7.002s-0.449-10.652-12.293-19.742C4253.402,3004.985,4254.893,3010.274,4252.955,3012.733z"/>
	</g>
	<path d="M3895.119,2407.325l0.521,5.438c0.223,2.311,0.447,4.619,0.596,7.004l-6.557-9.908l-14.602,1.191
		c1.117,11.473,1.713,32.93-4.545,57.664l4.842,28.162c19.072,110.711-26.225,203.318-57.367,307.846
		c-19.371,65.338-36.729,130.752-52.896,196.984c-75.471-7.523-137.384-27.566-195.048-79.195
		c-26.076-23.32-61.241-61.613-61.241-98.717c12.442-15.869,22.499-31.588,33.005-48.725c16.166-26.449,31.365-53.566,45.596-80.984
		c45.744-87.988,79.718-173.516,104.677-269.104c-19.893-20.563-36.806-37.176-52.004-62.135
		c-23.767-39.039-35.091-83.592-26.374-133.211c5.811-32.93,31.365-70.33,53.271-97.822l-19.148-8.045
		c13.412-7.973,27.344-17.211,41.424-23.842c-37.177-30.174-83.965-54.461-125.761-78.6c51.332-26.746,90.818-41.35,147.366-53.27
		l6.93,12.441c7.078,12.666,16.316,24.959,25.703,35.984l12.74,15.051l-16.912,10.207c-2.906,1.713-8.195,4.768-6.93,8.865
		c6.631,20.637,39.859,57.367,55.58,72.938l3.426,3.428c7.004-1.789,13.486-3.428,19.297-4.918
		c11.92-3.055,36.879-8.791,49.395-5.662l12.145,3.129c11.176-5.141,22.277-10.578,33.08-16.166
		c9.76-5.141,25.926-13.41,33.973-20.787c9.238-8.568,3.352-13.783,9.76-24.064c3.65-5.811,9.387-9.164,16.018-10.578
		c18.551-3.875,33.303,7.002,41.646,22.574c3.131,5.959,3.949,13.186,3.055,20.041c0.449,0.297,0.895,0.596,1.342,0.818
		c9.463,5.738,18.924,10.432,28.76,15.348c8.27,4.248,16.91,8.867,21.828,17.211c6.48,11.25,2.906,25.033-3.801,35.463
		c8.941,16.613,1.789,35.389-14.527,45.297l-1.414,0.82c-1.119,7.525-4.918,13.932-10.133,19.297
		c16.018-1.416,34.793,2.533,50.438,6.779l0.596-1.268c14.455-33.451,33.676-67.723,56.846-96.033
		c19.148-23.244,56.027-55.504,65.041-83.666c1.342-4.098-4.023-7.152-6.928-8.865l-16.914-10.207l12.742-15.051
		c9.387-11.025,18.699-23.318,25.703-35.984l7.002-12.441c56.475,11.92,95.959,26.523,147.365,53.27
		c-41.869,24.139-88.656,48.426-125.76,78.6c14.006,6.631,28.014,15.869,41.35,23.842l-17.881,7.523
		c63.775,69.885,78.004,136.414,39.783,203.766c-17.879,31.664-43.137,55.43-68.02,81.281
		c22.574,97.227,60.57,189.387,106.539,277.746c14.305,27.418,29.428,54.535,45.594,80.984
		c10.506,17.137,20.564,32.855,33.006,48.725c0,36.879-35.314,75.471-61.24,98.717c-57.666,51.629-119.578,71.672-195.049,79.195
		c-16.092-66.232-33.451-131.646-52.896-196.984c-29.504-99.014-74.428-191.322-59.156-296.52l-15.348,7.822l-10.281,4.693
		c-5.959-1.342-11.324-4.172-15.645-9.016c-16.986-18.699-33.006-68.244-40.232-93.723l-2.607-9.09
		c-8.121-3.129-16.166-6.334-23.99-9.76c-6.033-2.607-29.576-12.367-37.25-10.953
		C3909.945,2394.659,3902.494,2401.438,3895.119,2407.325z"/>
	<path d="M3968.578,2094.19l-105.943,47.979l-3.725-6.779c-1.863-0.223-3.65-0.371-5.215-0.521
		c-9.908-1.043-45.447,9.91-56.025,13.41l-11.4,3.801l-7.227-9.537c-11.771-15.422-25.777-30.77-38.814-45.074
		c-13.486-14.75-28.684-35.836-21.607-56.994c1.938-5.811,5.365-10.877,9.91-15.049l11.176-10.355
		c41.646,44.924,37.398,41.348,110.412,58.26c20.785,4.844,43.211,9.164,64.445,10.654l54.014,3.65l54.016-3.65
		c21.307-1.49,43.658-5.811,64.445-10.654c59.75-13.857,68.615-13.262,110.41-58.26l11.176,10.355
		c4.547,4.172,7.973,9.238,9.984,15.049c7.004,21.158-8.195,42.244-21.68,56.994c-13.188,14.453-26.896,29.652-38.816,45.148
		c-4.023,5.217-9.164,11.549-14.9,18.105l-16.541,30.471c-8.641,16.018-17.283,32.408-24.809,49.098l-5.662,12.74l-13.561-3.279
		c-15.197-3.725-36.504-7.822-52-6.48l-7.152,0.596l-5.59,5.736c-4.916,5.215-10.504,14.379-12.143,21.457l-3.055,12.889
		l-13.188,0.074c-7.078,0.074-14.082-0.521-21.084-1.416c-10.729-1.414-28.908-5.289-39.264-3.725l-43.285,6.631l27.715-33.898
		c7.152-8.643,18.326-21.531,27.416-27.789c9.164-6.408,21.383-4.545,31.813-3.279c8.867,1.119,18.254,2.385,27.121,1.342
		c0.969-0.074,1.936-0.223,2.83-0.447l9.164-1.639l5.662-5.439c3.055-2.904,5.736-7.748,5.736-12.143l-0.67-12.443l11.846-4.098
		c3.428-1.34,7.076-4.619,8.717-7.896c1.117-2.012-0.895-7.152-2.012-9.016l-5.961-9.313l6.258-9.164
		c2.086-3.055,6.334-12.068,4.77-15.57c-2.609-5.066-18.477-13.559-24.141-16.242L3968.578,2094.19z M4039.953,2499.931
		l19.371-6.109l2.086,20.488c1.191,11.996,2.904,24.064,4.766,35.986c4.023,25.703,9.09,51.629,15.871,76.811
		c3.725,13.709,7.971,27.492,13.262,40.68c6.332,15.943,13.484,31.664,20.264,47.457c8.27,19.223,16.018,38.52,22.574,58.336
		c15.572,46.639,23.842,94.172,19.146,143.418l-0.744,7.449l-6.035,4.471c-28.533,21.084-67.873,31.738-102.59,36.283
		c-42.467,5.514-87.393,3.203-129.039-6.332c-23.395-5.365-46.266-13.113-67.797-23.693c-20.041-9.834-40.68-18.326-61.689-25.777
		l-9.609-3.352l-1.49-10.133c-4.992-35.166,2.16-72.045,14.08-105.197c12.518-35.018,26.375-69.512,39.338-104.379
		c11.771-31.738,22.873-63.998,30.77-97.002c3.875-16.391,7.004-33.006,9.016-49.693c3.799-31.365,5.959-63.775,4.619-95.363
		c-0.373-9.76-1.043-21.531-2.906-31.217l-1.863-9.387l7.227-6.408c8.643-7.748,17.359-15.496,26.227-23.096
		c7.598-6.482,17.434-4.693,26.225-2.385c7.227,1.863,14.379,4.322,21.381,6.855c10.207,3.65,20.488,7.6,30.473,11.846l7.152,2.98
		l2.385,7.301c5.514,17.135,11.398,34.271,17.582,51.184c4.545,12.516,9.463,26.002,15.273,37.996
		C4027.957,2495.462,4033.023,2501.495,4039.953,2499.931z"/>
	<path fill="#FFA3B9" d="M4148.652,2909.472c-5.664,4.098-11.475,8.346-12.219,8.867c-59.008,39.635-184.842,47.457-277.896,1.787
		c-18.178-9.016-36.281-16.539-53.865-23.096c-1.861-0.67-7.002-2.533-11.697-4.172c7.973-29.43,16.316-58.857,25.033-88.137
		c25.928-86.945,59.156-172.398,70.182-263.068c10.506-86.35,1.49-131.795,1.49-131.795c9.908-4.693,18.551-12.889,24.959-21.682
		c7.674-1.414,31.217,8.346,37.25,10.953c4.695,2.086,9.389,4.023,14.23,5.959l0,0l-1.49,23.842
		c-4.99,77.408-8.717,148.111-65.412,245.113c38.74-55.133,75.396-136.34,79.494-241.611l0.744-11.027l-0.223-0.818
		c13.857,48.127,33.006,93.127,69.885,127.846c3.648,23.17,9.461,55.43,17.656,85.826c12.664,57.145,35.164,112.648,52.375,170.463
		C4129.504,2839.515,4139.34,2874.382,4148.652,2909.472z M4106.184,2174.132c15.424-11.027,104.902-94.842,96.707-126.879
		c-0.746-3.055-3.949-5.885-7.824-7.152c-2.906,3.055-5.887,6.109-8.865,8.941c0.299,1.34,0.223,2.682-0.299,4.172
		c-5.141,14.602-101.994,42.467-158.467,47.234c4.098,2.086,8.195,4.172,12.443,6.258c8.27,4.248,16.91,8.867,21.828,17.211
		c6.48,11.25,2.906,25.033-3.801,35.463c8.941,16.613,1.789,35.389-14.527,45.297l-1.414,0.82
		c-1.119,7.525-4.918,13.932-10.133,19.297c16.018-1.416,34.793,2.533,50.438,6.779l0.596-1.268
		c6.109-14.229,13.113-28.607,20.936-42.615c-26.15,12.889-48.352,8.643-48.352,8.643
		C4071.691,2192.384,4092.402,2185.53,4106.184,2174.132z M3742.09,2040.101c2.98,3.055,5.887,6.109,8.941,8.941
		c-0.373,1.34-0.299,2.682,0.223,4.172c5.215,14.678,103.111,42.764,159.436,47.309c-1.938,1.043-3.725,1.938-5.363,2.832
		c-7.973,4.098-16.168,8.195-24.363,12.068l-8.939,4.023l-11.922-3.055c-12.516-3.129-37.475,2.607-49.395,5.662
		c-5.811,1.49-12.293,3.129-19.297,4.918l-3.426-3.428c-13.41-13.262-39.412-41.795-50.961-62.73
		C3731.957,2051.575,3731.139,2046.731,3742.09,2040.101z M3990.035,2264.95c-14.305-1.342-28.535-2.832-42.766-4.545
		c-6.48-0.818-13.037-0.521-19.594,0.596c0.521-0.596,1.193-1.414,2.012-2.309c1.416-1.342,2.832-2.607,4.246-3.875
		c5.514-4.992,10.207-10.578,15.199-16.166c0.521-0.373,0.969-0.746,1.416-1.043c1.861-1.268,4.916-1.641,8.791-1.49l11.549,3.203
		c9.088,2.533,20.934,3.949,30.693,2.012C3997.336,2248.634,3992.568,2256.903,3990.035,2264.95z"/>
	<path fill="#C7738A" d="M3762.131,2095.382c12.592,9.389,26.822,19.148,42.094,28.311c-4.021,1.043-8.344,2.162-12.814,3.279
		l-3.426-3.428C3781.354,2116.987,3771.668,2106.706,3762.131,2095.382z M4058.205,2159.901
		c42.541-6.184,80.166-18.402,102.367-38.145c-22.5,25.033-47.012,47.086-54.389,52.375c-13.781,11.398-34.492,18.252-50.734,22.201
		c0,0,22.201,4.246,48.352-8.643c-7.822,14.008-14.826,28.387-20.936,42.615l-0.596,1.268c-15.645-4.246-34.42-8.195-50.438-6.779
		c5.215-5.365,9.014-11.771,10.133-19.297l1.414-0.82C4059.473,2194.917,4066.699,2176.366,4058.205,2159.901z M3990.035,2264.95
		c-14.305-1.342-28.535-2.832-42.766-4.545c-6.48-0.818-13.037-0.521-19.594,0.596c0.521-0.596,1.193-1.414,2.012-2.309
		c1.416-1.342,2.832-2.607,4.246-3.875c5.514-4.992,10.207-10.578,15.199-16.166c0.521-0.373,0.969-0.746,1.416-1.043
		c1.861-1.268,4.916-1.641,8.791-1.49l11.549,3.203c9.088,2.533,20.934,3.949,30.693,2.012
		C3997.336,2248.634,3992.568,2256.903,3990.035,2264.95z"/>
	<path fill="#C7738A" d="M4148.652,2909.472c-5.664,4.098-11.475,8.346-12.219,8.867c-11.623,7.822-25.928,14.379-41.945,19.52
		c-2.832-28.236-7.375-64.072-14.977-108.254c-16.016-94.021-46.563-209.127-53.938-307.621c7.002,9.314,14.75,18.18,23.543,26.449
		c3.648,23.17,9.461,55.43,17.656,85.826c12.664,57.145,35.164,112.648,52.375,170.463
		C4129.504,2839.515,4139.34,2874.382,4148.652,2909.472z M3845.352,2913.794c-13.783-6.26-27.344-11.771-40.68-16.764
		c-1.861-0.67-7.002-2.533-11.697-4.172c7.973-29.43,16.316-58.857,25.033-88.137c25.928-86.945,59.156-172.398,70.182-263.068
		c10.506-86.35,1.49-131.795,1.49-131.795c4.918-2.311,9.463-5.514,13.635-9.164c32.035,109.891-22.352,291.826-45.67,428.91
		C3852.057,2862.089,3848.107,2890.026,3845.352,2913.794z"/>
	<path fill="#FFD7E0" d="M3742.09,2040.101c0,0-7.152,13.336,28.535,26.15l0,0c32.408,14.23,97.896,30.92,140.064,34.271
		c-1.938,1.043-3.725,1.938-5.363,2.832c-4.545,2.309-9.09,4.619-13.709,6.928c-82.475-10.803-137.16-36.506-150.123-46.34
		c-2.682-2.012-4.619-4.023-5.961-6.035C3731.883,2050.458,3732.33,2045.987,3742.09,2040.101z M4168.395,2065.433
		L4168.395,2065.433c0,0,29.801-12.592,26.672-25.332c3.875,1.268,7.078,4.098,7.824,7.152c0.297,1.268,0.445,2.607,0.52,4.023
		c-5.811,15.869-34.047,39.113-139.469,56.025c-6.109,0.969-12.07,1.863-18.029,2.609c-2.012-1.119-4.021-2.162-6.033-3.205
		c-4.248-2.086-8.346-4.172-12.443-6.258C4070.424,2096.798,4136.879,2079.737,4168.395,2065.433z"/>
	<path fill="#C7738A" d="M3979.455,2421.405c1.193,4.023,2.385,8.047,3.65,12.07l-4.395-1.043L3979.455,2421.405z
		 M3964.629,2428.931c-24.064-5.961-49.021-12.145-74.949-19.072c8.643-4.098,16.316-10.803,22.426-18.402
		c6.557-8.047,32.109,4.395,39.783,7.674c4.695,2.086,9.389,4.023,14.23,5.959L3964.629,2428.931z"/>
	<path d="M3831.195,1550.769c-5.662-2.906-18.029-4.693-25.256-7.227c-38.518-13.561-24.811-53.791,5.588-72.566
		c38.443-23.691,86.422-26.746,130.305-30.619c7.375-0.672,14.752-0.521,22.053,0.371c83.146,10.432,147.068,116,189.014,180.148
		c12.367,18.924,24.883,38.889,34.941,59.229c16.688,33.676,2.98,20.713,37.4,41.275c16.092,9.686,31.813,20.264,47.16,31.141
		c31.439,22.203,62.732,46.268,92.383,70.854l14.529,12.068c24.287-1.043,57.664-10.504,79.344,2.459
		c34.422,20.488-10.504,60.795-30.918,73.012c-54.313,32.26-133.881,43.361-195.719,46.789
		c-39.934,2.234-79.941,3.352-119.949,4.172c-47.83,0.969-95.66,1.34-143.492,1.34c-47.83,0-95.662-0.371-143.492-1.34
		c-39.934-0.82-80.016-1.938-119.949-4.172c-61.763-3.428-141.406-14.529-195.719-46.789
		c-20.413-12.217-65.339-52.523-30.919-73.012c21.085-12.592,54.611-3.576,79.346-2.459l14.527-12.068
		c29.652-24.586,60.943-48.65,92.384-70.854c15.348-10.877,31.068-21.455,47.234-31.141c34.346-20.563,20.639-7.6,37.326-41.275
		c10.059-20.34,22.574-40.305,34.941-59.229c12.07-18.402,25.555-36.209,39.115-53.494c2.682-3.352,5.289-6.705,7.971-10.057
		C3833.506,1554.642,3834.771,1552.706,3831.195,1550.769z"/>
	<path fill="#EB0032" d="M3904.207,1496.753c-16.018,18.18-74.949,86.051-105.867,133.285
		c-35.984,55.059-40.977,74.057-40.977,74.057s30.248-16.764,60.719-25.256c30.473-8.494,45.521-9.016,45.521-9.016
		s-84.486,30.994-143.045,66.01c-58.484,35.016-137.458,100.504-137.458,100.504s38.519-0.521,69.512-5.514
		s39.487-7.525,39.487-7.525s-50.514,27.045-108.999,29.057c-58.484,1.938-77.482-11.025-96.033,0
		c-17.061,10.133,26.598,78.004,219.038,88.584c132.615,7.301,392.332,7.301,525.02,0c192.367-10.58,236.025-78.451,218.965-88.584
		c-18.477-11.025-37.477,1.938-96.035,0c-58.484-2.012-108.996-29.057-108.996-29.057s8.492,2.533,39.559,7.525
		c30.994,4.992,69.438,5.514,69.438,5.514s-78.973-65.488-137.457-100.504s-143.045-66.01-143.045-66.01s15.049,0.521,45.521,9.016
		c30.547,8.492,60.793,25.256,60.793,25.256s-5.066-18.998-41.051-74.057c-39.561-60.42-111.082-180.52-195.494-172.994
		c-40.529,3.65-87.615,6.406-123.004,28.236c-31.738,19.594-21.531,37.922-8.791,42.467c8.939,3.129,21.828,5.066,27.641,8.195
		c2.16-8.27,6.332-19.668,14.303-28.535c-3.576,9.834-3.947,20.414-3.65,34.941
		C3849.82,1542.349,3879.621,1503.981,3904.207,1496.753z"/>
	<path fill="#BC0028" d="M3513.218,1893.479c31.738,20.488,91.787,41.871,192.888,47.459c132.615,7.301,392.332,7.301,525.02,0
		c101.102-5.588,161.074-26.971,192.813-47.459c21.383-18.402,9.613-29.875-17.359-24.064
		c-33.227,7.303-123.004,6.334-126.504,6.334h-622.992c-3.501,0-93.276,0.969-126.505-6.334
		C3503.681,1863.604,3491.835,1875.077,3513.218,1893.479z M3799.383,1509.493c-1.268,8.941,5.066,15.721,12.145,18.254
		c8.939,3.129,21.828,5.066,27.641,8.195c1.488-5.811,4.098-13.262,8.27-20.266c-4.844,1.268-17.658,3.801-35.166,0.82
		C3805.119,1515.306,3801.32,1512.622,3799.383,1509.493z M3851.832,1512.772c-2.012,8.418-2.234,17.656-2.012,29.576
		c0,0,8.791-11.324,20.787-22.871C3864.572,1519.925,3856.08,1519.179,3851.832,1512.772z"/>
	<path fill="#FFA3B9" d="M3872.32,1533.856c-23.99,28.533-54.535,66.455-73.98,96.182c-35.984,55.059-40.977,74.057-40.977,74.057
		s30.248-16.764,60.719-25.256c2.459-0.746,4.844-1.342,7.152-1.938c-5.662-1.639-13.857-5.736-13.857-20.713
		C3811.377,1633.392,3852.578,1565.222,3872.32,1533.856z M3943.322,1457.044c-40.529,3.65-87.615,6.406-123.004,28.236
		c-9.463,5.887-15.273,11.623-18.254,16.912c6.855-5.514,23.32-16.764,51.779-24.213c23.17-5.961,42.84-6.93,78.303-11.102
		c24.66-2.904,38.965,0.82,61.465,15.422c35.018,22.799,90.521,95.588,110.264,129.709c26.375,45.746,18.105,61.391,11.623,65.861
		c1.191,0.297,2.385,0.596,3.576,0.969c30.547,8.492,60.793,25.256,60.793,25.256s-5.066-18.998-41.051-74.057
		c-30.023-45.818-78.449-126.057-136.936-158.764C3983.256,1460.843,3963.66,1455.257,3943.322,1457.044z M4325.67,1849.448
		c9.088,1.49,18.625,2.533,28.385,2.906c58.559,1.938,77.559-11.025,96.035,0c3.574,2.086,4.469,6.779,1.861,13.039
		c-5.141-6.557-16.689-10.357-38.814-8.793c-80.391,5.514-152.434,7.078-277.449-52.15
		c-101.25-48.055-132.764-69.512-167.109-69.213c-34.346-0.299-65.859,21.158-167.109,69.213
		c-125.016,59.229-196.985,57.664-277.448,52.15c-22.127-1.564-33.676,2.236-38.816,8.793c-2.607-6.26-1.713-10.953,1.863-13.039
		c18.551-11.025,37.549,1.938,96.033,0c9.76-0.373,19.297-1.416,28.387-2.906l0,0c0,0,112.946-15.271,230.437-82.102
		c67.797-38.592,101.92-55.877,126.654-58.932c24.734,3.055,58.857,20.34,126.73,58.932
		C4212.797,1834.177,4325.67,1849.448,4325.67,1849.448L4325.67,1849.448z M4128.908,1692.175
		c27.416,11.846,60.346,27.342,87.689,43.658c58.484,35.016,137.457,100.504,137.457,100.504s-19.668-0.299-42.168-2.234
		c-0.746-5.664-5.813-18.105-31.441-38.146C4249.75,1771.817,4166.531,1715.567,4128.908,1692.175z M3808.248,1692.175
		c-27.416,11.846-60.346,27.342-87.689,43.658c-58.484,35.016-137.458,100.504-137.458,100.504s19.67-0.299,42.169-2.234
		c0.745-5.664,5.886-18.105,31.44-38.146C3687.406,1771.817,3770.625,1715.567,3808.248,1692.175z"/>
	<path d="M3968.578,1750.286c-27.939,1.266-68.691,24.512-161.969,68.021c-125.834,58.707-224.849,58.336-263.517,55.131
		c-13.708-1.117-30.023,5.215-8.939,16.242c68.691,35.762,158.394,44.404,232.97,43.732c140.139-1.191,262.771-1.191,402.986,0
		c74.5,0.672,164.277-7.971,232.895-43.732c21.084-11.027,4.768-17.359-8.941-16.242c-38.592,3.205-137.68,3.576-263.441-55.131
		C4037.344,1774.798,3996.592,1751.552,3968.578,1750.286z"/>
	<path d="M3783.813,1790.442c0,0,49.021-15.496,113.988-50.959c51.928-28.385,89.627-28.385,141.555,0
		c64.967,35.463,113.988,50.959,113.988,50.959c-97-45.371-136.785-90.52-184.766-90.52S3880.814,1745.071,3783.813,1790.442z"/>
	<path d="M4274.637,1866.808c-9.24,16.986-18.254,34.645-29.578,50.289c6.928-1.117,13.781-4.693,20.637-10.578
		c-9.164,30.322-15.721,53.939-31.664,82.176c-12.367,22.053-34.719,49.32-56.176,67.947c-116.895,48.947-301.66,48.947-418.555,0
		c-21.383-18.627-43.734-45.895-56.176-67.947c-15.943-28.236-22.424-51.854-31.662-82.176c6.928,5.885,13.781,9.461,20.637,10.578
		c-11.324-15.645-20.34-33.303-29.578-50.289c49.916-9.461,98.566-25.926,144.535-47.383c20.34-9.463,40.529-19.146,60.795-28.832
		c14.824-7.078,29.725-14.23,44.701-21.01c10.578-4.77,21.381-9.463,32.408-13.113c7.525-2.459,15.645-4.619,23.617-4.992
		c7.973,0.373,16.092,2.533,23.617,4.992c11.027,3.65,21.83,8.344,32.41,13.113c15.049,6.779,29.875,13.932,44.699,21.01
		c20.266,9.686,40.457,19.369,60.797,28.832C4176.068,1840.882,4224.719,1857.347,4274.637,1866.808z"/>
	<path fill="#C7738A" d="M4182.922,1856.601c10.506,3.727,21.16,7.152,31.961,10.357c-6.406,12.068-19.295,29.949-21.754,27.863
		C4193.055,1894.747,4188.361,1869.788,4182.922,1856.601z M3754.234,1856.601c-10.506,3.727-21.158,7.152-31.961,10.357
		c6.406,12.068,19.295,29.949,21.828,27.863C3744.102,1894.747,3748.795,1869.788,3754.234,1856.601z"/>
	<path fill="#FFD7E0" d="M3685.617,1876.644c6.482,11.92,14.305,25.182,21.754,34.791c16.988,22.053,31.738,28.758,31.738,28.758
		s-9.535,1.938-22.275,1.268s-19.744-4.246-19.744-4.246s12.07,39.857,42.617,77.93c12.293,13.186,20.563,22.201,28.012,28.758
		c2.459,2.012,4.992,4.023,7.6,6.035c14.826,10.43,30.77,13.186,74.801,23.393c20.785,4.844,43.211,9.164,64.445,10.654l54.014,3.65
		l54.016-3.65c21.307-1.49,43.658-5.811,64.445-10.654c59.75-13.857,68.615-13.262,110.41-58.186
		c30.547-38.072,42.617-77.93,42.617-77.93s-7.004,3.576-19.742,4.246c-12.668,0.67-22.277-1.268-22.277-1.268
		s14.75-6.705,31.813-28.758c7.375-9.609,15.199-22.871,21.68-34.791c-8.418-1.938-16.836-4.023-25.107-6.334
		c-4.246,7.898-12.441,21.756-21.68,29.951c-13.486,11.92-16.24,10.131-17.955,7.301c-0.223-0.299-7.227-30.248-9.09-36.209
		c-2.16-6.779-4.246-13.709-5.662-18.773c-16.539-6.184-32.631-12.965-48.053-20.117c-35.166-16.391-69.959-33.898-105.273-49.768
		c-48.203-21.68-52.078-21.68-100.281,0c-8.27,3.727-16.465,7.525-24.734,11.398c15.869,9.24,27.045,13.412,47.086,10.207
		c-5.439,12.369-16.391,22.873-34.719,23.172c21.309,16.539,73.088,20.637,92.758,1.488c0,12.891-11.326,30.621-19.969,37.029
		c26.523-1.564,54.535-24.736,56.697-46.043c3.576,51.258-60.646,71.521-87.467,56.473c9.016-2.83,17.656-12.59,20.488-20.34
		c-25.852,1.193-68.617-4.693-92.16-42.02c12.592,4.396,30.695,6.184,36.879,0c0,0-23.469-5.662-36.207-12.068
		c-21.309,10.133-42.541,20.488-63.924,30.471c-15.422,7.152-31.439,13.934-48.055,20.117c-1.416,5.064-3.502,11.994-5.662,18.773
		c-1.863,5.961-8.865,35.91-9.016,36.209c-1.787,2.83-4.543,4.619-18.029-7.301c-9.238-8.195-17.434-22.053-21.68-29.951
		C3702.455,1872.62,3694.035,1874.706,3685.617,1876.644z"/>
	<path fill="#FFA3B9" d="M3685.617,1876.644c1.863,3.352,3.725,6.779,5.736,10.281c7.973-1.641,16.615-3.502,25.703-5.738
		c-2.533-4.098-4.693-7.896-6.332-10.877C3702.455,1872.62,3694.035,1874.706,3685.617,1876.644z M4017.676,1782.247
		c-40.754-18.326-49.471-20.711-81.953-7.076c10.877-0.521,23.17,1.191,35.688,7.076c29.279,13.783,46.117,13.113,53.121,11.771
		c7.152,17.508,4.246,39.785-16.094,61.986c14.602-9.014,25.777-22.871,27.119-36.059c0.67,9.313-0.895,17.582-4.098,24.809
		c11.475-11.547,20.861-17.955,35.166-12.59c13.93,5.289,58.035,25.555,111.455,40.604c-0.15-0.521-0.299-0.969-0.373-1.416
		c-2.16-6.779-4.246-13.709-5.662-18.773c-16.539-6.184-32.631-12.965-48.053-20.117c-35.166-16.391-69.959-33.898-105.273-49.768
		L4017.676,1782.247z M4240.066,1937.214c0,0-12.07,39.857-42.617,77.93c-35.09,37.697-46.936,43.359-85.23,52.375
		C4208.402,2016.112,4240.066,1937.214,4240.066,1937.214z M3697.09,1937.214c0,0,12.07,39.857,42.617,77.93
		c12.293,13.186,20.563,22.201,28.012,28.758c2.459,2.012,4.992,4.023,7.6,6.035c11.549,8.119,23.842,11.621,49.619,17.582
		C3728.754,2016.112,3697.09,1937.214,3697.09,1937.214z M4245.729,1887.073c2.012-3.502,3.947-7.004,5.811-10.43
		c-8.418-1.938-16.836-4.023-25.107-6.334c-1.787,3.354-4.32,7.748-7.301,12.367
		C4227.922,1884.392,4236.789,1885.882,4245.729,1887.073z M4002.924,1873.216c-15.721,7.896-33.973,10.057-47.383,6.258
		c-6.186,4.172-12.814,6.258-12.814,6.258S3973.197,1899.292,4002.924,1873.216L4002.924,1873.216z M3968.578,1856.079
		c-25.852,1.193-68.617-4.693-92.16-42.02c12.592,4.396,30.695,6.184,36.879,0c0,0-23.469-5.662-36.207-12.068
		c-21.309,10.133-42.541,20.488-63.924,30.471c-15.422,7.152-31.439,13.934-48.055,20.117c-1.266,4.543-3.055,10.504-4.916,16.539
		c11.473-3.725,23.17-7.822,34.717-12.518c72.789-29.727,83.07-8.791,111.979,0
		C3935.797,1865.394,3968.578,1856.079,3968.578,1856.079z"/>
	<path fill="#FFA3B9" d="M3907.262,1787.835c-4.543,2.086-9.014,4.172-13.559,6.258c15.869,9.24,27.045,13.412,47.086,10.207
		c-5.439,12.369-16.391,22.873-34.719,23.172c19.818,15.422,66.232,20.041,88.359,5.064c-15.57,5.439-52.672,1.045-65.561-3.5
		c13.633-1.789,23.096-21.979,26.969-33.602C3935.797,1801.47,3920.523,1797.224,3907.262,1787.835z M3998.828,1830.302
		c-0.746,12.814-11.625,29.504-19.969,35.688c5.961-0.373,11.92-1.789,17.732-4.023
		C4003.893,1847.96,3998.828,1830.302,3998.828,1830.302L3998.828,1830.302z"/>
	<path d="M3913,1952.71c33.748-23.096,77.408-23.096,111.156,0C3993.537,1918.812,3943.619,1918.812,3913,1952.71z"/>
	<path d="M3943.098,1951.368c-6.258,2.98-10.803,9.686-3.65,14.975c8.717,6.482,18.701,10.207,26.225,16.689
		c2.533,2.234,3.279,2.234,5.813,0c7.523-6.482,17.508-10.207,26.225-16.689c7.152-5.289,2.607-11.994-3.65-14.975
		C3989.514,1949.208,3947.643,1949.208,3943.098,1951.368z"/>
	<path fill="#640015" d="M3577.364,1885.36c17.211,1.043,53.493,1.936,92.31-5.291c6.408,11.771,12.963,23.617,20.563,34.494
		c-21.158,0-91.713-9.387-115.777-18.625C3548.532,1886.03,3558.366,1884.167,3577.364,1885.36z M4359.793,1885.36
		c-17.211,1.043-53.494,1.936-92.309-5.291c-6.334,11.771-12.965,23.617-20.564,34.494c21.232,0,91.713-9.387,115.777-18.625
		C4388.625,1886.03,4378.789,1884.167,4359.793,1885.36z"/>
	<path fill="#EB0032" d="M3685.096,2136.062c-23.617,28.832-49.545,66.455-54.835,96.48
		c-10.578,60.496,9.388,123.822,78.378,184.543c68.99,60.719,111.529,101.547,127.996,89.18
		c16.539-12.367,24.51-67.873,19.52-120.471c-4.172-43.51-0.447-63.85,0.969-69.66c-4.619,2.906-9.314,5.588-14.156,8.047
		c-0.521,5.215-2.385,25.629-1.043,57.813c1.49,37.475,1.49,72.566-9.016,93.873c-10.504,21.383-44.477-121.438-23.021-220.602
		c21.531-99.162,46.043-122.557,46.043-122.557s-9.535-2.459-41.051,5.662c-57.814,14.752-116.299,25.182-150.494,76.813
		c8.566-25.703,27.49-45.148,53.865-58.633C3710.799,2151.483,3696.346,2141.946,3685.096,2136.062z"/>
	<path fill="#BC0028" d="M3628.995,2284.022c5.736,44.33,30.024,89.328,79.644,133.063c68.99,60.719,111.529,101.547,127.996,89.18
		c16.539-12.367,24.51-67.873,19.52-120.471c-4.172-43.51-0.447-63.85,0.969-69.66c-4.619,2.906-9.314,5.588-14.156,8.047
		c-0.521,5.215-2.385,25.629-1.043,57.813c1.49,37.475,1.49,72.566-9.016,93.873c-10.504,21.383-44.477-121.438-23.021-220.602
		c1.268-5.885,2.609-11.547,3.875-16.912c-17.582,37.773-21.457,98.27-22.352,121.439c-1.861,51.035-74.203,10.133-96.48-2.459
		C3664.234,2339.899,3643.225,2312.632,3628.995,2284.022z"/>
	<path fill="#FFA3B9" d="M3846.32,2146.64c5.811-10.355,9.609-13.932,9.609-13.932s-9.535-2.459-41.051,5.662
		c-57.293,14.604-115.182,25.033-149.525,75.322c2.682-3.65,24.584-32.035,81.58-47.383
		C3787.984,2155.208,3825.906,2149.321,3846.32,2146.64z M3685.096,2136.062c-17.881,21.902-37.103,48.725-47.683,73.607
		c16.838-28.533,47.31-56.92,59.38-66.977C3692.77,2140.308,3688.746,2137.997,3685.096,2136.062z"/>
	<path fill="#640015" d="M3685.021,2121.161c0,0,4.842,2.01,21.01,11.174c16.092,9.238,24.361,17.508,24.361,17.508
		s21.531-7.674,44.926-15.197c-6.482-6.557-49.916-51.109-58.857-78.898c-4.172-12.889,3.801-22.127,14.23-28.385
		c-10.951-12.965-20.787-26.598-27.566-38.668c-0.297-0.521-0.596-1.117-0.895-1.639c-16.613,3.502-35.09,8.047-50.363,13.484
		c-37.997,13.486-53.493,21.531-53.493,21.531c40.977,23.691,89.628,50.439,122.483,83.742
		C3720.857,2105.813,3701.859,2111.028,3685.021,2121.161z"/>
	<path fill="#FFA3B9" d="M3685.021,2121.161c0,0,4.842,2.01,21.01,11.174c16.092,9.238,24.361,17.508,24.361,17.508
		s3.875-1.34,10.059-3.5c-20.041-17.359-34.793-24.438-34.793-24.438l15.199-16.092
		C3720.857,2105.813,3701.859,2111.028,3685.021,2121.161z M3707.297,1995.698c-1.49-2.385-2.904-4.77-4.172-7.004
		c-0.297-0.521-0.596-1.117-0.895-1.639c-16.613,3.502-35.09,8.047-50.363,13.484c-37.997,13.486-53.493,21.531-53.493,21.531
		c34.495,19.967,74.429,42.094,105.794,68.395l0,0c-18.699-23.172-76.589-68.021-76.589-68.021
		C3646.13,2011.567,3678.539,2002.776,3707.297,1995.698z"/>
	<path d="M4008.438,2091.21c0.746,0.373,1.416,0.82,2.086,1.191c9.461,5.738,18.924,10.432,28.758,15.422
		c8.121,4.098,16.613,8.568,21.383,16.689c6.406,11.102,2.533,24.66-4.098,34.793c9.09,16.242,2.16,34.643-13.857,44.404
		l-1.787,1.117c-2.387,17.209-19.074,28.832-35.986,34.346c-10.057,3.277-23.617,1.787-33.75-0.969l-18.402-5.141
		c-1.34,1.34-2.607,2.682-3.725,3.949c-5.289,5.736-10.133,11.621-15.943,16.91c-18.402,16.615-35.613,33.006-55.504,47.98
		c-15.424,11.623-34.123,23.99-52.6,29.727l-19.893,6.109c-0.67-41.498,1.268-76.066,13.857-116.521
		c8.344-26.598,25.107-72.715,41.35-94.992c15.348-6.779,30.695-14.154,45.521-21.828c9.908-5.141,26.074-13.484,34.27-20.936
		c9.686-8.939,3.576-14.082,9.984-24.287c3.502-5.588,8.939-8.717,15.273-10.059c17.955-3.799,32.186,6.854,40.23,21.904
		C4008.809,2076.979,4009.555,2084.356,4008.438,2091.21z"/>
	<path fill="#FFD7E0" d="M3820.393,2316.729c0,0-0.746-45.074,13.484-90.893c14.23-45.746,32.781-85.381,32.781-85.381
		s66.01-29.057,83.965-45.521c17.955-16.539,5.439-27.863,17.955-30.545c12.592-2.682,20.041,7.971,23.318,14.006
		c3.279,6.109,0,14.9,0,14.9c-10.803-4.023-21.084-4.768-31.662,4.246c0,0,17.656-6.779,42.168,8.195
		c24.512,14.9,40.23,18.85,44.703,26.598c4.543,7.748-4.992,20.34-4.992,20.34s-15.646-9.982-26.672-12.963
		c-11.027-2.906-17.881,0.969-17.881,0.969s31.813,8.717,43.584,23.617c11.771,14.975-6.482,26.076-6.482,26.076
		s-4.021-11.326-16.018-15.869c-11.996-4.471-23.246-1.641-23.246-1.641s23.992,4.248,29.207,21.83
		c7.375,24.512-29.207,34.047-49.248,28.459c9.76-1.266,27.566-6.555,29.057-18.104c-8.566,7.748-24.66,8.047-35.836,6.482
		c-21.68-3.129-30.471,16.838-45.969,30.844C3907.113,2256.382,3857.645,2305.257,3820.393,2316.729z"/>
	<path fill="#FFA3B9" d="M3820.393,2316.729c0,0-0.746-45.074,13.484-90.893c2.98-9.463,6.109-18.701,9.238-27.344
		c-0.297,17.359,1.342,34.422,7.301,39.859c13.783,12.666,81.357-61.539,106.986-54.834c25.703,6.705,55.43,8.195,56.549-0.969
		c0.074-0.67,0.074-1.266,0.148-1.787c4.545,3.277,8.717,7.748,10.506,13.932c7.375,24.512-29.207,34.047-49.248,28.459
		c9.76-1.266,27.566-6.555,29.057-18.104c-8.566,7.748-24.66,8.047-35.836,6.482c-21.68-3.129-30.471,16.838-45.969,30.844
		C3907.113,2256.382,3857.645,2305.257,3820.393,2316.729z M3993.313,2083.983c0.225,4.768-1.416,9.313-1.416,9.313
		c-6.779-2.533-13.41-3.725-19.965-2.086l0,0C3971.932,2091.21,3979.529,2073.999,3993.313,2083.983z M4041.666,2126.972
		c2.459,1.713,4.32,3.428,5.439,5.363c4.543,7.748-4.992,20.34-4.992,20.34s-15.646-9.982-26.672-12.963
		c-4.471-1.117-8.195-1.268-11.102-0.895l0,0c0,0,12.516-3.65,26.82,0C4042.559,2141.647,4045.764,2135.093,4041.666,2126.972z
		 M4028.852,2154.017c4.844,2.979,9.238,6.406,12.293,10.281c11.771,14.975-6.482,26.076-6.482,26.076s-4.021-11.326-16.018-15.869
		h-0.074c5.066-0.969,10.803-3.055,12.59-7.674C4033.023,2161.839,4031.012,2157.146,4028.852,2154.017z"/>
	<path fill="#FFD7E0" d="M3945.26,2277.095c26,3.129,72.639,7.227,72.639,7.227c4.172,19.52,7.75,38.965,10.133,58.484
		c0,0,4.77,37.922,12.219,69.734c-27.193-7.525-56.025-17.658-81.654-28.832c-29.504-12.74-49.545-17.063-56.996-6.109
		c-7.523,10.877-27.789,24.436-27.789,24.436s-4.693-35.313-3.65-54.461c0.969-19.072,7.748-42.316,7.748-42.316
		C3894.969,2290.505,3921.791,2274.263,3945.26,2277.095z"/>
	<path fill="#FFA3B9" d="M3945.26,2277.095c0.67,0.074,1.414,0.148,2.16,0.223c-46.117,15.422-26.971,60.422,35.686,82.475
		l50.141,17.656c1.938,11.102,4.322,23.469,7.004,35.092c-27.193-7.525-56.025-17.658-81.654-28.832
		c-29.504-12.74-49.545-17.063-56.996-6.109c-7.523,10.877-27.789,24.436-27.789,24.436s-4.693-35.313-3.65-54.461
		c0.969-19.072,7.748-42.316,7.748-42.316C3894.969,2290.505,3921.791,2274.263,3945.26,2277.095z"/>
	<path fill="#EB0032" d="M4034.141,2286.108c8.793,69.139,13.783,142.301,46.639,205.479c23.021,44.18,47.83,66.084,17.51,54.09
		c-30.324-11.996-75.844-64.818-85.902-126.805l-17.732-5.512c16.615,58.781,41.127,116.744,98.418,147.664
		c45.447,24.586,35.463-43.584,134.85-153.699c7.973-8.867,14.23-14.752,22.574-22.873c85.305-83.145,87.168-160.105,1.863-248.988
		c-26.15,14.678-46.564,35.24-56.697,46.564c15.869-5.885,34.346-9.982,55.877-11.176c0,0-79.643,9.238-116.746,79.42
		c29.801,13.857,69.363,26.523,96.332,10.58c0,0-14.23,25.182-64.742,15.869c-23.617-4.32-145.801-60.719-151.984-22.053
		C4033.77,2259.661,4032.129,2270.239,4034.141,2286.108z"/>
	<path fill="#BC0028" d="M4035.482,2296.54c8.045,66.008,14.08,135.072,45.297,195.047c23.021,44.18,47.83,66.084,17.51,54.09
		c-30.324-11.996-75.844-64.818-85.902-126.805l-17.732-5.512c16.615,58.781,41.127,116.744,98.418,147.664
		c45.447,24.586,35.463-43.584,134.85-153.699c7.973-8.867,14.23-14.752,22.574-22.873c30.547-29.727,50.363-58.707,59.379-87.689
		c-34.941,40.828-99.535,64.146-144.238,110.264c-60.57,62.434-92.531,15.496-102.066-7.971
		C4054.033,2375.513,4035.482,2296.54,4035.482,2296.54z"/>
	<path fill="#FFA3B9" d="M4227.848,2264.95c-6.631,6.705-24.139,18.625-61.465,11.771c-18.254-3.277-95.586-37.848-132.465-35.389
		c2.682,0.744,5.066,1.938,7.004,3.873c10.727,10.729,13.26,36.209,13.26,36.209s1.713-32.482,44.107-12.74
		c42.391,19.744,90.371,23.246,109.145,12.74C4226.209,2270.911,4227.848,2264.95,4227.848,2264.95L4227.848,2264.95z
		 M4297.359,2194.993c-10.43-19.371-25.406-39.115-45-59.529c-3.502,2.012-6.93,4.023-10.207,6.184
		C4254.816,2150.29,4278.584,2168.618,4297.359,2194.993z M4232.541,2175.026c-25.928,7.227-72.045,26.596-97.748,75.246
		c3.354,1.564,6.855,3.129,10.432,4.619C4163.775,2218.981,4196.482,2189.479,4232.541,2175.026z"/>
	<path fill="#640015" d="M3870.012,2581.14c10.207-52.822,14.006-113.393,8.865-166.736c-3.277,5.064-6.631,14.453-8.865,31.514
		c-1.268,9.461-2.607,19.297-4.396,28.684C3870.533,2509.319,3872.768,2539.343,3870.012,2581.14z"/>
	<path fill="#640015" d="M4252.137,2121.161c-12.965,5.438-35.688,18.922-45.373,28.682c0,0-17.209,14.381-39.635,46.342
		c-23.768,15.123-38.146,34.121-45.373,49.021c-9.463-3.5-17.508-6.258-23.467-8.193c14.379-33.303,29.801-58.41,41.719-75.322
		c23.842-20.564,114.885-105.125,66.457-134.328c11.027-12.965,20.787-26.598,27.566-38.668c0.297-0.521,0.672-1.117,0.969-1.639
		c16.613,3.502,35.016,8.047,50.289,13.484c37.996,13.486,53.492,21.531,53.492,21.531c-40.977,23.691-89.625,50.439-122.48,83.742
		C4216.301,2105.813,4235.297,2111.028,4252.137,2121.161z"/>
	<path fill="#FFA3B9" d="M4252.137,2121.161c-12.965,5.438-35.688,18.922-45.373,28.682c0,0-17.209,14.381-39.635,46.342
		c31.961-56.025,64.445-74.279,64.445-74.279l-15.273-16.092C4216.301,2105.813,4235.297,2111.028,4252.137,2121.161z
		 M4229.934,1995.698c1.416-2.385,2.832-4.77,4.098-7.004c0.297-0.521,0.672-1.117,0.969-1.639
		c16.613,3.502,35.016,8.047,50.289,13.484c37.996,13.486,53.492,21.531,53.492,21.531c-34.494,19.967-74.428,42.094-105.793,68.395
		l0,0c18.699-23.172,76.59-68.021,76.59-68.021C4291.025,2011.567,4258.617,2002.776,4229.934,1995.698z"/>
	<path fill="#640015" d="M4067.145,2581.14c-1.266-6.705-2.457-13.561-3.574-20.488c0.895,0.67,1.787,1.266,2.682,1.938
		C4066.475,2568.548,4066.773,2574.731,4067.145,2581.14z"/>
	<path d="M3922.461,2011.046c22.201,15.943,72.193-37.625,104.676-5.141C3985.117,1987.056,3935.797,2047.253,3922.461,2011.046z"/>
	<path fill="#EB0032" d="M4081.078,2625.171c-4.471-18.328-7.375-37.178-7.973-57.889c4.023,2.682,8.195,5.141,12.516,7.523
		c10.133,5.439,21.383,8.867,32.855,5.514c11.25-3.277,19-11.994,25.406-21.383c7.227-10.727,13.484-22.871,19.742-34.27
		c19.371-34.645,40.084-65.266,65.414-95.066c44.703,185.438,155.115,365.137,182.457,400.004
		c0,24.512-72.715,138.502-226.563,153.924C4151.707,2847.114,4122.574,2757.487,4081.078,2625.171z"/>
	<path fill="#BC0028" d="M4093.594,2578.458c7.898,3.129,16.316,4.395,24.883,1.861c11.25-3.277,19-11.994,25.406-21.383
		c7.227-10.727,13.484-22.871,19.742-34.27c16.094-28.834,33.082-54.834,52.973-79.867l0,0
		c-25.703,66.531-13.188,147.738-61.539,158.766C4131.664,2608.854,4109.91,2594.624,4093.594,2578.458z"/>
	<path fill="#BC0028" d="M4193.875,2475.644c20.34,11.176,40.305,24.213,60.348,39.785c6.258,18.477,13.037,36.729,20.113,54.461
		c-31.141-29.652-63.027-52.004-96.33-69.809C4183.146,2491.735,4188.436,2483.616,4193.875,2475.644z"/>
	<path fill="#FFA3B9" d="M4229.039,2429.601c44.703,185.438,155.115,365.137,182.457,400.004
		c-89.328-98.268-143.268-226.115-174.633-327.066v0.076l-20.266-57.814l0,0c0.969-1.191,1.938-2.459,2.906-3.65l0,0
		C4222.633,2437.274,4225.836,2433.476,4229.039,2429.601z"/>
	<path fill="#EB0032" d="M3856.08,2625.171c10.355-42.467,10.131-82.549,2.756-125.463c-8.865,23.021-24.586,35.314-56.473,15.943
		c-27.865-16.986-65.488-50.736-95.514-79.121c-0.223,0.223-0.371,0.371-0.596,0.596
		c-45.744,182.754-153.624,358.133-180.595,392.479c0,24.512,72.715,138.502,226.563,153.924
		C3785.451,2847.114,3814.582,2757.487,3856.08,2625.171z"/>
	<path fill="#BC0028" d="M3862.338,2524.667c-0.895-8.195-2.012-16.541-3.502-24.959c-8.865,23.021-24.586,35.314-56.473,15.943
		c-20.936-12.814-47.459-35.016-72.045-57.367c12.889,28.088,30.322,60.049,49.693,80.24
		C3817.486,2577.489,3849.076,2556.106,3862.338,2524.667z"/>
	<path fill="#FFA3B9" d="M3716.088,2445.247c-3.129-2.906-6.258-5.813-9.238-8.717c-0.223,0.223-0.371,0.371-0.596,0.596
		c-45.744,182.754-153.624,358.133-180.595,392.479C3666.619,2653.481,3710.352,2471.323,3716.088,2445.247z"/>
	<g>
		<g>
			<path d="M4093.445,1862.04c7.674,7.301,12.664,18.924,12.664,32.037c0,22.053-14.154,40.008-31.662,40.008
				c-17.51,0-31.738-17.955-31.738-40.008c0-7.303,1.564-14.156,4.322-20.043C4057.387,1870.905,4075.49,1865.839,4093.445,1862.04z
				"/>
			<path fill="#FFFFFF" d="M4063.855,1876.417c3.963,0.502,6.246,5.414,5.102,10.971c-1.146,5.557-5.287,9.652-9.25,9.148
				c-3.963-0.502-6.246-5.414-5.102-10.971C4055.752,1880.011,4059.893,1875.913,4063.855,1876.417z"/>
			<path d="M4027.063,1888.563c-2.309,1.564-5.512,1.117-7.227-1.043c-1.639-2.16-1.117-5.141,1.191-6.705
				c0.074-0.074,29.877-20.34,99.016-26.896c2.83-0.223,5.363,1.639,5.662,4.322c0.223,2.607-1.787,4.916-4.619,5.215
				C4054.629,1869.714,4027.137,1888.563,4027.063,1888.563z"/>
		</g>
		<g>
			<path d="M3843.787,1862.04c-7.75,7.301-12.74,18.924-12.74,32.037c0,22.053,14.154,40.008,31.662,40.008
				c17.51,0,31.738-17.955,31.738-40.008c0-7.303-1.564-14.156-4.246-20.043C3879.771,1870.905,3861.666,1865.839,3843.787,1862.04z
				"/>
			<path fill="#FFFFFF" d="M3873.301,1876.417c-3.963,0.502-6.246,5.414-5.102,10.971c1.146,5.557,5.287,9.652,9.25,9.148
				c3.963-0.502,6.248-5.414,5.102-10.971C3881.404,1880.011,3877.264,1875.913,3873.301,1876.417z"/>
			<path d="M3910.094,1888.563c2.309,1.564,5.588,1.117,7.227-1.043s1.117-5.141-1.191-6.705
				c-0.074-0.074-29.801-20.34-99.014-26.896c-2.832-0.223-5.365,1.639-5.588,4.322c-0.299,2.607,1.787,4.916,4.619,5.215
				C3882.527,1869.714,3910.02,1888.563,3910.094,1888.563z"/>
		</g>
	</g>
	<g>
		<g>
			<polygon fill="#FFA3B9" points="4584.193,2582.556 4490.543,2562.364 4538.896,2529.956 			"/>
			<polygon fill="#FF144D" points="4446.811,2584.343 4512.82,2588.962 4584.193,2582.556 4490.543,2562.364 			"/>
			<path fill="#FF144D" d="M4490.543,2562.364l-82.027-68.318l-20.859,25.852l2.16,24.959
				C4411.051,2548.731,4490.543,2562.364,4490.543,2562.364z"/>
			<polygon fill="#FF547D" points="4490.543,2562.364 4446.811,2584.343 4407.324,2575.626 4390.859,2557.745 4389.816,2544.782 			
				"/>
			<polygon fill="#FF547D" points="4408.516,2494.046 4490.543,2562.364 4538.896,2529.956 			"/>
			<polygon fill="#FFA3B9" points="4538.896,2529.956 4432.879,2478.103 4408.516,2494.046 			"/>
			<path fill-opacity="0.2" d="M4522.43,2540.981l-100.727-43.359l-17.137,1.266l-16.91,21.01l2.682,31.441l7.002,5.736
				l71.301,16.316l72.863-0.074L4522.43,2540.981z M4383.559,2499.409l-28.461,0.672l-6.035,17.656l24.215,19.744
				c1.117-11.324,2.531-23.172,3.873-26.598C4378.27,2508.276,4380.504,2504.179,4383.559,2499.409z"/>
		</g>
		<g>
			<path fill="#EB0032" d="M3627.058,2334.907l-19.146-4.768l-45.745-70.107l49.917-0.893
				C3611.562,2285.438,3616.776,2310.769,3627.058,2334.907z"/>
			<path fill="#FFA3B9" d="M3440.727,2274.71l121.439-14.678l54.983,45.299c0.297,1.043,0.521,2.086,0.744,3.055
				c-10.058,3.725-54.908,20.414-57.813,19.594C3556.802,2327.085,3440.727,2274.71,3440.727,2274.71z"/>
			<path fill="#FF547D" d="M3585.709,2376.331l-25.629-48.352l57.813-19.668c4.918,18.625,12.74,36.654,23.245,53.939
				c0.149,0.223,0.298,0.447,0.447,0.744L3585.709,2376.331z"/>
			<polygon fill="#FF144D" points="3440.727,2274.71 3480.81,2338.335 3585.709,2376.331 3560.08,2327.979 			"/>
			<polygon fill="#FFA3B9" points="3299.693,2222.856 3440.727,2274.71 3403.177,2194.099 			"/>
			<polygon fill="#FF547D" points="3480.81,2338.335 3299.693,2222.856 3440.727,2274.71 			"/>
			<polygon fill="#FF547D" points="3562.166,2260.032 3440.727,2274.71 3403.177,2194.099 			"/>
			<path fill="#FF547D" d="M3562.166,2260.032l50.438,16.689c-1.267-15.273-0.521-30.918,2.309-46.861
				c0.15-0.672,0.225-1.416,0.373-2.088l-10.505-9.387L3562.166,2260.032z"/>
			<polygon fill="#FFA3B9" points="3403.177,2194.099 3604.781,2218.386 3562.166,2260.032 			"/>
			<path fill-opacity="0.2" d="M3415.991,2221.515l160.777,24.215l35.389,23.096c0.819,24.287,6.481,47.682,16.614,69.957
				l-59.825,5.961l-108.178-38.221l-96.705-60.049L3415.991,2221.515z"/>
			<polygon fill="#FFD7E0" points="3403.177,2194.099 3340.521,2225.017 3429.552,2250.72 3440.727,2274.71 3299.693,2222.856 			
				"/>
		</g>
		<path d="M4475.719,2586.354c0,0-33.75,0.969-60.496,2.533c-26.672,1.564-96.035-59.602-204.957-97.598
			c-7.301-2.533-14.977-5.143-23.021-7.824c3.129-4.842,6.408-9.686,9.76-14.379c5.066-7.301,10.43-14.453,15.869-21.457
			c2.756,0.598,5.514,1.268,8.195,1.863c118.533,26.373,182.904,15.496,209.799,23.021s59.23,33.6,59.23,33.6
			s-33.229-16.688-50.588-12.963c-17.285,3.725-38.146,9.834-34.643,14.9c3.5,5.066,25.105,22.277,35.238,25.928
			c10.207,3.576,14.379,5.438,14.379,5.438s-17.211,7.525-34.494,2.459c-17.285-4.992-34.346-3.203-22.127,10.654
			c12.219,13.932,22.127,20.563,36.73,25.107C4449.195,2582.257,4475.719,2586.354,4475.719,2586.354z M3980.35,2420.14
			l-2.012-0.596l0,0l0.373-5.066l1.34,4.619l0,0L3980.35,2420.14z M3966.641,2416.339c-22.053-6.184-43.436-11.92-63.477-17.135
			c3.949-3.576,7.525-7.6,10.506-11.771l0.297-0.373l0.521-0.074c4.918-0.895,14.902,2.385,19.596,4.023
			c6.184,2.086,12.293,4.471,18.252,7.004c4.693,2.086,9.463,4.021,14.23,5.959l0.82,0.299L3966.641,2416.339z M3669.525,2399.577
			c-17.882,7.822-33.006,2.756-56.474-3.576c-30.1-8.195-45.596,3.203-70.107-14.529c-24.512-17.805-52.301-21.828-66.829-35.09
			c-14.528-13.336-29.801-30.025-29.801-30.025s28.907,14.752,47.682,22.426c18.7,7.6,23.319,1.416,45.745,10.207
			c22.425,8.717,26.447,17.359,47.309,11.25c19.222-5.588,33.451-5.811,48.203-8.195c1.863,3.428,3.8,6.779,5.886,10.207
			c7.227,11.846,15.497,22.723,24.66,33.229C3667.066,2396.819,3668.258,2398.235,3669.525,2399.577z M3626.015,2332.524
			c-1.416-0.521-2.906-1.043-4.471-1.564c-51.406-17.807-57.963-11.324-79.941-20.488c-21.978-9.238-52.301-23.395-52.301-23.395
			s28.982-1.861,49.769,4.172c20.712,6.109,30.77,9.016,54.163,1.789c6.854-2.16,13.857-3.203,20.786-3.725
			C3616.255,2304.063,3620.278,2318.517,3626.015,2332.524z M3613.349,2240.737c-4.022-1.193-8.344-2.311-13.037-3.129
			c-24.586-4.693-35.166-19.67-56.846-21.605c-21.605-1.938-67.723-13.188-67.723-13.188s20.115-3.502,34.271-5.961
			c14.154-2.459,20.637,8.568,42.838,8.42c21.234-0.076,50.662-3.727,67.352,5.512c-2.385,6.334-4.173,12.74-5.291,19.074
			C3614.243,2233.511,3613.722,2237.161,3613.349,2240.737z"/>
		<path fill="#4D4D4D" d="M3555.685,2388.624c-4.098-1.639-8.27-3.873-12.74-7.152c-24.512-17.805-52.301-21.828-66.829-35.09
			c-14.528-13.336-29.801-30.025-29.801-30.025s28.907,14.752,47.682,22.426c18.7,7.6,23.319,1.416,45.745,10.207
			c22.425,8.717,26.447,17.359,47.309,11.25c11.92-3.428,21.829-4.844,31.217-6.035c-9.016,2.756-18.924,6.035-25.48,9.09
			c-14.453,6.705-21.158,4.619-32.557,0.67c-11.325-3.949-25.778-15.049-37.55-14.08c-11.847,0.893-18.253-1.938-26.374-4.396
			c-8.195-2.533-7.301-0.895,0.373,4.918c7.674,5.811,35.611,10.355,52.822,31.813
			C3551.438,2384.677,3553.523,2386.763,3555.685,2388.624z M3554.417,2314.644c-3.947-0.895-8.045-2.16-12.814-4.172
			c-21.978-9.238-52.301-23.395-52.301-23.395s28.982-1.861,49.769,4.172c20.712,6.109,30.77,9.016,54.163,1.789
			c6.854-2.16,13.857-3.203,20.786-3.725c0.149,1.266,0.372,2.531,0.597,3.799c-11.623,1.416-19.223,4.172-26.375,8.568
			c-10.653,6.555-25.852,1.49-46.563-2.533s-23.989-2.607-4.247,7.523C3543.689,2309.876,3549.501,2312.558,3554.417,2314.644z
			 M3527.448,2213.767c-22.799-3.873-51.705-10.951-51.705-10.951s20.115-3.502,34.271-5.961c14.154-2.459,20.637,8.568,42.838,8.42
			c17.732-0.076,41.201-2.607,58.188,1.936c-10.506-0.371-19.818,2.311-31.291,3.875c-20.488,2.756-25.48,2.309-43.51-2.98
			c-18.029-5.215-29.354-3.725-24.363-1.787C3512.845,2206.688,3518.582,2209.446,3527.448,2213.767z M4212.873,2447.63
			c2.756,0.598,5.514,1.268,8.195,1.863c118.533,26.373,182.904,15.496,209.799,23.021c9.686,2.682,20.041,7.822,29.355,13.188
			c-7.676-2.459-16.02-4.695-24.885-6.408c-42.096-8.195-87.912,4.396-150.645-7.674c-14.975-2.906-42.02-9.535-76.143-18.402
			C4209.967,2451.356,4211.457,2449.493,4212.873,2447.63z M4409.336,2502.241c-3.801,2.012-5.736,3.949-4.469,5.811
			c3.5,5.066,25.105,22.277,35.238,25.928c10.207,3.576,14.379,5.438,14.379,5.438s-5.811,0.598-20.934-3.799
			c-15.125-4.396-42.244-21.83-35.465-28.684C4400.619,2504.401,4404.941,2503.06,4409.336,2502.241z"/>
	</g>
</g>
</svg>
