<?xml version="1.0" encoding="utf-8"?>
<!-- Generator: Adobe Illustrator 16.0.0, SVG Export Plug-In . SVG Version: 6.00 Build 0)  -->
<!DOCTYPE svg PUBLIC "-//W3C//DTD SVG 1.1//EN" "http://www.w3.org/Graphics/SVG/1.1/DTD/svg11.dtd">
<svg version="1.1" id="Layer_1" xmlns="http://www.w3.org/2000/svg" xmlns:xlink="http://www.w3.org/1999/xlink" x="0px" y="0px"
	 width="2700px" height="1700px" viewBox="0 0 2700 1700" enable-background="new 0 0 2700 1700" xml:space="preserve">
<g id="Layer_x0020_1">
	<g id="_338950512">
		<path fill="#FFDA19" d="M1050.996,397.102c105.301-23.087,211.832-26.923,319.16-19.541c-8.83-9.987-55.871-74.254-63.978-75.846
			c91.769-4.125,236.873,22.362,313.516,80.261c-36.838,7.382-72.445,20.119-106.099,36.765
			c34.015-0.36,147.06,18.455,162.837,26.633c-5.861,0.289-41.902,6.151-56.16,11.002c101.609,15.271,165.805,31.48,223.774,77.8
			c-87.86-33.146-227.466-59.418-307.437-63.832c18.455-10.856,31.266-16.573,51.963-22.22
			c-36.041-4.775-56.521-14.039-139.896-7.742c11.291-13.391,58.982-52.325,90.683-59.853
			c-45.521-16.212-91.769-21.205-139.315-23.015c11.94,17.297,23.955,40.456,30.396,60.286
			C1430.441,417.8,1283.094,372.061,1050.996,397.102z"/>
		<path d="M618.213,1173.58c-268.789,55.002-462.021,47.909-568.771-238.396c85.545,18.818,146.627,16.936,211.254-47.619
			c29.6-29.602,53.193-67.307,75.34-101.756c16.645-25.764,33.363-51.673,52.686-75.556c33.51-41.252,77.148-75.628,130.197-88.438
			c5.066-1.229,10.205-2.314,15.416-3.184c-14.113-15.562-22.291-27.72-31.121-46.318c14.33-20.337,26.488-40.166,38.285-62.168
			c20.699-38.429,38.791-80.478,49.068-122.959c4.85-20.192,8.033-41.107,8.25-61.951c0.36-43.495-7.164-87.642-24.533-127.735
			c-13.172-30.18-25.767-44.147-46.174-68.319c144.455-8.54,279.717-3.329,411.869,64.266
			c26.414,13.461,51.166,28.949,74.326,46.318c29.02-12.665,56.305-21.856,87.424-28.297c18.021-3.764,34.016-5.573,52.106-7.092
			c8.901,58.982,10.062,108.847-5.5,167.322l-3.617,13.534c34.158,56.739,58.258,119.92,72.442,184.477
			c4.705,21.276,8.396,42.917,10.711,64.628c0.435,4.053,0.869,8.178,1.23,12.304c16.428-7.889,31.627-14.258,46.896-17.225
			c26.344-5.066,51.24,2.604,72.373,18.382c9.264,6.947,19.61,17.008,26.196,26.633l1.666,2.461
			c41.104-2.678,82.356-3.257,123.394-0.072c23.737,1.811,46.752,2.171,70.418,0.725c14.041-0.796,29.021-2.533,42.99-0.508
			c8.973,1.304,17.15,4.126,25.258,8.106c8.611,4.27,16.355,5.789,25.836,5.934c9.986,0.219,19.25-0.796,28.877,3.112
			c6.078,2.533,11.072,6.658,14.908,12.014c4.486,6.079,6.803,13.534,5.861,21.134c-1.736,14.763-14.111,24.606-27.139,29.599
			c17.514,26.852,14.113,77.512-25.041,84.242c-13.678,2.389-27.574-0.652-39.66-7.238l-0.506,0.437
			c-14.619,10.131-34.594,7.598-52.18-0.869l-1.375,0.651c-19.252,10.203-49.285,3.111-64.701-13.315
			c-6.875,2.459-13.822,4.703-20.771,6.803c-15.559,4.703-31.047,9.625-46.535,14.691l0.22,1.157
			c4.774,25.908,8.033,52.035,10.06,78.306c4.561,61.951,4.27,126-4.56,187.66c-2.315,16.43-5.283,32.93-9.265,49.067
			c-1.446,5.937-3.112,12.232-5.065,18.021l-9.047,26.271l-19.104-20.266c-79.609-84.603-184.838-105.808-296.508-101.465
			c3.69,12.448,7.889,24.823,12.158,36.91c8.83,25.401,18.526,50.516,28.44,75.483c24.174,60.719,49.938,120.426,76.933,179.916
			c-3.617,2.315-7.092,4.486-10.566,6.586l1.086,3.545c1.303,4.271,2.605,8.541,3.908,12.812
			c4.486,14.618,9.047,29.237,13.678,43.856c2.39,7.6,4.922,16.283,7.89,23.738c4.054,4.053,22.002,11.58,27.067,13.821
			c14.547,6.515,33.941,15.128,41.324,30.107c5.646,11.508,7.381,24.824,3.689,37.271c-3.4,11.217-11.65,21.711-23.664,24.1
			c-6.586,1.303-13.969,1.736-19.902-0.941c-5.574,3.259-12.305,5.211-19.901,5.502c-5.646,0.218-11.437,0.146-17.08,0
			l-23.377-0.651c-3.328,0.506-6.804,0.797-10.422,0.797c-30.033,0-66.146-4.562-79.972-35.607
			c-5.571-12.594-10.639-25.69-15.774-38.502c-8.396-20.698-16.937-41.396-25.838-61.95l-0.578-1.447
			c-6.949,2.244-13.896,4.488-20.845,6.658c-55.582,17.368-120.209,37.487-177.021,48.924l-3.765-55.146
			c-58.477-4.487-115.649-9.844-172.389-17.949l-1.883,4.197c-10.277,23.377-20.047,46.971-29.672,70.635
			c-6.008,14.765-11.797,30.035-18.311,44.582c-13.822,31.047-49.938,35.607-79.972,35.607c-3.619,0-7.092-0.291-10.422-0.797
			l-23.375,0.651c-5.646,0.146-11.362,0.218-17.08,0c-7.601-0.291-14.33-2.243-19.901-5.502c-5.937,2.679-13.316,2.244-19.902,0.941
			c-12.014-2.389-20.264-12.883-23.666-24.1c-3.691-12.447-1.953-25.765,3.691-37.271c7.381-14.979,26.85-23.594,41.324-30.106
			c5.065-2.242,23.014-9.771,27.065-13.822c2.967-7.455,5.5-16.14,7.89-23.738c4.633-14.619,9.19-29.238,13.678-43.857
			c0.652-2.172,1.303-4.27,1.955-6.44c-4.27-1.086-8.541-2.17-12.811-3.328c26.561-65.787,52.252-131.789,76.643-198.442
			C614.666,1183.276,616.475,1178.428,618.213,1173.58z"/>
		<path fill="#6BBF96" d="M522.898,638.1c46.68-11.29,92.998-4.922,129.836,12.375c-2.895,5.139-4.705,10.566-5.646,16.14
			c-4.342-2.099-9.117-3.907-13.315-5.428c-16.354-6.007-33.58-10.639-50.517-14.547C545.768,637.883,516.313,649.969,522.898,638.1
			z M241.879,925.487c68.754-48.633,105.444-137.434,159.94-204.667c-3.039,12.305-3.908,25.402-2.461,39.154
			c-20.479,21.855-42.41,48.488-66.871,80.549C301.369,881.559,270.537,908.336,241.879,925.487z"/>
		<path fill="#C6EEDB" d="M522.898,638.1c46.68-11.29,92.998-4.922,129.836,12.375c-1.23,2.244-2.316,4.56-3.186,6.876
			c-42.771-19.468-85.76-23.883-126.724-19.179L522.898,638.1z"/>
		<path fill="#37A46F" d="M625.305,1154.98c-238.682,49.937-454.494,57.68-549.953-198.442
			c100.09,18.743,183.969,4.125,268.572-107.328c21.276-27.937,40.526-51.603,58.549-71.504
			c15.922,62.963,78.016,87.643,137.434,100.959c29.455,6.586,59.199,10.422,88.729,16.211c16.066,4.27,19.539,10.854,25.908,30.106
			C680.598,1003.289,653.023,1081.088,625.305,1154.98z"/>
		<path fill="#329464" d="M625.305,1154.98c-200.977,42.047-385.742,54.133-496.037-95.965
			c96.4,31.191,229.709,44.797,342.682-58.477c43.424-39.66,74.543-78.959,100.308-115.578c18.815,3.328,37.635,6.223,56.379,9.914
			c16.065,4.27,19.539,10.854,25.908,30.106C680.598,1003.289,653.023,1081.088,625.305,1154.98z"/>
		<path fill="#37A46F" d="M1419.586,846.53c4.27,23.015,7.672,48.488,9.771,76.496c12.015,161.027-18.021,248.021-18.021,248.021
			c-82.648-87.787-192.146-111.959-313.443-106.604c-0.65-2.604-1.303-5.139-1.881-7.744c-8.83-37.778,1.881-130.85,5.934-174.055
			c23.306-3.979,44.799-6.658,68.609-4.414c62.023,5.789,117.604,4.703,178.18-10.494
			C1372.473,861.729,1396.064,854.202,1419.586,846.53z"/>
		<path fill="#329464" d="M1208.984,1069.291c-35.535-5.283-72.733-6.515-111.092-4.849c-0.649-2.604-1.303-5.139-1.881-7.744
			c-8.83-37.778,1.881-130.85,5.935-174.055c20.338-3.475,39.228-5.934,59.49-5.066
			C1185.971,935.982,1200.662,1002.78,1208.984,1069.291z"/>
		<path fill="#C6EEDB" d="M1419.586,846.53c4.27,23.015,7.672,48.488,9.771,76.496c12.015,161.027-18.021,248.021-18.021,248.021
			s29.526-186.431-4.054-320.535C1411.408,849.209,1415.461,847.905,1419.586,846.53z"/>
		<path fill="#C6EEDB" d="M565.453,1393.95c-10.35,33.728-21.494,69.479-24.678,77.293c-6.441,15.488-59.418,25.478-68.465,44.004
			c-9.119,18.525-0.795,35.75,8.105,37.488c8.975,1.736,9.771,0,9.771,0s-9.987-9.264-7.526-26.996
			c2.389-17.729,23.811-28.225,41.396-29.526c17.658-1.23,13.39,3.547,4.485,7.02c-8.899,3.547-33.071,6.225-33.58,28.299
			c-0.434,22,15.851,25.187,22.652,25.476c6.803,0.217,15.994,0,15.994,0s-17.008-31.267,7.094-45.232
			c24.027-14.041,40.095-10.783,37.488-7.021c-2.605,3.763-35.752,12.736-37.635,27.212c-1.953,14.547,4.053,25.112,27.285,25.112
			c23.303,0,54.279-2.315,64.627-25.547c6.008-13.461,26.199-65.859,47.984-115.217
			C642.096,1410.452,603.883,1403.215,565.453,1393.95z"/>
		<path fill="#9DDFBF" d="M468.619,1527.333c-1.664,13.39,4.851,24.027,11.797,25.402c8.976,1.736,9.771,0,9.771,0
			s-8.396-7.744-7.889-22.725c-2.533,1.303-5.791,1.664-9.988-0.146C471.008,1529.286,469.777,1528.417,468.619,1527.333z
			 M495.107,1529.504c-0.072,0.651-0.145,1.303-0.145,2.026c-0.435,22,15.85,25.187,22.651,25.476c6.804,0.217,15.994,0,15.994,0
			s-6.078-11.146-5.789-23.16c-4.196,1.737-9.987,3.041-17.297,2.244C503.213,1535.294,498.365,1532.471,495.107,1529.504z
			 M540.34,1533.483c-1.23,13.752,5.139,23.594,27.502,23.594c23.303,0,54.279-2.315,64.627-25.547
			c6.008-13.461,26.199-65.858,47.984-115.217c-30.688-4.703-61.301-10.277-91.986-17.08c12.377,8.541,24.535,16.719,33.074,21.857
			c24.969,15.342,11.002,46.243,0.725,76.495c-10.205,30.253-13.461,36.259-47.838,41.035
			C554.381,1541.372,544.828,1537.319,540.34,1533.483z"/>
		<path fill="#00954C" d="M562.559,143.944c0,0,54.063,63.904,53.049,181.438c-1.014,117.53-92.998,248.597-92.998,248.597
			s9.264,19.396,34.16,43.857c24.533-0.725,71.938,0.65,107.254,19.105c5.428-4.487,11.725-7.815,18.455-10.275
			c-13.244-16.502-19.395-29.238-19.395-29.238C852.119,498.423,952.063,361.93,952.063,361.93
			c37.922,30.251,72.153,59.778,107.037,93.504l45.017-69.983c57.606,78.668,90.176,167.759,95.965,266.257
			c-78.308,36.259-197.068,42.627-274.289,87.063c95.17-32.423,191.278-39.515,287.315-77.8
			C1213.109,660.969,1198.057,106.455,562.559,143.944z M666.268,427.569l-3.764-5.572c-10.64-15.704-18.238-33.436-23.666-51.528
			c-9.265-31.337-12.592-65.353-12.447-97.919c0-15.415,0.65-32.062,2.75-47.403l1.809-13.461h13.681
			c67.885,0,136.349,17.803,188.963,62.384l6.875,5.79c7.815-2.314,15.562-4.053,23.229-5.138c0,0-124.985,59.997-215.016,198.009
			c-1.375,2.171-2.75,4.271-4.053,6.225C647.596,463.828,655.268,446.097,666.268,427.569z"/>
		<path fill="#00793D" d="M522.609,573.978c0,0,9.265,19.396,34.16,43.857c24.533-0.725,71.938,0.65,107.254,19.105
			c5.429-4.487,11.726-7.815,18.455-10.276c-13.244-16.501-19.395-29.237-19.395-29.237c47.691-24.969,89.74-52.325,125.926-79.32
			C669.307,589.249,522.609,573.978,522.609,573.978z"/>
		<path fill="#6BBF96" d="M952.064,361.929c37.922,30.251,72.154,59.778,107.037,93.504l45.016-69.983
			c0,0,87.426,89.887,108.992,275.521c0,0-15.053-554.513-650.551-517.024c153.066-1.52,394.064,38.357,526.07,219.359
			l-29.744,65.496C1025.521,403.325,990.275,379.659,952.064,361.929z M648.682,472.729
			c68.391-76.858,144.02-141.993,215.016-198.009C863.697,274.721,738.711,334.717,648.682,472.729z"/>
		<path fill="#C6EEDB" d="M780.688,669.146c11.145,5.646,23.086,10.784,35.824,15.198c3.473-5.428,8.25-9.771,14.184-12.447
			c17.588-7.889,38.502,0.796,51.097,13.822c3.908,4.054,7.235,8.685,9.625,13.751c11.291,0.796,23.015,0.94,35.174,0.507
			c183.896-7.454,207.996-132.007,207.996-132.007l-16.5,7.961c0,0,6.513-23.955-3.979-51.963
			c-11.437-30.541,22.869-61.95-9.482-110.513l-42.699,66.438c-34.811-33.726-69.621-65.279-107.254-95.893
			c-20.338,24.751-42.627,48.198-65.787,70.271c-48.85,46.753-103.201,88.656-161.027,124.263c3.039-0.867,6.08-1.592,9.119-2.171
			c16.72-3.185,35.027-1.954,50.154,6.369c12.736,7.021,23.592,20.119,20.914,35.534c-2.025,11.869-11.289,19.54-22.289,23.159
			c-9.047,2.895-12.449-0.651-10.35,7.454L780.688,669.146z"/>
		<path fill="#9DDFBF" d="M780.688,669.146c11.145,5.646,23.086,10.784,35.824,15.198c1.736-2.678,3.764-5.065,6.078-7.164
			c-14.619-11.508-25.258-24.534-30.613-38.357c-2.024,1.014-4.053,1.882-6.223,2.605c-9.047,2.895-12.449-0.651-10.35,7.454
			L780.688,669.146z M1050.996,469.4c-31.191-29.816-62.603-57.97-96.326-85.397c-9.988,12.157-20.41,23.955-31.193,35.462
			L1050.996,469.4z M883.889,459.052c-47.619,44.87-100.162,85.036-156.033,119.484c3.039-0.867,6.08-1.592,9.119-2.171
			c16.719-3.185,35.027-1.954,50.154,6.369c3.473,1.881,6.803,4.271,9.696,6.947c1.81-2.896,3.908-5.79,6.297-8.686
			C835.906,541.556,864.855,493.573,883.889,459.052z"/>
		<path fill="#FFFFFF" d="M1054.832,666.903c68.174-39.226,79.754-98.933,79.754-98.933l-16.5,7.961c0,0,6.512-23.955-3.98-51.963
			c-9.988-26.633,14.764-53.917-0.074-92.563c1.811,44.146-16.572,53.338-13.822,87.354c1.015,13.026,10.205,26.199,9.336,44.871
			C1107.953,597.064,1088.701,639.112,1054.832,666.903z"/>
		<path fill="#C6EEDB" d="M1139.58,222.468c0,0-54.135,4.632-111.453,29.6c16.862,13.678,32.785,28.442,47.692,44.219
			c26.851-34.738,52.252-60.864,52.252-60.864c-17.151,24.389-31.047,48.634-42.267,71.72
			c16.791,18.744,32.205,38.864,46.318,60.286C1141.316,332.763,1148.625,282.464,1139.58,222.468z"/>
		<path fill="#6BBF96" d="M1139.58,222.468L1139.58,222.468L1139.58,222.468c-0.072,0-1.375,0.361-11.508,12.955
			c-17.152,24.389-31.047,48.634-42.267,71.72c16.791,18.744,32.205,38.864,46.317,60.286
			C1141.316,332.763,1148.625,282.464,1139.58,222.468z"/>
		<path fill="#FFFFFF" d="M1139.58,222.468c0,0-54.135,4.632-111.453,29.6c6.586,5.355,13.026,10.856,19.321,16.573
			C1068.076,252.213,1098.473,233.83,1139.58,222.468z"/>
		<path fill="#C6EEDB" d="M644.629,227.244c0,0-15.922,117.099,30.83,185.996c19.033-28.226,45.231-57.317,74.543-81.636
			c-23.955-28.225-52.472-59.056-84.82-89.886c0,0,53.049,33.941,99.078,78.668c19.033-14.257,39.08-26.198,59.199-34.449
			C792.484,259.668,735.744,227.244,644.629,227.244z"/>
		<path fill="#6BBF96" d="M644.629,227.244c0,0-15.922,117.099,30.83,185.996c19.033-28.226,45.231-57.317,74.543-81.636
			c-23.738-27.863-51.818-58.404-83.808-88.873C655.412,234.265,644.629,227.244,644.629,227.244z"/>
		<path fill="#FFFFFF" d="M805.656,294.261c5.861-3.112,11.869-5.862,17.804-8.323c-30.976-26.271-87.715-58.694-178.83-58.694
			C644.629,227.244,743.705,243.238,805.656,294.261z"/>
		<path d="M985.428,470.27c-10.711-6.731-42.338-27.285-64.99-32.278c-27.574-6.007-38.646,3.258-28.297,7.237
			c6.15,2.315,16.572,4.993,29.238,9.553c-6.515,6.441-11.291,16.284-12.521,27.646c-2.17,20.915,8.396,38.936,23.666,40.383
			c15.271,1.448,29.383-14.329,31.555-35.172c0.506-4.487,0.361-8.758-0.289-12.883c7.453,3.764,12.881,6.007,17.006,7.31
			C994.475,486.19,996.861,477.506,985.428,470.27z"/>
		<path fill="#FFFFFF" d="M950.385,467.711c-3.996-0.426-7.721,4.492-8.32,10.985c-0.598,6.493,2.154,12.103,6.15,12.527
			c3.994,0.425,7.721-4.493,8.318-10.986C957.133,473.744,954.381,468.136,950.385,467.711z"/>
		<path d="M1102.453,534.897c10.566,7.815-6.658,24.172-15.487,28.008s-16.646-9.19-24.679-15.922
			C1043.324,531.134,1091.887,527.153,1102.453,534.897z"/>
		<path d="M1057.943,603.216c0,0-90.102-29.527-117.459-20.555c-27.283,9.048-38.356,35.318-30.106,61.807
			c8.252,26.487,49.213,28.009,63.254,28.949c13.967,1.013,28.949-1.737,36.476-15.994
			C1017.561,643.166,1028.344,616.461,1057.943,603.216z"/>
		<path fill="#FF99CC" d="M943.814,658.726c-30.832-8.323-25.477-35.245-22.727-43.063c2.752-7.743,6.658-10.928,6.514-11
			c-0.145,0,52.615-0.94,64.484,43.931C997.947,670.739,955.682,661.91,943.814,658.726z"/>
		<path d="M1119.895,457.242c-9.119,3.618-31.047,12.737-35.027,22.219c-2.026,4.775,4.342,4.343,12.664,2.172
			c-2.389,7.599-5.428,20.626-2.967,32.061c3.691,16.862,15.054-11.94,16.211-36.331c3.765-1.303,7.312-2.678,10.062-3.764
			C1132.414,468.894,1125.395,455.144,1119.895,457.242z"/>
		<path fill="#C6EEDB" d="M1194.582,1388.45c10.711,35.246,23.014,74.615,26.344,82.793c6.441,15.488,59.416,25.478,68.463,44.004
			c9.119,18.525,0.797,35.75-8.105,37.488c-8.975,1.736-9.77,0-9.77,0s9.986-9.264,7.527-26.996
			c-2.39-17.729-23.812-28.225-41.398-29.526c-17.658-1.23-13.389,3.547-4.486,7.02c8.902,3.547,33.074,6.225,33.58,28.299
			c0.437,22-15.85,25.187-22.651,25.476c-6.804,0.217-15.994,0-15.994,0s17.008-31.267-7.092-45.232
			c-24.026-14.041-40.095-10.783-37.487-7.021c2.604,3.763,35.752,12.736,37.633,27.212c1.953,14.547-4.054,25.112-27.285,25.112
			c-23.304,0-54.277-2.315-64.627-25.547c-5.355-12.086-22.291-55.727-41.47-100.309c18.164-6.078,36.187-12.447,53.987-19.25
			C1161.508,1404.444,1177.938,1397.354,1194.582,1388.45z"/>
		<path fill="#9DDFBF" d="M1293.008,1536.307c-1.375,8.975-6.441,15.416-11.725,16.43c-8.976,1.736-9.771,0-9.771,0
			s6.369-5.936,7.672-17.369C1284.105,1535.729,1289.461,1538.189,1293.008,1536.307z M1265.869,1540.358
			c-3.475,14.113-16.065,16.43-21.785,16.646c-6.803,0.218-15.994,0-15.994,0s6.658-12.303,5.72-24.896
			C1241.479,1535.294,1256.678,1541.083,1265.869,1540.358z M1221.504,1537.536c-0.361,11.58-7.525,19.541-27.646,19.541
			c-23.303,0-54.277-2.315-64.627-25.547c-5.355-12.086-22.291-55.727-41.469-100.309c10.711-3.617,21.422-7.31,32.061-11.072
			c14.908,40.818,36.547,99.439,39.441,104.434C1163.1,1531.167,1207.029,1539.926,1221.504,1537.536z"/>
		<path fill="#FFFFFF" d="M1194.582,1388.45c10.711,35.246,23.014,74.615,26.344,82.793c4.053,9.699,26.125,17.226,44.436,25.982
			c-26.633-7.383-50.731-8.687-52.324-14.908c-1.955-7.455-20.555-58.404-31.119-87.426
			C1186.115,1392.866,1190.385,1390.694,1194.582,1388.45z"/>
		<path fill="#C6EEDB" d="M839.67,725.018c-5.646-3.546-19.396-15.27-10.422-31.481c11.002-19.901,45.231-3.979,50.442,19.251
			c5.283,23.305-9.696,43.568-29.744,56.307c-19.976,12.736-28.731,12.229-35.752,31.988c-6.946,19.758-28.731,50.225-81.201,34.955
			c-52.541-15.197-102.983,4.27-176.008-5.5c-73.022-9.697-95.53-45.449-95.53-45.449s1.735,22.869,25.764,39.008
			c34.666,23.229,79.104,22.941,119.414,22.941c33.291,0,55.799-3.765,71.576-0.578c1.086,11.868,0.941,32.35-9.264,48.776
			c-7.092-5.5-18.961-12.086-37.345-15.703c-76.787-14.981-202.353-21.93-216.104-116.446
			c-13.024-89.452,84.459-115.505,84.459-115.505s-9.987,9.771-6.008,14.258c4.054,4.485,39.517-10.784,85.763,0
			c46.246,10.711,62.746,19.975,62.746,19.975c0.726,18.816,5.065,26.633,10.783,34.231c0,0-17.658,21.783-5.717,52.036
			c11.94,30.252,58.478,40.237,53.916,34.737c-4.485-5.5-35.244-16.283-38.937-48.344c-3.764-32.134,33.22-39.154,55.222-34.884
			c22,4.198,30.612,12.304,27.354,25.548c-3.184,13.244-28.949,18.453-46.463,15.197c-17.514-3.185-8.25,8.25,15.488,11.291
			c28.152,3.545,57.318-14.041,45.955-43.569c-11.145-28.876-63.832-25.619-89.09-20.771c0,0-19.178-31.337-1.736-53.482
			c17.441-22.146,68.754-21.494,83.519-2.75c14.69,18.745-9.554,29.238-31.267,29.238c-21.783,0-38.428-4.197-29.744,3.257
			c8.758,7.525,38.213,9.264,54.496,5.5c16.211-3.764,20.771-10.711,20.771-10.711s3.689,14.258,15.197,21.855
			c11.508,7.601,29.021,9.408,29.021,9.408s5.646,14.837,20.845,19.975C840.9,732.546,851.684,732.546,839.67,725.018z
			 M703.611,623.48c0,0-2.821-24.39,36.258-31.771c56.597-10.711,79.972,46.463,8.396,35.606
			C722.861,623.48,703.611,623.48,703.611,623.48z"/>
		<path fill="#9DDFBF" d="M775.766,838.137c-11.217,2.967-25.33,3.039-42.771-2.101c-52.541-15.196-102.983,4.271-176.008-5.5
			c-73.022-9.696-95.53-45.448-95.53-45.448s1.735,22.869,25.765,39.008c34.666,23.229,79.104,22.94,119.414,22.94
			c33.291,0,55.799-3.764,71.576-0.577c1.086,11.868,0.94,32.35-9.265,48.776c-7.092-5.5-18.961-12.086-37.345-15.703
			c-54.567-10.639-133.889-17.297-180.061-54.207c-5.791-10.854-12.811-28.008-9.482-43.496c5.283-24.461,31.988-15.776,63.979,0
			c34.086,16.863,106.676,14.98,146.696,18.527C715.047,805.784,728.58,839.221,775.766,838.137z"/>
		<path fill="#FFFFFF" d="M417.453,722.63c15.488-57.103,82.504-75.051,82.504-75.051s-9.987,9.771-6.008,14.259
			c4.054,4.485,39.517-10.784,85.763,0c46.246,10.711,62.746,19.975,62.746,19.975c0.217,4.414,0.578,8.178,1.086,11.507
			c-37.924-16.861-118.399-24.605-145.25-15.994c-30.252,9.771-10.783-10.205-30.758,0
			C456.896,682.754,432.869,697.734,417.453,722.63z"/>
		<path fill="#FFFFFF" d="M839.67,725.018c-5.646-3.474-19.179-15.053-10.64-31.119c18.455-2.678,50.806,13.605,43.713,40.673
			c-8.901,34.377-48.487,33.364-71.433,65.713c-23.014,32.423-73.457,15.634-107.543-22.579
			c-34.088-38.213,4.849-17.369,34.086-34.884c13.39-8.034,8.902-15.198,0.146-20.698c14.401,4.632,19.83,12.014,17.08,23.015
			c-3.185,13.244-28.949,18.453-46.463,15.197c-17.515-3.185-8.25,8.25,15.487,11.291c28.152,3.545,57.318-14.041,45.955-43.569
			c-8.61-22.29-41.901-25.402-68.317-23.448c-4.125-4.271-8.685-10.783-11.726-20.265c-6.514-20.626,12.23-10.711,43.785-16.5
			c17.08-3.112,23.883-11.941,26.488-19.396c0.869,0.797,1.736,1.737,2.461,2.605c14.691,18.745-9.553,29.238-31.266,29.238
			c-21.783,0-38.429-4.197-29.744,3.257c8.758,7.525,38.213,9.264,54.496,5.5c16.211-3.764,20.771-10.711,20.771-10.711
			s3.688,14.258,15.196,21.855c11.508,7.601,29.021,9.408,29.021,9.408s5.645,14.837,20.844,19.975
			C840.9,732.546,851.684,732.546,839.67,725.018z M784.451,599.598c-1.955,6.44-5.936,12.158-13.172,15.487
			c-9.625,4.486-22.219,8.032-34.305,10.711c3.619,0.435,7.383,0.94,11.291,1.521C794.727,634.408,801.168,612.697,784.451,599.598z
			"/>
		<path fill="#00954C" d="M695.361,846.314c0,0-0.289,25.476-4.994,42.988c-4.776,17.514-20.987,30.758-20.987,30.758
			s4.342,13.1,8.033,34.521c28.226-2.968,56.668-5.212,84.748-7.164c29.961-2.101,60.067-3.765,90.248-4.923
			c14.547-45.448,30.758-103.202,40.312-137.725c-16.572-1.303-31.627-7.961-43.424-18.236c-6.947,1.013-14.98,9.697-17.73,19.539
			c-3.908,14.041-14.258,36.478-41.18,45.523C749.857,865.059,711.861,841.536,695.361,846.314z M864.422,942.063
			c51.237-1.666,102.479-1.738,153.428,0.361c20.916,0.869,41.977,2.172,63.037,3.908c3.98-52.543,11-115.939,13.533-138.015
			c-23.594,7.455-46.824,10.277-66.51,4.633c-22.869-6.514-40.602-21.133-51.385-42.266c-2.533-5.066-4.922-11.074-6.658-17.152
			c-9.553,28.877-36.113,49.937-67.813,51.386C895.107,840.233,877.666,898.928,864.422,942.063z M669.668,1069.942
			c-31.842,106.531-112.32,306.133-112.32,306.133c105.301,27.937,204.16,36.982,311.633,45.017
			c-6.875-133.961-28.441-274-32.783-364.32C780.543,1058.797,724.889,1062.922,669.668,1069.942z M896.844,1470.521
			c71.793-18.312,248.742-67.668,303.527-102.986c0,0-98.426-216.752-119.558-307.291c-6.658-0.434-13.317-0.795-19.978-1.155
			c-67.957-3.691-136.203-4.851-204.305-2.97c-2.533,0.072-5.066,0.146-7.6,0.22c2.461,24.315,7.311,55.508,12.955,103.49
			C875.855,1278.809,896.844,1470.521,896.844,1470.521z"/>
		<path fill="#00793D" d="M695.361,846.314c0,0-0.289,25.476-4.994,42.988c-4.776,17.514-20.987,30.758-20.987,30.758
			s4.342,13.1,8.033,34.521c15.633-1.664,31.338-3.039,46.972-4.343c0.795-32.567-0.869-64.34-2.533-100.813
			C710.631,846.676,701.512,844.504,695.361,846.314z M889.752,815.409c1.014-3.688,2.024-7.309,2.967-10.639
			c-16.572-1.303-31.627-7.961-43.424-18.236c-6.006,0.867-12.736,7.31-16.211,15.343c13.315,9.118,31.481,16.719,53.41,14.041
			C887.58,815.773,888.666,815.629,889.752,815.409z M1007.211,803.977c-25.619-3.836-43.277-19.469-50.299-26.777
			c5.646-6.948,10.061-14.981,12.955-23.666c1.735,6.078,4.125,12.086,6.658,17.152
			C983.764,784.868,994.184,796.159,1007.211,803.977z M933.32,796.448c-8.104,6.586-19.035,12.955-33.002,16.72
			c0.65-2.822,1.23-5.646,1.736-8.25C913.346,804.409,923.912,801.442,933.32,796.448z M710.27,1065.311
			c-6.73,30.613-16.283,65.135-29.816,105.736c-51.891,155.815-66.944,195.766-66.944,195.766s17.297,14.186,45.957,31.336
			c-33.728-5.789-67.522-12.881-102.117-22.072c0,0,80.479-199.602,112.319-306.133
			C683.131,1068.205,696.736,1066.686,710.27,1065.311z M833.084,1418.342c4.196-57.537,13.244-188.892,12.737-249.974l0,0
			c8.104,76.714,18.744,166.021,23.158,252.724C856.967,1420.223,844.953,1419.28,833.084,1418.342z"/>
		<path fill="#6BBF96" d="M1084.215,811.284c-8.684,50.082-15.561,93.724-19.178,133.816c5.283,0.361,10.565,0.797,15.85,1.23
			c3.98-52.544,11-115.939,13.533-138.015C1091.018,809.403,1087.617,810.418,1084.215,811.284z M1065.688,1059.377
			c1.375,10.711,3.186,21.35,5.355,32.061c8.612,41.035,20.119,69.838,42.481,121.15c29.963,69.043,62.963,146.985,62.963,146.985
			s-25.619,22.291-95.022,57.248c50.082-16.646,95.604-34.231,118.905-49.287c0,0-98.426-216.752-119.558-307.291
			C1075.82,1059.955,1070.754,1059.594,1065.688,1059.377z"/>
		<path fill="#6BBF96" d="M679.656,970.143c2.605,34.738,1.23,50.08-5.354,83.518c146.336-17.877,292.744-15.776,403.474-9.118
			c-1.304-30.759,0.36-58.912,1.955-82.576C923.912,948.721,751.016,962.903,679.656,970.143z"/>
		<path fill="#569B7A" d="M679.656,970.143c2.605,34.738,1.23,50.08-5.354,83.518c13.101-1.594,26.199-3.041,39.297-4.344
			c5.937-30.541,8.976-57.391,10.276-83.227C706.65,967.536,691.742,968.911,679.656,970.143z"/>
		<path fill="#C6EEDB" d="M1064.023,1043.743c4.631,0.218,9.191,0.507,13.75,0.798c-1.303-30.759,0.361-58.912,1.955-82.576
			c-76.498-6.515-157.119-6.369-227.828-3.691c45.813,1.447,134.686,4.125,211.182,14.691
			C1061.852,997.426,1061.996,1020.73,1064.023,1043.743z"/>
		<path fill="#F6C000" d="M955.754,746.368c-7.164,24.896-30.033,43.062-57.172,43.062c-13.101,0-25.187-4.271-34.957-11.363
			c4.633-3.328,9.553-7.524,13.68-12.52c6.223,3.69,13.533,5.86,21.277,5.86c14.399,0,27.139-7.381,34.594-18.526
			C939.979,750.928,948.084,748.61,955.754,746.368z"/>
		<path fill="#FFE662" d="M955.754,746.368c-6.584,23.087-26.777,40.384-51.383,42.771c13.533-6.008,32.494-17.949,39.877-39.443
			C948.084,748.61,951.992,747.452,955.754,746.368z"/>
		<path fill="#C6EEDB" d="M1104.262,866.434l9.119-64.99c0,0,34.955-11.362,67.379-35.026c9.336-6.806,17.006-13.39,23.158-19.252
			c2.244-1.81,4.414-3.548,6.441-5.283c7.526-6.296,14.69-12.81,21.928-19.323c9.771-0.579,28.588-3.764,51.457-18.093
			c33.725-21.277,49.213-21.495,49.213-21.495c-2.822,4.053-6.73,10.35-6.73,15.488c0,0,86.123-11.58,172.101-4.923
			c86.051,6.658,100.525-9.19,132.514,6.658c31.988,15.85,51.529-0.65,63.543,15.851c11.941,16.501-16.066,33.292-47.549,28.008
			s-36.258-5.211-55.002,0.723c-18.744,6.008-35.463,5.5-46.246-2.242c-10.711-7.744-14.475,6.295,10.277,13.75
			c12.375,3.765,24.895,1.953,35.896-0.217c0.506,4.922-11.074,11.941-14.838,9.553c-18.525-11.579-28.369-10.204-40.166,3.185
			c-5.066,5.719-21.133-2.75-31.916,5.863c-11.869,9.479-11.869,21.565-9.119,30.975c-5.86,2.1-11.869,4.053-18.092,5.936
			c-116.521,34.884-164.431,64.41-305.627,51.095C1155.066,861.077,1136.105,860.934,1104.262,866.434z M1560.061,819.317
			c-14.475,7.672-40.818-1.084-48.199-14.764c-8.469-15.705,5.717-24.533,21.711-13.896c0.217,3.039,1.23,6.515,3.256,10.277
			C1540.954,808.68,1549.855,815.192,1560.061,819.317z M1588.068,793.771c8.322,20.555,24.389,27.791,24.389,27.791
			c-18.092,12.666-54.568-8.104-64.627-26.777C1534.586,770.178,1573.666,757.946,1588.068,793.771z M1680.197,804.555
			c-2.025,9.844-8.611,19.106-21.205,21.277c-30.252,5.282-59.271-26.488-51.818-39.515c7.527-12.955,27.068-8.613,43.857,6.73
			C1662.684,803.76,1666.158,804.555,1680.197,804.555z"/>
		<path fill="#9DDFBF" d="M1104.262,866.434l9.119-64.99c0,0,34.666-11.291,66.871-34.666
			c-7.236,11.072-13.027,23.086-13.461,33.508c-1.303,29.312,45.088,50.371,193.957,24.101
			c111.598-19.613,136.348-67.668,160.521-86.774c28.297-22.361,32.928,9.265,66.581,8.396c-17.152,4.705-32.279,3.764-42.266-3.474
			c-10.711-7.745-14.475,6.295,10.277,13.75c12.375,3.765,24.895,1.953,35.896-0.217c0.361,3.619-5.719,8.322-10.494,9.625
			l-4.705-0.289c-15.342-9.553-24.678-10.061-34.305-2.1l0,0c0,0-4.053,2.604-8.467,7.166c-6.804,1.881-19.758-3.113-28.949,4.197
			c-11.869,9.479-11.869,21.565-9.119,30.975c-5.86,2.1-11.869,4.053-18.092,5.936c-116.521,34.884-164.431,64.41-305.627,51.095
			C1155.066,861.077,1136.105,860.934,1104.262,866.434z M1523.584,786.317c-3.111,9.625-1.81,21.494,11.725,34.158
			c-10.131-2.678-19.467-8.611-23.447-15.922C1505.275,792.252,1512.512,784.146,1523.584,786.317z"/>
		<path fill="#FFFFFF" d="M1332.957,682.97c-2.822,4.053-6.73,10.35-6.73,15.488c0,0,86.123-11.58,172.1-4.923
			c86.052,6.658,100.525-9.19,132.515,6.658c31.989,15.85,51.529-0.65,63.543,15.851c6.658,9.19,0.939,18.455-10.855,23.955
			c11.578-12.305-1.955-22.001-19.252-20.409c-21.494,2.025-31.264-6.947-57.029-14.475c-25.764-7.526-46.752,0-126.724-6.007
			c-80.043-6.008-161.752,6.007-161.752,6.007s0.726-5.501,4.054-11.29C1326.154,687.964,1332.957,682.97,1332.957,682.97z
			 M1591.107,758.672c-2.461,4.414-11.072,8.899-14.186,6.946c-2.098-1.303-4.053-2.461-5.934-3.401L1591.107,758.672z
			 M1554.27,772.493c8.396,4.197,18.672,11.22,22.725,21.64c4.488,11.436,16.068,16.936,24.607,19.612
			c-4.705-4.413-9.842-10.928-13.533-19.975C1580.035,773.725,1564.33,768.73,1554.27,772.493z M1606.088,790.08
			c2.027-0.796,5.066-0.939,9.408-0.218c24.752,4.054,36.332,27.937,60.648,24.824c1.953-3.111,3.33-6.586,4.053-10.133
			c-14.039,0-17.514-0.795-29.166-11.506c-16.789-15.344-36.33-19.687-43.857-6.73
			C1606.523,787.475,1606.16,788.705,1606.088,790.08z"/>
		<path fill="#6BBF96" d="M982.822,738.769c0,0,3.908,46.174,49.431,59.2c45.449,12.955,122.235-29.601,168.119-68.029
			c45.885-38.502,65.354-66.799,99.873-66.799c34.449,0,60.504,20.771,60.504,20.771s-32.494-47.477-81.49-37.994
			c-48.996,9.553-79.03,67.016-159.508,113.55c-80.551,46.463-104.506,0.436-104.506,0.436s33.002,25.041,85.979-2.461
			c52.977-27.501,99.147-78.017,99.147-78.017s-42.627,20.554-122.162,35.534C998.744,729.939,982.822,738.769,982.822,738.769z"/>
		<path fill="#37A46F" d="M1023.494,769.383c-5.86-4.851-8.25-9.48-8.25-9.48s12.449,9.48,34.377,10.349
			c-9.985-7.742-13.533-23.955,11.726-31.481c19.47-5.862,49.646-22.869,71.793-36.33c-15.705,4.271-34.017,8.539-54.931,12.521
			c-47.26,8.901-72.012,15.633-84.387,19.612C1000.842,752.809,1012.061,763.375,1023.494,769.383z"/>
		<path fill="#C6EEDB" d="M1039.852,799.563c46.027,6.803,117.098-33.219,160.52-69.623c45.885-38.502,65.354-66.799,99.873-66.799
			c34.449,0,60.504,20.771,60.504,20.771c-64.701-67.017-119.848-4.486-163.776,38.574
			C1160.205,758.526,1101.512,792.612,1039.852,799.563z"/>
		<path d="M1881.174,873.452c40.602-8.032,74.76-27.791,96.979-53.989c-13.678,7.6-31.047,12.16-50.01,12.16
			c-36.258,0-66.871-16.72-76.279-39.517c-3.256,28.297,0.506,56.232,7.6,79.103c-43.857,62.239-88.801,47.114-88.801,47.114
			c25.113-29.674,28.66-55.871,23.232-81.854c-7.961-38.211-29.238-31.916-72.373-31.916h-35.244
			c2.822-5.066,4.703-10.711,5.428-16.861c1.375-10.422-0.652-22.58-6.949-31.338c0.652-0.217,1.303-0.506,1.955-0.725
			c3.691-1.447,7.309-3.328,10.639-5.572h41.18c52.035,0,45.738,2.895,67.523-35.896c19.033-33.869,55.074-52.034,112.973-32.133
			c-26.488,17.226-43.857,39.153-54.496,62.818c14.473-13.244,37.561-21.856,63.613-21.856c36.332,0,66.873,16.72,76.281,39.517
			c3.764-27.575-3.908-57.319-26.561-85.979c31.047-23.015,89.018-61.732,126.578-66.582c0,0-15.416,29.165-19.324,40.095
			c-3.834,11,2.461,35.316,14.619,68.174c12.088,32.785,12.521,118.908-64.916,167.832c-77.512,48.922-81.854,32.422-121.73,73.674
			c-39.877,41.324-53.193,62.096-53.193,62.096S1858.305,944.668,1881.174,873.452z M1498.762,804.555h-215.018
			c-35.681,0.725-75.269,16.43-99.513,43.785c-69.767-28.658-79.754-96.688-118.979-98.715c-46.028-2.39-53.121,64.481,6.804,63.254
			c-29.744,29.02-83.084,8.756-80.551-46.029c1.446-29.745,27.285-59.707,64.558-60.576c80.768-2.025,111.381,43.785,183.824,43.785
			h302.588c2.967,2.172,4.414,1.594,13.605,4.344c9.191,2.822,25.691,1.881,36.691-0.291c1.811,6.441-12.375,16.646-16.139,14.258
			c-18.455-11.579-26.85-10.565-38.646,2.75c-12.23,13.896-12.955,0.435-26.125,5.937
			C1498.689,782.555,1499.846,797.534,1498.762,804.555z"/>
		<path fill="#F6C000" d="M2000.227,777.271c0-25.981-32.279-47.115-72.084-47.115c-39.803,0-72.082,21.133-72.082,47.115
			c0,26.053,32.279,47.113,72.082,47.113C1967.947,824.385,2000.227,803.323,2000.227,777.271z"/>
		<path fill="#DBA500" d="M1983.363,777.271c0-43.858-110.439-43.858-110.439,0C1872.924,821.2,1983.363,821.2,1983.363,777.271z"/>
		<path fill="#BC8700" d="M1966.5,777.271c0-7.383-17.152-13.389-38.357-13.389s-38.355,6.006-38.355,13.389
			c0,7.453,17.15,13.461,38.355,13.461S1966.5,784.725,1966.5,777.271z"/>
		<path fill="#FFFFFF" d="M1988.357,774.955c3.256-6.73-2.605-16.212-13.027-21.277c-10.494-5.066-21.566-3.691-24.824,2.967
			c-3.184,6.73,2.678,16.211,13.1,21.277C1974.027,782.987,1985.1,781.612,1988.357,774.955z M1943.992,753.532
			c2.1-4.414,0.291-9.625-4.053-11.797c-4.414-2.099-9.625-0.217-11.797,4.125c-2.098,4.342-0.289,9.625,4.127,11.726
			C1936.611,759.758,1941.895,757.875,1943.992,753.532z"/>
		<path fill="#4D4D4D" d="M2074.189,635.639c-25.475,11.362-53.988,29.816-74.689,44.437c18.816-9.843,43.496-20.118,57.898-26.705
			c-9.988,46.028,30.25,88.366,10.641,156.831c-8.035,27.937-26.418,48.345-48.564,67.017c2.316-1.447,4.705-2.896,7.02-4.342
			c29.891-18.892,50.516-46.246,59.201-80.623C2102.994,724.222,2053.129,682.246,2074.189,635.639z M1738.529,765.618
			c10.35,0,21.061,0.361,31.41-0.217c8.178-0.434,16.066-1.735,23.158-6.225c11.869-7.525,19.83-25.33,26.561-37.343
			c15.125-26.924,38.646-34.666,64.627-31.988c-35.1,4.342-49.719,22.507-60.141,41.034c-6.73,12.014-14.619,29.889-26.488,37.344
			c-7.164,4.486-14.98,5.789-23.23,6.225c-10.35,0.65-25.547,0.289-35.896,0.289h-85.471c-5.283-3.764-11.146-6.946-17.297-9.119
			H1738.529z M1596.318,774.737h-1.014c-2.389-3.401-5.211-6.44-8.322-9.119h21.061c-1.014,0.507-2.027,1.015-3.039,1.593
			C1601.602,769.166,1598.635,771.698,1596.318,774.737z M1504.84,774.666l-264.953,0.071c-30.758,0-55.365-7.526-83.373-19.106
			c-35.389-14.617-60.43-25.691-100.09-24.75c-24.389,0.65-46.969,19.25-49.213,43.93c-0.145-2.389-0.217-4.85-0.072-7.238
			c1.158-25.547,24.316-45.159,49.285-45.737c39.66-0.941,64.701,10.132,100.09,24.751c28.008,11.506,52.615,19.032,83.373,19.032
			h297.158c-0.506,0.65-1.084,1.23-1.592,1.882c-1.23,1.666-2.314,3.401-3.184,5.211
			C1523.078,769.455,1512.945,769.311,1504.84,774.666z"/>
		<path fill="#C6EEDB" d="M903.719,738.769c0,0,11.363-12.593,31.627-27.284c-2.75,0.217-5.5,0.362-8.25,0.436
			c-10.566,0.434-21.133,0.36-31.699-0.219c1.23,6.586,1.23,13.027,0.289,19.18C900.535,735.585,903.719,738.769,903.719,738.769z"
			/>
		<path fill="#9DDFBF" d="M904.588,712.063c-3.039-0.072-6.08-0.145-9.191-0.362c1.23,6.586,1.23,13.027,0.289,19.18
			c4.85,4.704,8.033,7.889,8.033,7.889C901.621,725.742,902.924,717.202,904.588,712.063z"/>
		<path fill="#FFDA19" d="M2650.559,838.063c0,0-249.031,57.971-467.305,235.789c57.246-89.525,216.609-189.977,342.465-235.861
			c-20.266-8.61-36.188-14.836-68.32-22.58C2457.398,815.409,2590.129,815.12,2650.559,838.063z"/>
		<path fill="#FFDA19" d="M2299.338,538.95c19.686,1.157,62.676,4.993,78.234,8.829c-13.605-19.322-104.504-97.412-202.496-148.797
			c186.791,60.143,332.332,196.779,332.332,196.779c-12.883-3.475-41.613-6.875-59.564-8.612
			c79.898,67.885,119.414,112.756,158.496,171.015C2488.156,667.193,2417.016,609.802,2299.338,538.95z"/>
		<path fill="#FFDA19" d="M1786.801,707.721c-22.725-22.436-52.686-37.777-83.299-46.317c10.928-3.908,28.225-10.132,39.514-10.276
			c-32.35-54.063-74.107-80.405-132.947-99.438c90.609-18.889,194.029-9.698,282.469,16.501
			c-20.627-43.568-37.779-65.135-73.965-96.038c87.787-3.039,169.277,6.73,250.986,40.021c-13.461,4.705-19.324,7.6-29.527,14.547
			c44.436,14.401,94.951,36.114,138.012,63.543c-4.414-18.238-17.152-42.267-27.791-58.042
			c69.043,15.487,174.199,62.674,225.006,112.827c-13.68,0.724-31.338,4.56-43.352,7.6c54.641,24.896,132.295,65.568,193.088,116.88
			c-97.992-18.237-193.814-14.112-193.814-14.112c3.98,6.368,7.602,12.594,13.102,24.969
			c-69.262-6.152-139.824,3.836-204.305,29.817c62.672-53.989,148-58.188,148.434-58.114c-6.66-11.22-20.48-29.673-34.668-39.733
			c33.727-5.5,70.418-4.704,104.145,0c-8.25-13.389-78.887-46.896-96.977-54.568c11.145-6.007,25.98-11.145,39.949-15.704
			c-32.496-21.712-51.387-33.073-79.105-43.713c4.996,16.501,8.18,33.653,10.133,50.66
			c-60.141-39.949-188.383-96.472-258.945-100.959c9.48-10.854,23.664-20.119,35.969-27.284
			c-25.402-8.25-72.809-10.782-99.512-8.467c17.008,31.12,41.324,84.893,43.496,120.209
			c-61.371-29.744-166.384-58.403-234.269-57.463c25.258,21.712,62.24,58.983,79.029,86.991c-15.85,0.072-30.83-0.362-46.244,3.618
			C1751.412,665.673,1771.676,678.556,1786.801,707.721z M2324.162,804.918c3.908,1.375,30.758,12.375,30.758,14.907
			c0,0-49.43,12.882-86.049,37.851c2.025-8.467,30.613-37.562,35.533-44.726c-128.822,12.593-270.164,102.696-350.785,174.562
			c13.605,6.586,53.627,13.895,67.016,9.77c-65.713,38.357-160.811,57.972-209.734,55.511
			c26.344-34.017,36.332-91.334,33.508-133.527c-25.475,13.752-71.141,37.199-99.727,37.779
			c10.203-25.547,13.389-38.502,15.197-65.496c-10.277,8.104-20.553,14.764-33.725,17.006c0,0,7.092-26.271,7.742-58.549
			c-9.553,34.885-28.008,67.162-57.463,88.801c16.719-2.025,29.818-4.053,45.74-10.422c-3.619,37.199-25.838,62.096-51.746,86.774
			c44.002-5.354,95.24-20.047,133.959-41.76c1.883,42.99-29.383,93.215-62.963,121.515
			c102.406,14.473,297.594-51.529,357.301-119.125c-25.549,2.75-39.732,2.532-64.846-2.101
			c40.672-36.908,114.348-84.313,188.746-104.721c-11.074,15.125-30.469,61.731-39.371,96.254
			c88.223-68.971,181.799-119.631,267.125-134.033c-17.297-15.27-40.021-24.1-40.021-24.1
			c25.908-13.605,52.541-16.646,88.076-22.797C2455.951,779.441,2386.186,774.737,2324.162,804.918z"/>
		<path fill="#FFDA19" d="M946.564,1262.45c0,0,96.688,5.357,177.961-5.789c81.273-11.217,147.93-26.776,147.93-26.776
			c-7.237,11.58-46.317,72.227-54.278,75.268c93.504-10.856,294.914-83.662,363.018-132.586
			c-38.43-1.447-76.569-8.467-113.336-19.758c115.289-33.797,178.977-55.871,255.836-127.664
			c-88.945,53.41-243.676,109.426-325.022,116.375c13.606,11.723,68.248,43.205,101.539,45.666
			c-43.353,23.812-146.408,48.488-194.246,58.188c9.19-19.47,17.586-44.871,20.914-66.005
			C1326.877,1179.368,1185.391,1249.715,946.564,1262.45z"/>
		<path fill="#FFDA19" d="M782.279,742.821c122.961,74.688,228.695,117.82,373.224,123.611
			c-15.345-10.494-42.267-34.811-51.24-50.516c80.551,8.901,183.463,3.039,260.25-23.666
			c-13.244,17.586-24.026,30.612-40.963,44.799c68.174-12.306,121.729-25.476,181.291-62.385
			c-45.737,60.141-154.08,105.155-242.444,121.584c13.75-20.554,31.916-46.027,42.121-68.246c-41.324,15.053-92.854,22-136.711,22
			c9.408,15.344,31.41,33.871,45.305,45.231C1213.109,895.235,1014.305,935.26,782.279,742.821z"/>
		<path fill="#FFDA19" d="M1646.834,626.23c-43.857-47.621-121.367-64.267-195.766-70.49l32.856,44.87
			c-110.875-39.37-226.888-28.659-339.787-4.849c133.672-9.191,298.39-1.882,416.283,67.957
			c-11.941-29.093-22.146-45.738-35.172-71.214C1525.25,592.505,1578.588,596.992,1646.834,626.23z"/>
		<path fill="#FFDA19" d="M1007.211,1021.816c72.082,20.914,263.289,27.14,335.516,8.033l-46.1-31.266
			c117.748-0.146,251.637-33.363,321.692-109.498c-122.815,53.555-280.369,101.971-414.908,75.772
			c20.985,23.375,36.187,35.607,57.028,55.219C1260.441,1020.077,1081.393,1026.446,1007.211,1021.816z"/>
		<path fill="#FFDA19" d="M2246.941,730.156c-38.719-7.092-96.471-14.764-135.625-11.435c7.02-7.382,15.199-15.922,23.377-21.929
			c-55.148-25.402-123.178-33.942-183.535-31.338c85.037-24.896,168.771-21.929,247.945,8.901
			c-11.58,7.021-20.408,14.04-30.613,22.942C2168.49,697.3,2224.506,710.398,2246.941,730.156z"/>
	</g>
</g>
</svg>
