<?xml version="1.0" encoding="utf-8"?>
<!-- Generator: Adobe Illustrator 16.0.0, SVG Export Plug-In . SVG Version: 6.00 Build 0)  -->
<!DOCTYPE svg PUBLIC "-//W3C//DTD SVG 1.1//EN" "http://www.w3.org/Graphics/SVG/1.1/DTD/svg11.dtd">
<svg version="1.1" id="Layer_1" xmlns="http://www.w3.org/2000/svg" xmlns:xlink="http://www.w3.org/1999/xlink" x="0px" y="0px"
	 width="1700px" height="1700px" viewBox="0 0 1700 1700" enable-background="new 0 0 1700 1700" xml:space="preserve">
<g id="Layer_x0020_1">
	<g id="_331489360">
		<path d="M406.616,560.659l-5.428-9.336c-24.605-42.048-47.549-90.03-58.188-137.724l-3.764-16.573l16.645-3.546
			c12.812-2.678,26.127-4.632,39.082-6.368c29.672-3.908,59.852-6.152,89.813-6.007l7.311,0.072
			c3.4-6.514,6.875-12.955,10.35-19.396c49.502-91.985,127.085-160.304,221.313-204.017c30.47-14.185,62.457-25.692,95.023-34.015
			c13.027-3.401,27.357-6.658,40.818-8.396l25.113-3.186l-6.805,24.391c-2.531,9.119-3.111,23.594-3.185,32.93
			c-0.071,33.001,6.515,67.161,15.921,98.715c6.225-2.243,12.521-4.27,18.818-6.224l14.328-4.415l6.008,13.751
			c11.145,25.402,17.658,59.055,21.854,88.511c217.913-47.259,430.687,1.303,519.487,209.154
			c16.86,39.515,21.565,69.911,21.565,95.531c-37.776-29.384-65.713-48.996-111.31-66.365
			c-61.877-23.521-127.953-29.673-191.856-9.843c-10.854,3.329-20.987,7.382-30.47,12.014
			c73.748,21.205,98.935,55.438,118.908,105.591c-11.219-6.948-5.646,7.237-3.041,20.191c8.541,42.628-4.485,90.321-25.69,131.138
			l-5.646,11.074c2.39,11.725,1.375,24.604-1.52,35.532c-1.666,6.08-4.199,12.521-7.6,18.455
			c13.821,10.855,20.696,29.021,15.414,46.392c-3.545,11.58-11.217,22.362-20.771,29.746c-9.987,7.741-23.812,12.809-35.752,6.077
			c-1.953-1.086-3.619-2.389-5.211-3.907c-3.328-3.4-5.86-7.31-7.31-11.726c-7.526,3.402-15.705,5.355-24.026,4.416
			c-4.056-0.436-7.961-1.52-11.797-3.041c-14.112-5.645-23.883-18.02-39.442-19.104c-18.312-1.304-38.357-11.289-52.324-24.027
			c-3.765,3.111-8.252,5.5-13.316,6.658c-5.428,1.229-10.855,0.94-15.85-0.726c4.703,20.41,10.854,40.457,18.889,59.927l3.111,7.598
			l3.401,7.166c55.51,117.314,122.888,228.621,180.931,344.635l7.092,14.111c-7.89,4.562-15.705,9.264-23.666,13.607
			c7.237,17.586,14.401,35.1,21.785,52.612c3.328,7.816,6.729,16.646,10.639,24.244c4.053,4.197,24.244,12.306,29.744,14.691
			c14.691,6.225,34.594,14.69,42.988,28.877c6.514,11,9.844,24.172,7.311,36.91c-2.316,11.869-10.133,23.158-22.652,25.69
			c-6.658,1.304-13.969,1.736-19.83-0.94c-5.428,3.258-12.014,5.211-19.612,5.502c-5.646,0.217-11.435,0.145-17.08,0l-23.158-0.652
			c-3.547,0.578-7.092,0.797-10.64,0.797c-30.541,0-65.713-4.705-81.998-34.377c-6.803-12.377-13.024-25.33-19.467-37.924
			c-10.854-21.35-21.856-42.699-33.146-63.832c-25.547,6.225-51.385,10.855-77.076,13.896l-13.751,1.592l-4.199-13.172
			c-3.184-9.697-6.439-19.396-9.914-29.021c-3.184-8.975-6.441-17.875-9.77-26.777c-13.244,0.58-26.488,1.375-39.299,2.316
			l-13.896,71.068l-13.606,0.217c-20.336,0.363-40.674,0.291-61.008-0.072c-52.614-0.938-105.303-3.762-157.771-7.742
			c-10.061,19.105-19.902,38.283-29.673,57.463c-5.429,10.64-10.711,21.566-16.429,31.988
			c-16.283,29.672-51.528,34.377-81.998,34.377c-3.545,0-7.164-0.219-10.639-0.797l-23.159,0.652c-5.646,0.145-11.435,0.217-17.08,0
			c-7.599-0.291-14.185-2.244-19.612-5.502c-5.861,2.678-13.244,2.244-19.83,0.94c-12.521-2.533-20.336-13.821-22.725-25.69
			c-2.461-12.738,0.796-25.91,7.311-36.91c8.467-14.187,28.369-22.652,43.062-28.877c19.396-8.322,26.562-7.021,34.737-25.908
			c2.389-5.428,4.705-10.855,7.021-16.355l-16.066-1.954c13.533-32.714,26.487-65.279,39.008-98.354
			c7.601-20.119,15.199-40.238,24.101-59.779c19.034-42.119,43.713-78.379,71.722-114.42l-12.666-6.006
			c-76.857-36.332-106.023-123.973-114.42-202.787c-20.047,8.902-38.646,23.16-54.278,37.199
			c-52.397,47.115-125.492,83.879-195.621,53.555c-67.089-29.02-96.108-104.504-101.319-172.822
			c-5.5-71.286,11.65-141.776,42.845-205.683c10.349-21.132,22.29-41.758,35.679-61.153c11.002-16.067,22.726-29.601,35.317-44.364
			c6.946,42.192,35.101,54.424,87.354,48.851l9.336-1.013c9.045-19.179,17.224-38.864,25.547-58.332
			C406.183,561.745,406.398,561.238,406.616,560.659z M1083.294,828.581c0.362-2.316,0.725-4.633,1.086-6.875
			c-24.461-0.436-53.267,2.896-76.859,8.178l0.291,2.895c1.012,10.205,1.881,20.408,2.895,30.613
			c12.23-4.922,27.355-3.039,40.095-1.953c5.86,0.578,15.125,1.52,20.916,0.145C1082.427,858.905,1081.702,838.063,1083.294,828.581
			z"/>
		<path fill="#C6EEDB" d="M547.234,1450.4c-7.092,16.936-12.882,30.324-15.125,34.738c-8.033,15.487-62.022,25.477-73.022,44.004
			c-11.002,18.524-4.487,35.75,4.27,37.487c8.757,1.736,9.698,0,9.698,0s-8.976-9.264-4.704-26.995
			c4.27-17.73,26.705-28.226,44.508-29.527c17.73-1.23,12.955,3.547,3.764,7.02c-9.264,3.548-33.797,6.226-36.547,28.3
			c-2.75,22,13.244,25.186,20.047,25.475c6.73,0.217,15.994,0,15.994,0s-13.75-31.266,11.725-45.232
			c25.477-14.041,41.252-10.782,38.212-7.02c-2.967,3.762-37.054,12.736-40.455,27.211c-3.401,14.547,1.521,25.113,24.751,25.113
			s54.496-2.316,67.232-25.547c5.791-10.64,23.015-45.521,43.207-84.023c-10.276-0.797-20.481-1.666-30.758-2.605
			C602.454,1456.335,574.737,1453.657,547.234,1450.4z"/>
		<path fill="#9DDFBF" d="M454.309,1540.721c-3.328,13.604,2.172,24.534,9.047,25.909c8.757,1.736,9.698,0,9.698,0
			s-7.093-7.311-5.646-21.493c-2.242,0.217-4.775-0.074-7.744-1.015C457.421,1543.398,455.612,1542.239,454.309,1540.721z
			 M480.509,1543.036c-0.217,0.724-0.289,1.521-0.436,2.39c-2.75,22,13.244,25.186,20.049,25.475c6.729,0.217,15.994,0,15.994,0
			s-4.922-11.219-3.476-23.16c-4.632,1.377-11,2.461-18.455,1.377C486.225,1548.03,482.391,1545.354,480.509,1543.036z
			 M525.017,1548.971c-2.025,12.883,3.764,22.002,25.33,22.002c23.23,0,54.496-2.316,67.232-25.547
			c5.791-10.64,23.015-45.521,43.207-84.023c-10.276-0.797-20.481-1.666-30.758-2.605c-10.566-0.94-21.205-1.955-31.845-2.969
			c32.205,13.244,23.448,32.062,12.737,54.859c-12.23,26.053-17.731,41.469-53.846,42.699
			C538.333,1554.036,529.358,1551.575,525.017,1548.971z"/>
		<path fill="#C6EEDB" d="M1198.511,1406.833c13.895,34.015,29.021,70.418,33.074,78.306c8.033,15.487,62.021,25.477,73.023,44.004
			c11,18.524,4.485,35.75-4.271,37.487c-8.756,1.736-9.77,0-9.77,0s9.047-9.264,4.776-26.995
			c-4.271-17.73-26.776-28.226-44.51-29.527c-17.729-1.23-13.026,3.547-3.765,7.02c9.265,3.548,33.799,6.226,36.549,28.3
			c2.75,22-13.315,25.186-20.047,25.475c-6.729,0.217-15.994,0-15.994,0s13.75-31.266-11.725-45.232
			c-25.547-14.041-41.252-10.782-38.285-7.02c3.039,3.762,37.127,12.736,40.529,27.211c3.399,14.547-1.521,25.113-24.752,25.113
			c-23.231,0-54.496-2.316-67.234-25.547c-6.584-12.015-27.717-54.933-51.238-99.15
			C1130.698,1436.505,1165.653,1423.405,1198.511,1406.833z"/>
		<path fill="#9DDFBF" d="M1310.397,1548.898c-0.072,9.627-4.633,16.646-10.061,17.731c-8.756,1.736-9.771,0-9.771,0
			s6.586-6.729,5.86-19.829C1300.989,1548.609,1306.272,1549.984,1310.397,1548.898z M1283.692,1546.075
			c2.316,21.422-13.461,24.535-20.119,24.824c-6.73,0.217-15.994,0-15.994,0s3.908-8.902,3.691-19.324
			c2.895,1.594,6.295,2.822,10.274,3.258C1273.126,1556.137,1280.146,1550.419,1283.692,1546.075z M1238.388,1547.45
			c2.75,13.68-2.678,23.521-25.041,23.521c-23.23,0-54.496-2.316-67.234-25.548c-6.584-12.014-27.717-54.932-51.237-99.149
			c17.658-4.848,35.172-10.494,52.324-16.937c-9.047,9.771-15.922,21.353-11.797,31.845c9.481,24.246,25.258,67.45,39.517,81.491
			c14.258,13.968,36.621,12.953,53.338,11.072C1234.407,1553.098,1237.229,1550.491,1238.388,1547.45z"/>
		<path fill="#C6EEDB" d="M508.227,707.574c44.726,60.938,119.774,115.507,241.505,91.624
			c96.833-19.035,152.415-75.195,184.186-136.06c-0.797-0.362-1.664-0.651-2.533-1.014c-9.625,4.271-17.297,6.441-18.02,6.875
			c2.75-2.388,5.645-6.151,8.611-10.711c-20.119-8.395-39.731-18.021-58.549-28.008c-6.805-3.618-13.606-7.31-20.265-11.218
			c-36.909-21.277-72.444-46.028-106.097-72.154c-11.074-8.468-22.146-17.297-32.931-26.344l-75.772,108.052l-91.405-82.143
			c-2.896,3.69-5.79,7.237-8.685,10.783c-14.836,18.094-30.47,35.535-46.752,52.325c3.689,9.336,8.033,19.106,13.17,28.949
			c27.502,52.469,30.76,62.963,29.238,70.707C523.208,713.148,515.608,710.831,508.227,707.574z"/>
		<path fill="#9DDFBF" d="M734.245,544.738c-10.133-7.816-20.266-15.922-30.107-24.173l-75.773,108.052L734.245,544.738z
			 M558.309,565.727l-21.351-19.251c-2.896,3.69-5.789,7.237-8.685,10.783c-14.836,18.094-30.47,35.535-46.752,52.325
			c3.69,9.336,8.033,19.106,13.171,28.949c1.882,3.546,3.691,6.947,5.355,10.132C515.102,628.69,544.848,588.668,558.309,565.727z"
			/>
		<path fill="#FFFFFF" d="M731.855,802.165c5.86-0.797,11.797-1.809,17.876-2.967c96.833-19.035,152.415-75.195,184.186-136.06
			c-0.797-0.362-1.664-0.651-2.533-1.014c-9.625,4.271-17.297,6.441-18.02,6.875c2.75-2.388,5.645-6.151,8.611-10.711
			c-12.086-5.065-24.027-10.566-35.752-16.354C871.896,694.62,833.61,769.743,731.855,802.165z"/>
		<path d="M714.415,585.339c9.914-6.804,39.151-27.357,61.227-32.278c26.922-6.007,39.08,3.257,29.093,7.165
			c-5.862,2.388-15.921,4.993-28.08,9.625c7.237,6.369,13.101,16.284,15.633,27.646c4.56,20.843-3.979,38.937-19.034,40.384
			c-15.126,1.447-31.048-14.33-35.607-35.173c-0.939-4.487-1.303-8.83-1.156-12.883c-7.021,3.764-12.231,6.007-16.141,7.237
			C707.104,601.188,703.704,592.575,714.415,585.339z"/>
		<path fill="#FFFFFF" d="M750.275,585.491c4.485-0.425,9.271,4.493,10.688,10.986c1.416,6.493-1.068,12.102-5.555,12.527
			c-4.484,0.425-9.27-4.494-10.688-10.986C743.306,591.526,745.792,585.917,750.275,585.491z"/>
		<g>
			<path d="M602.237,610.814c-10.711-4.487-42.627-18.238-62.602-19.034c-24.391-0.94-30.759,9.481-21.061,11.435
				c5.646,1.086,14.98,1.81,26.705,3.98c-3.475,7.021-4.487,16.936-2.172,27.719c4.342,19.687,18.238,34.594,31.192,33.437
				c12.882-1.229,19.83-18.237,15.56-37.923c-0.939-4.197-2.314-8.178-3.979-11.796c7.237,2.171,12.304,3.401,15.994,3.835
				C614.323,623.986,613.745,615.59,602.237,610.814z"/>
			<path fill="#FFFFFF" d="M555.053,613.612c3.806,0.049,7.448,5.077,8.135,11.229s-1.842,11.1-5.647,11.051
				c-3.806-0.05-7.446-5.077-8.135-11.229C548.719,618.511,551.247,613.563,555.053,613.612z"/>
		</g>
		<path d="M613.311,697.805c-6.226,5.645,17.226,20.408,26.415,23.376c9.119,2.967,15.705-10.783,23.016-18.238
			C680.038,685.429,626.628,685.937,613.311,697.805z"/>
		<path d="M657.022,735.004c0,0,16.501,6.73,46.246-19.469c29.745-26.271,47.259-33.291,64.557-22.29
			c17.225,11,38.936,45.521,7.236,63.76c-25.548,14.691-66.654,13.605-85.544,8.83c-12.229-3.113-16.935-12.231-21.856-23.521
			C667.661,742.314,660.425,742.386,657.022,735.004z"/>
		<path fill="#FFFFFF" d="M678.228,742.53c2.896,6.296,6.369,12.158,13.68,14.041c14.547,3.617,34.449,3.545,49.213,1.375
			c9.842-1.52,20.408-4.271,29.166-9.265c5.86-3.401,10.783-8.105,11.289-15.198c0.361-4.414-0.869-9.118-3.039-13.678
			c-9.408,5.789-20.481,10.349-32.496,11.145c0,0,13.027-4.921,27.72-18.889c-3.329-4.414-7.31-8.25-11.146-10.711
			c-2.461-1.592-5.14-2.75-8.105-3.257c-14.33-2.315-35.173,16.066-44.871,24.606C700.735,730.589,689.88,738.405,678.228,742.53z"
			/>
		<path fill="#E6E6E6" d="M678.228,742.53c2.896,6.296,6.369,12.158,13.68,14.041c11.869,2.967,27.355,3.473,40.672,2.314
			c-7.092-0.723-16.861-2.314-24.822-6.006c-9.265-4.271-13.824-12.015-15.922-16.936
			C687.491,738.622,682.933,740.865,678.228,742.53z"/>
		<path fill="#00954C" d="M350.745,695.995c0,0,86.992,52.035,208.432,83.662c-7.961-5.5-15.561-11.508-22.869-17.947
			c-88.366-34.161-156.105-74.689-156.105-74.689s37.994-35.534,83.518-81.49c45.521-46.028,70.997-81.997,70.997-81.997
			l90.972,81.708l75.557-107.762c0,0,82.504,73.022,169.495,119.051c86.991,45.957,127.955,48.996,127.955,48.996
			s-45.669,86.991-153.502,125.059c148.147-37.271,207.999-144.526,222.038-169.567c16.502-29.527,27.502-65.496,27.502-65.496
			s-75.629-56.957-137.727-131.717c0.146,2.967,0.291,5.935,0.437,8.974c0.795,15.705,1.158,31.916,0.146,47.621l-1.447,22.652
			c6.586,11.651,13.172,28.731,13.172,28.731l-38.721-41.759c-28.875-31.119-66.076-61.588-101.03-85.254
			c-30.324-20.409-100.235-58.404-134.25-48.345c18.672-8.901,34.956-10.06,46.824-8.829l11.797-7.743
			c37.995-24.969,78.74-47.766,121.294-64.556c-27.861-91.768-13.533-143.297-13.533-143.297s-232.458,29.745-344.49,237.742
			C405.241,577.739,405.749,639.038,350.745,695.995z"/>
		<path fill="#00793D" d="M350.745,695.995c0,0,86.992,52.035,208.432,83.662c-7.961-5.5-15.561-11.508-22.869-17.947
			c-88.366-34.161-156.105-74.689-156.105-74.689s27.066-25.33,62.892-60.864C397.136,664.803,350.745,695.995,350.745,695.995z
			 M741.844,530.843c32.205,25.186,79.826,59.706,128.894,85.688c86.992,45.957,127.955,48.996,127.955,48.996
			s-45.668,86.991-153.502,125.059c148.147-37.271,208-144.526,222.039-169.567c16.502-29.527,27.502-65.496,27.502-65.496
			C979.729,707.358,742.495,531.422,741.844,530.843z"/>
		<path fill="#6BBF96" d="M861.69,132.001c0,0-232.458,29.745-344.49,237.742C405.241,577.739,405.749,639.038,350.745,695.995
			c35.68-35.173,82.069-98.426,133.961-225.655C600.645,185.918,861.69,132.001,861.69,132.001z M962.432,524.402l-31.845-34.377
			c-28.875-31.119-66.074-61.588-101.029-85.254c-30.324-20.409-100.234-58.404-134.25-48.345c0,0,50.732,7.816,137.579,65.063
			C919.732,478.735,962.432,524.402,962.432,524.402L962.432,524.402z M534.716,523.533l90.971,81.708l75.558-107.762l-79.608,84.24
			L534.716,523.533z M1094.729,555.522c0,0-75.629-56.957-137.727-131.717c0.146,2.967,0.291,5.935,0.437,8.974
			c0.289,5.646,0.506,11.362,0.649,17.152C991.454,488.216,1035.747,524.908,1094.729,555.522z M869.218,277.687
			c2.025-0.796,3.98-1.592,6.006-2.388c-12.664-41.759-16.645-75.122-17.15-99.149l0,0
			C858.073,176.149,854.815,218.559,869.218,277.687z"/>
		<path fill="#F6C000" d="M837.157,803.179c-5.717,26.85-29.601,46.969-58.114,46.969c-23.521,0-43.856-13.678-53.556-33.436
			c6.225-0.578,12.811-1.303,19.541-2.316c7.453,10.711,19.901,17.732,34.015,17.732c18.021,0,33.291-11.508,39.081-27.574
			C824.13,804.337,830.427,803.974,837.157,803.179z"/>
		<path fill="#FFE662" d="M837.157,803.179c-5.717,26.85-29.601,46.969-58.114,46.969c-10.276,0-19.901-2.605-28.298-7.164
			c14.691,2.533,41.759,4.559,58.188-10.711c12.158-11.219,15.994-21.133,16.936-28.08
			C829.484,803.974,833.249,803.612,837.157,803.179z"/>
		<path fill="#C6EEDB" d="M860.46,1026.446c2.026-19.324,5.791-33.074,19.758-36.838c13.967-3.765,36.98-5.718,38.283,8.25
			c1.23,14.041-17.514,22.508-25.764,23.014c-5.718,0.363,0.506,9.191,4.053,27.646c-9.189,2.678-15.054,6.514-15.054,6.514
			c10.06-0.071,29.89-0.289,36.476-0.435c20.771-0.36,53.482-14.258,54.279,8.25c0.361,10.566-12.303,22.941-44.291,28.441
			c-5.791,1.014-30.541,1.447-29.674,9.916c1.303,2.389,4.777,12.664,25.621,18.383c20.842,5.789,32.35-2.969,41.83-4.199
			c24.245-3.184,23.378,16.72,9.191,28.66c-12.304,10.422-33.943,17.297-47.478,15.851c-7.453-0.869-15.851-4.197-23.086-7.312
			c-0.071,6.515,1.521,12.377,8.104,17.517c12.521,9.77,38.285,0,38.285,0s5.935,13.243-10.783,20.77
			c-16.719,7.527-37.778,7.238-54.277-6.729c-47.549-40.383-44.221-30.902-92.348-20.119
			c-59.271,13.172-127.303,6.586-155.744-34.811c0,0,1.158,11.58,4.922,24.461c-76.713-36.187-99.293-129.617-105.445-194.752
			c1.158-0.289,2.316-0.58,3.547-0.869c19.18-4.56,36.981-2.533,55.438,3.836c12.883,4.486,25.113,10.639,37.199,16.791
			c20.843,10.565,55.943,26.777,88.438,31.047c19.83,27.357,54.713,43.641,106.531,43.496
			C844.321,1053.225,858.724,1043.092,860.46,1026.446z"/>
		<path fill="#FFFFFF" d="M864.296,1006.036c2.895-8.396,7.6-14.184,15.922-16.428c13.967-3.765,36.98-5.718,38.283,8.25
			c0.363,4.414-1.229,8.25-3.834,11.508c-0.508-4.776-3.33-9.407-11.869-11.362C888.106,994.676,872.185,1000.247,864.296,1006.036z
			 M886.804,1055.032c10.641-0.146,25.837-0.289,31.409-0.435c20.481-0.36,52.615-13.823,54.207,7.382
			c-6.08-3.763-18.672-3.545-36.838-2.388C908.081,1061.329,886.804,1055.032,886.804,1055.032z M721.94,1009.729
			c19.83,27.357,54.713,43.641,106.531,43.496c12.736,0,24.535-6.586,29.601-17.805c-3.619,16.356-16.285,34.377-57.972,30.18
			C731.35,1058.579,721.94,1009.729,721.94,1009.729z"/>
		<path fill="#9DDFBF" d="M983.708,1120.602c3.765,6.152,0,16.285-8.539,23.449c-12.303,10.422-33.942,17.297-47.477,15.85
			c-7.453-0.869-15.85-4.197-23.086-7.311c-0.072,6.514,1.52,12.377,8.105,17.516c12.52,9.77,38.285,0,38.285,0
			s5.934,13.244-10.783,20.77c-16.72,7.527-37.779,7.238-54.278-6.729c-47.549-40.384-44.22-30.902-92.349-20.119
			c-59.271,13.172-127.302,6.586-155.744-34.812c0,0,1.158,11.58,4.922,24.461c-76.713-36.187-99.293-129.617-105.445-194.752
			c1.158-0.289,2.316-0.58,3.547-0.869c19.18-4.56,36.981-2.533,55.438,3.836c12.883,4.486,25.113,10.639,37.199,16.791
			c10.422,5.283,24.316,11.94,39.66,17.803c-19.613-0.361-51.891,5.139-54.352,45.377c-3.476,57.971,72.879,115,142.428,108.486
			c69.549-6.586,86.557-30.541,130.559-15.055C933.266,1149.911,974.012,1144.991,983.708,1120.602z"/>
		<path fill="#C6EEDB" d="M1075.696,877.866c-19.758,4.922-53.192-7.744-63.979,4.922c-10.783,12.593-1.52,40.095,12.232,51.312
			c13.75,11.291,29.526-5.717,25.258-22.217c-4.271-16.502-13.752-16.357-10.494-20.916c3.256-4.633,22.291,11.434,23.737,23.157
			c1.521,11.726-1.015,17.515-1.015,17.515s20.047,20.988,45.306,22.725c25.258,1.738,34.449,20.266,51.963,22.219
			c17.515,2.027,38.646-19.83,42.627-24.1s9.985-1.736,3.039,9.48c-7.021,11.291-11.726,19.252-4.271,26.776
			c7.455,7.526,28.008-6.224,33.726-24.967c5.791-18.818-12.229-30.035-12.229-30.035s-17.73,15.487-36.982,2.533
			c-19.25-13.027-2.531-52.035,4.488-57.029c7.018-4.994,8.25,1.229,3.473,13.533c-4.703,12.229-10.492,29.237,1.23,34.737
			c11.797,5.5,26.055-5.5,32.061-28.008c6.008-22.508,0.508-46.752-18.309-49.285c-18.744-2.461-31.482,12.738-39.228,26.777
			c-7.744,13.969-14.979,12.014-14.979,12.014s-7.744,20.988-29.021,13.97c-21.205-7.021-10.639-47.115-7.02-52.977
			c3.69-5.861,7.381-4.777,3.69,13.966c-3.69,18.818,2.604,30.541,15.56,29.021c13.026-1.52,24.752-41.252,20.555-57.969
			c-3.908-15.344-25.838-22.943-42.049,1.447C1104.644,852.176,1096.032,872.872,1075.696,877.866z"/>
		<path fill="#FFFFFF" d="M1026.12,935.618c13.172,8.033,27.142-8.104,23.088-23.735c-4.271-16.502-13.752-16.357-10.494-20.916
			c3.256-4.633,22.291,11.434,23.738,23.157c1.52,11.726-1.014,17.515-1.014,17.515s20.047,20.988,45.305,22.725
			c25.258,1.738,34.449,20.266,51.963,22.219c17.514,2.027,38.646-19.83,42.627-24.1s9.986-1.736,3.039,9.48
			c-7.02,11.291-11.725,19.252-4.27,26.776c2.315,2.315,5.86,2.604,9.916,1.304c-7.816-6.441-4.271-18.164,2.678-30.613
			c5.137-9.119,1.447-15.633-2.678-19.467c-6.806,2.17-15.922,2.678-25.404-3.691c-13.098-8.83-9.553-29.672-3.762-43.713
			c-5.502,4.414-14.041,10.061-21.931,10.639c-6.297,0.506-10.565-1.375-13.315-3.475c-4.631,3.836-11.508,6.44-21.277,3.258
			c-14.039-4.633-14.186-23.811-11.58-37.924l0,0c-4.559,15.127-31.047,36.91-55.074,26.633
			c-23.955-10.203-38.213-9.77-30.252,17.008C1030.753,919.842,1029.161,928.816,1026.12,935.618z M1190.767,897.624
			c-4.125,11.507-7.164,25.041,3.039,29.89c7.094,3.33,15.127,0.58,21.641-6.947c-4.127,1.447-8.901,1.881-13.896-0.434
			C1193.95,916.586,1191.419,906.236,1190.767,897.624z M1121.362,861.945c-0.071,0.65-0.217,1.303-0.36,2.025
			c-3.69,18.817,2.604,30.541,15.56,29.021c3.979-0.435,7.744-4.414,11.074-10.131c-3.476,2.099-7.238,3.399-11.002,2.896
			C1127.368,884.598,1123.171,870.991,1121.362,861.945z"/>
		<path fill="#C6EEDB" d="M1136.271,612.044c42.699,8.974,86.268,28.369,108.123,68.753c-13.678-8.54-25.039-12.81-25.039-12.81
			c57.027,43.351,48.488,116.881,14.98,181.582c-2.101-2.969-4.705-5.574-7.672-7.889c-4.994-3.764-10.783-6.08-17.008-6.875
			c-14.256-1.955-26.345,2.822-36.187,11c0.146-5.572-0.217-10.639-1.229-14.619c-1.736-6.73-5.355-12.738-10.566-17.369
			c-8.322-7.455-19.541-10.205-30.396-7.816c-12.446,2.678-22.289,11.436-29.166,21.855c-0.723,1.086-1.52,2.244-2.242,3.475
			c2.39-14.186,4.414-30.035,5.5-46.969c4.486-70.854,52.47-87.86,52.47-87.86c-52.541,7.382-60.646,43.134-67.521,87.86
			c-2.461,16.355-3.691,20.553-3.691,20.553s-40.674-1.014-83.662,8.758c14.258-27.141,25.98-55.871,39.516-83.373
			C1066.433,681.665,1094.222,639.907,1136.271,612.044z"/>
		<path fill="#FFFFFF" d="M1136.271,612.044c42.699,8.974,86.268,28.369,108.123,68.753
			c-30.686-36.186-78.957-51.963-122.162-58.549C1126.718,618.702,1131.421,615.229,1136.271,612.044z M1111.229,816.929
			c-3.473,3.186-6.514,6.947-9.119,10.928c-0.723,1.086-1.52,2.244-2.242,3.475c2.389-14.186,4.414-30.035,5.5-46.969
			c1.447-23.449,7.672-40.964,15.342-53.918C1118.612,735.221,1112.099,759.105,1111.229,816.929z"/>
		<path fill="#9DDFBF" d="M1100.519,739.636c-4.994,13.026-7.672,28.225-10.203,44.727c-2.461,16.355-3.691,20.553-3.691,20.553
			s-40.674-1.014-83.662,8.758c14.258-27.141,25.98-55.871,39.517-83.373c1.953-3.98,3.979-7.889,5.935-11.797
			c2.244,7.237,5.5,13.026,9.914,16.355C1072.149,745.136,1088.794,742.965,1100.519,739.636z M1218.413,837.048
			c25.764-50.371,40.963-95.531,19.612-151.112c35.75,44.002,25.547,107.183-3.69,163.634
			C1230.282,843.995,1224.854,839.581,1218.413,837.048z"/>
		<path fill="#6BBF96" d="M640.595,964.784c-50.008-25.401-101.029-49.43-184.982,26.056
			c-134.031,120.426-256.992,47.549-269.006-108.052c-12.014-155.673,91.984-278.054,91.984-278.054s17.152,41.903,94.301,33.652
			c-4.632,8.612-9.625,17.008-15.343,25.041c-5.429,7.744-11.507,14.908-18.021,21.784l-13.679,14.112l16.862,10.06
			c19.033,11.362,40.383,21.712,60.502,30.976c36.692,16.79,74.832,31.481,113.551,43.423
			c-79.826,51.457-93.576,121.658-160.014,141.416c-28.659,8.467-50.443-9.771-58.982-19.396c0,0,49.141,80.115,136.06-28.517
			c29.237-36.619,62.095-67.232,98.498-88.799c7.599,2.17,15.271,4.27,22.94,6.295c56.885,14.838,97.195,27.141,150.027,24.318
			C810.091,927.008,817.472,1054.527,640.595,964.784z M952.663,376.763c226.308-49.864,450.949,4.27,521.945,252.506
			c0,0-135.045-105.012-289.994-57.029c-187.369,58.042-164.066,302.225-275.521,298.027c-40.672-1.592-56.666-48.562-61.877-69.621
			l4.416-1.086c55.438-13.967,103.854-36.91,144.672-69.694c-1.158,2.895-2.244,5.862-3.33,8.757
			c-18.601,49.285-37.488,99.439-60.357,106.967c-41.977,13.822-53.771-23.738-59.995-29.238
			c0.071,0.145,17.513,52.034,62.601,37.198c26.705-8.83,46.318-60.864,65.569-111.96c2.967-7.743,5.862-15.487,8.758-23.014
			c27.72-24.823,51.603-54.713,71.285-89.958c11.58-20.698,21.856-45.812,28.806-68.536l3.184-10.494l-8.756-6.514
			c-7.889-6.007-15.85-12.375-23.594-18.889c43.352-68.826,86.34-86.412,86.34-86.412c-40.238,13.823-70.924,43.206-95.097,79.03
			c-6.226-5.356-12.306-10.784-18.312-16.14c-34.737-31.192-68.394-65.424-97.052-102.406c-0.508-0.651-1.015-1.375-1.592-2.026
			C954.182,389.718,953.458,383.277,952.663,376.763z M712.025,979.911c-17.008-5.428-37.345-14.909-58.403-24.752
			c-14.765-6.875-29.963-13.967-44.799-19.975c-29.744-12.087-55.727-12.447-78.088-7.164
			c-22.437,5.354-41.252,16.428-56.379,27.139c-9.554,6.804-20.119,15.416-31.119,24.39c-24.535,20.047-51.385,41.977-76.498,51.168
			c-37.127,13.678-72.732,0-72.806,0c78.017,15.485,119.774-44.291,174.922-83.373c15.851-11.289,35.824-22.941,59.707-28.658
			c24.026-5.646,52.035-5.283,83.808,7.598c14.619,5.936,30.18,13.172,45.305,20.266c20.771,9.697,40.891,19.033,57.246,24.244
			c18.383,5.861,31.771,6.514,35.102-3.979c9.842-30.976-14.476-70.998-14.547-71.144
			C757.042,912.316,789.825,1004.661,712.025,979.911z"/>
		<path fill="#37A46F" d="M640.595,964.784c-50.008-25.401-101.029-49.43-184.982,26.056
			c-134.031,120.426-256.992,47.549-269.006-108.052c-0.217-2.604-0.36-5.139-0.506-7.672c6.875,36.041,20.336,77.871,46.97,104.649
			c55.002,55.291,125.999,51.021,197.503-18.166c71.503-69.26,138.447-68.971,187.009-50.227s135.985,38.574,87.715-92.273
			C810.091,927.008,817.472,1054.527,640.595,964.784z M1102.69,580.635c121.006-66.51,274.361-62.747,371.918,48.634
			c0,0-135.045-105.012-289.994-57.029c-187.369,58.042-164.066,302.225-275.521,298.027c-40.672-1.592-56.666-48.562-61.877-69.621
			l4.416-1.086c55.438-13.967,103.854-36.91,144.672-69.694c-1.158,2.895-2.244,5.862-3.33,8.757
			c-18.601,49.285-37.488,99.439-60.357,106.967c-41.977,13.822-53.771-23.738-59.995-29.238
			c0.071,0.145,17.513,52.034,62.601,37.198c26.705-8.83,46.318-60.864,65.569-111.96c2.967-7.743,5.862-15.487,8.758-23.014
			c27.72-24.823,51.603-54.713,71.285-89.958C1089.013,613.998,1096.538,597.207,1102.69,580.635z M712.025,979.911
			c-17.008-5.428-37.345-14.909-58.403-24.752c-14.765-6.875-29.963-13.967-44.799-19.975
			c-29.744-12.087-55.727-12.447-78.088-7.164c-22.437,5.354-41.252,16.428-56.379,27.139c-9.554,6.804-20.119,15.416-31.119,24.39
			c-24.535,20.047-51.385,41.977-76.498,51.168c-37.127,13.678-72.732,0-72.806,0c78.017,15.485,119.774-44.291,174.922-83.373
			c15.851-11.289,35.824-22.941,59.707-28.658c24.026-5.646,52.035-5.283,83.808,7.598c14.619,5.936,30.18,13.172,45.305,20.266
			c20.771,9.697,40.891,19.033,57.246,24.244c18.383,5.861,31.771,6.514,35.102-3.979c9.842-30.976-14.476-70.998-14.547-71.144
			C757.042,912.316,789.825,1004.661,712.025,979.911z"/>
		<path fill="#C6EEDB" d="M328.165,930.555c23.088,8.973,58.912,5.137,105.664-53.269c29.237-36.619,62.095-67.232,98.498-88.799
			c6.875,1.953,13.75,3.908,20.697,5.717c-71.502,24.027-116.59,101.031-153.355,124.625
			C364.206,941.698,340.251,936.561,328.165,930.555z M1158.923,441.898c-0.217,0.145-37.056,30.902-69.043,90.03
			c-3.185-2.532-6.297-5.138-9.408-7.743C1112.604,473.162,1144.521,450.293,1158.923,441.898z"/>
		<path fill="#00954C" d="M537.319,1433.467c0,0,193.307,24.243,359.688,21.565l28.151-144.672
			c-5.5-17.586-14.547-39.66-29.237-64.556c-9.913-16.936-18.382-35.028-25.546-54.495c-9.336-7.962-24.535-20.339-32.785-20.988
			c-3.98-0.289-9.119,0.938-12.955,1.953c-9.264,2.315-18.311,4.851-27.718,6.946c-37.562,8.396-86.483,10.351-125.276-5.209
			c-0.36-0.146-0.724-0.291-1.084-0.436C585.52,1280.545,588.776,1309.348,537.319,1433.467z M931.602,1277.504
			c0,0,41.978,90.393,68.103,171.376c102.189-12.086,174.779-45.159,215.742-68.971c-57.971-115.938-126.217-228.84-181.147-344.996
			c-15.054,15.488-31.479,29.095-48.923,40.818c-2.969,6.366-7.961,11.723-13.752,15.922c-10.348,7.453-23.738,11.724-36.33,14.256
			c10.928,0.869,16.719-4.414,28.66-6.006c39.152-5.14,48.2,33.437,21.277,56.088c-5.14,4.343-11.58,8.25-18.672,11.437
			c1.084,4.053,1.375,8.539,0.795,12.52c-1.736,11.941-10.06,20.336-20.771,25.186c-17.803,7.961-37.488,8.396-54.713,0.869
			C906.415,1235.602,921.327,1254.129,931.602,1277.504z M1000.935,921.941c-4.92-30.83-7.236-60.43-9.842-87.57
			c-11.363,17.877-25.477,34.449-44.583,43.713c-11.94,5.863-24.75,8.25-37.994,7.744c-33.292-1.303-54.569-25.475-67.017-53.555
			c-6.514,9.77-15.197,17.803-25.258,23.592c15.85,42.555,28.442,92.854,32.062,149.521c3.835-14.258,11.435-26.416,27.862-30.83
			c4.994-1.375,10.205-2.316,15.344-2.822c10.854-1.158,23.377-0.436,32.276,6.295
			C952.446,963.846,978.788,945.391,1000.935,921.941z M807.194,860.209c-8.756,3.545-18.236,5.5-28.151,5.5
			c-6.079,0-12.015-0.726-17.731-2.101c9.265,14.112,17.297,28.805,23.377,43.785c10.276,25.475,17.947,60.432-1.014,83.95
			c-10.133,12.521-24.391,18.095-40.456,19.181c3.112,3.039,6.515,5.789,10.06,8.25c3.619-0.146,7.237-0.361,10.711-0.58
			c24.824-1.521,49.721-4.992,74.037-10.42c-0.361-5.574-0.58-11.22-0.869-16.937C835.202,942.713,821.598,896.611,807.194,860.209z
			"/>
		<path fill="#00793D" d="M537.319,1433.467c0,0,84.604,10.565,190.049,17.006c-153.717-25.619-135.189-7.89-110.438-138.084
			c12.665-66.873,53.628-138.812,53.628-138.812C585.52,1280.545,588.776,1309.348,537.319,1433.467z M1141.915,1240.885
			c0,0,32.93,96.326,38.502,125.491c2.895,15.345-10.06,30.83-23.015,42.121c23.595-9.771,42.987-19.83,58.043-28.588
			C1192.069,1333.23,1167.028,1286.984,1141.915,1240.885z"/>
		<path fill="#6BBF96" d="M922.193,1301.387c-5.646-15.922-13.967-34.738-26.271-55.58c-9.914-16.937-18.383-35.029-25.547-54.496
			c-9.336-7.961-24.535-20.338-32.785-20.988c-3.979-0.289-9.119,0.939-12.955,1.953c-9.264,2.316-18.31,4.85-27.717,6.947
			c-20.627,4.633-44.799,7.311-68.754,6.151C751.686,1249.641,813.273,1307.611,922.193,1301.387z M867.554,869.4
			c-15.488-2.316-31.266-0.436-44.365,6.295c12.521,38.068,22.001,81.637,25.113,129.691c3.834-14.258,11.435-26.416,27.862-30.83
			c4.994-1.375,10.205-2.316,15.343-2.822c10.855-1.158,23.377-0.436,32.277,6.295c28.66-14.184,55.004-32.639,77.148-56.088
			c-2.459-15.416-4.27-30.541-5.789-45.16c-17.659,3.619-38.214,9.697-66.148,7.383c-6.658,1.375-13.533,1.953-20.48,1.664
			C892.014,885.176,878.481,878.952,867.554,869.4z M814.866,880.834c-8.901,6.803-15.922,16.43-19.541,29.237
			c-2.242,7.744-2.314,16.574-1.953,26.127c2.172,11.217,2.75,22.726,0.435,33.437c-1.158,15.776-5.573,32.133-18.815,47.766
			c21.131-1.736,42.336-4.994,63.035-9.625c-0.361-5.574-0.58-11.219-0.869-16.936C835.564,951.396,826.157,913.329,814.866,880.834
			z M941.518,1299.577c88.005-11.58,138.085-65.932,160.884-131.5c-23.811-44.146-46.898-88.438-68.104-133.164
			c-15.054,15.488-31.48,29.095-48.924,40.818c-2.969,6.366-7.961,11.723-13.752,15.922c-10.348,7.453-23.737,11.724-36.33,14.256
			c10.929,0.869,16.72-4.414,28.66-6.006c39.153-5.14,48.201,33.437,21.277,56.088c-5.139,4.343-11.58,8.25-18.672,11.437
			c1.084,4.053,1.375,8.539,0.795,12.52c-1.736,11.941-10.059,20.336-20.771,25.186c-17.803,7.961-37.487,8.396-54.713,0.869
			c14.547,29.601,29.457,48.127,39.732,71.502C931.602,1277.504,935.438,1285.756,941.518,1299.577z"/>
		<path fill="#C6EEDB" d="M1027.423,1019.426c-10.929-26.414-18.092-52.902-23.158-78.668
			c-21.713,21.061-46.248,37.416-71.36,50.082c0.58,1.809,0.94,3.69,1.086,5.645c0.435,4.85-0.289,9.625-2.101,14.186
			c-3.834,9.336-12.881,17.297-22.94,21.783c1.446,5.572,0.36,6.73,8.976,6.586c5.354-0.145,11.145-1.229,16.428-2.098
			c14.402-2.389,32.568-5.791,44.654,4.775c4.196,3.69,6.803,8.395,8.104,13.532
			C1002.382,1043.961,1015.845,1031.874,1027.423,1019.426z M783.239,1032.236c14.691,3.98,30.252,5.428,45.16,5.428
			c7.961-0.072,15.705-4.342,16.574-12.811c0.071-0.939,0.217-1.881,0.289-2.895
			C822.321,1027.387,800.972,1030.428,783.239,1032.236z"/>
		<path fill="#C6EEDB" d="M762.542,352.88c33.074-21.711,89.09-55.581,151.834-74.832c20.556,46.824,30.758,152.487,27.646,201.338
			c-20.047-21.566-53.557-51.601-89.307-77.438c9.914-29.89,25.039-65.858,47.477-105.735c0,0-38.938,42.844-61.951,95.676
			C811.972,374.085,785.267,359.466,762.542,352.88z"/>
		<path fill="#6BBF96" d="M914.376,278.048c20.556,46.824,30.758,152.487,27.646,201.338
			c-20.047-21.566-53.557-51.601-89.307-77.438c9.914-29.89,25.039-65.858,47.477-105.735
			C914.376,278.048,914.376,278.048,914.376,278.048z"/>
		<path fill="#FFFFFF" d="M762.542,352.88c33.074-21.711,89.09-55.581,151.834-74.832c-62.383,30.686-102.188,61.154-126.649,84.53
			C778.971,358.453,770.503,355.196,762.542,352.88z"/>
		<path fill="#C6EEDB" d="M359.357,409.982c0,0,58.549-12.376,125.349-12.086c-4.486,8.612-8.901,17.225-13.244,25.837
			c-6.08,11.362-11.797,22.869-17.08,34.521c-3.111,6.44-6.15,12.81-9.19,19.251c-17.369-18.673-41.903-39.081-75.339-58.55
			c0,0,37.055,33.653,68.246,73.747c-7.671,16.646-15.125,33.363-22.436,50.082C393.228,504.499,369.78,456.589,359.357,409.982z"/>
		<path fill="#6BBF96" d="M370.792,419.752c5.862,5.5,39.01,36.548,67.307,72.95c-7.671,16.646-15.125,33.363-22.436,50.082
			c-22.436-38.285-45.883-86.195-56.306-132.803c0,0,3.908,2.822,10.494,8.974C370.142,419.173,370.431,419.462,370.792,419.752z"/>
		<path fill="#FFFFFF" d="M359.357,409.982c0,0,58.549-12.376,125.349-12.086c-2.461,4.776-4.922,9.479-7.383,14.185
			C410.958,404.843,359.357,409.982,359.357,409.982z"/>
		<path fill="#FFDA19" d="M657.892,1356.969c32.568,0.434,107.473-33.291,134.757-53.556c-16.429,2.244-34.883,0.796-45.087-4.993
			c22.146-9.697,65.641-31.627,80.693-48.853c-1.664,18.815-7.236,24.463-12.81,34.16c59.633-17.226,118.761-48.416,146.552-90.609
			c-27.574,22.652-72.082,43.642-112.32,52.107c3.619-9.554,6.006-20.845,6.006-31.048
			c-57.029,37.922-103.564,55.582-171.015,67.017c15.704,18.89,33.87,24.752,45.015,30.976
			C729.684,1312.17,714.921,1332.071,657.892,1356.969z M1278.554,1235.529c29.6,14.764,85.254,43.93,104.578,69.477
			c-2.969-0.434-24.463-0.36-24.463,1.521c40.021,27.719,86.195,76.426,97.123,125.131
			c-27.139-49.068-87.424-111.233-142.789-124.771c8.25-5.571,19.322-12.086,29.166-13.895
			C1342.169,1292.991,1330.3,1269.979,1278.554,1235.529z M1235.058,1087.602c24.174,2.025,70.563,14.764,83.951,35.75
			c-14.691,3.908-24.244,9.481-37.125,17.371c36.98,5.934,71.793,28.151,97.049,55.146c0.869-12.446,1.377-30.83-2.678-42.627
			c58.26,17.804,129.69,78.668,154.877,133.742c-30.035-78.957-85.037-142.5-168.193-166.236
			c1.158,12.304,3.258,23.955,1.375,36.259c-10.348-8.033-27.861-18.166-41.033-18.601c4.053-5.283,16.355-11.726,22.869-12.303
			C1346.149,1126.104,1322.05,1087.602,1235.058,1087.602z M904.245,463.826c-64.267,70.49-92.058,189.47-68.971,294.843
			c4.343-12.665,11.001-30.034,23.016-40.238c-0.941,47.332,28.949,92.492,70.199,114.492c-5.211,1.592-17.803,5.863-33.508,0.289
			c11.146,24.535,39.515,42.121,60.938,55.293c29.092,17.875,17.369,63.614-38.793,21.133c16.065,29.238,30.758,56.16-21.64,50.154
			c2.533,1.809,9.408,7.887,12.086,12.014c13.461,2.17,25.113,10.131,26.416,24.678c0.435,4.85-0.289,9.625-2.1,14.186
			c-3.834,9.336-12.881,17.297-22.941,21.783c1.447,5.572,0.361,6.73,8.976,6.586c5.354-0.145,11.146-1.23,16.429-2.098
			c14.401-2.389,32.567-5.791,44.653,4.775c7.235,6.369,9.408,15.487,8.033,24.463c-3.979,25.619-65.567,36.836-89.019,31.77
			c-26.342-5.717-55.22-19.684-55.22-19.684c5.862,15.053,8.831,23.809,18.383,36.619c-34.667,8.104-64.701,5.717-97.269-8.467
			c12.955-18.89,26.127-30.978,48.996-36.261c-56.449-28.226-121.078-26.633-182.738-25.476
			c18.962-29.02,46.316-46.896,85.616-51.745c-46.102-24.894-128.025-33.652-177.167-21.927
			c39.588,0.578,80.045,6.658,116.014,23.377c-24.969,10.854-68.971,54.785-78.741,79.535c46.897-8.974,111.381-4.56,155.021,15.271
			c-10.854,8.685-24.461,26.487-28.297,39.731c64.772,19.902,131.211,21.205,195.766-0.291c-6.73-6.295-10.275-9.985-13.532-18.744
			c20.335,5.72,41.903,3.98,62.239-0.723c18.961-4.342,51.021-8.395,53.41,13.75c1.158,10.855-3.764,23.449-15.271,33.074
			c-2.896,2.461-6.151,4.705-9.771,6.875c-2.461,9.988-5.5,16.936-5.5,16.936s36.33-26.633,52.324-17.657
			c15.994,9.045,18.963,41.106,14.765,74.106c-4.271,33.002-27.283,69.551-27.283,69.551c3.547,1.447,18.672,0.146,36.401-6.803
			c-2.604,28.658-11.869,54.277-31.916,80.404c-6.658-15.922-14.475-36.549-33.941-59.779
			c7.527,59.49-19.033,131.066-62.602,172.027c-20.627-35.896-24.97-53.482-23.232-93.144
			c-50.587,53.339-63.688,116.593-63.325,178.761c10.64-37.707,22.942-62.82,53.701-92.492
			c8.829,22.074,31.987,56.668,49.284,73.022c23.955-37.271,64.193-115.795,67.234-152.776c7.67,13.172,11.506,25.401,16.355,41.469
			c44.002-48.488,68.102-126.723,59.199-187.225c-6.295,5.139-21.059,16.428-28.152,18.527c0,0,12.015-35.029,11.869-69.044
			c-0.289-37.344,29.674-62.965,52.254-21.204c2.388-18.816,7.525-53.121,33.146-42.918c38.865,15.416,69.623,109.5,69.623,109.282
			c0,0-9.408-3.041-18.383-6.297c-8.976-3.187-8.976-3.187-8.976-3.187c18.166,77.224,84.459,162.041,112.467,182.523
			c0.072-8.396-1.014-23.883,2.39-30.904c25.258,40.963,35.97,85.906,34.521,133.816c24.824-57.246,6.731-133.742-34.304-179.482
			c-8.612,17.297-7.672,25.982-12.449,41.978c-20.265-19.902-57.824-76.138-62.237-112.974c6.438,1.304,18.961,4.271,24.821,4.271
			c-23.229-46.174-78.522-136.351-72.371-184.549c2.604-20.337,40.383-19.83,40.383-19.83c-34.666-1.882-73.313-41.324-22.94-53.556
			c39.731-9.625,115.36-3.907,115.723-3.69c-7.816-12.229-13.969-17.151-25.764-25.258c17.223-6.515,72.153-16.718,100.885-7.31
			c-6.875,8.902-15.56,25.619-17.515,33.363c36.549,0.723,127.158-25.33,144.601-57.535c-36.91,16.066-72.299,23.664-98.209,28.73
			c0.506-5.789,18.021-28.658,25.475-36.764c-54.713-11.074-138.014,3.256-187.227,32.782c2.969,2.316,14.258,10.351,15.633,12.884
			c0,0-49.285,14.112-78.379,0.797c-29.021-13.392-2.967-60.433-2.967-60.433s-27.646,11.94-43.496-9.407
			c-19.83-26.777,51.891-96.763,73.965-111.091c0.797,6.947,3.764,36.619,1.229,41.104
			c50.806-31.407,111.453-102.405,122.021-161.605c-25.838,8.612-66.51,17.515-92.854,8.54
			c19.976-26.198,53.699-72.299,61.299-103.202c9.408,6.73,11.797,13.751,16.065,23.883c13.244-37.778,35.752-99.512,35.752-139.026
			c-9.408,19.613-32.205,75.194-45.305,88.438c-3.764-4.56-22.291-35.245-27.574-35.752
			c-16.936,75.412-40.455,125.349-88.656,184.114c30.107,5.428,61.734,6.297,91.263,9.264
			c-11.217,31.627-33.726,56.957-50.01,69.695c-0.867-12.16-7.524-36.693-13.242-46.971c0,0-58.551,52.904-84.748,108.992
			c-26.199,56.088-44.51,49.431-53.481,39.517c-9.047-9.988-21.133-31.193-21.133-31.193
			c-20.988,52.109-86.922,25.113-121.948-20.77c5.065-0.869,22.508-9.844,26.705-12.447
			c-82.215-40.096-88.728-88.729-81.778-175.069c-5.936,1.882-16.141,6.297-26.271,13.679
			C868.64,683.982,845.335,561.529,904.245,463.826z M1028.437,547.562c7.311,27.718,12.955,151.401,0.797,174.271
			c10.566-5.139,38.355-15.705,47.33-23.015c4.561,17.441,7.455,55.22,4.705,68.971c-8.105-6.947-21.205-16.718-29.746-20.047
			c15.994,36.766,29.021,65.207,28.154,104.65c6.729-20.119,9.479-41.76,9.045-57.609c3.112,3.258,6.514,7.455,8.469,11.436
			c7.889-44.436,8.9-106.459-4.922-149.811c-5.645,9.988-19.396,23.449-28.297,27.574
			C1063.972,683.982,1060.569,585.917,1028.437,547.562z M585.157,828.438c44.364-4.053,90.176,1.447,129.475,23.666
			c-2.678,0.65-22.508,6.586-22.508,7.961c65.279,26.633,112.828,45.738,175.719,92.707
			c-80.116-35.607-144.889-61.66-231.734-76.859c10.275-8.756,21.35-14.98,33.362-21.131
			C669.472,854.78,644.214,836.398,585.157,828.438z"/>
		<path fill="#FFED92" d="M1000.14,965.002c28.08,22.291,37.994,4.344,45.521-23.593c9.119,28.44,22.002,38.791,50.371,24.604
			c-10.133,34.666,4.27,39.154,36.838,43.063c-23.449,15.486-37.707,32.277-10.713,53.771c-35.39,1.015-31.554,30.687-23.23,54.136
			c-16.646-18.892-48.488-35.392-57.029,0c-4.85-36.188-22.869-25.476-47.112-10.931c5.354-20.914-1.955-34.229-8.106-38.354
			c0.146-0.508,0.289-1.015,0.361-1.521c1.014-6.805,0.072-13.68-3.619-19.323c8.688-16.14-3.473-34.521-23.447-42.339
			C985.083,1004.445,1011.284,1003.504,1000.14,965.002z"/>
	</g>
</g>
</svg>
