<?xml version="1.0" encoding="utf-8"?>
<!-- Generator: Adobe Illustrator 16.0.0, SVG Export Plug-In . SVG Version: 6.00 Build 0)  -->
<!DOCTYPE svg PUBLIC "-//W3C//DTD SVG 1.1//EN" "http://www.w3.org/Graphics/SVG/1.1/DTD/svg11.dtd">
<svg version="1.1" id="Layer_1" xmlns="http://www.w3.org/2000/svg" xmlns:xlink="http://www.w3.org/1999/xlink" x="0px" y="0px"
	 width="1700px" height="1700px" viewBox="0 0 1700 1700" enable-background="new 0 0 1700 1700" xml:space="preserve">
<g id="Layer_x0020_1">
</g>
<g>
	<g id="_324058312">
		<path d="M664.281,727.387c8.047-40.535,27.811-74.749,53.996-96.921c-7.603,13.646-12.162,31.037-12.162,49.979
			c0,36.281,16.705,66.875,39.51,76.287c-28.287,3.245-56.215-0.496-79.123-7.636c-62.244,43.865-47.095,88.842-47.095,88.842
			c29.705-25.11,55.894-28.681,81.892-23.248c38.16,7.96,31.891,29.227,31.891,72.375v437.803
			c-0.752,35.685-16.415,75.277-43.797,99.465c28.697,69.814,96.699,79.789,98.749,119.025c2.392,46.018-64.519,53.09-63.253-6.781
			c-29.057,29.723-8.797,83.086,46,80.488c29.757-1.4,59.701-27.227,60.605-64.533c1.965-80.797-43.797-111.406-43.797-183.85
			V870.052c0-52.049-2.922-45.744,35.871-67.523c33.909-19.047,52.014-55.071,32.131-112.979
			c-17.202,26.511-39.168,43.899-62.827,54.489c13.289-14.45,21.881-37.563,21.881-63.595c0-36.299-16.705-66.909-39.511-76.32
			c27.536-3.725,57.293,3.945,85.974,26.612c23.008-31.071,61.768-89.012,66.566-126.607c0,0-29.125,15.44-40.092,19.302
			c-10.982,3.859-35.342-2.46-68.155-14.554c-32.83-12.095-118.922-12.556-167.845,64.909
			c-48.922,77.467-32.421,81.821-73.707,121.726c-41.287,39.886-62.092,53.141-62.092,53.141S593.05,750.311,664.281,727.387z"/>
		<path fill="#4D4D4D" d="M899.717,534.38c-3.074,1.385-6.201,2.683-9.258,3.775c-20.225,7.105-59.428-7.533-78.729-14.639
			c-19.916-7.346-48.461-5.773-68.65-0.649c-34.352,8.712-61.716,29.329-80.607,59.256c-10.729,16.997-20.754,34.353-29.381,52.526
			c-5.039,10.607-9.43,21.745-14.912,32.097c-8.285,15.612-19.098,27.759-31.756,39.988c-8.522,8.216-17.217,16.381-26.117,24.307
			c0,0,48.904-17.985,80.403-81.479c18.413-37.103,41.081-71.812,69.215-92.565c20.021-14.774,53.808-23.727,79.788-20.189
			C852.213,545.313,874.061,564.633,899.717,534.38z M845.466,724.328c-21.693,22.259-48.904,37.375-80.488,44.532
			c-31.687,7.191-66.293,5.842-97.826-2.631c0,0,49.059,23.829,104.316,14.331C826.71,771.064,845.466,724.328,845.466,724.328z"/>
		<ellipse fill="#F6C000" cx="760.434" cy="680.445" rx="47.128" ry="72.085"/>
		<path fill="#DBA500" d="M760.434,625.203c43.883,0,43.883,110.468,0,110.468C716.568,735.671,716.568,625.203,760.434,625.203z"/>
		<ellipse fill="#BC8700" cx="760.434" cy="680.445" rx="13.426" ry="38.383"/>
		<path fill="#FFFFFF" d="M762.808,620.232c6.695-3.245,16.21,2.597,21.249,13.051c5.039,10.438,3.707,21.522-2.987,24.77
			c-6.697,3.229-16.211-2.614-21.25-13.068C754.762,634.548,756.113,623.462,762.808,620.232z M784.229,664.576
			c4.372-2.118,9.633-0.271,11.733,4.101c2.119,4.373,0.291,9.635-4.082,11.753c-4.391,2.101-9.65,0.272-11.752-4.101
			C778.01,671.956,779.838,666.694,784.229,664.576z"/>
	</g>
	<path d="M1435.5,1400.864l0.377,1.793c4.424,20.959,8.967,41.885,13.715,62.775c5.689,25.076,11.514,51.074,18.979,75.672
		c8.645,28.543,20.721,84.844-12.453,103.174c-1.963,1.092-4.047,1.998-6.199,2.682c-12.691,4.115-29.652,1.621-44.359,3.007
		c-2.494,0.223-4.988,0.461-7.482,0.631c-13.613,0.957-28.51-4.799-35.871-2.392c-35.326,11.529-65.184-13.477-55.328-50.545
		c2.973-11.172,7.637-17.662,13.803-26.938c6.389-9.617,6.012-16.826,3.912-28.201c-1.59-8.576-4.307-17.457-6.953-25.76
		c-3.604-11.291-7.584-22.496-11.701-33.617c-4.475-12.076-9.139-24.068-13.904-36.024c-29.705,6.629-59.922,11.719-90.07,15.868
		c-19.609,2.699-38.98,4.802-58.676,6.646c-2.629-12.486-5.277-24.99-7.789-37.51c-5.072,0.188-10.129,0.375-15.201,0.461
		c-3.879,21.352-7.533,42.721-11.189,64.106c-3.502,20.617-6.969,41.234-10.506,61.836c-2.066,12.06-3.963,24.854-6.678,36.76
		c-6.439,28.234-44.754,38.673-69.916,38.673c-10.232,0-19.68-0.429-30.217-0.119c-5.143,0.154-10.402,0.205-15.527,0
		c-10.59-0.428-14.195-5.467-22.82-3.861c-4.596,0.871-9.498,0.224-14.025-0.733c-11.17-2.357-19.336-12.146-23.742-22.154
		c-4.971-11.309-5.91-24.238-2.699-36.162c4.287-15.92,20.584-25.195,34.063-32.559c24.803-13.527,19.523-9.377,23.109-36.931
		c2.271-17.438,4.477-34.897,6.682-52.354c1.076-8.592,2.15-17.185,3.211-25.775c-10.078-1.623-20.021-3.758-30.029-5.791
		c10.025-57.088,19.984-114.19,29.893-171.295c-32.268-10.164-71.094-16.963-103.121-2.408
		c-23.334,10.591-27.725,23.504-39.426,44.002c-39.731-66.737-45.196-128.983-42.721-206.243c0.393-12.386,1.264-24.58,2.322-36.896
		c-11.205-5.961-21.983-12.793-32.199-20.463c-29.926-22.479-30.814-16.74,4.477-29.262c3.725-1.314,7.191-3.246,10.146-5.91
		c4.68-4.219,8.182-10.881,6.371-17.287c-0.701-2.527-2.033-4.578-4.031-6.268c-29.604-24.925,27.725-28.938,67.199-66.228
		c32.883-31.037,38.196-17.424,75.348-40.877c14.945-9.445,24.939-23.998,31.156-40.361c13.922-36.642,33.02-76.611,63.646-102.695
		c-14.281-4.629-28.596-9.155-42.895-13.614c-43.336-13.494-85.92-32.729-123.551-58.23c-18.481-12.521-32.608-24.067-47.76-40.278
		c2.578-11.735,5.381-22.377,9.086-33.873c7.277-22.462,16.127-44.6,25.742-66.14c14.897-33.36,32.012-66.089,50.75-97.946
		c-29.723-50.699-50.972-94.752-63.629-152.711c19.524-8.488,32.694-12.641,54.372-15.715c42.67-6.063,83.598-2.768,125.943,3.331
		c54.916-63.287,120.459-117.386,192.338-160.313c26.408-15.783,53.877-30.217,82.043-42.602
		c18.945-8.336,36.76-14.469,56.234-20.959c-0.342,29.244,0.324,54.166,4.148,83.547c6.219,47.641,17.715,92.94,35.633,137.522
		c7.432-0.871,14.861-1.588,22.24-2.169c25.965-2.016,49.383-1.964,75.211-0.733c0,48.323-3.074,90.96-16.313,138.003
		c27.793,43.883,53.105,87.561,75.502,134.518c9.975,20.892,18.533,40.945,26.629,62.57c-16.107,12.162-31.516,22.582-48.768,33.224
		c-39.016,24.085-79.855,45.95-120.854,66.448c-11.957,5.979-24.035,11.786-36.195,17.406
		c80.711,35.152,146.1,101.602,170.32,187.846c39.629,141.01,89.918,296.879,121.502,434.865c7.48,32.659,13.75,65.68,18.857,98.801
		c4.715,30.541,7.773,60.912,11.104,91.625c-27.416-29.295-42.346-48.75-79.275-68.035
		C1565.936,1415.247,1468.793,1386.327,1435.5,1400.864z"/>
	<path fill="#C6EEDB" d="M1367.311,583.028c-31.293,32.046-112.518,102.234-222.949,101.397
		c-143.023-1.076-186.002-85.665-186.002-85.665s13.018,4.766,15.816,5.262c2.818,0.495,2.818,0.495,2.818,0.495
		s-30.133-26.307-44.412-85.631c5.244-5.466,10.506-10.915,15.783-16.348c22.514-23.18,45.045-46.616,66.67-70.648
		c1.314-1.471,2.646-2.955,3.996-4.441l73.777,95.896l109.1-102.541c22.838,24.513,46,48.803,69.402,72.75
		c12.385,12.692,24.889,25.315,37.598,37.699c10.266,9.977,20.754,20.037,31.652,29.313
		C1349.357,568.049,1358.291,575.581,1367.311,583.028z"/>
	<path fill="#9DDFBF" d="M950.604,500.251c21.764-22.444,43.523-45.13,64.434-68.359c1.314-1.47,2.646-2.955,3.996-4.441
		l17.168,22.291L950.604,500.251z M1092.809,523.347l109.102-102.541c22.838,24.512,46,48.802,69.4,72.75
		c12.385,12.691,24.891,25.314,37.6,37.699c10.266,9.976,20.754,20.036,31.65,29.313c8.797,7.48,17.73,15.015,26.75,22.462
		c-101.551-45.146-172.063-127.771-172.063-127.771L1092.809,523.347z"/>
	<path fill="#FFFFFF" d="M1258.125,659.862c-32.764,14.604-71.078,24.889-113.766,24.563
		c-143.023-1.076-186.002-85.665-186.002-85.665s13.018,4.766,15.818,5.262c2.816,0.495,2.816,0.495,2.816,0.495
		s-30.131-26.307-44.412-85.631c5.244-5.466,10.506-10.915,15.783-16.348l2.238-2.289
		C979.83,653.149,1111.822,693.034,1258.125,659.862z"/>
	<path fill="#C6EEDB" d="M846.166,262.441c0,0,49.264-21.42,149.567-6.953c-5.604,6.799-11.104,13.717-16.449,20.721
		c-5.5,7.175-10.932,14.417-16.313,21.729c-29.605-16.297-64.639-29.262-103.979-32.541c0,0,42.313,10.197,94.359,45.779
		c-18.328,25.52-35.906,51.842-52.373,78.813C882.566,358.61,856.176,308.186,846.166,262.441z"/>
	<path fill="#FFFFFF" d="M846.166,262.441c0,0,49.264-21.42,149.567-6.953c-2.596,3.16-5.176,6.338-7.736,9.532
		C919.584,249.612,846.166,262.441,846.166,262.441z"/>
	<path fill="#6BBF96" d="M858.994,265.396c0,0,42.313,10.197,94.359,45.779c-18.328,25.52-35.906,51.842-52.373,78.813
		c-18.414-31.379-44.805-81.805-54.815-127.549C846.166,262.441,853.016,264.815,858.994,265.396z"/>
	<path fill="#C6EEDB" d="M1458.168,250.467c0,0-93.625-4.492-173.721,25.298c20.156,10.54,43.916,27.04,68.891,52.919
		c25.4-23.623,56.967-48.204,95.828-71.247c0,0-42.807,35.803-84.965,83.017c30.166,34.112,46.805,63.441,55.977,85.869
		C1433.828,399.095,1458.168,338.232,1458.168,250.467z"/>
	<path fill="#FFFFFF" d="M1458.168,250.467c0,0-93.625-4.492-173.721,25.298c6.389,3.349,13.17,7.294,20.207,11.958
		C1333.592,275.424,1386.324,257.316,1458.168,250.467z"/>
	<path fill="#6BBF96" d="M1449.166,257.437c0,0-42.807,35.803-84.965,83.017c30.166,34.112,46.805,63.441,55.977,85.869
		c13.648-27.228,37.99-88.09,37.99-175.854C1458.168,250.467,1453.779,254.241,1449.166,257.437z"/>
	<path d="M1164.107,480.71c11.24-5.723,44.445-23.214,67.455-26.032c28.049-3.416,38.332,6.851,27.621,9.821
		c-6.303,1.742-16.895,3.416-29.928,6.815c6.014,6.952,9.926,17.201,10.182,28.646c0.461,20.959-11.6,37.955-26.922,37.955
		c-15.32,0-28.115-16.996-28.576-37.955c-0.104-4.476,0.375-8.763,1.314-12.742c-7.738,3.006-13.324,4.782-17.492,5.619
		C1153.773,495.674,1152.064,486.859,1164.107,480.71z"/>
	
		<ellipse transform="matrix(-0.9908 0.1351 -0.1351 -0.9908 2479.3218 855.4929)" fill="#FFFFFF" cx="1210.625" cy="511.896" rx="8.263" ry="11.814"/>
	<path d="M1066.178,486.058c-10.914-5.724-43.232-23.231-64.449-26.033c-25.879-3.433-33.924,6.833-23.828,9.806
		c5.928,1.742,15.748,3.416,27.996,6.815c-4.561,6.952-6.832,17.218-5.619,28.646c2.203,20.978,15.271,37.955,29.176,37.955
		s23.385-16.979,21.164-37.955c-0.479-4.458-1.453-8.745-2.803-12.743c7.396,3.023,12.691,4.783,16.57,5.639
		C1077.436,501.021,1077.879,492.189,1066.178,486.058z"/>
	
		<ellipse transform="matrix(-0.9943 0.1062 -0.1062 -0.9943 2102.8594 925.0865)" fill="#FFFFFF" cx="1026.802" cy="518.526" rx="7.302" ry="11.814"/>
	<path d="M1072.037,565.622c-6.645,5.877,15.732,19.729,24.666,22.36s16.449-11.444,24.342-19.234
		C1139.613,550.438,1086.18,553.137,1072.037,565.622z"/>
	<path fill="#00954C" d="M1168.668,740.181c0,0,105-31.003,215.006-86.006c109.988-54.985,156.998-90.499,156.998-90.499
		s-27.689-74.05-89.404-171.499c-4.852,14.193-10.559,27.979-17.133,41.132l-3.281,6.543c6.305,20.446,5.568,32.079,5.568,32.079
		s-53.498-97.399-112.498-151.702c-59-54.304-94.258-65.047-94.258-65.047s15.545,0,39.902,9.479l9.43-3.52
		c26.066-9.687,53.875-16.193,81.787-20.361c-41.305-102.797-40.125-201.102-40.125-201.102s-188.99,62.996-328.992,246.01
		C851.666,468.685,823.173,598.181,823.173,598.181s50.495,53.993,157.989,87.509c107.512,33.497,141.01,48.495,141.01,48.495
		s-73.008-36.999-145.008-60.009c-71.998-22.991-130.999-83-130.999-83s24-30.49,90.995-99.501
		c67.012-68.991,82.504-88.994,82.504-88.994l75.006,97.502l107.99-101.5c0,0,104.506,112.995,148.014,149.994
		c43.488,36.999,72.988,59,72.988,59S1284.174,694.676,1168.668,740.181z"/>
	<path fill="#00793D" d="M1168.668,740.181c0,0,105-31.003,215.006-86.006c109.988-54.985,156.998-90.499,156.998-90.499
		c-69.967,17.354-151.941-8.644-215.076-38.007c9.48,9.121,18.072,17.048,25.076,23.01c43.49,36.999,72.99,59,72.99,59
		S1284.174,694.676,1168.668,740.181z M823.174,598.182c0,0,50.494,53.994,157.988,87.509
		c107.512,33.497,141.01,48.495,141.01,48.495s-73.008-36.999-145.006-60.008c-72-22.992-131-83-131-83s20.942-26.597,78.268-86.313
		C879.699,546.185,823.174,598.182,823.174,598.182z"/>
	<path fill="#6BBF96" d="M1320.662,39.68c0,0-188.992,62.996-328.992,246.01C851.668,468.686,823.175,598.182,823.175,598.182
		C995.732,255.487,1127.195,155.868,1320.662,39.68z M1436.422,471.931c0,0-53.498-97.399-112.498-151.702
		s-94.258-65.047-94.258-65.047C1303.324,302.65,1376.809,403.774,1436.422,471.931z M1525.574,528.3
		c-14.146-30.9-38.486-79.566-74.307-136.123c-2.016,5.927-4.186,11.769-6.51,17.524
		C1478.289,456.283,1507.807,495.741,1525.574,528.3z M1345.619,243.292c5.055-0.923,10.109-1.76,15.168-2.512
		c-22.172-55.189-32.098-109.066-36.539-147.141l0,0C1324.248,93.641,1317.33,162.205,1345.619,243.292z M1019.664,402.682
		l75.006,97.502l107.99-101.499l-104.795,74.51L1019.664,402.682z"/>
	<path fill="#F6C000" d="M1104.064,741.804c2.514,30.542,28.102,54.542,59.291,54.542c32.865,0,59.496-26.647,59.496-59.496
		c0-0.308,0-0.614-0.018-0.922l-18.295,5.979c-2.494,20.532-19.984,36.437-41.184,36.437c-18.928,0-34.881-12.658-39.887-29.979
		L1104.064,741.804z"/>
	<path fill="#FFE662" d="M1212.396,739.326l-7.855,2.579c-2.494,20.532-19.986,36.437-41.186,36.437
		c-18.926,0-34.881-12.658-39.885-29.979l-8.695-2.938c2.631,24.581,23.418,43.712,48.684,43.712
		c27.041,0,48.957-21.916,48.957-48.956C1212.414,739.891,1212.414,739.616,1212.396,739.326z"/>
	<path fill="#C6EEDB" d="M1160.111,724.142c0,0-8.014-12.795-23.025-27.844c2.391,0.067,4.799,0.119,7.191,0.137
		c26.887,0.205,53.311-3.758,78.797-11.104C1203.908,701.73,1180.523,718.556,1160.111,724.142z"/>
	<path fill="#FFFFFF" d="M1160.111,724.142c0,0-8.014-12.795-23.025-27.844c2.391,0.067,4.799,0.119,7.191,0.137
		c4.766,0.034,9.514-0.068,14.246-0.29c3.842,6.354,8.865,15.902,10.641,24.888C1166.088,722.278,1163.064,723.339,1160.111,724.142
		z"/>
	<path d="M1140.619,604.568c10.369-4.543,35.137-14.688,63.561-21.096c37.564-8.474,33.002-19.218,33.227-22.359
		c0.441-6.577,16.756,3.896,8.217,16.125c-7.809,11.188-36.316,18.157-50.564,21.01c-14.859,2.974-40.535,13.085-51.773,18.057
		C1131.584,621.464,1130.764,608.907,1140.619,604.568z"/>
	<path fill="#00954C" d="M1014.557,955.698c0.445,6.168,0.891,12.281,1.332,18.313c0.172,2.221,0.326,4.475,0.48,6.729
		c24.717-5.279,49.639-9.549,74.664-12.727c10.795-62.912,32.883-118.324,52.354-158.773c-17.252-4.749-32.096-15.51-42.02-29.979
		c-0.615,3.126-1.246,6.27-1.896,9.378c-6.373,30.935-14.367,62.007-24.889,91.796
		C1061.277,918.067,1040.949,944.393,1014.557,955.698z M1103.963,966.479c70.139-7.857,141.094-7.105,211.129,3.963
		c12.008,1.896,23.965,4.1,35.855,6.611c-58.76-56.337-107.479-119.367-122.799-202.196c-13.051,22.188-37.189,37.085-64.791,37.085
		c-4.102,0-8.115-0.325-12.043-0.957C1134.061,851.348,1114.006,906.88,1103.963,966.479z M1016.709,1086.202
		c-2.596,44.242-8.729,96.717-20.326,163.301c-22.992,132.009-26.99,154.812-26.99,154.812s43.986,8.951,100.748,10.693
		c33.293,1.024,50.75,0.854,59.496,0.528c-14.654-75.397-40.535-221.94-44.77-336.114
		C1062.352,1081.13,1039.309,1083.266,1016.709,1086.202z M1156.643,1451.512c0,0,103.498-9.754,179.494-33.259
		c75.996-23.504,101.498-36.998,101.498-36.998s-1.742-8.028-4.662-21.573c-12.795,5.823-26.066,9.344-35.838,1.963
		c-5.771-4.355-8.934-10.933-9.549-18.056c-1.365-15.51,7.191-37.922,11.516-53.106c0.598-2.084,1.193-4.252,1.758-6.438
		c-4.271,5.381-9.516,9.735-16.143,11.905c-4.234,1.384-8.66,1.726-13.066,1.127c-4.834-0.666-9.311-2.577-12.965-5.823
		c-9.207-8.218-9.396-20.841-7.482-32.08c2.084-12.213,6.629-25.041,10.934-36.64c2.682-7.176,6.234-13.77,10.506-20.123
		c6.678-9.891,14.604-18.737,21.402-28.577c-6.082-30.063-11.684-58.691-15.971-82.025c-23.898-5.09-48.172-8.678-72.119-11.258
		c-68.07-7.293-138.313-6.884-206.705-2.187C1109.549,1228.271,1156.643,1451.512,1156.643,1451.512z"/>
	<path fill="#6BBF96" d="M1029.453,1084.633c-1.947,47.024-6.1,107.188-14.896,160.411c-17.695,107-24.922,151.002-24.922,151.002
		s27.588,9.431,58.521,17.92c-45.729-2.938-78.764-9.651-78.764-9.651s3.998-22.804,26.988-154.812
		c11.6-66.584,17.73-119.059,20.328-163.301C1020.947,1085.655,1025.201,1085.126,1029.453,1084.633z"/>
	<path fill="#00793D" d="M1137.887,820.926c1.846-4.015,3.689-7.908,5.5-11.685c-17.252-4.749-32.096-15.51-42.02-29.979
		c-0.615,3.126-1.246,6.27-1.896,9.378c-6.373,30.935-14.367,62.007-24.889,91.796c-13.307,37.631-33.633,63.955-60.025,75.262
		c0,0,40.176,0.24,64.842-49.365c24.666-49.588,30.492-99.277,30.492-99.277S1119.303,815.921,1137.887,820.926z M1146.377,822.787
		c9.873,1.708,21.727,2.169,35.547,0.119c25.434-3.792,42.105-13.956,52.115-22.633c-2.307-8.269-4.287-16.74-5.893-25.418
		c-13.051,22.188-37.188,37.085-64.791,37.085c-4.1,0-8.113-0.325-12.043-0.957C1149.689,814.794,1148.035,818.723,1146.377,822.787
		z M1263.521,869.948c4.697,18.535,10.283,37.426,16.621,53.551c8.9,22.636,16.449,30.851,23.557,45.232
		c3.793,0.547,7.584,1.111,11.395,1.709c12.008,1.896,23.965,4.1,35.854,6.611C1316.938,944.442,1286.277,909.596,1263.521,869.948z
		 M1329.117,1083.366c1.162,9.174,2.34,19.064,3.535,29.81c5.758,51.858,13.684,95.981,21.607,132.706
		c2.256-7.961,5.107-15.901,7.875-23.35c2.684-7.176,6.234-13.77,10.506-20.123c6.68-9.891,14.604-18.738,21.402-28.578
		c-6.08-30.063-11.684-58.69-15.971-82.024C1361.863,1088.355,1345.463,1085.587,1329.117,1083.366z M1365.928,1295.624
		c12.162,48.375,21.42,77.261,18.191,88.177c-6.15,20.771-109.271,49.725-110.348,50.03c21.111-4.321,42.67-9.479,62.365-15.577
		c75.996-23.504,101.498-36.998,101.498-36.998s-1.742-8.029-4.662-21.574c-12.795,5.824-26.066,9.344-35.838,1.963
		c-5.773-4.354-8.934-10.932-9.549-18.055c-1.367-15.511,7.191-37.923,11.514-53.107c0.598-2.084,1.195-4.252,1.76-6.438
		c-4.271,5.381-9.516,9.736-16.143,11.906c-4.236,1.383-8.66,1.725-13.068,1.127
		C1369.668,1296.803,1367.754,1296.323,1365.928,1295.624z"/>
	<path fill="#6BBF96" d="M1017.273,996.508c1.109,22.614,1.352,46.77,0.223,74.03c62.502-7.721,221.84-22.614,357.639,4.802
		c-2.699-15.527-4.492-27.451-5.004-34.078c-0.752-9.908-1.314-25.656-1.742-44.242
		C1293.143,978.657,1172.289,963.01,1017.273,996.508z"/>
	<path fill="#C6EEDB" d="M1017.273,996.508c1.109,22.614,1.352,46.77,0.223,74.03c3.826-0.479,8.012-0.973,12.539-1.485
		c1.332-39.185,1.107-66.002,1.107-66.002s16.502-6.252,77.244-14.009c37.77-4.815,99.689-8.354,141.146-10.334
		C1184.98,974.217,1106.832,977.153,1017.273,996.508z"/>
	<path fill="#37A46F" d="M1327.033,1067.413c16.229,2.117,32.316,4.73,48.102,7.927c-2.699-15.527-4.492-27.451-5.004-34.078
		c-0.752-9.908-1.314-25.656-1.742-44.242c-16.996-4.15-36.316-8.146-57.84-11.479
		C1315.963,1001.665,1321.309,1025.684,1327.033,1067.413z"/>
	<path fill="#6BBF96" d="M1238.959,731.366c6.883,169.996,154.998,258.119,273.666,365.633
		c74.51,67.507,96.51,136.498,96.51,136.498s-60.998-215.672-99.996-354.493c-30.027-106.863-118.631-161.917-177.598-183.73
		C1300.145,709.621,1260.654,723.851,1238.959,731.366z M1264.377,768.759c28.748,126.402,160.822,232.326,259.504,309.244
		C1412.645,977.614,1316.391,893.557,1264.377,768.759z"/>
	<path fill="#37A46F" d="M1238.959,731.366c6.883,169.996,154.998,258.119,273.666,365.633c3.535,3.212,6.951,6.404,10.248,9.615
		c-20.686-23.998-48.307-51.074-85.238-80.521c-113.746-90.688-140.24-160.773-146.389-187.146
		c-12.094-22.616-21.369-46.035-26.869-70.188c18.225,43.729,41.883,82.452,69.727,118.632
		c-47.145-77.158-54.984-148.063-27.586-181.339C1281.254,716.402,1255.154,725.764,1238.959,731.366z"/>
	<path fill="#C6EEDB" d="M1608.861,1232.694c0.189,0.529,0.273,0.803,0.273,0.803s-60.998-215.672-99.996-354.494
		c-30.027-106.862-118.631-161.917-177.598-183.729c-4.543,2.084-9.24,4.149-14.041,6.2
		c84.229,35.443,149.703,92.72,178.453,191.673C1530.748,1012.924,1567.576,1109.52,1608.861,1232.694z"/>
	<path fill="#37A46F" d="M1630.436,1313.064c17.459,76.287,24.189,138.447,24.189,138.447s-64.021-68.431-201.033-70.324
		l-0.719-3.246c-1.844-8.508-3.688-17.031-5.516-25.537c10.418-5.568,17.746-10.146,25.654-17.767
		c9.412-9.069,9.346-10.043,21.283-16.653c6.047-3.349,12.402-8.644,17.186-13.545c10.982-11.24,18.518-25.127,20.721-40.81
		c1.98-14.16,1.23-29.363,0.375-43.608c-0.58-9.566-1.332-19.148-1.605-28.732c-0.17-6.389-0.289-14.092,1.043-20.36
		c1.896-9.019,3.502-18.209,5.021-27.363C1581.225,1192.091,1615.627,1248.395,1630.436,1313.064z M1405.744,1152.941
		c-3.348-16.772-6.627-33.563-9.805-50.373c-2.443-13.018-4.852-26.051-7.004-39.117c-3.193-19.403-4.305-36.366-4.816-56.026
		c12.914,11.358,26.049,22.461,39.254,33.496l-0.326,12.315c-0.58,21.027-2.031,43.012-6.217,63.629
		C1414.287,1129.419,1410.834,1141.48,1405.744,1152.941z"/>
	<path fill="#329464" d="M1565.424,1399.857c-29.604-10.215-66.771-18.039-111.834-18.67l-0.717-3.246
		c-1.846-8.508-3.689-17.031-5.518-25.537c10.42-5.568,17.748-10.146,25.656-17.767c9.412-9.069,9.344-10.043,21.283-16.653
		c6.047-3.349,12.4-8.644,17.186-13.545c10.982-11.24,18.516-25.127,20.719-40.81c1.982-14.16,1.23-29.363,0.377-43.608
		c-0.582-9.566-1.334-19.148-1.605-28.732c-0.172-6.389-0.291-14.092,1.041-20.36c1.896-9.019,3.502-18.209,5.021-27.363
		C1549.623,1241.286,1560.316,1347.091,1565.424,1399.857z M1405.744,1152.941c-3.348-16.772-6.627-33.563-9.805-50.373
		c-2.443-13.018-4.852-26.051-7.004-39.117c-3.193-19.403-4.305-36.366-4.816-56.026c12.914,11.358,26.049,22.461,39.254,33.496
		l-0.326,12.315c-0.58,21.027-2.031,43.012-6.217,63.629C1414.287,1129.419,1410.834,1141.48,1405.744,1152.941z"/>
	<path fill="#C6EEDB" d="M1438.627,1053.661c-0.939,34.949-4.271,73.281-18.619,105.617c5.824-4.135,12.127-5.74,17.627-6.936
		c-18.311,19.797-51.5,50.44-60.879,75.621c-11.99,32.25-15.732,51.909-2.988,53.651c12.742,1.761,19.832-13.17,26.955-31.174
		c7.141-17.986,20.566-11,19.113,15.135c-1.469,26.136-18.227,59.634-16.723,76.629c1.504,17.013,30.014,10.504,46.258-33.002
		c16.244-43.489,27.74-48.752,19.49-28.748c-8.252,20.002-10.984,33.259-14.109,41.013c-3.127,7.737-5.262,12.366-5.262,12.366
		s18.498-12.623,29.994-31.873c11.514-19.252,13.889-33.26,16.877-35.121c3.008-1.879,0.137,14.623-3.244,23.744
		c-3.365,9.121-6.373,13.75-6.373,13.75s25.998-14.383,29.996-42.875c3.998-28.51-4.748-71.248,0-93.744
		c1.861-8.813,4.406-23.623,6.816-38.397c-6.938-7.09-14.094-14.008-21.404-20.756
		C1481.57,1089.604,1460.133,1071.6,1438.627,1053.661z"/>
	<path fill="#FFFFFF" d="M1438.627,1053.661c-0.939,34.949-4.271,73.281-18.619,105.617c21.83-26.238,27.365-62.947,27.809-97.947
		C1444.758,1058.77,1441.703,1056.208,1438.627,1053.661z"/>
	<path fill="#9DDFBF" d="M1368.078,1278.524c1.299,1.709,3.178,2.75,5.689,3.092c12.742,1.76,19.83-13.17,26.953-31.174
		c7.141-17.986,20.566-11,19.115,15.135c-1.471,26.135-18.227,59.633-16.725,76.629c1.504,17.012,30.014,10.504,46.258-33.002
		c16.244-43.49,27.74-48.752,19.49-28.748c-8.25,20.002-10.982,33.258-14.109,41.012c-3.125,7.738-5.262,12.367-5.262,12.367
		s18.5-12.623,29.996-31.873c11.514-19.252,13.889-33.26,16.877-35.121c3.006-1.879,0.137,14.623-3.246,23.744
		c-3.365,9.121-6.371,13.75-6.371,13.75s25.998-14.383,29.994-42.875c3.998-28.51-4.748-71.248,0-93.744
		c1.863-8.813,4.408-23.623,6.816-38.397c-6.936-7.091-14.092-14.009-21.404-20.756c-6.098-5.619-12.264-11.154-18.498-16.619
		c1.727,6.936,2.697,14.059,2.629,21.231c-0.512,49.502-69.861,84.146-90.498,120.322
		C1382.65,1256.507,1380.344,1274.579,1368.078,1278.524z"/>
	<path fill="#6BBF96" d="M1092.773,736.695c-1.092,7.909-10.813,76.015-32.896,138.55c-23.506,66.498-66.586,88.994-127.293,55.992
		c-37.152-20.188-60.008-21.658-72.137-19.764l0,0c50.307-47.504,84.041,15.545,128.676,8.524c31.736-5.006,49.246-55.5,49.246-55.5
		s-31.498,48.496-55.26,46.002c-23.742-2.512-38.246-17.766-55.498-23.01s-22.734-3.996-22.734-3.996s45.25-4.271,66.242-59.495
		c14.059-36.981,34.797-81.121,69.777-104.112C1063.479,725.218,1081.791,732.083,1092.773,736.695z"/>
	<path fill="#37A46F" d="M1092.773,736.695c-1.092,7.909-10.813,76.015-32.896,138.55c-23.506,66.498-66.586,88.994-127.293,55.992
		c-37.152-20.188-60.008-21.658-72.137-19.764l0,0l0.084-0.068c61.17-15.834,78.115,33.736,126.115,23.898
		c57.377-11.752,69.965-73.502,84.006-138.959c5.672-26.442,4.459-49.641,1.008-67.627
		C1080.219,731.622,1087.377,734.425,1092.773,736.695z"/>
	<path fill="#C6EEDB" d="M860.447,911.475c50.307-47.504,84.043,15.545,128.676,8.524c13.307-2.102,24.121-12.215,32.184-23.231
		c-3.998,8.969-12.521,22.6-28.527,26.731c-24.512,6.306-29.26,0-68.258-16.071C885.521,891.37,860.447,911.475,860.447,911.475z
		 M925.135,886.758c-15.305-4.39-20.26-3.263-20.26-3.263s45.25-4.271,66.244-59.494c14.059-36.982,34.795-81.121,69.777-104.113
		c5.5,1.299,10.762,2.682,15.715,4.117c-58.025,29.584-73.963,109.101-91.215,133.304
		C952.227,875.79,934.666,883.665,925.135,886.758z"/>
	<path fill="#C6EEDB" d="M846.969,928.026c39.767,4.885,105.412,1.504,97.673,64.91c8.455-13.221,6.971-27.023,3.229-37.699
		c18.738,6.695,35.924,8.234,51.383,5.193c2.064,28.901,3.467,56.199,3.262,84.774c-8.25,4.697-20.07,10.488-35.068,15.322
		c8.268-9.035,10.916-15.031,10.916-15.031c-69.096,23.691-146.1,8.404-203.512-34.711c5.74-2.03,11.121-5.071,15.768-9.258
		c9.515-8.557,14.877-21.625,11.308-34.316c-1.707-6.047-5.039-10.897-9.396-14.569c0.154-0.119,0.309-0.24,0.461-0.342l9.447,1.399
		c13.477,2.017,26.852-1.194,36.281-11.479C842.544,938.055,845.244,933.202,846.969,928.026z"/>
	<path fill="#9DDFBF" d="M999.252,960.432c2.066,28.901,3.467,56.198,3.262,84.774c-8.25,4.697-20.068,10.488-35.066,15.322
		c8.268-9.035,10.916-15.031,10.916-15.031c-69.098,23.691-146.101,8.404-203.513-34.711c5.74-2.031,11.121-5.072,15.767-9.258
		c6.047-5.449,10.438-12.725,11.891-20.566v0.019c-0.462,7.823-3.98,21.317-3.98,21.317s34.762,23.795,115.762,10.472
		C995.271,999.444,999.252,960.432,999.252,960.432z M796.203,956.314c-1.127-1.332-2.34-2.563-3.672-3.672
		c0.153-0.119,0.308-0.24,0.461-0.342l4.852,0.717L796.203,956.314z"/>
	<path fill="#FFFFFF" d="M846.969,928.026c31.072,3.809,77.943,2.596,93.267,32.113c-4.373-4.117-11.939-9.226-24.957-13.869
		c-27.74-9.908-73.161-8.371-71.265-7.09c0.785,0.529,1.351-2.152,1.076-6.457C845.807,931.204,846.44,929.633,846.969,928.026z"/>
	<path d="M804.417,957.288l9.465,1.418c13.459,2.017,26.834-1.196,36.265-11.479c11.376-12.418,12.861-30.678,8.13-46.224
		c-5.211-17.114-17.61-31.174-34.196-38.006l-10.403-4.271c-1.146-1.605-2.392-3.107-3.741-4.525
		c-11.991-12.471-29.534-15.955-46.154-13.512c-47.932,7.055-77.09,49.725-76.389,96.443c0.768,52.098,22.068,79.668,75.809,81.905
		c13.955,0.58,28.287-2.989,38.844-12.504c9.532-8.576,14.878-21.625,11.325-34.317c-1.708-6.063-5.039-10.914-9.412-14.587
		C804.128,957.526,804.265,957.407,804.417,957.288z"/>
	<path fill="#C6EEDB" d="M766.242,857.309c39.391-5.808,48.819,34.438,23.949,35.395c-10.676,0.41-29.586,1.775-41.748,6.304
		c-17.73,6.594-8.422,13.733,5.756,11.41c14.179-2.322,47.914-8.354,48.648,14.502c0.734,22.838-23.352,27.264-41.115,26.836
		c-32.027-0.771-20.618,11.272-1.109,12.896c6.746,0.564,14.451,0.615,20.959,1.351c27.672,3.125,18.295,37.75-17.681,36.264
		c-44.31-1.844-59.067-21.813-59.717-65.371C703.637,899.689,725.707,863.271,766.242,857.309z M816.359,942.085
		c4.987-12.69,3.059-27.229-5.106-38.159c5.534-6.525,9.565-17.015,6.423-25.386C852.488,892.872,853.545,947.637,816.359,942.085z"
		/>
	<path fill="#9DDFBF" d="M801.583,934.04c-5.143,14.945-24.77,18.072-39.853,17.713c-32.028-0.77-20.618,11.273-1.11,12.896
		c6.748,0.564,14.451,0.615,20.959,1.35c27.672,3.125,18.295,37.75-17.68,36.265c-40.535-1.689-56.335-18.552-59.238-54.779
		c7.48-9.943,23.691-15.836,50.612-17.971C782.912,927.344,795.844,931.067,801.583,934.04z"/>
	<path fill="#FFFFFF" d="M766.242,857.309c27.383-4.031,40.278,14.194,37.256,26c-6.082-6.92-20.226-17.476-47.709-12.367
		c-15.17,2.818-30.576,14.535-43.814,27.928C721.66,877.669,740.106,861.151,766.242,857.309z M817.35,893.128
		c6.474,3.384,14.621,8.746,19.694,16.074c3.193,4.629,5.244,9.668,6.474,14.297c2.751-15.766-6.132-36.844-25.845-44.959
		C819.399,883.104,818.973,888.294,817.35,893.128z"/>
	<path fill="#C6EEDB" d="M1308.139,1442.135c12.557,31.53,28.818,74.834,32.971,97.348c7.002,38.006-11.754,38.998-18.004,62.502
		c-6.563,24.685,11.615,37.512,33.889,30.252c0,0-9.531-15.818-7.037-31.824c1.314-8.368,6.543-14.127,12.195-17.61
		c5.143-3.16,10.625-4.425,13.838-4.064c3.482,0.393,1.107,2.527-3.707,6.9c-4.527,4.082-11.41,10.096-11.055,19.354
		c1.266,32.164,23.625,30.047,42.756,28.236c0,0-9.002-19.371-2.75-35.496s18.875-16.125,20.617-12.504
		c1.76,3.639-11.496,6.885-11.871,25.385c-0.375,18.498,16.996,26.117,34.762,20.377c17.748-5.756,22.6-36.008,7.738-84.998
		c-9.875-32.592-24.41-99.006-33.055-139.848c-25.707,10.129-52.305,18.858-78.678,27.022
		C1329.988,1436.495,1319.09,1439.452,1308.139,1442.135z"/>
	<path fill="#9DDFBF" d="M1321.754,1612.249c0.324,17.816,16.313,26.17,35.238,19.986c0,0-7.105-11.787-7.43-25.299
		C1342.27,1614.128,1330.826,1619.219,1321.754,1612.249z M1361.863,1611.602c3.943,25.229,24.41,23.299,42.123,21.625
		c0,0-6.971-14.998-4.373-29.604C1390.217,1611.173,1373.324,1618.757,1361.863,1611.602z M1410.271,1615.118
		c2.322,15.203,18.242,21.131,34.471,15.869c17.748-5.756,22.6-36.008,7.738-84.998c-9.875-32.592-24.41-99.006-33.055-139.848
		c-25.707,10.129-52.305,18.858-78.678,27.022c-6.389,1.966-12.828,3.81-19.285,5.552c11.018,2.393,22.41,4.44,33.668,5.825
		c56.506,6.97,55.328,60.009,68.908,106.504c9.463,32.336,12.365,48,8.676,56.882
		C1429.436,1615.803,1417.496,1622.241,1410.271,1615.118z"/>
	<path fill="#C6EEDB" d="M996.809,1424.538c-5.566,45.045-12.965,102.646-13.785,106.762c-3.074,15.511-48.854,25.502-53.84,44.002
		c-4.971,18.5,5.396,35.752,13.699,37.494c8.301,1.76,8.73,0,8.73,0s-10.488-9.242-11.359-26.988
		c-0.871-17.748,16.535-28.254,32.113-29.5c15.578-1.248,12.57,3.5,5.209,7.002c-7.379,3.486-28.629,6.22-25.279,28.236
		c3.348,22.035,18.533,25.264,24.648,25.504c6.115,0.256,14.33,0,14.33,0s-20.549-31.242-1.383-45.25
		c19.166-13.99,34.145-10.744,32.438-7.004c-1.689,3.758-29.895,12.76-29.125,27.264c0.785,14.484,7.961,25.109,28.799,25.109
		c20.857,0,49.656-8.559,53.535-25.623c3.264-14.297,18.26-107.17,27.895-160.141c-11.309-0.103-22.633-0.461-33.771-0.804
		C1045.322,1429.852,1020.928,1427.784,996.809,1424.538z"/>
	<path fill="#9DDFBF" d="M928.191,1589.941c1.539,12.146,8.662,21.592,14.691,22.854c8.301,1.761,8.729,0,8.729,0
		s-9.498-8.368-11.172-24.479C936.869,1589.821,932.463,1590.915,928.191,1589.941z M952.26,1591.29
		c0.02,0.086,0.02,0.17,0.035,0.257c3.35,22.034,18.533,25.264,24.648,25.504c6.115,0.256,14.332,0,14.332,0
		s-8.523-12.982-9.463-25.966c-4.254,1.861-9.943,3.621-16.707,3.931C958.836,1595.305,954.824,1593.512,952.26,1591.29z
		 M993.223,1592.247c0.836,14.398,8.045,24.922,28.781,24.922c20.857,0,49.656-8.559,53.535-25.623
		c3.264-14.297,18.26-107.17,27.895-160.141c-11.309-0.102-22.633-0.461-33.771-0.803c-18.242-0.563-36.504-1.861-54.678-3.844
		c9.463,7.039,18.277,12.727,25.656,16.041c38.998,17.489,19.473,92.991,13.494,118.989s-29.824,34.763-45.369,36.248
		C1000.602,1598.841,995.869,1595.544,993.223,1592.247z"/>
	<path fill="#37A46F" d="M811.969,1052.023c-6.953,80.813,4.253,169.81,25.093,204.826c0,0,34.813-60.998,145.5-26.152
		c9.156-54.764,16.33-110.106,18.33-165.606c-21.559,10.659-43.729,15.717-66.756,22.12c18.756-16.604,17.953-15.938-8.797-14.245
		C886.598,1075.391,847.516,1067.96,811.969,1052.023z"/>
	<path fill="#329464" d="M982.563,1230.696c9.156-54.764,16.33-110.106,18.33-165.606c-21.559,10.66-43.729,15.717-66.756,22.121
		c18.756-16.604,17.953-15.938-8.797-14.246c-6.984,0.428-13.973,0.547-20.959,0.342
		C909.574,1123.766,929.389,1184.456,982.563,1230.696z"/>
	<g id="_324241464">
		<path d="M624.703,1052.383c-0.017-1.505,0.086-8.115-0.769-9.345c-0.461-0.649-2.34-1.453-3.022-1.744
			c-7.652-3.192-12.334-11.067-11.479-19.336c1.076-10.315,10.385-17.885,20.703-16.809c10.315,1.061,17.884,10.387,16.808,20.688
			c-0.308,3.074-1.314,6.063-3.107,8.607c0.152,2.324,6.354,9.225,7.789,10.865l17.115,19.422c1.316,1.502,4.391,4.867,6.611,5.039
			c2.869,0.205,9.787-4.562,12.127-6.064c8.403-5.397,16.826-10.813,25.248-16.229c1.264-0.803,6.608-3.758,8.25-5.09
			c-1.095-2.801-1.674-5.842-1.453-8.865c0-0.068,0-0.119,0.018-0.17c1.061-10.318,10.387-17.885,20.688-16.826
			c10.316,1.076,17.883,10.387,16.824,20.703c-0.018,0.051-0.018,0.119-0.033,0.17c-0.394,3.008-1.59,5.859-3.229,8.389
			c1.332,1.64,5.961,5.619,7.037,6.679c7.123,7.021,14.264,14.024,21.387,21.045c1.98,1.946,7.789,8.012,10.625,8.403
			c2.221,0.308,5.894-2.375,7.517-3.569l20.72-15.51c1.727-1.3,9.225-6.8,9.856-9.037c-1.248-2.853-1.623-5.979-1.299-9.07
			c1.06-10.299,10.386-17.867,20.687-16.807c10.317,1.076,17.885,10.385,16.827,20.701c-0.855,8.268-7.039,14.998-15.188,16.569
			c-0.732,0.137-2.733,0.547-3.313,1.094c-1.095,1.023-2.357,7.517-2.664,8.984l-6.133,28.629
			c16.928-5.074,34.368-8.182,51.45-8.934c28.92-1.264,65.9,4.424,83.838,29.926c9.648,13.734,11.291,29.928,8.352,45.967
			c2.051-0.426,4.168-0.647,6.338-0.647c14.195,0,26.188,9.412,30.098,22.325h-34.846h-25.332h-25.641H922.49h-26.135h-23.111
			h-28.647h-11.119h-9.104h-34.367h-7.909h-19.9h-10.556h-30.405h-3.313h-16.86h-8.813h-32.575H657.3h-12.436h-27.621l-1.299-4.885
			l-0.086-0.326l-5.362-20.225l0,0l-1.435-5.414l0,0l-2.666-10.027l-2.664-10.078l-0.051-0.188l-7.518-28.338l-15.971-60.18
			c1.229-0.138,2.459-0.205,3.724-0.205c17.354,0,31.431,14.059,31.431,31.43c0,1.418-0.103,2.836-0.291,4.203
			c3.502,0.563,6.816,1.691,9.84,3.297L624.703,1052.383z"/>
		<path fill="#F6C000" d="M750.117,1129.692l28.492,2.938c0.819-0.547,1.623-1.075,2.442-1.623
			c9.549-6.233,19.832-11.819,30.576-16.618L630.902,1095.7v0.086c5.022,4.441,8.609,10.453,9.994,17.271
			c5.277,1.008,10.095,3.33,14.092,6.627c5.672-8.183,15.135-13.529,25.845-13.529c11.001,0,20.67,5.654,26.289,14.195
			c4.853-3.058,10.591-4.816,16.74-4.816C734.828,1115.532,744.496,1121.151,750.117,1129.692z M833.27,1105.983l6.851-31.977
			c2.271-10.677,3.041-13.238,10.692-14.707c5.434-1.043,9.754-5.519,10.354-11.31c0.732-7.055-4.393-13.375-11.463-14.108
			c-7.056-0.72-13.375,4.405-14.109,11.479c-0.205,2.084,0.018,4.201,0.854,6.098c2.426,5.416-4.354,10.593-11.785,16.179
			l-20.722,15.51c-11.427,8.557-15.407,5.004-25.931-5.363c-8.813-8.662-12.588-12.385-21.401-21.045
			c-6.235-6.133-11.444-8.713-7.875-14.178c1.265-1.965,2.084-3.98,2.34-5.945c0.733-7.072-4.392-13.375-11.462-14.108
			c-7.055-0.734-13.374,4.391-14.109,11.463c-0.137,1.979,0.239,4.114,1.076,6.285c2.375,6.098-3.244,7.551-10.623,12.28
			c-10.388,6.681-14.846,9.549-25.248,16.229c-12.418,7.977-17.029,10.641-26.478-0.068l-17.099-19.422
			c-6.133-6.986-11.701-13.443-8.233-18.26c1.213-1.676,1.862-3.691,2.084-5.791c0.735-7.056-4.405-13.375-11.461-14.109
			c-7.071-0.734-13.375,4.406-14.108,11.461c-0.599,5.773,2.715,11.053,7.822,13.188c7.191,3.006,7.414,5.67,7.465,16.586
			l0.172,38.059l190.869,19.746C825.549,1108.665,829.392,1107.266,833.27,1105.983z"/>
		<path fill="#FFFF00" d="M755.805,1130.273l5.448,0.563l11.718-20.446l-5.586-0.58L755.805,1130.273z M620.57,1013.555
			c-0.701,2.461-0.633,5.295,1.776,7.705c5.619,5.618,14.758,2.631,12.194,10.129c-2.578,7.498-4.201,9.565,11.054,27.33
			c15.254,17.766,23.623,30.661,37.254,21.897c13.615-8.779,52.578-28.303,50.135-37.238c-2.612-9.514,10.574-10.932,9.155-0.989
			c-0.358,2.563-0.188,5.772,2.461,8.864c2.355,2.769,7.668,8.455,13.75,14.775l-20.379,35.445l26.545,2.75l11.515-20.345
			c1.399,1.365,2.715,2.632,3.911,3.759l-9.736,17.184l5.638,0.582l8.114-14.145c0.528,0.442,0.99,0.838,1.383,1.127
			c6.508,4.868,12.76,5.62,25.879-6.371c13.119-12.009,31.994-26.888,32.369-33.002c0.377-6.134,6.885-4.886,10.25-7.636
			c1.879-1.521,3.381-5.362,1.945-9.207c-1.742-1.229-3.809-2.051-6.082-2.288c-7.056-0.72-13.375,4.405-14.108,11.479
			c-0.205,2.084,0.018,4.201,0.854,6.098c2.426,5.416-4.355,10.593-11.786,16.179l-20.722,15.51
			c-11.426,8.557-15.406,5.004-25.93-5.363c-8.814-8.662-12.589-12.385-21.402-21.045c-6.234-6.133-11.444-8.713-7.875-14.178
			c1.265-1.965,2.084-3.98,2.34-5.945c0.734-7.072-4.391-13.375-11.461-14.108c-7.056-0.734-13.375,4.391-14.109,11.463
			c-0.137,1.979,0.238,4.114,1.076,6.285c2.374,6.098-3.245,7.551-10.624,12.28c-10.388,6.681-14.845,9.549-25.248,16.229
			c-12.418,7.977-17.028,10.641-26.478-0.068l-17.098-19.422c-6.133-6.986-11.701-13.443-8.234-18.26
			c1.213-1.676,1.862-3.691,2.084-5.791c0.735-7.056-4.405-13.375-11.461-14.109C626.205,1010.771,623.044,1011.71,620.57,1013.555z
			 M761.699,1109.23l-26.597-2.752l-5.519,9.565c8.559,1.591,15.92,6.629,20.531,13.648L761.699,1109.23z"/>
		<path d="M260.333,1254.714l-18.5-0.889v-45.078l-8.353-0.614c-60.64-4.373-110.349-11.941-154.146-58.302
			c-25.145-26.629-42.347-59.768-50.459-95.434c-19.867-87.152,13.102-178.162,93.23-222.146l365.548-128.334
			c43.183,162.871,86.382,325.746,129.582,488.619h440.433v78.646h-15.201v304.121l15.201,1.93v82.539l-460.504,23.949
			l-355.332-87.289v-71.623l18.5-1.399V1254.714L260.333,1254.714z"/>
		<polygon fill="#CCCCCC" points="610.08,1208.149 1042.078,1208.149 1042.078,1255.567 610.08,1255.567 		"/>
		<path fill="#FFFFFF" d="M814.395,1208.149h20.36l-8.576,47.418h-20.514L814.395,1208.149z M868.527,1208.149h119.195
			l-8.883,47.418H860.293C863.113,1239.374,865.844,1223.523,868.527,1208.149z"/>
		<polygon fill="#808080" points="257.449,1208.149 594.486,1208.149 594.486,1255.227 257.449,1238.964 		"/>
		<polygon fill="#CCCCCC" points="610.08,1667.441 1042.078,1644.96 1042.078,1593.563 610.08,1613.497 		"/>
		<path fill="#FFFFFF" d="M731.001,1661.139l22.121-1.146l9.686-53.535l-21.916,1.009L731.001,1661.139z M790.975,1658.028
			l113.542-5.91l9.873-52.662l-114.259,5.277C796.833,1623.969,793.76,1641.854,790.975,1658.028z"/>
		<polygon fill="#808080" points="257.449,1584.2 594.486,1667.014 594.486,1614.214 257.449,1543.991 		"/>
		<path fill="#663300" d="M1026.873,1578.649v-96.563l-416.793,17.696v98.101L1026.873,1578.649z M1026.873,1476.091v-108.979
			l-416.793,10.353v116.344L1026.873,1476.091z M1026.873,1361.132v-89.95H610.08v100.303L1026.873,1361.132z"/>
		<path fill="#4B2500" d="M275.929,1255.464v80.302l318.557,35.395v-100.305L275.929,1255.464z M275.929,1341.778v98.287
			l318.557,53.279v-116.174L275.929,1341.778z M275.929,1446.13v85.785l318.557,66.361v-98.869L275.929,1446.13z"/>
		<path d="M1021.543,1225.571c3.469,0,6.27,2.818,6.27,6.287c0,3.467-2.801,6.285-6.27,6.285c-3.467,0-6.285-2.818-6.285-6.285
			C1015.258,1228.391,1018.078,1225.571,1021.543,1225.571z M571.715,1225.571c2.426,0,4.407,2.818,4.407,6.287
			c0,3.467-1.98,6.285-4.407,6.285c-2.442,0-4.405-2.818-4.405-6.285C567.309,1228.391,569.273,1225.571,571.715,1225.571z
			 M270.703,1219.305c1.965,0,3.57,2.271,3.57,5.09s-1.605,5.09-3.57,5.09c-1.98,0-3.586-2.271-3.586-5.09
			S268.721,1219.305,270.703,1219.305z M629.469,1225.571c3.467,0,6.285,2.818,6.285,6.287c0,3.467-2.817,6.285-6.285,6.285
			c-3.47,0-6.287-2.818-6.287-6.285C623.182,1228.391,626,1225.571,629.469,1225.571z"/>
		<path d="M1021.543,1613.395c3.469,0,6.27,2.818,6.27,6.287c0,3.467-2.801,6.269-6.27,6.269c-3.467,0-6.285-2.802-6.285-6.269
			C1015.258,1616.212,1018.078,1613.395,1021.543,1613.395z M571.715,1630.372c2.426,0,4.407,2.818,4.407,6.287
			c0,3.467-1.98,6.271-4.407,6.271c-2.442,0-4.405-2.804-4.405-6.271C567.309,1633.191,569.273,1630.372,571.715,1630.372z
			 M270.703,1561.757c1.965,0,3.57,2.287,3.57,5.091c0,2.817-1.605,5.106-3.57,5.106c-1.98,0-3.586-2.289-3.586-5.106
			C267.117,1564.044,268.721,1561.757,270.703,1561.757z M629.469,1634.78c3.467,0,6.285,2.818,6.285,6.285
			c0,3.469-2.817,6.287-6.285,6.287c-3.47,0-6.287-2.818-6.287-6.287C623.182,1637.6,626,1634.78,629.469,1634.78z"/>
		<path fill="#CCCCCC" d="M478.142,728.941l121.502,458.129C321.691,1187.872,285.051,823.316,478.142,728.941z"/>
		<path fill="#FFFFFF" d="M505.507,832.079l39.116,147.519l-30.438,194.457c-22.188-7.379-42.021-17.629-59.479-30.166
			L505.507,832.079z M555.66,1021.225l8.112,30.61l-17.918,130.383c-4.168-0.784-8.285-1.674-12.333-2.646L555.66,1021.225z"/>
		<path d="M454.894,769.049c-12.675,10.111-23.932,21.933-33.668,35.223c-35.154,47.982-47.743,111.115-40.277,169.553
			c3.688,28.953,12.35,57.394,26.135,83.152c32.848,61.375,87.373,95.896,152.18,105.633l2.066-11.563l-99.738-373.883
			L454.894,769.049z"/>
		<path fill="#999999" d="M138.457,843.046l-9.977,3.502c-73.298,40.244-102.439,125.207-84.4,204.382
			c7.498,32.934,23.352,63.577,46.6,88.192c40.518,42.892,86.859,49.348,143.93,53.447c-43.574-9.617-79.754-28.799-107.478-53.961
			c-28.853-26.186-48.528-58.846-57.854-94c-9.345-35.17-8.319-72.818,4.252-108.947
			C85.093,902.403,106.447,870.495,138.457,843.046z M431.424,740.197l-47.095,16.535c-27.502,24.99-47.709,56.745-60.521,91.71
			c-26.459,72.154-21.249,157.186,15.135,225.205c28.68,53.568,88.227,105.615,147.773,120.545h41.029
			c-64.962-16.295-119.436-56.078-153.462-119.674c-15.92-29.756-25.981-62.535-30.233-95.998
			C332.726,889.885,362.074,795.712,431.424,740.197z"/>
		<path fill="#808080" d="M64.033,1102.842c7.345,13.065,16.262,25.278,26.646,36.28c40.518,42.892,86.859,49.348,143.93,53.447
			c-43.574-9.617-79.754-28.799-107.478-53.961c-12.76-11.58-23.728-24.443-32.797-38.211L64.033,1102.842z M375.977,1077.628
			c34.129,61.783,87.885,100.543,151.771,116.564h-41.029c-57.07-14.314-114.123-62.707-144.016-113.865L375.977,1077.628z"/>
		<path fill="#CCCCCC" d="M85.658,880.044c-15.066,16.382-26.527,35.41-34.353,55.978l23.795-4.715
			c7.347-19.574,18.106-38.621,32.474-56.506L85.658,880.044z M313.527,884.042l35.309-7.004
			c5.227-23.026,13.323-45.231,24.271-65.814l-36.879,8.831c-4.715,9.173-8.849,18.651-12.418,28.389
			C319.574,860.008,316.139,871.913,313.527,884.042z"/>
		<path fill="#663300" d="M354.232,767.288l-177.238,62.229c-30.885,19.559-54.354,42.688-70.957,67.608l201.938-47.01
			c0.751-2.221,1.521-4.424,2.34-6.627C320.496,815.698,335.152,789.769,354.232,767.288z M101.457,904.335
			c-6.936,11.479-12.47,23.281-16.638,35.257c-5.313,15.286-8.421,30.85-9.429,46.358l217.482-37.324
			c-0.514-31.155,3.792-62.348,12.948-91.862L101.457,904.335z M75.1,992.083c-0.478,16.74,1.47,33.377,5.74,49.47
			c2.784,10.436,6.524,20.635,11.224,30.489l220.473-21.66c-11.805-30.403-18.313-62.963-19.508-95.707L75.1,992.083z
			 M94.916,1077.782c9.906,19.045,23.418,36.674,40.277,51.961c8.063,7.346,17.475,14.451,27.689,21.096l210.992-7.293
			c-18.465-17.646-34.487-38.688-47.59-63.149c-4.201-7.875-8.027-15.974-11.444-24.224L94.916,1077.782z M171.97,1156.512
			c36.948,22.104,81.873,37.922,113.475,37.922c24.854,0.221,49.998-0.24,74.562-0.24h94.272
			c-22.496-8.608-43.455-20.311-62.398-35.086c-4.014-3.125-7.926-6.389-11.752-9.787L171.97,1156.512z"/>
		<path fill="#4B2500" d="M100.894,1088.391c9.139,14.998,20.617,28.936,34.3,41.354c8.063,7.347,17.476,14.451,27.688,21.097
			l210.992-7.293c-18.465-17.646-34.486-38.689-47.59-63.15c-2.203-4.135-4.304-8.336-6.303-12.59L100.894,1088.391z
			 M171.97,1156.512c36.948,22.104,81.873,37.922,113.475,37.922c24.854,0.221,49.998-0.24,74.562-0.24h94.272
			c-22.496-8.608-43.455-20.311-62.398-35.086c-4.014-3.125-7.926-6.389-11.752-9.787L171.97,1156.512z"/>
		<path fill="#808080" d="M464.529,761.874c-3.297,2.289-6.508,4.681-9.635,7.174l104.369,393.562
			c3.946,0.582,7.926,1.094,11.94,1.504L464.529,761.874z"/>
		<path fill="#663300" d="M447.072,795.73c-5.092,5.363-9.84,11.069-14.229,17.048c-6.438,8.779-12.06,18.123-16.876,27.86
			l75.244,284.032c14.811,8.42,30.936,14.861,48.205,19.269L447.072,795.73z M412.001,849.094
			c-16.791,38.229-22.019,81.889-16.773,122.901c3.468,27.211,11.6,53.961,24.546,78.183c16.04,29.961,37.769,53.362,64.073,70.053
			L412.001,849.094z"/>
		<path fill="#FFFF00" d="M583.912,1058.719c14.006,0,25.383,11.358,25.383,25.383c0,1.299-0.104,2.58-0.291,3.828
			c-6.694,0.237-12.846,2.545-17.832,6.317l-9.412-35.442C582.477,1058.753,583.177,1058.719,583.912,1058.719z"/>
		<path fill="#F6C000" d="M603.66,1088.577c-4.613,0.957-8.865,2.92-12.487,5.67l-8.216-30.969
			c11.786,2.188,20.721,12.521,20.721,24.939L603.66,1088.577z"/>
		<path fill="#FFFF00" d="M610.08,1093.958c11.65,0,21.474,7.857,24.461,18.552c-12.213,0.17-22.752,7.311-27.791,17.627
			c-2.033-0.461-4.117-0.734-6.27-0.804l-7.602-28.645C597.408,1096.521,603.453,1093.958,610.08,1093.958z"/>
		<path fill="#F6C000" d="M630.015,1112.901c-10.249,1.641-18.857,8.217-23.266,17.234c-2.033-0.461-4.117-0.734-6.27-0.804
			l-6.406-24.119c4.066-2.801,9.002-4.424,14.299-4.424C617.529,1100.79,625.557,1105.643,630.015,1112.901z"/>
		<path fill="#FFFF00" d="M635.001,1118.557c6.525,0,12.487,2.477,16.979,6.524c-1.657,3.826-2.579,8.063-2.579,12.504
			c0,5.824,1.588,11.291,4.355,15.971c-4.731,3.656-8.388,8.627-10.438,14.365c-0.12,0.035-0.257,0.086-0.395,0.137
			c-3.553-2.307-7.617-3.895-11.957-4.594c0.068-0.889,0.104-1.795,0.104-2.699c0-12.76-7.603-23.743-18.534-28.664
			C616.792,1124.038,625.266,1118.557,635.001,1118.557z"/>
		<path fill="#F6C000" d="M650.274,1130.153c-0.563,2.375-0.871,4.869-0.871,7.432c0,5.824,1.588,11.291,4.354,15.971
			c-4.73,3.656-8.387,8.627-10.437,14.365c-0.12,0.035-0.257,0.086-0.394,0.137c-3.554-2.307-7.617-3.895-11.957-4.594
			c0.067-0.889,0.104-1.795,0.104-2.699c0-11.121-5.773-20.891-14.469-26.477c4.646-5.33,11.496-8.713,19.131-8.713
			C641.154,1125.575,646.158,1127.268,650.274,1130.153z"/>
		<path fill="#FFFF00" d="M602.104,1135.501c12.862,1.246,22.924,12.076,22.924,25.265c0,0.784-0.035,1.555-0.104,2.305
			c-5.244,0.172-10.146,1.604-14.434,4.031L602.104,1135.501z"/>
		<path fill="#F6C000" d="M620.176,1163.583c-3.468,0.632-6.729,1.845-9.687,3.519l-7.174-27.039
			C613.019,1143.512,620.005,1152.719,620.176,1163.583z"/>
		<path fill="#FFFF00" d="M680.832,1112.2c9.055,0,16.996,4.75,21.489,11.873c-6.099,5.738-9.89,13.869-9.89,22.889
			c0,2.597,0.307,5.125,0.903,7.552c-5.481-4.683-12.604-7.5-20.378-7.5c-5.073,0-9.839,1.196-14.075,3.313
			c-2.187-3.74-3.435-8.098-3.435-12.742C655.451,1123.561,666.809,1112.2,680.832,1112.2z"/>
		<path fill="#F6C000" d="M698.617,1128.225c-3.896,5.227-6.185,11.719-6.185,18.737c0,2.597,0.308,5.125,0.903,7.552
			c-5.481-4.683-12.604-7.5-20.377-7.5c-5.074,0-9.84,1.196-14.076,3.313c-1.485-2.545-2.545-5.363-3.058-8.369
			c2.067-11.94,12.47-21.012,25.007-21.012C687.75,1120.946,694.037,1123.714,698.617,1128.225z"/>
		<path fill="#FFFF00" d="M723.863,1121.579c14.006,0,25.383,11.359,25.383,25.383c0,5.158-1.537,9.941-4.186,13.955
			c-5.738-6.233-13.973-10.146-23.111-10.146c-7.926,0-15.15,2.938-20.687,7.772c-1.774-3.469-2.783-7.414-2.783-11.582
			C698.479,1132.939,709.838,1121.579,723.863,1121.579z"/>
		<path fill="#F6C000" d="M748.869,1151.335c-0.615,3.484-1.931,6.73-3.81,9.582c-5.739-6.233-13.974-10.146-23.11-10.146
			c-7.926,0-15.151,2.938-20.688,7.772c-1.145-2.237-1.964-4.646-2.408-7.209c2.066-11.938,12.471-21.01,25.008-21.01
			C736.383,1130.325,746.787,1139.396,748.869,1151.335z"/>
		<path fill="#FFFF00" d="M672.958,1153.061c9.463,0,17.729,5.192,22.086,12.881c-1.35,2.221-2.426,4.629-3.194,7.156
			c-1.008-0.103-2.032-0.154-3.058-0.154c-13.17,0-24.461,8.115-29.125,19.594h-2.373c-0.479-7.823-3.826-14.879-9.002-20.123
			C651.008,1161.313,661.018,1153.061,672.958,1153.061z"/>
		<path fill="#F6C000" d="M692.551,1171.048c-0.256,0.666-0.479,1.351-0.701,2.05c-1.008-0.103-2.032-0.154-3.058-0.154
			c-13.17,0-24.461,8.115-29.125,19.594h-2.373c-0.41-6.561-2.818-12.59-6.646-17.457c4.288-7.909,12.675-13.291,22.31-13.291
			C680.85,1161.788,687.906,1165.395,692.551,1171.048z"/>
		<path fill="#FFFF00" d="M625.916,1169.102c13.375,0,24.324,10.334,25.314,23.436h-33.992l-5.143-19.336
			C616.078,1170.604,620.826,1169.102,625.916,1169.102z"/>
		<path fill="#F6C000" d="M648.958,1192.536h-31.721l-3.127-11.787c3.52-1.844,7.551-2.904,11.805-2.904
			C636.13,1177.846,644.912,1183.858,648.958,1192.536z"/>
		<path fill="#FFFF00" d="M721.949,1156.835c9.549,0,17.885,5.279,22.207,13.084c-11.188,2.75-20.037,11.48-22.924,22.617h-3.313
			c-3.569-8.746-10.95-15.527-20.089-18.26C701.177,1164.146,710.708,1156.835,721.949,1156.835z"/>
		<path fill="#F6C000" d="M738.637,1171.833c-8.522,3.877-15.015,11.479-17.405,20.703h-3.313
			c-3.058-7.481-8.899-13.529-16.263-16.842c4.629-6.15,11.992-10.131,20.293-10.131
			C728.337,1165.564,734.179,1167.939,738.637,1171.833z"/>
		<path fill="#FFFF00" d="M688.792,1179.007c9.736,0,18.191,5.484,22.445,13.529H666.33
			C670.583,1184.491,679.039,1179.007,688.792,1179.007z"/>
		<path fill="#F6C000" d="M703.656,1192.536h-29.724c4.168-3.022,9.31-4.801,14.86-4.801
			C694.344,1187.735,699.469,1189.514,703.656,1192.536z"/>
		<path fill="#FFFF00" d="M793.283,1162.489c10.026,0,18.688,5.81,22.819,14.246c-11.171,0.41-20.854,6.68-26.101,15.801h-7.908
			c-1.76-6.764-5.724-12.657-11.086-16.842C775.328,1167.819,783.682,1162.489,793.283,1162.489z"/>
		<path fill="#F6C000" d="M810.055,1177.557c-8.574,2.016-15.783,7.549-20.054,14.979h-7.908c-1.315-5.057-3.86-9.617-7.276-13.342
			c4.629-4.918,11.188-7.977,18.465-7.977C799.721,1171.219,805.58,1173.61,810.055,1177.557z"/>
		<path fill="#FFFF00" d="M751.654,1175.079c11.258,0,20.807,7.328,24.119,17.457h-48.238
			C730.867,1182.407,740.397,1175.079,751.654,1175.079z"/>
		<path fill="#F6C000" d="M770.82,1192.536h-38.314c4.646-5.348,11.496-8.729,19.148-8.729
			C759.306,1183.809,766.156,1187.189,770.82,1192.536z"/>
		<path fill="#FFFF00" d="M817.298,1182.766c6.252,0,11.975,2.256,16.398,6.014c-0.138,1.229-0.223,2.494-0.223,3.758h-36.195
			C801.924,1186.591,809.167,1182.766,817.298,1182.766z"/>
		<path fill="#F6C000" d="M832.279,1192.536h-29.961c4.203-3.074,9.379-4.885,14.98-4.885S828.078,1189.462,832.279,1192.536z"/>
		<path fill="#FFFF00" d="M864.906,1167.153c7.65,0,14.502,3.381,19.146,8.729c-5.227,4.185-9.086,9.992-10.813,16.654h-33.702
			C839.539,1178.528,850.898,1167.153,864.906,1167.153z"/>
		<path fill="#F6C000" d="M881.527,1178.153c-3.947,3.912-6.852,8.848-8.285,14.383h-29.586c3.074-10.557,12.829-18.26,24.375-18.26
			C872.986,1174.276,877.615,1175.694,881.527,1178.153z"/>
		<path fill="#FFFF00" d="M903.662,1175.079c8.354,0,15.768,4.031,20.379,10.248c-0.785,2.289-1.314,4.715-1.555,7.209h-42.943
			C882.875,1182.407,892.408,1175.079,903.662,1175.079z"/>
		<path fill="#F6C000" d="M922.846,1189.905c-0.152,0.871-0.271,1.742-0.357,2.631h-38.127c4.611-6.219,12.025-10.25,20.361-10.25
			C911.828,1182.286,918.25,1185.208,922.846,1189.905z"/>
		<path fill="#FFFF00" d="M953.781,1170.159c6.525,0,12.471,2.459,16.963,6.508c-5.158,3.963-9.07,9.48-11,15.869h-31.158
			C930.055,1179.93,940.783,1170.159,953.781,1170.159z"/>
		<path fill="#F6C000" d="M968.096,1178.956c-3.859,3.689-6.781,8.354-8.354,13.58h-27.844c3.52-9.771,12.879-16.774,23.881-16.774
			C960.254,1175.762,964.439,1176.923,968.096,1178.956z"/>
		<path fill="#FFFF00" d="M989.824,1176.274c10.813,0,20.037,6.746,23.709,16.262h-47.4
			C969.787,1183.021,979.029,1176.274,989.824,1176.274z"/>
		<path fill="#F6C000" d="M1010.203,1192.536h-41.406c4.611-6.475,12.162-10.693,20.703-10.693
			C998.057,1181.844,1005.605,1186.063,1010.203,1192.536z"/>
		<path fill="#FFFF00" d="M748.869,1165.991L748.869,1165.991c78.148-86.125,249.7-90.055,228.057,6.986
			c-0.271,0.119-0.563,0.256-0.854,0.393c-5.688-5.723-13.58-9.258-22.291-9.258c-0.939,0-1.879,0.033-2.803,0.119
			c-0.342-3.314-1.092-6.371-2.236-9.172c-3.654-8.969-11.121-15.221-21.301-18.877c-9.855-3.519-22.293-4.576-36.195-3.262
			c-24.273,2.321-53.278,11.957-81.086,28.405c-4.887-3.092-10.66-4.901-16.877-4.901c-11.752,0-21.984,6.457-27.383,16.006
			c-4.271-2.187-9.121-3.416-14.246-3.416c-0.394,0-0.769,0.018-1.16,0.033C750.014,1167.989,749.467,1166.982,748.869,1165.991z
			 M946.248,1165.018c-8.184,2.016-15.102,7.227-19.371,14.246c-5.74-6.285-14.008-10.248-23.215-10.248
			c-5.227,0-10.146,1.28-14.484,3.534c-5.771-6.985-14.502-11.442-24.271-11.442c-13.77,0-25.47,8.864-29.723,21.18
			c-3.622-2.51-7.807-4.287-12.314-5.09c-1.795-4.937-4.768-9.31-8.609-12.742c26.646-15.494,54.25-24.547,77.432-26.769
			c13.236-1.264,24.955-0.291,34.145,3.007c8.883,3.178,15.357,8.541,18.465,16.159
			C945.309,1159.329,945.975,1162.046,946.248,1165.018z"/>
		<path fill="#F6C000" d="M976.875,1142.487c2.441,8.746,2.646,18.893,0.051,30.49c-0.273,0.119-0.563,0.256-0.854,0.393
			c-5.688-5.723-13.58-9.258-22.293-9.258c-0.938,0-1.879,0.033-2.801,0.119c-0.342-3.314-1.094-6.371-2.236-9.172
			c-3.656-8.97-11.121-15.222-21.301-18.877c-9.857-3.519-22.293-4.576-36.197-3.263c-24.271,2.322-53.276,11.957-81.085,28.406
			c-4.886-3.092-10.659-4.902-16.877-4.902c-11.752,0-21.983,6.457-27.382,16.007c-2.409-1.23-5.005-2.17-7.738-2.732
			C824.934,1102.823,948.93,1090.405,976.875,1142.487z M946.248,1165.018c-8.184,2.016-15.102,7.227-19.371,14.246
			c-5.74-6.285-14.008-10.248-23.215-10.248c-5.227,0-10.146,1.28-14.484,3.534c-5.771-6.985-14.502-11.442-24.271-11.442
			c-13.77,0-25.47,8.864-29.723,21.18c-3.622-2.51-7.807-4.287-12.314-5.09c-1.795-4.937-4.768-9.31-8.609-12.742
			c26.646-15.494,54.25-24.547,77.432-26.769c13.236-1.264,24.955-0.291,34.145,3.007c8.883,3.178,15.357,8.541,18.465,16.159
			C945.309,1159.329,945.975,1162.046,946.248,1165.018z"/>
		<polygon fill="#4B2500" points="610.08,1296.323 1026.873,1271.182 610.08,1271.182 		"/>
	</g>
</g>
</svg>
