<?xml version="1.0" encoding="utf-8"?>
<!-- Generator: Adobe Illustrator 16.0.0, SVG Export Plug-In . SVG Version: 6.00 Build 0)  -->
<!DOCTYPE svg PUBLIC "-//W3C//DTD SVG 1.1//EN" "http://www.w3.org/Graphics/SVG/1.1/DTD/svg11.dtd">
<svg version="1.1" id="Layer_1" xmlns="http://www.w3.org/2000/svg" xmlns:xlink="http://www.w3.org/1999/xlink" x="0px" y="0px"
	 width="1700px" height="1700px" viewBox="0 0 1700 1700" enable-background="new 0 0 1700 1700" xml:space="preserve">
<g id="Layer_x0020_1">
	<g id="_339866384">
		<path d="M1080.324,1393.484l0.07,0.434c4.852,19.83,9.699,39.66,14.402,59.49c4.705,19.469,9.336,39.008,13.824,58.477
			c3.184,14.039,6.439,28.225,9.117,42.41c3.33,17.73,3.98,37.127-1.52,54.568c-1.375,4.197-3.33,8.975-5.863,13.244
			c-6.223,10.564-31.697,29.527-42.697,32.928c-7.166,2.1-14.982,2.244-24.174-1.156c-17.225-6.225-30.395-4.777-42.047-21.785
			c-10.133-14.836-17.225-38.719-22.146-55.871c-13.389-46.969-26.705-93.938-40.021-140.908
			c-57.824,13.027-115.649,20.771-174.922,19.975c-1.811-10.273-3.618-20.553-5.428-30.83c-6.948-0.648-13.896-1.303-20.916-2.098
			v0.217c-5.065,25.33-10.35,50.588-15.85,75.773c-3.908,17.586-7.889,35.172-12.304,52.686
			c-3.329,13.391-6.875,27.285-11.436,40.314c-10.35,29.455-22.073,22.725-42.048,30.033c-21.423,7.889-28.081-5.066-40.021-4.633
			c-14.041,0.508-28.152-6.947-33.798-20.117c-4.198-9.771-4.704-19.977-4.198-30.471c0.941-18.094,4.416-37.344,7.601-55.146
			c6.729-37.922,12.521-76.279,18.455-114.42l0.289-1.881c-1.81-0.727-3.618-1.375-5.428-2.102
			c-12.884-4.994-26.852-10.928-38.938-17.658l-11.797-6.586l3.836-12.883c3.764-12.952,7.672-25.836,11.58-38.791l-4.56-3.836
			c-104.577-88.653-148.073-216.174-150.101-350.496l-0.146-6.657c-14.764-7.384-28.804-16.502-41.541-26.996
			c-6.804-5.646-14.475-12.521-20.119-19.321l-2.244-2.75c-20.988,4.559-47.477,4.631-62.095-12.447
			c-6.658-7.816-9.119-17.152-8.829-26.707c-7.165-1.664-14.909-6.006-20.481-10.564c-13.534-11.074-20.336-26.852-21.639-44.076
			c-0.94-13.244,3.04-25.619,11.146-36.113c1.592-2.026,3.328-3.98,5.211-5.862c2.822-2.822,6.295-5.645,10.276-8.25
			c-4.415-14.764-4.704-30.541,3.763-44.074c10.929-17.659,32.567-23.811,52.108-25.476c19.757-1.592,42.048,6.369,44.437,28.877
			c0.58,5.355-0.289,10.783-2.461,15.704c-3.4,7.961-9.19,14.186-16.935,18.093c8.612,9.626,25.33,8.54,36.621,1.303
			c-8.468-6.007-13.751-15.053-12.882-27.284c0.217-3.618,1.158-7.164,2.75-10.421c11.363-23.449,47.404-23.376,67.233-11.29
			c29.527,18.093,33.146,53.338,22.146,83.372l2.314-1.375c9.843-5.935,20.845-8.901,32.352-6.947
			c14.98,2.532,26.776,12.737,36.331,24.172l5.717-0.796c40.167-5.718,45.521-33.798,78.596-52.47
			c9.771-5.572,21.567-10.566,33.653-13.172c-21.351-12.521-43.062-24.534-65.207-35.606c-31.699-15.85-59.49-26.778-92.998-37.345
			c18.093-39.37,33.726-77.438,47.91-118.545c11.001-31.844,21.133-63.977,32.495-95.748c6.369-17.876,13.172-35.462,20.554-52.759
			c-21.495-67.668-33.437-117.966-33.437-189.252c18.383-0.29,35.752-0.217,54.207,1.013c31.844,2.099,61.517,6.658,92.707,13.389
			c13.752-14.33,28.588-27.646,44.075-40.021c88.004-70.056,199.818-114.927,308.304-142.5
			c-18.527,67.306-13.461,101.9,9.191,166.962c31.988-8.105,61.443-12.303,94.082-15.271c4.705,22.508,7.166,40.167,7.455,63.615
			c0.436,41.396-3.908,85.182-11.072,126c38.141,55.727,68.752,110.512,96.109,172.39c13.533,30.613,24.969,60.213,35.463,91.912
			c-36.91,15.487-73.096,28.659-111.164,41.035c-39.73,13.026-79.754,25.186-119.486,38.14c30.035,8.975,46.246,33.219,67.09,54.568
			c17.586,18.021,35.246,29.89,59.707,36.91l5.5,1.52c8.105-9.553,17.152-18.311,28.008-24.823
			c9.119-5.501,18.963-9.047,29.529-10.711c12.52-2.027,25.111-0.218,36.619,5.065l10.494,4.776l-0.652,11.436
			c-0.289,4.631,0.363,9.336,2.316,13.533l1.52,3.039l2.316,2.389c4.85,4.922,11.869,6.152,18.525,5.645l17.152-1.447l5.355,4.777
			c0.436,0.361,0.869,0.65,1.23,1.014l18.455,14.402l-19.541,12.882c-2.172,1.446-3.691,3.329-4.561,5.791
			c-2.1,5.86,0.869,12.303,4.922,16.428c6.586,6.729,16.355,9.408,25.475,9.625c2.025,0.072,4.053,0.072,6.08,0l37.127-0.795
			l-23.955,28.44c-12.086,14.33-28.369,26.562-43.932,36.838c-0.359,0.218-0.723,0.507-1.084,0.724v9.119
			c-0.436,157.407-74.398,289.705-208.504,372.137c2.896,7.092,5.861,15.994,8.9,23.086
			C1120.129,1377.924,1102.902,1385.234,1080.324,1393.484z"/>
		<path fill="#C6EEDB" d="M615.696,575.899c4.704,14.547,11.218,28.152,20.987,39.949c-8.612-0.507-16.79-2.533-25.402-7.744
			c93.07,130.632,317.93,123.684,434.956,13.896c-59.199-68.391-108.125-142.138-156.252-219.865
			c-31.119,28.515-63.036,56.088-92.491,86.34l-11,11.362l-11.219-11.218c-21.132-21.205-40.383-44.22-60.068-66.872
			c-7.453,14.619-15.632,29.021-23.955,42.989c-14.328,24.1-29.744,47.621-45.884,70.635
			C635.744,549.049,625.9,562.583,615.696,575.899z"/>
		<path fill="#9DDFBF" d="M1046.236,622c-59.199-68.391-108.125-142.138-156.252-219.865c-31.119,28.515-63.036,56.088-92.491,86.34
			l-11,11.362l100.09-54.858C886.584,444.978,945.422,567.794,1046.236,622z M750.38,462.13
			c-11.869-13.244-23.448-26.922-35.174-40.384c-7.453,14.619-15.632,29.021-23.955,42.989
			c-14.328,24.1-29.744,47.621-45.884,70.635c-9.625,13.679-19.468,27.212-29.672,40.528
			C630.893,565.405,691.396,539.207,750.38,462.13z"/>
		<g>
			<path d="M849.095,475.086c11.364-5.718,44.944-23.231,68.03-26.055c28.152-3.401,38.213,6.804,27.43,9.771
				c-6.369,1.81-17.008,3.474-30.105,6.875c5.859,6.948,9.553,17.225,9.553,28.66c0,20.915-12.449,37.922-27.719,37.922
				c-15.344,0-27.791-17.007-27.791-37.922c0-4.487,0.578-8.758,1.592-12.738c-7.816,2.968-13.389,4.777-17.586,5.573
				C838.457,489.994,836.936,481.237,849.095,475.086z"/>
			<ellipse fill="#FFFFFF" cx="884.773" cy="490.356" rx="8.25" ry="11.796"/>
			<path d="M748.932,480.368c-10.277-5.717-40.745-23.158-61.733-25.98c-25.475-3.475-34.594,6.804-24.822,9.771
				c5.717,1.737,15.415,3.401,27.283,6.803c-5.282,7.021-8.685,17.225-8.685,28.659c0,20.988,11.29,37.996,25.187,37.996
				c13.895,0,25.185-17.008,25.185-37.996c0-4.414-0.506-8.757-1.447-12.737c7.093,3.04,12.159,4.776,15.994,5.646
				C758.63,495.349,760.005,486.52,748.932,480.368z"/>
			
				<ellipse transform="matrix(-0.9943 -0.1063 0.1063 -0.9943 1338.5896 1052.3611)" fill="#FFFFFF" cx="697.342" cy="490.505" rx="7.292" ry="11.808"/>
			<path d="M749.367,572.353c-7.383,4.921,12.883,21.639,21.423,25.475c8.467,3.764,17.803-9.119,26.705-15.777
				C818.337,566.419,765.071,561.859,749.367,572.353z"/>
			<path d="M765.723,629.455c3.401-4.053,10.783-10.712,14.836-11.001c4.704-0.217,20.771,5.572,29.745,12.448
				c12.955,9.987,2.895,12.737-10.928,5.572c-7.021-3.618-12.955-6.658-17.948-7.093c-3.329-0.289-8.033,6.152-11.726,8.83
				C759.789,645.231,760.078,636.402,765.723,629.455z"/>
		</g>
		<path fill="#C6EEDB" d="M822.824,778.178c15.344-16.718,47.694-46.752,74.254-65.931c-41.541,8.54-83.229,7.526-114.709,4.343
			C795.901,733.597,815.008,762.763,822.824,778.178z"/>
		<path fill="#9DDFBF" d="M897.078,712.248c-41.541,8.54-83.229,7.526-114.709,4.343c6.15,7.671,13.389,17.803,20.19,28.08
			C825.285,742.716,863.568,735.914,897.078,712.248z"/>
		<path fill="#00954C" d="M1029.301,66.836c0,0-216.463,55.002-328.496,184.042c-120.645,138.954-121.513,255.545-191.206,406.73
			C587.761,682.07,718.537,761.1,795.106,823.123c-95.241-99.512-259.019-178.759-259.019-178.759
			c58.909-57.535,141.92-176.226,175.211-250.552c24.463,27.067,49.647,58.404,75.051,83.807
			c34.666-35.679,70.997-66.146,106.965-99.8c63.398,103.202,124.336,196.2,209.734,282.756
			c-102.117,39.443-209.734,80.912-285.942,162.548c104.651-89.958,310.331-126.578,446.463-183.535
			c0,0-40.746-122.743-116.809-233.979c-0.725,2.678-1.447,5.355-2.172,8.033l-5.5,19.902c2.75,9.408,4.922,21.133,4.922,33.942
			c-54.279-86.195-130.922-196.055-232.459-223.484c15.488-5.862,33.725-2.171,47.404,2.533l14.4-5.717
			c23.738-9.336,48.271-17.876,73.168-24.896C1027.637,162.004,1018.012,108.015,1029.301,66.836z"/>
		<path fill="#00793D" d="M509.598,657.607c78.162,24.462,208.938,103.492,285.507,165.515
			c-95.24-99.512-259.019-178.759-259.019-178.759c37.923-36.982,85.761-99.294,123.973-158.856
			C608.82,558.313,509.598,657.607,509.598,657.607z M682.423,449.031c1.447-2.46,2.822-4.921,4.197-7.31
			C685.246,443.748,683.798,446.136,682.423,449.031z M893.314,377.817c63.396,103.202,124.334,196.2,209.732,282.756
			c-102.115,39.443-209.732,80.912-285.941,162.548c104.65-89.958,310.332-126.578,446.464-183.535
			C1099.719,638.428,893.314,377.817,893.314,377.817z"/>
		<path fill="#6BBF96" d="M1029.301,66.836c0,0-216.463,55.002-328.496,184.042c-120.645,138.954-121.513,255.545-191.206,406.73
			c0,0,43.785-58.042,91.768-201.483C649.348,312.61,772.815,156.07,1029.301,66.836z M1144.012,467.486
			c-54.279-86.195-130.922-196.055-232.459-223.484C1036.973,312.104,1057.525,396.561,1144.012,467.486z M711.299,393.811
			c24.462,27.067,49.646,58.404,75.05,83.807c34.666-35.679,70.997-66.146,106.965-99.8l-107.472,78.451L711.299,393.811z
			 M1263.57,639.586c0,0-40.746-122.743-116.811-233.979c-0.723,2.678-1.447,5.355-2.17,8.033l-2.824,10.205
			C1228.252,554.188,1263.57,639.586,1263.57,639.586z M1034.584,219.467c3.98-1.23,7.961-2.388,11.941-3.546
			c-9.844-28.081-17.15-56.233-20.336-82.576l0,0C1026.189,133.345,1020.328,164.61,1034.584,219.467z"/>
		<path fill="#C6EEDB" d="M979.076,255.364c36.836-14.546,98.568-36.186,163.992-42.12c10.494,50.009-1.156,155.527-14.256,202.714
			c-15.199-25.258-41.832-61.517-71.504-94.084c15.85-27.211,37.922-59.345,68.104-93.794c0,0-46.898,34.015-80.189,80.984
			C1023.078,286.194,999.99,266.437,979.076,255.364z"/>
		<path fill="#FFFFFF" d="M979.076,255.364c36.836-14.546,98.568-36.186,163.992-42.12c-46.1,8.467-104.938,33.726-145.756,53.483
			C991.09,262.312,985.01,258.476,979.076,255.364z"/>
		<path fill="#6BBF96" d="M1143.068,213.244c10.494,50.009-1.156,155.527-14.256,202.714
			c-15.199-25.258-41.832-61.517-71.504-94.084c15.85-27.211,37.922-59.345,68.104-93.794
			C1139.887,214.257,1143.068,213.244,1143.068,213.244z"/>
		<path fill="#C6EEDB" d="M570.681,228.152c0,0,56.813-0.941,118.328,12.448c-19.469,22.508-37.271,46.028-53.266,70.852
			c-12.086-21.784-30.396-46.752-57.318-72.517c0,0,27.79,41.18,48.127,87.281c-4.487,7.526-8.902,15.198-13.101,22.941
			c-5.354,9.987-10.422,20.12-15.271,30.324C584.358,335.986,570.681,279.826,570.681,228.152z"/>
		<path fill="#FFFFFF" d="M570.681,228.152c0,0,56.813-0.941,118.328,12.448c-3.329,3.908-6.73,7.889-9.987,11.869
			C620.834,236.547,570.681,228.152,570.681,228.152z"/>
		<path fill="#6BBF96" d="M578.425,238.936c0,0,27.79,41.18,48.127,87.281c-4.487,7.526-8.902,15.198-13.101,22.941
			c-5.354,9.987-10.422,20.12-15.271,30.324c-13.823-43.496-27.501-99.656-27.501-151.33L578.425,238.936z"/>
		<path fill="#F6C000" d="M875.076,799.022c0.869,4.053,1.303,8.322,1.303,12.665c0,32.856-26.633,59.489-59.489,59.489
			s-59.489-26.633-59.489-59.489c0-1.23,0.072-2.461,0.146-3.619l19.396,14.691c4.85,17.514,20.915,30.397,39.949,30.397
			c22.94,0,41.541-18.6,41.541-41.469c0-0.507-0.072-1.014-0.072-1.521C863.426,806.476,869.068,802.568,875.076,799.022z"/>
		<path fill="#FFE662" d="M767.025,815.305l9.915,7.454c4.85,17.514,20.915,30.397,39.949,30.397c22.94,0,41.541-18.6,41.541-41.469
			c0-0.507-0.072-1.014-0.072-1.521c2.102-1.592,4.344-3.111,6.658-4.704C867.623,881.525,769.775,873.203,767.025,815.305z"/>
		<path fill="#6BBF96" d="M466.609,804.45c13.172,8.467,28.01,24.099,42.989,51.673c45.305,83.518,86.772,120.064,149.303,96.037
			s80.261-153.138,80.261-153.138s-41.759-33.146-65.785-41.397c-23.955-8.25-66.51,12.304-84.24,36.259
			c-17.73,24.027-54.496,29.238-54.496,29.238c24.605,38.862,52.324,116.302,107.038,102.044
			c22.94-6.008,38.937-31.771,38.937-31.771s-14.186,42.771-61.228,41.758C548.1,933.633,526.099,768.409,466.609,804.45z"/>
		<path fill="#37A46F" d="M579.437,945.574c23.376,15.561,48.924,18.311,79.465,6.586c62.528-24.027,80.261-153.138,80.261-153.138
			s-6.368-5.066-15.561-11.652c-3.329,27.574-19.612,135.19-70.489,156.323C623.367,955.996,597.602,952.232,579.437,945.574z"/>
		<path fill="#C6EEDB" d="M466.609,804.45c4.633,2.967,9.481,6.875,14.402,11.796c9.336-1.013,18.672,0.651,25.837,7.889
			c21.062,21.277,45.956,104.939,100.452,109.064C545.423,914.816,522.554,770.507,466.609,804.45z M677.429,759.217
			c-1.375-0.579-2.75-1.086-4.053-1.593c-23.955-8.25-66.51,12.304-84.24,36.259c-17.73,24.027-54.496,29.238-54.496,29.238
			c2.388,3.763,4.85,7.888,7.311,12.302c11.867-1.23,41.686-7.67,66.653-41.468C630.533,764.211,657.961,758.711,677.429,759.217z"
			/>
		<path fill="#C6EEDB" d="M603.465,972.715c-3.475,1.303-7.165,2.531-11.073,3.689c-43.495,12.738-70.707,3.475-70.707,3.475
			s6.73-3.98,13.244-7.744c6.44-3.764,6.44-3.764,6.44-3.764s-65.714-2.461-111.235-21.494
			c-45.449-18.961-69.767-48.199-69.767-48.199s9.625-5.139,15.922-5.645c6.225-0.508,9.771,1.375,9.771,1.375
			s-6.875-14.402-38.43-5.646c-31.481,8.758-64.7,3.33-54.713-31.191c9.987-34.448,34.016-34.521,39.443-29.888
			c5.355,4.631,2.244,14.691-4.632,20.842c-6.875,6.152-9.119,14.908-3.979,15.632c5.065,0.726,21.711-25.401,44.002-25.112
			c22.218,0.217,30.686,12.955,30.686,12.955c-2.533-23.377-32.061-28.876-51.313-20.191c0,0-1.375-22.436-25.186-20.047
			c-23.738,2.388-37.995,24.389-40.094,29.167c-2.1,4.703-3.619,10.203-3.619,10.203s-26.777-6.078-29.238-39.515
			c-2.533-33.436,41.76-49.43,53.7-43.93c12.014,5.501,14.547,19.469-1.954,29.745c-16.501,10.204-19.541,12.593-18.382,17.731
			c1.085,5.139,10.493,1.736,20.264-3.98c9.698-5.79,19.106-12.883,21.856-21.494c8.611-27.14-20.481-40.312-48.852-29.745
			c-3.546-10.422-4.993-22.58,1.23-32.567c7.67-12.304,25.041-16.356,39.226-17.514c22.726-1.882,29.528,11,25.187,21.132
			c-10.205,23.666-49.068,5.428-44.582,14.258c3.041,5.862,22.146,5.645,22.146,5.645c9.771,38.285,61.01,35.173,79.537,8.033
			c0,0,7.237-2.533,13.461,0c6.296,2.461,5.428-6.875-5.211-8.757c-10.639-1.882-27.429-4.776-26.416-19.251
			c1.014-14.547,27.791-18.744,44.509-8.54c16.791,10.277,26.995,33.653,14.259,65.642c-11.869,29.745,4.342,45.45,38.502,47.547
			c7.525,9.264,13.821,19.541,18.382,28.01C521.974,911.705,554.832,961.785,603.465,972.715z"/>
		<path fill="#9DDFBF" d="M603.465,972.715c-3.475,1.303-7.165,2.531-11.073,3.689c-43.495,12.738-70.707,3.475-70.707,3.475
			s6.73-3.98,13.244-7.744c6.44-3.764,6.44-3.764,6.44-3.764s-65.714-2.461-111.235-21.494
			c-45.449-18.961-69.767-48.199-69.767-48.199s9.625-5.139,15.922-5.645c6.225-0.508,9.771,1.375,9.771,1.375
			s-6.875-14.402-38.43-5.646c-12.593,3.475-25.401,4.705-35.679,2.752c8.686-0.363,20.265-2.389,34.449-8.541
			c34.231-14.691,49.358-2.389,79.754,20.916c26.343,20.191,83.661,33.074,79.392-23.014
			C530.08,923.139,560.621,963.088,603.465,972.715z"/>
		<path fill="#FFFFFF" d="M303.773,888.98c-10.349-4.705-15.705-14.619-10.855-31.41c9.986-34.448,34.015-34.521,39.443-29.888
			c1.084,0.939,1.809,2.098,2.243,3.4c-8.612,0.289-21.639,2.895-27.719,15.344C301.24,858.004,298.49,876.459,303.773,888.98z
			 M338.873,852.143c7.6-6.514,17.515-13.244,28.877-13.1c17.297,0.145,26.271,7.961,29.383,11.363c0,0-13.896-8.033-38.141-3.98
			C350.742,847.801,344.084,849.899,338.873,852.143z M325.992,781.725c0.65-13.1-8.612-21.784-21.64-24.462
			c-1.375-3.474-2.171-6.514-2.604-8.54c6.658,2.315,17.08,2.171,17.08,2.171c5.861,22.87,26.416,30.903,46.029,28.008
			c-7.383,5.283-17.659,9.191-30.687,5.862C331.129,783.968,328.453,782.955,325.992,781.725z M258.758,838.102
			c-4.85-5.934-8.902-14.473-9.771-26.488c-2.532-33.436,41.759-49.43,53.7-43.93c2.171,0.941,3.98,2.172,5.428,3.619
			c-7.815,0.651-20.119,4.704-35.969,19.179C254.27,806.765,255.429,826.016,258.758,838.102z M272.58,742.354
			c0.146-5.211,1.375-10.349,4.271-14.98c7.671-12.304,25.041-16.356,39.226-17.514c22.726-1.882,29.528,11,25.187,21.132
			c-0.94,2.244-2.171,4.126-3.619,5.718c-1.013-7.237-6.079-16.139-25.764-12.665C290.457,727.735,279.673,732.729,272.58,742.354z
			 M380.197,732.874c-0.072-0.651,0-1.303,0-1.954c1.014-14.547,27.791-18.744,44.51-8.54c7.6,4.632,13.822,12.014,17.225,21.567
			c-9.264-7.889-19.83-14.33-30.251-14.909C396.626,728.097,386.422,730.413,380.197,732.874z"/>
		<path fill="#6BBF96" d="M892.953,790.554c35.533,84.458,68.318,220.372,194.971,182.45
			c83.154-24.824,124.262-105.52,139.75-123.756c21.203-24.969,33.291-13.389,49.574-21.494c-3.258-6.659-4.416-14.258-3.98-21.712
			c-7.744-3.546-16.936-5.355-27.066-3.764c-42.482,6.731-58.768,49.72-92.998,90.972c-34.232,41.252-85.254,61.01-124.48,55.799
			c-39.297-5.283-55.508-50.01-55.508-50.01c36.547,60.359,122.887,43.496,163.777-8.033c15.705-19.83,38.936-55.146,38.936-55.146
			c-96.182-27.574-82.938-120.717-185.705-86.992c-44.221,14.475-75.992,30.252-97.486,40.963
			C892.881,790.264,892.953,790.554,892.953,790.554z"/>
		<path fill="#37A46F" d="M892.953,790.554c35.533,84.458,68.318,220.372,194.971,182.45c4.27-1.23,8.395-2.678,12.375-4.197
			c-108.775,19.611-146.191-63.109-165.227-133.744c-8.178-30.324-5.064-51.457,2.1-66.148
			c-18.092,7.816-32.783,15.054-44.438,20.916C892.881,790.264,892.953,790.554,892.953,790.554z"/>
		<path fill="#C6EEDB" d="M1273.266,811.469c-0.145-1.809-0.07-3.618,0-5.428c-7.744-3.546-16.934-5.355-27.066-3.764
			c-42.48,6.731-58.766,49.72-92.996,90.972c-17.949,21.64-40.529,37.344-63.615,46.681c18.02-3.619,48.633-18.238,89.74-68.755
			C1223.258,817.115,1243.232,804.305,1273.266,811.469z M1168.039,847.656c4.775-7.021,7.889-11.797,7.889-11.797
			c-94.881-27.212-83.301-118.039-181.365-88.367c21.713-1.447,47.043,1.447,65.787,17.369
			c39.949,34.16,49.719,57.681,83.518,72.878C1155.084,842.807,1162.756,845.846,1168.039,847.656z"/>
		<path fill="#C6EEDB" d="M1177.809,1012.156c0,0-10.494-5.428-15.127-11.361c-4.631-6.008-4.703-6.803-4.703-6.803
			s66.438,20.553,171.305-48.49c19.178-12.592,32.061-23.738,40.383-33.652c-2.242,0.072-4.486,0.072-6.875,0
			c-13.605-0.361-27.355-4.705-37.055-14.691c-8.611-8.829-13.027-21.713-8.758-33.727c2.172-6.223,6.152-11,11.219-14.256
			c-0.725-0.58-1.375-1.086-2.025-1.666l-10.063,0.797c-11.939,1.014-23.447-2.1-31.842-10.566
			c-20.699,12.738-30.469,4.922-44.652,21.639c-5.502,6.44-10.857,15.271-15.777,22.362c-6.803,9.697-13.896,19.253-21.422,28.371
			c-19.18,25.185-41.979,43.855-61.59,55.652c-14.908,9.408-30.977,17.008-48.416,22.219c-3.619,1.086-7.311,2.026-10.93,2.895
			C1093.93,998.406,1131.129,1017.729,1177.809,1012.156z"/>
		<path fill="#FFFFFF" d="M1292.662,843.965c-3.039-1.592-5.861-3.691-8.395-6.225c-20.699,12.738-30.469,4.922-44.652,21.639
			c-3.908,4.561-7.674,10.205-11.291,15.633c10.422-7.453,23.377-15.053,35.246-18.238
			C1279.998,852.359,1288.609,847.076,1292.662,843.965z"/>
		<path fill="#9DDFBF" d="M1177.809,1012.156c0,0-10.494-5.428-15.127-11.361c-4.631-6.008-4.703-6.803-4.703-6.803
			s66.438,20.553,171.305-48.49c19.178-12.592,32.061-23.738,40.383-33.652c-2.242,0.072-4.486,0.072-6.875,0
			c-11.289-0.289-22.727-3.33-31.844-10.133l0,0c0,0-58.982,40.529-109.064,36.041c-14.98-1.375-22.725-9.047-26.197-19.25
			c-17.66,20.988-37.49,36.838-54.859,47.258c-14.908,9.408-30.977,17.008-48.416,22.219c-3.619,1.086-7.311,2.026-10.93,2.895
			C1093.93,998.406,1131.129,1017.729,1177.809,1012.156z"/>
		<path fill="#00954C" d="M678.515,959.615c27.573-4.416,55.582-7.672,83.372-9.771c7.382-27.5,15.198-51.746,21.784-70.852
			c-16.719-8.25-29.891-22.508-36.692-39.949c-5.139,20.264-11.725,40.602-20.48,59.49
			C715.858,921.619,700.515,945.646,678.515,959.615z M791.921,882.467c-5.428,18.092-11.362,40.166-17.441,66.51
			c2.75-0.217,5.573-0.363,8.323-0.508c58.549-3.328,118.98-1.736,177.166,8.178c-32.711-34.158-51.963-85.182-69.477-130.123
			c-6.875,34.376-37.199,60.212-73.603,60.212C808.133,886.736,799.737,885.217,791.921,882.467z M645.223,1069.619
			c-13.461,91.262-42.844,175.357-76.787,290.646c0,0,55.799,30.975,126.507,39.949c32.205,4.125,50.66,6.15,61.228,7.162
			c-14.476-114.708-27.431-250.044-16.066-349.409c-7.383,0.507-14.691,1.084-22.002,1.736c-22.725,2.026-45.377,4.922-67.885,8.976
			L645.223,1069.619z M754.505,1057.1c-11.146,108.848,15.488,285,32.64,381.689c26.995-0.941,106.242-6.008,199.603-33.074
			c115.434-33.436,130.992-47.477,130.992-47.477s-74.035-175.574-98.57-286.592l-5.5-0.797
			C929.355,1058.908,840.338,1052.686,754.505,1057.1z"/>
		<path fill="#00793D" d="M973.141,1065.639c16.428,109.789,41.396,213.715,74.18,321.404
			c60.723-20.047,70.418-28.805,70.418-28.805s-74.035-175.574-98.568-286.592l-5.5-0.797
			C1000.279,1068.969,986.746,1067.232,973.141,1065.639z"/>
		<path fill="#6BBF96" d="M659.626,1067.088c-9.987,50.514-43.568,206.332-91.189,293.178
			c33.943-115.289,63.326-199.385,76.787-290.646l4.993-0.938C653.33,1068.172,656.514,1067.594,659.626,1067.088z"/>
		<path fill="#00793D" d="M780.414,888.545c1.086-3.256,2.172-6.441,3.258-9.553c-16.719-8.25-29.891-22.508-36.692-39.949
			c-5.139,20.264-11.725,40.602-20.48,59.49c-10.64,23.086-25.981,47.113-47.982,61.082c43.495-16.719,67.74-45.16,83.3-88.439
			C766.518,878.631,772.888,884.348,780.414,888.545z M788.955,892.525c33.798,12.738,81.852-0.506,97.629-31.916
			c0,0,36.838,73.168,73.385,96.037c-32.711-34.158-51.963-85.183-69.477-130.124c-6.877,34.377-37.199,60.213-73.603,60.213
			c-8.757,0-17.152-1.521-24.97-4.271C790.908,885.723,789.968,889.053,788.955,892.525z"/>
		<path fill="#6BBF96" d="M652.822,979.951c50.154-9.625,214.583-35.824,356.866,3.691c0,23.446,1.736,47.549,6.008,71.141
			l0.145,0.652c-85.254-12.086-235.208-26.199-368.373-2.101C650.362,1029.742,652.244,1005.498,652.822,979.951z"/>
		<path fill="#569B7A" d="M961.561,972.787c16.139,2.895,32.277,6.439,48.127,10.855c0,23.446,1.736,47.549,6.008,71.141
			l0.145,0.652c-13.461-1.955-28.586-3.908-45.016-5.791C967.277,1024.387,964.166,998.84,961.561,972.787z"/>
		<path fill="#C6EEDB" d="M652.822,979.951c44.581-8.539,179.41-30.18,308.739-7.164c-118.907-10.277-261.408,8.467-296.58,18.6
			c0.578,20.408-0.435,39.369-2.172,59.344c-5.138,0.869-10.276,1.738-15.343,2.605
			C650.362,1029.742,652.244,1005.498,652.822,979.951z"/>
		<path fill="#C6EEDB" d="M620.978,1399.129c-6.079,39.443-13.75,87.932-18.525,114.854c-8.976,50.516-8.976,65.498-4.487,75.992
			c4.487,10.492,17.73,9.986,17.73,9.986s-10.205-10.494-8.468-33.002c1.736-22.436,12.737-28.225,11-14.98
			c-1.736,13.244-3.4,37.488,7.889,48.055c11.219,10.494,24.462,5.572,24.462,5.572s-11.868-6.514-12.521-28.73
			c-0.579-22.219,5.428-33.002,11.146-32.277c5.79,0.797-1.592,19.252-0.145,37.777c1.954,24.027,24.605,28.807,33.508,3.4
			c11.435-32.564,29.601-119.92,38.937-166.455c-9.48-1.158-19.033-2.387-28.515-3.617
			C668.672,1412.662,644.428,1406.873,620.978,1399.129z"/>
		<path fill="#9DDFBF" d="M620.978,1399.129c-1.302,8.25-2.604,16.936-3.98,25.691c23.738,15.561,56.957,34.16,94.013,45.523
			c3.979-18.963,7.671-36.91,10.493-51.023c-9.48-1.158-19.033-2.387-28.515-3.617
			C668.672,1412.662,644.428,1406.873,620.978,1399.129z"/>
		<path fill="#C6EEDB" d="M955.266,1430.25c13.172,46.244,30.83,108.629,40.166,141.342c16.066,56.016,25.258,59.563,35.027,61.01
			c9.771,1.52,10.494-17.008,5.283-37.199c-5.283-20.266-7.311-34.813,3.186-23.52c10.566,11.217,13.533,46.752,13.025,55.51
			c-0.506,8.756-2.75,10.711-2.75,10.711s17.225,6.295,28.227-6.947c11-13.316-0.219-61.518-3.475-67.813
			c-3.258-6.227,8.758-9.482,14.475,14.545c5.789,23.955,4.561,39.73,4.561,39.73s16.355-16.717,8.25-60.285
			c-5.283-27.936-24.244-106.746-37.127-159.436c-1.086,0.361-2.172,0.725-3.258,1.158c-23.086,7.816-46.391,14.908-69.766,21.711
			C979.221,1424.17,967.277,1427.354,955.266,1430.25z"/>
		<path fill="#9DDFBF" d="M955.266,1430.25l7.525,26.414c28.877,1.883,70.709,2.1,113.986-6.367
			c-4.416-18.455-8.83-36.621-12.666-52.398c-1.086,0.361-2.172,0.725-3.256,1.158c-23.088,7.816-46.391,14.908-69.768,21.711
			C979.221,1424.17,967.277,1427.354,955.266,1430.25z"/>
		<path fill="#37A46F" d="M426.082,962.076c2.315,154.875,59.635,266.256,144.164,337.977c8.252-27.285,16.573-54.568,24.534-81.926
			c11.507-39.516,22.146-79.248,29.745-119.703c7.311-38.646,11.651-76.932,12.665-116.373c-14.764,2.75-26.126,5.137-40.384,9.336
			c-44.002,12.881-64.99,8.467-106.531-5.574c15.633-9.264-20.697-10.492-36.548-14.69
			C444.391,968.662,435.056,965.693,426.082,962.076z M1121.432,1326.395c115.65-70.996,198.807-192.219,199.238-357.082
			c-26.197,15.562-54.785,28.66-84.387,36.258c-27.139,6.947-50.297,3.041-21.277,17.877c-53.408,6.369-91.693,10.929-141.631-19.18
			c-23.883-14.402-22.725-6.441-47.98-11c1.301,62.963,19.104,119.631,39.008,179.338c13.822,41.541,29.094,82.722,45.016,123.467
			C1113.396,1306.203,1117.379,1316.336,1121.432,1326.395z"/>
		<path fill="#329464" d="M588.701,1238.754c2.026-6.877,4.054-13.752,6.08-20.627c11.507-39.516,22.146-79.248,29.744-119.703
			c7.311-38.646,11.651-76.932,12.666-116.373c-14.765,2.75-26.127,5.137-40.385,9.336c-19.251,5.645-34.158,7.961-48.271,7.598
			C537.027,1099.943,553.963,1179.625,588.701,1238.754z M1086.91,1236.799c40.236-53.771,67.232-123.539,72.01-208.721
			c-28.297,0.145-54.713-5.211-85.543-23.811c-23.883-14.402-22.727-6.441-47.982-11c1.303,62.963,19.105,119.631,39.008,179.338
			C1071.566,1194.1,1079.094,1215.521,1086.91,1236.799z"/>
		<g>
			<path d="M1337.533,419.72c14.33-38.791,39.227-69.478,68.537-87.28c-9.627,12.303-16.863,28.804-19.83,47.476
				c-5.719,35.824,6.006,68.681,27.066,81.563c-28.441-1.23-55.438-9.336-76.932-19.975c-68.393,33.581-60.432,80.405-60.432,80.405
				c33.291-20.119,59.707-19.613,84.529-10.132c36.402,13.822,26.924,33.87,20.191,76.425l-68.533,432.423
				c-6.369,35.172-28.008,71.793-58.838,91.404c17.369,73.459,83.012,93.938,78.887,133.02
				c-4.852,45.813-72.012,42.338-61.445-16.645c-33.291,24.822-21.639,80.693,32.857,86.772c29.6,3.257,63.254-17.586,69.982-54.278
				c14.547-79.537-25.836-116.881-14.475-188.455l78.018-492.493c8.18-51.384,4.271-45.594,46.029-61.082
				c36.475-13.461,59.996-46.245,49.43-106.531c-21.205,23.521-45.596,37.199-70.635,44.002c15.414-12.23,27.5-33.652,31.625-59.417
				c5.646-35.824-6.078-68.681-27.139-81.563c27.791,0.651,56.016,12.882,80.768,39.732c27.572-27.067,74.904-78.234,85.543-114.637
				c0,0-31.191,10.711-42.627,12.81c-11.436,2.099-34.449-7.961-64.988-25.041c-30.541-17.08-115.506-31.047-175.938,37.851
				c-60.432,68.826-44.871,75.773-91.84,108.703c-47.043,32.929-69.695,42.771-69.695,42.771S1263.641,431.228,1337.533,419.72z"/>
			<path fill="#4D4D4D" d="M1602.703,266.365c-3.256,0.868-6.584,1.664-9.77,2.243c-21.061,3.908-57.537-16.718-75.484-26.777
				c-18.527-10.349-46.969-13.244-67.666-11.362c-35.318,3.256-65.57,19.323-88.873,45.884
				c-13.316,15.125-25.91,30.686-37.271,47.331c-6.658,9.625-12.736,19.975-19.758,29.311
				c-10.639,14.112-23.23,24.462-37.633,34.521c-9.699,6.803-19.541,13.533-29.602,19.902c0,0,51.168-10.06,92.203-67.885
				c23.955-33.726,51.816-64.483,82.865-80.55c22.072-11.435,56.813-14.981,81.924-7.454
				C1554.07,269.694,1572.598,292.201,1602.703,266.365z M1519.332,445.485c-24.896,18.527-54.135,29.238-86.412,31.337
				c-32.424,2.171-66.439-4.56-96.256-17.876c0,0,44.727,31.192,100.814,30.469C1493.494,488.691,1519.332,445.485,1519.332,445.485
				z"/>
			
				<ellipse transform="matrix(-0.9877 -0.1565 0.1565 -0.9877 2800.969 997.1989)" fill="#F6C000" cx="1439.742" cy="388.331" rx="47.134" ry="72.09"/>
			<path fill="#DBA500" d="M1448.553,333.888c43.277,6.875,26.055,115.939-17.297,109.063
				C1387.904,436.149,1405.201,327.012,1448.553,333.888z"/>
			
				<ellipse transform="matrix(-0.9877 -0.1565 0.1565 -0.9877 2800.9561 997.1926)" fill="#BC8700" cx="1439.734" cy="388.331" rx="13.427" ry="38.384"/>
			<path fill="#FFFFFF" d="M1451.664,329.328c7.092-2.171,15.561,5.138,18.961,16.211c3.33,11.145,0.289,21.856-6.875,24.027
				c-7.092,2.099-15.561-5.139-18.961-16.284C1441.459,342.211,1444.5,331.499,1451.664,329.328z M1465.848,376.515
				c4.633-1.448,9.555,1.229,11,5.862c1.375,4.632-1.229,9.554-5.934,10.929c-4.633,1.447-9.555-1.23-10.93-5.862
				C1458.539,382.811,1461.217,377.89,1465.848,376.515z"/>
		</g>
		<path d="M1325.736,848.74l-9.48,0.797c-13.605,1.086-26.777-2.967-35.463-13.895c-10.564-13.1-10.783-31.483-5.064-46.681
			c6.297-16.718,19.611-29.889,36.621-35.606l10.711-3.619c1.229-1.52,2.533-2.895,3.979-4.27
			c12.811-11.651,30.541-13.968,46.971-10.422c47.332,10.205,73.602,54.714,69.838,101.321
			c-4.197,51.891-27.283,78.018-81.057,76.715c-13.967-0.363-28.008-4.85-37.922-15.055c-8.975-9.189-13.463-22.58-9.047-35.027
			c2.1-5.934,5.789-10.494,10.35-13.895C1326.025,848.959,1325.881,848.813,1325.736,848.74z"/>
		<path fill="#C6EEDB" d="M1370.463,751.473c-38.938-8.396-51.021,31.12-26.271,33.726c10.639,1.157,29.455,3.763,41.252,9.046
			c17.297,7.744,7.525,14.258-6.514,11.001c-13.969-3.257-47.26-11.507-49.504,11.29c-2.242,22.724,21.496,28.732,39.299,29.455
			c31.988,1.375,19.83,12.666,0.217,12.955c-6.73,0.146-14.475-0.36-20.988,0c-27.789,1.304-20.77,36.402,15.271,37.345
			c44.293,1.086,60.357-17.875,63.904-61.299C1430.098,797.936,1410.482,760.086,1370.463,751.473z M1314.807,832.746
			c-4.125-12.954-1.229-27.356,7.672-37.705c-5.139-6.876-8.467-17.587-4.775-25.765
			C1282.023,781.291,1277.391,835.859,1314.807,832.746z"/>
		<path fill="#9DDFBF" d="M1331.164,828.693c5.719,12.883,23.521,16.719,37.563,17.297c31.988,1.375,19.828,12.667,0.217,12.956
			c-6.73,0.145-14.475-0.361-20.988,0c-27.789,1.303-20.771,36.402,15.271,37.344c44.291,1.086,60.357-17.875,63.904-61.299
			c0-0.145,0-0.217,0-0.361c-9.625,12.014-32.063-2.605-63.471-8.105C1346,823.41,1336.375,825.51,1331.164,828.693z"/>
		<path fill="#FFFFFF" d="M1370.463,751.473c-23.305-4.993-36.982,7.093-38.863,18.238c24.244-12.883,71.648,2.315,92.057,32.061
			C1416.273,777.599,1398.326,757.48,1370.463,751.473z M1291.938,822.18c0.146-6.586,1.883-14.329,6.949-22.146
			c7.814-12.229,13.896-17.007,17.658-18.889c-0.725-4.053-0.508-8.251,1.158-11.869
			C1293.023,777.599,1283.182,806.332,1291.938,822.18z"/>
		<path fill="#FFDA19" d="M238.566,643.495c0,0,12.448,42.555,10.928,58.404c-1.592,15.776-25.258,11-25.258,11
			s21.277,11.725,17.008,18.527c-4.271,6.73-29.963,18.237-29.963,18.237s16.791,3.112,19.18,7.455
			c2.388,4.414-59.997,38.501-59.997,38.501s50.732,11.29,54.278,24.752c3.475,13.533-25.547,23.738-25.547,23.738
			s25.476-4.27,30.251,5.861c8.901,18.744-51.384,47.478-69.405,59.272c-2.532-8.612-3.039-21.204-0.795-28.948
			c-33.364,18.383-73.386,57.174-87.57,79.319c29.962-25.258,63.904-41.977,63.904-41.977c0.072,16.502,3.545,25.041,7.31,37.488
			c7.31-14.619,93.722-99.584,98.86-84.746c3.256,9.48-20.988,40.021-20.988,40.021s42.844-15.271,53.193-4.777
			c10.421,10.566,8.54,25.041,8.54,25.041s20.191-21.35,33.073-12.447c12.883,8.9,20.916,54.93,20.916,54.93
			s6.875-31.699,17.008-39.731c10.132-8.033,12.736,7.961,12.736,7.961s2.026-30.47,14.981-32.713
			c13.027-2.242,61.517,25.478,61.517,25.478s-15.487-48.49-13.026-62.748c4.704-26.706,97.919,43.063,106.097,56.957
			c2.969-12.664,5.79-21.423,4.851-37.851c0,0,34.883,14.401,66.51,37.633c-15.633-21.205-58.115-57.246-92.637-73.313
			c2.678,7.527,3.112,20.119,1.157,28.877c-8.321-4.705-100.09-24.969-67.668-43.785c15.488-9.047,61.59-13.389,61.59-13.389
			s-38.863-18.6-47.114-35.101c-8.25-16.501,19.106-22.146,19.106-22.146s-24.391-7.672-18.89-17.659
			c5.5-9.987,46.896-46.39,46.896-46.39s-55.8,6.079-64.121,0.145c-8.323-5.862,1.52-25.98,1.52-25.98s-23.304,14.764-33.798,2.967
			c-10.494-11.724-13.461-67.45-13.461-67.45s-30.396,41.613-50.299,50.805c-47.91,22.073-5.572-108.702,4.343-121.223
			c-12.882,1.81-22.074,2.315-37.055,9.119c0,0,0.868-37.778,11.218-75.629c-14.113,22.218-32.495,74.832-35.173,112.827
			c6.079-5.282,17.73-10.132,26.633-11.507c-2.75,18.455,9.915,92.709-10.711,98.57C290.24,683.154,238.566,643.495,238.566,643.495
			z M336.847,908.158c-19.251,2.75-40.963,0.869-53.7-13.967c-6.657-7.816-9.118-17.152-8.829-26.707
			c-7.165-1.664-14.908-6.006-20.48-10.564c-13.534-11.074-20.336-26.852-21.639-44.076c-0.941-13.244,3.039-25.619,11.145-36.113
			c1.592-2.026,3.329-3.98,5.211-5.862c2.823-2.822,6.296-5.645,10.277-8.25c-4.415-14.764-4.704-30.541,3.763-44.074
			c10.928-17.659,32.567-23.811,52.108-25.476c19.757-1.592,42.048,6.369,44.437,28.877c0.579,5.355-0.29,10.783-2.461,15.704
			c-3.401,7.961-9.19,14.186-16.935,18.093c8.611,9.626,25.33,8.54,36.621,1.303c-8.469-6.007-13.752-15.053-12.883-27.284
			c0.217-3.618,1.158-7.164,2.75-10.421c11.363-23.449,47.404-23.376,67.234-11.29c9.263,5.717,15.994,13.026,20.479,21.422
			c-26.993,15.126-7.961,37.923-7.961,37.923s-12.52,5.645-12.014,17.008c0.507,11.362,24.679,31.698,24.679,31.698
			s-21.639-0.361-35.822,5.428c-14.113,5.79,0,24.969,0,24.969s-11.509-0.725-15.705,10.782c-4.271,11.507,4.196,31.48,4.196,31.48
			s-15.198-8.973-33.941-7.02C358.631,883.77,336.847,908.158,336.847,908.158z"/>
		<path fill="#FFDA19" d="M361.236,1115.07c14.112-22.219,32.495-74.834,35.102-112.756c-6.079,5.211-17.731,10.131-26.633,11.434
			c2.17-14.547,0.578-32.566-2.172-50.08c-4.125,33.146-12.882,60.574-32.205,84.893c12.882-1.811,22.072-2.244,37.054-9.119
			C372.381,1039.441,371.513,1077.219,361.236,1115.07z"/>
		<path fill="#FFDA19" d="M579.437,574.886c-26.054,3.907-77.872,24.389-108.341,47.187c7.961,1.229,19.251,6.803,26.054,12.665
			c-12.375,7.888-24.968,20.915-36.402,34.448c27.791-18.6,54.207-29.89,85.254-31.192c-9.771-8.539-16.14-15.197-31.119-22.073
			C514.882,615.92,544.048,591.893,579.437,574.886z"/>
		<path fill="#FFDA19" d="M67.262,658.331c25.837-5.211,81.491-3.401,117.894,7.889c-7.092,3.764-15.849,12.882-20.264,20.698
			c14.258,3.185,30.541,11.218,45.885,20.047c-32.424-8.105-61.154-9.843-90.827-0.507c6.368-11.435,10.132-19.757,21.855-31.337
			C141.805,675.121,106.27,662.311,67.262,658.331z"/>
	</g>
</g>
</svg>
