<?xml version="1.0" encoding="utf-8"?>
<!-- Generator: Adobe Illustrator 16.0.0, SVG Export Plug-In . SVG Version: 6.00 Build 0)  -->
<!DOCTYPE svg PUBLIC "-//W3C//DTD SVG 1.1//EN" "http://www.w3.org/Graphics/SVG/1.1/DTD/svg11.dtd">
<svg version="1.1" id="Layer_1" xmlns="http://www.w3.org/2000/svg" xmlns:xlink="http://www.w3.org/1999/xlink" x="0px" y="0px"
	 width="1700px" height="1700px" viewBox="0 0 1700 1700" enable-background="new 0 0 1700 1700" xml:space="preserve">
<g id="Layer_x0020_1">
	<g id="_336845200">
		<path d="M474.534,409.218c-11.217-39.806-16.283-81.996-16.283-121.945v-15.994l15.994-0.797c19.25-0.941,40.021,0,59.199,1.52
			c7.383,0.58,14.838,1.304,22.291,2.173l1.086-2.822c17.226-42.918,28.515-88.873,34.521-134.758
			c2.461-19.033,4.631-40.601,4.414-59.924l-0.289-23.594l22.363,7.454c11.36,3.836,22.94,8.687,33.869,13.533
			c28.153,12.377,55.653,26.778,82.069,42.555c71.865,42.99,137.435,97.052,192.293,160.306l9.045-1.23
			c38.142-5.5,78.67-7.526,116.953-2.1c12.737,1.811,29.746,5.065,41.688,10.205l12.664,5.571l-2.967,13.462
			c-9.842,45.088-33.508,92.854-56.74,132.44l-3.908,6.803c18.744,31.845,35.824,64.556,50.731,97.921
			c9.626,21.565,18.455,43.639,25.765,66.146c2.605,8.178,5.283,16.863,7.164,25.258l1.883,8.613l-6.008,6.441
			c-11.434,12.229-28.006,24.533-41.756,33.797c-32.857,22.291-69.478,39.805-107.111,52.832
			c9.336,7.164,18.021,15.125,25.982,23.738c3.69,4.053,7.235,8.178,10.639,12.375c26.344,33.002,44.508,72.951,57.752,112.829
			c5.283,15.701,9.844,31.553,14.041,47.617c2.389,8.977,4.631,19.252,7.744,27.938c5.934,16.791,14.184,33.871,21.927,49.938
			c40.526,83.59,66.728,145.105,68.608,218.49c1.447,57.609-7.526,144.455-21.422,220.877
			c-40.24-18.092-103.636-39.514-141.994-53.338c1.521,23.232,2.679,46.463,3.836,69.695c-13.535,7.021-26.776,13.822-40.746,19.977
			l0.361,3.762c1.303,11.652,2.533,23.377,3.908,35.029c0.652,5.57,1.23,11.725,2.244,17.297c3.547,3.545,16.066,9.914,19.83,12.014
			c13.461,7.309,29.744,16.645,34.014,32.566c3.258,11.867,2.316,24.822-2.678,36.111c-4.414,10.063-12.592,19.83-23.736,22.146
			c-4.561,0.941-9.41,1.592-14.041,0.797c-8.61-1.666-12.229,3.4-22.797,3.836c-5.139,0.217-10.422,0.146-15.561,0
			c-10.494-0.291-19.975,0.146-30.18,0.146c-28.658,0-62.383-5.721-69.91-38.721c-2.533-10.93-4.486-22.219-6.586-33.219
			c-3.476-17.949-6.947-35.895-10.711-53.771c-16.574,2.1-32.857,3.039-49.502,3.979c0.071-10.131,0.145-20.264,0.217-30.469
			c-45.957-1.52-88.584-3.617-134.467-6.586c-5.646-0.361-11.291-0.867-16.937-1.447l-1.664,3.691
			c-1.883,4.27-3.836,8.611-5.646,12.883c-9.627,22-18.817,44.219-27.862,66.438c-5.574,13.822-11.002,28.01-17.008,41.613
			c-13.824,31.047-50.01,35.607-79.972,35.607c-11.436,0-22.074-0.436-33.799-0.145c-5.645,0.145-11.434,0.217-17.08,0
			c-2.75-0.146-37.053-4.055-39.803-4.561c-12.014-2.391-20.266-12.885-23.666-24.102c-3.691-12.447-1.955-25.764,3.691-37.27
			c7.381-14.98,26.776-23.596,41.324-30.107c5.063-2.242,22.94-9.77,27.065-13.822c2.967-7.455,5.429-16.139,7.89-23.738
			c4.631-14.619,9.19-29.238,13.678-43.857c0.725-2.533,1.52-4.994,2.244-7.453c-13.172-2.678-26.271-5.43-39.443-8.252
			c22.58-55.219,44.582-110.438,64.918-166.525c-40.455-3.547-83.301-2.678-122.887,6.514
			c-24.246,5.645-35.824,11.291-56.523,23.232c-10.35-26.199-15.414-44.727-19.541-72.734c-8.25-56.596-8.467-116.881-6.006-173.838
			c2.025-45.883,6.369-92.273,15.197-137.434l3.186-16.283c-5.428-10.061-10.061-20.555-14.112-31.049
			c-0.146-0.289-0.289-0.578-0.506-0.867c-2.967-3.258-16.862-7.889-21.276-9.699c-16.066-6.875-28.299-16.355-34.883-33.146
			c-3.041-7.67-4.633-16.354-3.908-24.532l-4.777-9.771c-7.961-16.213-6.08-36.91,7.672-49.576c2.895-2.678,6.15-4.92,9.625-6.729
			c3.402-1.736,7.02-3.111,10.855-4.053c1.229-7.021,4.994-14.619,9.479-20.048c12.883-15.561,39.877-16.5,51.817,1.087
			c1.883,2.895,3.258,6.079,3.98,9.479c1.738,7.961-0.289,14.041-1.881,21.566c-3.836,17.805,43.061,19.829,41.18-0.361
			c-1.014-11.289,2.533-22.869,12.736-29.383c11.002-7.093,23.955-4.414,34.088,2.821c10.205,7.238,16.646,19.181,19.758,31.119
			c3.691,14.476,3.473,32.931-6.369,45.017c-3.547,4.487-4.703,8.901-3.764,13.315l14.547-14.11
			c7.526-7.238,19.324-11.726,29.672-12.884l5.065-5.571c8.83-9.697,13.461-19.181,19.181-30.613
			c5.211-10.35,10.422-19.541,18.02-28.297c6.586-7.672,14.186-14.33,22.436-20.193c-2.75-1.375-5.5-2.678-8.178-4.053
			c-41.035-20.479-81.854-42.336-120.861-66.438c-12.883-7.961-26.705-16.571-38.791-25.69l-9.987-7.527l4.416-11.723
			c6.369-17.08,14.401-34.449,22.217-50.879c20.267-42.556,43.496-83.951,68.683-123.756L474.534,409.218z"/>
		<path fill="#C6EEDB" d="M509.637,1463.965c-10.565,34.521-22.291,72.227-25.621,80.26c-6.367,15.488-59.345,25.477-68.392,44.004
			c-9.119,18.525-0.869,35.75,8.105,37.488c8.902,1.736,9.77,0,9.77,0s-9.985-9.264-7.598-26.996
			c2.459-17.73,23.883-28.225,41.469-29.527c17.658-1.23,13.39,3.547,4.486,7.02c-8.902,3.549-33.146,6.227-33.58,28.301
			c-0.506,22,15.85,25.186,22.652,25.475c6.729,0.217,15.994,0,15.994,0s-17.008-31.266,7.092-45.232
			c24.026-14.041,40.094-10.783,37.49-7.02c-2.605,3.762-35.752,12.736-37.707,27.211c-1.881,14.547,4.125,25.113,27.356,25.113
			c23.229,0,54.278-2.316,64.627-25.547c6.226-13.971,27.791-69.984,50.517-121.008c-14.908-1.883-29.816-4.195-44.363-6.586
			C557.835,1472.939,533.735,1468.67,509.637,1463.965z"/>
		<path fill="#9DDFBF" d="M412.366,1597.564c-2.967,14.619,3.98,26.705,11.363,28.152c8.902,1.736,9.77,0,9.77,0
			s-9.914-9.191-7.598-26.85c-2.389,1.084-5.283,1.664-8.541,1.084C415.407,1599.59,413.741,1598.721,412.366,1597.564z
			 M439.651,1596.695c-0.869,2.316-1.303,4.85-1.375,7.816c-0.506,22,15.85,25.186,22.652,25.475c6.729,0.217,15.994,0,15.994,0
			s-9.554-17.658-4.197-32.35c-5.936,2.17-13.389,3.762-21.061,2.529C445.948,1599.301,442.185,1597.998,439.651,1596.695z
			 M486.909,1598.432c-1.664,2.027-2.75,4.197-3.11,6.514c-1.881,14.547,4.125,25.113,27.356,25.113
			c23.23,0,54.279-2.316,64.627-25.547c6.226-13.969,27.791-69.984,50.517-121.006c-14.908-1.883-29.815-4.197-44.362-6.586
			c-12.595-2.1-25.113-4.197-37.705-6.514c48.271,17.297,41.252,37.561,31.696,76.643c-11,44.869-33.797,53.555-63.252,57.896
			C496.174,1607.334,489.59,1602.846,486.909,1598.432z"/>
		<path fill="#C6EEDB" d="M963.553,1488.717c2.75,26.053,5.429,49.43,6.586,55.508c3.11,15.488,48.851,25.477,53.845,44.004
			c4.994,18.525-5.355,35.75-13.679,37.488c-8.321,1.736-8.758,0-8.758,0s10.565-9.264,11.437-26.996
			c0.869-17.73-16.574-28.225-32.133-29.527c-15.562-1.23-12.595,3.547-5.211,7.02c7.381,3.549,28.586,6.227,25.258,28.301
			c-3.33,22-18.527,25.186-24.607,25.475c-6.15,0.217-14.4,0-14.4,0s20.554-31.266,1.447-45.232
			c-19.18-14.041-34.16-10.783-32.496-7.02c1.738,3.762,29.891,12.736,29.166,27.211c-0.795,14.547-7.961,25.113-28.805,25.113
			c-20.842,0-48.271-2.316-53.556-25.547c-2.461-10.93-8.976-47.262-17.226-86.92
			C895.667,1511.803,930.333,1501.961,963.553,1488.717z"/>
		<path fill="#9DDFBF" d="M1024.778,1604.367c-1.883,11.434-8.686,20.119-14.475,21.35c-8.322,1.736-8.758,0-8.758,0
			s9.916-8.758,11.291-25.475C1016.456,1602.123,1020.653,1603.787,1024.778,1604.367z M1001.258,1600.82
			c-0.071,1.158-0.146,2.389-0.36,3.691c-3.33,22-18.527,25.186-24.607,25.475c-6.15,0.217-14.4,0-14.4,0s8.105-12.303,9.408-24.896
			c3.834,2.822,9.408,5.211,16.572,3.98C995.396,1607.84,999.305,1604.223,1001.258,1600.82z M959.86,1606.393
			c-1.158,13.75-8.539,23.666-28.66,23.666c-20.842,0-48.271-2.316-53.555-25.547c-2.461-10.928-8.975-47.26-17.225-86.92
			c16.719-2.75,33.291-6.439,49.647-10.928c-6.658,7.961-11.074,15.416-11.146,21.422c-0.506,25.186,4.705,56.957,10.711,68.971
			c6.008,12.014,26.344,12.23,40.674,12.014C954.723,1608.998,957.762,1607.912,959.86,1606.393z"/>
		<path fill="#C6EEDB" d="M565.94,619.821c31.264,32.062,112.465,102.26,222.904,101.394
			c143.008-1.087,185.996-85.689,185.996-85.689s-13.027,4.777-15.777,5.283c-2.822,0.508-2.822,0.508-2.822,0.508
			s30.107-26.271,44.365-85.617c-5.211-5.5-10.494-10.928-15.776-16.354c-22.508-23.158-45.017-46.607-66.653-70.636
			c-1.304-1.52-2.679-2.967-3.98-4.485l-73.748,95.893L731.312,457.637c-22.869,24.461-46.027,48.776-69.404,72.731
			c-12.375,12.666-24.896,25.33-37.633,37.707c-10.205,9.986-20.699,20.047-31.627,29.312
			C583.889,604.839,574.915,612.366,565.94,619.821z M773.142,760.946c0,0,7.961-12.811,23.014-27.863
			c-2.389,0.072-4.85,0.146-7.235,0.146c-26.853,0.217-53.269-3.764-78.742-11.074C729.284,738.511,752.659,755.372,773.142,760.946
			z"/>
		<path fill="#9DDFBF" d="M565.94,619.821c26.416,27.066,88.51,81.418,173.766,97.123c-23.666-13.463-82.287-51.674-82.287-100.309
			c0-61.011,81.853-125.854,81.853-125.854l101.176,69.332L731.31,457.634c-22.869,24.461-46.026,48.776-69.403,72.731
			c-12.375,12.666-24.896,25.33-37.633,37.707c-10.205,9.986-20.699,20.048-31.627,29.312
			C583.889,604.839,574.915,612.366,565.94,619.821z M753.096,731.056c-14.547-1.881-28.877-4.849-42.918-8.902
			c14.765,12.594,31.987,25.478,48.49,33.291C755.772,748.425,752.37,738.366,753.096,731.056z M990.764,586.819
			c3.69-9.191,7.095-19.541,9.845-31.121c-5.211-5.5-10.494-10.928-15.777-16.354c-22.508-23.158-45.016-46.607-66.654-70.636
			c-1.303-1.52-2.678-2.967-3.979-4.485l-20.916,27.211C909.706,503.157,957.473,539.415,990.764,586.819z"/>
		<path fill="#C6EEDB" d="M1087.019,299.214c0,0-49.213-21.423-149.521-6.949c5.572,6.805,11.074,13.752,16.431,20.771
			c5.5,7.164,10.929,14.402,16.354,21.711c29.601-16.282,64.627-29.311,103.926-32.565c0,0-42.338,10.205-94.373,45.811
			c18.383,25.476,35.97,51.818,52.396,78.813C1050.614,395.396,1077.03,344.952,1087.019,299.214z"/>
		<path fill="#6BBF96" d="M1070.012,302.614c1.086-0.145,2.17-0.217,3.328-0.36C1072.762,302.253,1071.676,302.325,1070.012,302.614
			z M1073.848,302.253c-4.271,1.157-44.799,12.086-94.013,45.737c18.383,25.476,35.97,51.818,52.396,78.813
			c18.383-31.408,44.799-81.853,54.787-127.59L1073.848,302.253z"/>
		<path fill="#C6EEDB" d="M475.042,287.273c0,0,93.648-4.488,173.765,25.33c-20.19,10.494-43.931,26.994-68.897,52.904
			c-25.402-23.666-57.027-48.201-95.82-71.287c0,0,42.773,35.824,84.965,83.01c-30.178,34.16-46.824,63.471-56.016,85.906
			C499.358,435.923,475.042,375.06,475.042,287.273z"/>
		<path fill="#6BBF96" d="M484.087,294.22c0,0,42.773,35.823,84.965,83.01c-30.178,34.16-46.824,63.471-56.016,85.906
			c-13.678-27.213-37.994-88.076-37.994-175.863L484.087,294.22z"/>
		<path d="M769.667,517.487c-11.36-5.719-44.942-23.16-68.028-25.981c-28.08-3.476-38.142,6.803-27.356,9.77
			c6.297,1.738,16.936,3.475,30.035,6.805c-5.789,7.021-9.554,17.224-9.554,28.658c0,20.988,12.446,37.996,27.791,37.996
			c15.342,0,27.717-17.008,27.717-37.996c0-4.414-0.578-8.756-1.592-12.736c7.815,3.039,13.461,4.775,17.66,5.646
			C780.378,532.468,781.897,523.638,769.667,517.487z"/>
		<ellipse fill="#FFFFFF" cx="714.665" cy="528.198" rx="8.25" ry="11.797"/>
		<path d="M869.901,522.843c10.277-5.72,40.746-23.232,61.662-26.056c25.547-3.399,34.666,6.875,24.895,9.843
			c-5.789,1.737-15.414,3.401-27.283,6.805c5.283,6.947,8.611,17.225,8.611,28.658c0,20.987-11.217,37.996-25.111,37.996
			c-13.969,0-25.186-17.009-25.186-37.996c0-4.486,0.506-8.756,1.447-12.736c-7.095,3.039-12.23,4.775-15.994,5.645
			C860.204,537.823,858.829,528.993,869.901,522.843z"/>
		
			<ellipse transform="matrix(-0.9943 -0.1063 0.1063 -0.9943 1750.2767 1170.0105)" fill="#FFFFFF" cx="906.331" cy="538.343" rx="7.292" ry="11.807"/>
		<path d="M869.469,614.755c7.383,4.92-12.955,21.711-21.422,25.475c-8.467,3.836-17.875-9.047-26.705-15.705
			C800.426,608.819,853.764,604.333,869.469,614.755z"/>
		<path d="M853.04,667.441c-3.33-4.053-10.783-10.711-14.764-10.928c-4.705-0.289-20.844,5.5-29.746,12.375
			c-13.027,9.988-2.895,12.738,10.928,5.574c6.949-3.619,12.955-6.658,17.949-7.095c3.256-0.289,8.033,6.152,11.726,8.83
			C858.975,683.218,858.758,674.39,853.04,667.441z"/>
		<path fill="#00954C" d="M764.528,777.013c0,0-104.938-31.049-214.942-86.051c-110.006-55.002-157.047-90.466-157.047-90.466
			s27.717-74.108,89.379-171.521c4.92,14.186,10.565,28.008,17.151,41.107l3.328,6.586c-6.369,20.407-5.571,32.061-5.571,32.061
			s53.481-97.412,112.465-151.691c58.983-54.278,94.229-65.063,94.229-65.063s-15.486,0-39.877,9.48l-9.408-3.474
			c-26.054-9.699-53.916-16.211-81.779-20.41C613.708,174.805,612.55,76.452,612.55,76.452s189.035,63.036,329.002,246.064
			c139.967,182.957,168.482,312.43,168.482,312.43s-50.516,54.063-157.988,87.57c-107.473,33.436-140.979,48.488-140.979,48.488
			s72.951-37.056,144.961-59.996c72.01-23.015,130.994-83.011,130.994-83.011s-23.955-30.541-90.974-99.512
			c-67.016-68.971-82.504-89.018-82.504-89.018l-74.977,97.484L730.589,435.487c0,0-104.506,112.974-148.002,150.027
			c-43.566,36.982-73.021,58.982-73.021,58.982S649.022,731.489,764.528,777.013z"/>
		<path fill="#00793D" d="M764.528,777.013c0,0-104.938-31.049-214.942-86.051c-110.006-55.002-157.047-90.466-157.047-90.466
			s98.715,12.812,192.437-39.659c25.91-14.548,46.971-27.863,64.049-39.589c-24.896,25.478-50.08,50.3-66.438,64.269
			c-43.565,36.981-73.021,58.981-73.021,58.981S649.022,731.489,764.528,777.013z M1110.032,634.946
			c0,0-50.515,54.063-157.987,87.57c-107.474,33.436-140.979,48.487-140.979,48.487s72.951-37.055,144.961-59.995
			c72.01-23.015,130.994-83.011,130.994-83.011s-23.955-30.541-90.974-99.512C996.046,528.487,1062.411,591.233,1110.032,634.946z"
			/>
		<path fill="#6BBF96" d="M612.549,76.452c0,0,189.035,63.036,329.002,246.064c139.967,182.957,168.481,312.43,168.481,312.43
			C1018.049,410.521,832.993,183.417,612.549,76.452z M496.825,508.73c0,0,53.482-97.412,112.465-151.691
			c58.984-54.279,94.229-65.063,94.229-65.063C623.62,344.88,553.493,431.87,496.825,508.73z M913.542,439.47l-74.977,97.483
			L730.587,435.489l109.715,70.853L913.542,439.47z"/>
		<path fill="#6BBF96" d="M693.604,767.241c16.789,59.346,14.33,165.007-49.357,167.832
			c-64.629,2.822-88.729-82.143-141.196-107.617c-24.752-11.94-35.535-7.743-35.535-7.743s29.312-28.226,76.063,18.743
			c46.752,47.041,61.442,74.037,95.965,77.511c34.521,3.547,37.487-44.002,37.487-44.002s-12.015,33.797-35.244,34.736
			c-23.231,1.016-58.478-41.469-84.748-69.981c-26.271-28.517-53.987-36.26-53.987-36.26c19.539-21.351,20.625-39.658,37.487-59.271
			c5.14-6.008,21.854-21.566,29.166-23.088C606.251,735.325,655.825,753.13,693.604,767.241z"/>
		<path fill="#37A46F" d="M693.604,767.241c16.789,59.346,14.33,165.007-49.357,167.832c-5.211,0.217-10.133-0.145-14.908-1.014
			c35.75,2.025,66.51-33.146,60.791-84.096c-5.86-52.036-39.514-88.366-62.457-107.473
			C650.542,751.319,673.702,759.788,693.604,767.241z"/>
		<path fill="#C6EEDB" d="M479.096,813.343c12.664-4.197,35.101-4.343,64.481,25.112c46.752,47.041,61.443,74.037,95.965,77.511
			c9.988,1.014,17.369-2.244,22.726-7.381l0,0c0,0-8.396,15.559-37.127,12.303c-28.729-3.258-69.91-68.246-101.537-91.913
			C508.622,817.757,492.192,814.067,479.096,813.343z M514.628,805.093c-7.092-3.33-11.578-4.634-11.578-4.634
			c19.539-21.35,20.625-39.657,37.488-59.271c5.139-6.008,21.855-21.566,29.166-23.088c3.111,1.449,6.295,2.896,9.48,4.344
			c-12.812,6.441-28.226,17.152-36.549,35.969C531.202,784.177,519.84,799.013,514.628,805.093z"/>
		<path fill="#F6C000" d="M829.157,778.605c-2.533,30.541-28.08,54.568-59.272,54.568c-32.854,0-59.49-26.634-59.49-59.563
			c0-0.289,0-0.578,0-0.869l18.312,5.937c2.461,20.553,19.975,36.475,41.18,36.475c18.889,0,34.883-12.664,39.877-29.961
			L829.157,778.605z"/>
		<path fill="#FFE662" d="M720.889,776.144l7.815,2.533c2.461,20.553,19.976,36.475,41.181,36.475
			c18.89,0,34.883-12.664,39.877-29.961l9.408-3.187c-3.836,23.449-24.244,41.398-48.851,41.398
			C743.76,823.403,722.046,802.487,720.889,776.144z"/>
		<path fill="#6BBF96" d="M843.776,773.61c0,0-0.725,69.549,38.285,120.21c39.008,50.66,144.959,101.682,212.99,190.627
			c67.957,89.02,67.449,165.008,67.449,165.008c7.094-36.041-9.045-110.148-25.98-143.008
			c-48.996-94.879-185.996-171.449-212.483-197.936c-26.487-26.561-29.526-51.529-29.526-51.529s12.014,33.508,66.51,70.49
			c54.495,36.982,108.268,81.852,133.524,107.762c25.257,25.908,35.968,46.246,35.968,46.246s-43.205-80.262-56.738-118.256
			c-10.35-29.238-33.074-170.727-124.336-226.234C899.141,751.538,843.776,773.61,843.776,773.61z"/>
		<path fill="#C6EEDB" d="M1162.937,1205.672c-0.58-5.066-1.23-10.277-2.1-15.563
			C1161.343,1196.191,1162.067,1201.328,1162.937,1205.672z M1155.698,1163.551c-5.139-22.363-12.086-43.352-19.178-57.104
			c-37.996-73.674-129.111-136.275-180.352-173.041l0,0C956.169,933.406,1123.276,1055.066,1155.698,1163.551z M1097.223,1037.984
			c23.376,24.605,33.291,43.496,33.291,43.496s-43.205-80.262-56.737-118.256c-10.351-29.238-33.074-170.727-124.336-226.234
			c-6.078,1.736-12.158,3.617-18.312,5.5c21.856,12.23,70.78,46.318,99.655,119.195c37.996,96.039,26.271,89.525,45.017,131.572
			C1084.342,1012.439,1091.723,1027.42,1097.223,1037.984z"/>
		<path fill="#37A46F" d="M843.776,773.61c0,0-0.725,69.549,38.285,120.21c5.572,7.236,12.52,14.545,20.553,21.928
			c-10.783-20.697-18.311-39.947-21.061-56.596c-7.236-43.783-1.592-77.654,8.033-102.695
			C863.243,765.866,843.776,773.61,843.776,773.61z"/>
		<path fill="#00954C" d="M810.342,1009.762c34.666,0,92.563,0.648,143.367,7.889c-0.795-14.186-1.155-28.299-1.304-42.338
			c-13.461-10.063-26.922-20.191-40.021-30.688c-15.054-12.229-30.83-25.838-42.699-41.252
			c-19.687-25.549-31.336-56.739-37.199-88.222c-4.414,6.658-9.696,12.305-15.485,16.937
			c-0.941,59.272-19.324,130.702-33.728,177.891C792.247,1009.832,801.294,1009.762,810.342,1009.762z M809.616,837.298
			c-28.151,17.44-66.147,15.053-91.694-9.408c0.869,37.489-5.789,88.729-39.226,111.743c-10.133,6.945-21.567,10.492-33.799,11
			c-13.1,0.578-25.69-1.811-37.705-7.164c-4.85,4.848-12.229,12.156-19.252,18.961c3.33,15.488,6.369,34.594,7.744,56.451
			c18.095-1.449,36.187-2.68,54.279-3.766c39.227-2.389,78.596-4.195,117.895-4.922
			C790.075,952.369,803.103,881.301,809.616,837.298z M585.335,1132.574c-0.145,0.436-0.217,0.869-0.36,1.305
			c-30.033,115.578-108.558,307.434-108.558,307.434s123.828,26.055,184.91,30.035s133.599,6.514,133.599,6.514
			s4.633-226.668-19.179-354.91c-13.68,0.145-27.285,0.361-40.891,0.65c-38.285,0.867-76.643,2.461-114.781,5.645
			C608.567,1130.188,596.915,1131.273,585.335,1132.574z M790.655,1122.879c12.955,64.121,25.765,148,24.533,309.242
			c-0.217,27.936-0.434,52.832-0.506,75.051c41.613-2.75,111.888-13.68,188.603-53.846c-3.33-68.898-10.276-174.486-24.101-244.256
			c-5.502-27.717-10.422-55.291-14.401-82.793c-7.961-0.289-15.851-0.578-23.737-0.867
			C890.962,1123.674,840.735,1122.732,790.655,1122.879z"/>
		<path fill="#6BBF96" d="M950.309,1125.773c3.69,27.355,8.033,56.813,12.229,79.898c8.83,47.766,20.265,175.645,21.422,257.207
			c6.369-2.967,12.812-6.15,19.324-9.553c-3.33-68.898-10.276-174.486-24.1-244.256c-5.502-27.717-10.422-55.291-14.402-82.793
			C959.934,1126.135,955.155,1125.918,950.309,1125.773z"/>
		<path fill="#00793D" d="M952.696,991.232c-0.145-5.283-0.219-10.566-0.291-15.922c-13.461-10.061-26.922-20.191-40.021-30.686
			c-15.054-12.23-30.83-25.838-42.699-41.252c-19.687-25.549-31.336-56.74-37.199-88.223c-4.414,6.658-9.696,12.305-15.485,16.936
			c-0.146,7.164-0.508,14.402-1.086,21.784l0,0c0,0,25.33,68.609,80.983,99.078C929.753,970.971,944.735,983.777,952.696,991.232z
			 M659.59,1471.203c-19.539-3.908-43.351-8.758-63.47-13.244c-42.481-9.555-68.465-19.035-68.465-19.035
			s74.615-175.428,95.388-309.896c-1.015,0.072-1.955,0.146-2.967,0.219c-11.508,0.939-23.16,2.025-34.74,3.33
			c-0.146,0.434-0.217,0.867-0.36,1.303c-30.033,115.578-108.558,307.434-108.558,307.434S597.856,1466.859,659.59,1471.203z
			 M632.596,1016.201c5.283-55.438,11.869-42.48,42.049-56.232c39.226-17.875,42.408-103.928,42.408-103.928
			s25.621,13.174,58.769,10.424c14.547-1.23,24.1-3.838,30.178-6.369c1.375-8.105,2.605-15.778,3.619-22.797
			c-28.152,17.44-66.148,15.053-91.695-9.408c0.869,37.489-5.789,88.729-39.225,111.743c-10.133,6.945-21.568,10.492-33.799,11
			c-13.1,0.578-25.691-1.811-37.705-7.164c-4.85,4.848-12.23,12.156-19.252,18.961c3.33,15.488,6.369,34.594,7.744,56.451
			C607.989,1017.865,620.292,1016.996,632.596,1016.201z"/>
		<path fill="#6BBF96" d="M596.337,1034.512c59.199-4.703,245.92-17.369,358.313-0.867c1.735,25.547,4.414,51.238,7.89,77.004
			c-92.709-3.619-253.664-7.094-373.513,5.861C595.034,1087.271,596.844,1059.48,596.337,1034.512z"/>
		<path fill="#C6EEDB" d="M631.292,1031.979c79.103-5.355,227.972-12.375,323.357,1.666c1.736,25.547,4.414,51.238,7.889,77.004
			c-4.559-0.219-9.336-0.363-14.33-0.58c-4.631-35.535-7.815-64.121-7.815-64.121s-9.265-4.486-63.47-8.975
			C822.644,1032.412,631.292,1031.979,631.292,1031.979z"/>
		<path fill="#37A46F" d="M596.337,1034.512c8.974-0.725,20.842-1.594,34.955-2.533c-1.086,14.547-2.244,32.496-3.619,54.932
			c-0.506,8.539-1.303,17.297-2.461,26.27c-12.375,1.014-24.461,2.1-36.186,3.33C595.034,1087.271,596.844,1059.48,596.337,1034.512
			z"/>
		<path fill="#C6EEDB" d="M333.192,879.49c18.889,49.432,52.252,98.715,108.992,88.004c-1.158,5.355-7.238,12.158-14.764,16.283
			c0,0,103.78,19.396,164.283-49.068c-18.31-12.592-33.074-30.828-46.97-47.691c-11.651-14.111-38.285-45.015-61.299-51.456
			c-9.625,7.961-17.586,10.928-22.869,11.941c13.533,17.586,36.836,30.25,27.354,66.438c-12.158-49.068-35.1-48.563-54.93-72.663
			c-10.639-13.027-12.375-29.238-0.941-43.352c9.336-11.65,4.562-41.613-10.059-51.963c-14.619-10.421-24.391,1.954-19.035,17.659
			c5.428,15.703-4.992,13.822-15.414,21.929c-10.494,8.104-9.191,24.389-9.191,24.389s-6.008-2.822-6.514-10.564
			c-0.578-7.743,2.027-12.016,2.027-12.016s-40.24,5.211-46.103-12.158c-5.789-17.297,5.935-28.657-0.146-37.633
			c-6.08-8.975-19.901-5.789-24.896,0.217c-4.922,6.009-6.006,12.738-6.006,12.738s15.196-0.508,17.297,11.361
			c2.17,11.869-5.14,27.646-5.14,27.646s15.125,3.619,13.172,16.283c-1.955,12.666,0.289,14.691,13.967,12.666
			c13.679-2.027,26.199-1.592,32.713,7.816c1.521,2.241,2.533,4.559,3.185,6.803c0,0-11.94-9.336-30.181-5.066
			c-25.258,5.861-28.875-0.797-28.875-0.797s-6.803,5.574-12.883,5.791c-6.079,0.217-6.946-4.416-6.946-4.416
			s18.164-5.428,18.383-19.104c0.217-13.75-20.481-12.158-31.699-3.111c-6.586,5.355-8.396,16.355-3.258,29.238
			C288.321,865.813,325.231,858.648,333.192,879.49z M267.262,800.099c0,0-8.828-18.021,3.908-29.816
			c13.244-12.232,42.481-11.869,25.767,18.309C296.935,788.591,283.546,786.421,267.262,800.099z"/>
		<path fill="#FFFFFF" d="M496.971,841.64c-4.56-2.678-9.119-4.849-13.533-6.078c-9.625,7.961-17.586,10.928-22.869,11.941
			c2.679,3.545,5.789,6.875,8.974,10.202C476.198,855.898,486.26,851.557,496.971,841.64z"/>
		<path fill="#9DDFBF" d="M336.159,886.943c19.324,46.826,52.181,90.756,106.025,80.551c-1.158,5.355-7.238,12.158-14.764,16.283
			c0,0,103.78,19.396,164.283-49.068c-18.31-12.592-33.074-30.828-46.97-47.691c-1.735-2.025-3.69-4.414-5.935-7.021
			c3.617,14.188,6.295,33.221,0.506,48.707c-10.783,28.73-62.891,35.244-62.891,35.244s6.15-5.717,8.395-11.578
			s-5.717-7.383-30.541-1.666c-24.824,5.721-63.471-2.531-95.604-41.18C350.635,899.826,343.034,892.52,336.159,886.943z"/>
		<path fill="#FFFFFF" d="M410.485,742.202c-7.6,1.013-11.289,10.349-7.526,21.422c5.429,15.703-4.992,13.822-15.414,21.929
			c-10.494,8.104-9.19,24.389-9.19,24.389s-6.008-2.822-6.515-10.564c-0.578-7.743,2.026-12.016,2.026-12.016
			s-40.24,5.211-46.102-12.158c-5.789-17.297,5.934-28.657-0.145-37.633c-5.937-8.758-18.238,6.225-16.791,17.875
			c1.52,1.594,2.75,3.691,3.186,6.441c2.17,11.869-5.139,27.646-5.139,27.646s15.125,3.619,13.172,16.283
			c-1.955,12.666,0.289,14.691,13.967,12.666c13.678-2.027,26.199-1.592,32.713,7.816c1.52,2.241,2.533,4.559,3.184,6.803
			c0,0-11.941-9.336-30.18-5.066c-25.258,5.861-28.875-0.797-28.875-0.797s-6.804,5.574-12.883,5.791
			c-6.08,0.217-6.947-4.416-6.947-4.416s18.164-5.428,18.383-19.104c0.145-10.351-11.58-12.015-22.146-8.322
			c5.646,1.809,11,4.703,10.929,9.119c-0.289,9.408-18.526,11.289-15.271,19.901c3.256,8.611,18.236,22,56.738,16.789
			c38.502-5.282,54.496,15.777,55.293-20.407c0.723-36.113,17.225-33.58,20.48-49.574
			C420.401,762.394,405.348,754.288,410.485,742.202z M285.934,763.116c1.812,2.75,2.97,6.441,2.461,11.074
			c-0.724,6.729-3.545,12.592-6.295,16.86c8.828-3.399,14.836-2.461,14.836-2.461C308.585,767.532,297.874,761.019,285.934,763.116z
			"/>
		<path fill="#C6EEDB" d="M969.413,1030.457c9.191,17.01,18.961,36.621,26.345,55.654c13.026,33.363,20.625,64.268,24.461,82.07
			c5.862-4.561,14.547-7.021,23.088-7.021c0,0-9.987,4.127-17.877,15.488l25.401,14.691c0.22-4.053,0.797-8.25,1.955-12.23
			c4.486-15.27,16.211-20.77,11,0.941c-5.283,21.783,7.166,57.535,4.271,56.016c-2.967-1.447-14.547-14.979-26.271-12.229
			c-11.797,2.75-14.258,22,11.724,35.461c25.981,13.531,51.022,0.289,51.24-32.205c0.071-5.211,3.256-53.916,7.526-19.471
			c0.65,5.574,1.013,12.955,1.156,19.977l19.252,11.074c2.822-18.455,5.5-40.387-1.23-58.189
			c-11.725-31.047-28.731-60.285-48.778-86.557c-31.916-41.758-72.806-75.195-114.42-106.748l-0.289-0.217
			C968.11,998.182,968.764,1016.42,969.413,1030.457z"/>
		<path fill="#9DDFBF" d="M969.413,1030.457c9.191,17.01,18.961,36.621,26.345,55.654c13.026,33.363,20.625,64.268,24.461,82.07
			c5.862-4.561,14.547-7.021,23.088-7.021c0,0-9.987,4.127-17.877,15.488l15.199,8.83c-1.304-4.633-1.229-10.35,1.81-17.297
			c9.19-21.205-11.289-78.74-17.804-109.209c-2.896-13.607,3.256-16.863,10.929-16.357c-21.277-19.756-44.146-37.85-67.308-55.436
			l-0.289-0.217C968.11,998.182,968.764,1016.42,969.413,1030.457z M1036.937,1226.297c-7.02,6.225-5.283,21.713,16.572,33.002
			c25.981,13.531,51.022,0.289,51.24-32.205c0.071-5.211,3.256-53.916,7.526-19.471c0.649,5.574,1.013,12.955,1.155,19.977
			l19.252,11.074c1.664-11.074,3.328-23.377,2.896-35.393c-8.756-28.514-34.882-18.311-37.416-3.547
			c-3.039,17.371,1.521,52.254-25.476,52.254C1053.221,1251.988,1041.858,1235.561,1036.937,1226.297z"/>
		<path fill="#37A46F" d="M344.917,936.086c-6.297,32.277-12.303,76.279-14.908,134.9c-6.949,160.592,17.226,221.604,17.226,221.604
			s58.041-33.363,178.033-21.711c3.112-8.539,6.08-17.152,9.047-25.691c13.101-37.779,25.838-76.426,35.535-115.145
			c9.19-36.402,12.592-72.59,10.205-110.15c-1.015-16.428-3.112-32.783-6.297-48.922c-24.97,16.789-54.207,26.053-84.894,29.525
			c-38.791,4.344-59.201,0.072-95.17-9.844c13.027-7.234,11.941-7.381-0.867-12.881
			C373.432,969.447,357.653,954.322,344.917,936.086z M1148.026,1428.574c0,0,9.264-51.094,13.463-115.215l-31.771-16.354
			l-0.94,1.809c-9.479,17.803-25.187,22.436-44.074,20.625l0,0c-6.226-0.578-12.521-2.242-18.166-4.848
			c-6.804-3.113-12.81-7.455-17.515-13.102l-7.961-1.375c-16.283-2.895-28.731-11.508-35.824-24.1
			c1.955,17.008,3.619,33.941,5.14,50.732c1.446,15.994,2.75,31.916,3.908,47.908
			C1094.038,1404.258,1148.026,1428.574,1148.026,1428.574z M1003.284,1163.84c-0.508-2.242-1.086-4.486-1.594-6.658
			c-5.428-22.146-12.158-44.219-20.48-65.424c-2.244-5.861-4.776-11.725-7.381-17.516c2.822,26.416,6.584,52.689,10.929,78.887
			L1003.284,1163.84z"/>
		<path fill="#329464" d="M525.267,1270.879c3.113-8.539,6.08-17.152,9.047-25.691c13.1-37.779,25.838-76.426,35.535-115.145
			c9.191-36.402,12.592-72.59,10.205-110.15c-1.014-16.428-3.113-32.783-6.297-48.922c-23.521,15.773-50.877,24.967-79.537,28.875
			C490.239,1069.828,494.364,1165.068,525.267,1270.879z M1014.284,1374.658c0,0,7.961-30.396,14.836-77.943
			c-10.494-4.271-18.672-11.436-23.883-20.697c1.955,17.008,3.619,33.939,5.14,50.73
			C1011.823,1342.742,1013.126,1358.664,1014.284,1374.658z M1003.284,1163.84c-0.508-2.242-1.086-4.486-1.594-6.658
			c-5.428-22.146-12.158-44.219-20.48-65.424c-2.244-5.861-4.776-11.725-7.381-17.516c2.822,26.416,6.584,52.689,10.929,78.887
			L1003.284,1163.84z"/>
		<path fill="#C6EEDB" d="M344.917,936.086c-6.297,32.277-12.303,76.279-14.908,134.9c-6.949,160.592,17.226,221.604,17.226,221.604
			s-28.806-166.096,6.946-344.49C350.924,944.264,347.812,940.281,344.917,936.086z"/>
		<g>
			<path d="M1249.349,1448.623c39.152,13.316,78.596,13.316,110.945,1.664c-15.633-0.217-32.931-4.994-49.357-14.402
				c-31.41-18.166-49.574-47.91-46.318-72.369c-16.936,22.867-27.719,48.92-33.002,72.297
				c-69.043,31.988-100.451-3.619-100.451-3.619c36.619-13.172,52.758-34.086,61.082-59.27
				c12.158-37.055-9.336-42.266-46.752-63.832l-30.469-17.588c4.92-2.967,9.408-7.02,13.172-11.941
				c6.367-8.322,10.711-19.828,9.625-30.539c0.65,0.072,1.303,0.217,1.953,0.289c3.98,0.578,8.033,0.795,12.086,0.506l35.607,20.557
				c45.088,26.053,38.213,25.4,76.426,2.75c33.436-19.83,73.746-17.518,113.912,28.656c-31.556,1.594-57.607,11.941-78.597,27.143
				c19.181-4.271,43.496-0.146,66.004,12.881c31.479,18.094,49.574,47.908,46.317,72.371c17.006-22.002,25.258-51.6,19.976-87.785
				c38.429-4.416,107.979-8.975,142.935,5.645c0,0-27.937,17.514-36.767,25.113c-8.828,7.525-15.56,31.771-21.494,66.293
				c-5.935,34.447-48.562,109.279-140.11,112.898c-91.551,3.617-87.064-12.883-142.283,2.967
				c-55.148,15.777-77.076,27.211-77.076,27.211S1193.911,1498.848,1249.349,1448.623z"/>
			<path fill="#F6C000" d="M1400.532,1424.885c13.027-22.58-4.414-56.955-38.862-76.857c-34.521-19.902-73.022-17.803-86.051,4.777
				c-12.953,22.504,4.416,56.881,38.938,76.783C1349.005,1449.49,1387.505,1447.393,1400.532,1424.885z"/>
			<path fill="#DBA500" d="M1385.913,1416.416c21.93-37.994-73.746-93.215-95.676-55.219
				C1268.31,1399.191,1363.985,1454.412,1385.913,1416.416z"/>
			<path fill="#BC8700" d="M1371.294,1408.021c3.764-6.439-8.105-20.264-26.488-30.83c-18.381-10.637-36.258-13.967-39.949-7.598
				c-3.689,6.439,8.178,20.262,26.488,30.828C1349.728,1411.061,1367.604,1414.391,1371.294,1408.021z"/>
			<path fill="#FFFFFF" d="M1391.413,1416.852c6.151-4.197,5.862-15.344-0.65-24.896c-6.586-9.625-16.791-13.969-22.941-9.842
				c-6.151,4.197-5.862,15.342,0.65,24.967C1374.985,1416.635,1385.263,1421.049,1391.413,1416.852z M1363.696,1376.178
				c4.054-2.75,5.064-8.248,2.314-12.229c-2.678-4.053-8.178-5.066-12.23-2.316c-3.979,2.678-4.994,8.178-2.315,12.158
				C1354.214,1377.842,1359.716,1378.855,1363.696,1376.178z"/>
			<path fill="#4D4D4D" d="M1535.435,1339.125c-27.791-2.896-61.734-1.086-86.92,1.229c21.205,0.869,47.693,4.271,63.471,5.791
				c-31.699,34.811-17.946,91.621-69.188,141.125c-20.916,20.191-47.041,28.586-75.557,33.725c2.75-0.072,5.5-0.145,8.178-0.289
				c35.391-1.375,66.945-14.764,91.623-40.166C1516.038,1430.313,1493.819,1369.016,1535.435,1339.125z M1271.276,1296.643
				c-11.869,7.02-27.646,18.527-41.686,19.105c-8.396,0.289-15.851-2.531-23.232-6.225c-9.191-4.631-22.217-12.592-31.191-17.73
				l-61.951-36.766c0.437-2.822,0.726-6.152,0.869-10.061l65.642,38.938c8.901,5.211,18.021,10.855,27.285,15.486
				c7.31,3.764,14.765,6.586,23.158,6.225c14.041-0.578,29.817-12.086,41.688-19.104c26.559-15.777,50.805-10.711,71.938,4.631
				C1311.226,1277.318,1289.515,1285.785,1271.276,1296.643z M1037.878,1210.303l-47.838-28.441l-2.172-11.797l62.674,37.199
				c0.072,1.592,0.146,2.895,0.289,3.689C1051.411,1214.066,1045.476,1209.361,1037.878,1210.303z"/>
		</g>
		<path fill="#C6EEDB" d="M1058.503,1288.029c3.765,6.006,9.119,9.914,14.476,12.375c4.125,1.883,8.687,3.039,13.172,3.477h0.071
			c11.941,1.156,22.219-0.146,28.805-12.377c-11.58-3.258-17.441-9.625-20.046-16.572c-13.244,7.02-28.299,6.514-41.832,1.303
			C1054.161,1280.143,1055.897,1284.051,1058.503,1288.029z M1003.356,1255.244c-0.58-2.895-0.869-6.148-0.797-9.625
			c0.145-8.9,1.592-15.922,3.98-21.275c2.75-6.441,8.541-15.705,2.244-22.291c-5.5-5.719-14.98,0.797-14.98,0.797
			c0.217,1.086,0.434,2.17,0.65,3.184C995.54,1211.605,1001.981,1254.379,1003.356,1255.244z M1014.212,1248.588
			c-0.434,25.475,17.515,34.016,29.527,36.111c-2.895-5.281-4.27-10.564-4.486-15.701c-8.252-5.432-15.416-12.666-19.18-21.857
			c-3.111-7.672-3.256-16.283,0-23.594C1016.601,1229.338,1014.356,1237.516,1014.212,1248.588z"/>
		<path fill="#9DDFBF" d="M1058.503,1288.029c3.765,6.006,9.119,9.914,14.476,12.375c4.125,1.883,8.687,3.039,13.172,3.477h0.071
			c3.328,0.359,6.586,0.434,9.625,0.217c-15.196-3.039-25.041-16.283-29.672-24.461c-4.414-0.652-8.83-1.813-13.026-3.402
			C1054.161,1280.143,1055.897,1284.051,1058.503,1288.029z M1006.758,1200.531c-4.485,3.33-8.25,8.322-10.565,15.635
			c-0.795-4.924-1.447-8.688-1.736-10.135c-0.217-1.014-0.434-2.098-0.65-3.184
			C993.805,1202.85,1001.185,1197.711,1006.758,1200.531z M1019.278,1244.969c0.146,10.133,1.23,21.133,4.342,29.818
			c-5.571-5.572-9.625-13.896-9.408-26.199c0.146-11.072,2.39-19.25,5.861-25.041
			C1017.106,1230.203,1016.962,1237.805,1019.278,1244.969z"/>
		<path fill="#FFFFFF" d="M1087.019,299.214c0,0-49.213-21.423-149.521-6.949c3.765,4.633,7.527,9.336,11.22,14.041
			C982.729,297.767,1031.653,290.817,1087.019,299.214z M475.042,287.273c0,0,93.648-4.488,173.765,25.33
			c-6.875,3.545-14.11,7.816-21.64,12.881C572.815,295.161,475.042,287.273,475.042,287.273z"/>
		<path fill="#FFDA19" d="M336.159,599.773c0,0-9.336,49.359-16.571,49.359c-18.744,0-13.606-101.031-13.101-116.953
			c0,0-13.244,14.399-16.791,22.072c-3.617,7.672-3.69,7.889-3.69,7.889c-1.592-21.711-7.599-34.305,2.315-83.734
			c-11.145,6.08-44.362,32.785-52.18,51.313c-9.914-27.863-11.072-55.654-9.625-84.168c12.809,7.961,30.105,16.211,45.232,20.914
			c0,0-26.851-89.957,6.586-227.246c0,0-21.351,54.205-27.646,101.826c-6.297,47.692-6.73,87.643-6.73,87.643
			c-7.311-5.717-54.641-36.693-55.438-41.613c-8.684,54.496,3.33,142.283,43.93,190.627c7.961-21.639,20.047-42.266,35.103-61.588
			c0,0-4.125,35.533,3.617,66.582c7.744,31.047,7.383,31.697,7.383,31.697c0.578-3.474,7.381-24.678,11.94-32.928
			c1.81,20.19,23.595,83.516,3.836,83.807c-12.229,0.146-42.99-21.062-42.99-21.062s18.455,44.002,7.238,51.964
			c-13.461,9.696-33.363-11.363-43.424-19.902c9.48-3.619,20.988-9.553,29.746-15.777c0,0-59.346-22.362-119.342-96.543
			c16.5,31.625,48.996,76.279,81.129,92.49c-3.039,3.402-30.252,14.33-38.502,16.283c21.639,22.725,79.246,36.692,79.246,52.182
			c0,10.06-61.588,30.539-61.588,30.539s34.377,8.181,38.285,21.568c3.836,13.315-15.271,22.145-15.271,22.145
			s23.738-1.881,27.213,12.812c3.547,14.619-29.963,50.227-29.963,50.227s44.002-5.283,49.213,3.98
			c5.283,9.264,1.521,17.514,1.521,17.514s11.506-9.625,25.258-3.691c13.678,5.863,19.033,46.68,19.033,46.68
			s12.664-29.816,27.646-31.48c14.908-1.666,21.133,10.203,21.133,10.203s5.209-22.65,18.453-25.4
			c13.244-2.822,43.207,30.9,43.207,30.9s-2.461-43.564,4.053-50.225c6.514-6.658,22.508,2.605,22.508,2.605
			s-10.205-23.738,3.98-27.719c14.184-3.979,59.707-2.969,59.707-2.969s-34.306-35.389-34.306-50.008
			c0-14.691,22.074-23.086,22.074-23.086s-21.276-6.806-18.963-15.705c2.244-8.83,26.345-30.47,26.345-30.47
			s-43.353-4.993-49.646-14.547c-6.225-9.479,7.309-23.231,7.309-23.231s-33.508,7.744-39.514,0.797
			c-6.008-7.021,9.697-54.353,9.697-54.353c-49.431,47.549-51.24,30.47-41.035-27.646c7.02,7.383,16.936,15.776,25.981,21.424
			c0,0-2.101-63.326,43.351-147.205c0,0-23.23,31.699-35.535,61.732c-12.375,30.035-19.467,56.016-19.467,56.016
			c-3.765-4.992-29.383-33.363-29.021-36.691c-8.105,18.236-9.625,48.705-9.553,76.568
			C359.753,677.5,338.766,618.88,336.159,599.773z M307.065,879.348c-1.086-0.438-2.17-0.869-3.184-1.303
			c-1.375-2.533-3.908-6.01-8.541-9.338c-8.685-6.367-17.947-4.416-18.021-4.416c-7.092-5.717-12.737-12.881-16.5-22.507
			c-3.041-7.67-4.633-16.354-3.908-24.533l-4.776-9.77c-7.961-16.213-6.08-36.91,7.672-49.576c2.895-2.678,6.149-4.92,9.625-6.729
			c3.401-1.736,7.02-3.111,10.854-4.054c1.229-7.02,4.994-14.619,9.479-20.047c12.883-15.561,39.877-16.5,51.818,1.086
			c1.883,2.896,3.258,6.08,3.98,9.48c1.737,7.961-0.289,14.041-1.881,21.565c-3.836,17.806,43.061,19.83,41.18-0.36
			c-1.014-11.289,2.533-22.869,12.736-29.384c11.002-7.092,23.955-4.413,34.088,2.822c10.205,7.238,16.646,19.181,19.758,31.119
			c3.619,14.113,3.473,31.99-5.646,44.148c-36.767,1.375-28.008,34.014-28.008,34.014s-8.541-6.006-16.356,0
			c-7.744,5.936-9.625,27.141-9.625,27.141s-8.687-4.705-26.488-6.008c-17.73-1.375-23.883,14.475-23.883,14.475
			s-10.566-10.133-19.975-8.395C314.883,870.012,309.671,875.871,307.065,879.348z"/>
		<path fill="#FFDA19" d="M431.618,664.618c20.119-39.369,48.707-86.194,69.621-102.334c-5.5-3.907-23.737-7.164-34.811-9.119
			c16.355-19.901,52.977-40.6,88.076-51.817c-20.336,16.067-36.691,25.186-47.258,43.856c9.697,2.97,27.355,9.119,36.547,14.619
			C543.794,559.823,486.187,586.384,431.618,664.618z"/>
		<path fill="#FFDA19" d="M340.067,559.245c0.941-44.146,6.369-98.787,18.094-122.381c-6.586-1.158-24.463,3.836-35.317,6.875
			c6.151-25.041,30.035-59.635,56.813-84.965c-11.363,23.305-22.146,38.646-23.449,60.068c9.987-1.521,28.588-3.763,39.227-2.75
			C395.434,416.093,355.12,465.089,340.067,559.245z"/>
	</g>
</g>
</svg>
