<?xml version="1.0" encoding="utf-8"?>
<!-- Generator: Adobe Illustrator 16.0.0, SVG Export Plug-In . SVG Version: 6.00 Build 0)  -->
<!DOCTYPE svg PUBLIC "-//W3C//DTD SVG 1.1//EN" "http://www.w3.org/Graphics/SVG/1.1/DTD/svg11.dtd">
<svg version="1.1" id="Layer_1" xmlns="http://www.w3.org/2000/svg" xmlns:xlink="http://www.w3.org/1999/xlink" x="0px" y="0px"
	 width="1700px" height="1700px" viewBox="0 0 1700 1700" enable-background="new 0 0 1700 1700" xml:space="preserve">
<g id="Layer_x0020_1">
	<g id="_336292960">
		<path d="M952.913,1412.438c-4.994,6.225-12.377,10.711-20.771,12.303c-16.066,3.041-34.086-4.125-48.055-11.434
			c-3.547-1.812-9.047-3.041-12.953-3.764l-23.449-4.777c-38.285,15.561-76.352,30.83-117.098,38.719
			c-20.336,3.908-39.227,5.355-59.779,2.969c-18.238-2.1-39.877-8.324-46.029-28.008c-1.664-5.283-1.881-10.785-0.94-16.141
			c-2.531-1.81-4.774-3.98-6.729-6.367c-8.539-0.291-17.152-0.58-25.691-1.086l-13.678,8.975
			c-55.146,36.33-120.354,42.047-184.187,45.305c-0.073-20.192,0.507-40.168-3.979-60.069
			c-83.375,25.909-135.698,30.106-218.348,5.282c20.698-19.539,39.516-37.633,58.26-59.271
			c80.479-92.781,65.642-101.031,96.834-202.787c8.25-26.777,18.164-53.627,30.469-78.813c6.73-13.75,14.617-27.936,23.883-41.034
			c38.863-54.785,15.488-83.951,85.615-129.328c-3.256-9.697-5.066-19.759-5.717-29.89c-9.555-3.041-19.035-6.151-28.517-9.479
			c-31.914-11.363-51.891-15.562-75.629-21.133c26.853-36.188,55.148-108.632,68.466-149.306l1.375-4.197
			c-41.832-37.993-68.681-116.881-86.195-171.229c20.555-4.271,39.443-7.744,60.504-9.844c27.211-2.605,55.438-3.185,82.721-0.218
			l1.955-3.836c28.367-56.957,67.883-109.858,111.162-156.395c14.547-15.562,29.672-30.688,45.449-45.088
			c12.158-11.219,24.606-21.277,37.416-31.627c9.264,24.896,15.85,40.6,31.266,63.324c24.389,35.971,56.017,67.739,90.246,94.229
			l3.547,2.75c24.605-15.125,51.963-26.922,79.246-36.258c20.05-6.875,38.648-11.435,59.058-16.066
			c6.08,53.121,12.377,113.262,0.506,165.514l5.5,5.355c48.49,46.754,100.164,107.184,119.847,172.752l2.824,9.336l-6.805,7.094
			c-37.197,38.937-79.969,71.142-126.867,96.398c6.441,2.822,12.738,5.863,19.324,9.047c5.717,2.75,14.402,7.02,20.914,7.092
			c5.863,0,11.002-3.836,15.127-7.67c25.33-23.666,65.642-57.609,102.623-49.938c7.383,2.026,13.172,4.85,19.25,9.479
			c11.363-7.235,23.088-13.172,34.594-17.44c14.477-5.429,29.963-15.197,42.773-23.884l11.723-7.815l9.771,10.205
			c5.572,5.788,13.39,6.946,21.062,5.86c9.914-1.52,20.408-0.867,25.547,9.553c4.053,8.181,1.086,15.345-3.328,22.22
			c-1.306,2.026-2.75,4.27-3.547,6.514c-1.81,5.428,3.256,10.35,6.875,13.605c2.75,2.532,6.008,4.344,9.408,5.646l16.283,6.223
			l-6.73,15.994c-15.125,35.97-32.785,67.813-61.008,95.025c4.92,19.322,8.611,38.354,11.289,58.113
			c6.947,51.891,7.309,105.735,3.98,157.987c-2.027,32.713-5.863,63.109-10.931,95.387c-23.592-10.422-35.75-15.633-62.961-16.573
			c0.289,26.633-3.766,53.483-9.987,77.584c-11.941,46.606-18.239,85.832-19.181,133.741c-22.219,1.812-40.455,3.476-63.18,2.39
			C1029.48,1431.979,988.736,1425.319,952.913,1412.438z"/>
		<g>
			<path d="M1380.413,541.079c-8.105-40.526-27.861-74.76-53.99-96.905c7.602,13.604,12.086,30.975,12.086,49.938
				c0,36.33-16.646,66.871-39.441,76.279c28.297,3.258,56.16-0.506,79.102-7.601c62.242,43.857,47.115,88.802,47.115,88.802
				c-29.744-25.113-55.942-28.658-81.924-23.23c-38.141,7.961-31.918,29.238-31.918,72.371v437.777
				c0.797,35.752,16.431,75.34,43.859,99.512c-28.734,69.766-96.762,79.754-98.789,118.979
				c-2.387,46.029,64.555,53.121,63.254-6.729c29.094,29.674,8.828,83.084-46.029,80.479c-29.744-1.375-59.635-27.213-60.575-64.558
				c-1.953-80.766,43.784-111.379,43.784-183.823V683.726c0-52.035,2.97-45.738-35.823-67.521
				c-33.941-19.035-52.035-55.076-32.134-112.974c17.152,26.486,39.152,43.931,62.82,54.496
				c-13.316-14.475-21.93-37.563-21.93-63.615c0-36.26,16.719-66.873,39.516-76.28c-27.502-3.763-57.246,3.907-85.979,26.633
				c-23.015-31.119-61.733-89.09-66.511-126.65c0,0,29.095,15.416,40.095,19.324c10.93,3.836,35.317-2.461,68.102-14.547
				c32.857-12.086,118.98-12.594,167.902,64.918c48.926,77.438,32.352,81.779,73.676,121.656
				c41.324,39.948,62.094,53.192,62.094,53.192S1451.626,564.021,1380.413,541.079z"/>
			<path fill="#4D4D4D" d="M1142.527,348.064c3.109,1.375,6.224,2.678,9.263,3.764c20.266,7.092,59.418-7.526,78.741-14.619
				c19.902-7.383,48.488-5.791,68.681-0.651c34.305,8.686,61.66,29.311,80.551,59.272c10.783,17.008,20.77,34.306,29.383,52.541
				c5.065,10.566,9.479,21.713,14.908,32.062c8.321,15.633,19.106,27.719,31.771,39.948c8.539,8.252,17.226,16.431,26.125,24.318
				c0,0-48.922-17.949-80.403-81.49c-18.381-37.055-41.035-71.793-69.188-92.563c-20.047-14.765-53.847-23.666-79.826-20.119
				C1190.075,358.991,1168.22,378.316,1142.527,348.064z M1196.806,538.04c21.711,22.218,48.924,37.345,80.477,44.509
				c31.699,7.166,66.293,5.862,97.849-2.605c0,0-49.065,23.812-104.358,14.33C1215.552,584.721,1196.806,538.04,1196.806,538.04z"/>
			<ellipse fill="#F6C000" cx="1284.23" cy="494.11" rx="47.112" ry="72.082"/>
			<path fill="#DBA500" d="M1284.23,438.891c-43.856,0-43.856,110.438,0,110.438S1328.089,438.891,1284.23,438.891z"/>
			<ellipse fill="#BC8700" cx="1284.23" cy="494.11" rx="13.39" ry="38.357"/>
			<path fill="#FFFFFF" d="M1281.843,433.896c-6.658-3.256-16.211,2.604-21.205,13.1c-5.066,10.422-3.762,21.494,2.969,24.752
				c6.656,3.185,16.211-2.604,21.277-13.1C1289.876,448.227,1288.573,437.153,1281.843,433.896z M1260.421,478.262
				c-4.342-2.101-9.625-0.289-11.726,4.125c-2.099,4.342-0.289,9.625,4.125,11.725c4.345,2.098,9.625,0.289,11.726-4.125
				C1266.645,485.643,1264.837,480.358,1260.421,478.262z"/>
		</g>
		<path fill="#C6EEDB" d="M492.771,750.379c4.125,8.18,8.687,15.85,13.605,23.159c2.315-0.797,4.705-1.446,7.092-1.883
			c9.121-1.735,19.688-1.012,26.924,5.5c3.4,3.041,5.861,6.806,7.312,11.146c2.82,8.901,0.504,18.092-3.98,26.561
			c5.355,4.414,10.855,8.539,16.57,12.303c5.211-2.315,10.566-3.764,15.852-3.618c12.664,0.362,23.015,9.771,28.73,20.481
			c9.41,0.435,18.816,5.646,25.766,12.592c0.218,0.218,0.507,0.509,0.724,0.726c127.446,29.311,283.19-46.607,291.225-183.174
			c-10.711,9.047-18.815,11.362-18.815,11.362c1.664-6.297,2.313-15.487,2.313-26.271c-9.985-2.678-19.827-5.283-29.309-7.816
			c-45.813-12.52-88.367-26.488-127.738-52.106l-65.277,117.387l-116.303-74.398c-15.127,32.785-39.443,67.957-66.943,98.935
			c1.882,3.688,3.836,7.235,6.009,10.639C506.523,751.9,500.516,752.116,492.771,750.379z"/>
		<path fill="#9DDFBF" d="M492.771,750.379c4.125,8.18,8.687,15.85,13.605,23.159c2.315-0.797,4.705-1.446,7.092-1.883
			c9.121-1.735,19.688-1.012,26.924,5.5c0.507,0.437,0.939,0.869,1.375,1.303c4.271-39.948,55.511-74.543,80.693-100.885
			l-55.002-35.246c-15.127,32.785-39.443,67.957-66.943,98.935c1.882,3.688,3.836,7.235,6.009,10.639
			C506.523,751.9,500.516,752.116,492.771,750.379z M547.195,806.901c-0.94,2.678-2.098,5.354-3.473,7.961
			c5.354,4.414,10.854,8.539,16.57,12.303c0.436-0.145,0.871-0.36,1.305-0.506C555.157,819.93,550.38,813.344,547.195,806.901z
			 M877.284,782.946c25.907-29.455,42.771-66.147,45.305-108.774c-10.711,9.047-18.816,11.362-18.816,11.362
			c1.664-6.297,2.314-15.487,2.314-26.271c-9.986-2.678-19.828-5.283-29.31-7.816c-45.813-12.52-88.366-26.488-127.737-52.107
			l-65.277,117.388l78.016-68.174c0,0,52.469,26.704,101.973,36.618C902.686,692.915,901.239,740.03,877.284,782.946z"/>
		<path d="M626.081,699.213c3.256,12.954,4.922,32.93-16.283,37.922c-22.074,5.211-34.883-23.447-39.152-35.172
			c-1.375,0.868-2.68,1.881-3.836,3.038c-9.77,9.337-20.047,6.298-11.074-6.295c5.43-7.6,16.142-14.401,34.377-16.285
			c31.482-3.184,54.787,10.062,54.713,15.056C644.825,701.817,638.095,702.76,626.081,699.213z"/>
		<path fill="#FFFFFF" d="M581.501,704.713c8.467,21.782,20.264,12.014,14.328-4.632c-0.795-2.172-1.593-3.979-2.388-5.573
			c-4.776,0.436-9.479,1.446-13.75,2.969C579.907,699.646,580.486,702.107,581.501,704.713z"/>
		<path d="M758.306,650.071c5.211,12.955,15.922,31.627,36.186,26.562c21.132-5.283,14.187-36.693,10.564-49.068
			c1.666,0.217,3.33,0.506,4.922,1.014c13.68,3.908,20.267-3.401,5.285-10.639c-9.047-4.342-21.857-5.645-37.852,0.867
			c-27.646,11.363-40.818,36.188-37.996,40.385C742.239,663.316,750.634,658.61,758.306,650.071z"/>
		<path fill="#FFFFFF" d="M779.583,642.038c6.297,23.304-8.687,21.711-13.896,4.054c-0.217-0.726-0.434-1.593-0.725-2.533
			c3.041-2.605,7.094-5.572,11.94-8.25C777.989,637.262,778.857,639.506,779.583,642.038z"/>
		<path fill="#00954C" d="M437.695,827.891c-40.02-14.258-57.534-15.994-57.534-15.994s29.672-38.502,60.721-133.383
			c3.33,2.026,5.139,3.113,8.686,4.344c-0.436,3.256-1.811,8.322-1.811,8.322s23.738-6.008,49.285-97.92
			c25.618-91.912,47.477-100.234,47.477-100.234s-7.889-0.797-16.717,4.922c-9.191-2.604-18.094-4.85-27.504-6.514
			C561.671,368.111,671.677,278.66,671.677,278.66s26.633,71.576,118.834,143.078c-10.062,7.094-19.613,15.055-28.154,23.883
			l-6.223,6.515c-8.324-2.533-16.719-1.158-21.422,2.678c0,0,22.289-6.658,97.34,53.049
			c75.121,59.707,104.795,57.318,108.992,54.568c-3.185-1.521-6.73-3.4-10.64-5.572c2.533-4.777,4.705-9.771,6.586-15.053
			c52.035,50.225,97.919,107.326,115.361,165.44c-55.292,57.972-122.091,99.224-194.535,125.131
			c102.695-50.082,172.824-129.979,172.824-129.979c-68.685-69.043-188.457-52.613-286.883-125.709l-65.57,117.965l-118.039-75.481
			c-22.94,63.252-90.754,143.149-147.492,178.975c0,0,17.658,12.305,50.877,26.85c-0.725,3.619-1.303,7.312-1.592,11.002
			C453.763,833.463,445.73,830.784,437.695,827.891z"/>
		<path fill="#00793D" d="M437.695,827.891c-40.02-14.258-57.534-15.994-57.534-15.994
			c76.28-43.785,138.448-136.639,168.481-218.854l122.524,70.925l67.451-113.695c103.346,88.221,246.498,70.779,313.732,156.975
			c-55.292,57.971-122.092,99.224-194.535,125.131c102.695-50.082,172.824-129.979,172.824-129.979
			c-68.685-69.043-188.457-52.613-286.883-125.709l-65.57,117.965l-118.039-75.482c-22.941,63.252-90.754,143.15-147.492,178.976
			c0,0,17.658,12.305,50.877,26.85c-0.725,3.619-1.303,7.312-1.592,11.002C453.763,833.463,445.73,830.784,437.695,827.891z"/>
		<path fill="#6BBF96" d="M934.386,548.391c0.939-2.172,1.811-4.344,2.605-6.586c52.034,50.225,97.918,107.326,115.36,165.44
			C1025.286,643.196,982.223,592.028,934.386,548.391z"/>
		<path fill="#00793D" d="M734.712,454.813c0,0,22.289-6.658,97.34,53.049c75.121,59.707,104.795,57.318,108.992,54.568
			C897.186,595.792,777.482,473.991,734.712,454.813z"/>
		<path fill="#00793D" d="M447.757,691.18c0,0,23.738-6.008,49.285-97.92c21.713-77.799,40.674-95.677,46.028-99.365
			c0.941-0.58,1.447-0.869,1.447-0.869C518.318,540.646,492.122,691.975,447.757,691.18z"/>
		<path fill="#6BBF96" d="M508.477,493.025c-2.678-0.58-5.43-1.086-8.18-1.592C561.67,368.111,671.676,278.66,671.676,278.66
			s26.633,71.576,118.834,143.078c-3.476,2.461-6.877,4.994-10.134,7.6c-54.35-40.094-98.643-77.364-113.768-120.717
			C610.956,351.467,557.329,419.713,508.477,493.025z"/>
		<path fill="none" d="M361.777,510.538c0,0,88.513-18.383,157.048,1.015c-7.599,8.539-15.703,20.696-22.509,38.213
			c-5.28,13.389-10.131,27.789-14.616,42.19c-60.142-49.791-105.882-70.924-105.882-70.924
			c39.806,26.851,73.313,59.996,99.656,91.189c-6.297,20.77-12.158,40.672-18.236,56.811
			C443.993,664.691,403.898,640.952,361.777,510.538z"/>
		<path fill="none" d="M928.089,379.327c0,0-102.406,23.088-154.514,77.148c9.625,2.896,20.916,7.744,33.508,15.776
			c6.514,4.125,13.027,8.541,19.541,13.101c50.516-63.107,92.779-94.013,92.779-94.013c-32.494,32.931-58.113,70.347-77.509,105.013
			c27.211,20.047,53.41,41.252,74.398,53.918C927.438,529.499,939.886,482.53,928.089,379.327z"/>
		<path fill="#C6EEDB" d="M361.777,510.538c0,0,88.513-18.383,157.048,1.015c-7.599,8.539-15.703,20.696-22.509,38.213
			c-5.28,13.389-10.131,27.789-14.616,42.19c-60.142-49.791-105.882-70.924-105.882-70.924
			c39.806,26.851,73.313,59.996,99.656,91.189c-6.297,20.77-12.158,40.672-18.236,56.811
			C443.993,664.691,403.898,640.952,361.777,510.538z M773.575,456.477c52.106-54.062,154.514-77.148,154.514-77.148
			c11.797,103.203-0.65,150.172-11.795,170.943c-20.988-12.666-47.188-33.871-74.398-53.918
			c19.396-34.666,45.014-72.082,77.508-105.012c0,0-42.264,30.904-92.778,94.012c-6.515-4.559-13.027-8.975-19.541-13.1
			C794.491,464.221,783.2,459.372,773.575,456.477z"/>
		<path fill="#6BBF96" d="M375.818,521.032c39.806,26.851,73.313,59.996,99.656,91.189c-6.297,20.77-12.158,40.672-18.236,56.811
			c-13.246-4.342-53.34-28.08-95.461-158.494C369.669,517.993,371.188,517.993,375.818,521.032z M919.402,391.342
			c0,0,6.009-4.414,8.687-12.015c11.797,103.203-0.65,150.172-11.795,170.943c-20.988-12.666-47.188-33.871-74.398-53.918
			C861.29,461.688,886.909,424.271,919.402,391.342z"/>
		<path fill="#FFFFFF" d="M361.777,510.538c0,0,88.513-18.383,157.048,1.015c-3.617,4.053-7.31,8.901-10.927,14.764
			C434.513,504.17,361.777,510.538,361.777,510.538z M796.734,466.176c19.396-25.693,57.316-58.332,131.354-86.849
			c0,0-102.406,23.088-154.514,77.148C780.523,458.504,788.266,461.614,796.734,466.176z"/>
		<path fill="#C6EEDB" d="M572.454,956.493c0,0-83.445-25.69-93.939-94.082c-10.564-68.393,41.686-82.358,51.457-73.604
			c9.771,8.686-3.98,26.198-12.521,35.246c-8.467,8.975-1.59,27.862,1.16,31.336c2.75,3.547,4.486,5.791,4.486,5.791
			s-4.994,4.848-9.627,7.815c-4.631,3.039,6.297,6.73,23.377-6.586c17.152-13.244,28.877-23.521,38.865-23.231
			c9.986,0.217,16.281,13.969,16.281,13.969s-12.882,12.735-22.798,20.625c-9.842,7.889-14.11,13.1-4.848,10.854
			c9.262-2.241,25.619-15.776,32.494-22.217c6.877-6.369,17.008-0.508,22.799,5.211c5.715,5.789,8.685,12.81,5.5,22.797
			c-3.258,9.986-12.666,7.961-12.666,7.961s4.125-15.344,0.506-13.243c-3.616,2.17-8.973,16.354-9.479,20.479
			c-0.506,4.125,14.113,3.258,21.35-1.375c7.236-4.559,8.902-9.625,8.902-9.625s21.35,13.896,8.105,37.922
			c-13.244,23.955-16.283,25.476-16.502,61.228c-0.216,29.817,4.633,105.881-17.441,149.811c-1.664,3.328-3.545,6.369-5.5,9.191
			c-1.809-0.869-3.691-1.736-5.572-2.679c-28.588-13.823-57.896-29.455-89.307-35.534c-11.508-2.244-22.941-3.111-34.521-2.533
			c-2.821-15.271-1.881-32.64,4.054-51.603c0,0,3.907,9.699,7.526,13.896c3.617,4.197,3.617,4.197,3.617,4.197
			s3.621-42.338,26.924-81.273c23.23-39.008,26.197-42.555,26.197-42.555S559.79,960.475,572.454,956.493z"/>
		<path fill="#FFFFFF" d="M506.306,790.4c10.205-4.992,19.975-4.92,23.666-1.592c9.771,8.686-3.98,26.199-12.521,35.246
			c-8.467,8.975-1.59,27.862,1.16,31.336c2.75,3.547,4.486,5.791,4.486,5.791s-2.461,2.387-5.502,4.848
			c-3.109-2.313-10.566-8.9-14.111-21.494c-4.486-15.994-0.506-22.508,14.256-42.192C524.181,793.657,516.872,790.764,506.306,790.4
			z M629.191,900.913c3.619-3.401,4.562-6.297,4.562-6.297s20.842,13.605,8.541,37.056
			C643.378,916.907,634.333,905.905,629.191,900.913z M517.161,871.819c4.344-0.437,11.219-2.822,19.686-9.408
			c17.152-13.244,28.877-23.521,38.865-23.231c9.986,0.217,16.281,13.969,16.281,13.969s-18.599-11.363-37.56,5.063
			C535.398,874.569,517.161,871.819,517.161,871.819L517.161,871.819z M563.263,884.92c0.361-0.074,0.723-0.146,1.086-0.291
			c9.262-2.242,25.619-15.777,32.494-22.218c6.877-6.369,17.008-0.508,22.799,5.211c2.895,2.896,5.064,6.15,6.078,9.914
			c-6.875-7.383-18.383-11.725-28.297-4.633C584.395,882.241,563.263,884.92,563.263,884.92L563.263,884.92z"/>
		<path fill="#9DDFBF" d="M572.454,956.493c0,0-83.445-25.69-93.939-94.082c-0.145-0.58-0.217-1.229-0.289-1.811
			c5.139,14.401,13.896,28.442,28.732,37.344c33.073,19.975,72.948,22.797,84.676,38.502c6.512,13.316-2.103,21.857-23.305,28.588
			c-32.785,10.422-54.207,100.234-56.379,150.461c-1.445-0.36-2.968-0.651-4.414-0.94c-11.509-2.244-22.941-3.111-34.521-2.533
			c-2.822-15.271-1.881-32.639,4.053-51.603c0,0,3.908,9.699,7.527,13.896c3.617,4.197,3.617,4.197,3.617,4.197
			s3.621-42.339,26.924-81.273c23.23-39.008,26.197-42.555,26.197-42.555S559.79,960.475,572.454,956.493z"/>
		<path fill="#C6EEDB" d="M461.798,998.831c-5.789,30.324-10.785,73.748-3.402,114.709h0.072
			c-5.283-34.448,8.033-70.563,18.311-96.182c5.211,13.244,7.31,14.979,9.48,10.422c8.469-18.166,13.824-31.119,20.699-44.942
			C490.891,985.299,475.765,990.87,461.798,998.831z"/>
		<path fill="#9DDFBF" d="M461.798,998.831c-5.789,30.324-10.785,73.748-3.402,114.709h0.072
			c-5.283-34.448,8.033-70.563,18.311-96.182c1.23-10.494,5.428-21.566,8.828-29.312
			C477.355,990.87,469.395,994.489,461.798,998.831z"/>
		<path fill="none" d="M523.966,839.54c3.111-22.217,20.19-15.702,24.678,1.304c-2.822,2.244-6.15,4.85-9.264,7.094
			c-7.527,5.354-8.105,5.717-12.375,0C525.484,845.909,524.544,842.799,523.966,839.54z"/>
		<path fill="#6BBF96" d="M515.497,966.266c-23.16,1.592-53.05,9.625-83.662,34.303c-64.99,52.543-99.511,173.477-99.511,173.477
			s28.875-127.952,84.023-176.948c55.146-48.996,96.254-47.982,96.254-47.982s-15.199-7.311-41.107,0
			c-25.907,7.236-54.932,33.437-54.932,33.437c5.863-39.228,28.008-65.424,57.682-84.604c11.507,21.277,30.107,38.285,51.386,51.746
			C522.3,955.047,518.898,960.618,515.497,966.266z"/>
		<path fill="#37A46F" d="M515.497,966.266c-19.685,1.303-44.363,7.381-70.129,24.389c30.469-24.68,58.332-31.047,74.977-32.35
			C518.681,960.909,517.089,963.588,515.497,966.266z"/>
		<path fill="#C6EEDB" d="M416.563,982.549c5.863-39.228,28.009-65.425,57.683-84.604c1.881,3.475,3.979,6.875,6.225,10.205
			C439.29,932.61,416.563,982.549,416.563,982.549z"/>
		<path fill="#6BBF96" d="M641.063,984.067c6.441,2.316,13.388,5.139,20.771,8.613c40.383,19.032,63.035-12.449,54.424-43.496
			c-5.211-18.816-18.021-49.068-27.283-69.984c-16.211,0.146-32.133-1.157-47.695-3.907c0.437,2.026,0.652,4.053,0.726,6.151
			l0.217,0.146c5.574,3.619,10.931,9.625,14.187,15.344c7.889,13.895,6.729,29.311-0.869,43.133
			c-4.342,7.816-7.381,13.1-9.48,17.586c9.988,5.863,22.22,11.941,32.134,10.64c19.612-2.605,13.75-35.607,13.75-35.607
			s16.284,40.457-9.986,43.713c-15.342,1.883-27.937-4.414-39.008-10.274C641.714,970.823,641.277,976.034,641.063,984.067z"/>
		<path fill="#37A46F" d="M641.063,984.067c6.441,2.316,13.388,5.139,20.771,8.613c40.383,19.032,63.035-12.449,54.424-43.496
			c-5.211-18.816-18.021-49.068-27.283-69.984c-6.44,0.072-12.883-0.145-19.252-0.506c13.896,21.277,26.777,43.351,31.553,58.188
			c11.941,37.416-3.545,57.752-24.241,51.891c-11.58-3.33-23.232-9.844-35.463-14.475
			C641.352,977.049,641.134,980.232,641.063,984.067z"/>
		<path fill="#F6C000" d="M820.398,851.917c0.726,3.765,1.158,7.671,1.158,11.726c0,32.854-26.633,59.488-59.49,59.488
			c-27.645,0-50.877-18.89-57.606-44.437c6.08-0.361,12.158-0.869,18.311-1.664l0,0c5.572,16.355,21.06,28.08,39.297,28.08
			c22.941,0,41.47-18.527,41.47-41.469c0-2.97-0.289-5.791-0.867-8.541C802.669,855.102,809.398,854.088,820.398,851.917z"/>
		<path fill="#FFE662" d="M713.216,878.042c3.186-0.288,6.371-0.577,9.555-1.012l0,0c5.572,16.355,21.059,28.08,39.297,28.08
			c22.941,0,41.469-18.527,41.469-41.469c0-2.97-0.289-5.791-0.866-8.541c0,0,3.473-0.506,9.553-1.593
			c0.506,2.896,0.795,5.935,0.795,8.976c0,28.225-22.867,51.094-51.094,51.094C739.126,913.577,719.802,898.67,713.216,878.042z"/>
		<path fill="#6BBF96" d="M834.802,848.805c3.113,18.963,5.789,40.313,6.658,61.371c2.533,60.647,37.994,99.006,91.479,67.018
			c53.555-31.988,99.004-133.236,126-161.969c26.994-28.806,44.508-19.541,44.508-19.541s-34.016-25.908-70.489,20.988
			c-36.476,46.971-90.466,131.5-121.007,140.039c-30.469,8.469-38.502-33.58-38.502-33.58s17.226,36.403,49.142,13.752
			c31.844-22.652,81.854-100.888,81.854-100.888c-29.892,27.863-49.574,1.013-89.67-11.436
			C885.681,836.141,856.223,844.028,834.802,848.805z"/>
		<path fill="#37A46F" d="M834.802,848.805c3.113,18.963,5.789,40.313,6.658,61.371c2.533,60.647,37.994,99.006,91.479,67.018
			c5.283-3.111,10.492-6.947,15.56-11.363c-14.257,8.033-31.191,15.271-44,13.969c-26.996-2.75-47.261-21.93-48.779-91.116
			c-0.361-16.861,2.896-32.711,8.033-47.113C853.184,844.463,843.341,846.924,834.802,848.805z"/>
		<path fill="#C6EEDB" d="M1076.885,800.316c16.572-9.916,26.562-4.633,26.562-4.633s-34.017-25.908-70.49,20.988
			c-36.476,46.971-90.465,131.5-121.006,140.039c-0.867,0.219-1.736,0.436-2.533,0.579c12.955-2.315,42.701-14.112,83.084-69.768
			C1038.602,823.909,1057.2,799.954,1076.885,800.316z M905.941,957.797c-1.301,0.071-2.53,0.071-3.762-0.072l0,0
			C902.181,957.725,903.48,957.941,905.941,957.797z M989.532,858.213c9.047-12.953,14.909-22.218,14.909-22.218
			c-29.891,27.863-49.573,1.013-89.67-11.436c-5.789,2.315-11.649,4.487-17.44,6.514c9.627,1.81,19.686,5.283,29.674,11.217
			C955.518,859.299,975.564,862.989,989.532,858.213z"/>
		<path fill="#C6EEDB" d="M939.161,1001.51c22.797,2.026,41.76,5.717,103.78-2.316c62.097-8.033,102.481-25.98,102.481-25.98
			s-12.667-1.735-20.627-4.125c-7.889-2.389-7.889-2.389-7.889-2.389s51.891-12.447,99.439-63.615
			c19.902-21.422,35.752-51.674,47.475-79.608c-5.354-2.025-10.348-4.92-14.69-8.828c-34.738-31.267,14.547-51.746-11.797-47.838
			c-13.242,1.953-26.342-1.086-35.678-10.855c-16.357,10.929-32.713,20.554-46.318,25.619
			c-47.188,17.658-93.215,54.353-102.985,121.729c0.435-24.968,3.836-44.437,9.771-67.377c-6.298,8.61-12.306,18.6-17.369,26.705
			c-11.652,18.526-23.013,37.198-35.388,55.291c-17.66,25.692-42.99,57.102-69.914,73.53
			C939.45,995.504,939.306,997.674,939.161,1001.51z"/>
		<path fill="#9DDFBF" d="M939.161,1001.51c22.797,2.026,41.76,5.717,103.78-2.316c62.097-8.033,102.481-25.98,102.481-25.98
			s-12.667-1.735-20.627-4.125c-7.889-2.389-7.889-2.389-7.889-2.389s51.891-12.447,99.439-63.615
			c19.902-21.422,35.752-51.674,47.475-79.608c-5.354-2.025-10.348-4.92-14.69-8.828c-3.69-3.33-6.44-6.515-8.396-9.627
			c-0.723,4.127-1.229,6.658-1.229,6.658s-67.233,120.428-164.79,134.612c-43.352,6.367-61.371-7.311-68.031-24.463
			c-17.44,24.896-41.613,53.99-67.233,69.623C939.45,995.504,939.306,997.674,939.161,1001.51z M1242.835,772.958
			c2.821-4.342,4.342-6.657-0.65-6.657C1242.473,768.473,1242.763,770.717,1242.835,772.958z"/>
		<path fill="#FFFFFF" d="M1207.806,761.09c-1.736-1.084-3.4-2.388-4.92-3.908l0,0l0,0c-0.436-0.361-0.869-0.795-1.23-1.229
			c-16.356,10.929-32.713,20.554-46.317,25.619c-37.997,14.185-75.267,40.818-93.433,85.832
			c9.914-14.328,37.197-50.371,72.808-64.99C1174.152,786.202,1213.161,771.223,1207.806,761.09z"/>
		<path d="M1237.841,771.006l-9.48,1.375c-13.461,2.024-26.852-1.158-36.258-11.509c-11.363-12.375-12.883-30.612-8.104-46.172
			c5.211-17.151,17.586-31.192,34.157-37.996l10.423-4.27c1.157-1.593,2.389-3.113,3.764-4.562
			c11.94-12.447,29.526-15.922,46.103-13.533c47.979,7.095,77.147,49.793,76.424,96.474c-0.795,52.106-22.072,79.682-75.773,81.924
			c-13.967,0.58-28.297-3.039-38.863-12.521c-9.553-8.541-14.907-21.639-11.36-34.305c1.733-6.078,5.063-10.928,9.405-14.619
			C1238.13,771.223,1237.985,771.077,1237.841,771.006z"/>
		<path fill="#C6EEDB" d="M1276.054,670.987c-39.443-5.791-48.852,34.449-23.955,35.39c10.637,0.436,29.527,1.811,41.758,6.297
			c17.66,6.586,8.395,13.75-5.789,11.436c-14.186-2.316-47.91-8.396-48.635,14.473c-0.725,22.871,23.303,27.285,41.107,26.853
			c31.987-0.797,20.625,11.289,1.086,12.881c-6.73,0.58-14.402,0.652-20.916,1.375c-27.717,3.113-18.312,37.707,17.658,36.26
			c44.293-1.883,59.057-21.784,59.707-65.352C1338.655,713.398,1316.581,676.922,1276.054,670.987z M1225.898,755.733
			c-4.991-12.664-3.039-27.211,5.14-38.139c-5.572-6.515-9.627-17.009-6.441-25.402
			C1189.786,706.521,1188.7,761.309,1225.898,755.733z"/>
		<path fill="#9DDFBF" d="M1240.157,746.108c4.27,16.354,24.75,19.687,40.383,19.324c31.987-0.797,20.625,11.289,1.086,12.881
			c-6.73,0.58-14.402,0.651-20.916,1.375c-27.717,3.113-18.312,37.707,17.658,36.26c32.207-1.375,48.778-12.305,55.727-34.885
			c-3.617-22.435-26.922-31.625-55.582-35.896C1256.802,741.84,1245.729,743.792,1240.157,746.108z"/>
		<path fill="#FFFFFF" d="M1276.054,670.987c-22.074-3.258-34.74,7.89-37.271,18.527c22.435-13.39,61.517-7.89,85.398,12.014
			C1313.686,685.751,1297.403,674.172,1276.054,670.987z M1201.438,745.167c0.07-6.803,1.81-15.559,8.031-23.809
			c5.937-7.961,11.652-11.508,15.996-13.1c-2.101-5.212-2.75-11.002-0.869-16.066
			C1201.294,701.817,1193.114,729.536,1201.438,745.167z"/>
		<path fill="#00954C" d="M901.384,1100.948c6.658-18.526,21.061-56.596,22.291-101.899c-17.008,6.44-35.318,7.815-52.687-0.361
			c-32.278-15.271-43.784-54.93-45.09-87.859c-0.146-2.315-0.217-4.705-0.361-7.02c-9.696,15.27-24.752,26.776-42.555,31.988
			c-6.08,27.646-26.197,106.965-75.338,181.508l-0.219,0.361C792.755,1118.896,863.098,1108.329,901.384,1100.948z M774.878,937.605
			c-4.197,0.725-8.467,1.158-12.812,1.158c-12.735,0-24.895-3.256-35.604-8.976c1.809,5.066,3.473,10.205,4.848,15.271
			c5.355,19.25,1.809,41.106-12.738,55.582c-17.586,17.369-42.336,16.065-63.396,6.149c-4.705-2.172-9.408-4.196-14.257-6.149
			c0.07,10.348,0.359,20.696,0.359,31.047c-0.07,17.369-0.65,34.738-2.387,51.963c-1.014,9.842-2.533,20.047-4.633,30.107
			c19.612,1.881,38.862,3.038,57.391,3.545c13.605-16.066,42.555-56.017,66.582-125.854
			C765.542,970.174,770.896,952.368,774.878,937.605z"/>
		<path fill="#00793D" d="M922.589,1016.273c0.506-5.572,0.869-11.361,1.086-17.225c-17.008,6.44-35.318,7.815-52.687-0.361
			c-32.278-15.27-43.784-54.93-45.09-87.859c-0.146-2.315-0.217-4.705-0.361-7.02c-9.696,15.27-24.752,26.777-42.555,31.988
			c-1.229,5.571-3.039,13.244-5.5,22.508c0.506-0.146,0.938-0.291,1.447-0.437c34.086-12.086,47.477-38.791,47.477-38.791
			C831.398,976.76,852.462,1063.532,922.589,1016.273z M641.277,1030.098c18.168,8.899,38.865,14.619,53.99,5.934
			c9.916-5.717,14.476-16.791,15.994-29.455c-16.789,10.928-37.851,8.83-56.088,0.217c-4.705-2.172-9.408-4.196-14.257-6.149
			C640.989,1010.483,641.277,1020.254,641.277,1030.098z M733.191,954.323c10.855,4.197,23.23,7.164,35.173,5.861
			c2.532-8.179,4.633-15.705,6.514-22.58c-4.197,0.725-8.467,1.158-12.812,1.158c-12.735,0-24.895-3.257-35.604-8.976
			c1.809,5.066,3.473,10.205,4.848,15.271C732.179,948.1,732.759,951.211,733.191,954.323z"/>
		<path fill="#6BBF96" d="M900.661,1128.523c-0.726-3.908-1.884-9.916-2.461-14.33c-93.939,24.824-214.582,18.672-267.703,14.258
			c-2.316,7.67-5.142,15.197-8.687,22.146c-1.521,3.041-3.187,5.936-4.994,8.83c26.488,11.868,52.761,21.276,82.433,26.416
			l7.311,1.229l0,0l8.031,1.012c12.521,1.447,25.188,2.173,37.779,2.101c40.021-0.146,73.748-9.047,107.399-30.758
			C874.173,1150.161,887.345,1139.307,900.661,1128.523z"/>
		<path fill="#C6EEDB" d="M900.661,1128.523c-0.726-3.908-1.884-9.916-2.461-14.33c-93.939,24.824-214.582,18.672-267.703,14.258
			c0,0,57.026,13.605,138.52,11.867c81.563-1.736,118.254-12.52,118.254-12.52l2.172,9.77
			C893.206,1134.602,896.895,1131.563,900.661,1128.523z"/>
		<path fill="#00954C" d="M465.489,1128.305c75.481-9.045,127.444,54.932,231.082,72.879c3.258,5.791,9.407,14.764,20.479,28.66
			c7.094,8.827,16.142,18.235,25.043,26.922c-3.041-1.014-6.228-2.172-9.627-3.476c-46.463-17.514-99.295-50.008-153.5-79.246
			c-54.279-29.166-107.473-8.758-107.473-8.758s60.432-2.967,94.95,20.047c34.523,22.943,66.728,35.97,66.728,35.97
			s-120.715-2.025-161.678,105.52c-22.58,59.199-45.306,88.51-61.154,102.912c-0.072-26.922-3.836-53.338-14.908-72.443
			C346.436,1272.254,337.895,1143.575,465.489,1128.305z M712.712,1203.571c12.52,1.447,25.69,2.315,39.729,2.244
			c143.009-0.509,159.509-110.006,264.521-115c105.011-4.992,146.479,85.473,116.52,202.498
			c-15.055,58.549-19.18,98.858-19.542,124.479c-74.325-61.442-54.278-132.295-85.978-180.205
			c-36.98-56.016-104.287-42.772-104.287-42.772s20.047-18.021,50.299-41.976c30.25-24.026,73.457-29.311,73.457-29.311
			s-32.496-6.226-67.451,9.264c-35.027,15.562-129.545,100.019-159.002,114.998c-16.354,8.324-27.428,14.476-41.975,15.344
			C744.845,1243.954,721.9,1216.02,712.712,1203.571z"/>
		<path fill="#00793D" d="M502.253,1276.523c-12.23,13.316-22.941,29.816-30.758,50.299c-22.58,59.199-45.306,88.51-61.154,102.912
			c-0.072-26.922-3.836-53.338-14.908-72.443c-30.324-52.688-45.16-122.235-21.639-171.088c0.215,25.041,4.703,53.193,20.117,73.966
			c46.102,62.237,43.063,102.26,66.944,64.121C470.191,1309.381,484.306,1290.489,502.253,1276.523z M1048.877,1296.643
			c5.5,15.416,12.086,31.844,19.252,40.891c16.137,20.48,20.262-47.26,44-77.365c13.752-17.516,24.247-41.76,28.661-67.09
			c4.414,29.383,2.098,63.471-7.31,100.236c-15.055,58.549-19.18,98.859-19.542,124.479
			C1066.318,1378.422,1057.418,1335.217,1048.877,1296.643z"/>
		<path fill="#6BBF96" d="M465.489,1128.305c75.481-9.045,127.444,54.932,231.082,72.879c1.883,3.402,4.776,7.744,8.975,13.604
			c-72.588-11.723-137.361-57.752-210.023-74.323c-47.692-10.857-83.518,5.571-105.881,22.36
			C406.07,1145.023,430.751,1132.504,465.489,1128.305z M486.114,1165.286c20.047,0.652,56.448,4.054,80.332,20.048
			c34.522,22.942,66.727,35.969,66.727,35.969s-8.684-0.146-22.289,1.738c-12.52-5.14-30.469-13.752-43.857-25.476
			C544.302,1177.592,486.259,1165.358,486.114,1165.286z M942.056,1193.439c15.777-14.256,29.238-27.139,37.996-35.896
			c11.363-11.36,19.902-18.452,26.127-22.868c-10.857,4.344-22.219,10.205-32.205,18.166
			c-30.252,23.955-50.299,41.975-50.299,41.975S930.911,1193.366,942.056,1193.439z M723.423,1216.889
			c7.742,0.578,15.631,0.797,23.592,0.434c90.176-4.053,122.67-20.697,169.639-68.102c46.971-47.402,127.594-70.346,195.477-22.797
			c-21.203-24.244-53.047-37.634-95.167-35.607c-105.013,4.994-121.513,114.492-264.521,115
			c-14.039,0.072-27.211-0.797-39.729-2.244C715.243,1206.975,718.861,1211.605,723.423,1216.889z"/>
		<path fill="#C6EEDB" d="M1034.186,1314.809c0,0-6.513-72.519-50.515-93.506c-44.002-20.986-91.984-1.736-122.453,22.508
			c-30.541,24.246-110.512,77.512-151.041,80.983c-40.455,3.548-48.996-7.452-62.238-5.5c-13.391,2.027-19.613,15.416-15.271,27.502
			c0,0,12.666-4.633,25.258,1.375c12.666,6.007,18.021,11.65,12.014,11c-6.008-0.577-27.211-9.118-38.791-3.327
			c-13.315,6.584-5.139,30.321,5.283,34.303c0,0,5.789-9.697,25.619-4.125c19.901,5.645,12.883,10.277,5.646,8.686
			c-7.238-1.666-24.969-2.533-27.213,9.986c-2.313,12.521,5.717,22.002,32.205,25.041s64.99,2.316,162.98-38.213
			C933.661,1351.066,949.222,1359.532,1034.186,1314.809z"/>
		<path fill="#9DDFBF" d="M1034.186,1314.809c0,0-4.052-45.668-27.718-74.979c-2.678,16.211-13.967,42.771-63.396,74.615
			c-77.873,50.228-238.25,102.986-265.244,97.486c-16.354-3.33-19.686-11.941-19.83-18.166c-7.598,0.145-16.065,2.532-17.514,10.928
			c-2.313,12.521,5.717,22.002,32.205,25.041s64.99,2.315,162.98-38.213C933.661,1351.066,949.222,1359.532,1034.186,1314.809z
			 M639.759,1322.405c-7.525,5.139-10.422,15.127-7.092,24.392c0,0,6.149-2.244,14.11-1.593c-2.098-2.461-4.559-6.657-6.223-13.534
			C639.759,1328.342,639.544,1325.229,639.759,1322.405z M646.345,1354.105c-5.572-0.578-11-0.361-15.197,1.738
			c-13.315,6.584-5.139,30.322,5.283,34.303c0,0,4.703-7.889,20.119-5.355c-4.125-3.039-11.58-9.914-11.58-20.19
			C644.97,1359.896,645.55,1356.493,646.345,1354.105z"/>
		<path fill="#C6EEDB" d="M774.806,1282.528c-20.77-5.063-78.887-20.119-109.859-38.502
			c-38.141-22.506-125.565,6.008-159.508,54.496c-19.106,27.285-23.521,44.943-28.588,61.01
			c27.863,8.179,71.793,17.369,133.164,19.324c-2.822-11.219-1.229-23.377,6.586-31.481c-4.486-20.048,7.672-40.238,29.021-43.496
			c2.533-0.361,5.065-0.507,7.598-0.361c7.527,0.361,14.621,3.039,21.93,4.488c11.146,2.313,22.437,2.241,33.728,1.229
			C725.157,1307.858,749.911,1296.569,774.806,1282.528z"/>
		<path fill="#9DDFBF" d="M569.484,1250.034c-25.69,11.072-49.645,28.009-64.047,48.488c-19.106,27.285-23.521,44.943-28.588,61.01
			c27.863,8.179,71.793,17.369,133.164,19.324c-2.101-8.25-1.736-17.008,1.666-24.315c-24.392-4.705-45.09-13.101-52.832-27.646
			C543.143,1297.366,557.835,1267.114,569.484,1250.034z"/>
		<path fill="#9DDFBF" d="M874.462,1393.04c7.092,1.449,13.172,3.187,17.369,5.355c16.717,8.686,28.877,11.362,37.198,9.844
			c8.25-1.592,15.705-8.467,12.736-17.226c0,0-8.828,2.896-19.539,0.289c-10.785-2.604-17.08-6.44-14.113-10.059
			c-1.303,0.434-2.678,0.867-3.979,1.303C894.145,1385.877,884.306,1389.352,874.462,1393.04z M910.214,1380.521
			c7.236-0.217,29.455,8.105,43.205-2.1c5.211-3.834,6.729-8.828,6.44-13.822c-3.401,1.158-6.803,2.315-10.202,3.402
			C936.556,1372.271,923.384,1376.252,910.214,1380.521z"/>
		<path fill="#37A46F" d="M203.936,1386.602c0,0,83.807-78.814,121.006-166.312c33.074-77.729,72.228-169.93,118.906-209.229
			c-5.428,34.521-6.947,71.215-0.797,105.301c-117.748,27.43-113.841,157.192-61.082,248.742c1.375,2.389,2.604,4.922,3.69,7.6
			C333.48,1388.987,261.327,1403.825,203.936,1386.602z"/>
		<path fill="#329464" d="M409.182,1050.939c11.072-16.066,22.652-29.744,34.666-39.877c-5.428,34.521-6.947,71.215-0.797,105.301
			c-20.191,4.705-36.836,12.449-50.226,22.508C396.952,1105.651,401.945,1076.342,409.182,1050.939z M365.688,1331.887
			c4.703,11.436,10.132,22.58,16.281,33.219c1.375,2.389,2.604,4.922,3.69,7.6c-12.809,3.98-26.922,7.961-41.612,11.291
			C351.936,1369.014,359.464,1351.717,365.688,1331.887z"/>
		<path fill="#37A46F" d="M1157.652,1203.066c32.062,0.578,51.816,9.264,51.816,9.264s24.754-156.758-6.656-280.225
			c-7.889,6.658-16.142,12.811-24.68,18.455c-15.56,10.205-29.384,13.315,5.789,18.238c-21.349,9.479-40.744,18.672-63.181,25.547
			c-24.823,7.598-50.588,13.026-76.28,16.354c-21.203,2.75-42.843,4.994-64.191,5.066c-13.896,0.071-27.862-1.23-41.76-2.605
			c-2.604,32.64-11.146,61.877-22.508,93.07l-2.314,6.369c0.289,1.592,0.504,3.256,0.795,4.92
			c7.382-5.718,14.908-11.289,22.869-16.355c24.535-15.705,49.574-24.532,78.887-25.907c36.546-1.738,72.443,7.092,99.656,32.639
			C1142.527,1132.938,1154.614,1167.17,1157.652,1203.066z"/>
		<path fill="#329464" d="M1062.989,1007.95c-6.15,1.015-12.375,1.953-18.527,2.75c-21.203,2.75-42.844,4.994-64.191,5.066
			c-13.896,0.072-27.863-1.23-41.76-2.605c-2.605,32.64-11.146,61.877-22.508,93.07l-2.314,6.369
			c0.289,1.592,0.504,3.256,0.795,4.92c7.381-5.717,14.908-11.289,22.869-16.354c24.535-15.705,49.574-24.533,78.887-25.908
			c17.73-0.869,35.316,0.795,51.891,5.645C1067.766,1052.098,1065.885,1028.069,1062.989,1007.95z"/>
		<path d="M680.143,757.979c-5.646,6.803,18.601,17.08,27.791,18.311c9.262,1.23,14.547-13.823,21.133-22.725
			C744.554,732.575,692.229,743.432,680.143,757.979z"/>
		<path d="M712.059,800.243c11.578,0.361,27.789-2.895,42.916-23.883c19.687-27.574,45.449-22.437,51.455-17.225
			c6.008,5.139,0.146,8.395-8.396,5.788c-8.467-2.604-22.94,0.437-36.112,17.877c-13.099,17.441-24.896,23.738-40.601,24.244
			c-6.297,0.218-10.133-0.797-12.231-2.1C702.359,800.821,709.02,800.1,712.059,800.243z"/>
	</g>
</g>
</svg>
