<?xml version="1.0" encoding="utf-8"?>
<!-- Generator: Adobe Illustrator 16.0.0, SVG Export Plug-In . SVG Version: 6.00 Build 0)  -->
<!DOCTYPE svg PUBLIC "-//W3C//DTD SVG 1.1//EN" "http://www.w3.org/Graphics/SVG/1.1/DTD/svg11.dtd">
<svg version="1.1" id="Layer_1" xmlns="http://www.w3.org/2000/svg" xmlns:xlink="http://www.w3.org/1999/xlink" x="0px" y="0px"
	 width="2200px" height="2250px" viewBox="4801.628 -1242.985 2200 2250" enable-background="new 4801.628 -1242.985 2200 2250"
	 xml:space="preserve">
<g id="Layer_x0020_1">
	<g id="_510888336">
		<path d="M5565.436,250.777l-1.003-0.501c-33.945-18.763-70.469-32.728-108.781-39.46
			c-53.281-9.381-130.912,110.071-138.861,156.119c-10.885-69.394-18.547-132.629,36.452-187.916
			c18.763-18.834,41.823-32.584,64.883-45.331c25.71-14.252,51.419-27.571,75.982-43.828c16.758-11.101,30.149-26.569,40.964-43.542
			c-35.02,1.433-68.679-16.328-81.568-49.915c-5.658-14.609-2.508-12.031-13.822-24.492c-14.537-16.041-11.387-18.333-18.047-36.021
			c-0.645-1.79-1.504-3.079-2.793-3.652c-5.084-2.435-3.15,11.673-3.15,11.673s-0.072,0-4.297-4.654
			c-33.73-37.312-15.183-110.501,18.189-142.441c22.846-21.842,52.923-35.449,83.359-43.04c12.103-3.008,26.211-5.586,39.244-6.589
			c-1.719-7.806,0.358-16.686,5.443-22.845c-12.39-15.755-21.843-32.799-13.822-54.212c12.104-32.083,24.564-64.095,36.811-96.106
			c7.52-19.693,14.967-39.316,22.344-59.082c4.367-11.673,9.094-23.632,12.89-35.448c4.655-14.252,10.886-33.516,3.652-47.91
			c-13.894-27.858-39.245-94.531-0.931-112.936c8.521-4.154,18.763-5.658,29.29-5.729c-1.289-32.728,0.358-65.813,5.657-98.111
			c5.873-35.377,12.963-69.967,20.625-104.987c3.725-16.614,8.236-35.306,8.379-52.421c0-1.719,0-3.366-0.071-5.013
			c-0.788-16.901,1.003-42.754,20.052-49.485c24.063-8.451,42.896,23.704,52.207,40.604c22.129,40.176,33.372,104.7,37.74,150.032
			c2.507,26.139,3.51,53.066,2.006,79.492c15.898-3.008,32.656-4.369,48.626-5.371c22.487-1.504,45.188-2.077,67.747-2.507
			c31.797-0.645,63.665-0.645,95.391-1.862c26.354-1.002,53.066,0.859,79.133,4.799l2.006-2.436
			c7.305-9.095,15.325-18.189,23.489-26.568c11.172-11.459,30.866-31.582,48.411-22.272c2.006,1.074,3.796,2.435,5.371,4.082
			c12.676,13.464,11.029,60.156,10.026,77.701c-1.146,20.339-4.583,55.645-18.978,71.185
			c-20.268,21.914-42.468,43.184-63.952,63.952c-8.809,8.521-6.66,7.018-7.019,19.551c8.093,12.174,15.541,24.85,22.272,37.311
			c7.161,13.178,13.894,26.712,19.98,40.534c18.62-17.832,42.754-34.519,68.249-34.16c7.305,0.144,14.395,1.433,21.197,4.082
			c22.559,8.809,36.666,30.364,46.907,51.204c13.32,27.213,23.132,58.223,32.656,87.083c7.448-28.145,4.44-66.101,1.074-94.961
			c-5.801-49.628-15.612-98.397-26.999-147.023c-4.869-20.625-9.954-41.106-14.896-61.731c-4.082-17.116-8.164-34.304-11.315-51.635
			c-29.719-163.423,27.715-265.545,176.888-323.696c-37.598,51.133-75.339,135.136-25.495,213.84
			c9.525-4.87,18.906-10.098,28.288-15.612c98.685-58.724,112.362-84.361,220.931-72.402c-39.03,21.484-74.98,54.284-99.33,91.595
			c-48.77,74.694-61.016,168.58-56.217,256.021c2.721,48.053,4.584,96.536,4.01,144.732c-0.43,35.521-2.076,71.973-7.59,107.135
			c-7.02,44.473-21.557,96.393-63.021,120.885c-12.818,7.52-26.927,11.745-41.68,13.464c-20.48,2.435-39.961-1.146-58.007-11.101
			c-55.788-31.009-58.366-86.653-94.388-127.545c-8.522-9.739-20.123-14.609-33.443-9.382
			c-19.551,7.663-32.084,29.434-40.248,52.422c33.803,2.793,66.1,13.965,88.014,39.89c25.137,29.863,26.999,66.888,19.265,102.766
			c-6.589,30.723-19.265,58.223-43.47,78.776c0,0,2.291-19.192,0-20.983c-2.363-1.79-4.369-1.504-5.729-0.43l-1.719,1.647
			c-13.75,12.175-28.289,23.776-43.972,32.942l-0.286,0.144l-0.358,0.215l-0.286,0.144l-0.287,0.215l-0.286,0.143l0,0l-0.358,0.215
			l-0.286,0.144l-0.286,0.215l-0.287,0.144l-0.286,0.143l-0.071,0.072l-0.287,0.143l-0.286,0.215l-0.358,0.144l-0.286,0.215
			l-0.215,0.144h-0.071l-0.287,0.215l-0.357,0.143l-0.287,0.215l-0.286,0.144l-0.286,0.144l-0.072,0.071l-0.286,0.144l-0.286,0.215
			l-0.287,0.143l-0.572,0.287l-0.072,0.071l-0.286,0.144l-0.358,0.215l-0.286,0.143l-0.286,0.215l-0.215,0.144h-0.072l-0.357,0.215
			l-0.287,0.144l-0.286,0.215l-0.358,0.143l-0.143,0.144l-0.144,0.071l-0.286,0.144l-0.287,0.215l-0.357,0.144l-0.287,0.215
			l-0.143,0.071l-0.144,0.071l-0.358,0.215l-0.286,0.144l-0.286,0.215l-0.358,0.144l-0.144,0.071l-0.143,0.144l-0.287,0.143
			l-0.286,0.215l-0.358,0.144l-0.286,0.215l-0.144,0.071l-0.143,0.072l-0.358,0.215l-0.286,0.143l-0.287,0.215l-0.357,0.144
			l-0.072,0.071l-0.215,0.072l-0.286,0.215l-0.286,0.143l-0.358,0.215l-0.286,0.144l-0.072,0.071l-0.215,0.144l-0.357,0.143
			l-0.287,0.215l-0.286,0.144l-0.358,0.215c45.332,68.463,131.341,114.583,205.605,144.017
			c57.863,22.988,90.663,66.888,86.223,129.908c-3.795,54.427-28.072,80.208-53.782,114.583
			c5.228-40.749,3.724-85.938-21.126-113.938c-16.9-19.05-29.791-28.073-52.852-38.887c-33.587-15.898-74.121,13.464-102.408,32.441
			c-22.631,15.254-47.838,27.858-73.047,38.528c8.308,19.121,17.26,37.813,26.999,56.146c14.036,26.426,31.296,56.218,49.915,79.851
			c49.199,62.375-34.018,101.764-87.441,108.639c31.797,60.084,60.514,133.703,60.229,201.522
			c-0.43,96.822-73.405,102.767-130.268,37.311c-37.453-43.111-63.521-139.361-76.627-195.507l0,0
			c-26.211,1.433-52.708-1.074-78.917-7.018c-20.912-4.727-42.109-9.525-63.308-13.178c-13.75-2.363-27.429-4.082-41.394-4.439
			c-15.039-0.358-30.149,0.859-45.117,2.363c-10.957,1.074-21.914,2.291-32.87,3.509l-0.358,2.22
			c-5.729,34.519-14.824,68.678-26.139,101.836c-17.761,51.634-38.457,105.702-78.418,135.494
			c-9.238,6.875-20.768,12.031-32.584,9.954c-54.643-9.812-49.414-121.314-40.534-155.188c9.739-37.239,21.771-74.12,35.091-110.285
			c-12.031-6.947-23.346-15.612-33.802-26.068c-19.98-20.052-32.083-40.39-41.751-66.601c10.527-12.819,14.466-21.843,20.84-37.312
			c16.328-39.459,28.717-82.786,39.603-123.964C5561.283,267.822,5563.431,259.3,5565.436,250.777z"/>
		<path fill="#4E32BC" d="M5647.72-228.823c0,0-56.359-57.005-63.594-83.431c-7.16-26.354,86.439-226.158,75.053-258.6
			c-11.459-32.369-32.299-70.182,0.931-71.972s140.65,33.014,239.048,114.583c98.398,81.64,125.97,157.838,120.599,172.232
			c-3.652,9.668-28.073,51.132-43.542,77.057c8.45-3.796,17.761-8.021,27.429-12.103c18.047-37.168,50.488-87.298,98.612-99.831
			c0,0-51.991,28.503-81.21,93.099c22.773-8.092,46.262-13.105,65.168-6.946c23.848-26.855,51.276-62.161,49.916-81.282
			c-2.363-33.587-43.184-129.049-86.367-179.394c-43.184-50.417-53.997-56.433-53.997-56.433s19.479,4.799,34.804,17.116
			c15.254,12.317,37.813,40.82,37.813,40.82s0.859-36.022-1.861-60.657c-2.65-24.563-11.674-37.168-11.674-37.168
			s15.898,6.302,21.628,31.51c5.657,25.209,3.581,51.921,3.581,51.921s44.688-43.255,63.307-63.307
			c18.62-20.124,17.976-116.445,9.023-126.042c-9.023-9.596-51.92,43.828-51.92,43.828s10.813,2.722,17.402,9.883
			c6.588,7.233,6.588,7.233,6.588,7.233s-54.57-15.612-117.59-13.249c-63.021,2.435-167.434,0-215.989,10.813
			c-48.626,10.814-81.354,37.24-81.354,37.24s78.06,20.982,139.505,47.981c61.515,26.998,80.135,62.948,80.135,62.948
			s-77.987-54.283-149.387-77.63c-71.398-23.417-129.049-39.603-153.898-27.643c-24.922,12.031-0.287,72.33,8.665,90.306
			c9.023,17.975,4.798,37.525-2.722,60.586c-7.447,23.131-65.383,173.092-72.258,191.425c-6.875,18.262,6.875,33.014,20.982,49.485
			C5598.451-253.459,5615.494-236.916,5647.72-228.823z"/>
		<path fill="#A698DD" d="M6089.007-714.297c-21.484-3.58-50.773-6.803-82.141-5.657c-63.021,2.435-167.434,0-215.989,10.813
			c-48.626,10.814-81.354,37.24-81.354,37.24s6.374,1.646,16.758,4.727c16.972-10.313,76.698-41.895,178.247-44.258
			C5994.763-713.58,6060.935-714.153,6089.007-714.297z"/>
		<path fill="#392589" d="M6061.866-307.313c8.593-0.573,16.828,0.144,24.348,2.578c23.848-26.855,51.276-62.161,49.916-81.282
			c-2.363-33.587-43.184-129.049-86.367-179.394l-0.357-0.43c23.918,46.979,71.112,145.162,65.67,179.895
			C6110.205-354.578,6080.771-322.638,6061.866-307.313z M5808.996-640.032c13.464,5.013,27.143,10.455,40.033,16.113
			c36.809,16.113,58.222,35.449,69.464,48.411c0.859-12.246-0.787-44.902-38.957-64.31
			C5843.228-658.223,5818.664-646.621,5808.996-640.032z M5874.595-594.844c-27.429-15.54-61.875-33.015-94.818-43.757
			c-71.398-23.417-129.049-39.603-153.898-27.643c-4.941,2.363-7.949,6.66-9.453,12.103c11.602-4.297,27.07-6.302,47.838-4.01
			C5723.918-651.634,5823.749-614.753,5874.595-594.844z M6044.606-591.406c12.174,12.819,23.775,27.5,23.775,27.5
			s0.573-23.274-0.645-45.188c-1.432,3.008-3.293,5.943-5.801,8.521C6055.993-594.414,6049.62-592.122,6044.606-591.406z
			 M6075.4-634.375c0.358,1.36,0.716,2.722,1.074,4.153c5.657,25.209,3.581,51.921,3.581,51.921s44.688-43.255,63.307-63.307
			c18.62-20.124,17.976-116.445,9.023-126.042c-1.861-1.934-5.084-1.289-9.023,0.932c6.589,9.166,10.671,21.556,9.096,38.385
			C6147.731-677.701,6090.01-642.467,6075.4-634.375z"/>
		<path fill="#A698DD" d="M5647.72-228.823c0,0-56.359-57.005-63.594-83.431c-6.445-23.562,67.748-185.839,75.339-243.059
			c-17.402,65.169-83.144,206.679-86.653,232.675c-3.079,23.418,30.221,64.022,47.48,83.216
			C5628.169-235.125,5637.122-231.473,5647.72-228.823z M5727.285-627.858c47.909,17.188,111.574,49.629,171.873,99.616
			c98.398,81.64,125.97,157.838,120.599,172.232c-3.652,9.668-28.073,51.132-43.542,77.057c8.45-3.796,17.761-8.021,27.429-12.103
			c7.877-16.186,18.404-34.805,31.867-51.706C6048.546-435.646,5834.276-618.978,5727.285-627.858z"/>
		<path fill="#6B50D7" d="M5640.273-202.254c0,0-20.124-8.164-38.1-29.721c-18.047-21.627-28.502-35.091-28.502-35.091
			s-11.744,2.649,0,27.285c11.674,24.563,40.176,46.478,42.61,60.872c2.363,14.395-30.794,2.292-30.794,2.292
			s25.279,3.724,22.057-5.729s-12.604-17.259-19.479-24.563c-6.875-7.376-14.681-18.477-14.681-18.477s-22.415-4.082-4.941,41.823
			c8.737,22.845,23.991,44.759,49.915,62.877c1.002-2.221,2.291-4.297,3.724-6.23c7.161-9.238,20.267-15.755,31.797-10.813
			c1.504,0.645,2.864,1.432,4.153,2.291c-6.016-7.949-5.299-15.396-1.002-18.118c12.031-7.448,38.457-5.371,38.457-5.371
			s-31.654,3.724-34.232,13.034c-2.578,9.31,46.55,35.878,114.869,25.78c68.393-10.025,158.411-66.243,196.223-101.979
			c37.813-35.664,82.786-58.651,94.388-63.45c11.529-4.798,21.126-5.371,21.126-5.371s-23.991-16.829-75.338,14.968
			c-51.276,31.797-127.186,75.123-202.167,89.017c-74.98,13.893-107.422,4.297-107.422,4.297s54.141,3.58,129.049-18.333
			c74.98-21.843,161.848-72.546,161.848-72.546s-138.931,55.501-207.61,65.671c-68.749,10.169-108.925-2.722-129.335-7.162
			c-20.41-4.512-41.68-15.469-41.68-15.469S5619.576-219.8,5640.273-202.254z M5665.123-96.981
			c19.336,7.019,42.109,12.604,68.75,16.328c40.462,5.657,80.853-0.071,117.806-12.031c-0.144-11.028,3.223-20.696,12.747-26.354
			c5.085-2.936,10.814-4.153,16.615-2.721c6.301,1.646,10.957,6.016,14.465,11.458c3.797-1.862,7.449-3.724,11.101-5.586
			c-4.511-8.809-5.73-19.766-5.085-28.789c0.502-5.514,1.648-11.172,3.796-16.399c-40.963,24.922-87.513,45.547-136.068,49.557
			c-60.729,5.014-92.382-6.373-106.347-18.691c3.652,5.658,4.512,13.034,3.796,20.124
			C5666.197-105.719,5665.696-101.278,5665.123-96.981z M5978.22-165.803c2.937-2.722,5.658-5.371,8.236-8.093
			c46.477-47.767,74.121-81.64,91.522-97.252c17.402-15.611,24.277-16.471,24.277-16.471s-31.224,0-78.274,37.454
			c-19.407,15.469-47.552,40.104-81.497,64.381C5957.094-186.142,5969.841-178.622,5978.22-165.803z"/>
		<path fill="#A698DD" d="M5598.808-205.119c8.736,10.17,16.256,19.121,17.474,26.211c1.862,11.172-17.761,6.374-26.569,3.652l0,0
			c0,0,17.26,13.105,30.938,8.594c13.607-4.583-22.701-39.459-22.701-39.459S5598.306-205.764,5598.808-205.119z M5663.619-149.26
			c-1.146,1.003-2.005,2.148-2.363,3.366c-2.578,9.31,46.55,35.878,114.869,25.78c24.492-3.58,51.706-13.105,78.347-25.423
			c-63.594,22.129-129.335,22.2-160.416,13.32C5671.138-138.661,5664.836-145.034,5663.619-149.26z"/>
		<path fill="#4E32BC" d="M5609.193-224.24c-2.363-2.363-4.727-4.941-7.02-7.734c-18.047-21.627-28.502-35.091-28.502-35.091
			s-11.744,2.649,0,27.285c5.014,10.527,13.105,20.625,20.982,29.792c-2.148-5.443-2.863-11.315,1.863-14.609
			C5599.955-226.961,5604.537-226.245,5609.193-224.24z M5582.91-212.854c-5.156-6.23-9.524-12.532-9.524-12.532
			s-22.415-4.082-4.941,41.823c8.737,22.845,23.991,44.759,49.915,62.877c1.002-2.221,2.291-4.297,3.724-6.23
			c0.215-0.215,0.43-0.43,0.573-0.717c-22.916-13.606-40.678-30.794-47.838-51.419C5568.373-197.6,5570.951-216.362,5582.91-212.854
			z M5947.14-201.037c9.811-7.447,18.333-14.609,25.208-21.055c37.813-35.664,82.786-58.651,94.388-63.45
			c11.529-4.798,21.126-5.371,21.126-5.371s-23.991-16.829-75.338,14.968c-13.392,8.307-28.431,17.402-44.688,26.568
			c8.021-1.146,12.891,0.932,8.88,9.812C5971.632-228.25,5959.242-213.713,5947.14-201.037z M5852.108-207.339
			c69.537-24.063,141.724-66.172,141.724-66.172s-138.931,55.501-207.61,65.671c-68.749,10.169-108.925-2.722-129.335-7.162
			c-20.41-4.512-41.68-15.469-41.68-15.469s2.507,6.088,12.604,16.543c1.575-2.506,11.816-3.294,56.146,11.172
			c69.608,22.773,141.653-10.957,162.923-13.105C5859.986-217.222,5856.62-211.779,5852.108-207.339z M6021.762-228.823
			c13.104-17.617,6.589-19.694-2.005-17.903c1.432-1.218,2.864-2.292,4.225-3.438c47.051-37.454,78.274-37.454,78.274-37.454
			s-6.875,0.859-24.277,16.471c-17.401,15.612-45.046,49.485-91.522,97.252c-2.578,2.722-5.3,5.371-8.236,8.093
			c-2.005-3.079-4.297-5.872-6.803-8.308C5990.18-190.725,6007.224-209.201,6021.762-228.823z M5666.412-107.58
			c17.904,6.302,36.811,11.1,55.215,14.395c44.258,7.806,89.16,2.864,131.556-11.459c-1.074,3.652-1.575,7.734-1.504,11.96
			c-36.953,11.96-77.344,17.688-117.806,12.031c-26.641-3.724-49.414-9.31-68.75-16.328
			C5665.552-100.49,5665.982-104,5666.412-107.58z M5887.771-118.681c5.086-2.363,10.17-4.941,15.111-7.591
			c0.859,3.58,2.076,7.161,3.725,10.384c-3.652,1.862-7.304,3.724-11.101,5.586C5893.357-113.596,5890.851-116.532,5887.771-118.681
			z"/>
		<path fill="#EEEAFF" d="M5718.261-217.15c0,0,55.214,8.093,128.117-17.115c72.903-25.137,115.298-41.035,115.298-41.035
			s39.604-65.742,45.046-81.641c5.371-15.898-38.601-118.808-144.231-188.99c-105.631-70.182-144.23-75.267-144.23-75.267
			s-39.746,28.503-39.46,66.602s31.797-14.753,31.797-14.753s11.101,41.394,33.3,39.03c22.201-2.435,3.008-38.386,3.008-38.386
			s37.526,26.354,51.921,14.682c14.395-11.674-21.628-34.519-21.628-34.519s45.332,8.737,39.03,38.743
			c-6.302,29.936-48.34,8.093-48.34,8.093s4.226,23.991-23.06,27.285S5707.59-545,5707.59-545s-5.085,10.885-13.105,15.469
			c-8.021,4.583-12.891,2.721-12.891,2.721s-18.333,49.343-22.2,92.526c-3.939,43.255-14.108,55.501-16.83,72.044
			c-2.649,16.471-2.649,28.358,0,37.167c2.722,8.881,4.082,10.385,4.082,10.385c-4.869-3.438-8.307-6.303-12.389-10.6
			C5634.257-325.288,5646.216-253.889,5718.261-217.15z"/>
		<path fill="#FFFFFF" d="M5680.376-568.275c-1.002,4.369-1.575,8.952-1.575,13.679c0.286,38.099,31.797-14.753,31.797-14.753
			s11.101,41.394,33.3,39.03c22.201-2.435,3.008-38.386,3.008-38.386s37.526,26.354,51.921,14.682
			c6.445-5.3,2.722-12.748-3.294-19.479c1.36,4.798,0.859,10.098-8.236,9.739c-16.543-0.572-48.77-18.404-48.77-18.404
			s14.109,31.295,0,33.73c-14.107,2.435-26.854-36.022-26.854-36.022s-10.169,20.84-22.988,23.418
			C5684.531-560.183,5681.953-563.477,5680.376-568.275z"/>
		<path fill="#CCC1F4" d="M5718.261-217.15c0,0,37.023,5.443,90.377-6.445c-139.863,16.543-174.381-101.692-174.381-101.692
			S5646.216-253.889,5718.261-217.15z M5777.701-537.624c-5.729-2.005-9.812-4.082-9.812-4.082s2.937,16.687-11.96,24.134
			c4.082,0.358,8.522,0.144,12.676-1.36C5776.483-521.869,5777.843-531.035,5777.701-537.624z M5714.322-530.893
			c-4.727-7.232-6.731-14.107-6.731-14.107s-5.013,10.813-12.962,15.396c1.646,2.148,4.153,4.082,7.734,4.655
			C5707.161-524.232,5711.458-527.598,5714.322-530.893z M5767.388-602.077c-34.877-17.259-49.127-19.121-49.127-19.121
			s-11.387,8.164-21.914,21.557C5713.176-605.586,5736.451-608.665,5767.388-602.077z M5889.205-249.233
			c46.405-16.328,72.472-26.067,72.472-26.067s39.604-65.742,45.046-81.641c4.082-12.031-20.052-73.69-77.559-133.346
			C5986.241-389.454,5966.403-294.422,5889.205-249.233z"/>
		<path d="M5671.282-435.502c8.594,1.218,28.359,5.156,46.907,16.973c24.564,15.54,28.072,31.009,18.764,30.078
			c-2.938-0.287-5.945-1.862-9.238-4.226c2.076,16.113-4.799,29.147-15.541,29.147s-21.27-13.178-23.489-29.434
			c-1.218-8.594,0.144-16.257,3.294-21.628c-16.185-6.589-23.561-8.235-27.5-11.745
			C5661.757-428.842,5662.258-436.791,5671.282-435.502z"/>
		<path d="M5879.177-456.986c-9.022,2.649-29.504,10.026-47.551,25.566c-23.848,20.553-25.065,37.669-15.254,35.234
			c3.079-0.788,6.016-3.008,9.238-6.016c0.286,17.545,10.957,33.443,22.415,31.725c20.195-3.008,26.354-43.326,12.317-60.943
			c16.257-9.597,23.848-12.532,27.5-16.901C5890.349-451.4,5888.63-459.851,5879.177-456.986z"/>
		<path d="M5769.608-363.529c0,0-33.729,15.182-48.268,30.722c-14.538,15.612,5.729,23.275,15.897,25.854
			c10.17,2.506,14.252-2.722,19.766-10.814c5.586-8.092,8.308-16.973-5.801-15.182c-14.107,1.79-17.115,3.15-17.115,3.15
			S5733.8-339.252,5769.608-363.529z"/>
		<path d="M5759.726-285.972c0,0,15.754-2.864,39.172-16.543c23.418-13.606,59.87-36.881,79.635-27.571
			c19.838,9.31,27.644,51.777-24.563,64.238c-56.433,13.392-72.26-5.085-78.203-16.113
			C5775.767-281.961,5763.664-278.309,5759.726-285.972z"/>
		<path fill="#FFFFFF" d="M5785.363-285.685c10.886,24.563,79.135,15.683,94.102-6.875c6.803-10.313,5.729-19.265,0.502-24.707
			c-5.371,4.225-14.538,10.599-27.93,17.688c0,0,15.54-11.888,21.985-21.628c-4.44-1.79-10.098-2.005-15.97-0.143
			C5839.503-315.548,5812.72-297.859,5785.363-285.685z"/>
		<path fill="#CCCCCC" d="M5787.726-281.89c16.042,19.766,77.631,10.671,91.738-10.67c5.943-9.023,5.873-17.045,2.221-22.559
			c0.787,10.957-3.652,24.063-24.492,32.728C5827.115-270.073,5800.402-276.948,5787.726-281.89z"/>
		<path fill="#FFFFFF" d="M5709.125-386.492c2.966,0,5.765,4.603,6.249,10.279c0.486,5.678-1.525,10.28-4.492,10.28
			s-5.764-4.603-6.25-10.28C5704.148-381.89,5706.16-386.492,5709.125-386.492z"/>
		<path fill="#FFFFFF" d="M5847.066-395.3c-3.491,0.52-6.106,5.563-5.841,11.263c0.265,5.701,3.31,9.9,6.802,9.381
			c3.49-0.521,6.105-5.563,5.84-11.264C5853.601-391.62,5850.556-395.82,5847.066-395.3z"/>
		<path d="M5771.255-646.406l0.716-3.938c6.589-36.38,17.331-73.906,29.72-108.639c21.413-60.013,51.276-119.954,92.168-169.225
			c24.993-30.007,56.575-65.384,88.945-87.656c15.469-10.67,43.398-26.139,59.512-7.949c7.52,8.522,7.447,19.98,4.01,30.15
			c-12.676,37.167-20.625,73.978-26.139,112.792c-4.512,31.868-7.377,64.238-13.965,95.819
			c-6.66,32.227-17.116,61.374-33.659,89.948c-21.628,37.168-51.204,69.752-82.643,98.827l-1.719,1.647
			C5849.171-618.118,5799.901-636.667,5771.255-646.406z"/>
		<path fill="#EEEAFF" d="M5788.514-647.337c4.44-24.492,33.516-168.079,118.307-270.13
			c92.955-111.933,133.201-109.784,123.605-81.567c-58.15,170.799,3.223,246.711-151.894,390.44
			c-11.959-6.445-23.918-12.175-35.09-17.188c23.489-161.275,134.347-275.644,134.347-275.644
			c-95.605,72.545-133.631,198.587-144.875,271.061C5807.492-641.25,5788.514-647.337,5788.514-647.337z"/>
		<path fill="#CCC1F4" d="M5867.433-614.395c-8.164-4.153-16.256-7.949-23.99-11.387c16.973-116.444,79.491-208.469,112.863-250.578
			C5971.202-828.665,5983.376-724.967,5867.433-614.395z"/>
		<path fill="#FFFFFF" d="M5895.578-903.358c3.652-4.727,7.376-9.453,11.244-14.109c92.955-111.933,133.201-109.784,123.605-81.567
			c-35.521,104.198-26.497,173.091-49.271,243.631c8.952-46.764,15.325-101.764,16.829-144.087
			c2.937-80.566,19.766-98.255-13.177-76.627C5966.69-964.302,5927.445-931.073,5895.578-903.358z"/>
		<path fill="#EEEAFF" d="M5664.98-680.709c-1.576-30.078-0.859-65.169,5.156-101.765c16.758-101.979,30.579-131.698,29.075-165.93
			c-1.504-34.16,11.387-53.353,40.819,0c25.566,46.549,43.686,153.899,36.811,231.528c-15.971,3.796-31.439,10.098-45.904,18.119
			c6.803-61.946,5.801-138.431-19.551-203.886c0,0,21.125,94.101,8.021,210.833c-7.448,4.798-14.538,10.098-21.27,15.684
			C5698.137-676.126,5680.09-680.064,5664.98-680.709z"/>
		<path fill="#CCC1F4" d="M5715.826-877.291c-14.322,32.942-43.541,111.862-37.955,197.727c10.885,1.36,20.267,3.438,20.267,3.438
			c6.731-5.586,13.821-10.886,21.27-15.684C5728.429-772.161,5721.197-841.698,5715.826-877.291z"/>
		<path fill="#FFFFFF" d="M5699.14-952.056c7.949-4.369,15.684-5.228,22.129-0.071c19.479,15.469,40.246,87.584,54.354,146.451
			c-5.515-56.719-18.978-112.506-35.593-142.728C5711.672-999.822,5698.71-983.853,5699.14-952.056z"/>
		<path fill="#6B50D7" d="M6129.827-447.819c16.186-17.475,40.964-38.744,65.17-38.386c40.748,0.573,58.795,51.133,85.793,133.203
			c26.999,82.069,59.369,137.355,105.56,124.179c46.191-13.177,50.417-66.529,50.417-66.529s-13.535,48.554-56.433,57.506
			c-42.897,9.023-80.351-94.388-80.351-94.388s26.354-17.474,13.75-125.325c-12.604-107.851-42.539-202.095-53.354-261.464
			c-10.813-59.368-5.442-98.971-5.442-98.971s11.458,58.796,88.229,32.37c76.77-26.354,118.808-62.376,167.361-91.165
			c48.627-28.861,91.237-26.999,91.237-26.999s-144.017,79.349-129.622,338.449c14.395,259.029-7.949,358.501-93.457,368.599
			c-85.507,10.098-111.432-106.776-146.236-136.783c0,0,17.116,1.218,34.519,24.277c17.402,23.132,37.526,58.509,37.526,58.509
			s-26.426-68.965-55.215-86.653c-52.779-32.441-98.47,9.883-111.002,61.016c-3.652,0-7.377,0.071-11.029,0.143
			c-2.363-16.9-20.123-16.471-31.152-22.987c14.252-16.615,32.656-39.89,42.897-59.941c12.39-10.313,25.495-19.121,37.383-22.988
			c38.671-12.604,64.166,9.023,64.166,9.023s-36.308-44.401-94.244-6.159c0.358-2.435,0.43-4.798,0.215-6.875
			C6144.365-405.711,6136.058-430.919,6129.827-447.819z"/>
		<path fill="#4E32BC" d="M6342.952-255.464c-25.137-27.571-42.969-76.771-42.969-76.771s26.354-17.474,13.75-125.325
			c-10.527-90.521-33.373-171.444-46.836-230.239C6316.312-565.124,6503.438-396.114,6342.952-255.464z"/>
		<path fill="#4E32BC" d="M6376.825-196.525c-84.004,8.164-109.785-107.206-144.375-136.998c0,0,17.116,1.218,34.519,24.277
			c17.402,23.132,37.526,58.509,37.526,58.509s-26.426-68.965-55.215-86.653c-52.779-32.441-98.47,9.883-111.002,61.016
			c-3.652,0-7.377,0.071-11.029,0.143c-1.719-12.245-11.529-15.396-21.055-18.69l2.077-2.221
			c23.562-33.443,48.984-78.06,97.753-73.189c65.385,6.445,79.779,61.517,99.258,101.478
			C6320.106-238.42,6328.772-201.252,6376.825-196.525z"/>
		<path fill="#A698DD" d="M6129.827-447.819c16.186-17.475,40.964-38.744,65.17-38.386c19.479,0.286,33.801,12.031,46.405,33.157
			c-38.671-47.981-81.854-12.317-106.347,20.053C6133.265-438.366,6131.475-443.38,6129.827-447.819z M6601.479-903.645
			c-6.589,3.795-143.372,85.436-129.336,338.306c11.959,214.413-1.36,319.472-54.785,355.063
			c30.508-43.971,54.141-112.291,48.412-218.065C6451.376-693.528,6461.688-825.872,6601.479-903.645z"/>
		<path fill="#EEEAFF" d="M6035.511-146.467c10.527-45.26,21.484-104.986,67.819-111.002
			c114.654-14.824,183.189,46.263,126.757,172.805c0.215-12.604-4.439-27.643-11.314-19.479
			c-12.318,14.681-31.01,31.438-60.299,48.555c-43.471,25.423-75.124,43.183-97.467,57.076
			c6.373-17.474,11.386-38.528,13.605-57.363c3.867-33.873-27.141-41.106-27.141-41.106s0-8.88-2.148-19.622
			c-0.859-4.512-2.293-9.096-3.652-12.891c27.785-37.813,46.477-73.477,98.397-86.367
			C6067.881-215.789,6066.162-168.882,6035.511-146.467z"/>
		<path fill="#CCC1F4" d="M6035.511-146.467c4.012-17.188,8.094-36.523,14.109-54.141c7.447-2.22,15.324-4.297,22.486-5.514
			c11.028-1.934,19.121-2.077,24.707-1.647C6065.088-193.374,6058.284-163.153,6035.511-146.467z M6248.707-145.464
			c-2.649,18.189-8.665,38.456-18.62,60.8c0.215-12.604-4.439-27.643-11.314-19.479c-12.318,14.681-31.01,31.438-60.299,48.555
			c-43.471,25.423-75.124,43.183-97.467,57.076c6.373-17.474,11.386-38.528,13.605-57.363c0.358-3.079,0.43-5.872,0.215-8.521
			c8.594,1.074,21.771,0.143,41.322-6.804c42.324-14.968,101.262-58.151,109.068-64.739c7.806-6.66,11.1-12.819,11.1-12.819
			s2.578,8.737,0,19.694C6234.456-121.188,6242.906-133.075,6248.707-145.464z"/>
		<path fill="#FFFFFF" d="M6069.743-238.85c8.594-9.883,19.407-16.758,33.587-18.619c70.612-9.096,123.678,10.527,140.865,56.504
			C6203.304-255.822,6130.042-251.382,6069.743-238.85z M6045.036-118.18c-0.859-3.938-2.148-7.949-3.365-11.314
			c24.133-32.871,41.393-64.023,79.491-80.137c-6.374,3.151-21.413,12.891-40.677,41.394
			C6062.726-141.884,6050.694-125.699,6045.036-118.18z"/>
		<path fill="#EEEAFF" d="M6029.782-64.11c0,0-8.235,17.116-25.781,15.755c-17.545-1.36-0.572-32.728,18.19-37.525
			c18.69-4.799,42.753,0.572,36.737,37.598c-6.016,36.952-17.402,78.059-48.339,84.647c-30.866,6.589-45.403-11.673-57.507-27.285
			c-12.031-15.611-52.564-13.893-71.47-50.702c-18.906-36.811-20.982-59.87-10.527-66.029c10.527-6.158,15.756,7.09,21.342,23.275
			c5.514,16.185,20.695,32.154,38.957,24.349c18.334-7.878,17.26-26.784,17.26-26.784s4.368,13.894,19.551,11.101
			c15.11-2.722,18.262-6.589,18.262-6.589s-1.719,5.658,0,11.53c1.719,5.801,2.578,6.946,2.578,6.946s-8.952,15.898,2.148,22.917
			c11.1,7.09,28.145-0.144,28.145-0.144s-0.215,8.236-5.156,12.747c-4.941,4.512-9.597,5.729-9.597,5.729
			C6026.417-22.073,6033.077-46.063,6029.782-64.11z M6034.509-97.841c-1.074-18.763-5.729-44.186-27.93-45.475
			c-33.587-1.934-51.92,30.579-53.424,45.904c-1.504,15.254,19.837,15.469,33.301,5.371c13.535-10.026,14.681-22.63,14.681-22.63
			s3.938,4.01,2.148,14.395c-1.79,10.384-7.233,13.463-7.233,13.463s-2.076,5.443-1.719,11.816
			C6001.065-85.236,6014.027-99.059,6034.509-97.841z M5948.07-153.198c0,0,7.52,29.218-14.108,38.241
			c-21.627,8.952-27.355-42.753-6.016-53.567c19.336-9.739,37.598-1.36,44.688,21.843c-4.082,2.435-8.809,5.872-13.248,10.456
			C5958.024-144.963,5954.874-152.626,5948.07-153.198z"/>
		<path fill="#FFFFFF" d="M6029.782-64.11c0,0-8.235,17.116-25.781,15.755c-7.376-0.572-8.665-6.517-6.23-13.463
			c2.937,6.302,12.175,7.232,20.482-2.793c11.529-13.965,21.627-13.822,26.426,2.864c4.797,16.687-5.301,63.235-35.879,84.146
			c-12.104,8.235-24.922,9.167-37.383,6.302c-7.377-5.514-13.105-12.818-18.334-19.622c-8.88-11.529-33.229-13.606-52.994-28.646
			c-12.604-17.33-22.416-40.176-26.712-62.877c-3.151-16.472,1.074-23.132,6.302-25.71c5.299,3.079,8.951,12.747,12.748,23.776
			c5.514,16.185,20.695,32.154,38.957,24.349c18.334-7.878,17.26-26.784,17.26-26.784s4.368,13.894,19.551,11.101
			c15.11-2.722,18.262-6.589,18.262-6.589s-1.719,5.658,0,11.53c1.719,5.801,2.578,6.946,2.578,6.946s-8.952,15.898,2.148,22.917
			c11.1,7.09,28.145-0.144,28.145-0.144s-0.215,8.236-5.156,12.747c-4.941,4.512-9.597,5.729-9.597,5.729
			C6026.417-22.073,6033.077-46.063,6029.782-64.11z M6011.306-92.04c3.223-5.442,5.156-11.673,2.865-19.98
			c-5.229-19.336-18.262-20.124-30.723,3.938c-9.023,17.331-26.999,17.26-29.577,6.589c-0.358,1.433-0.573,2.793-0.716,4.082
			c-1.504,15.254,19.837,15.469,33.301,5.371c13.535-10.026,14.681-22.63,14.681-22.63s3.938,4.01,2.148,14.395
			c-1.79,10.384-7.233,13.463-7.233,13.463s-2.076,5.443-1.719,11.816C5998.058-80.653,6003.571-87.313,6011.306-92.04z
			 M5964.972-141.382c-2.507-13.965-15.326-23.347-22.631-19.694c-10.957,5.586,2.292,24.277-9.883,35.735
			c-5.371,5.013-10.742,3.938-15.182,1.146c3.15,7.807,8.88,12.461,16.686,9.238c21.628-9.023,14.108-38.241,14.108-38.241
			c6.804,0.572,9.954,8.235,11.315,16.973C5961.247-138.159,5963.109-139.807,5964.972-141.382z"/>
		<path fill="#EEEAFF" d="M5534.427-137.658c0.859,16.471,13.033,38.6,31.224,35.879c0,0,18.763,31.295,37.956,27.285
			c19.191-3.939,21.412-27.715,26.568-40.176c5.084-12.461,25.781-19.336,23.346,3.15c-2.363,22.487-5.943,53.21-25.494,76.914
			c-19.479,23.704-42.324,18.047-54.283,33.659c-11.96,15.54-15.326,37.74-62.09,28.144c-46.836-9.596-51.275-62.948-45.619-76.77
			c5.729-13.822,28.359-7.663,39.89,9.31c11.602,16.9,1.218,22.344-7.305,19.908c-8.594-2.363-16.973-14.537-16.973-14.537
			s-0.286,12.174,11.673,20.267c12.031,8.093,33.659,3.008,23.705-21.627c-9.883-24.564-31.152-28.789-31.152-28.789
			s-25.494-42.324-9.453-60.729c16.041-18.477,44.258,1.074,53.711,18.906s-4.226,29.075-19.98,22.058
			c-15.756-7.09-16.472-23.562-16.472-23.562s-7.949,16.901,11.673,29.935c7.52,4.941,15.469,5.873,22.201,4.082
			c7.52,12.318,20.338,17.617,8.665-4.439c5.586-4.87,8.379-12.533,5.586-21.342c-6.445-20.41-23.132-34.374-23.132-34.374
			s-3.438-25.137,15.183-31.296s37.024,21.699,39.316,41.536c2.22,19.766-15.469,16.042-23.704,6.875
			C5541.23-126.559,5534.427-137.658,5534.427-137.658z"/>
		<path fill="#FFFFFF" d="M5534.427-137.658c0.859,16.471,13.033,38.6,31.224,35.879c0,0,18.763,31.295,37.956,27.285
			c19.191-3.939,21.412-27.715,26.568-40.176c0-0.144,0.071-0.287,0.143-0.43c7.663-6.518,13.535-5.515,14.467,13.606
			c0.859,17.761-4.226,45.905-21.843,72.402c-18.261,17.402-38.241,13.893-49.198,28.145c-7.377,9.524-11.459,21.627-24.421,27.284
			c-58.867,16.472-80.566-54.498-74.837-63.378c6.158-9.382,9.883,0.788,22.988,4.941c6.803,2.22,10.527,0.43,11.172-3.724
			c6.946,13.463-2.292,17.688-10.026,15.468c-8.594-2.363-16.973-14.537-16.973-14.537s-0.286,12.174,11.673,20.267
			c12.031,8.093,33.659,3.008,23.705-21.627c-4.87-12.175-12.533-19.336-19.05-23.49c-9.095-18.118-19.336-51.348-9.668-56.646
			c11.53-6.23,13.535,17.903,27.285,24.205c8.522,3.867,14.108-2.291,17.188-7.591c2.937,13.535-9.095,20.983-22.63,14.968
			c-15.756-7.09-16.472-23.562-16.472-23.562s-7.949,16.901,11.673,29.935c7.52,4.941,15.469,5.873,22.201,4.082
			c7.52,12.318,20.338,17.617,8.665-4.439c5.586-4.87,8.379-12.533,5.586-21.342c-3.724-11.816-10.886-21.484-16.257-27.5
			c-1.432-5.943-1.36-11.959,2.221-16.041c10.098-11.458,12.747,19.693,31.152,19.049c7.949-0.215,10.313-6.517,10.527-13.534
			c1.934,4.726,3.223,9.524,3.724,13.893c2.22,19.766-15.469,16.042-23.704,6.875
			C5541.23-126.559,5534.427-137.658,5534.427-137.658z"/>
		<path fill="#EEEAFF" d="M5415.118-86.669c-12.532-32.942,1.003-80.352,26.067-104.342
			c45.117-43.184,118.164-45.403,118.164-45.403c-2.578,1.646-4.941,3.795-6.804,6.373c-10.241,14.252-3.151,36.953,2.435,51.634
			c0.573,1.504,1.218,3.008,1.791,4.44c-12.748-13.249-35.307-32.154-71.543-17.688c26.641-1.36,39.817,4.01,50.918,13.105
			c-2.006,0.215-4.011,0.645-6.088,1.36c-15.254,5.013-22.773,19.622-23.633,34.661c-13.535-4.941-28.072-3.795-39.102,8.88
			c-9.953,11.459-9.453,27.357-5.871,41.322c1.934,7.734,5.227,16.328,9.094,24.205c-2.291,0.645-4.583,1.647-6.66,3.008
			c-4.082,2.65-7.09,6.445-8.951,10.957c-1.719,4.297-2.65,9.382-2.793,14.753c-13.893-15.254-18.119-29.075-21.27-48.483
			C5427.937-106.148,5419.056-100.705,5415.118-86.669z"/>
		<path fill="#CCC1F4" d="M5415.118-86.669c-6.66-17.474-5.944-38.958-0.144-58.938c0.43,5.586,1.003,10.527,1.791,14.18
			c3.652,17.832,3.652,17.832,3.652,17.832s6.516-21.198,11.172-8.881c4.654,12.318,15.469,44.902,38.957,54.355
			c-2.291,0.645-4.583,1.647-6.66,3.008c-4.082,2.65-7.09,6.445-8.951,10.957c-1.719,4.297-2.65,9.382-2.793,14.753
			c-13.893-15.254-18.119-29.075-21.27-48.483C5427.937-106.148,5419.056-100.705,5415.118-86.669z M5548.893-198.244
			c1.504,7.162,3.938,14.108,6.087,19.837c0.573,1.504,1.218,3.008,1.791,4.44c-7.377-7.662-18.047-17.259-32.8-21.126
			C5528.554-196.382,5533.281-197.814,5548.893-198.244z"/>
		<path fill="#FFFFFF" d="M5420.417-160.36c5.228-11.959,12.316-22.63,20.768-30.65c45.117-43.184,118.164-45.403,118.164-45.403
			c-2.578,1.646-4.941,3.795-6.804,6.373c-2.292,3.223-3.724,6.804-4.512,10.742C5517.025-220.945,5462.527-214.572,5420.417-160.36
			z"/>
		<path fill="#CCC1F4" d="M5586.419-95.836c-3.51-3.15-5.873-6.23-7.162-8.164c5.371-5.514,6.732-13.75,5.801-21.627
			c-0.215-1.862-0.502-3.796-1.002-5.801c1.359,1.432,2.648,2.793,4.01,4.153C5588.138-120.328,5587.923-108.297,5586.419-95.836z"
			/>
		<path fill="#4E32BC" d="M5322.806,318.095c0,0,23.418-77.415,114.01-127.259c86.296-47.408,254.661-98.827,238.477-269.197
			c-4.369-1.361-8.522-2.793-12.533-4.226c-3.867,20.267-10.599,39.531-24.492,56.36c-8.45,10.313-18.189,16.973-30.436,21.914
			c-6.016,2.363-14.896,4.727-20.123,8.164c-1.361,0.859-2.508,1.934-3.51,3.223c-2.221,2.937-4.225,6.23-6.23,9.381
			c-0.932,1.504-1.934,3.08-3.008,4.512c-4.297,6.159-9.095,10.814-14.322,14.18c-13.965,27.715-32.585,52.351-57.292,68.75
			C5405.593,168.636,5322.806,172.288,5322.806,318.095z M5613.775-106.936c-5.441-3.51-9.883-6.804-13.32-9.453
			c-0.859,8.521-2.004,18.047-3.58,28.359c1.504,0.645,2.865,0.859,4.082,0.645c1.934-0.43,3.438-1.218,4.869-2.65
			C5609.263-93.544,5611.699-100.275,5613.775-106.936z"/>
		<path fill="#392589" d="M5611.269-5.816c-1.146,0.501-2.291,1.003-3.438,1.504c-6.016,2.363-14.896,4.727-20.123,8.164
			c-1.361,0.859-2.508,1.934-3.51,3.223c-2.221,2.937-4.225,6.23-6.23,9.381c-0.932,1.504-1.934,3.08-3.008,4.512
			c-4.297,6.159-9.095,10.814-14.322,14.18c-4.297,8.451-9.023,16.687-14.18,24.492C5577.753,46.032,5598.164,21.684,5611.269-5.816
			z M5613.775-106.936c-5.441-3.51-9.883-6.804-13.32-9.453c-0.859,8.521-2.004,18.047-3.58,28.359
			c1.504,0.645,2.865,0.859,4.082,0.645c1.934-0.43,3.438-1.218,4.869-2.65C5609.263-93.544,5611.699-100.275,5613.775-106.936z"/>
		<path fill="#A698DD" d="M5322.806,318.095c0,0,23.418-77.415,114.01-127.259c86.296-47.408,254.661-98.827,238.477-269.197
			c-4.369-1.361-8.522-2.793-12.533-4.226c-4.225,156.263-96.679,189.921-218.279,253.442
			C5322.95,234.307,5322.806,318.095,5322.806,318.095z"/>
		<path fill="#4E32BC" d="M5989.965-155.419c13.105-2.363,23.991-0.501,31.797,2.148c5.585-28.932,13.749-49.485,13.749-49.485
			S6024.841-186.284,5989.965-155.419z M5917.133-99.416c2.363,9.883,5.156,20.195,8.45,30.65
			c19.694-7.806,15.827-38.099,15.827-38.099S5930.453-95.621,5917.133-99.416z M5996.983,56.774
			c29.361,30.508,68.176,55.645,119.309,68.965c215.988,56.432,236.398,80.995,260.39,107.994s23.418,84.361,23.418,84.361
			s76.628-136.497-53.495-188.131c-95.749-37.955-172.949-88.229-214.342-151.894l0,0c-68.105,33.802-83.432,55.931-107.135,69.681
			C6016.176,52.979,6006.078,55.557,5996.983,56.774z"/>
		<path fill="#392589" d="M6061.007,21.182c33.085,8.236,73.762,13.75,116.229,9.238c-17.761-16.327-32.871-33.802-44.974-52.35l0,0
			C6097.458-4.671,6076.403,9.581,6061.007,21.182z"/>
		<path fill="#A698DD" d="M5936.54-78.29c-2.435,4.082-5.943,7.52-10.957,9.524c-3.294-10.455-6.087-20.768-8.45-30.65
			c5.442,1.575,10.527,0.572,14.538-1.074C5933.103-93.4,5934.679-85.881,5936.54-78.29z M6013.312,53.051
			c21.27,18.691,48.34,35.234,82.785,47.838c191.426,69.967,337.733,75.625,304.003,217.206c0,0,0.573-57.362-23.418-84.361
			s-44.401-51.563-260.39-107.994c-51.133-13.32-89.947-38.457-119.309-68.965C6002.282,56.059,6007.868,54.912,6013.312,53.051z"/>
		<path fill="#25185A" d="M5572.597,235.596c8.236-37.455,14.252-75.554,17.689-113.581l0,0
			c-24.492,17.617-51.062,32.155-77.917,45.762c-17.832,8.952-36.022,17.402-53.782,26.497
			C5493.392,200.361,5531.777,213.037,5572.597,235.596z M6273.772,186.539c-11.029-4.01-22.129-7.806-33.158-11.387
			c-41.965-13.678-84.862-25.423-127.616-36.595c-9.453-2.506-18.62-5.371-27.571-8.665c9.381,45.332,23.06,89.947,40.605,132.988
			c28.502-11.816,53.424-24.851,73.547-38.386C6227.438,205.732,6252.216,193.844,6273.772,186.539z"/>
		<path fill="#A698DD" d="M5604.466,111.273c-3.152,41.178-10.887,100.402-29.219,169.296
			c-35.378,133.202-57.578,160.201-57.578,160.201s38.958,105.56,158.697,93.026c119.667-12.604,115.514-17.402,227.087,7.734
			c111.576,25.209,190.781-22.773,228.594-62.949c37.813-40.247,58.223-55.501,67.531-55.214c0,0-93.742-118.809-128.834-299.42
			c-50.988-22.343-71.327-44.615-106.347-84.003l0,0c-8.665-6.303-15.183-14.323-21.771-22.773
			c-3.295-4.368-22.487-10.957-28.002-13.392c-19.55-8.594-34.804-19.98-44.757-39.388c-5.085-9.883-13.249-27.07-16.687-43.686
			c-39.03,12.246-80.352,17.402-121.171,11.745c-14.395-2.005-29.004-4.727-43.256-8.379c4.87,60.729-12.103,113.866-53.782,158.983
			C5625.52,93.227,5615.279,102.607,5604.466,111.273z M5915.772-71.773c-2.721-9.811-5.156-20.052-8.307-29.72
			c-0.717,0.358-5.371,2.649-6.087,3.008C5903.956-88.459,5906.032-80.725,5915.772-71.773z"/>
		<path fill="#867BB3" d="M5559.994,334.566c-26.426,86.796-42.324,106.204-42.324,106.204s38.958,105.56,158.697,93.026
			c119.667-12.604,115.514-17.402,227.087,7.734c111.576,25.209,190.781-22.773,228.594-62.949
			c37.813-40.247,58.223-55.501,67.531-55.214c0,0-93.742-118.809-128.834-299.42c-22.559-9.882-39.102-19.765-53.639-31.151
			c23.49,89.23,78.99,195.937,78.99,278.221c0,108.066-89.804,173.951-205.173,149.029c-115.443-24.922-177.604-8.092-231.1,0
			c-53.424,8.021-97.682-47.552-98.899-109.498C5560.566,392.359,5560.208,364.572,5559.994,334.566z M5859.699-57.88
			c-2.649-6.804-5.013-14.18-6.517-21.413c-39.03,12.246-80.352,17.402-121.171,11.745c-14.395-2.005-29.004-4.727-43.256-8.379
			c0.573,7.305,0.859,14.609,0.788,21.699c13.32,0.931,28.431,2.649,45.331,5.442C5785.721-40.406,5825.252-49.43,5859.699-57.88z
			 M5915.772-71.773c-2.721-9.811-5.156-20.052-8.307-29.72c-0.717,0.358-5.371,2.649-6.087,3.008
			C5903.956-88.459,5906.032-80.725,5915.772-71.773z"/>
		<path fill="#4E32BC" d="M6266.969-880.585c19.407-50.631,60.8-104.915,116.158-126.471
			c-20.554,36.738-50.702,113.438-2.077,190.136c-27.785,16.328-62.447,31.653-89.303,22.129
			C6252.86-808.612,6254.938-849.146,6266.969-880.585z"/>
		<path fill="#25185A" d="M6117.438,505.652c25.996-2.936,50.774-8.594,66.314-19.264c44.4-30.651,21.557-60.3,0-40.82
			C6177.45,451.226,6118.942,507.515,6117.438,505.652z"/>
		<path fill="#EEEAFF" d="M5590,535.588c-10.742,29.146-23.99,68.033-34.732,109.14c-10.313,39.173-9.525,70.039-3.725,92.383
			c-0.931-11.53-0.572-24.134,1.576-36.523c5.801-33.015,18.333-39.03,18.333-39.03s-19.837,54.284-9.597,91.81
			c3.08,11.315,7.52,23.418,20.697,25.781c5.299,0.931,11.959-1.289,19.551-6.875c-5.086-2.22-10.6-7.591-15.039-19.551
			c-11.101-29.648,0-81.854,11.387-85.149c0,0-9.883,43.471-3.939,73.19c16.113,79.42,76.197-84.505,80.137-96.035
			c13.392-39.102,21.055-72.832,25.423-99.042c-7.376,0.787-14.824,1.646-22.2,2.363
			C5646.575,551.343,5616.783,547.476,5590,535.588z M5994.978,561.154c12.676,54.068,38.6,148.742,72.975,188.273
			c19.766,22.773,39.818,33.587,56.719,34.16c-32.154-18.978-73.332-80.638-57.649-104.342c0,0,4.583,35.02,30.293,66.888
			c71.399,88.372,68.606-22.773,31.224-85.794c0,0,5.729-2.077,14.108,9.883c4.87,7.018,20.339,48.34,22.272,80.423
			c2.435-7.949,3.795-17.188,3.795-27.572c0.287-56.79-21.842-127.33-63.379-203.026c-17.115,11.674-35.807,21.198-55,28.073
			C6032.146,554.637,6013.669,558.934,5994.978,561.154z"/>
		<path fill="#CCC1F4" d="M5547.675,690.274c-1.146,18.405,0.502,34.017,3.867,46.836c-0.931-11.53-0.572-24.134,1.576-36.523
			c0.071-0.358,0.143-0.716,0.215-1.074C5551.972,699.441,5550.182,697.865,5547.675,690.274z M5559.564,740.978
			c0.43,4.297,1.217,8.45,2.291,12.389c3.08,11.315,7.52,23.418,20.697,25.781c5.299,0.931,11.959-1.289,19.551-6.875
			c-5.086-2.22-10.6-7.591-15.039-19.551c-1.504-3.938-2.578-8.307-3.367-12.891c-2.793,4.011-6.516,7.592-11.242,9.597
			C5566.439,751.935,5562.213,747.279,5559.564,740.978z M5592.72,724.362c0.215,5.658,0.789,11.244,1.791,16.4
			c16.113,79.42,76.197-84.505,80.137-96.035c13.392-39.102,21.055-72.832,25.423-99.042c-7.376,0.787-14.824,1.646-22.2,2.363
			c-10.241,1.146-20.339,1.432-30.15,0.931c6.875,12.175,11.602,25.137,11.745,37.884c0.573,48.555-24.922,126.9-39.89,146.093
			C5607.115,748.854,5596.087,730.88,5592.72,724.362z M6065.518,542.033c19.05,12.676,37.956,29.075,51.921,49.628
			c29.863,43.972,33.443,79.277,33.014,96.179c6.088,16.686,13.178,41.751,14.467,62.806c2.435-7.949,3.795-17.188,3.795-27.572
			c0.287-56.79-21.842-127.33-63.379-203.026C6092.731,528.641,6079.339,536.018,6065.518,542.033z M6141.716,688.055
			c3.079,19.049,5.872,49.843-3.581,66.601c-7.878,13.894-21.341,9.023-32.083,1.719
			C6159.619,815.313,6164.131,746.778,6141.716,688.055z M6093.089,754.728c-0.716,4.082-4.153,7.376-13.965,6.302
			c16.042,14.896,31.797,22.057,45.547,22.559C6114.358,777.5,6103.115,766.973,6093.089,754.728z"/>
		<path fill="#FFFFFF" d="M5785.363-261.193c21.198,12.104,66.387,7.878,85.795-3.795
			C5845.663-242.788,5810.929-233.335,5785.363-261.193z M5690.833-367.755c7.305,36.165,44.401,34.375,42.61-4.798
			c-2.436,6.803-6.803,12.604-13.75,15.325c-2.363,1.003-4.941,1.504-7.52,1.504c-8.521,0-15.898-5.156-21.055-11.602
			C5691.047-367.469,5690.904-367.611,5690.833-367.755z M5828.905-371.264c11.387,29.648,47.552,24.635,43.613-14.682
			c-3.796,11.315-11.172,21.342-23.347,23.132c-1.575,0.286-3.223,0.286-4.869,0.144
			C5838.143-363.314,5832.916-366.752,5828.905-371.264z"/>
		<g>
			<path fill="#EEEAFF" d="M5785.435-25.653c113.508,0.43,131.698,141.796,67.461,207.681c0,0,57.003-43.685,56.431-104.413
				c-0.645-60.729,20.338-31.081,20.338-31.081S5896.365-44.56,5785.435-25.653z"/>
			<path fill="#EEEAFF" d="M5659.824,333.42c0,0,45.689-23.704,56.79-48.268c11.028-24.635-29.863-14.753-29.863-14.753
				c56.003-19.693,105.702-56.073,140.579-104.342C5827.33,166.058,5791.88,304.273,5659.824,333.42z"/>
			<path fill="#EEEAFF" d="M5929.665,117.217c0,0-26.426,187.271-284.809,292.688c-258.384,105.345-398.819-26.426-398.819-26.426
				s32.441,46.907,82.785,67.246c50.417,20.338,25.854,44.974,3.008,47.91c-22.773,3.008-40.176,0-40.176,0
				C5510.078,596.46,5917.133,386.701,5929.665,117.217z"/>
			<path fill="#EEEAFF" d="M5922.218,546.258c137.643-104.7,122.746-314.673,59.941-411.854
				c10.098,78.848,13.105,170.943-23.203,246.568c17.115-10.886,36.666-52.78,35.592-4.297
				C5993.761,409.188,5975.57,472.424,5922.218,546.258z"/>
			<path fill="#EEEAFF" d="M6045.538-237.059c-189.133-44.831-330.213,70.97-376.763,176.959
				c61.303-71.687,135.423-105.13,218.566-116.517c-18.476-8.308-64.237-1.504-23.131-27.285
				C5891.783-221.232,5954.516-240.854,6045.538-237.059z"/>
			<path fill="#EEEAFF" d="M6279.358,302.913c-10.098-75.41-52.494-135.208-106.634-177.962c-12.175-3.079-23.776-3.724-35.02,1.647
				c-9.812,4.727-17.474,8.736-24.563,10.957c15.826,16.9,29.075,34.518,40.677,51.634c-1.003-20.268-27.715-57.937,13.894-33.015
				C6195.569,172.933,6241.546,219.983,6279.358,302.913z M6055.349,62.575c-37.024-11.96-73.404-17.188-104.414-15.469
				c18.691,3.938,35.879,9.095,51.635,15.254c13.535,0.358,21.27,0.573,21.27,0.573S6037.589,64.15,6055.349,62.575z"/>
			<g>
				<circle fill="#A698DE" cx="5271.531" cy="59.36" r="112.722"/>
				<circle fill="#7A65CD" cx="5271.531" cy="59.36" r="79.341"/>
				<path fill="#4D2C80" fill-opacity="0.302" d="M5275.398-53.297c62.232,2.148,110.931,54.284,108.782,116.517
					s-54.284,110.931-116.517,108.782c-18.262-0.645-14.824-22.702-4.01-34.304c15.039-16.256,44.615-41.249,46.262-78.775
					c1.504-36.523-24.348-62.232-38.957-79.635C5261.577-31.955,5252.124-54.084,5275.398-53.297z"/>
				<path fill="#FFFFFF" fill-opacity="0.702" d="M5180.437,27.27c6.303-19.05,19.336-33.229,29.076-31.653
					c9.811,1.575,12.676,18.333,6.373,37.454c-6.302,19.049-19.264,33.229-29.075,31.653S5174.135,46.391,5180.437,27.27z"/>
				<path d="M5286.498,196.494c0,0-30.363-1.576-42.824,0.572c-12.39,2.148-39.389-27.5-44.688-38.026
					c-5.229-10.527-0.502-19.694,12.103-8.666c12.604,11.101,36.38,20.195,66.745,14.108c30.363-6.159,15.611-11.243,40.676-20.481
					c24.994-9.167,26.354-23.203,35.664-34.089c9.238-10.885,4.584-17.688-14.036-26.927c-18.691-9.31-37.167-23.132-63.951-29.219
					s-44.329,1.36-45.762-7.019s38.528-25.137,74.12-23.919c35.593,1.218,56.433,14.036,57.006-4.082
					c0.645-18.047-21.843-32.799-37.025-51.849c-10.169-12.747-36.953-20.625-52.994-20.267c-24.922,0-48.125,8.164-66.888,21.985
					c0.501-3.223,0-3.223,2.507-9.453c8.88-22.129,54.856-21.914,77.271-27.786c17.33-4.583,26.498,5.228,52.923,13.32
					c26.497,8.021,33.945,9.167,49.772,33.301c15.826,24.063,30.293,47.265,51.92,43.111c21.699-4.153,30.65-13.606,41.321-4.87
					c10.599,8.666,33.229,26.999,57.864,30.15c24.564,3.079,485.617,16.543,485.617,16.543s31.797,2.864,61.086-5.658
					c29.291-8.45,45.261-21.699,58.581-16.328c13.32,5.3,55.573,31.439,71.542,34.877c15.971,3.438,49.629-7.233,64.023,0.787
					c14.395,7.949,23.562,17.761,45.261,13.034c21.698-4.727,60.729,13.535,65.67,20.052c4.941,6.518-33.444,3.725-61.517,9.954
					c-28.145,6.23-80.924,29.147-110.215,20.625c-29.289-8.45-56.002-25.423-80.565-13.678
					c-24.563,11.816-35.664,18.906-58.294,6.66c-22.559-12.246-47.48-22.344-62.949-22.845
					c-15.54-0.502-463.845-15.898-477.595-16.328c-13.75-0.502-49.414,15.826-60.371,25.78c-10.957,9.955-20.48-5.013-35.949-8.092
					c-15.398-3.151-39.03,16.185-55.287,36.881c-16.185,20.696-31.653,35.091-55.286,38.887
					C5308.269,191.338,5298.816,199.072,5286.498,196.494z"/>
				<path fill="#4D4D4D" d="M5414.043,13.09c7.448,6.445,15.54,9.883,24.993,8.021c21.699-4.153,30.65-13.606,41.321-4.87
					c10.599,8.666,33.229,26.999,57.864,30.15c24.564,3.079,485.617,16.543,485.617,16.543s31.797,2.864,61.086-5.658
					c29.291-8.45,45.261-21.699,58.581-16.328c9.453,3.725,33.301,17.904,52.136,27.143l0,0
					c22.844,13.821,75.553,29.935,75.553,29.935c-32.227,2.292-47.194-2.578-85.078-23.132
					c-37.884-20.481-54.498-19.908-81.927-8.235c-27.429,11.745-91.021,7.233-91.021,7.233s-301.352-10.313-367.954-12.604
					s-123.678-3.938-145.521-21.914c-21.771-17.976-27.858-8.45-57.077-10.313C5428.08,28.129,5419.271,20.537,5414.043,13.09z
					 M5247.541,196.565c-1.433,0.144-2.722,0.286-3.867,0.501c-12.39,2.148-39.389-27.5-44.688-38.026
					c-5.229-10.527-0.502-19.694,12.103-8.666c12.604,11.101,36.38,20.195,66.745,14.108c30.363-6.159,15.611-11.243,40.676-20.481
					c24.277-8.952,26.283-22.416,34.877-33.157c-3.295,7.447-5.729,18.619-9.597,30.364c-4.798,14.609-25.853,11.888-43.972,24.778
					c-18.047,12.891-63.879,8.594-73.905,3.079c-10.026-5.514-11.96,1.074,7.591,17.832
					C5237.873,190.621,5242.742,193.844,5247.541,196.565z M5245.105,51.117c-8.665,0.071-13.893,0.071-14.681-4.369
					c-1.433-8.379,38.528-25.137,74.12-23.919c35.593,1.218,56.433,14.036,57.006-4.082c0.071-1.289,0-2.578-0.215-3.867
					c3.365,11.53-2.937,20.769-17.045,20.267c-23.274-0.787-33.301-10.24-75.338,0.144
					C5248.615,40.303,5242.456,45.889,5245.105,51.117z M5221.115-41.48c-5.729,2.865-11.244,6.303-16.472,10.098
					c0.501-3.223,0-3.223,2.507-9.453c8.88-22.129,54.856-21.914,77.271-27.786c6.803-1.79,12.389-1.433,18.189,0.286
					c-11.1,1.003-20.266,6.303-46.549,10.313C5232.931-54.514,5224.123-47.496,5221.115-41.48z"/>
			</g>
			<path fill="#EEEAFF" d="M5831.984-68.407c-85.006,0-138.573,38.814-162.636,83.145c-31.94,58.724-6.517,130.695,61.159,130.982
				c31.223,0.071,58.651-19.05,69.823-42.038c11.387,0.358,22.773,0.717,34.231,1.003c-19.98,92.239-171.516,114.01-227.518,58.008
				c0,0,56.288,11.959,34.518-32.729C5576.751-3.31,5705.298-99.201,5831.984-68.407z M5797.681,56.059
				c-34.088-56.79-111.217,3.724-58.652,44.902c-64.453-12.175-43.756-101.048,27.857-94.603
				c27.429,2.435,53.354,21.269,64.311,50.774C5820.167,56.774,5808.924,56.416,5797.681,56.059z"/>
			<path fill="#EEEAFF" d="M5600.742,7.79c-12.246,38.242-11.314,95.104,16.256,126.614c-41.034-16.758-66.601-52.493-65.741-96.607
				c0,0,7.949,23.561,22.058,19.049C5587.421,52.334,5577.968,30.277,5600.742,7.79z"/>
			<path fill="#EEEAFF" d="M5287.214,83.129c74.622,155.976,283.307,183.977,391.229,142.154
				c-79.277-6.159-170.084-21.843-236.756-72.688c7.16,18.978,44.257,46.62-3.08,35.663
				C5406.954,180.953,5348.731,150.374,5287.214,83.129z"/>
		</g>
	</g>
</g>
</svg>
