<?xml version="1.0" encoding="utf-8"?>
<!-- Generator: Adobe Illustrator 16.0.0, SVG Export Plug-In . SVG Version: 6.00 Build 0)  -->
<!DOCTYPE svg PUBLIC "-//W3C//DTD SVG 1.1//EN" "http://www.w3.org/Graphics/SVG/1.1/DTD/svg11.dtd">
<svg version="1.1" id="Layer_1" xmlns="http://www.w3.org/2000/svg" xmlns:xlink="http://www.w3.org/1999/xlink" x="0px" y="0px"
	 width="2200px" height="2250px" viewBox="7201.628 1207.015 2200 2250" enable-background="new 7201.628 1207.015 2200 2250"
	 xml:space="preserve">
<g id="Layer_x0020_1">
	<g id="_322684248">
		<g>
			<path d="M8598.71,3068.188c-14.68-3.223-29.219-8.45-43.039-14.036c-20.34-8.307-40.176-18.047-59.512-28.216
				c-24.707-13.034-48.77-31.511-60.086-57.864c-6.73-15.612-7.805-30.723-5.586-47.981c1.576-11.889,1.219-19.909-0.285-31.367
				l-1.791-12.891l12.246-5.729c26.568-12.389,55.859-27.786,79.277-45.904l28.287-21.986l-1.861,34.733
				c-1.576,28.145,5.229,49.558,34.303,56.719C8693.815,2921.809,8756.548,3102.634,8598.71,3068.188z"/>
			<path fill="#EEEAFF" d="M8446.815,2885.285c1.074,7.591,2.723,17.259,0.359,35.807c-2.363,18.549-5.014,56.719,57.578,89.805
				c186.625,98.685,149.746-1.003,71.398-13.894c62.16,2.578,78.633,34.16,82.285,57.507c22.273-9.167,21.125-28.288,13.465-46.12
				c-17.188-40.032-61.303-48.841-61.303-48.841c26.424-0.286,44.186,8.093,55.857,20.195
				c-16.543-29.863-48.195-59.082-90.949-69.681s-47.408-46.191-45.904-72.832
				C8505.54,2855.923,8473.815,2872.681,8446.815,2885.285z"/>
			<path fill="#FFFFFF" d="M8624.347,2932.766c-13.963-10.098-30.363-18.119-48.84-22.702
				c-42.754-10.599-47.408-46.191-45.904-72.832c-3.867,3.008-7.949,5.944-12.174,8.809c-6.805,48.483,11.314,70.325,71.543,76.771
				C8600.858,2924.1,8612.819,2927.752,8624.347,2932.766z"/>
			<path fill="#CCC1F4" d="M8446.815,2885.285c1.074,7.591,2.723,17.259,0.359,35.807c-2.363,18.549-5.014,56.719,57.578,89.805
				c122.387,64.668,148.672,44.114,130.121,18.62c-3.008,3.15-10.098,4.941-24.777,3.15c-42.037-5.084-140.723-51.92-141.939-92.096
				c-0.932-30.938,2.936-47.695-0.787-65.313C8460.351,2878.84,8453.405,2882.206,8446.815,2885.285z M8638.386,3017.271
				c12.961,11.243,18.188,25.352,20.051,37.239c22.273-9.167,21.125-28.288,13.465-46.12c-1.719-4.153-3.797-7.877-6.09-11.387
				c1.074,4.584,1.289,9.382,0.074,14.252C8662.089,3026.15,8647.12,3021.495,8638.386,3017.271z M8651.276,2968.286
				c5.941,3.223,10.957,7.09,15.18,11.458c-3.363-6.016-7.305-12.031-11.816-17.903
				C8654.499,2965.636,8652.78,2967.427,8651.276,2968.286z"/>
		</g>
		<path d="M8153.698,1666.052c43.758-20.339,93.1-24.636,140.723-21.985c45.117,2.578,91.594,9.238,134.777,22.773
			c3.438,1.002,7.02,2.22,10.672,3.438c12.531-13.894,34.088-32.943,52.852-25.781c12.818,4.869,15.969,19.479,17.043,31.582
			c1.004,11.888,0.359,24.563-0.859,36.38c-1.504,14.538-4.654,34.231-10.957,47.48c-10.455,21.771-49.844,46.119-71.471,57.649
			l-1.791,0.931c-0.215,1.433-0.5,2.937-0.787,4.369c-0.717,3.008-2.291,7.662-2.578,10.527c0,0.787,0,1.934,0.215,2.793
			l19.121,35.162c10.527,10.527,20.912,21.198,31.01,32.155c27.57,29.72,74.766,83.072,75.338,125.611
			c0.572,44.544-37.67,94.244-75.053,127.258l6.016-3.867l9.525,8.308c4.727,4.082,8.379,10.241,9.955,16.185
			c3.652,14.252-3.367,26.784-14.324,35.521c-0.645,0.43-1.289,0.932-1.861,1.433c4.154,6.159,8.236,12.747,11.744,19.265
			c1.289,2.363,2.65,4.941,3.939,7.591l7.162,1.504c21.197,4.512,41.535,12.962,60.227,23.991
			c23.133,13.606,50.775,19.98,77.344,21.842c12.391,0.859,27.355,1.074,39.746-0.501l14.752-1.934l3.725,14.251
			c0.715,2.578,2.721,6.589,4.869,8.235c2.148,1.791,5.658,4.082,8.379,4.941l8.451,2.292l2.076,6.159
			c1.361,1.217,2.721,2.291,4.01,3.58c4.871,4.799,7.592,10.957,6.16,17.904c-0.789,3.795-2.793,7.161-5.658,9.739
			c-11.314,10.098-4.584,22.845,8.379,26.855l13.32,4.153l-4.154,34.733l-11.1,2.936c-12.748,3.295-25.566,7.162-38.1,11.315
			l4.656,1.218l-61.086,16.614c-8.023,2.148-17.262,3.438-25.496,4.368c-6.945,0.788-14.035,1.289-21.125,1.575
			c11.887,13.464,23.775,25.71,38.313,37.67c30.793,25.351,67.246,45.976,102.766,63.808
			c34.59,17.331,103.197,46.406,138.289,14.609c11.027-9.954,19.336-28.216,20.195-43.111l1.719-29.792
			c-5.443-15.396-10.957-30.794-16.258-46.263c-5.084-14.967-10.098-30.078-14.322-45.26c-3.295-11.816-6.445-24.421-7.592-36.596
			c-3.438-36.952,3.797-74.765,24.994-105.631c26.783-38.958,69.393-58.652,114.869-66.529c47.98-8.235,97.324-0.788,142.369,16.829
			c19.693,7.663,43.111,19.05,60.371,31.582l8.307,6.016l-1.574,10.098c-3.939,25.925-8.451,53.782-9.598,79.922
			c-0.5,11.601-0.285,23.131,3.725,34.088c4.584,12.39,13.607,26.067,19.98,37.669c14.752,26.855,26.783,54.642,37.525,83.359
			c30.652,81.998,18.691,198.658-52.564,256.522c-1.719-22.773,0.645-30.437-8.379-51.348c-8.164-18.835-24.779-38.672-38.6-53.567
			c-21.914-23.633-53.496-37.526-85.652-38.242c-15.324-0.358-45.762,3.652-52.707,20.339c-0.574,1.36-0.932,2.793-1.146,4.297
			c-0.645,6.087-0.502,12.675-0.357,18.763c0.215,8.951,0.645,17.832,0.93,26.783c0.645,21.843,0.43,43.9-3.008,65.527
			c-9.596,61.087-43.184,101.263-106.059,113.438c-73.549,14.251-145.379-17.761-202.742-61.66
			c-5.943-4.583-11.816-9.31-17.543-14.18c8.52,81.855-121.244,153.899-183.047,177.89l-13.465,5.228l-7.16-12.604
			c-12.748-22.344-24.852-45.476-36.523-68.392l-1.863-3.581v-180.324l-266.189-11.387l-7.162-230.885
			c-213.266-4.368-418.082-8.522-630.563-12.891c-4.799-34.446,16.613-49.414,48.41-49.414c13.393-10.527,30.867-15.11,47.266-7.591
			c16.473-12.317,68.32-12.103,74.766-12.604c18.762,1.361,43.828-9.238,60.586-16.973c27.93-12.962,54.855-28.573,82.213-42.753
			c10.025-5.156,20.123-10.17,30.365-14.896l5.729-2.649c0.717-10.24,2.936-21.556,6.947-31.438l-0.145-16.687
			c-0.143-11.816,2.793-23.131,10.098-32.584c8.666-11.244,21.484-17.546,35.664-20.84c-0.572-0.358-1.217-0.716-1.789-1.074
			c-9.168-5.657-16.688-12.962-21.986-22.344c-12.246-21.771-9.238-49.127-5.084-72.688c5.586-31.009,13.82-61.517,19.264-92.598
			c2.721-15.254,5.299-30.65,7.09-46.048c1.074-8.951,2.006-18.333,1.861-27.356c-0.07-6.23-0.285-12.891-4.152-18.047
			c-1.004-1.289-2.078-2.507-3.152-3.724c-7.662-8.666-14.752-16.472-20.768-26.569c-5.801-9.954-9.955-21.197-9.023-32.942
			c1.432-18.262,13.535-29.791,28.502-37.168c7.807-3.867,15.326-7.447,22.631-10.957l-0.859-3.58
			c-8.164-33.659-13.178-68.177-14.107-102.767c-0.859-35.879-0.43-71.185,0.572-106.992c0.502-17.044,1.504-36.237-1.576-53.066
			c-0.357-1.646-0.645-3.294-1.074-4.941c-3.867-16.471-7.018-42.109,10.457-52.278c22.057-12.891,46.549,15.183,58.938,30.078
			c29.219,35.234,52.352,96.536,65.098,140.221c5.586,18.979,10.313,38.313,13.82,57.793
			C8111.589,1693.981,8134.577,1674.933,8153.698,1666.052z"/>
		<g>
			<path d="M7564.386,3226.885c0.5-37.955,0.859-75.768-1.074-113.795c-1.863-35.306-2.293-70.97-2.793-106.347
				c-0.717-45.476-1.074-90.95-1.289-136.426l562.1,16.472c22.201,0.788,50.059-2.937,71.758-7.52l-13.105-203.528l268.982,11.459
				l15.469,0.645v17.33v375.761l-7.305,4.297c-4.367,2.578-8.594,5.299-12.818,8.164l-3.795,2.578l-4.154,2.936
				c-29.004,20.554-56.932,43.47-84.721,65.527c-25.996,20.696-52.42,41.751-79.777,60.442
				c-20.982,14.395-42.467,29.361-64.023,42.754l-2.578,1.646l-7.305,4.584c-56.934-4.082-114.008-6.66-171.016-9.238
				c-30.434-1.361-60.871-3.438-91.307-5.658c-37.525-2.721-74.98-5.801-112.506-8.951
				C7736.831,3242.783,7650.608,3234.834,7564.386,3226.885z"/>
			<path fill="#999999" d="M7574.196,2881.919c0.143,33.73,0.932,171.946,3.939,230.455c1.719,33.157,1.719,71.113,1.289,100.976
				c4.512,0.43,10.813,1.003,18.691,1.719v-113.58c0-52.063-3.438-184.836-4.369-218.996L7574.196,2881.919z"/>
			<path fill="#999999" d="M7607.354,3174.464c-0.072,14.967-0.215,29.146-0.43,41.464c88.229,8.164,318.254,29.291,420.66,33.874
				c62.52,2.793,103.699,5.013,129.48,6.445c-0.502-9.954-1.074-21.985-1.648-35.449c-30.865-2.937-102.336-9.453-191.566-16.758
				C7864.95,3195.948,7671.95,3179.835,7607.354,3174.464z"/>
			<path fill="#906337" d="M8154.272,3195.661c-3.725-80.638-8.594-191.854-9.311-231.887c-0.072-2.507-0.072-5.014-0.143-7.377
				c-34.877-3.223-100.762-9.237-180.969-15.755c-92.168-7.52-272.779-17.617-351.412-21.914l7.949,232.174L8154.272,3195.661z"/>
			<path fill="#663300" d="M8150.405,3108.937c-0.215-3.867-0.359-7.734-0.502-11.53c-46.836-5.228-155.904-16.041-247.141-16.041
				l0,0h-0.787l0,0c-59.656,0-153.684-2.148-232.818-5.014c-18.119-0.645-35.521-1.074-51.348-1.36l0.357,10.599
				c15.756,0.788,32.801,1.576,50.633,2.148c79.133,2.865,173.305,5.014,233.176,5.014l0,0h0.787l0,0
				C7994.429,3092.68,8104.786,3103.852,8150.405,3108.937z M8152.409,3154.913l-0.43-9.238
				c-56.145-6.303-172.16-9.311-172.518-9.311c-2.506-0.071-4.654,1.934-4.654,4.44c-0.072,2.507,1.934,4.583,4.439,4.655
				C7979.604,3145.46,8097.481,3148.468,8152.409,3154.913z M8147.683,3043.481c-0.143-3.08-0.285-6.088-0.357-9.096
				c-28.717-2.435-67.174-2.506-67.318-2.506c-2.578,0-4.582,2.076-4.582,4.583s2.004,4.512,4.582,4.512
				C8080.151,3040.975,8119.825,3041.046,8147.683,3043.481z M7615.446,3007.029l0.357,9.238
				c27.215,3.294,58.867,6.302,83.074,6.302c2.506,0,4.582-2.076,4.582-4.583s-2.076-4.583-4.582-4.583
				C7674.601,3013.403,7642.659,3010.323,7615.446,3007.029z M7618.812,3106.358l0.359,9.166
				c17.975-1.146,37.668-2.005,56.719-2.005c2.506,0,4.582-2.077,4.582-4.583c0-2.507-2.076-4.584-4.582-4.584
				C7656.769,3104.353,7636.931,3105.212,7618.812,3106.358z M7827.425,3155.056c-2.508-0.215-4.297-2.435-4.082-4.941
				c0.285-2.506,2.506-4.368,5.012-4.082c0.287,0,89.375,9.382,139.004,9.382c2.508,0,4.512,2.077,4.512,4.583
				c0,2.507-2.004,4.584-4.512,4.584C7917.515,3164.581,7827.71,3155.128,7827.425,3155.056z M8009.253,2985.975
				c-2.506-0.215-4.297-2.507-4.01-5.013c0.215-2.507,2.506-4.297,5.014-4.011c0.143,0,60.801,6.66,92.523,7.52
				c2.508,0.071,4.512,2.148,4.441,4.655c-0.072,2.578-2.148,4.512-4.656,4.439
				C8070.339,2992.706,8009.468,2986.046,8009.253,2985.975z M7708.116,2947.947c2.578,0.43,6.373,1.003,11.242,1.575
				c24.422,3.151,74.98,8.308,124.465,7.878c2.578,0,4.584,2.005,4.656,4.512c0,2.507-2.006,4.583-4.584,4.583
				c-49.986,0.43-101.049-4.727-125.682-7.949c-5.086-0.645-8.953-1.146-11.531-1.575
				C7687.706,2953.963,7695.226,2945.871,7708.116,2947.947z M7843.968,3064.249c-2.508,0-4.584-2.005-4.656-4.512
				c0-2.507,2.006-4.583,4.512-4.583c0.359-0.072,125.684-2.507,174.096,6.875c2.436,0.501,4.08,2.864,3.58,5.371
				c-0.43,2.506-2.863,4.082-5.299,3.652C7968.647,3061.814,7844.325,3064.249,7843.968,3064.249z M8147.038,3027.296
				c-0.143-3.938-0.285-7.806-0.43-11.529c-62.445-6.445-200.59-19.408-288.461-18.119c-67.891,0.932-170.586-10.813-243.703-20.768
				l0.43,11.602c73.332,9.883,175.453,21.484,243.344,20.553C7946.233,3007.745,8085.522,3020.923,8147.038,3027.296z"/>
			<path fill="#666666" d="M7610.362,3163.22c66.744,5.586,257.811,21.557,354.348,29.434
				c86.582,7.09,158.123,13.606,190.135,16.614l-0.357-7.877l-536.391-44.902L7610.362,3163.22z"/>
			<path fill="#4D4D4D" d="M7601.696,2918.156c1.002,43.326,2.65,109.569,4.439,155.188c1.004,26.569,1.289,58.223,1.289,87.871
				l7.377-6.374l-0.072-1.217l-7.949-235.253L7601.696,2918.156z"/>
			<path fill="#B3B3B3" d="M8229.181,3189.359c0.572,17.545,0.859,32.942,1.074,45.833c8.809-5.944,19.693-13.32,33.158-22.559
				c49.342-33.73,118.379-93.242,164.354-125.826v-37.096c-19.121,15.11-47.908,37.525-82.643,63.234
				C8310.749,3138.441,8264.63,3167.66,8229.181,3189.359z"/>
			<path fill="#666666" d="M8427.767,3034.458v-248.144c-2.578,2.005-5.371,4.225-8.307,6.517l2.363,239.049L8427.767,3034.458z"/>
			<path fill="#999999" d="M8228.321,3166.729c0.143,3.223,0.287,6.445,0.357,9.596c34.447-21.197,77.344-48.626,109.641-72.545
				c38.242-28.359,69.252-52.493,87.943-67.389l-5.443-2.363L8228.321,3166.729z"/>
			<path fill="#B3B3B3" d="M8220.874,2874.543c-0.574,10.527,0.5,24.492,0,43.111c35.592-21.698,82.643-51.49,117.445-77.271
				c39.316-29.147,70.898-53.854,89.447-68.606v-7.161v-42.109c-20.053,15.254-44.615,33.658-86.01,61.803
				C8300.294,2812.524,8245.938,2854.491,8220.874,2874.543z"/>
			<path fill="#B3B3B3" d="M8434.714,2717.206c-0.145,42.539-0.645,256.881,0.859,307.154c0.645,20.696,0.645,40.247,0.43,56.718
				c4.869-3.294,9.453-6.23,13.605-8.665v-198.014v-168.795C8446.101,2708.326,8441.087,2712.265,8434.714,2717.206z"/>
			<path fill="#FFFFFF" d="M8204.116,2871.75c16.758-11.243,62.305-45.618,105.059-75.41c37.523-26.211,73.117-50.774,110.213-77.2
				l-21.627-0.43l-194.934,131.985L8204.116,2871.75z M8425.833,2714.557c5.943-4.226,11.816-8.45,17.832-12.747l-250.578-10.671
				l0.932,14.824L8425.833,2714.557z"/>
			<path fill="#999999" d="M7600.837,2882.707c0.143,5.586,0.357,13.894,0.572,23.99c70.756,3.796,267.408,14.682,363.301,22.559
				c78.344,6.374,144.373,12.39,179.965,15.684c-0.357-21.484-0.43-36.595-0.43-46.835c-42.896,4.726-94.746,5.8-130.266-3.223
				L7600.837,2882.707z"/>
			<path fill="#999999" d="M8157.28,2896.601c-1.719,46.907-4.297,145.592,1.145,222.075c4.227,58.438,7.449,106.992,9.525,138.287
				c10.742,0.645,17.76,1.074,21.699,1.36c-3.795-58.795-10.742-174.094-11.029-241.411c-0.215-56.719-0.215-99.114-0.143-123.534
				C8171.96,2894.523,8164.8,2895.598,8157.28,2896.601z"/>
			<path fill="#B3B3B3" d="M8189.22,2891.372c-0.645,25.208-2.363,112.936,2.936,197.011c4.012,63.522,6.518,128.262,7.807,166.718
				c4.01-2.578,10.6-6.803,21.412-13.964c-2.434-44.187-6.23-119.31-7.805-184.479c-1.791-75.124-1.504-145.234-1.289-175.24
				c-3.652,3.008-6.16,5.013-7.234,5.944v0.357C8200.534,2888.938,8195.163,2890.155,8189.22,2891.372z"/>
			<path fill="#A0744C" d="M8220.515,2931.262c-0.93,41.894-0.787,96.751,3.08,151.034c2.006,27.93,3.438,54.141,4.439,77.701
				l188.131-129.693l-2.363-233.032c-18.119,14.107-41.607,32.154-68.678,52.278
				C8307.886,2877.121,8256.896,2909.133,8220.515,2931.262z"/>
			<path fill="#663300" d="M8220.3,3004.236c0.072,3.796,0.145,7.663,0.215,11.53c12.82-6.875,67.176-41.608,118.523-77.773
				c28.215-19.837,55.785-40.104,75.623-56.36l-0.143-14.824c-19.621,16.901-50.418,39.603-82,61.803
				C8282.892,2963.56,8232.261,2997.075,8220.3,3004.236z M8222.95,3072.771c0.215,3.15,0.43,6.373,0.645,9.524l0.072,0.645
				c10.383-6.087,23.99-14.538,35.879-23.489c22.701-17.116,24.348-18.691,24.348-18.763c1.863-1.719,1.934-4.584,0.215-6.445
				c-1.719-1.791-4.654-1.862-6.445-0.144c0,0-1.217,1.218-23.633,18.118C8243.933,3059.809,8232.476,3067.113,8222.95,3072.771z
				 M8227.104,3140.089c0.215,3.867,0.357,7.662,0.572,11.387l32.656-27.143c1.934-1.575,2.148-4.512,0.572-6.445
				c-1.646-1.861-4.512-2.148-6.445-0.572L8227.104,3140.089z M8416.022,3021.639l-0.072-9.883
				c-43.471,17.688-90.092,52.708-90.232,52.852c-2.008,1.504-2.438,4.368-0.934,6.373c1.504,2.006,4.371,2.436,6.375,0.932
				C8331.304,3071.769,8374.702,3039.185,8416.022,3021.639z M8414.948,2913.645l-0.072-11.172
				c-32.084,23.418-92.955,65.312-93.17,65.455c-2.076,1.433-2.578,4.297-1.145,6.374c1.43,2.076,4.297,2.578,6.301,1.146
				C8327.077,2975.304,8381.718,2937.707,8414.948,2913.645z M8414.304,2846.398l-0.072-9.954
				c-19.479,8.665-29.506,18.834-29.576,18.834c-1.719,1.791-1.719,4.727,0,6.518c1.789,1.79,4.727,1.79,6.516,0
				C8391.171,2861.724,8398.978,2853.847,8414.304,2846.398z M8325.214,2898.462c1.719-1.79,4.586-1.79,6.445-0.071
				c1.793,1.79,1.793,4.654,0.074,6.445c-0.145,0.143-38.172,39.388-69.754,55.501c-2.291,1.146-5.012,0.215-6.158-2.006
				c-1.146-2.291-0.215-5.013,2.006-6.158C8288.12,2936.848,8325.073,2898.605,8325.214,2898.462z M8224.669,3097.621
				c0.287,4.583,0.572,9.095,0.859,13.606c25.781-19.55,107.924-81.21,190.064-134.635l-0.145-13.535
				C8336.745,3013.833,8256.538,3073.487,8224.669,3097.621z"/>
		</g>
		<path fill="#4E32BC" d="M7977.671,2196.929c-8.736-3.294-17.258-7.233-25.064-11.96c-42.182-25.996-15.326-83.431,0-170.441
			c15.396-86.94,9.381-95.964-2.291-109.141c-11.746-13.248-62.734-63.951,23.059-79.563c74.551-13.535,267.48,9.311,343.32,49.629
			c21.914,11.673,36.309,0,30.293-18.62c-3.512,16.257-20.34,14.18-42.969,0c-16.83-9.596-45.906-20.768-96.035-30.077
			c-113.078-20.983-211.764-18.62-211.764-18.62s53.354-29.075,91.451-70.469c38.17-41.393,88.229-83.431,205.82-76.842
			c117.59,6.66,173.734,39.316,173.734,39.316s-1.504-7.019-6.516-11.101c-4.941-4.01-10.457-5.084-10.457-5.084
			s24.422-28.36,36.453-23.776c11.959,4.583,6.301,71.185-3.939,92.454c-10.17,21.341-64.166,50.13-64.166,50.13
			s-0.43-22.917-4.941-36.38c-4.512-13.535-13.25-16.472-13.25-16.472s10.385,14.681,9.813,42.539
			c-0.645,27.93-5.73,34.089-5.73,40.82s1.791,10.026,1.791,10.026s-24.135-23.061-33.729-36.738
			c-9.598-13.607-13.965-30.15-13.965-30.15s-9.883,27.644,39.602,76.556c49.484,48.842,131.412,127.331,131.984,176.387
			c0.645,49.056-56.646,108.28-93.887,133.775c-8.092,5.514-16.041,10.098-23.633,13.75c-4.225,0.859-8.449,1.575-12.818,2.22
			c35.02-33.659,76.27-91.451,22.916-144.732c0,0,50.99,69.466-49.27,147.884c-13.391,1.146-26.855,1.79-39.746,2.005
			c26.281-19.265,84.576-68.105,71.973-115.299c-16.184-60.657-172.805-160.201-297.629-191.425
			c-124.752-31.225-174.738-25.781-155.475-1.218c19.264,24.636,36.094,36.021,27.715,87.012
			c-4.512,27.428-18.334,105.487-22.631,149.96c-4.297,44.902,19.551,63.45,52.137,78.274l-1.004,0.144
			C7996.792,2193.563,7987.841,2195.281,7977.671,2196.929z"/>
		<path fill="#392589" d="M8492.649,1705.798c-1.504,18.262-5.229,37.239-9.883,46.836c-10.17,21.341-64.166,50.13-64.166,50.13
			s-0.43-22.917-4.941-36.38c-0.932-2.793-2.006-5.085-3.223-7.019c10.24-1.575,52.135-8.665,63.164-20.195
			C8480.69,1731.723,8487.78,1717.113,8492.649,1705.798z M8298.146,1853.682c-17.475-8.809-45.404-18.62-90.162-26.927
			c-36.523-6.804-71.543-11.101-102.266-13.894c12.891-7.448,45.26-21.985,94.889-17.259
			C8250.593,1800.4,8284.683,1836.638,8298.146,1853.682z M8406.854,1764.736c1.934,6.946,3.582,16.185,3.367,27.715
			c-0.645,27.93-5.73,34.089-5.73,40.82s1.791,10.026,1.791,10.026s-23.275-22.272-33.229-36.022
			c5.656-2.793,19.406-10.599,25.279-21.771C8402.702,1776.982,8405.423,1769.463,8406.854,1764.736z M8383.796,1837.425
			c4.152,4.87,8.879,10.098,14.395,15.54c49.484,48.842,131.412,127.331,131.984,176.387c0.645,49.056-56.646,108.28-93.887,133.775
			c-15.039,10.313-29.576,17.115-42.395,21.556c26.426-23.991,60.299-63.736,53.566-105.56c7.592,4.297,28.504,9.597,43.398-23.203
			c19.193-42.252-13.463-93.313-56.145-142.154C8411.366,1887.125,8394.394,1858.193,8383.796,1837.425z"/>
		<path fill="#A698DD" d="M8033.101,1808.493c-23.131-0.645-36.881-0.358-36.881-0.358s53.354-29.075,91.451-70.469
			c38.17-41.393,88.229-83.431,205.82-76.842c72.902,4.153,122.172,18.262,149.1,28.431c-11.959-2.363-30.723-5.729-59.869-10.599
			c-94.674-15.541-222.578,2.937-257.383,44.186c-34.875,41.25-56.719,54.57-79.992,71.328
			C8035.749,1801.116,8033.03,1805.628,8033.101,1808.493z M8463.503,1691.977c-0.789-1.074-1.719-2.077-2.793-2.937
			c-4.941-4.01-10.457-5.084-10.457-5.084s24.422-28.36,36.453-23.776c1.719,0.645,3.15,2.649,4.152,5.657
			C8476.249,1668.559,8466.726,1685.316,8463.503,1691.977z"/>
		<path fill="#A698DD" d="M7981.753,2196.213c-23.346-14.609-41.25-39.174-35.162-80.352
			c14.896-100.762,34.088-168.079,22.988-194.146c-11.1-26.139-43.184-44.544-31.152-64.883
			c11.959-20.338,95.604-21.842,256.809,38.744c161.205,60.585,238.762,158.339,226.158,196.796
			c-9.383,28.717-35.664,63.45-79.063,91.666c-2.938,0.071-5.801,0.144-8.594,0.215c26.281-19.265,84.576-68.105,71.973-115.299
			c-16.184-60.657-172.805-160.201-297.629-191.425c-124.752-31.225-174.738-25.781-155.475-1.218
			c19.264,24.636,36.094,36.021,27.715,87.012c-4.512,27.428-18.334,105.487-22.631,149.96
			c-4.297,44.902,19.551,63.45,52.137,78.274l-1.004,0.144C7998.368,2193.348,7990.347,2194.78,7981.753,2196.213z"/>
		<path fill="#EEEAFF" d="M8025.366,1875.452c-5.371,12.103-8.951,27.93-4.871,45.904c9.313,40.749,33.301,47.982,35.738,36.237
			c2.363-11.673-3.941-33.587-3.941-33.587s36.883,34.805,63.594,34.518c26.713-0.286-15.611-37.813-15.611-37.813
			s29.004,12.031,43.256,5.729c14.25-6.302-20.555-26.139-20.555-26.139s19.766,0.143,34.805,15.611
			c14.969,15.469-8.449,24.349-16.686,24.492s-8.236,0.144-8.236,0.144s17.977,20.41-8.234,28.646
			c-26.283,8.235-54.93-14.538-54.93-14.538s1.219,21.127-17.543,20.697c-18.766-0.502-29.434-18.19-29.434-18.19
			s-7.592,24.636-0.43,69.609c4.438,27.786-9.955,57.721-6.23,90.377c-8.666-9.31-14.467-18.047-14.467-18.047
			c-5.514,42.825,15.971,70.469,41.822,87.942c73.189-8.522,149.172-8.308,221.861-4.368c12.318,0.716,28.359,1.432,46.264,1.646
			c38.813-26.497,98.469-79.491,71.398-125.325c-13.176-22.343-45.117-57.506-121.529-104.198
			C8152.769,1888.414,8061.245,1877.171,8025.366,1875.452z"/>
		<path fill="#CCC1F4" d="M8147.397,1939.261c-2.436,0.716-4.656,1.074-6.303,1.146c-8.236,0.144-8.236,0.144-8.236,0.144
			s11.674,13.177,2.508,22.63c3.58-0.501,6.875-1.289,9.596-2.507C8157.423,1955.087,8152.554,1945.491,8147.397,1939.261z
			 M8361.093,2142.072c23.063-25.352,38.1-55.501,21.844-83.073c-13.105-22.2-44.617-56.933-119.738-103.124
			c47.551,42.252,94.816,91.953,101.977,127.76C8369.831,2107.053,8367.038,2126.46,8361.093,2142.072z M8082.37,1962.606
			c-7.66-4.01-12.676-7.949-12.676-7.949s0.574,10.527-5.656,16.543c3.797,1.289,9.598,2.363,14.895-0.286
			C8083.229,1968.694,8083.374,1965.399,8082.37,1962.606z"/>
		<path fill="#FFFFFF" d="M8035.319,1969.84c-8.164-5.3-12.602-12.676-12.602-12.676s-7.592,24.636-0.43,69.609
			c4.438,27.786-9.955,57.721-6.23,90.377c0,0,3.652-38.099,13.391-67.389C8039.187,2020.471,8025.222,1987.457,8035.319,1969.84
			L8035.319,1969.84z M8001.591,2099.175c-5.514,42.826,15.971,70.397,41.822,87.871c6.805-0.788,13.68-1.504,20.48-2.148
			c-7.66-3.796-15.539-8.093-23.344-13.177C7997.581,2143.791,8001.304,2101.825,8001.591,2099.175z"/>
		<path fill="#FFFFFF" d="M8019.28,1897.151c-0.932,7.448-0.717,15.611,1.215,24.205c9.313,40.749,33.301,47.982,35.738,36.237
			c2.363-11.673-3.941-33.587-3.941-33.587s36.883,34.805,63.594,34.518c26.713-0.286-15.611-37.813-15.611-37.813
			s29.004,12.031,43.256,5.729c9.596-4.297-3.152-14.681-12.461-20.983c0.143,0.072,12.174,9.955,1.861,13.535
			c-10.24,3.581-46.908-9.095-46.908-9.095s19.193,25.996,6.16,25.996c-13.105,0-46.836-33.73-46.836-33.73s0,33.73-11.816,24.349
			C8026.585,1920.999,8021.929,1907.535,8019.28,1897.151z"/>
		<path d="M8156.563,2177.951c0.215,0.716,0.43,1.504,0.645,2.22c25.137-0.286,50.273,0.071,75.123,1.003
			c24.637-38.313,37.813-101.692-30.363-74.98C8109.44,2142.431,8130.997,2087.287,8156.563,2177.951z"/>
		<path d="M8085.237,2018.036c-1.148-0.144-2.293-0.358-3.367-0.573c1.359,3.51,2.363,7.305,2.863,11.315
			c2.508,18.262-5.656,33.802-18.188,34.661c-12.535,0.931-24.707-13.105-27.145-31.367c-1.215-8.594,0-16.543,2.867-22.701
			c-2.867-0.43-9.668,5.943-12.75,5.586c-3.078-0.358-1.504-8.594,7.164-13.679
			C8068.62,1982.516,8109.728,2021.402,8085.237,2018.036z"/>
		<path d="M8199.819,1993.688c-0.859,4.941-0.932,10.169-0.215,15.469c2.863,21.341,18.332,35.306,34.518,31.152
			c16.186-4.082,26.998-24.779,24.063-46.12c-0.859-6.588-2.936-12.389-5.873-17.259c7.592-0.144,12.104,0.501,14.539-1.146
			c6.445-4.44-0.145-8.021-4.799-8.737c-26.068-4.44-65.6,3.294-79.564,27.857c-5.656,10.026-5.156,17.331,7.305,6.875
			C8192.585,1999.416,8195.952,1996.552,8199.819,1993.688z"/>
		
			<ellipse transform="matrix(-0.3515 -0.9362 0.9362 -0.3515 9227.4023 10421.1699)" fill="#FFFFFF" cx="8223.094" cy="2014.656" rx="10.838" ry="7.989"/>
		
			<ellipse transform="matrix(-0.2472 -0.969 0.969 -0.2472 8071.4521 10351.7891)" fill="#FFFFFF" cx="8057.092" cy="2040.373" rx="9.724" ry="5.488"/>
		<path d="M8131.069,2043.674c0,0-55.215,19.479-61.875,34.59s31.939,27.858,36.953,26.641c5.012-1.218,30.865-23.562,24.777-32.298
			c-6.086-8.737-37.883-1.647-37.883-1.647S8096.05,2062.866,8131.069,2043.674z"/>
		<path fill="#FFFFFF" d="M8146.036,2129.611c4.941,6.159,10.814,13.177,13.607,15.611c7.16,6.303,24.85,3.008,22.844-6.229
			c-0.572-2.793-3.008-9.311-5.299-15.183C8163.726,2127.033,8146.036,2129.611,8146.036,2129.611z"/>
		<path fill="#FF547D" d="M8185.997,2180.1c7.09-21.843,33.873-32.729,50.346-36.237c-3.295,13.606-9.74,26.855-18.262,36.882
			C8207.409,2180.386,8196.739,2180.171,8185.997,2180.1z"/>
		<path d="M8479.329,2213.829c4.369,6.303,8.521,13.105,12.174,19.766c5.801,10.6,13.393,25.854,6.23,37.526
			c-2.148,3.581-5.156,7.376-7.805,10.599c-4.871,6.159-9.955,12.175-15.254,17.976c-14.682,16.256-31.082,31.653-48.842,44.329
			c-21.914,15.611-48.482,28.789-75.768,27.643c-11.102-0.501-22.488-2.22-33.443-4.225c-14.037-2.507-28.072-5.586-41.967-8.809
			c-33.229-7.807-66.314-16.758-99.258-25.566c-27.857-7.52-55.645-15.039-83.574-22.129c-22.055-5.586-44.613-11.172-67.031-14.896
			c-7.303-1.218-14.25-2.005-20.98-2.292c11.314-8.307,13.893-14.537-0.789-15.684c-47.551-3.795-98.613,18.548-108.281,23.061
			c0.717-10.026,2.938-20.983,6.875-30.508l-0.143-16.901c-0.143-11.172,2.578-21.914,9.166-31.009
			c10.957-15.039,26.855-20.339,41.824-22.2c24.348-3.008,35.734-5.586,56.359-8.809c83.574-13.105,172.232-13.607,256.451-9.023
			c50.416,2.793,164.139,6.875,212.121-31.654c6.66,7.878,15.898,16.257,18.477,26.211c3.58,13.965-3.365,26.068-13.893,34.446
			C8481.12,2212.397,8480.188,2213.113,8479.329,2213.829z"/>
		<path fill="#6B50D7" d="M8476.464,2173.511c0,0-50.559,33.587-211.977,24.778c-116.59-6.373-199.375,0.358-253.371,8.809
			c20.625,1.504,41.82,4.941,62.016,11.458c22.416,7.233,40.678,13.178,56.074,18.334c35.664-6.016,120.385-4.799,186.199,18.619
			c0,0-107.996-15.755-169.082-12.891c47.408,16.113,65.957,23.848,115.084,41.752c68.463,24.921,93.814,28.788,109.498,20.911
			c15.684-7.878,24.063-17.331-0.789-24.993c0,0,41.68,1.074,28.719,14.823c-13.035,13.822-30.223,38.171-104.484,10.241
			c-38.816-14.609-378.84-159.413-377.695-51.777c0,0,13.68-9.166,24.994-10.24c11.244-1.074,11.816-1.146,11.816-1.146
			s-20.053,9.311-31.939,23.991c-6.23,7.806-9.168,19.192-10.6,28.216c20.982-8.021,57.436-19.121,92.096-16.328h0.072
			c7.592,0.287,15.611,1.146,24.135,2.578c80.922,13.535,261.248,72.76,323.41,75.41c62.16,2.649,129.621-85.723,134.203-93.17
			c4.584-7.52-18.404-40.749-18.404-40.749s-26.568,24.349-30.15,29.434c-3.652,5.085,22.846,2.507,22.846,2.507
			s-25.709,13.821-39.746,8.092c-14.037-5.657,35.807-48.984,53.281-62.806C8490.144,2185.471,8476.464,2173.511,8476.464,2173.511z
			"/>
		<path fill="#4E32BC" d="M8100.919,2227.579c10.455,3.366,19.838,6.445,28.287,9.311c35.664-6.016,120.385-4.799,186.199,18.619
			c0,0-107.996-15.755-169.082-12.891c47.408,16.113,65.957,23.848,115.084,41.752c68.463,24.921,93.814,28.788,109.498,20.911
			c15.684-7.878,24.063-17.331-0.789-24.993c0,0,27,0.716,30.723,8.164l0,0l0,0c0.859,1.575,0.574,3.438-1.145,5.657
			c-2.865,10.24-12.531,31.868-44.113,43.613c-42.396,15.683-197.371-52.852-314.246-66.315
			c-66.098-7.591-99.543,5.3-116.156,17.976c21.197-6.875,50.129-13.535,77.844-11.315h0.072c7.592,0.287,15.611,1.146,24.135,2.578
			c80.922,13.535,261.248,72.76,323.41,75.41c62.16,2.649,129.621-85.723,134.203-93.17c4.584-7.52-18.404-40.749-18.404-40.749
			s-26.568,24.349-30.15,29.434c-3.652,5.085,22.846,2.507,22.846,2.507s-0.645,0.357-1.861,0.931l0,0
			c0,0-20.125,19.694-38.172,17.903c-10.025-0.931-6.086-12.317,1.934-23.633c3.867-5.657,10.098-12.532,17.045-19.407
			c-11.602,5.872-26.068,12.031-43.326,17.116c-49.27,14.609-112.076-17.976-186.34-21.127
			C8152.769,2223.497,8115.958,2226.075,8100.919,2227.579z"/>
		<path fill="#A698DD" d="M8476.464,2173.511c-0.93,0.573-51.992,33.516-211.977,24.778c-89.447-4.941-159.057-2.076-210.977,3.366
			c80.352-1.36,181.9,16.113,301.781,10.169C8454.265,2206.954,8474.315,2187.046,8476.464,2173.511z M8193.374,2266.609
			c-100.762-36.165-241.984-77.559-271.275-33.444C8002.593,2211.466,8129.923,2246.558,8193.374,2266.609z"/>
		<path fill="#EEEAFF" d="M7995.503,2293.536c-5.299,25.638-9.811,69.681-12.102,119.668c-6.875-7.377-17.762-13.249-34.662-15.183
			c0,0,23.848,9.453,32.729,32.441c-8.523,4.153-15.111,6.589-24.852,9.954c-89.875-1.432-179.535-3.652-269.34-5.442
			c-4.584-1.647-8.451-2.292-11.459-1.647c-1.217,0.287-2.291,0.788-3.295,1.289l-41.68-0.787
			c1.863-6.159,4.727-12.104,8.666-17.045c17.475-21.985,42.896-19.98,56.289-14.824c13.463,5.085,41.322,10.527,41.322,10.527
			l-24.135-16.543C7781.808,2401.101,7901.116,2289.097,7995.503,2293.536z M7585.94,2416.212
			c-4.512,4.583-7.59,10.313-9.094,16.471l-16.258-0.286C7564.528,2423.158,7573.409,2416.212,7585.94,2416.212z M7632.347,2407.045
			c0,0-10.098,12.39-14.18,26.497l-30.293-0.645C7594.464,2413.275,7616.091,2399.525,7632.347,2407.045z"/>
		<path fill="#CCC1F4" d="M7984.261,2396.374c-0.287,5.515-0.574,11.101-0.859,16.83c-6.875-7.377-17.762-13.249-34.662-15.183
			c0,0,23.848,9.453,32.729,32.441c-8.523,4.153-15.111,6.589-24.852,9.954c-34.303-0.572-68.605-1.217-102.838-1.934
			c57.006-20.982,79.779-29.075,79.779-29.075c-5.301-5.228-14.682-6.946-24.564-7.376
			C7943.94,2388.282,7968.862,2390.287,7984.261,2396.374z"/>
		<path fill="#FFFFFF" d="M7682.335,2398.81c2.793,0.286,5.371,0.787,7.805,1.36
			C7687.491,2399.74,7684.841,2399.311,7682.335,2398.81z M7722.651,2402.604l-9.666-6.66
			c68.822,5.156,188.131-106.848,282.518-102.408c-67.961,8.45-153.398,86.51-228.164,103.912
			C7751.655,2401.101,7736.616,2402.533,7722.651,2402.604z"/>
		<path fill="#4E32BC" d="M8012.69,2294.396c-5.801,26.712-12.604,72.33-15.539,146.881l63.379,1.289
			c-0.574-47.408,1.43-91.451,7.875-123.392c1.004-4.798,1.793-9.238,2.508-13.463c-15.324-3.725-30.793-7.161-46.121-9.668
			C8020.64,2295.326,8016.63,2294.825,8012.69,2294.396z"/>
		<path fill="#A698DD" d="M8047.28,2442.279l13.25,0.286c-0.504-47.266,1.43-91.094,7.805-123.033
			C8058.237,2344.096,8048.425,2414.923,8047.28,2442.279z"/>
		<path fill="#4E32BC" d="M8319.63,2368.015c-0.43,47.409,2.291,103.626,11.959,163.496c7.59,46.764,24.207,100.045,44.258,152.538
			l73.117,3.151l15.469,0.645v17.33V2880.2c21.199,41.321,36.238,67.747,36.238,67.747
			c57.793-22.415,202.381-101.119,167.074-179.537c-29.004-64.31-117.375-118.736-156.762-198.442
			c-19.193-38.959-30.008-79.636-36.023-114.153c-17.617,4.439-20.982,11.1-25.422,30.149c-5.443,23.06-18.764,10.026-30.365-50.703
			c-5.156-27.142-5.299-58.15-3.939-84.146c-19.621,12.317-42.18,21.484-65.168,20.553
			C8339.968,2371.237,8329.655,2369.733,8319.63,2368.015z"/>
		<path fill="#392589" d="M8602.792,2891.874c47.051-34.375,85.008-78.92,64.953-123.464
			c-29.004-64.31-117.375-118.736-156.762-198.442c-19.193-38.959-30.008-79.636-36.023-114.153
			c-17.617,4.439-20.982,11.1-25.422,30.149c-0.574,2.292-1.219,4.297-1.934,5.872c2.434,37.097,14.895,100.618,65.527,166.146
			C8592.122,2760.104,8629.362,2786.672,8602.792,2891.874z"/>
		<path fill="#A698DD" d="M8319.63,2368.015c-0.43,47.409,2.291,103.626,11.959,163.496c7.59,46.764,24.207,100.045,44.258,152.538
			l21.914,0.931C8359.519,2589.446,8325.214,2484.389,8319.63,2368.015z M8464.433,2844.25v35.95
			c21.199,41.321,36.238,67.747,36.238,67.747C8491.718,2914.79,8479.042,2880.272,8464.433,2844.25z"/>
		<path fill="#A698DD" d="M8083.444,2308.861c-5.297,32.012-10.742,78.489-10.383,133.991l117.59,2.363l7.162,231.242l156.834,6.66
			c-22.988-67.103-46.189-154.186-48.84-241.913c-0.859-29.075-1.289-54.212-1.289-76.055c-9.953-2.005-19.98-4.226-29.863-6.517
			c-33.229-7.807-66.314-16.758-99.258-25.566c-27.857-7.52-55.645-15.039-83.574-22.129
			C8089.03,2310.223,8086.237,2309.506,8083.444,2308.861z"/>
		<path fill="#867BB3" d="M8083.444,2308.861c-5.297,32.012-10.742,78.489-10.383,133.991l27.07,0.501
			c-3.223-38.815-5.086-70.469-4.297-84.648c1.359-22.988,20.195-32.584,40.963-36.021c-14.967-4.011-29.936-7.949-44.975-11.745
			C8089.03,2310.223,8086.237,2309.506,8083.444,2308.861z M8329.655,2682.115l24.992,1.003
			c-22.988-67.103-46.189-154.186-48.84-241.913c-0.859-29.075-1.289-54.212-1.289-76.055c-7.16-1.433-14.322-3.008-21.412-4.583
			c6.732,11.529,11.889,28.574,8.951,52.708C8287.403,2451.661,8294.851,2579.993,8329.655,2682.115z"/>
		<path fill="#EEEAFF" d="M8437.937,2458.607c-7.664-34.59-9.453-78.991-3.939-120.67c14.609-11.387,28.217-24.492,40.678-38.242
			c5.299-5.801,10.383-11.816,15.254-17.976c2.648-3.223,5.656-7.018,7.805-10.599c2.363-3.796,3.08-8.021,2.865-12.317
			c15.541,3.294,34.447,9.739,55.215,21.985c55.932,32.942,127.83,23.489,127.83,23.489s2.867,10.886,10.672,17.116
			s14.25,7.949,14.25,7.949c1.504,4.439,10.814,8.809,8.451,10.957c-20.697,18.404-11.602,47.265,14.537,55.429l-1.145,9.525
			c0,0-20.912,5.442-48.27,14.609c-27.285,9.166-72.688,5.657-72.688,5.657s9.453,4.583,17.832,6.731
			c8.379,2.221,8.379,2.221,8.379,2.221s-32.727,8.88-83.932,4.01C8500.526,2433.614,8462.142,2439.057,8437.937,2458.607z"/>
		<path fill="#FFFFFF" d="M8500.599,2258.804c15.541,3.294,34.447,9.739,55.215,21.985c55.932,32.942,127.83,23.489,127.83,23.489
			s1.148,4.44,4.012,9.238c-17.547,6.302-68.75,17.546-142.369-21.341c-17.689-9.31-33.945-15.469-48.627-19.336
			c0.359-0.573,0.717-1.146,1.074-1.719C8500.097,2267.325,8500.813,2263.101,8500.599,2258.804z"/>
		<path fill="#CCC1F4" d="M8437.937,2458.607c-7.664-34.59-9.453-78.991-3.939-120.67c1.646-1.289,3.295-2.65,5.014-4.011
			c1.145,31.08,8.307,62.161,32.154,60.371c46.979-3.51,100.475,9.811,100.475,9.811s-9.453-7.949-12.246-9.524
			c-2.721-1.647-2.721-1.647-2.721-1.647s52.064,11.602,104.842,4.369c31.441-4.297,47.41-7.734,55.215-9.812
			c4.012,3.581,8.953,6.445,14.824,8.235l-1.145,9.525c0,0-20.912,5.442-48.27,14.609c-27.285,9.166-72.688,5.657-72.688,5.657
			s9.453,4.583,17.832,6.731c8.379,2.221,8.379,2.221,8.379,2.221s-32.727,8.88-83.932,4.01
			C8500.526,2433.614,8462.142,2439.057,8437.937,2458.607z M8697.608,2323.829L8697.608,2323.829L8697.608,2323.829
			L8697.608,2323.829z"/>
		<path fill="#6B50D7" d="M8630.651,2691.425c16.758,17.976,33.871,37.813,45.832,59.655c72.975,70.468,154.4,108.71,230.383,94.029
			c123.965-24.063,89.947-162.564,94.961-209.83c5.012-47.193,109.498-59.869,168.508,4.011
			c59.012,63.809,45.477,86.797,45.477,86.797s70.039-103.483,25.996-221.146c-56.004-149.817-76.699-83.86-52.494-243.417
			c0,0-87.012-63.163-189.994-45.475c-102.98,17.76-131.984,89.518-125.969,154.042c6.016,64.453,95.891,246.926,94.461,346.47
			c-1.363,99.615-48.484,109.498-93.959,111.002s-85.006-25.996-85.006-25.996s58.008,26.999,110,16.042
			c51.992-11.028,67.961-87.011,49.484-162.564c-18.477-75.481-38.527-124.466-38.527-124.466s-7.449,130.481-182.762,42.468
			c-100.117-50.202-130.051-86.009-156.547-117.52c-14.252-1.36-26.141-2.291-35.951-2.864
			c12.818,12.747,25.639,28.503,35.879,47.122c0,0-17.115-22.344-46.908-47.695c-20.84-0.858-29.791,0.072-33.229,0.645l0.072,0.358
			c0.572,3.438,1.217,6.875,1.861,10.241c43.111,32.942,70.898,88.587,106.49,108.138c12.748,6.946,2.508-32.514,2.508-32.514
			s13.463,26.498,13.463,40.463c0,14.036-13.248,17.76-69.252-48.842c-22.414-26.783-38.887-43.612-50.488-54.212
			C8516.425,2580.208,8582.239,2639.434,8630.651,2691.425z"/>
		<path fill="#4E32BC" d="M8630.651,2691.425c17.043,18.334,33.801,37.67,45.832,59.655c72.975,70.468,154.4,108.71,230.383,94.029
			c123.965-24.063,89.947-162.564,94.961-209.83c5.012-47.193,109.498-59.869,168.508,4.011
			c59.012,63.809,45.477,86.797,45.477,86.797s34.875-51.491,39.961-123.177c-15.328,1.934-44.043-12.532-97.826-32.871
			c-115.299-43.613-195.436-6.016-180.541,111.002c7.734,60.801-9.309,94.746-27.426,113.294
			c-18.121,28.001-47.48,32.298-76.127,33.229c-45.475,1.504-85.006-25.996-85.006-25.996s58.008,26.999,110,16.042
			c46.836-9.954,64.453-72.545,53.996-140.077c-0.859,35.95-14.109,74.336-60.156,90.019
			c-154.473,52.565-354.563-165.786-395.668-282.446c0.143,0.501,0.215,1.003,0.215,1.504
			C8520.794,2584.219,8583.886,2641.224,8630.651,2691.425z M8505.038,2451.732c-8.234,0.144-12.604,0.645-14.752,1.002l0.072,0.358
			c0.572,3.438,1.217,6.875,1.861,10.241c43.111,32.942,70.898,88.587,106.49,108.138c8.164,4.439,6.875-10.098,4.941-21.127
			c-0.143,3.151-0.787,7.663-3.15,8.164c-3.725,0.717-10.885,0.287-68.105-76.913
			C8524.159,2470.495,8514.851,2460.612,8505.038,2451.732z"/>
		<path fill="#A698DD" d="M9189.313,2261.524c0,0-87.012-63.163-189.994-45.475c-102.98,17.76-131.984,89.518-125.969,154.042
			c4.154,45.117,49.414,147.955,75.77,239.836c-12.605-77.2-43.398-160.344-49.271-174.882
			c-9.525-23.561-58.725-135.924,52.709-189.491C9051.384,2198.074,9147.491,2243.621,9189.313,2261.524z M8909.804,2530.579
			c0,0-7.449,130.481-182.762,42.468c-100.117-50.202-130.051-86.009-156.547-117.52c-3.725-0.357-7.234-0.716-10.672-1.002
			c39.746,55.858,118.594,112.435,192.355,142.154C8826.085,2626.399,8910.019,2624.466,8909.804,2530.579z"/>
		<g>
			<path fill="#FFFF00" fill-opacity="0.251" d="M8193.731,2545.476c79.205,40.462,142.225,103.053,178.533,178.176l-169.51,113.079
				L8193.731,2545.476z"/>
			<path fill="#FFFF00" fill-opacity="0.251" d="M8202.755,2836.73l-6.875-221.359c55.143,36.236,98.184,86.151,122.748,144.088
				L8202.755,2836.73z"/>
			<path fill="#FFFF00" fill-opacity="0.251" d="M8198.386,2695.292c29.148,28.861,51.42,63.308,64.525,101.335l-60.156,40.104
				L8198.386,2695.292z"/>
			<path fill="#FFFF00" d="M8198.243,2690.78c0.287,0,0.645,0,0.932,0c14.25,0.072,25.781,6.016,25.852,13.249v0.859l0,0
				l-0.285,2.864c-2.078,6.66-13.822,10.385-25.639,10.241L8198.243,2690.78z"/>
			<path fill="#996633" d="M8198.243,2689.563c0.287,0,0.645,0,0.932,0c7.305,0,13.965,1.575,18.834,4.082
				c5.084,2.578,8.236,6.23,8.236,10.384l0.07,0.859v1.862l-0.215-0.072l-0.143,1.218v0.215c-1.217,3.867-5.156,6.804-10.455,8.665
				c-4.727,1.647-10.527,2.507-16.4,2.436l-0.072-2.436c5.586,0.072,11.172-0.716,15.684-2.363c4.512-1.575,7.807-3.938,8.809-6.946
				l0.287-2.649v-0.788c0-3.079-2.721-6.016-6.947-8.235c-4.512-2.292-10.813-3.725-17.688-3.796c-0.287,0-0.574,0-0.859,0
				L8198.243,2689.563z"/>
			<path fill="#A16E1E" d="M8199.03,2717.063c0.287,0,0.502,0,0.717,0c12.748,0,25.352-4.44,25.279-13.034v4.655
				c-1.002,8.307-13.391,12.818-25.852,12.818L8199.03,2717.063z"/>
			<path fill="#996633" d="M8199.03,2715.846c0.215,0,0.502,0,0.717,0l0,0c0.502,0,0.357,0,0.502,0
				c6.086-0.071,12.102-1.146,16.613-3.294c4.154-1.934,6.947-4.799,6.947-8.451l0,0v-0.071l0,0h2.436l0.07,4.583v0.215
				c-0.645,4.727-4.367,8.236-9.596,10.6c-4.941,2.148-11.172,3.294-17.475,3.294l-0.07-2.507
				c5.943,0.072,11.887-1.002,16.543-3.079c3.078-1.36,5.586-3.151,6.945-5.442c-1.289,1.217-2.936,2.22-4.797,3.15
				c-4.799,2.221-11.172,3.366-17.617,3.438c-0.43,0-0.359,0-0.502,0l0,0c-0.215,0-0.43,0-0.645,0L8199.03,2715.846z"/>
			<path fill="#FFFF00" d="M8252.813,2733.392c9.74-5.658,12.676-18.906,6.445-29.577c-6.158-10.671-19.049-14.681-28.861-9.023
				l-1.217,0.716l0,0l-3.652,2.436c-15.254,12.962-1.504,44.186,22.631,37.813l2.936-1.361L8252.813,2733.392z"/>
			<path fill="#996633" d="M8252.169,2732.317c4.584-2.65,7.52-7.09,8.666-12.104c1.074-5.084,0.285-10.742-2.578-15.755
				c-2.938-5.085-7.52-8.522-12.461-10.098c-4.871-1.504-10.17-1.146-14.754,1.504l-1.217,0.645l-3.51,2.435
				c-4.082,3.438-5.943,8.308-5.943,13.32c-0.072,3.796,0.932,7.663,2.721,11.101c1.791,3.438,4.441,6.517,7.734,8.665
				c4.512,3.008,10.313,4.297,16.973,2.507l2.723-1.218L8252.169,2732.317z M8263.269,2720.716
				c-1.289,5.729-4.654,10.742-9.811,13.75l-1.791,1.002l-0.07,0.072l-2.865,1.289l-0.215,0.071
				c-7.447,2.005-13.965,0.573-19.049-2.793c-3.652-2.435-6.59-5.801-8.594-9.597c-1.934-3.795-3.008-8.092-3.008-12.246
				c0.07-5.729,2.219-11.314,6.875-15.254l0.143-0.071l3.08-2.077v-0.071l0.645-0.358l1.217-0.716
				c5.156-3.008,11.172-3.438,16.758-1.719c5.514,1.719,10.527,5.586,13.75,11.172
				C8263.628,2708.827,8264.487,2715.13,8263.269,2720.716z"/>
			<path fill="#996633" d="M8252.026,2732.389l0.143-0.071l1.289,2.076c-1.719,1.146-3.438,1.934-5.084,2.578
				c-5.873,2.292-11.459,2.006-16.258,0.072c-4.797-1.934-8.809-5.443-11.529-9.812c-0.932-1.504-1.719-3.008-2.291-4.655
				c-2.006-5.228-2.363-11.172-0.215-16.686c1.934-4.655,5.656-8.952,11.744-12.175l1.217,2.148
				c-5.084,2.937-7.877,7.161-8.879,11.745c-1.219,5.228-0.072,11.028,2.648,15.898l0,0l0.145,0.215l0,0
				c2.648,4.512,6.73,8.307,11.529,10.098C8241.14,2735.611,8246.583,2735.468,8252.026,2732.389L8252.026,2732.389z"/>
			<path fill="#FFFF00" d="M8209.845,2771.061c9.74-5.658,12.676-18.906,6.518-29.505c-3.867-6.589-10.242-10.671-16.902-11.459
				l1.361,44.114c1.432-0.143,2.865-0.357,4.369-0.787l2.936-1.361L8209.845,2771.061z"/>
			<path fill="none" d="M8209.2,2769.986c4.584-2.65,7.592-7.09,8.666-12.104c1.074-5.013,0.357-10.67-2.578-15.755l0,0
				 M8220.3,2758.456c-1.289,5.657-4.654,10.671-9.811,13.679l0,0 M8217.364,2740.911c3.295,5.586,4.154,11.888,2.936,17.545
				 M8215.288,2742.128c-2.078-3.509-4.871-6.23-8.021-8.092c-2.436-1.433-5.084-2.363-7.734-2.722 M8200.821,2772.994
				c0.215-0.072,0.43-0.072,0.645-0.072c1.074-0.143,2.221-0.357,3.365-0.645l2.723-1.289l1.646-1.002l0,0 M8208.483,2731.888
				c3.582,2.076,6.66,5.156,8.881,9.023l0,0 M8199.46,2728.808c3.08,0.358,6.23,1.433,9.023,3.08 M8201.753,2775.357
				c-0.287,0-0.574,0.071-0.859,0.071 M8205.548,2774.641c-1.289,0.358-2.578,0.573-3.795,0.717 M8205.763,2774.569l-0.215,0.071
				 M8208.628,2773.209l-2.865,1.36 M8208.698,2773.137l-0.07,0.072 M8210.489,2772.135l-1.791,1.002"/>
			<path fill="#A16E1E" d="M8209.845,2771.061c-3.008,1.79-6.088,2.649-9.023,2.864v0.788
				C8203.757,2774.14,8206.765,2772.994,8209.845,2771.061z"/>
			<path fill="#996633" d="M8210.489,2772.135l-0.072,0.071c-2.076,1.218-4.082,2.22-6.016,2.864
				c-1.217,0.358-2.363,0.645-3.508,0.859l-0.072-3.294c0.932-0.071,1.934-0.215,2.936-0.43c1.791-0.43,3.652-1.146,5.443-2.22
				L8210.489,2772.135L8210.489,2772.135L8210.489,2772.135z"/>
			<path fill="#FFFF00" d="M8199.03,2716.49c3.939-1.289,8.666-2.005,13.68-1.934c14.18,0.071,25.781,6.016,25.852,13.249v0.859l0,0
				l-0.285,2.864c-2.865,9.095-23.992,12.819-38.529,8.308L8199.03,2716.49z"/>
			<path fill="#996633" d="M8199.03,2715.201c1.434-0.43,3.008-0.859,4.727-1.146c2.793-0.502,5.801-0.788,8.953-0.717
				c7.305,0,13.893,1.576,18.762,4.011c5.086,2.649,8.236,6.302,8.309,10.456v0.859l-0.287,0.143h0.287l-0.287,2.865l-0.072,0.215
				c-0.07,0.215-0.143,0.501-0.285,0.716c-1.934,4.798-8.309,8.021-16.043,9.524c-7.447,1.361-16.113,1.146-23.273-0.931
				l-0.072-2.649l0.357,0.143c6.875,2.148,15.326,2.363,22.488,1.003c6.945-1.36,12.676-4.082,14.25-8.021
				c0.072-0.144,0.145-0.287,0.215-0.43l0.287-2.65v-0.787c-0.072-3.151-2.721-6.016-7.018-8.236
				c-4.512-2.291-10.742-3.795-17.689-3.795c-2.936,0-5.801,0.215-8.451,0.716c-1.789,0.358-3.508,0.788-5.084,1.289
				L8199.03,2715.201z"/>
			<path fill="#996633" d="M8199.675,2737.76c1.648,0.501,3.367,0.859,5.086,1.146c2.721,0.43,5.656,0.717,8.521,0.717v-0.072
				c0.43,0,0.357,0.072,0.43,0.072c6.158-0.072,12.174-1.218,16.615-3.295c4.225-1.934,7.018-4.798,7.018-8.45l0,0v-0.071l0,0h2.436
				v4.583v0.144c-0.145,0.931-0.359,1.861-0.717,2.649c-1.791,4.44-6.732,7.663-12.818,9.453c-5.945,1.79-13.105,2.292-19.766,1.433
				c-2.293-0.287-4.441-0.717-6.59-1.361L8199.675,2737.76z"/>
			<path fill="#FFFF00" d="M8214.499,2762.896c-5.371-4.226-2.936-16.113,5.443-26.569c8.451-10.455,19.623-15.469,24.994-11.243
				l0.645,0.501l0,0l1.934,1.862c7.018,10.384-14.324,40.533-30.365,37.096l-1.719-0.931L8214.499,2762.896z"/>
			<path fill="#996633" d="M8213.712,2763.827h-0.072v-0.071c-3.008-2.363-3.867-6.732-2.863-11.888
				c1.002-4.799,3.652-10.456,7.805-15.756c0.145-0.215,0.287-0.43,0.43-0.572c4.297-5.371,9.383-9.311,14.037-11.459
				c4.941-2.22,9.596-2.435,12.676,0l0.645,0.502l0.072,0.143l1.934,1.862l0.143,0.215c1.719,2.435,1.934,5.872,1.146,9.597
				c-0.859,4.368-3.223,9.238-6.445,13.75c-3.152,4.511-7.162,8.736-11.531,11.673c-4.797,3.223-9.953,5.013-14.752,3.938
				l-0.357-0.071l-1.719-0.932l-0.145-0.143L8213.712,2763.827L8213.712,2763.827z M8215.216,2761.894v-0.071l0.072,0.071l0,0
				l0.859,0.716l1.432,0.788c4.082,0.788,8.521-0.788,12.748-3.652c4.082-2.722,7.877-6.731,10.885-10.957
				c3.008-4.297,5.229-8.88,6.088-12.891c0.645-3.079,0.5-5.729-0.717-7.662l-1.791-1.719l-0.645-0.502
				c-2.291-1.79-5.943-1.504-10.025,0.358c-4.369,1.934-9.096,5.657-13.178,10.742c-0.215,0.215-0.357,0.43-0.43,0.501
				c-3.867,5.014-6.373,10.241-7.305,14.753C8212.423,2756.594,8212.995,2760.104,8215.216,2761.894z"/>
			<path fill="#A16E1E" d="M8214.499,2762.896c6.445,5.013,17.547-1.934,25.209-11.53c7.447-9.381,11.602-21.341,5.229-26.282
				l3.438,2.649c10.67,11.029-13.822,44.401-29.863,38.313L8214.499,2762.896z"/>
			<path fill="#996633" d="M8215.288,2761.894c2.578,2.077,6.158,1.79,9.953,0c4.656-2.077,9.525-6.302,13.465-11.314l0,0
				l0.285-0.358l0,0c3.582-4.512,6.303-9.597,7.377-14.108c1.002-4.225,0.502-7.877-2.148-10.025l0,0l-0.072-0.072l1.576-1.934
				l0.072,0.072l0,0l0.143,0.143l3.15,2.507l0.145,0.071c2.721,2.865,3.438,6.875,2.648,11.315
				c-0.787,4.583-3.078,9.668-6.301,14.251c-3.223,4.655-7.305,8.809-11.674,11.673c-5.229,3.438-10.885,5.014-15.826,3.08
				l-0.359-0.144l-3.938-3.151l-0.072-0.071l0,0l0,0L8215.288,2761.894z M8226.245,2764.186c-1.361,0.645-2.793,1.074-4.154,1.36
				c3.365,0.144,7.018-1.218,10.455-3.509c4.082-2.65,7.949-6.589,11.029-10.957c3.008-4.368,5.156-9.095,5.873-13.249
				c0.357-2.22,0.357-4.225-0.145-5.943c0.072,1.504-0.143,3.15-0.572,4.798c-1.146,4.87-4.01,10.313-7.807,15.11l0,0l-0.285,0.358
				l0,0C8236.485,2757.382,8231.257,2761.894,8226.245,2764.186z"/>
			<path fill="#FFFF00" d="M8237.774,2736.112c-0.072-7.232,11.387-13.033,25.639-12.962c14.18,0.071,25.781,5.944,25.852,13.249
				v0.859l0,0l-0.285,2.864c-3.939,12.604-43.041,14.896-50.848-0.645l-0.357-2.005V2736.112z"/>
			<path fill="#996633" d="M8236.558,2736.112v-0.071l0,0c0-4.011,3.008-7.591,7.949-10.169c4.654-2.436,11.027-3.939,18.117-4.011
				c0.287,0,0.502,0,0.789,0c7.305,0.071,13.965,1.647,18.762,4.082c5.086,2.649,8.309,6.302,8.309,10.456v0.859l0.07,2.363
				l-0.285-0.215l-0.072,0.787l-0.072,0.287c-0.93,3.008-3.508,5.442-7.16,7.232c-4.227,2.148-9.813,3.438-15.684,3.796
				c-5.801,0.358-11.961-0.215-17.188-1.862c-5.873-1.861-10.742-5.013-13.035-9.596l-0.143-0.358l-0.357-2.077v-0.143v-1.289
				V2736.112z M8238.991,2736.041v0.071v1.218l0.359,1.79c2.004,3.867,6.23,6.518,11.457,8.164
				c5.014,1.504,10.814,2.077,16.328,1.719c5.586-0.286,10.814-1.504,14.682-3.438c3.008-1.504,5.156-3.438,5.943-5.729l0.287-2.65
				v-0.787c-0.072-3.151-2.721-6.088-7.018-8.236c-4.512-2.291-10.742-3.795-17.617-3.795c-0.287,0-0.502,0-0.717,0
				c-6.732,0.071-12.748,1.432-17.115,3.724C8241.499,2730.169,8238.991,2733.033,8238.991,2736.041z"/>
			<path fill="#A16E1E" d="M8237.774,2736.112c0.072,8.737,13.248,13.32,26.211,13.32c12.748,0,25.352-4.512,25.279-13.033v4.583
				c-2.004,16.113-45.904,17.903-51.49,0.573V2736.112z"/>
			<path fill="#996633" d="M8238.991,2736.112c0.072,3.51,2.65,6.374,6.66,8.379c4.799,2.436,11.602,3.725,18.334,3.652l0,0
				c0.43,0,0.357,0,0.502,0c6.086,0,12.102-1.146,16.543-3.223c4.225-2.005,7.018-4.798,7.018-8.45v-0.071l0,0l0,0h2.436v4.583
				v0.144c-0.502,4.082-3.367,7.376-7.592,9.668c-4.297,2.362-9.955,3.795-15.971,4.153c-5.871,0.357-12.102-0.215-17.33-1.934
				c-6.303-2.077-11.244-5.729-12.963-11.028l-0.07-0.43v-5.371l0,0v-0.072H8238.991z M8244.507,2746.712
				c-1.648-0.859-3.08-1.862-4.297-2.937c2.004,3.151,5.729,5.442,10.168,6.875c4.941,1.575,10.814,2.22,16.4,1.861
				c5.586-0.429,10.957-1.718,14.967-3.866c2.221-1.289,4.012-2.793,5.156-4.584c-1.359,1.218-2.936,2.221-4.797,3.08
				c-4.799,2.291-11.172,3.438-17.617,3.509c-0.502,0-0.359,0-0.502,0l0,0C8256.896,2750.65,8249.733,2749.29,8244.507,2746.712z"/>
			<path fill="#CAA818" d="M8201.394,2791.613c2.65,2.077,4.227,4.584,4.227,7.233l0.07,0.859l0,0l-0.357,2.864
				c-0.502,1.719-1.719,3.294-3.438,4.655L8201.394,2791.613z"/>
			<path fill="#996633" d="M8201.323,2790.038c1.359,1.003,2.578,2.005,3.438,3.151c1.359,1.719,2.076,3.652,2.148,5.657v0.859
				v2.005l-0.215-0.071l-0.145,1.074v0.215c-0.5,1.432-1.289,2.793-2.434,3.938c-0.645,0.645-1.434,1.289-2.221,1.862l-0.072-3.08
				c0.145-0.143,0.359-0.357,0.502-0.501c0.859-0.859,1.504-1.79,1.791-2.864l0.285-2.65v-0.787c0-1.433-0.572-2.793-1.574-4.082
				c-0.43-0.501-0.859-1.003-1.434-1.504L8201.323,2790.038z"/>
			<path fill="#A16E1E" d="M8201.823,2806.151c2.436-1.934,3.867-4.369,3.797-7.305l0.07,4.583
				c-0.357,2.507-1.719,4.727-3.723,6.517L8201.823,2806.151z"/>
			<path fill="#996633" d="M8201.753,2804.575c0.5-0.501,0.93-0.931,1.289-1.432c0.859-1.289,1.359-2.722,1.359-4.297l0,0h2.508
				v0.071v4.512v0.144c-0.287,1.934-1.004,3.724-2.221,5.228c-0.717,1.003-1.646,1.862-2.721,2.722l-0.072-3.223
				c0.287-0.358,0.572-0.645,0.859-1.003c0.143-0.215,0.357-0.501,0.502-0.788c-0.43,0.43-0.859,0.788-1.361,1.146
				L8201.753,2804.575z"/>
			<path fill="#FFFF00" d="M8200.392,2760.891c0.717,0,1.504-0.071,2.221,0c14.18,0,25.781,5.944,25.852,13.178v0.931l0,0
				l-0.285,2.793c-2.148,6.875-14.682,10.671-26.928,10.241L8200.392,2760.891z"/>
			<path fill="#996633" d="M8200.392,2759.674c0.717-0.072,1.432-0.072,2.221-0.072c7.305,0.072,13.965,1.576,18.762,4.082
				c5.086,2.578,8.309,6.303,8.309,10.385v0.931l0.07,2.005l-0.215-0.143l-0.143,1.074l-0.072,0.286
				c-1.217,3.938-5.371,6.946-10.885,8.809c-4.941,1.647-11.1,2.435-17.115,2.22l-0.072-2.435c5.801,0.215,11.674-0.573,16.4-2.148
				s8.307-4.011,9.309-7.09l0.287-2.649v-0.788c-0.072-3.151-2.721-6.087-6.947-8.235c-4.512-2.363-10.813-3.796-17.688-3.796
				c-0.717,0-1.434,0-2.148,0L8200.392,2759.674z"/>
			<path fill="#A16E1E" d="M8201.251,2787.102c0.645,0,1.289,0.072,1.934,0.072c12.748-0.072,25.352-4.512,25.279-13.105v4.654
				c-1.074,8.666-14.25,13.178-27.07,12.819L8201.251,2787.102z"/>
			<path fill="#996633" d="M8201.179,2785.885c0.717,0,1.361,0,2.006,0l0,0c0.502,0,0.357,0,0.502,0
				c6.086-0.072,12.102-1.146,16.543-3.223c4.225-2.006,7.018-4.799,7.018-8.451v-0.071l0,0v-0.071h2.436l0.07,4.654l-0.07,0.144
				c-0.574,4.87-4.512,8.522-10.027,10.813c-5.156,2.221-11.744,3.295-18.262,3.08l-0.07-2.436
				c6.23,0.144,12.461-0.859,17.402-2.864c3.293-1.433,5.943-3.366,7.375-5.657c-1.289,1.146-2.936,2.22-4.797,3.079
				c-4.799,2.22-11.172,3.438-17.617,3.509c-0.43,0-0.359,0-0.502,0l0,0c-0.645,0-1.289,0-1.934-0.071L8201.179,2785.885z"/>
			<path fill="#FFFF00" d="M8256.823,2748.932c-5.801-4.512-3.15-17.188,5.801-28.359c8.953-11.101,20.912-16.472,26.641-12.031
				l0.717,0.573l0,0l2.006,2.005c7.52,11.028-15.254,43.184-32.371,39.603l-1.789-1.002L8256.823,2748.932z"/>
			<path fill="#996633" d="M8256.036,2749.862l-0.072-0.071l0,0c-3.223-2.507-4.082-7.161-3.008-12.604
				c1.004-5.156,3.867-11.172,8.236-16.758c0.215-0.286,0.357-0.43,0.502-0.645c4.582-5.657,9.953-9.954,14.967-12.174
				c5.229-2.363,10.098-2.578,13.393,0l0,0l0,0h0.07l0,0l0.072,0.071l0.072,0.071l0.43,0.358l0.143,0.071l2.865,2.292l0.07,0.071
				c2.938,3.008,3.652,7.305,2.865,12.031c-0.859,4.87-3.365,10.241-6.732,15.183c-3.438,4.87-7.805,9.382-12.461,12.39
				c-5.586,3.651-11.529,5.299-16.828,3.294l-0.287-0.215l-4.154-3.223L8256.036,2749.862L8256.036,2749.862z M8257.54,2747.929
				c2.793,2.221,6.66,1.862,10.742,0c4.941-2.22,10.17-6.803,14.395-12.103l0,0l0.287-0.358l0,0c3.795-4.869,6.73-10.24,7.877-15.11
				c1.074-4.512,0.572-8.45-2.291-10.742l0,0l-0.072-0.071l0,0c-2.436-1.934-6.445-1.719-10.814,0.286
				c-4.654,2.148-9.738,6.159-14.107,11.53c-0.143,0.215-0.287,0.43-0.43,0.572c-4.154,5.3-6.803,10.957-7.734,15.756
				c-0.932,4.512-0.287,8.235,2.076,10.169l0,0L8257.54,2747.929L8257.54,2747.929z"/>
			<path fill="#663300" d="M8253.028,2742.772L8253.028,2742.772L8253.028,2742.772z"/>
			<path fill="#996633" d="M8251.812,2742.772L8251.812,2742.772v-3.008l1.934,2.006c2.936,1.504,4.01,3.079,3.795,3.938
				c0.357,0.501,0.287,0.573-0.287,0.43c-0.715,0.43-2.578-0.071-5.012-2.363l-0.43-0.286V2742.772z"/>
			<path fill="#B98629" d="M8253.028,2742.772L8253.028,2742.772L8253.028,2742.772z"/>
			<polygon fill="#996633" points="8251.882,2742.2 8251.882,2742.2 8252.599,2742.486 8252.026,2741.985 8252.026,2741.985 
				8252.599,2742.486 8254.245,2743.06 8254.245,2743.06 8254.103,2743.274 8254.103,2743.274 8254.103,2743.274 8254.103,2743.274 
				8254.03,2743.489 8254.03,2743.489 8252.671,2742.63 8251.812,2742.486 8251.812,2742.415 8252.671,2742.63 			"/>
			<path fill="#FFFF00" d="M8227.604,2775.429c-5.729-4.512-3.078-17.188,5.873-28.287c8.951-11.172,20.912-16.543,26.641-12.031
				l0.717,0.501l0,0l2.004,2.005c7.52,11.029-15.254,43.255-32.369,39.603l-1.791-1.002L8227.604,2775.429z"/>
			<path fill="#996633" d="M8226.89,2776.359h-0.072l0,0c-3.223-2.578-4.082-7.232-3.008-12.676
				c1.002-5.156,3.795-11.1,8.236-16.757c0.215-0.215,0.357-0.43,0.43-0.573c4.654-5.729,10.025-10.026,15.039-12.246
				c5.227-2.363,10.098-2.578,13.32,0l0.715,0.573l0.145,0.071l2.004,2.005l0.145,0.215c1.789,2.65,2.076,6.23,1.217,10.17
				c-0.932,4.654-3.438,9.882-6.803,14.681c-3.438,4.798-7.734,9.238-12.318,12.389c-5.084,3.438-10.6,5.3-15.684,4.226
				l-0.357-0.144l-1.863-1.002l-0.143-0.072L8226.89,2776.359L8226.89,2776.359z M8228.321,2774.426L8228.321,2774.426h0.072l0,0
				l0.93,0.788l1.576,0.859c4.369,0.859,9.166-0.859,13.678-3.938c4.297-2.937,8.379-7.162,11.602-11.745s5.586-9.453,6.518-13.75
				c0.645-3.294,0.502-6.158-0.787-8.164l-1.934-1.934l-0.645-0.501c-2.436-1.934-6.445-1.647-10.814,0.358
				c-4.654,2.076-9.74,6.087-14.107,11.458c-0.145,0.286-0.287,0.43-0.43,0.573c-4.154,5.299-6.805,10.956-7.807,15.755
				C8225.313,2768.697,8225.958,2772.492,8228.321,2774.426z"/>
			<path fill="#A16E1E" d="M8227.604,2775.429c6.875,5.371,18.764-2.077,26.928-12.317c7.949-10.026,12.389-22.702,5.586-28.001
				l3.652,2.864c11.314,11.673-14.752,47.337-31.869,40.82L8227.604,2775.429z"/>
			<path fill="#996633" d="M8228.394,2774.426c2.793,2.221,6.66,1.934,10.742,0.072c4.941-2.292,10.168-6.804,14.395-12.175v0.071
				l0.285-0.43l0,0c3.797-4.798,6.732-10.24,7.879-15.038c1.074-4.584,0.572-8.522-2.293-10.814l0,0l-0.07-0.071l1.574-1.934v0.071
				l0,0l0.215,0.144l3.367,2.649l0.143,0.144c2.865,2.937,3.652,7.233,2.793,11.96c-0.787,4.869-3.295,10.24-6.732,15.182
				c-3.365,4.941-7.734,9.382-12.389,12.461c-5.586,3.652-11.529,5.228-16.83,3.223l-0.285-0.144l-4.297-3.365v-0.072l0,0l0,0
				L8228.394,2774.426z M8240.138,2776.718c-1.719,0.788-3.438,1.36-5.014,1.575c3.725,0.358,7.879-1.074,11.816-3.652
				c4.369-2.864,8.523-7.161,11.746-11.816c3.223-4.583,5.586-9.668,6.301-14.107c0.502-2.578,0.359-5.013-0.357-7.019
				c0.143,1.791-0.072,3.725-0.572,5.801c-1.219,5.156-4.297,10.886-8.309,16.042l0,0l-0.285,0.357l0,0
				C8251.022,2769.484,8245.437,2774.283,8240.138,2776.718z"/>
			<path fill="#FFFF00" d="M8294.851,2775.357c3.223-6.804,3.08-15.326-1.217-22.773c-6.588-11.387-20.41-15.684-30.795-9.597
				l-1.289,0.717l0,0l-3.938,2.649c-15.184,12.818-3.51,42.61,18.977,41.106L8294.851,2775.357z"/>
			<path fill="#996633" d="M8292.56,2776.861c2.148-3.366,3.295-7.305,3.295-11.459c0-4.082-1.074-8.307-3.295-12.174
				c-3.15-5.442-8.021-9.167-13.32-10.813c-5.229-1.647-10.885-1.218-15.826,1.646l-1.219,0.717l-3.795,2.506
				c-3.939,3.366-5.943,7.949-6.303,12.747c-0.357,4.154,0.502,8.522,2.363,12.461c1.863,3.939,4.656,7.448,8.236,9.955
				c4.369,3.008,9.883,4.583,16.113,3.58L8292.56,2776.861z M8298.288,2765.475c0,2.936-0.5,5.872-1.574,8.594l-22.059,14.681
				c-5.084-0.071-9.596-1.647-13.32-4.226c-4.01-2.793-7.09-6.66-9.094-10.957c-2.078-4.368-3.008-9.166-2.65-13.75
				c0.43-5.442,2.721-10.599,7.232-14.466l0.072-0.071l3.939-2.578l0.07-0.071l1.289-0.717c5.516-3.223,11.889-3.724,17.832-1.861
				c5.873,1.861,11.172,5.943,14.682,11.888C8297.144,2756.236,8298.36,2760.891,8298.288,2765.475z"/>
			<path fill="#A16E1E" d="M8277.163,2787.102c-8.953,0.573-17.045-5.156-21.484-12.891c-5.801-10.24-5.156-24.134,7.16-31.224
				c-13.535,7.09-15.539,19.265-11.744,29.147c3.725,9.739,13.178,17.33,24.42,16.041L8277.163,2787.102z"/>
			<path fill="#996633" d="M8266.993,2783.664c3.795,1.934,8.021,2.793,12.461,1.934l-6.016,4.011
				c-4.225,0.071-8.236-1.074-11.674-3.008c-5.441-3.079-9.596-8.164-11.816-14.036c-2.148-5.586-2.506-11.889-0.215-17.689
				c2.006-5.013,5.945-9.596,12.461-13.033l1.219,2.22c-5.371,3.08-8.379,7.592-9.525,12.532
				c-1.289,5.658-0.072,11.816,2.865,17.045C8259.187,2777.863,8262.769,2781.516,8266.993,2783.664z M8265.274,2785.526
				c-4.369-2.435-8.092-6.23-10.67-10.671c-2.65-4.727-4.012-10.098-3.652-15.325c-0.717,4.082-0.145,8.308,1.289,12.175
				c2.004,5.299,5.871,9.954,10.742,12.747C8263.698,2784.811,8264.487,2785.24,8265.274,2785.526z"/>
			<path fill="#FFFF00" d="M8374.558,2722.076c-7.234-7.161-18.047-9.238-26.641-4.226l-1.289,0.717l0,0l-3.938,2.649
				c-7.379,6.302-8.379,16.614-4.801,25.423L8374.558,2722.076z"/>
			<path fill="#996633" d="M8373.554,2722.792c-3.293-3.223-7.375-5.299-11.602-6.087c-4.582-0.859-9.309-0.215-13.391,2.22
				l-1.289,0.717l-3.797,2.578c-3.438,2.864-5.441,6.803-6.086,10.957c-0.715,4.153-0.07,8.594,1.504,12.747L8373.554,2722.792z
				 M8362.382,2714.271c4.871,0.931,9.527,3.365,13.25,7.161l-38.816,25.853c-1.934-4.654-2.648-9.739-1.859-14.537
				c0.785-4.727,3.008-9.167,6.945-12.461l0.145-0.072l3.938-2.649v-0.071l1.289-0.717
				C8351.999,2714.056,8357.3,2713.339,8362.382,2714.271z"/>
			<path fill="#A16E1E" d="M8339.179,2745.709c-3.938-9.739-2.289-21.484,8.738-27.858c-13.535,7.09-15.469,19.265-11.746,29.147
				c0.074,0.215,0.145,0.43,0.215,0.573L8339.179,2745.709z"/>
			<path fill="#996633" d="M8338.104,2746.425c-1.574-3.795-2.289-7.949-2.004-12.031c-0.789,4.082-0.215,8.308,1.289,12.175l0,0
				l0.07,0.286L8338.104,2746.425z M8339.253,2730.455c-1.363,4.727-0.859,9.883,1,14.538l-4.867,3.294
				c-0.145-0.286-0.215-0.573-0.359-0.788l0,0c-2.148-5.657-2.508-11.959-0.145-17.76c2.008-5.014,5.945-9.597,12.461-12.963
				l1.219,2.148C8343.476,2721.861,8340.542,2725.943,8339.253,2730.455z"/>
			<path fill="#FFFF00" d="M8277.233,2744.706c-0.07-7.734,12.176-13.965,27.285-13.893c15.184,0.071,27.57,6.373,27.645,14.107
				v0.932l0,0l-0.359,3.079c-0.285,0.931-0.789,1.79-1.434,2.649l-8.09,5.442c-13.965,5.371-38.529,3.51-44.688-8.808l-0.359-2.148
				V2744.706z"/>
			<path fill="#996633" d="M8276.017,2744.706v-0.143l0,0c0-4.297,3.223-8.021,8.379-10.742c4.941-2.578,11.816-4.154,19.408-4.226
				c0.215,0,0.5,0,0.715,0c7.807,0,14.896,1.647,20.051,4.297c5.371,2.793,8.738,6.66,8.809,11.028v0.932v1.646l-0.141-0.071
				l-0.215,1.575v0.287c-0.074,0.215-0.215,0.501-0.289,0.716l-14.105,9.453c-3.08,0.787-6.445,1.289-9.883,1.504
				c-6.23,0.357-12.748-0.215-18.334-1.934c-6.303-2.006-11.459-5.3-13.893-10.241l-0.145-0.357l-0.357-2.148v-0.215V2744.706
				L8276.017,2744.706z M8278.452,2744.563v0.143v1.218l0.357,1.934c2.148,4.153,6.732,7.018,12.318,8.809
				c5.299,1.646,11.529,2.22,17.473,1.861c5.873-0.357,11.531-1.646,15.684-3.724c3.223-1.647,5.516-3.724,6.301-6.158l0.359-2.865
				l-0.07-0.859c0-3.365-2.867-6.517-7.449-8.809c-4.797-2.506-11.529-4.01-18.906-4.082c-0.215,0-0.5,0-0.715,0
				c-7.162,0.072-13.607,1.576-18.262,4.011C8281.173,2738.261,8278.452,2741.341,8278.452,2744.563z"/>
			<path fill="#996633" d="M8278.452,2744.706c0.07,3.796,2.863,6.804,7.09,8.952c5.227,2.578,12.461,3.938,19.621,3.938h0.502
				c6.518-0.071,12.963-1.218,17.76-3.509c4.512-2.077,7.52-5.156,7.449-9.095l0,0v-0.072l0,0h2.504v4.655l-22.199,14.824
				c-6.73,0.787-14.035,0.357-20.195-1.504c-7.232-2.077-12.961-6.088-14.895-12.031l-0.072-0.358v-5.801l0,0l0,0H8278.452z"/>
			<path fill="#FFFF00" d="M8284.396,2782.304c0.859-5.371,3.867-11.816,8.666-17.832c8.951-11.101,20.91-16.543,26.641-12.031
				l0.715,0.573l0,0l2.004,2.005c0.289,0.43,0.574,0.859,0.789,1.36L8284.396,2782.304z"/>
			<path fill="#996633" d="M8283.034,2783.163c0.359-2.864,1.219-6.016,2.723-9.31c1.574-3.366,3.652-6.804,6.373-10.17
				c4.584-5.729,9.955-9.954,14.967-12.245c5.229-2.363,10.098-2.507,13.391,0l0.719,0.572l0.07,0.144l2.078,2.005l0.141,0.144
				c0.289,0.43,0.504,0.931,0.719,1.432L8283.034,2783.163z M8288.048,2774.855c-1.002,2.221-1.791,4.44-2.221,6.445l36.309-24.205
				c-0.07-0.144-0.07-0.215-0.145-0.358c-0.141-0.358-0.285-0.645-0.5-0.931l-1.934-1.862l-0.572-0.501
				c-2.506-1.934-6.445-1.719-10.885,0.286c-4.656,2.077-9.74,6.087-14.037,11.53
				C8291.485,2768.41,8289.479,2771.705,8288.048,2774.855z"/>
			<path fill="#A16E1E" d="M8322.636,2756.809c-0.5-1.719-1.504-3.223-2.934-4.368l3.652,2.864c0.215,0.215,0.355,0.43,0.5,0.645
				L8322.636,2756.809z"/>
			<path fill="#996633" d="M8321.491,2757.525c-0.145-0.717-0.43-1.433-0.789-2.006c-0.43-0.787-1-1.504-1.717-2.076l0,0h-0.072
				l1.574-2.005l0.145,0.143l3.508,2.793l0.074,0.071c0.285,0.287,0.5,0.502,0.715,0.788L8321.491,2757.525z"/>
			<path fill="#FFFF00" d="M8308.745,2746.354c-0.072-7.734,12.172-13.965,27.355-13.894c6.805,0,13.035,1.289,17.832,3.438
				l-34.088,22.702c-4.799-1.862-8.736-4.727-10.742-8.737l-0.357-2.148V2746.354z"/>
			<path fill="#996633" d="M8307.526,2746.354v-0.144l0,0c0-4.297,3.223-8.092,8.379-10.742c5.012-2.578,11.816-4.225,19.406-4.297
				c0.215,0,0.504,0,0.789,0c3.723,0.072,7.305,0.43,10.527,1.146c3.152,0.645,6.086,1.575,8.523,2.721l-36.523,24.421
				c-2.078-0.859-4.012-1.934-5.658-3.223c-2.076-1.576-3.795-3.51-4.941-5.801l-0.143-0.358l-0.359-2.148v-0.215V2746.354
				L8307.526,2746.354z M8309.962,2746.21v0.072v1.289l0.357,1.934c0.932,1.861,2.363,3.437,4.154,4.798
				c1.861,1.432,4.154,2.578,6.658,3.438l31.582-21.055c-2.004-0.788-4.152-1.433-6.586-1.934c-3.082-0.716-6.52-1.074-10.098-1.074
				c-0.215,0-0.504,0-0.719,0c-7.16,0.071-13.605,1.575-18.26,3.938C8312.683,2739.908,8309.962,2742.916,8309.962,2746.21z"/>
			<path fill="#996633" d="M8309.962,2746.282c0.072,2.435,1.217,4.583,3.15,6.302c2.148,2.005,5.229,3.509,8.879,4.654
				l-6.586,4.369c-1.648-1.003-3.08-2.077-4.297-3.366c-1.648-1.647-2.793-3.581-3.51-5.729l-0.072-0.357v-5.801l0,0l0,0
				L8309.962,2746.282z"/>
			<path fill="#FFFF00" d="M8239.421,2810.233c10.385-6.088,13.465-20.195,6.875-31.582c-6.588-11.315-20.41-15.684-30.793-9.597
				l-1.289,0.717l0,0l-3.939,2.649c-16.256,13.75-1.576,47.122,24.205,40.318l3.008-1.432L8239.421,2810.233z"/>
			<path fill="#996633" d="M8238.776,2809.159c4.871-2.865,8.094-7.592,9.238-12.962c1.219-5.443,0.359-11.459-2.721-16.83l0,0
				l-0.072-0.071c-3.15-5.442-7.949-9.167-13.248-10.813c-5.299-1.647-10.957-1.218-15.826,1.646l0,0l-1.289,0.717l-3.797,2.506
				c-4.367,3.725-6.373,8.952-6.373,14.323c-0.072,4.082,1.002,8.164,2.936,11.888s4.727,6.946,8.236,9.31
				c4.869,3.151,11.029,4.512,18.189,2.65l2.938-1.361L8238.776,2809.159z M8250.45,2796.698
				c-1.361,6.016-4.941,11.387-10.455,14.609l-1.863,1.074h-0.07l-3.08,1.432l-0.215,0.072c-7.877,2.148-14.824,0.572-20.268-3.008
				c-3.867-2.507-6.945-6.088-9.094-10.17c-2.078-4.081-3.223-8.593-3.223-13.033c0.07-6.087,2.363-12.031,7.305-16.185l0.143-0.144
				l3.365-2.22v-0.072l0.574-0.357l1.289-0.717l0,0c5.514-3.223,11.959-3.652,17.832-1.861c5.871,1.861,11.172,5.943,14.609,11.888
				l0,0l0,0l0.07,0.071C8250.808,2784.022,8251.739,2790.683,8250.45,2796.698z"/>
			<path fill="#A16E1E" d="M8239.421,2810.233c-12.531,7.232-25.064,0.501-31.008-9.955c-5.873-10.24-5.229-24.134,7.09-31.224
				c-13.535,7.09-15.469,19.265-11.746,29.147C8208.628,2811.021,8223.522,2820.188,8239.421,2810.233z"/>
			<path fill="#996633" d="M8238.562,2809.23l0.215-0.071l1.289,2.076c-1.861,1.146-3.652,2.077-5.441,2.722
				c-6.23,2.435-12.176,2.148-17.332,0.071c-5.084-2.005-9.309-5.801-12.246-10.455c-0.93-1.576-1.789-3.223-2.434-4.87
				c-0.43-1.289-0.859-2.578-1.146-3.867l-0.287-9.453c0.287-1.504,0.645-3.008,1.289-4.439c1.934-5.014,5.945-9.597,12.461-13.034
				l1.219,2.22c-5.443,3.151-8.451,7.663-9.598,12.533c-1.289,5.657-0.07,11.816,2.938,17.044l0,0l0.143,0.215l0,0
				c2.793,4.869,7.162,8.88,12.246,10.813S8232.761,2812.524,8238.562,2809.23L8238.562,2809.23z M8217.937,2811.594
				c-4.297-2.363-7.949-6.087-10.455-10.456l0,0l-0.143-0.215l0,0c-2.65-4.654-4.012-10.097-3.652-15.325
				c-0.789,4.082-0.215,8.308,1.289,12.175c0.572,1.575,1.289,3.079,2.219,4.512
				C8209.772,2806.366,8213.497,2809.731,8217.937,2811.594z"/>
			<path fill="#FFFF00" d="M8201.179,2784.452c4.512-1.862,8.666-2.005,11.459,0.144l0.645,0.572l0,0l2.076,2.006
				c4.727,7.018-2.721,22.486-13.105,31.939L8201.179,2784.452z"/>
			<path fill="#996633" d="M8201.108,2783.163c1.861-0.716,3.652-1.218,5.299-1.36c2.721-0.215,5.084,0.357,6.947,1.861l0.715,0.502
				l0.145,0.143l2.004,2.006l0.145,0.143c2.793,4.082,1.934,10.527-1.146,17.188c-2.865,6.087-7.52,12.39-12.963,17.116l-0.07-3.295
				c4.512-4.225,8.379-9.668,10.742-14.824c2.721-5.872,3.58-11.386,1.432-14.681l-1.861-1.861l-0.645-0.502
				c-1.361-1.074-3.152-1.504-5.229-1.289c-1.646,0.144-3.51,0.645-5.443,1.504L8201.108,2783.163z"/>
			<path fill="#996633" d="M8202.11,2816.249l0.357-0.358c1.219-1.218,2.436-2.578,3.582-4.011l0,0l0.285-0.357l0,0
				c3.797-4.87,6.66-10.241,7.879-15.11c1.074-4.512,0.572-8.522-2.293-10.814l0,0h-0.07l0.787-1.002l0.717-0.932h0.07l0,0
				l0.145,0.144l3.438,2.722l0.143,0.071c0.502,0.573,0.932,1.074,1.289,1.719c2.65,4.153,2.221,10.098-0.143,16.185
				c-2.363,5.872-6.518,11.96-11.387,16.758c-1.434,1.36-2.938,2.649-4.512,3.796L8202.11,2816.249z"/>
			<path fill="#CAA818" d="M8202.325,2822.407c1.146,1.576,1.791,3.223,1.791,4.941v0.932l0,0l-0.287,3.008
				c-0.287,0.787-0.645,1.575-1.146,2.291L8202.325,2822.407z"/>
			<path fill="#996633" d="M8202.253,2820.402c0.717,0.716,1.219,1.504,1.719,2.22c0.859,1.504,1.361,3.08,1.361,4.727v0.932
				l-0.215,0.143h0.215l-0.287,3.008l-0.07,0.215c-0.359,1.074-0.859,2.148-1.576,3.08c-0.215,0.215-0.43,0.501-0.645,0.787
				l-0.143-4.583l0.285-2.722v-0.859c0-0.787-0.215-1.575-0.5-2.291L8202.253,2820.402z"/>
			<path fill="#FFFF00" d="M8282.819,2783.378c-0.572-2.435-1.504-4.798-2.793-7.019c-6.66-11.387-20.41-15.684-30.865-9.668
				l-1.217,0.788l0,0l-3.939,2.578c-11.172,9.453-7.807,28.073,3.725,36.666L8282.819,2783.378z"/>
			<path fill="#996633" d="M8281.675,2784.094c-0.215-1.074-0.502-2.22-0.932-3.294c-0.502-1.289-1.074-2.578-1.791-3.796
				c-3.15-5.442-8.02-9.166-13.32-10.813c-5.227-1.647-10.957-1.218-15.826,1.575l-1.217,0.717l-3.867,2.578
				c-1.289,1.146-2.363,2.363-3.223,3.724c-2.65,3.938-3.51,8.809-2.938,13.679c0.574,4.869,2.65,9.668,5.945,13.534
				c1.289,1.504,2.721,2.865,4.297,4.011L8281.675,2784.094z M8283.034,2779.94c0.359,0.931,0.645,1.79,0.859,2.722l-37.238,24.85
				c-1.504-1.146-2.865-2.507-4.012-3.867c-3.58-4.226-5.871-9.524-6.516-14.896c-0.717-5.371,0.285-10.886,3.293-15.325
				c1.004-1.576,2.293-3.008,3.797-4.297l0.07-0.072l2.148-1.432l-0.143-0.072l2.006-1.146l1.289-0.788
				c5.514-3.15,11.887-3.652,17.832-1.79c5.801,1.862,11.172,5.944,14.609,11.888
				C8281.89,2777.147,8282.534,2778.508,8283.034,2779.94z"/>
			<path fill="#996633" d="M8246.511,2801.997c1.074,1.218,2.221,2.292,3.438,3.223l-4.727,3.223
				c-1.719-1.36-3.293-2.936-4.654-4.654c-1.791-2.221-3.223-4.727-4.225-7.448c-2.148-5.586-2.508-11.888-0.215-17.76
				c2.004-4.941,5.943-9.525,12.461-12.963l1.217,2.148c-5.443,3.151-8.451,7.663-9.525,12.604
				c-1.289,5.586-0.07,11.816,2.865,16.973C8244.147,2799.062,8245.222,2800.637,8246.511,2801.997z"/>
			<path fill="#CAA818" d="M8279.884,2785.312c2.65-2.292,5.299-4.011,7.877-5.228L8279.884,2785.312z"/>
			<path fill="#996633" d="M8274.44,2788.893c2.793-3.08,5.73-5.658,8.666-7.592c3.08-2.005,6.088-3.438,8.881-4.082
				L8274.44,2788.893z"/>
			<path fill="#CAA818" d="M8202.11,2816.177c8.951-10.599,20.41-15.611,26.068-11.243l0.645,0.573l0,0l2.076,2.005
				c1.646,2.435,1.791,5.944,0.859,9.883l-29.004,19.336L8202.11,2816.177z"/>
			<path fill="#996633" d="M8202.11,2814.387c4.225-4.87,8.951-8.45,13.393-10.456c5.227-2.363,10.168-2.506,13.391,0l0.717,0.573
				l0.143,0.071l2.006,2.077l0.143,0.144c1.074,1.575,1.576,3.509,1.648,5.657c0.07,1.218-0.072,2.578-0.287,3.938l-30.508,20.339
				l0,0l27.428-18.262c0.645-2.148,1.004-4.153,0.932-5.944c-0.072-1.646-0.43-3.079-1.217-4.225l-1.863-1.934l-0.645-0.502
				c-2.506-1.934-6.445-1.646-10.885,0.358c-4.654,2.077-9.668,6.087-14.037,11.53l-0.285,0.286L8202.11,2814.387z"/>
			<path fill="#A16E1E" d="M8230.612,2818.183c1.576-5.515,1.146-10.456-2.434-13.249l3.58,2.864
				c1.934,2.006,2.793,4.655,2.793,7.734L8230.612,2818.183z"/>
			<path fill="#996633" d="M8228.966,2819.257c1.002-2.937,1.504-5.729,1.217-8.164c-0.285-2.077-1.145-3.939-2.793-5.229l0,0l0,0
				l1.504-1.934l0.145,0.144l3.508,2.793l0.145,0.071c1.217,1.289,2.076,2.793,2.578,4.512c0.285,1.003,0.43,2.148,0.5,3.295
				L8228.966,2819.257z M8232.69,2811.522c0.143,1.79-0.072,3.652-0.502,5.586l1.146-0.717c0.07-1.504-0.072-2.936-0.43-4.225
				C8232.833,2811.952,8232.761,2811.737,8232.69,2811.522z"/>
			<path fill="#CAA818" d="M8255.821,2801.353c-6.303-3.007-13.607-3.007-19.766,0.502l-1.289,0.787l0,0l-3.867,2.65
				c-5.229,4.368-7.305,10.813-6.803,17.259L8255.821,2801.353z"/>
			<path fill="#996633" d="M8254.675,2802.141c-2.721-1.146-5.514-1.719-8.307-1.719c-3.365-0.071-6.66,0.788-9.668,2.507
				l-1.289,0.787l-3.795,2.507c-2.508,2.148-4.227,4.727-5.229,7.591c-0.859,2.507-1.217,5.229-1.146,7.949L8254.675,2802.141z
				 M8246.368,2797.916c3.652,0,7.305,0.931,10.67,2.649l-34.16,22.773c-0.357-3.581,0-7.09,1.219-10.313
				c1.145-3.295,3.078-6.303,5.943-8.737l0.143-0.071l3.939-2.578l0.072-0.072l1.217-0.716
				C8238.849,2798.847,8242.573,2797.916,8246.368,2797.916z"/>
			<path fill="#A16E1E" d="M8225.456,2821.62c-0.5-7.52,2.578-15.039,10.6-19.766c-10.17,5.371-13.822,13.606-13.393,21.627
				L8225.456,2821.62z"/>
			<path fill="#996633" d="M8224.239,2822.407c-0.072-1.289-0.143-2.649,0-3.938c-0.287,1.433-0.357,2.793-0.357,4.153
				L8224.239,2822.407z M8228.608,2811.308c-1.434,2.936-2.078,6.23-1.934,9.524l-5.156,3.438c-0.43-4.512,0.43-9.095,2.863-13.249
				c2.221-3.938,5.801-7.447,11.102-10.24l1.217,2.148C8232.833,2805.148,8230.255,2808.085,8228.608,2811.308z"/>
			<path fill="#FFFF00" d="M8342.905,2743.274c-3.652-0.072-7.305,0.787-10.672,2.721l-1.289,0.717l0,0l-3.867,2.649
				c-2.723,2.292-4.582,5.156-5.73,8.235L8342.905,2743.274z"/>
			<path fill="#996633" d="M8340.972,2744.563c-0.789,0-1.578,0.143-2.363,0.286c-2.008,0.43-3.941,1.146-5.73,2.22l-1.289,0.717
				l-3.797,2.506c-1.43,1.289-2.648,2.722-3.578,4.226c-0.359,0.572-0.719,1.217-1.004,1.861L8340.972,2744.563z M8338.104,2742.415
				c2.148-0.43,4.371-0.502,6.52-0.287l-24.852,16.543c0.5-1.934,1.289-3.724,2.363-5.442c1.074-1.79,2.434-3.366,4.082-4.798
				l0.145-0.144l3.363-2.22v-0.072l0.645-0.357l1.219-0.717C8333.667,2743.704,8335.815,2742.916,8338.104,2742.415z"/>
			<path fill="#A16E1E" d="M8322.995,2756.522c1.574-4.082,4.512-7.806,9.238-10.527c-6.23,3.223-9.953,7.591-11.887,12.317
				L8322.995,2756.522z"/>
			<path fill="#996633" d="M8326.933,2752.083c-0.859,1.002-1.504,2.076-2.074,3.222l-6.23,4.154
				c0.93-2.865,2.434-5.586,4.582-8.093c2.148-2.435,4.941-4.654,8.449-6.517l1.219,2.22
				C8330.37,2748.502,8328.437,2750.221,8326.933,2752.083z"/>
			<path fill="#FFFF00" d="M8201.466,2794.264c1.719-0.215,3.438-0.287,5.229-0.287c15.182,0.072,27.57,6.445,27.643,14.18v0.931
				l0,0l-0.357,3.008c-2.436,7.878-17.689,11.96-31.654,10.742L8201.466,2794.264z"/>
			<path fill="#996633" d="M8201.394,2792.975c0.43,0,0.789-0.072,1.146-0.072c1.361-0.071,2.721-0.143,4.154-0.143
				c7.805,0.071,14.895,1.719,20.051,4.368c5.371,2.721,8.738,6.66,8.809,11.028v0.931v2.006l-0.215-0.144l-0.143,1.289v0.215
				c-0.572,1.862-1.791,3.509-3.365,4.941l-4.082,2.722c-1.648,0.787-3.438,1.504-5.371,2.076
				c-5.873,1.791-13.105,2.507-19.98,1.862l-0.072-2.507c6.66,0.645,13.607,0,19.336-1.719c5.658-1.719,9.955-4.439,11.1-7.949
				l0.287-2.864v-0.859c0-3.366-2.865-6.517-7.447-8.88c-4.799-2.435-11.531-4.011-18.906-4.011c-1.289,0-2.65,0-3.939,0.072
				c-0.43,0.071-0.859,0.071-1.289,0.143L8201.394,2792.975z"/>
			<path fill="#A16E1E" d="M8202.325,2821.835c1.646,0.143,3.365,0.215,5.014,0.215c13.605,0,27.07-4.799,26.998-13.894v4.87
				c-0.143,1.217-0.502,2.363-1.074,3.365l-12.748,8.522c-5.514,1.575-11.887,2.148-18.047,1.647L8202.325,2821.835z"/>
			<path fill="#996633" d="M8202.253,2820.617c0.43,0,0.789,0,1.219,0.071c1.289,0.072,2.578,0.144,3.867,0.144h0.5
				c6.518-0.071,12.963-1.289,17.762-3.509c4.512-2.148,7.447-5.156,7.447-9.096v-0.071l0,0l0,0h2.506v4.87v0.215
				c-0.07,0.645-0.215,1.289-0.43,1.934l-17.688,11.744c-1.219,0.287-2.508,0.502-3.867,0.645c-3.582,0.43-7.377,0.573-11.102,0.215
				l-0.07-2.435c3.652,0.286,7.375,0.215,10.885-0.215c4.297-0.573,8.307-1.575,11.674-3.151l5.156-3.509
				c0.859-0.788,1.504-1.647,2.004-2.578c-1.432,1.433-3.293,2.649-5.514,3.652c-5.084,2.435-11.889,3.652-18.764,3.724l0,0h-0.5
				l0,0c-1.361,0-2.723,0-4.012-0.143c-0.357,0-0.645,0-1.002-0.072L8202.253,2820.617z"/>
			<path fill="#996633" d="M8202.253,2818.827c0.574,1.504,0.859,3.223,0.789,5.084c-0.072,1.218-0.215,2.507-0.574,3.867
				L8202.253,2818.827z"/>
			<path fill="#A16E1E" d="M8202.253,2819.399c2.363,3.51,2.221,8.522,0.43,13.822L8202.253,2819.399z"/>
			<path fill="#996633" d="M8202.183,2817.395c2.363,2.435,3.223,5.801,3.008,9.524c-0.145,3.008-1.004,6.23-2.436,9.453
				l-0.215-7.591c0.072-0.716,0.143-1.36,0.215-2.005c0.072-1.504-0.072-2.937-0.43-4.226L8202.183,2817.395z"/>
			<path fill="#FFFF00" d="M8260.69,2798.131c-6.516-3.366-14.25-3.581-20.625,0.143l-1.289,0.717l0,0l-3.938,2.649
				c-5.443,4.654-7.449,11.458-6.732,18.189L8260.69,2798.131z"/>
			<path fill="#996633" d="M8259.474,2798.918c-2.793-1.36-5.729-2.076-8.736-2.148c-3.438-0.071-6.947,0.717-10.098,2.578
				l-1.219,0.716l-3.795,2.578c-2.65,2.221-4.369,4.941-5.371,7.949c-0.859,2.65-1.217,5.515-0.932,8.451L8259.474,2798.918z
				 M8250.808,2794.335c3.797,0.071,7.592,1.146,11.029,3.008l-34.877,23.274c-0.43-3.724-0.215-7.376,0.932-10.813
				s3.15-6.589,6.158-9.096l0.072-0.071l3.939-2.649l0.07-0.071l1.289-0.717C8242.931,2795.123,8246.87,2794.191,8250.808,2794.335z
				"/>
			<path fill="#996633" d="M8232.476,2808.013c-1.504,3.151-2.078,6.66-1.791,10.098l-5.084,3.438
				c-0.574-4.654,0.143-9.381,2.506-13.75c2.221-4.082,5.873-7.734,11.387-10.599l1.146,2.148
				C8236.7,2801.64,8234.05,2804.647,8232.476,2808.013L8232.476,2808.013z"/>
			<path fill="#FFFF00" d="M8202.325,2823.052c4.941-2.363,11.529-3.724,18.764-3.724c2.434,0,4.797,0.215,7.018,0.501
				l-25.352,16.901L8202.325,2823.052z"/>
			<path fill="#996633" d="M8202.325,2821.691c1.934-0.859,4.154-1.647,6.518-2.22c3.723-0.859,7.877-1.361,12.246-1.361
				c1.646,0,3.15,0.072,4.582,0.215c1.361,0.072,2.723,0.287,4.012,0.502l-26.928,17.903l0,0l23.775-15.827
				c-0.357-0.071-0.715-0.071-1.074-0.143c-1.432-0.072-2.863-0.144-4.367-0.215c-4.154,0-8.094,0.501-11.674,1.36
				c-2.578,0.645-5.014,1.504-7.018,2.507L8202.325,2821.691z"/>
		</g>
		<g>
			<path d="M8204.831,2902.688c-38.457,9.31-135.637,17.474-191.209,1.504l-443.436-26.282c-17.617,8.594-37.67,4.941-57.293,3.867
				l-41.965-2.292c-26.711-10.169-54.068-29.792-74.121-49.772c-47.838-47.767-68.82-109.283-66.816-176.457
				c2.006-66.1,24.35-127.188,71.688-174.166c19.766-19.622,45.977-38.528,72.328-48.482l716.645,14.609L8204.831,2902.688z"/>
			<path fill="#CCCCCC" d="M8115.601,2458.535c0,0-138.574,47.91-169.797,173.88c-31.225,126.041,46.549,211.979,84.504,234.895
				c37.883,22.917,52.207,28.288,52.207,28.288c-121.242-3.581-188.488-106.061-178.463-225.228
				c13.248-157.121,141.58-202.453,141.58-202.453l-241.34-4.727l-22.484,10.813c-28.504,13.607-76.127,23.776-94.461,15.827
				c-13.605-5.872-10.098-21.413-7.375-29.004l-182.332-3.509c0,0-113.436,65.526-118.52,197.44
				c-5.086,131.842,141.15,212.551,141.15,212.551l-46.189-2.506c0,0-133.992-50.847-129.193-211.119
				c4.727-160.201,131.697-208.183,131.697-208.183L8115.601,2458.535z"/>
			<path fill="#FFFFFF" d="M8070.054,2480.378c-11.746,6.804-24.777,15.325-37.957,25.638l-47.049-0.43
				c13.32-11.529,26.139-20.052,36.451-25.996L8070.054,2480.378z M7778.226,2475.651c-28.789,12.819-73.262,21.843-90.879,14.18
				c-7.59-3.294-9.883-9.597-9.953-15.827L7778.226,2475.651z M7478.304,2470.781c-9.094,7.09-20.48,16.901-32.297,29.505
				l-43.326-0.43c10.885-12.174,21.986-21.985,32.225-29.791L7478.304,2470.781z"/>
			<path fill="#999999" d="M7959.696,2783.593c20.338,42.825,50.846,71.829,70.611,83.717
				c37.883,22.917,52.207,28.288,52.207,28.288c-80.781-2.363-137.57-48.698-163.496-114.583
				C7935.706,2782.089,7950.028,2783.02,7959.696,2783.593z M7405.116,2754.947c40.891,71.327,115.154,112.362,115.154,112.362
				l-46.189-2.506c0,0-76.342-29.004-111.719-112.148C7375.181,2753.371,7389.647,2754.159,7405.116,2754.947z"/>
			<path fill="#666666" d="M7502.438,2462.832l170.873,3.51c-0.574,2.363-1.576,7.662-0.717,13.248l-165.645-3.724
				L7502.438,2462.832z"/>
			<path fill="#999999" d="M7506.95,2853.488c-105.988-77.63-154.9-183.261-86.01-307.583
				c23.348-42.038,69.824-76.126,78.348-82.142l4.439,12.962c-11.889,8.45-99.973,74.121-101.619,183.69
				c-1.361,92.168,69.035,160.058,127.543,203.886C7521.417,2862.727,7513.683,2858.43,7506.95,2853.488z"/>
			<path fill="#666666" d="M7681.833,2495.561c31.51,12.532,90.877-4.584,122.746-25.065l-0.357,13.679
				c-25.637,19.192-63.379,30.65-93.527,30.006C7696.585,2513.894,7687.991,2508.88,7681.833,2495.561z"/>
			<path fill="#A0744C" d="M7538.89,2861.151l451.457,26.783c0,0-87.154-42.396-99.473-165.214v-0.215
				c-2.004-14.968-2.578-30.794-1.359-47.552c10.025-136.354,92.311-181.972,92.311-181.972l-172.018-3.223
				c0,0-31.082,26.927-83.789,31.366c-52.779,4.44-53.137-35.735-53.137-35.735l-162.064-4.153c0,0-93.313,64.596-96.678,179.537
				C7410.558,2779.152,7538.89,2861.151,7538.89,2861.151z"/>
			<path fill="#906337" d="M7538.89,2861.151l451.457,26.783c0,0-59.225-28.86-86.939-107.851
				c-36.666-2.148-80.279-4.512-111.146-5.3c-63.449-1.719-191.424-12.031-299.488-16.042c-18.262-0.645-36.094-1.36-53.066-2.148
				C7476.229,2821.118,7538.89,2861.151,7538.89,2861.151z"/>
			<path fill="#663300" d="M7939.573,2844.823c-40.033-4.297-93.672-9.167-125.684-8.952c-28.719,0.144-56.219-2.292-82.215-4.583
				c-23.773-2.077-46.332-4.082-67.889-3.867c-31.295,0.215-118.809-0.859-168.652-1.576c4.439,4.154,8.736,8.021,12.818,11.53
				c50.918,0.716,127.26,1.647,155.906,1.433c20.91-0.215,43.254,1.79,66.887,3.867c26.141,2.291,53.855,4.727,83.215,4.583
				c35.02-0.215,96.609,5.801,137,10.241C7947.235,2853.632,7943.368,2849.406,7939.573,2844.823z M7909.28,2795.123
				c-65.957-3.151-175.672-3.51-175.957-3.51c-3.152,0-5.73,2.507-5.73,5.658c-0.07,3.15,2.508,5.729,5.66,5.729
				c177.961,0.645,80.994-1.647,181.541,3.796C7912.86,2803.071,7911.069,2799.133,7909.28,2795.123z M7895.888,2753.801
				c-66.244-2.649-297.486-12.245-357.213-19.908c-58.508-7.448-101.906-11.101-114.867-12.103c1.43,4.01,2.934,7.949,4.512,11.816
				c17.258,1.432,57.148,5.013,108.924,11.602c61.158,7.806,299.992,17.688,361.51,20.123
				C7897.749,2761.607,7896.747,2757.74,7895.888,2753.801z M7888.94,2685.911c0.145-3.652,0.287-7.305,0.574-10.957
				c0-0.144,0-0.287,0-0.43c-17.977-1.647-72.26-6.088-129.766-7.807c-33.801-1.002-65.025-3.365-97.539-5.872
				c-36.094-2.722-73.762-5.586-117.375-6.875c-67.102-2.005-113.652-7.376-129.621-9.381c-0.43,3.724-0.717,7.519-0.932,11.386
				c16.756,2.148,63.592,7.377,130.193,9.382c44.115,1.36,81.283,4.153,116.875,6.875c33.086,2.507,64.668,4.941,98.039,5.872
				C7817.397,2679.896,7871.538,2684.335,7888.94,2685.911z M7910.067,2584.219c1.576-3.867,3.223-7.591,4.941-11.172
				c-16.543-0.788-64.525-3.294-88.945-6.804c-5.443-0.787-12.604-2.005-21.127-3.438c-40.316-6.875-110.93-18.834-159.555-13.606
				c-48.412,5.156-155.117-8.594-187.773-13.105c-2.363,3.366-4.797,6.804-7.16,10.527c23.633,3.294,143.012,19.622,196.078,13.894
				c47.123-5.085,116.73,6.731,156.477,13.535c8.881,1.504,16.258,2.721,21.414,3.509
				C7847.19,2580.853,7890.374,2583.216,7910.067,2584.219z M7942.151,2529.362c3.508-4.369,6.875-8.236,10.168-11.674
				c-24.992,0.932-51.203,0.072-51.348,0c-3.078-0.071-5.729,2.363-5.871,5.515c-0.072,3.151,2.363,5.801,5.514,5.872
				C7900.687,2529.075,7920.38,2529.792,7942.151,2529.362z M7489.905,2498.926c-3.508,3.366-7.305,7.161-11.313,11.458
				c60.941-0.787,98.969,5.371,99.041,5.371c3.15,0.502,6.016-1.646,6.518-4.727c0.5-3.079-1.648-6.016-4.727-6.517
				C7579.28,2504.512,7545.05,2498.926,7489.905,2498.926z M7425.812,2597.038c-1.289,3.724-2.508,7.591-3.652,11.529
				c11.457-0.573,38.602-1.218,70.039,3.509c42.754,6.518,90.162,6.445,90.305,6.445c3.152,0,5.658-2.506,5.658-5.657
				s-2.506-5.729-5.658-5.729c-0.143,0-46.477,0-88.586-6.302C7464.913,2596.465,7439.417,2596.465,7425.812,2597.038z
				 M7445.003,2765.475c2.652,4.225,5.301,8.307,8.094,12.246c78.418,7.018,171.66,4.439,171.945,4.439
				c3.152-0.071,5.658-2.721,5.586-5.872c-0.07-3.079-2.721-5.586-5.871-5.515C7624.47,2770.773,7524.28,2773.495,7445.003,2765.475
				z M7839.384,2552.708c-3.15,0.072-5.801-2.435-5.873-5.586c-0.07-3.15,2.436-5.729,5.586-5.801
				c0.072,0,30.438-0.787,55.789-0.787c3.15,0.071,5.729,2.578,5.729,5.729c0,3.151-2.578,5.729-5.729,5.658
				C7870.179,2551.921,7839.456,2552.708,7839.384,2552.708z M7676.534,2810.591c-3.152,0-5.658-2.578-5.73-5.729
				c0-3.151,2.578-5.657,5.73-5.657l32.727-0.215c3.152,0,5.73,2.577,5.73,5.729s-2.578,5.657-5.73,5.657L7676.534,2810.591z
				 M7611.722,2625.469c3.152,0.071,5.586,2.721,5.516,5.872c-0.072,3.151-2.723,5.657-5.873,5.586
				c-0.143,0-41.68-1.289-59.439-2.864c-3.152-0.287-5.443-3.008-5.156-6.159c0.285-3.151,3.008-5.442,6.158-5.156
				C7569.972,2624.251,7611.579,2625.469,7611.722,2625.469z M7748.862,2627.617c3.082-0.502,6.016,1.575,6.59,4.654
				c0.5,3.08-1.504,6.016-4.656,6.589c0,0-18.047,3.366-49.77-0.215c-3.152-0.358-5.371-3.151-5.014-6.302
				c0.357-3.151,3.15-5.371,6.303-5.085C7732.464,2630.696,7748.792,2627.617,7748.862,2627.617z M7778.37,2592.097
				c-3.082-0.144-5.516-2.865-5.371-5.944c0.141-3.151,2.793-5.586,5.941-5.442c0.074,0,20.195,0.859,48.27,6.016
				c18.477,3.438,39.602,2.291,50.703,1.719c5.943-0.358,9.668-0.502,11.672,1.002c3.08,2.292,3.51,5.014,1.146,8.093
				c-1.432,2.005-9.023,2.148-12.174,2.292c-11.602,0.645-33.66,1.79-53.354-1.862
				C7797.562,2592.884,7778.44,2592.097,7778.37,2592.097z"/>
			<path fill="#663300" d="M7939.573,2844.823c-40.033-4.297-93.672-9.167-125.684-8.952c-28.719,0.144-56.219-2.292-82.215-4.583
				c-23.773-2.077-46.332-4.082-67.889-3.867c-31.295,0.215-118.809-0.859-168.652-1.576c4.439,4.154,8.736,8.021,12.818,11.53
				c50.918,0.716,127.26,1.647,155.906,1.433c20.91-0.215,43.254,1.79,66.887,3.867c26.141,2.291,53.855,4.727,83.215,4.583
				c35.02-0.215,96.609,5.801,137,10.241C7947.235,2853.632,7943.368,2849.406,7939.573,2844.823z M7909.28,2795.123
				c-65.957-3.151-175.672-3.51-175.957-3.51c-3.152,0-5.73,2.507-5.73,5.658c-0.07,3.15,2.508,5.729,5.66,5.729
				c177.961,0.645,80.994-1.647,181.541,3.796C7912.86,2803.071,7911.069,2799.133,7909.28,2795.123z M7445.003,2765.475
				c2.652,4.225,5.301,8.307,8.094,12.246c78.418,7.018,171.66,4.439,171.945,4.439c3.152-0.071,5.658-2.721,5.586-5.872
				c-0.07-3.079-2.721-5.586-5.871-5.515C7624.47,2770.773,7524.28,2773.495,7445.003,2765.475z M7676.534,2810.591
				c-3.152,0-5.658-2.578-5.73-5.729c0-3.151,2.578-5.657,5.73-5.657l32.727-0.215c3.152,0,5.73,2.577,5.73,5.729
				s-2.578,5.657-5.73,5.657L7676.534,2810.591z"/>
			<path d="M7668.942,2367.013c2.006-7.52,7.949-13.249,16.686-13.393c4.082-0.071,8.094,1.218,11.244,3.652
				c2.148-1.432,4.439-2.649,6.66-3.438c9.74-3.58,18.119,0.287,23.275,9.096c3.938,6.731,6.301,14.537,5.371,22.344
				c-0.719,6.66-3.867,12.891-9.313,16.9c-2.504,1.791-5.369,3.008-8.377,3.581c-0.645,0.144-1.861,0.43-2.221,1.003
				c-1.432,2.649,2.508,13.606,3.223,16.614c1.863,7.591,4.082,15.325,6.23,22.845c1.359,4.799,2.723,9.597,4.082,14.323
				c2.508-2.077,3.223-4.87,3.223-4.87l18.691-0.358c0,0-15.754,6.374-17.402,12.819c-3.867,16.042-36.809,12.676-26.496,1.36
				c-3.582-13.033-7.162-25.995-10.6-39.029c-0.645-2.649-3.939-14.251-7.232-15.039c-0.859-0.215-2.363,0.501-3.08,0.859
				c-6.947,3.938-16.256,2.578-22.846-1.433c-9.238-5.657-12.961-15.611-12.389-26.067c0.572-9.812,4.869-18.405,14.896-20.983
				C7664.503,2367.299,7666.722,2367.013,7668.942,2367.013z"/>
			<path fill="#A16E1E" d="M7673.884,2373.386c0,0-19.336-5.442-20.482,15.684c-1.217,21.127,17.977,27.143,26.785,22.272
				c8.736-4.87,14.25,1.003,18.619,17.688c3.51,13.464,9.525,35.306,11.744,43.398c3.008,0.286,8.021,0.215,11.746-3.366
				c-2.723-9.524-10.6-37.239-12.391-44.329c-2.076-8.665-8.594-22.2,3.438-24.563c12.102-2.363,18.262-17.761,8.523-34.375
				c-9.668-16.543-25.639-0.716-25.639-0.716C7690.569,2355.482,7673.597,2357.56,7673.884,2373.386z M7673.382,2402.604
				c-3.365-0.286-6.445-4.512-6.875-9.596c-0.357-3.151,0.43-5.944,1.863-7.592c3.365,0.287,6.445,4.512,6.875,9.597
				C7675.603,2398.165,7674.815,2400.958,7673.382,2402.604z M7706.468,2372.526c3.367,0.215,6.375,4.44,6.875,9.525
				c0.359,3.15-0.43,5.943-1.861,7.591c-3.365-0.215-6.445-4.44-6.947-9.524C7704.249,2376.896,7705.036,2374.174,7706.468,2372.526
				z"/>
			<path fill="#FFFF00" d="M7672.522,2412.917c2.865,0.144,5.516-0.43,7.664-1.575c13.32-7.448,19.766,7.806,22.486,18.262
				c3.438,13.177,9.311,34.375,11.602,42.896c2.65-0.286,5.584-1.146,8.021-3.438c-2.723-9.524-10.6-37.239-12.391-44.329
				c-2.076-8.665-8.594-22.2,3.438-24.563c12.102-2.363,18.262-17.761,8.523-34.375c-2.293-3.938-4.941-6.016-7.664-6.946
				c-6.803,0.143-11.959,4.869-16.613,9.166l-1.361-2.936c-1.361-2.363-3.438-4.011-5.729-4.941
				c-1.863-0.717-4.154-0.144-6.23,1.002c-4.656,2.65-6.59,7.592-6.518,12.819c0,0-19.264-5.371-20.482,15.684
				C7656.481,2403.464,7664.431,2410.841,7672.522,2412.917z M7673.382,2402.604c-3.365-0.286-6.445-4.512-6.875-9.596
				c-0.357-3.151,0.43-5.944,1.863-7.592c3.365,0.287,6.445,4.512,6.875,9.597
				C7675.603,2398.165,7674.815,2400.958,7673.382,2402.604z M7706.468,2372.526c3.367,0.215,6.375,4.44,6.875,9.525
				c0.359,3.15-0.43,5.943-1.861,7.591c-3.365-0.215-6.445-4.44-6.947-9.524C7704.249,2376.896,7705.036,2374.174,7706.468,2372.526
				z"/>
			<path fill="#A16E1E" d="M7671.808,2383.842c3.438,0.071,6.588,4.368,7.09,9.524c0.5,5.229-1.863,9.311-5.301,9.238
				c-0.07,0-0.143,0-0.215,0c1.434-1.646,2.221-4.439,1.863-7.591c-0.43-5.085-3.51-9.31-6.875-9.597l-0.072,0.072
				C7669.229,2384.415,7670.446,2383.771,7671.808,2383.842z M7709.905,2370.88c3.367,0.071,6.59,4.368,7.09,9.596
				c0.502,5.156-1.861,9.311-5.299,9.167c-0.072,0-0.143,0-0.215,0c1.432-1.647,2.221-4.44,1.861-7.591
				c-0.5-5.085-3.508-9.311-6.875-9.525h-0.07C7707.327,2371.452,7708.546,2370.808,7709.905,2370.88z"/>
			<path d="M7629.913,2487.038l-2.793,1.36c-6.23,3.008-14.395,4.154-21.27,3.151c-10.527-1.433-18.477-7.161-24.207-14.968
				c-16.828,2.578-33.371-6.016-37.238-23.848c-5.73-26.783,13.82-51.347,41.535-51.347h6.805
				c9.953-8.021,22.701-12.748,35.592-10.886c3.58,0.573,7.018,1.575,10.24,3.079l2.723,1.218c0.645-0.43,1.289-0.931,2.004-1.36
				l4.297-2.793c-0.07,9.811,3.797,18.834,12.461,24.205c6.59,4.011,15.898,5.371,22.846,1.433c0.717-0.358,2.221-1.074,3.08-0.859
				c3.293,0.788,6.588,12.39,7.232,15.039c1.576,5.872,3.15,11.745,4.727,17.688c-3.295,0-17.76-1.289-18.906,1.218
				c-1.646,3.438-3.58,9.381-4.297,11.314c-4.727,12.963-11.529,23.92-25.639,28.073c-6.016,1.719-12.316,1.504-18.047-1.146
				C7630.7,2487.468,7630.271,2487.253,7629.913,2487.038z"/>
			<path fill="#EEEAFF" d="M7687.276,2434.975c-4.584-1.647-8.451-2.292-11.459-1.647c-16.328,3.867-11.172,35.378-30.865,41.179
				c-19.695,5.729-22.846-35.735-5.443-57.722c3.652-4.583,7.662-8.164,11.816-10.885c2.076,3.509,4.941,6.588,8.736,8.951
				c6.59,4.011,15.898,5.371,22.846,1.433c0.717-0.358,2.221-1.074,3.08-0.859c3.293,0.788,6.588,12.39,7.232,15.039
				c0.43,1.575,0.859,3.079,1.217,4.655L7687.276,2434.975z M7585.94,2416.212c-11.602,11.816-13.605,31.295-5.084,45.403
				c0,0-18.477,4.01-21.914-11.96C7555.505,2433.614,7566.104,2416.212,7585.94,2416.212z M7632.347,2407.045
				c0,0-13.965,17.188-15.684,34.017c-1.719,16.901,4.012,33.945,4.012,33.945s-22.846,11.101-32.871-18.763
				C7577.776,2426.31,7610.075,2396.804,7632.347,2407.045z"/>
			<path fill="#CCC1F4" d="M7687.276,2434.975c-4.584-1.647-8.451-2.292-11.459-1.647c-16.328,3.867-11.172,35.378-30.865,41.179
				c-11.674,3.365-17.475-9.668-16.758-25.495c2.506,3.008,6.23,4.368,11.887,2.006c17.117-7.162,21.629-36.523,46.621-32.155
				c0.932,0.215,1.791,0.43,2.723,0.645c1.861,3.867,3.365,9.238,3.795,10.957c0.43,1.575,0.859,3.079,1.217,4.655
				L7687.276,2434.975z M7558.37,2445.072c1.861,0.358,3.867,0.573,5.729,0.43c4.799-0.286,8.666-2.005,11.529-3.867
				c-0.143,7.019,1.576,13.965,5.229,19.98c0,0-18.477,4.01-21.914-11.96C7558.585,2448.151,7558.44,2446.576,7558.37,2445.072z
				 M7586.085,2448.08c3.078,5.084,8.234,9.668,16.613,8.951c6.805-0.572,10.957-4.654,13.607-9.381
				c0.072,14.466,4.369,27.356,4.369,27.356s-22.846,11.101-32.871-18.763C7586.872,2453.522,7586.3,2450.802,7586.085,2448.08z"/>
			<path fill="#B3B3B3" d="M8175.972,2463.477c-310.734,25.28-288.176,467.928,13.605,426.32L8175.972,2463.477z M8013.192,2793.404
				c-60.658-93.887-29.791-271.275,139.646-298.847l16.186,374.758C8103.854,2876.477,8049.069,2848.905,8013.192,2793.404z"/>
			<polygon fill="#666666" points="8138.659,2504.583 8153.771,2861.223 8162.437,2861.509 8147.97,2502.292 			"/>
			<path fill="#666666" d="M7810.093,2469.135l204.531,4.153c-7.52,3.079-17.115,9.023-23.918,13.606l-180.971-4.153
				L7810.093,2469.135z"/>
			<path fill="#A0744C" d="M8130.782,2506.374l15.182,354.634c0,0-81.926-7.949-118.734-64.668
				c-36.738-56.79-45.262-110.429-25.781-171.803C8020.999,2563.164,8087.601,2515.397,8130.782,2506.374z"/>
			<path fill="#663300" d="M8087.097,2844.608c-2.934-1.361-5.941-2.793-8.949-4.297c0.645-24.492,0.43-65.813-4.801-117.662
				c-5.801-57.65-9.023-136.067-10.453-181.471c2.934-2.292,5.871-4.512,8.879-6.66c1.359,43.971,4.582,127.043,10.672,187.199
				C8087.956,2776.933,8087.886,2820.402,8087.097,2844.608z M8057.952,2827.993c-3.223-2.291-6.375-4.798-9.383-7.447
				c-2.004-52.493-6.375-155.332-6.375-155.689c-0.141-2.507,1.863-4.655,4.371-4.727c2.504-0.144,4.652,1.861,4.727,4.368
				C8051.292,2664.856,8056.159,2778.365,8057.952,2827.993z M8020.64,2585.938c2.863-4.153,5.801-8.093,8.953-12.031
				c0.215,40.677,2.578,62.161,2.578,62.305c0.215,2.506-1.648,4.727-4.156,4.941c-2.504,0.215-4.727-1.647-4.941-4.154
				C8023.073,2636.855,8021.569,2624.18,8020.64,2585.938z M8085.808,2525.28c3.082-1.862,6.16-3.581,9.238-5.229
				c-0.43,20.268,0.574,38.744,0.574,38.815c0.143,2.507-1.789,4.655-4.297,4.798c-2.578,0.144-4.727-1.79-4.797-4.368
				C8086.526,2559.226,8085.667,2543.685,8085.808,2525.28z M8117.819,2736.9c-0.143-2.507,1.791-4.655,4.297-4.798
				c2.578-0.072,4.656,1.861,4.799,4.368c0,0.144,2.363,52.708,3.795,84.146c0.072,2.578-1.861,4.655-4.367,4.798
				c-2.508,0.072-4.656-1.861-4.799-4.368C8120.255,2790.683,8117.819,2737.044,8117.819,2736.9z"/>
		</g>
		<path d="M8085.808,1821.455l-0.07-8.737c-0.359-36.953,3.152-75.839,8.809-112.22c9.738-63.021,27.857-127.545,58.795-183.547
			c18.906-34.16,43.326-74.837,70.898-102.767c7.592-7.734,16.9-15.827,26.783-20.41c9.813-4.512,21.127-5.586,30.223,1.433
			c8.951,6.946,11.027,18.189,9.596,28.86c-5.514,38.887-6.445,76.483-4.584,115.657c1.576,32.226,4.871,64.524,4.297,96.75
			c-1.217,77.773-28.215,136.569-72.975,199.304l-1.361,1.861C8188.003,1828.831,8140.665,1822.673,8085.808,1821.455z"/>
		<path fill="#EEEAFF" d="M8102.495,1812.575c-0.215-24.851,1.432-171.302,65.598-287.532
			c70.326-127.401,110.215-132.844,106.063-103.339c-24.707,175.956,47.266,239.836-70.254,404.263
			c-14.824-2.649-29.434-4.941-43.543-6.875c-5.371-160.846,80.424-291.542,80.424-291.542
			c-79.135,87.871-93.6,216.204-91.523,290.038c-16.4-2.077-32.084-3.724-46.693-5.013H8102.495z"/>
		<path fill="#FFFFFF" d="M8168.38,1524.471c70.182-126.829,109.928-132.2,105.775-102.767
			c-15.111,107.779,6.016,173.521-2.363,246.066c0.07-27.142-2.221-61.517-10.17-99.759c-19.193-91.595,6.588-148.17-20.553-127.76
			C8226.53,1451.138,8194.448,1490.167,8168.38,1524.471z"/>
		<path fill="#CCC1F4" d="M8192.657,1824.033c-10.957-1.862-21.771-3.509-32.299-4.941
			c-3.938-116.302,39.891-216.849,64.453-263.612C8241.284,1607.973,8261.979,1718.474,8192.657,1824.033z"/>
		<path fill="#EEEAFF" d="M7974.521,1801.26c-7.018-28.86-12.676-62.877-13.607-99.186c-2.648-103.34,5.371-135.137-2.578-168.438
			c-7.877-33.301,1.219-54.569,40.105-7.662c31.078,37.597,65.598,126.613,77.129,201.021
			c-10.672,9.954-20.484,19.407-28.719,26.855c-3.797,3.365-7.59,6.588-11.316,9.667c-5.727-60.155-21.34-130.695-56.645-187.199
			c0,0,36.094,83.072,46.477,194.934C8008.753,1783.356,7992.21,1792.451,7974.521,1801.26z"/>
		<path fill="#FFFFFF" d="M7957.548,1530.128c-6.373-31.224,3.365-49.342,40.893-4.153c23.848,28.789,49.629,87.728,65.598,147.167
			c-27.785-83.932-84.361-155.761-95.533-156.692C7963.421,1516.02,7959.983,1522.107,7957.548,1530.128z"/>
		<path fill="#CCC1F4" d="M7987.913,1599.952c11.387,32.369,30.363,95.175,37.453,171.301c-13.033,9.525-26.139,17.26-39.746,24.35
			C7966.429,1713.031,7978.388,1638.695,7987.913,1599.952z"/>
		<g>
			<circle fill="#A698DE" cx="8825.583" cy="1822.037" r="112.722"/>
			<circle fill="#7A65CD" cx="8825.583" cy="1822.037" r="79.342"/>
			<path fill="#4D2C80" fill-opacity="0.302" d="M8937.374,1836.136c-7.805,61.804-64.166,105.488-125.898,97.754
				c-61.803-7.807-105.559-64.238-97.754-125.97c2.293-18.118,23.992-12.676,34.52-0.931c14.824,16.543,37.023,48.268,74.264,53.28
				c36.236,4.87,64.166-18.548,82.857-31.438C8917.466,1820.452,8940.312,1813.076,8937.374,1836.136z"/>
			<path fill="#FFFFFF" fill-opacity="0.702" d="M8865.831,1734.229c18.406,8.021,31.367,22.272,28.861,31.868
				c-2.436,9.597-19.408,10.957-37.885,2.937c-18.404-8.021-31.295-22.271-28.859-31.868
				C8830.454,1727.568,8847.354,1726.279,8865.831,1734.229z"/>
			<path d="M8687.655,1824.463c0,0,4.367-30.149,3.367-42.683c-1.074-12.604,30.936-36.81,41.893-41.034
				c10.957-4.297,19.693,1.217,7.52,12.818c-12.174,11.53-23.418,34.375-20.123,65.169c3.365,30.794,9.811,16.615,16.686,42.324
				c6.875,25.781,20.697,28.431,30.723,38.601c10.025,10.24,17.188,6.229,28.072-11.459c10.957-17.76,26.426-34.876,34.877-61.015
				c8.521-26.14,2.721-44.258,11.172-44.902c8.521-0.645,21.557,40.605,17.045,75.982c-4.441,35.306-19.051,54.856-1.074,57.148
				c17.902,2.22,34.59-18.835,54.928-32.155c13.678-8.951,23.99-34.947,25.064-50.989c2.293-24.778-3.723-48.626-15.754-68.535
				c3.078,0.717,3.148,0.287,9.164,3.295c21.27,10.885,16.758,56.719,20.625,79.563c3.008,17.688-7.59,25.853-18.047,51.49
				c-10.453,25.566-12.246,32.871-37.738,46.478c-25.424,13.535-49.844,25.854-47.695,47.768
				c2.148,21.985,10.742,31.796,1.145,41.536c-9.668,9.811-29.934,30.722-35.305,54.928s-60.873,482.036-60.873,482.036
				s-5.658,31.438,0.072,61.373c5.801,30.006,17.545,47.122,10.957,59.869c-6.518,12.748-36.381,52.422-41.25,68.034
				c-4.871,15.611,2.648,50.13-6.59,63.665c-9.238,13.606-19.836,21.842-17.115,43.899s-19.049,59.225-25.994,63.594
				c-6.875,4.297-0.645-33.659-4.297-62.233c-3.652-28.502-21.629-83.144-10.527-111.575c11.098-28.431,30.508-53.495,20.98-78.99
				c-9.523-25.495-15.539-37.239-1.289-58.652c14.254-21.341,26.57-45.26,28.504-60.657c1.934-15.396,58.078-460.408,59.797-474.086
				c1.719-13.679-11.242-50.632-20.195-62.448c-8.879-11.816,6.875-19.98,11.387-35.019c4.512-15.111-12.531-40.391-31.725-58.438
				c-19.121-18.047-32.084-34.733-33.658-58.652C8690.733,1846.592,8683.933,1836.423,8687.655,1824.463z"/>
			<path fill="#4D4D4D" d="M8858.671,1968.192c-7.09,6.804-11.244,14.538-10.313,24.135c2.148,21.985,10.742,31.796,1.145,41.536
				c-9.668,9.811-29.934,30.722-35.305,54.928s-60.873,482.036-60.873,482.036s-5.658,31.438,0.072,61.373
				c5.801,30.006,17.545,47.122,10.957,59.869c-4.584,9.023-20.912,31.511-31.797,49.414l0,0
				c-15.898,21.556-36.668,72.545-36.668,72.545c0.574-32.369,6.875-46.835,30.723-82.643c23.92-35.879,24.852-52.422,15.684-80.781
				c-9.094-28.431,1.146-91.379,1.146-91.379s37.74-299.133,46.119-365.233c8.309-66.1,15.184-122.818,35.092-142.87
				c19.908-20.124,10.957-26.999,15.469-56.003C8842.343,1980.797,8850.722,1972.704,8858.671,1968.192z M8691.163,1785.576
				c0-1.36-0.07-2.649-0.141-3.796c-1.074-12.604,30.936-36.81,41.893-41.034c10.957-4.297,19.693,1.217,7.52,12.818
				c-12.174,11.53-23.418,34.375-20.123,65.169c3.365,30.794,9.811,16.615,16.686,42.324c6.66,25.065,19.908,28.216,29.863,37.741
				c-7.162-3.867-18.047-7.377-29.434-12.246c-14.107-6.159-9.453-26.855-20.625-46.048c-11.244-19.193-2.721-64.453,3.652-73.906
				c6.445-9.453,0-12.031-18.404,5.943C8697.896,1776.553,8694.245,1781.064,8691.163,1785.576z M8836.183,1796.462
				c0.717-8.666,1.219-13.822,5.658-14.18c8.521-0.645,21.557,40.605,17.045,75.982c-4.441,35.306-19.051,54.856-1.074,57.148
				c1.289,0.143,2.578,0.215,3.867,0.143c-11.816,2.221-20.41-4.869-18.621-18.905c2.865-23.061,13.25-32.155,6.732-74.98
				C8846.64,1800.901,8841.626,1794.313,8836.183,1796.462z M8930.569,1781.064c-2.363-6.016-5.227-11.816-8.52-17.331
				c3.078,0.717,3.148,0.287,9.164,3.295c21.27,10.885,16.758,56.719,20.625,79.563c1.148,6.946,0.289,12.389-1.934,18.047
				c0-11.101-4.438-20.769-6.016-47.266C8942.46,1793.955,8936.3,1784.573,8930.569,1781.064z"/>
		</g>
		<path d="M8707.349,2331.063l-7.162-3.295c-28.645-13.392-35.734-62.018-16.828-85.722c9.668-12.031,25.924-18.19,39.961-11.029
			c6.66-6.23,15.684-10.098,24.563-12.103c10.887-2.507,25.566-3.151,35.736,2.005c9.883,4.941,22.773,16.042,30.865,23.633
			c9.453,8.952,22.416,22.487,25.137,35.593c3.797,18.906-0.215,36.881-3.795,55.43c-6.803,35.448-23.561,65.455-63.736,68.177
			c-15.898,1.146-33.516-0.358-48.055-7.52c-11.602-5.658-22.414-15.971-22.414-29.792c0-9.739,5.012-19.336,11.744-26.568
			C8710.929,2337.293,8708.853,2334.356,8707.349,2331.063z"/>
		<path fill="#EEEAFF" d="M8716.802,2246.558c0,0-10.313-6.589-20.338,5.943c-12.461,15.684-7.375,51.563,10.813,60.013
			c-3.293-11.888,3.867-25.565,11.102-29.862C8718.378,2282.651,8706.919,2267.11,8716.802,2246.558z M8732.558,2271.622
			c0,0-8.094-9.524-1.576-23.274c6.445-13.821,35.377-17.331,45.117-12.461s44.043,33.015,47.051,47.624
			c2.936,14.537,0.287,27.786-3.795,48.912c-4.082,21.055-12.963,52.135-48.412,54.57c-35.377,2.435-52.564-11.172-52.564-20.554
			c0-9.31,10.168-17.832,10.168-17.832s16.902,1.79,27.859,1.504c10.885-0.286,21.984-6.588,21.984-6.588
			s-47.051-0.287-55.93-19.766c-8.953-19.479,1.504-35.95,14.752-38.528c13.178-2.578,47.982,8.951,47.982,8.951
			S8778.104,2270.62,8732.558,2271.622z"/>
		<path fill="#CCC1F4" d="M8689.874,2271.05c-1.574,16.399,4.727,35.592,17.402,41.464c-3.293-11.888,3.867-25.565,11.102-29.862
			c0,0-0.43-0.645-1.146-1.791c-2.291-3.365-7.949-10.025-16.973-10.813C8695.534,2269.688,8692.167,2270.19,8689.874,2271.05z
			 M8730.337,2267.755c1.361-2.649,5.371-5.299,14.609-7.09c23.418-4.512,37.24,26.14,39.746,32.37
			c-2.076-4.655-12.533-22.272-52.135-21.413C8732.558,2271.622,8731.411,2270.19,8730.337,2267.755z M8814.628,2350.685
			c-6.016,17.33-17.689,34.518-43.686,36.309c-35.377,2.435-52.564-11.172-52.564-20.554c0-9.31,10.168-17.832,10.168-17.832
			s16.902,1.79,27.859,1.504c10.885-0.286,21.984-6.588,21.984-6.588s-35.09-0.215-50.344-12.819
			C8745.089,2310.294,8797.583,2341.16,8814.628,2350.685z"/>
	</g>
</g>
</svg>
