<?xml version="1.0" encoding="utf-8"?>
<!-- Generator: Adobe Illustrator 16.0.0, SVG Export Plug-In . SVG Version: 6.00 Build 0)  -->
<!DOCTYPE svg PUBLIC "-//W3C//DTD SVG 1.1//EN" "http://www.w3.org/Graphics/SVG/1.1/DTD/svg11.dtd">
<svg version="1.1" id="Layer_1" xmlns="http://www.w3.org/2000/svg" xmlns:xlink="http://www.w3.org/1999/xlink" x="0px" y="0px"
	 width="2200px" height="2250px" viewBox="2401.628 -1242.985 2200 2250" enable-background="new 2401.628 -1242.985 2200 2250"
	 xml:space="preserve">
<g id="Layer_x0020_1">
	<g id="_511075368">
		<path d="M3130.943,795.71c-52.064-9.31-47.123-115.514-38.672-147.74c9.381-35.664,20.84-70.898,33.587-105.416l5.872-15.97
			l15.54,6.875c23.848,10.527,49.772,13.32,75.554,10.599c7.018-0.788,14.107-1.504,21.126-2.292l20.983-2.363l-3.438,20.84
			c-5.515,32.871-14.108,65.455-24.922,96.966c-6.947,20.267-15.971,41.68-25.065,61.016
			C3198.475,746.01,3169.758,802.656,3130.943,795.71z"/>
		<path d="M3495.388,780.527c-35.664-41.034-60.442-132.772-72.903-186.125l-4.082-17.474l17.761-2.077
			c16.758-2.005,33.229-5.801,49.127-11.53c17.188-6.23,33.73-14.681,48.841-24.921l14.538-9.955l8.45,15.469
			c32.227,58.724,62.663,132.988,62.376,201.093c-0.143,25.352-9.596,56.218-28.717,67.819
			C3565.785,828.08,3526.826,816.693,3495.388,780.527z"/>
		<path fill="#EEEAFF" d="M3438.024,590.75c12.031,51.49,36.738,141.653,69.466,179.322c18.835,21.627,37.885,31.939,53.998,32.441
			c-30.58-18.047-69.753-76.771-54.857-99.329c0,0,4.297,33.372,28.861,63.736c67.962,84.147,65.312-21.771,29.72-81.712
			c0,0,5.442-2.005,13.392,9.453c4.655,6.589,19.408,45.977,21.27,76.484c2.292-7.52,3.581-16.328,3.581-26.211
			c0.286-54.068-20.769-121.243-60.371-193.358c-16.328,11.172-34.089,20.195-52.35,26.783
			C3473.474,584.591,3455.856,588.673,3438.024,590.75z"/>
		<path fill="#EEEAFF" d="M3140.825,548.068c-10.169,27.714-22.772,64.738-33.085,103.912c-9.74,37.239-9.023,66.673-3.51,87.942
			c-0.859-10.957-0.572-22.988,1.504-34.805c5.515-31.438,17.475-37.097,17.475-37.097s-18.906,51.706-9.167,87.369
			c2.937,10.814,7.161,22.344,19.694,24.564c5.084,0.931,11.458-1.218,18.619-6.589c-4.798-2.077-10.098-7.161-14.322-18.548
			c-10.6-28.288,0-77.988,10.885-81.139c0,0-9.453,41.464-3.724,69.752c15.254,75.625,72.474-80.494,76.269-91.451
			c12.748-37.24,20.053-69.395,24.206-94.316c-7.019,0.788-14.108,1.504-21.126,2.292
			C3194.68,563.106,3166.392,559.383,3140.825,548.068z"/>
		<path fill="#CCC1F4" d="M3531.41,775.014c-0.645,3.938-3.939,7.09-13.32,6.016c15.325,14.18,30.364,21.055,43.398,21.484
			C3551.677,796.713,3540.935,786.687,3531.41,775.014z M3505.199,572.56c18.118,12.104,36.094,27.644,49.414,47.194
			c28.502,41.895,31.868,75.481,31.438,91.595c5.801,15.898,12.604,39.746,13.821,59.798c2.292-7.52,3.581-16.328,3.581-26.211
			c0.286-54.068-20.769-121.243-60.371-193.358C3531.123,559.741,3518.376,566.759,3505.199,572.56z M3577.744,711.563
			c2.937,18.118,5.586,47.479-3.438,63.45c-7.447,13.177-20.338,8.594-30.508,1.646
			C3594.789,832.734,3599.086,767.494,3577.744,711.563z"/>
		<path fill="#CCC1F4" d="M3143.476,727.748c0.143,5.442,0.716,10.742,1.719,15.684c15.254,75.625,72.474-80.494,76.269-91.451
			c12.748-37.24,20.053-69.395,24.206-94.316c-7.019,0.788-14.108,1.504-21.126,2.292c-9.74,1.002-19.336,1.289-28.718,0.859
			c6.517,11.602,11.028,23.919,11.172,36.021c0.573,46.263-23.704,120.813-38.027,139.146
			C3157.153,751.166,3146.698,734.05,3143.476,727.748z M3100.578,695.307c-1.074,17.546,0.502,32.441,3.652,44.616
			c-0.859-10.957-0.572-22.988,1.504-34.805c0.072-0.287,0.144-0.645,0.215-0.931C3104.66,704.115,3102.941,702.54,3100.578,695.307
			z M3111.894,743.646c0.43,4.011,1.146,7.949,2.148,11.744c2.937,10.814,7.161,22.344,19.694,24.564
			c5.084,0.931,11.458-1.218,18.619-6.589c-4.798-2.077-10.098-7.161-14.322-18.548c-1.433-3.796-2.436-7.949-3.151-12.317
			c-2.722,3.795-6.23,7.305-10.742,9.166C3118.41,754.03,3114.4,749.591,3111.894,743.646z"/>
		<path d="M3389.398,630.711l-2.936-20.195c-3.725-25.495-8.952-50.632-15.612-75.41c-99.83,44.759-182.473,34.805-276.001-0.931
			c-6.589,38.887-15.756,69.251-20.983,87.226c-38.814-18.906-135.279-100.402-146.666-158.41
			c-6.087-30.866,18.262-42.897,36.237-66.888c26.425-35.449,37.669-79.636,39.459-123.248c2.148-49.199,3.151-98.828,8.379-147.813
			c2.292-21.197,5.442-41.679,9.453-61.659c-23.418,5.299-30.651,2.793-52.422-2.937c19.479-8.021-54.856-8.952-56.575-8.952
			c-45.904-1.146-88.658-5.801-129.12-30.078c-14.681-8.809-28.646-21.412-35.735-37.239c-5.229-11.744-2.077-13.392-10.6-25.279
			c-10.599-14.681-12.245-35.306-0.931-50.13c4.727-6.159,11.243-11.029,18.333-14.108c0.072-7.161,2.507-15.254,6.016-21.413
			c9.955-17.474,36.452-22.988,51.204-7.734c8.737,9.167,7.807,18.549,7.377,30.222c-0.717,16.614,17.545,10.313,29.576,6.589
			c18.262-5.658,12.175-4.655,10.241-18.119c-3.509-23.99,16.113-42.61,42.252-30.006c20.84,9.954,35.736,41.966,29.291,65.169
			c19.765,3.581,40.533-0.716,58.651-8.809c16.901-7.52,33.802-14.896,50.847-22.129c-11.602-13.177-6.088-27.715,0.286-42.037
			c2.937-6.732,6.374-13.607,10.026-20.053c-12.748-8.092-22.702-19.049-19.98-35.377c1.719-10.098,6.66-15.11,13.32-21.985
			c-5.443-5.3-11.674-9.812-16.328-15.827c-6.589-8.522-8.881-18.118-9.525-28.718c-0.859-15.11,1.218-32.226,3.08-47.265
			c2.363-18.764,5.943-37.813,9.453-56.36c4.727-24.779,9.739-49.486,14.896-74.192c6.373-30.58,12.962-61.159,19.622-91.738
			c3.796-17.331,7.806-34.661,11.387-52.063c4.87-23.274-32.369-85.65-31.51-103.912c0.787-16.543,18.476-22.487,32.011-25.065
			c14.753-2.722,32.8-3.294,51.635-2.363c-0.144-26.712,1.719-53.496,6.087-79.85c5.801-35.449,12.891-70.039,20.625-104.987
			c3.724-16.686,8.235-35.377,8.379-52.493c0-1.647-0.072-3.294-0.144-5.013c-0.716-16.829,1.575-41.393,20.41-47.981
			c23.919-8.379,42.539,22.129,51.92,39.173c21.628,39.245,31.367,107.135,35.449,151.607c3.366,36.022,4.799,74.336,1.791,110.572
			c17.33-1.36,34.661-2.291,53.065-2.363c44.114-0.143,89.375,3.295,132.486,12.676c59.226,12.891,108.353,36.523,158.482,69.896
			c26.784,17.832,52.493,37.312,78.633,56.146c31.224,22.416,58.724,50.417,81.497,81.354
			c35.521-19.694,77.415-22.917,65.599,32.298c-3.438,16.257-9.095,32.154-14.108,47.981c-4.512,14.251-12.389,26.497-25.996,33.372
			c-19.264,9.812-44.042,5.014-64.738,3.223c-21.055-1.861-46.479,2.363-66.602,8.952c5.514,9.524,11.028,19.336,15.826,29.075
			c3.223,6.517,5.3,13.464,6.016,20.696c2.077,19.98-6.588,37.956-19.192,52.995c-13.392,16.185-31.868,29.863-50.201,41.25
			c22.415,13.75,22.772,33.086,24.706,56.002c7.162,13.464,9.955,26.855,11.459,41.822c22.129,11.889,47.91,17.546,72.76,19.336
			c12.461,0.859,27.356,1.074,39.817-0.572l13.894-1.791l4.297,13.32c0.931,3.08,4.082,9.74,6.588,11.674
			c1.862,1.575,4.941,3.938,7.305,5.013l7.377,2.435l2.649,7.807c0.43,1.074,2.005,2.793,2.864,3.509l16.83,14.681l-18.62,12.031
			c-3.008,2.148-5.228,5.872-4.655,9.668c0,0.144,40.893,38.887,44.545,42.61c-21.198,6.23-28.503,12.175-48.269,17.688
			c-15.54,4.369-37.383,10.456-43.47,11.459c-1.79,0.357,1.79,2.005,4.153,2.864c-21.055,5.729-40.533,12.031-62.304,14.466
			c-7.019,0.717-14.108,1.218-21.127,1.504c11.816,13.535,23.776,25.781,38.314,37.741c30.794,25.352,67.174,45.904,102.694,63.736
			c34.661,17.402,103.196,46.478,138.358,14.681c35.307-32.011,18.334-82.141,5.586-119.237
			c-5.084-14.896-10.098-30.007-14.322-45.261c-3.295-11.744-6.445-24.42-7.592-36.595c-3.438-36.881,3.867-74.693,25.065-105.56
			c26.712-38.958,69.395-58.724,114.869-66.529c47.91-8.307,97.324-0.859,142.298,16.758c25.924,10.169,46.334,21.413,68.678,37.669
			c-6.946,45.403-14.107,80.71-10.169,109.068c3.652,26.354,44.544,91.452,57.005,126.328
			c19.694,54.785,26.14,110.858,7.305,174.738c-12.676,43.04-36.38,78.418-56.289,87.012c3.725-13.965,0.215-32.37-5.013-44.329
			c-20.339-47.122-74.766-93.17-127.975-94.388c-39.746-0.859-55,8.235-54.141,43.47c0.144,8.88,0.573,17.832,0.859,26.712
			c0.645,21.914,0.43,43.899-2.937,65.599c-9.668,61.016-43.255,101.191-106.132,113.365
			c-73.548,14.252-145.306-17.688-202.74-61.659c-70.182-53.711-127.831-130.768-170.227-207.682
			c-16.328-29.577-36.81-62.591-60.872-87.799c-7.377,31.868-12.819,64.524-14.037,97.252c-0.787,20.983,0.144,43.112,5.014,63.594
			c5.299,22.129,17.115,42.61,31.009,60.37c17.832,22.702,40.247,42.754,63.521,59.727c21.843,15.898,42.61,25.996,60.3,38.027
			c32.298,21.843,85.578,87.298,21.055,107.637c-36.596,11.529-65.098-6.66-109.499-16.257c-34.518-7.448-36.38-0.144-60.514,19.98
			C3516.442,583.23,3452.133,608.797,3389.398,630.711z"/>
		<path fill="#4E32BC" d="M3136.672-711.556c-50.201-3.223-78.346,4.153-75.911,12.39c2.722,9.023,35.95,82.142,31.081,105.416
			c-4.87,23.203-47.552,212.479-55.144,272.993c-7.591,60.515-1.074,60.515,15.11,75.124c6.016,5.371,13.464,14.322,20.41,23.561
			c7.52,1.289,17.331,2.65,29.863,3.581c-2.148-3.652-4.798-7.878-8.092-12.532c-35.664-51.348-44.831-26.498-38.887-84.29
			c5.943-57.864,35.592-209.257,47.552-255.233c11.888-45.905-0.859-70.254-8.093-88.372c-7.305-18.118-12.461-26.999,11.315-24.851
			s207.323,79.563,301.425,200.735c94.029,121.171,104.843,174.166,93.527,194.719c-5.514,9.883-34.159,30.794-62.376,49.772
			c17.331-0.859,34.447-1.361,50.99-1.361c32.87-33.587,58.938-74.908,58.938-74.908s-6.589,38.528-38.744,75.195
			c20.625,0.501,40.176,1.934,58.08,4.583c9.095-0.716,19.407-0.859,30.508-0.071c1.79-0.932,3.58-1.934,5.299-2.937
			c62.662-36.237,82.142-69.752,67.532-99.473c-14.538-29.72-98.326-169.224-118.88-197.87
			c-20.553-28.646-28.646-37.311-28.646-37.311s40.534,34.446,77.271,89.661c36.738,55.214,53.496,84.72,53.496,84.72
			s6.517-23.275,3.509-47.839c-2.936-24.635-8.594-36.881-8.594-36.881s15.397,14.18,19.408,37.955
			c4.082,23.776-1.862,54.57-1.862,54.57s37.024-12.175,71.614-9.167c34.59,2.937,62.161,10.241,73.262-24.85
			c11.1-35.163,24.85-72.761,6.731-71.687c-18.047,1.146-37.525,13.178-37.525,13.178s8.092,13.821,9.452,23.06
			c1.361,9.238-0.787,12.962-0.787,12.962s-33.301-69.179-104.629-120.526c-71.327-51.348-131.913-101.692-230.813-123.248
			c-90.306-19.623-186.054-10.17-202.023-8.379c65.885,30.006,143.658,85.794,215.487,185.123
			C3467.53-514.043,3284.197-702.532,3136.672-711.556z"/>
		<path fill="#392589" d="M3081.386-220.64c5.872,0.788,12.747,1.575,20.696,2.148c-2.148-3.652-4.798-7.878-8.092-12.532
			c-35.449-50.99-44.759-26.855-39.03-83.145c-4.44,24.778-5.085,45.977,2.793,54.427
			C3070.357-246.063,3077.519-231.74,3081.386-220.64z M3311.626-666.295c41.464,26.998,85.221,64.381,127.76,115.8
			C3432.511-610.007,3371.781-675.533,3311.626-666.295z M3179.282-654.98c68.32,33.157,166.934,93.385,228.021,171.946
			c94.029,121.171,104.843,174.166,93.527,194.719c-5.514,9.883-34.159,30.794-62.376,49.772c17.331-0.859,34.447-1.361,50.99-1.361
			c32.87-33.587,58.938-74.908,58.938-74.908s-6.589,38.528-38.744,75.195c20.625,0.501,40.176,1.934,58.08,4.583
			c9.095-0.716,19.407-0.859,30.508-0.071c1.79-0.932,3.58-1.934,5.299-2.937c62.662-36.237,82.142-69.752,67.532-99.473
			c-1.79-3.724-4.727-9.238-8.522-16.041c-4.439,6.731-16.185,12.604-41.464,14.752c-75.41,6.518-89.089-32.513-213.626-164.498
			C3332.179-583.151,3240.227-630.202,3179.282-654.98z M3606.462-474.513c32.799,49.7,47.838,76.198,47.838,76.198
			s6.517-23.275,3.509-47.839c-0.143-1.719-0.357-3.294-0.645-4.869c-2.005-2.148-4.512-4.226-7.662-6.303
			C3635.68-466.062,3616.272-471.935,3606.462-474.513z M3666.116-455.319c1.003,3.15,1.934,6.588,2.507,10.24
			c4.082,23.776-1.862,54.57-1.862,54.57s37.024-12.175,71.614-9.167c34.59,2.937,62.161,10.241,73.262-24.85
			c0.716-2.148,1.36-4.369,2.076-6.518c-10.599,8.093-25.565,12.318-45.475,2.436
			C3729.781-447.657,3681.656-453.744,3666.116-455.319z"/>
		<path fill="#A698DD" d="M3136.672-711.556c-50.201-3.223-78.346,4.153-75.911,12.39c2.722,9.023,35.95,82.142,31.081,105.416
			c-4.87,23.203-47.552,212.479-55.144,272.993c-6.087,48.411-3.15,58.079,6.589,67.532c-3.294-7.949-6.302-18.763-5.442-31.295
			c1.79-26.497,51.991-273.996,58.007-299.635c6.016-25.638-11.028-68.893-17.975-89.159c-7.019-20.195-16.543-24.993,19.264-24.993
			c35.736,0,105.201,4.798,206.464,62.018c42.611,24.063,74.265,44.902,96.68,60.943
			C3333.468-631.276,3228.195-705.97,3136.672-711.556z M3827.033-481.96c0.717-9.023-1.504-14.609-8.665-14.252
			c-18.047,1.146-37.525,13.178-37.525,13.178s3.079,5.228,5.729,11.458c6.804-4.368,23.132-14.036,34.375-14.251
			C3823.811-485.827,3825.744-484.323,3827.033-481.96z M3760.003-493.347c-17.188-22.773-42.109-50.417-75.124-74.192
			c-71.327-51.348-131.913-101.692-230.813-123.248c-90.306-19.623-186.054-10.17-202.023-8.379
			c9.381,4.225,18.978,9.023,28.789,14.395c63.521,0.501,198.872,7.591,291.828,55.716
			C3658.955-584.512,3726.344-525.645,3760.003-493.347z"/>
		<path fill="#EEEAFF" d="M3197.974-629.056c0,0-38.814,13.105-47.48,27.213c-8.665,14.036,56.504,0,56.504,0
			s-24.85,22.988-20.052,31.582c4.87,8.665,56.504-11.602,56.504-11.602s-4.87,29.434,7.877,31.653
			c12.676,2.148,18.906-25.709,18.906-25.709s5.156,32.441-17.044,40.032c-22.129,7.52-23.203-25.71-23.203-25.71
			s-29.219,12.461-49.199,9.453c-20.052-2.936-8.379-26.712-8.379-26.712s-41.679,37.239-43.827,82.715
			c-1.576,32.656-8.164,67.532-18.979,95.819c-7.662,19.98-12.676,30.222-9.668,55.215c-5.442-4.87-7.305-6.374-10.957-12.747
			c-10.24,31.08,2.077,76.126,40.176,110.931c12.891,11.744,25.566,21.627,37.097,29.648c13.965-0.358,29.434-1.074,46.549-2.292
			c50.13-3.509,112.506-10.957,174.954-15.755c28.932-18.19,61.158-39.818,78.202-55.932
			c44.258-42.037-84.29-190.351-121.171-230.311C3311.411-557.656,3261.353-596.042,3197.974-629.056z"/>
		<path fill="#CCC1F4" d="M3267.297-549.206c-2.578,5.729-6.875,10.813-14.108,13.32c-6.804,2.292-11.602,0.788-14.968-2.435
			c2.793,7.018,7.807,14.18,16.543,13.32C3266.652-526.146,3267.654-540.827,3267.297-549.206z M3347.218-231.883
			c13.464-1.218,26.999-2.363,40.534-3.438c28.932-18.19,61.158-39.818,78.202-55.932c27.357-25.995-11.314-92.668-53.567-149.172
			C3453.852-341.238,3405.44-274.064,3347.218-231.883z M3231.99-549.636c-1.861-6.159-2.005-11.96-2.005-11.96
			s-26.712,11.387-46.549,9.74C3178.925-529.011,3215.734-540.898,3231.99-549.636z"/>
		<path fill="#FFFFFF" d="M3160.09-611.081c-4.226,2.937-7.663,6.088-9.597,9.238c-3.509,5.729,5.229,6.804,16.83,6.016
			L3160.09-611.081z M3169.042-566.537c0.43-6.373,3.365-12.317,3.365-12.317s-41.679,37.239-43.827,82.715
			c-1.576,32.656-8.164,67.532-18.979,95.819c-7.662,19.98-12.676,30.222-9.668,55.215c0,0-0.859-12.532,18.405-42.682
			c19.336-30.078,19.766-71.614,22.773-110.144C3143.188-524.643,3159.374-552.143,3169.042-566.537z M3088.977-357.853
			c-10.24,31.08,2.077,76.126,40.176,110.931l0.859,0.787C3088.905-304.07,3088.977-357.853,3088.977-357.853z"/>
		<path fill="#FFFFFF" d="M3172.192-618.171c-9.166,4.655-18.047,10.385-21.699,16.328c-8.665,14.036,56.504,0,56.504,0
			s-24.85,22.988-20.052,31.582c4.87,8.665,56.504-11.602,56.504-11.602s-4.87,29.434,7.877,31.653
			c2.578,0.43,4.941-0.43,6.947-2.005c-11.101-7.806-7.448-36.309-7.448-36.309s-32.513,7.448-39.245,3.509
			c-6.731-4.01,9.74-22.057,9.74-22.057s-21.198,1.504-41.25-3.724C3173.696-612.441,3171.835-615.234,3172.192-618.171z"/>
		<path d="M3133.307-459.33c6.946,0.144,29.935,1.36,47.479,8.594c20.769,8.665,27.571,21.914,13.75,18.906
			c-1.074-0.215-2.148-0.502-3.223-0.788c0.859,3.581,1.361,7.448,1.361,11.458c0,18.477-10.17,33.373-22.702,33.373
			s-22.702-14.896-22.702-33.373c0-8.594,2.221-16.471,5.873-22.415c-2.722-0.645-5.586-1.289-8.594-1.861
			c-6.804-1.218-11.172-2.578-14.108-3.939C3122.636-453.028,3123.854-459.616,3133.307-459.33z"/>
		<path d="M3379.086-468.067c-9.095,0.287-39.603,1.719-62.806,10.17c-27.5,10.025-36.451,25.565-18.189,22.057
			c4.368-0.788,8.88-1.934,13.535-3.151c-1.647,4.799-2.578,10.098-2.578,15.684c0,21.557,13.463,39.03,30.078,39.03
			c16.614,0,30.077-17.474,30.077-39.03c0-10.813-3.438-20.624-8.951-27.714c1.36-0.215,2.649-0.43,4.01-0.717
			c8.952-1.432,14.824-3.008,18.62-4.583C3393.266-460.619,3391.69-468.354,3379.086-468.067z"/>
		<ellipse fill="#FFFFFF" cx="3325.733" cy="-428.607" rx="7.878" ry="10.742"/>
		
			<ellipse transform="matrix(0.1144 -0.9934 0.9934 0.1144 3228.4028 2762.1887)" fill="#FFFFFF" cx="3163.532" cy="-429.739" rx="9.724" ry="5.487"/>
		<path d="M3216.307-380.482c0,0-57.291,11.888-65.956,25.924c-8.666,14.108,27.857,31.94,33.014,31.367
			c5.085-0.501,33.73-19.192,28.933-28.646c-4.87-9.453-37.312-6.731-37.312-6.731S3178.996-366.16,3216.307-380.482z"/>
		<path d="M3212.798-302.925c0,0,31.94,0.287,72.474-9.954c40.462-10.313,55.645-17.331,62.447-10.313
			c6.732,7.019-6.803,82.213-63.521,93.027C3227.407-219.351,3247.674-262.605,3212.798-302.925z"/>
		<path fill="#FFFFFF" d="M3231.561-296.121c0,0,6.088,9.883,10.742,15.254c6.23,7.161,24.206,6.302,23.49-3.08
			c-0.502-5.943-1.862-16.112-1.862-16.112S3246.887-295.333,3231.561-296.121z"/>
		<path fill="#FF547D" d="M3332.823-289.104c-11.888,29.721-34.375,50.703-63.808,49.772
			C3266.079-279.507,3313.702-289.104,3332.823-289.104z"/>
		<path fill="#6B50D7" d="M3050.09-214.409c0,0,54.857,28.502,218.782,4.011c118.45-17.617,203.671-18.979,259.53-15.756
			c-20.84,3.438-42.181,8.952-62.161,17.402c-22.201,9.382-40.247,17.044-55.501,23.704c-36.953-2.506-123.392,6.875-188.346,36.595
			c0,0,108.71-26.139,171.444-29.218c-46.907,20.625-65.098,30.149-113.509,52.708c-67.532,31.438-93.026,37.813-109.856,31.438
			c-16.758-6.302-26.211-14.968-1.575-24.922c0,0-42.467,5.085-27.858,17.546c14.609,12.461,34.447,35.02,107.637,0
			c38.242-18.262,371.535-195.436,380.701-88.157c0,0-14.896-7.806-26.497-7.806c-11.673,0-12.174,0-12.174,0
			s21.341,7.304,34.876,20.839c13.463,13.464,16.185,41.035,16.185,41.035s-41.321-37.813-122.676-16.471
			c-81.354,21.341-259.816,97.896-323.052,106.49c-63.235,8.665-140.579-72.688-145.95-79.707
			c-5.442-7.019,14.896-42.324,14.896-42.324s29.434,21.628,33.658,26.354c4.154,4.727-23.131,4.727-23.131,4.727
			s27.571,11.243,41.321,4.225c13.821-7.018-41.179-45.331-60.371-57.362C3037.271-201.161,3050.09-214.409,3050.09-214.409z"/>
		<path fill="#4E32BC" d="M3438.741-197.078c-10.384,4.368-19.622,8.378-28.001,12.03c-36.953-2.506-123.392,6.875-188.346,36.595
			c0,0,108.71-26.139,171.444-29.218c-46.907,20.625-65.098,30.149-113.509,52.708c-67.532,31.438-93.026,37.813-109.856,31.438
			c-16.758-6.302-26.211-14.968-1.575-24.922c0,0-27.429,3.294-30.579,11.101l0,0l0,0c-0.716,1.646-0.286,3.438,1.719,5.514
			c3.938,9.883,15.898,30.508,49.271,39.102c44.759,11.53,196.438-71.758,314.458-96.464
			c118.092-24.779,138.001,24.205,138.001,24.205s-41.321-37.813-122.676-16.471c-81.354,21.341-259.816,97.896-323.052,106.49
			c-63.235,8.665-140.579-72.688-145.95-79.707c-5.442-7.019,14.896-42.324,14.896-42.324s29.434,21.628,33.658,26.354
			c4.154,4.727-23.131,4.727-23.131,4.727s0.716,0.286,2.005,0.787l0,0c0,0,22.415,17.617,40.677,14.108
			c10.098-1.934,5.085-12.891-4.225-23.418c-4.512-5.228-11.53-11.387-19.336-17.617c12.461,4.727,27.857,9.453,45.904,12.819
			c51.777,9.811,112.721-28.789,188.274-39.102C3385.389-196.147,3423.272-197.078,3438.741-197.078z"/>
		<path fill="#A698DD" d="M3050.09-214.409c1.003,0.501,56.289,28.287,218.782,4.011c90.95-13.535,162.206-17.475,215.773-17.116
			c-82.213,6.445-184.191,33.73-307.153,39.459C3075.943-183.329,3053.527-201.161,3050.09-214.409z M3348.077-149.24
			c99.4-45.762,239.622-100.762,273.781-59.654C3537.568-222.645,3410.955-175.38,3348.077-149.24z"/>
		<path fill="#EEEAFF" d="M2910.228-48.837c0,0-5.586-19.265,1.647-32.298c7.305-13.105-2.578-41.752-18.763-49.486
			s-23.633,6.088-15.684,20.625c7.949,14.538-2.578,14.467-11.53,24.277c-8.88,9.74-4.869,25.566-4.869,25.566
			s-6.374-1.79-8.236-9.31c-1.861-7.52,0-12.175,0-12.175s-38.814,12.031-47.48-4.082c-8.665-16.185,0.932-29.29-6.588-37.096
			c-7.448-7.807-20.625-2.363-24.492,4.439c-3.867,6.732-3.724,13.535-3.724,13.535s14.896-3.079,18.978,8.308
			c4.082,11.315-0.358,28.073-0.358,28.073s15.469,1.002,15.755,13.821c0.215,12.818,2.793,14.466,15.898,10.098
			c13.178-4.297,25.566-6.016,33.516,2.148c8.021,8.235,7.305,19.551,7.305,19.551s-9.596-23.418-33.516-13.32
			c-23.919,10.169-28.646,4.225-28.646,4.225s-5.729,6.66-11.673,7.878c-6.016,1.218-7.663-3.223-7.663-3.223
			s16.973-8.379,14.896-21.914c-2.077-13.606-22.272-8.521-31.797,2.363c-9.453,10.813-2.436,35.593,28.072,53.854
			c30.437,18.262,60.228,23.203,86.296,25.925c25.995,2.722,62.089,0.931,83.215,4.655c21.126,3.724,42.897,4.439,42.897,4.439
			s-1.289,3.725-6.088,5.443c-4.798,1.719-6.302,1.719-6.302,1.719s9.954,1.719,27.786-2.722l5.229-1.289
			c9.238-35.593,26.067-94.029,45.045-131.556c-5.657-4.798-10.671-9.381-14.968-13.463c-16.256,6.875-37.525,16.041-59.225,25.709
			c-44.83,19.98-76.698,7.878-76.698,7.878S2912.806-61.513,2910.228-48.837z M2749.884-50.914c0,0-11.745-16.328-1.218-30.078
			c10.957-14.322,39.817-18.978,28.503,13.679C2777.169-67.313,2763.562-67.242,2749.884-50.914z"/>
		<path fill="#FFFFFF" d="M3067.421-88.01c-4.87-4.226-9.238-8.236-13.034-11.816c-16.256,6.875-37.525,16.041-59.225,25.709
			c-44.83,19.98-76.698,7.878-76.698,7.878s-1.934,1.647-4.082,5.515c10.813,3.867,48.697,14.608,90.734-6.088
			C3034.335-81.207,3055.175-86.291,3067.421-88.01z"/>
		<path fill="#CCC1F4" d="M2908.581-57.789c-0.788-6.731-0.788-16.041,3.294-23.346c6.946-12.461-1.647-38.959-16.399-48.197
			c7.376,8.164,14.609,20.554,8.021,34.304C2891.966-71.109,2908.581-57.789,2908.581-57.789L2908.581-57.789z M2784.903-126.037
			c-4.584,1.289-8.737,4.297-10.671,7.662c-3.867,6.732-3.724,13.535-3.724,13.535s4.368-0.859,9.023,0.072
			c0.572-3.295,1.861-8.236,4.654-14.682C2785.476-122.313,2785.548-124.462,2784.903-126.037z M2774.447-54.996
			c-4.226,1.934-8.235,4.727-11.243,8.164c-9.453,10.813-2.436,35.593,28.072,53.854c30.437,18.262,60.228,23.203,86.296,25.925
			c25.995,2.722,62.089,0.931,83.215,4.655c21.126,3.724,42.897,4.439,42.897,4.439s-1.289,3.725-6.088,5.443
			c-4.798,1.719-6.302,1.719-6.302,1.719s9.954,1.719,27.786-2.722l5.229-1.289c2.363-9.023,5.156-19.479,8.379-30.723
			c-27.572,9.524-57.793,3.151-57.793,3.151s0.931-0.144,3.652-1.074c2.649-0.859,7.949-3.366,7.949-3.366
			s-44.258-1.36-83.502-0.071c-39.245,1.217-92.526-9.525-108.567-18.763c-16.113-9.238-26.569-19.766-19.479-36.022
			C2778.1-48.908,2777.097-52.561,2774.447-54.996z M2760.268-89.872c1.719,1.647,2.722,3.652,1.719,6.23
			c-3.008,7.448-5.872,16.543,0,21.843l0,0c-3.724,2.435-7.949,5.872-12.103,10.885c0,0-11.745-16.328-1.218-30.078
			C2751.603-84.859,2755.899-88.01,2760.268-89.872z"/>
		<path fill="#EEEAFF" d="M3527.973,57.653c-13.178-59.512-8.809-148.099,19.479-201.952c0,0,42.468-8.88,98.398,24.063
			c55.931,33.014,127.831,23.561,127.831,23.561s2.865,10.886,10.671,17.116c7.877,6.159,14.251,7.949,14.251,7.949
			c1.575,4.44,10.886,8.809,8.45,10.886c-20.696,18.404-11.602,47.337,14.538,55.501l-1.146,9.452c0,0-20.912,5.443-48.196,14.609
			c-27.357,9.238-72.761,5.729-72.761,5.729s9.453,4.583,17.832,6.731s8.379,2.148,8.379,2.148s-32.728,8.952-83.932,4.082
			C3590.563,32.66,3552.178,38.031,3527.973,57.653z"/>
		<path fill="#FFFFFF" d="M3542.367-133.629c1.575-3.652,3.294-7.232,5.084-10.67c0,0,42.468-8.88,98.398,24.063
			c55.931,33.014,127.831,23.561,127.831,23.561s1.146,4.369,4.011,9.167c-17.546,6.302-68.75,17.546-142.369-21.27
			C3597.152-128.974,3565.928-134.273,3542.367-133.629z"/>
		<path fill="#CCC1F4" d="M3527.973,57.653c-9.525-42.825-9.883-100.689,1.146-149.889c-1.504,36.38,1.575,87.799,32.083,85.579
			c46.979-3.509,100.475,9.739,100.475,9.739s-9.453-7.877-12.246-9.524c-2.721-1.575-2.721-1.575-2.721-1.575
			s52.135,11.529,104.843,4.368c31.439-4.297,47.409-7.734,55.215-9.812c4.011,3.51,8.952,6.374,14.824,8.236l-1.146,9.452
			c0,0-20.912,5.443-48.196,14.609c-27.357,9.238-72.761,5.729-72.761,5.729s9.453,4.583,17.832,6.731s8.379,2.148,8.379,2.148
			s-32.728,8.952-83.932,4.082C3590.563,32.66,3552.178,38.031,3527.973,57.653z M3787.646-77.196L3787.646-77.196L3787.646-77.196
			L3787.646-77.196z"/>
		<path fill="#4E32BC" d="M3352.016-78.557c37.741-14.609,71.472-28.359,89.375-34.662c41.321-14.609,86.51-26.211,86.51-26.211
			c-21.556,46.12-41.822,191.641,0,227.305c11.029,9.453,33.229-30.222,33.229-30.222s-40.534,125.11-20.267,210.475
			c20.267,85.436,125.969,149.244,151.894,161.132s41.608,31.868,41.608,31.868s-52.422-38.887-117.806,6.517
			c-46.406,32.227-101.048,101.191-213.482,140.436c-8.164-56.073-24.277-116.516-52.136-179.823
			C3263.071,228.453,3311.554,29.294,3352.016-78.557z"/>
		<path fill="#392589" d="M3352.016-78.557c37.741-14.609,71.472-28.359,89.375-34.662c17.188-6.087,35.02-11.673,49.987-16.041
			c-25.137,15.396-86.868,54.57-151.106,84.29C3344.21-56.93,3348.148-68.173,3352.016-78.557z"/>
		<path fill="#A698DD" d="M3515.368-136.135c7.806-2.077,12.532-3.295,12.532-3.295c-19.049,40.82-37.096,159.557-12.031,210.977
			c-7.305-8.809-15.826-27.715-20.409-68.464C3488.8-56.715,3506.059-111.786,3515.368-136.135z M3541.938,83.793
			c9.668-9.096,19.192-26.14,19.192-26.14s-40.534,125.11-20.267,210.475c20.267,85.436,125.969,149.244,151.894,161.132
			s41.608,31.868,41.608,31.868c-48.483-52.278-172.662-49.485-206.465-201.809C3515.082,201.741,3531.911,122.536,3541.938,83.793z
			"/>
		<path fill="#A698DD" d="M3137.89-40.673c21.197,9.166,46.406,15.254,71.829,9.883c31.725-6.732,78.704-23.418,123.104-40.319
			c-40.247,112.793-82.714,308.801,3.867,505.669c12.532,28.502,22.702,56.432,30.723,83.646
			c-114.368,52.851-215.631,22.916-265.474,0.645c1.719-42.253,2.076-95.677,0.143-163.353
			c-4.297-148.313,1.218-253.3,16.042-327.349C3123.566,1.221,3130.155-21.552,3137.89-40.673z"/>
		<path fill="#867BB3" d="M3137.89-40.673c21.197,9.166,46.406,15.254,71.829,9.883c31.725-6.732,78.704-23.418,123.104-40.319
			c-4.654,13.034-9.31,27.142-13.821,42.253c-30.651,13.033-61.016,23.131-87.441,26.641c-41.679,5.585-71.829-3.223-93.098-15.827
			c-6.445,28.359-32.227,151.393-26.713,283.02c4.584,109.498,17.475,216.776,24.135,266.835
			c-13.034-4.226-24.421-8.737-33.945-12.962c1.719-42.253,2.076-95.677,0.143-163.353c-4.297-148.313,1.218-253.3,16.042-327.349
			c3.796-18.979,8.235-35.808,13.177-50.847l0,0C3133.378-29,3135.598-35.016,3137.89-40.673z"/>
		<path fill="#4E32BC" d="M3082.675-76.193c0,0,16.472,15.396,41.179,28.646c-8.308,20.338-15.326,44.329-20.983,72.616
			c-15.039,75.053-20.696,181.185-16.328,330.858c2.507,85.221,4.941,156.692-23.06,240.839
			c-28.216-16.399-156.692-126.973-113.795-162.063c21.842-17.903,65.956-65.526,70.038-161.132
			C3025.097,145.954,3023.521,60.947,3082.675-76.193z"/>
		<path fill="#392589" d="M3099.647-62.73c6.517,4.727,14.753,10.17,24.206,15.183c-1.218,3.079-2.436,6.158-3.652,9.381
			C3110.175-47.189,3103.515-56.356,3099.647-62.73z"/>
		<path fill="#A698DD" d="M3082.675-76.193c0,0,2.435,2.291,6.875,5.801c-11.458,25.279-56.432,143.443-56.79,261.248
			c-0.071,29.291,7.448,189.635-80.137,241.341c22.631-19.551,63.235-67.103,67.103-158.626
			C3025.097,145.954,3023.521,60.947,3082.675-76.193z"/>
		<path fill="#6B50D7" d="M3569.008,82.646c20.911,19.408,45.331,50.703,72.76,100.475
			c92.598,167.936,231.1,284.953,355.135,260.963c123.965-23.991,89.948-162.493,94.961-209.758
			c5.013-47.266,109.498-59.87,168.508,3.938c59.011,63.808,45.476,86.796,45.476,86.796s70.039-103.41,26.067-221.073
			c-56.074-149.816-76.699-83.932-52.564-243.417c0,0-86.939-63.235-189.993-45.475c-102.981,17.761-131.985,89.518-125.97,153.971
			c6.016,64.524,95.892,246.926,94.531,346.541c-1.433,99.544-48.555,109.499-94.029,111.003
			c-45.476,1.504-85.006-25.996-85.006-25.996s58.007,26.998,109.999,15.97s68.033-87.012,49.485-162.493
			c-18.477-75.481-38.457-124.537-38.457-124.537s-7.52,130.553-182.831,42.539c-100.116-50.273-130.052-86.009-156.549-117.591
			c-14.251-1.36-26.14-2.291-35.95-2.864c12.891,12.819,25.638,28.574,35.95,47.122c0,0-17.188-22.271-46.979-47.695
			c-29.434-1.217-35.163,1.146-35.163,1.146c-0.859,1.861-1.646,3.724-2.363,5.586c46.765,32.154,75.481,92.239,112.721,112.648
			c12.748,7.019,2.507-32.513,2.507-32.513s13.535,26.497,13.535,40.534c0,13.965-13.249,17.76-69.251-48.913
			c-31.438-37.382-50.989-55.429-62.161-64.095C3571.586,71.188,3570.225,76.846,3569.008,82.646z"/>
		<path fill="#4E32BC" d="M3569.008,82.646c20.911,19.408,45.331,50.703,72.76,100.475
			c92.598,167.936,231.1,284.953,355.135,260.963c123.965-23.991,89.948-162.493,94.961-209.758
			c5.013-47.266,109.498-59.87,168.508,3.938c59.011,63.808,45.476,86.796,45.476,86.796s34.876-51.49,39.961-123.176
			c-15.325,1.934-44.043-12.461-97.825-32.871c-115.299-43.613-195.436-5.944-180.54,111.002
			c7.807,60.872-9.31,94.746-27.428,113.365c-18.118,27.93-47.48,32.227-76.126,33.229c-45.476,1.504-85.006-25.996-85.006-25.996
			s58.007,26.998,109.999,15.97c46.836-9.883,64.453-72.545,53.997-140.077c-0.859,35.95-14.107,74.407-60.156,90.019
			c-96.965,33.015-223.222-23.274-286.457-132.199c-54.713-94.245-109.928-151.751-123.893-165.501
			C3571.084,73.408,3569.938,77.992,3569.008,82.646z M3595.075,50.778c-13.606,0.144-16.687,1.433-16.687,1.433
			c-0.859,1.861-1.646,3.724-2.363,5.586c46.765,32.154,75.481,92.239,112.721,112.648c8.164,4.512,6.947-10.025,4.941-21.126
			c-0.143,3.151-0.787,7.734-3.15,8.164c-3.725,0.716-10.886,0.358-68.105-76.913C3614.196,69.541,3604.958,59.587,3595.075,50.778z
			"/>
		<path fill="#A698DD" d="M4279.35-139.43c0,0-86.939-63.235-189.993-45.475c-102.981,17.761-131.985,89.518-125.97,153.971
			c4.226,45.188,49.486,148.026,75.769,239.836c-12.604-77.2-43.398-160.344-49.271-174.811
			c-9.453-23.561-58.724-135.924,52.708-189.491C4141.42-202.88,4237.526-157.333,4279.35-139.43z M3999.91,129.554
			c0,0-7.52,130.553-182.831,42.539c-100.116-50.273-130.052-86.009-156.549-117.591c-3.724-0.357-7.233-0.645-10.599-0.931
			c39.674,55.859,118.521,112.435,192.284,142.083C3916.122,225.445,4000.054,223.512,3999.91,129.554z"/>
		<path fill="#FFFFFF" fill-opacity="0.702" d="M3987.163-695.657c-4.655,12.532-22.773,17.474-40.534,10.886
			c-17.688-6.589-28.216-22.129-23.561-34.662c4.655-12.604,22.845-17.474,40.533-10.885
			C3981.291-723.802,3991.818-708.262,3987.163-695.657z M3796.669,441.22c8.235-2.436,16.185-0.358,17.688,4.654
			c1.433,5.013-4.01,11.101-12.317,13.535c-8.235,2.507-16.185,0.43-17.688-4.655
			C3782.848,449.741,3788.362,443.654,3796.669,441.22z M4008.862-658.848c-1.862,6.302-8.952,8.737-15.898,5.442
			c-7.019-3.294-11.172-11.028-9.31-17.33c1.861-6.302,8.951-8.737,15.97-5.442C4006.57-672.884,4010.725-665.149,4008.862-658.848z
			"/>
		<path fill="#25185A" d="M3714.6,465.711c-26.641-9.166-57.221-6.016-88.444,15.756c-6.517,4.439-12.818,9.453-18.978,14.537
			c45.117,2.006,69.896,20.268,104.629,20.697C3755.777,517.273,3756.637,480.178,3714.6,465.711z"/>
		<path d="M3310.337-647.031l-4.799-3.223c-13.248-8.736-26.854-16.829-40.892-24.134l-11.458-5.944l2.793-12.604
			c19.837-89.59,59.153-187.63,117.948-258.456c24.922-30.007,56.576-65.384,88.874-87.656c15.54-10.67,43.47-26.139,59.583-7.949
			c7.52,8.451,7.447,19.98,4.01,30.15c-12.676,37.167-20.625,73.978-26.139,112.792c-4.583,31.868-7.376,64.238-13.965,95.748
			c-6.66,32.298-17.116,61.445-33.73,90.02c-21.556,37.168-51.204,69.752-82.571,98.827l-8.809,8.164l-12.031-6.445l-1.289-1.074
			c-10.527-8.736-21.412-17.044-32.656-24.85L3310.337-647.031z"/>
		<path fill="#EEEAFF" d="M3272.381-689.283c10.671-48.197,42.468-164.713,114.512-251.366
			c92.955-111.934,133.202-109.856,123.605-81.641c-58.15,170.8,3.223,246.783-151.894,390.513h-0.071
			c-11.315-9.382-22.559-17.903-33.73-25.638c26.067-156.835,132.987-267.193,132.987-267.193
			c-91.021,69.107-129.836,186.698-143.014,260.389C3300.311-673.814,3286.131-682.122,3272.381-689.283z"/>
		<path fill="#CCC1F4" d="M3352.804-636.433c-9.381-7.591-18.763-14.537-28.001-20.982
			c19.121-115.084,81.855-205.176,113.866-244.993C3447.979-859.726,3456.358-753.593,3352.804-636.433z"/>
		<path fill="#FFFFFF" d="M3354.093-895.317c9.883-15.612,20.769-30.938,32.8-45.332c92.955-111.934,133.202-109.856,123.605-81.641
			c-35.521,104.342-26.497,173.235-49.342,243.847c7.734-36.021,13.965-77.916,13.965-120.097
			c0-113.938,53.496-140.006-27.786-93.17C3417.758-974.667,3384.529-936.711,3354.093-895.317z"/>
		<path fill="#EEEAFF" d="M3144.335-727.311c-0.215-24.277,1.289-50.918,5.801-78.347c16.829-102.05,30.65-131.698,29.146-165.93
			c-1.504-34.16,13.249-49.987,40.82,0c27.5,49.987,41.823,178.033,34.948,255.663c-18.979,1.934-25.639,4.941-44.187,0.143
			c5.013-62.161,3.581-150.604-19.479-210.044c0,0,16.399,100.332,8.736,207.466
			C3182.935-722.298,3163.527-725.449,3144.335-727.311z"/>
		<path fill="#CCC1F4" d="M3193.391-912.219c4.082,30.938,12.747,110.286,6.731,193.859c-13.678-3.079-28.717-5.729-43.971-7.591
			C3159.731-788.612,3171.906-844.615,3193.391-912.219z"/>
		<path fill="#FFFFFF" d="M3180.715-991.425c4.44-18.118,18.047-18.834,39.388,19.838c24.851,45.188,38.958,154.186,36.38,232.102
			c-0.071-0.645-15.469-169.511-52.493-231.601C3196.184-984.263,3188.306-990.207,3180.715-991.425z"/>
		<g>
			<path fill="#A698DD" d="M2857.592-416.935c0,0,71.185,22.058,27.069,71.9c-44.114,49.844-174.165,52.78-174.165,52.78
				c26.497,16.399,186.483,0.859,233.176-52.995c46.692-53.782-31.868-65.384-31.868-65.384s21.27,11.745,19.551,20.482
				C2929.636-381.414,2901.348-414.285,2857.592-416.935z M2807.963-374.754c0,0-126.9,19.193-143.372,62.949
				c-16.471,43.685,108.711,60.586,172.447,43.899c63.665-16.687,63.235-18.19,63.235-18.19s-54.642,31.367-80.208,40.033
				c-25.566,8.665,18.047,11.959,33.229,10.742c15.182-1.146,19.908-2.292,19.908-2.292
				c-49.342,23.633-256.021,15.325-230.741-63.521C2660.223-356.707,2761.271-368.595,2807.963-374.754z M2894.114-258.523
				c6.732,7.232,8.809,17.545-5.156,31.224c-31.868,31.08-125.754,32.942-125.754,32.942
				c20.052,12.317,134.635,0.501,168.293-33.086c17.903-17.832,10.313-28.216-0.787-34.017c2.076,10.241-5.3,17.116-16.901,8.594
				C2907.22-257.736,2900.13-258.882,2894.114-258.523z M2739.499-218.348c-5.228,4.01-9.166,8.379-11.028,13.248
				c-11.888,30.437,78.418,42.253,124.395,30.579c45.976-11.673,45.689-12.676,45.689-12.676s-31.868,17.475-50.345,23.562
				c-25.71,8.379,20.911,12.532,30.794,10.169c-21.627,10.026-167.863,14.036-168.222-34.518
				C2710.639-206.818,2727.826-214.839,2739.499-218.348z M2812.689-134.201c-37.741,16.399-9.453,31.224,20.481,29.361
				c25.853-1.575,5.085-4.727,4.727-10.527c-0.286-4.153,8.021-9.095,14.824-12.676
				C2836.322-121.525,2786.264-112.789,2812.689-134.201z"/>
			<path fill="#CCC1F4" d="M2812.689-134.201c-35.163,19.336-0.788,23.489,25.494,19.837c-0.143-0.286-0.286-0.645-0.286-1.003
				c-0.286-4.153,8.021-9.095,14.824-12.676C2836.322-121.525,2786.264-112.789,2812.689-134.201z M2857.592-416.935
				c0,0,71.185,22.058,27.069,71.9c-44.114,49.844-174.165,52.78-174.165,52.78s86.653,8.809,165.429-28.073
				c46.119-21.556,58.15-49.198,47.408-71.041C2911.731-398.1,2888.528-415.072,2857.592-416.935z M2777.67-370.528
				c-49.199,8.379-139.361,30.865-122.46,81.927c17.259,52.135,122.961,45.332,174.882,38.672
				c27.571-11.674,70.182-36.166,70.182-36.166s0.43,1.504-63.235,18.19c-63.736,16.687-188.918-0.215-172.447-43.899
				c16.472-43.756,143.372-62.949,143.372-62.949C2799.44-373.607,2789.057-372.318,2777.67-370.528z M2739.499-218.348
				c0,0-38.456,16.829-10.169,44.186c16.543,15.97,69.896,16.687,111.432,14.609c0.573-1.218,2.865-2.578,7.448-4.082
				c18.477-6.087,50.345-23.562,50.345-23.562s0.286,1.003-45.689,12.676c-45.977,11.674-136.282-0.143-124.395-30.579
				C2730.333-209.969,2734.271-214.338,2739.499-218.348z M2763.204-194.357c0,0,80.565,4.226,130.624-21.914
				c20.983-10.957,27.571-22.773,28.145-32.871c-2.363-0.357-5.156-1.504-8.164-3.724c-6.589-4.87-13.679-6.016-19.694-5.657
				c6.732,7.232,8.809,17.545-5.156,31.224C2857.09-196.22,2763.204-194.357,2763.204-194.357z"/>
		</g>
		<g>
			<circle fill="#A698DE" cx="3928.11" cy="-644.848" r="112.722"/>
			<circle fill="#7A65CD" cx="3928.11" cy="-644.848" r="79.342"/>
			<path fill="#4D2C80" fill-opacity="0.302" d="M4039.943-630.703c-7.807,61.731-64.167,105.488-125.97,97.682
				c-61.731-7.806-105.488-64.166-97.683-125.969c2.292-18.119,23.92-12.676,34.519-0.859
				c14.824,16.471,37.024,48.196,74.264,53.209c36.237,4.941,64.167-18.548,82.858-31.438
				C4019.963-646.458,4042.879-653.835,4039.943-630.703z"/>
			<path fill="#FFFFFF" fill-opacity="0.702" d="M3968.4-732.61c18.404,7.949,31.367,22.272,28.86,31.868
				c-2.507,9.597-19.407,10.886-37.884,2.865c-18.405-7.949-31.367-22.201-28.86-31.869
				C3932.951-739.342,3949.924-740.631,3968.4-732.61z"/>
			<path d="M3790.152-642.448c0,0,4.368-30.077,3.365-42.682c-1.002-12.604,31.01-36.738,41.967-41.035
				c10.957-4.226,19.693,1.289,7.52,12.819c-12.175,11.602-23.49,34.375-20.124,65.169c3.366,30.865,9.739,16.614,16.687,42.396
				c6.875,25.709,20.696,28.359,30.723,38.6c9.954,10.241,17.115,6.23,28.072-11.529c10.886-17.688,26.354-34.876,34.876-61.016
				c8.522-26.139,2.722-44.186,11.172-44.902c8.522-0.645,21.484,40.677,17.044,75.983c-4.439,35.306-19.049,54.856-1.146,57.147
				c17.976,2.292,34.661-18.763,55-32.154c13.679-8.952,23.991-34.948,25.065-50.918c2.291-24.85-3.725-48.626-15.827-68.606
				c3.151,0.788,3.223,0.286,9.238,3.366c21.197,10.813,16.758,56.646,20.625,79.491c2.936,17.689-7.592,25.925-18.118,51.491
				c-10.456,25.638-12.246,32.942-37.67,46.478c-25.423,13.606-49.844,25.853-47.695,47.838
				c2.148,21.986,10.742,31.726,1.074,41.536c-9.596,9.74-29.862,30.651-35.233,54.857c-5.371,24.205-60.872,482.106-60.872,482.106
				s-5.729,31.367,0.071,61.374c5.729,29.935,17.474,47.051,10.957,59.798c-6.517,12.819-36.452,52.422-41.25,68.033
				c-4.87,15.612,2.578,50.13-6.66,63.737c-9.238,13.606-19.766,21.771-17.116,43.828c2.722,22.057-19.049,59.296-25.924,63.593
				c-6.946,4.368-0.716-33.658-4.297-62.161c-3.652-28.574-21.628-83.216-10.527-111.646c11.101-28.359,30.436-53.424,20.983-78.99
				c-9.525-25.495-15.612-37.24-1.289-58.581c14.251-21.341,26.497-45.26,28.502-60.657c1.934-15.396,58.079-460.408,59.798-474.086
				c1.719-13.679-11.243-50.632-20.195-62.52c-8.951-11.816,6.875-19.98,11.387-35.02s-12.604-40.391-31.725-58.438
				s-32.084-34.732-33.659-58.651C3793.303-620.319,3786.5-630.417,3790.152-642.448z"/>
			<path fill="#4D4D4D" d="M3961.167-498.718c-7.09,6.803-11.172,14.609-10.241,24.205c2.148,21.986,10.742,31.726,1.074,41.536
				c-9.596,9.74-29.862,30.651-35.233,54.857c-5.371,24.205-60.872,482.106-60.872,482.106s-5.729,31.367,0.071,61.374
				c5.729,29.935,17.474,47.051,10.957,59.798c-4.583,9.095-20.911,31.51-31.797,49.414l0,0
				c-15.898,21.556-36.667,72.545-36.667,72.545c0.573-32.298,6.804-46.764,30.723-82.643c23.92-35.808,24.851-52.422,15.684-80.781
				c-9.166-28.359,1.146-91.308,1.146-91.308s37.74-299.205,46.048-365.305c8.379-66.101,15.254-122.818,35.162-142.871
				c19.909-20.052,10.886-26.998,15.397-55.931C3944.91-486.114,3953.289-494.206,3961.167-498.718z M3793.661-681.263
				c0-1.433,0-2.722-0.144-3.867c-1.002-12.604,31.01-36.738,41.967-41.035c10.957-4.226,19.693,1.289,7.52,12.819
				c-12.175,11.602-23.49,34.375-20.124,65.169c3.366,30.865,9.739,16.614,16.687,42.396c6.66,24.993,19.908,28.216,29.791,37.74
				c-7.161-3.938-18.047-7.376-29.361-12.317c-14.108-6.087-9.525-26.855-20.697-46.048s-2.721-64.453,3.725-73.906
				c6.373-9.453,0-12.031-18.405,5.944C3800.465-690.286,3796.813-685.846,3793.661-681.263z M3938.752-670.449
				c0.716-8.594,1.218-13.821,5.657-14.18c8.522-0.645,21.484,40.677,17.044,75.983c-4.439,35.306-19.049,54.856-1.146,57.147
				c1.289,0.144,2.578,0.215,3.867,0.144c-11.816,2.292-20.339-4.87-18.62-18.835c2.937-23.131,13.32-32.226,6.804-74.979
				C3949.207-665.938,3944.123-672.598,3938.752-670.449z M4033.14-685.846c-2.363-6.016-5.228-11.816-8.594-17.331
				c3.151,0.788,3.223,0.286,9.238,3.366c21.197,10.813,16.758,56.646,20.625,79.491c1.146,6.947,0.215,12.461-1.934,18.047
				c0-11.1-4.44-20.768-6.088-47.266C4045.027-672.884,4038.869-682.266,4033.14-685.846z"/>
		</g>
		<path d="M3797.385-69.892l-7.161-3.294c-28.646-13.393-35.735-62.019-16.829-85.723c9.668-12.103,25.924-18.262,39.961-11.101
			c6.731-6.23,15.755-10.025,24.563-12.103c10.886-2.435,25.566-3.079,35.735,2.005c9.955,4.941,22.773,16.113,30.866,23.705
			c9.524,8.88,22.486,22.486,25.137,35.521c3.867,18.906-0.215,36.881-3.725,55.501c-6.875,35.449-23.633,65.384-63.736,68.177
			c-15.97,1.074-33.587-0.43-48.125-7.52c-11.53-5.657-22.415-16.042-22.415-29.792c0-9.739,5.084-19.407,11.744-26.568
			C3800.966-63.732,3798.889-66.598,3797.385-69.892z"/>
		<path fill="#EEEAFF" d="M3806.838-154.396c0,0-10.313-6.589-20.267,5.943c-12.461,15.612-7.447,51.491,10.813,60.014
			c-3.294-11.96,3.796-25.639,11.029-29.863C3808.414-118.303,3796.955-133.844,3806.838-154.396z M3822.665-129.403
			c0,0-8.164-9.453-1.647-23.203c6.518-13.821,35.378-17.33,45.117-12.461c9.74,4.87,44.043,32.942,47.051,47.552
			s0.286,27.858-3.796,48.913c-4.01,21.126-12.962,52.207-48.339,54.642c-35.449,2.435-52.637-11.243-52.637-20.554
			c0-9.31,10.169-17.831,10.169-17.831s16.901,1.719,27.858,1.504c10.957-0.287,21.985-6.66,21.985-6.66
			s-46.979-0.287-55.931-19.694c-8.952-19.479,1.504-35.95,14.752-38.528c13.249-2.578,47.982,8.88,47.982,8.88
			S3868.212-130.334,3822.665-129.403z"/>
		<path fill="#CCC1F4" d="M3779.911-129.904c-1.504,16.399,4.799,35.521,17.474,41.465c-3.294-11.96,3.796-25.639,11.029-29.863
			c0,0-0.43-0.645-1.146-1.862c-2.291-3.294-7.949-10.026-16.9-10.742C3785.569-131.337,3782.203-130.836,3779.911-129.904z
			 M3820.373-133.199c1.361-2.721,5.371-5.299,14.609-7.09c23.418-4.583,37.24,26.068,39.818,32.37
			c-2.077-4.655-12.604-22.272-52.136-21.484C3822.665-129.403,3821.447-130.764,3820.373-133.199z M3904.735-50.27
			c-6.016,17.331-17.761,34.519-43.685,36.309c-35.449,2.435-52.637-11.243-52.637-20.554c0-9.31,10.169-17.831,10.169-17.831
			s16.901,1.719,27.858,1.504c10.957-0.287,21.985-6.66,21.985-6.66s-35.02-0.215-50.345-12.819
			C3835.126-90.66,3887.619-59.865,3904.735-50.27z"/>
	</g>
</g>
</svg>
