<?xml version="1.0" encoding="utf-8"?>
<!-- Generator: Adobe Illustrator 16.0.0, SVG Export Plug-In . SVG Version: 6.00 Build 0)  -->
<!DOCTYPE svg PUBLIC "-//W3C//DTD SVG 1.1//EN" "http://www.w3.org/Graphics/SVG/1.1/DTD/svg11.dtd">
<svg version="1.1" id="Layer_1" xmlns="http://www.w3.org/2000/svg" xmlns:xlink="http://www.w3.org/1999/xlink" x="0px" y="0px"
	 width="2200px" height="2250px" viewBox="4801.628 1207.015 2200 2250" enable-background="new 4801.628 1207.015 2200 2250"
	 xml:space="preserve">
<g id="Layer_x0020_1">
	<g id="_252881384">
		<path d="M6153.513,3203.876c-14.682-4.225-29.291-10.527-43.041-17.043c-20.41-9.74-40.248-20.912-59.584-32.514
			c-24.635-14.752-48.697-34.947-60.012-62.09c-6.732-16.113-7.807-31.295-5.586-48.412c1.574-11.744,1.217-19.836-0.359-31.365
			l-1.789-13.035l12.316-4.869c26.498-10.455,55.859-23.775,79.207-40.248l28.359-19.98l-1.863,34.662
			c-1.574,28.002,5.156,49.844,34.232,59.154C6248.614,3064.3,6311.349,3249.638,6153.513,3203.876z M5674.555,3028.136
			c29.074-9.311,35.807-31.152,34.303-59.154l-1.934-34.662l28.359,19.98c23.418,16.473,52.709,29.793,79.277,40.248l12.246,4.869
			l-1.791,13.035c-1.574,11.529-1.861,19.621-0.357,31.365c2.221,17.117,1.146,32.299-5.586,48.412
			c-11.314,27.143-35.377,47.338-60.014,62.09c-19.336,11.602-39.172,22.773-59.512,32.514c-13.82,6.516-28.43,12.818-43.109,17.043
			C5498.599,3249.638,5561.333,3064.3,5674.555,3028.136z"/>
		<g>
			<path fill="#EEEAFF" d="M6001.618,3010.159c1.002,7.734,2.721,17.475,0.357,35.879c-2.436,18.334-5.014,56.289,57.578,93.887
				c186.627,112.004,149.674,9.668,71.4-8.736c62.09,7.018,78.633,39.746,82.211,63.307c22.273-7.592,21.199-26.783,13.535-45.189
				c-17.188-41.25-61.371-53.209-61.371-53.209c26.496,1.646,44.184,11.314,55.93,24.205c-16.543-31.08-48.195-62.52-90.949-76.197
				c-42.754-13.605-47.41-49.484-45.977-76.055C6060.271,2985.022,6028.544,2999.562,6001.618,3010.159z"/>
			<path fill="#EEEAFF" d="M5808.403,3010.159c-1.074,7.734-2.793,17.475-0.359,35.879c2.363,18.334,5.014,56.289-57.648,93.887
				c-186.627,112.004-149.674,9.668-71.328-8.736c-62.161,7.018-78.633,39.746-82.285,63.307
				c-22.271-7.592-21.126-26.783-13.535-45.189c17.188-41.25,61.374-53.209,61.374-53.209
				c-26.426,1.646-44.187,11.314-55.859,24.205c16.472-31.08,48.125-62.52,90.88-76.197c42.824-13.605,47.406-49.484,45.975-76.055
				C5749.678,2985.022,5781.403,2999.562,5808.403,3010.159z"/>
		</g>
		<g>
			<path fill="#FFFFFF" d="M6179.149,3070.315c-14.035-11.029-30.363-20.268-48.84-26.211
				c-42.754-13.605-47.41-49.484-45.977-76.055c-3.867,2.723-7.879,5.371-12.104,7.949c-6.803,47.982,11.314,71.113,71.471,81.855
				C6155.589,3060.003,6167.548,3064.442,6179.149,3070.315z"/>
			<path fill="#FFFFFF" d="M5630.798,3070.315c14.037-11.029,30.437-20.268,48.843-26.211
				c42.824-13.605,47.406-49.484,45.975-76.055c3.867,2.723,7.877,5.371,12.104,7.949c6.803,47.982-11.244,71.113-71.473,81.855
				C5654.36,3060.003,5642.4,3064.442,5630.798,3070.315z"/>
		</g>
		<g>
			<path fill="#CCC1F4" d="M6001.618,3010.159c1.002,7.734,2.721,17.475,0.357,35.879c-2.436,18.334-5.014,56.289,57.578,93.887
				c122.389,73.404,148.6,54.713,130.123,27.93c-3.008,2.865-10.098,4.154-24.85,1.361c-41.967-8.094-140.65-61.947-141.869-102.195
				c-0.93-31.008,2.938-47.479-0.787-65.383C6015.153,3004.718,6008.206,3007.581,6001.618,3010.159z M6193.187,3155.823
				c12.963,12.174,18.189,26.641,19.979,38.672c22.273-7.592,21.199-26.783,13.535-45.189c-1.789-4.225-3.793-8.164-6.086-11.744
				c1.074,4.584,1.289,9.453,0.07,14.252C6216.892,3166.423,6201.923,3160.692,6193.187,3155.823z M6206.005,3107.771
				c5.945,3.652,11.027,7.877,15.254,12.531c-3.367-6.23-7.305-12.531-11.887-18.691
				C6209.298,3105.335,6207.579,3107.054,6206.005,3107.771z"/>
			<path fill="#CCC1F4" d="M5808.403,3010.159c-1.074,7.734-2.793,17.475-0.359,35.879c2.363,18.334,5.014,56.289-57.648,93.887
				c-122.39,73.404-148.6,54.713-130.124,27.93c3.008,2.865,10.098,4.154,24.851,1.361c41.965-8.094,140.723-61.947,141.867-102.195
				c0.932-31.008-2.936-47.479,0.859-65.383C5794.868,3004.718,5801.743,3007.581,5808.403,3010.159z M5616.762,3155.823
				c-12.891,12.174-18.118,26.641-19.98,38.672c-22.271-7.592-21.126-26.783-13.535-45.189c1.791-4.225,3.867-8.164,6.088-11.744
				c-1.074,4.584-1.218,9.453,0,14.252C5593.058,3166.423,5608.025,3160.692,5616.762,3155.823z M5603.944,3107.771
				c-5.944,3.652-10.957,7.877-15.183,12.531c3.294-6.23,7.233-12.531,11.816-18.691
				C5600.649,3105.335,5602.44,3107.054,5603.944,3107.771z"/>
		</g>
		<path d="M5607.739,2122.071c4.153-14.395,9.812-28.717,15.54-42.539c8.809-21.342,18.405-42.467,28.145-63.379
			c17.546-37.74,38.026-72.975,62.948-105.559l-3.508-7.305c-31.367-65.385-43.613-124.682-36.094-196.797
			c3.582-34.947,11.027-69.537,16.9-104.127c6.803-40.104,11.172-79.134,10.885-119.811c-0.143-10.385,3.367-20.84,12.748-26.354
			c10.025-5.873,21.342-3.152,30.508,2.793c9.311,5.943,17.545,15.254,24.135,23.99c23.703,31.009,42.467,73.548,56.574,109.713
			c15.326,39.244,24.492,81.139,29.648,122.891c2.221-0.215,4.441-0.359,6.66-0.502c3.08-0.143,6.303,0,9.74,0.357
			c12.604,0.789,25.352,4.154,37.885,9.383c26.566,9.094,54.855,22.414,73.832,29.934c44.402,20.625,89.52,45.834,128.764,74.98
			c11.529,8.521,22.701,17.545,33.301,27.213c21.055,19.193,41.822,41.25,58.15,65.242c10.887-5.371,24.207-9.168,35.594-9.383
			c11.816-0.215,24.563,2.221,30.723,13.607c5.441,10.098,2.219,20.912-3.223,30.078c-2.078,3.365-3.797,7.734-5.371,11.387
			c-2.578,6.158-5.016,12.389-7.449,18.619c-4.367,10.742-11.172,29.219-18.477,37.885c-11.816,14.035-44.615,20.768-62.949,24.492
			c4.082,9.238,8.021,18.547,11.816,27.857c5.658,14.252,11.172,28.932,15.039,43.756c6.945,26.354,7.879,51.777-14.967,68.248
			c-4.799,3.51-9.525,7.377-14.107,11.459l13.82,8.451c49.414,30.363,93.098,75.982,119.953,127.33l12.533,23.848
			c15.826,7.805,32.799,13.248,51.563,15.684l19.479,2.506c-4.797,3.008-8.951,7.162-12.102,12.104
			c-7.879,12.389-9.096,29.934-4.871,45.904c16.615-5.801,55.932-19.766,78.203-29.506l39.102,8.809
			c-36.451,15.254-65.383,24.42-103.912,34.662l-6.803,2.148c5.656,9.953,13.82,17.902,24.133,21.412l7.449,2.578
			c1.861,3.08,4.225,5.729,6.945,8.092c-5.943,7.879-9.953,17.977-8.951,27.645c0.645,5.943,3.223,11.027,6.947,15.254
			c-9.598-1.576-18.477-3.295-28.002-5.301c-16.328-3.438-34.447-5.441-50.346-7.305c3.295,47.48-7.018,94.674-28.145,137.143
			l-0.07,0.07c-0.359,0.717-0.717,1.434-1.074,2.148l-0.145,0.215c-0.285,0.717-0.645,1.361-1.002,2.006
			c-0.143,0.287-0.287,0.572-0.43,0.859c-0.287,0.43-0.502,0.932-0.717,1.432c-0.215,0.287-0.357,0.574-0.572,0.932
			c-0.215,0.43-0.43,0.859-0.645,1.289c-0.287,0.43-0.502,0.859-0.717,1.289c-0.215,0.287-0.357,0.645-0.5,0.932
			c-0.287,0.43-0.502,0.859-0.789,1.289c-0.143,0.285-0.285,0.572-0.43,0.93h-0.07c-0.359,0.717-0.789,1.434-1.219,2.221
			l-0.787,1.289c21.986,15.326,43.541,30.436,62.447,47.266c71.902,64.094,95.965,203.742-8.664,249.002
			c6.23-14.465,10.098-30.006,9.523-49.27c-1.432-52.207-39.674-87.729-82.855-111.217c-9.453-5.156-18.766-10.6-28.004-16.258
			c-16.973,15.184-33.586,30.438-54.281,40.463c9.594,20.123,20.266,36.451,32.797,54.57
			c-32.654,29.146-65.813,52.852-104.055,74.836c-158.195,90.592-283.592,90.592-441.717,0
			c-23.275-13.391-45.904-28.145-67.317-44.258c-13.104-9.883-24.635-19.766-36.81-30.578c12.533-18.119,23.203-34.447,32.8-54.57
			c-20.696-10.098-37.312-25.279-54.284-40.463c-9.238,5.658-18.548,11.102-28.001,16.258
			c-42.896,23.346-80.995,58.508-82.857,110.357c-0.716,19.621,3.151,35.377,9.524,50.129
			c-104.628-45.26-80.565-184.908-8.665-249.002c6.589-5.873,13.463-11.529,20.625-17.045c-27.285-0.215-53.711,3.367-79.063,11.102
			c-15.54,6.945-29.146,17.617-39.459,33.801c-58.652,91.596-32.942,166.719,12.461,227.662
			c-61.23-21.842-98.112-34.662-126.472-99.113c-3.365-7.734-6.373-15.756-8.88-23.992l-0.501,0.645l-0.932-5.371
			c-14.752-51.133-14.036-109.498-6.445-156.906l0.144-1.002l0.144-1.074c0.143-0.789,0.286-1.576,0.43-2.293
			c0.286-1.719,0.572-3.438,0.859-5.156c0.143-0.572,0.215-1.145,0.357-1.646c0.215-1.146,0.43-2.291,0.645-3.438
			c0.144-0.645,0.287-1.289,0.43-1.934c0.215-1.074,0.43-2.076,0.645-3.15c0.144-0.645,0.287-1.361,0.43-2.078
			c0.215-1.002,0.43-1.934,0.645-2.936c0.215-0.717,0.358-1.432,0.502-2.221c0.286-0.93,0.501-1.861,0.716-2.793
			c0.144-0.715,0.358-1.504,0.573-2.219c0.215-0.932,0.43-1.863,0.645-2.793c0.215-0.717,0.43-1.504,0.645-2.221
			c0.215-0.932,0.43-1.861,0.716-2.793c0.215-0.717,0.43-1.432,0.645-2.221c0.215-0.93,0.501-1.789,0.716-2.721
			c0.215-0.717,0.43-1.504,0.717-2.221c0.215-0.93,0.501-1.789,0.787-2.721c0.215-0.717,0.43-1.432,0.717-2.221
			c0.215-0.859,0.501-1.789,0.787-2.648c0.287-0.717,0.502-1.504,0.717-2.221c0.357-0.932,0.645-1.791,0.931-2.65
			c0.215-0.787,0.501-1.504,0.716-2.219c0.358-0.859,0.645-1.791,1.003-2.723c0.215-0.715,0.501-1.359,0.716-2.076
			c0.358-0.932,0.717-1.861,1.074-2.793c0.215-0.645,0.43-1.289,0.717-1.934c0.357-1.074,0.787-2.076,1.146-3.08
			c0.215-0.572,0.43-1.145,0.645-1.646c0.501-1.289,1.003-2.506,1.504-3.725c0.144-0.357,0.286-0.645,0.43-1.002
			c0.645-1.576,1.36-3.15,2.005-4.654c0.215-0.43,0.358-0.859,0.573-1.289c0.501-1.146,1.003-2.221,1.504-3.295
			c0.215-0.645,0.501-1.217,0.788-1.791c0.43-0.93,0.859-1.861,1.289-2.793c0.286-0.645,0.645-1.289,0.931-1.934
			c0.43-0.859,0.859-1.717,1.289-2.648c0.286-0.645,0.645-1.289,1.003-1.934c0.43-0.859,0.787-1.646,1.217-2.506
			c0.358-0.645,0.717-1.289,1.074-2.006c0.43-0.787,0.859-1.646,1.289-2.436c0.358-0.645,0.717-1.289,1.074-2.004
			c0.43-0.789,0.859-1.576,1.361-2.363c0.357-0.717,0.716-1.361,1.074-2.006c0.501-0.787,0.931-1.576,1.36-2.363
			c0.43-0.645,0.788-1.289,1.146-1.934c0.502-0.787,0.932-1.576,1.433-2.363c0.358-0.645,0.788-1.289,1.146-1.934
			c0.502-0.787,1.003-1.504,1.504-2.291c0.358-0.645,0.788-1.289,1.146-1.863c0.501-0.787,1.002-1.574,1.504-2.363
			c0.43-0.572,0.787-1.217,1.217-1.789c0.502-0.789,1.074-1.576,1.576-2.363c0.43-0.574,0.787-1.146,1.217-1.719
			c0.573-0.789,1.074-1.576,1.647-2.363c0.43-0.574,0.788-1.146,1.218-1.648c0.572-0.787,1.146-1.574,1.719-2.363
			c0.43-0.572,0.787-1.074,1.217-1.646c0.645-0.859,1.361-1.791,2.077-2.721c0.286-0.359,0.573-0.717,0.931-1.146
			c1.003-1.289,2.006-2.578,3.008-3.795c0.215-0.215,0.358-0.43,0.502-0.645c0.931-1.074,1.79-2.078,2.649-3.152
			c0.358-0.43,0.716-0.859,1.074-1.289c0.716-0.787,1.433-1.574,2.148-2.434c0.43-0.43,0.859-0.932,1.289-1.361
			c0.645-0.787,1.289-1.504,2.005-2.221c0.43-0.5,0.932-1.002,1.361-1.504c0.645-0.645,1.289-1.359,2.005-2.076
			c0.43-0.502,0.931-1.002,1.433-1.504c0.645-0.645,1.289-1.289,1.934-1.934c0.501-0.502,1.074-1.002,1.575-1.504
			c0.645-0.645,1.289-1.289,1.934-1.934c0.501-0.502,1.074-1.002,1.575-1.504c0.645-0.572,1.289-1.217,2.006-1.791
			c0.501-0.5,1.074-1.002,1.575-1.504c0.716-0.572,1.36-1.145,2.005-1.789c0.573-0.43,1.146-0.932,1.719-1.434
			c0.645-0.572,1.361-1.145,2.006-1.719c0.572-0.5,1.146-0.93,1.719-1.432c0.716-0.572,1.36-1.146,2.076-1.646
			c0.573-0.502,1.146-0.932,1.719-1.361c0.717-0.572,1.433-1.146,2.148-1.719c0.573-0.43,1.146-0.859,1.719-1.289
			c0.787-0.572,1.504-1.074,2.291-1.646c0.574-0.43,1.074-0.789,1.648-1.219c0.787-0.572,1.646-1.145,2.434-1.719
			c0.502-0.357,1.074-0.715,1.576-1.074c0.932-0.645,1.861-1.217,2.793-1.861c0.43-0.287,0.859-0.572,1.289-0.859
			c1.217-0.787,2.506-1.576,3.725-2.363c0.143-0.072,0.285-0.143,0.43-0.215c1.432-0.859,2.793-1.719,4.225-2.578
			c0.43-0.215,0.859-0.43,1.289-0.717c1.002-0.572,2.006-1.145,3.008-1.646c0.572-0.357,1.146-0.645,1.719-0.932
			c0.859-0.5,1.719-0.93,2.649-1.432c0.645-0.287,1.218-0.645,1.862-0.932c0.859-0.43,1.719-0.859,2.578-1.289
			c0.645-0.357,1.289-0.645,1.934-0.93c0.859-0.43,1.719-0.859,2.578-1.219c0.645-0.285,1.36-0.645,2.005-0.93
			c0.859-0.359,1.719-0.717,2.578-1.146c0.717-0.287,1.361-0.572,2.077-0.859c0.859-0.357,1.719-0.717,2.578-1.074
			c0.716-0.287,1.433-0.502,2.148-0.787c0.859-0.359,1.719-0.717,2.578-1.004c0.716-0.285,1.433-0.572,2.148-0.787
			c0.859-0.357,1.79-0.645,2.649-0.932c0.716-0.285,1.433-0.5,2.148-0.787c0.931-0.287,1.862-0.572,2.722-0.859
			c0.787-0.287,1.504-0.502,2.22-0.717c0.931-0.285,1.862-0.572,2.793-0.859c0.716-0.215,1.433-0.43,2.148-0.572
			c1.003-0.287,1.934-0.572,2.864-0.787c0.717-0.215,1.433-0.43,2.221-0.574c1.002-0.285,2.005-0.5,3.008-0.787
			c0.716-0.143,1.36-0.287,2.076-0.502c1.074-0.215,2.148-0.5,3.295-0.715c0.645-0.145,1.217-0.287,1.861-0.43h0.287
			c1.36-0.287,2.793-0.574,4.153-0.859c0.43-0.072,0.931-0.145,1.36-0.215c1.146-0.215,2.221-0.359,3.366-0.574
			c4.153-0.645,8.379-1.289,12.676-1.719c76.055-8.164,153.397,15.971,222.721,45.189l14.036,5.943l-4.582,14.539
			c-1.719,5.586-3.727,10.742-5.875,16.113c1.219-0.645,2.438-1.434,3.652-2.363c24.063-19.551,10.387-97.826,10.387-97.826
			s-3.797-1.504-9.023-3.15c2.719-26.641,3.293-53.209,2.504-77.846l-0.43-14.035c-6.301-5.73-12.388-11.746-18.261-17.832
			c-4.941-5.229-9.739-10.527-14.322-16.043c-2.507-3.008-5.371-6.301-7.52-9.596c-8.379-12.818,5.299-44.113,12.891-57.793
			c-0.717-0.5-1.504-1.074-2.221-1.646c-10.813-8.021-17.903-19.838-15.396-33.658c1.002-5.658,3.795-11.674,7.662-15.971
			c-0.501-0.43-1.074-0.787-1.575-1.146c-5.371-3.867-10.241-7.877-14.108-13.32
			C5599.217,2159.524,5602.655,2139.544,5607.739,2122.071z M6182.087,2558.13c11.744-15.396,19.121-33.156,20.195-52.422
			l0.07-0.285v-0.645c0-0.287,0-0.502,0.072-0.717v-0.215c0.143-4.439,0-8.951-0.502-13.463c-5.084-2.221-10.168-4.584-15.182-7.02
			c-10.742-5.299-21.914-10.24-33.301-14.25C6158.597,2500.337,6164.397,2527.837,6182.087,2558.13z"/>
		<path fill="#6B50D7" d="M5236.92,2806.56c22.415-31.295,96.965-135.207,253.729-123.678
			c42.181-30.148,95.604-40.533,137.785-71.758c2.507-70.324,9.883-69.25,17.832-94.602
			c-82.213-34.662-151.105-50.775-214.413-43.971C5273.515,2489.595,5213,2669.562,5236.92,2806.56z M6176.142,2222.976
			c24.063,14.752,78.848,53.783,113.867,120.813c-8.449-5.801-16.613-12.174-24.707-18.906c-14.109-11.816-27.43-24.42-41.25-36.594
			c-12.461-11.029-25.924-22.271-40.748-30.006l-1.861-0.932v-0.287l-0.645-13.678
			C6180.368,2236.224,6178.935,2229.349,6176.142,2222.976z M6285.21,2658.819c26.139-45.26,38.242-95.963,34.088-146.379
			c-9.738-1.361-17.473-2.865-21.555-4.869c0,0,1.574,2.721,4.082,5.943c-5.229-0.357-10.527-0.787-15.756-1.289
			c4.727,59.512-19.049,100.332-19.049,100.332c10.813-38.529,11.387-72.689,6.945-101.621c-9.094-1.146-17.973-2.721-26.781-5.014
			c-9.453-2.363-18.766-5.299-27.93-8.664c0.785,28.145-9.238,53.926-27.572,75.84
			C6216.603,2608.476,6250.763,2634.472,6285.21,2658.819z"/>
		<path fill="#4E32BC" d="M5236.92,2806.56c22.415-31.295,96.965-135.207,253.729-123.678c16.399-11.744,34.518-20.48,52.994-28.574
			C5444.602,2637.694,5277.668,2655.741,5236.92,2806.56z M6269.169,2647.29c30.65-38.314,33.301-86.295,26.426-134.205
			c2.076,0.143,4.152,0.287,6.23,0.43c-2.508-3.223-4.082-5.943-4.082-5.943c4.082,2.004,11.816,3.508,21.555,4.869
			c4.154,50.416-7.949,101.119-34.088,146.379C6279.841,2655.024,6274.47,2651.229,6269.169,2647.29z"/>
		<path fill="#A698DD" d="M5641.541,2529.985c1.647-4.367,3.223-8.879,4.727-13.463c-82.213-34.662-151.105-50.775-214.413-43.971
			c-77.2,8.307-131.125,55.357-163.352,117.232c32.369-39.174,70.182-73.189,112.076-90.162
			C5450.545,2471.263,5555.031,2497.187,5641.541,2529.985z M6289.937,2343.718c-26.568-39.676-61.803-73.119-108.781-92.598
			l-0.357-7.734c-0.43-7.162-1.863-14.037-4.656-20.41c24.063,14.752,78.848,53.783,113.867,120.813L6289.937,2343.718z
			 M6198.415,2582.122c-2.293-2.938-4.584-5.945-6.732-9.023c18.334-21.914,28.357-47.695,27.572-75.84
			C6226.2,2526.692,6216.962,2562.356,6198.415,2582.122z"/>
		<path fill="#6B50D7" d="M5638.82,2200.704c0,0,49.056,30.221,198.587,10.957c108.067-13.965,185.481-12.533,236.184-7.664
			c-19.121,2.865-38.602,7.664-57.006,15.469c-20.41,8.666-37.025,15.828-51.061,21.914c-33.445-3.652-112.219,3.008-171.946,30.652
			c0,0,99.4-22.703,156.407-23.777c-43.113,19.121-59.872,28.074-104.487,49.127c-62.162,29.291-85.508,34.877-100.547,28.002
			s-23.418-15.826-0.787-24.994c0,0-38.672,3.797-25.781,16.688c5.514,5.514,11.887,12.891,22.629,16.973
			c1.504,0.43,3.008,0.93,4.584,1.504c22.916,8.164,61.445-10.887,61.445-10.887c2.936-1.289,5.943-2.721,9.096-4.225
			c35.234-17.115,342.602-183.691,348.118-76.197c0,0-13.32-8.236-23.848-8.594c-10.6-0.357-11.102-0.357-11.102-0.357
			s15.971,6.588,27.859,18.332c9.238,9.238,2.506,20.125-4.871,22.988c-8.594,3.438-18.834,0.574-19.191,0.502l0,0
			c-17.617-4.512-40.893-6.016-70.039,1.289c-40.605,10.24-107.922,36.021-170.084,58.365
			c-139.721,49.342-176.244,25.996-186.842,19.193c-36.594-23.49-66.673-60.873-69.753-65.527
			c-4.654-7.234,14.682-41.822,14.682-41.822s26.138,22.559,29.862,27.355c3.652,4.871-21.127,4.012-21.127,4.012
			s24.707,12.102,37.455,5.514c12.676-6.588-36.236-46.549-53.353-59.225C5626.789,2213.595,5638.82,2200.704,5638.82,2200.704z"/>
		<path fill="#4E32BC" d="M5991.306,2230.28c-9.525,4.082-18.047,7.734-25.781,11.1c-33.445-3.652-112.219,3.008-171.946,30.652
			c0,0,99.4-22.703,156.407-23.777c-43.113,19.121-59.872,28.074-104.487,49.127c-62.162,29.291-85.508,34.877-100.547,28.002
			s-23.418-15.826-0.787-24.994c-4.941,0.43-36.023,4.441-26.641,15.684c18.834,57.363,109.068,31.082,150.82,14.539
			c56-21.342,123.176-49.199,181.04-60.443c54.07-10.527,85.293-3.365,102.91,6.445c-8.594,3.438-18.834,0.574-19.191,0.502
			c-17.617-4.512-40.893-6.016-70.039,1.289c-40.605,10.24-107.922,36.021-170.084,58.365l0,0
			c-139.721,49.342-176.244,25.996-186.842,19.193c-36.594-23.563-66.673-60.873-69.753-65.527
			c-4.654-7.234,14.682-41.822,14.682-41.822s26.138,22.559,29.862,27.355c3.652,4.871-21.127,4.012-21.127,4.012
			s0.645,0.357,1.793,0.859l0,0c0,0,19.906,18.26,36.521,15.324c9.311-1.576,5.014-12.676-3.15-23.488
			c-3.939-5.371-10.17-11.746-17.043-18.191c11.098,5.086,24.992,10.313,41.32,14.252c46.691,11.387,103.125-25.209,172.018-33.229
			C5942.821,2229.563,5977.271,2229.778,5991.306,2230.28z"/>
		<path fill="#A698DD" d="M5638.82,2200.704c0.859,0.572,50.345,30.078,198.587,10.957c82.93-10.672,147.811-12.391,196.438-10.313
			c-74.836,3.867-168.223,27.857-280.012,29.719C5661.52,2232.644,5641.613,2214.095,5638.82,2200.704z M5907.731,2275.255
			c91.451-42.611,220.285-93.172,250.221-50.99C6081.755,2207.794,5965.524,2251.12,5907.731,2275.255z"/>
		<path fill="#4E32BC" d="M5977.271,1770.015c32.152,14.969,105.701,51.922,157.766,99.33
			c68.32,62.375,77.414,105.846,77.414,105.846s2.723-9.883,0-20.84c-2.648-10.957-5.086-14.537-5.086-14.537
			s16.473-9.955,33.016-10.242c16.473-0.285,20.266,5.73,12.746,18.334s-21.625,56.074-29.719,65.67s-44.973,17.115-44.973,17.115
			s-1.504-38.242-8.738-63.234c-7.16-24.994-20.91-32.441-20.91-32.441c12.389,28.646,18.834,58.293,11.959,88.73
			c-1.146-2.363-2.221-4.727-3.295-7.09c-11.887-25.639-26.783-51.133-41.75-75.053c-1.074-1.646-2.078-3.293-3.152-4.941
			c-18.834-32.012-43.684-68.605-74.908-103.555C6020.954,1813.056,6000.185,1790.14,5977.271,1770.015z"/>
		<path fill="#EEEAFF" d="M5862.256,1879.155c0,0,42.325,36.021,63.881,32.441c21.555-3.58-10.172-38.744-10.172-38.744
			s56.504,6.303,57.578-12.102c1.074-18.477-55.645-20.697-55.645-20.697s29.793-19.551,29.793-30.65s-59.512-7.447-85.436,11.1
			c-1.719,1.219-3.365,2.436-4.869,3.652c-8.164,20.982-24.35,37.598-42.754,51.133c-26.355,19.336-50.203,54.068-70.541,93.385
			c-18.906,60.873-35.092,82.07-39.531,111.934c-0.43,2.936-0.859,6.016-1.361,9.311c-7.305-6.16-9.738-11.102-9.738-11.102
			c-7.305,55.357,17.76,96.607,58.867,123.965c32.441-0.43,63.307-4.01,83.43-6.588c78.059-10.098,160.489-15.326,239.049-7.734
			l0.932,0.143c30.006-26.783,46.836-63.379,40.748-109.785c0,0-2.363,4.941-9.74,11.102c-0.43-3.295-0.93-6.375-1.359-9.311
			c-4.584-31.08-21.914-52.779-41.895-119.738c-9.813-16.688-20.625-32.871-32.227-48.842
			c-10.242-14.107-21.199-28.145-32.871-41.752c-7.377-7.305-11.746-10.67-11.746-10.67c7.949,29.361-44.473,27.213-44.473,27.213
			s5.516,4.799,9.313,18.906C5961.157,1941.89,5889.04,1936.017,5862.256,1879.155z"/>
		<path fill="#CCC1F4" d="M5862.256,1879.155c0,0,42.325,36.021,63.881,32.441c21.555-3.58-10.172-38.744-10.172-38.744
			s56.504,6.303,57.578-12.102c0.504-8.523-11.313-13.607-24.203-16.615c5.297,4.297,9.379,10.17,2.363,15.684
			c-13.25,10.313-56.29,4.154-56.29,4.154s29.29,28.359,11.672,28.859C5889.542,1893.263,5862.256,1879.155,5862.256,1879.155z
			 M5917.899,1840.054c0,0,29.793-19.551,29.793-30.65c0-4.154-8.594-6.303-20.625-6.23
			C5935.591,1815.347,5917.899,1840.054,5917.899,1840.054z M5982.21,1877.079c-11.959,10.885-40.033,9.738-40.033,9.738
			s3.652,3.223,7.09,12.031c8.453,1.434,23.492,3.08,31.797-1.217C5988.153,1893.907,5985.505,1884.312,5982.21,1877.079z
			 M5944.614,1925.274c-12.176,6.875-36.738,2.508-57.436-14.25c7.807,14.107,22.057,34.088,39.604,34.088
			C5938.813,1945.112,5943.325,1935.731,5944.614,1925.274z"/>
		<path fill="#CCC1F4" d="M5693.461,2078.815c-7.305,55.357,17.76,96.607,58.867,123.965c32.441-0.43,63.307-4.01,83.43-6.588
			c78.059-10.098,160.489-15.326,239.049-7.734l0.932,0.143c30.006-26.783,46.836-63.379,40.748-109.785
			c0,0-2.865,98.971-210.33,106.42C5698.688,2192.61,5693.461,2078.815,5693.461,2078.815z"/>
		<path d="M5889.829,2086.622c-26.141-15.971-1.934-20.697,15.182-21.055c17.045,0.357,41.322,5.084,15.111,21.055
			C5906.013,2095.216,5903.937,2095.216,5889.829,2086.622z"/>
		<path fill="#4E32BC" d="M5730.485,2202.565c-4.797-6.158-10.098-12.604-15.969-18.906c-26.426-28.145-53.426-31.152-46.836-56.359
			c6.59-25.209,56.719-205.104,137.715-264.615s9.596-107.422,63.594-104.986c42.18,1.861,115.227,62.805,174.881,145.162
			c56.576,78.059,73.334,128.689,98.398,224.439c6.588,25.207-20.41,28.215-46.764,56.359c-2.006,2.148-3.939,4.297-5.801,6.445
			c11.529,1.289,21.699,2.506,38.027,3.51c7.09,0.43,14.465,1.789,21.484,4.797c8.736-8.951,17.975-17.043,26.354-23.131
			c21.627-15.611,16.758-46.549-32.299-152.109c-36.881-79.42-176.816-295.766-279.725-291.254
			c-68.965,3.008-27.572,65.957-50.99,97.18c-23.346,31.225-87.799,69.037-145.879,194.074
			c-58.078,125.111-53.925,136.498-32.297,152.109c3.652,2.65,7.448,5.658,11.387,8.951
			C5667.965,2196.622,5698.975,2201.491,5730.485,2202.565z"/>
		<path fill="#A698DD" d="M6180.726,2113.62c-6.875-21.699-19.049-50.846-37.455-90.449
			c-36.881-79.42-176.816-295.766-279.725-291.254c-68.965,3.008-27.572,65.957-50.99,97.18
			c-19.336,25.781-66.602,56.074-115.227,136.283c17.975-24.852,21.699-31.225,58.723-70.469
			c16.113-17.117,37.24-34.877,50.418-47.695c17.043-16.686,24.205-28.287,24.922-53.998c0.572-22.701,2.148-37.955,12.174-44.4
			c43.828-28.145,137.786,54.355,171.803,96.035C6073.089,1915.536,6139.618,2015.437,6180.726,2113.62z"/>
		<path fill="#A698DD" d="M5977.271,1770.015c32.152,14.969,105.701,51.922,157.766,99.33
			c50.201,45.832,68.463,81.426,74.551,97.109l0,0c0,0-77.488-107.852-195.223-159.986
			C6002.978,1794.149,5990.446,1781.616,5977.271,1770.015z M6211.591,1950.913c-2.293-8.307-4.227-11.1-4.227-11.1
			s16.473-9.955,33.016-10.242c7.59-0.143,12.461,1.074,14.824,3.652c-6.086,0-12.316,0.574-17.902,2.148
			C6221.544,1939.884,6214.454,1947.118,6211.591,1950.913z"/>
		<path fill="#392589" d="M6149.216,2198.411c8.736-8.951,17.975-17.043,26.354-23.131c10.885-7.877,15.039-19.623,10.24-42.826
			c-2.506,11.244-9.953,21.557-27.428,25.781c-25.424,6.088-48.053,20.625-63.236,32.441c9.453,1.074,18.836,2.078,32.586,2.938
			C6134.821,2194.044,6142.196,2195.403,6149.216,2198.411z M6254.63,1945.112c-0.43,0.859-0.93,1.791-1.504,2.793
			c-7.52,12.604-21.625,56.074-29.719,65.67s-44.973,17.115-44.973,17.115s-1.146-28.287-6.016-52.063
			c8.379,6.588,23.346,16.184,38.742,14.967C6227.634,1992.306,6236.298,1961.728,6254.63,1945.112z M6161.532,1975.763
			c2.793,15.756,2.865,31.725-0.787,47.982c-1.146-2.363-2.221-4.727-3.295-7.09c-7.662-16.4-16.471-32.729-25.781-48.627l0,0
			c0,0,6.303,7.949,18.334,9.238C6155.374,1977.841,6159.099,1976.909,6161.532,1975.763z M5627.719,2114.624
			c-14.395,41.678-7.734,50.271,6.66,60.656c3.652,2.65,7.448,5.658,11.387,8.951c21.984,12.318,52.637,17.188,83.859,18.334
			c-7.949-7.447-29.576-25.137-74.048-44.33C5638.891,2151.003,5630.798,2134.532,5627.719,2114.624z"/>
		<path fill="#A698DD" d="M5602.296,2880.466c0,0,138.573,123.607,302.714,129.623c164.068-6.016,302.643-129.623,302.643-129.623
			c-47.91-69.107-61.59-154.615-64.668-178.748c-10.742-10.6-21.055-21.557-30.938-32.943
			c-37.957-39.459-63.379-79.922-77.059-124.18c-20.338-65.885-11.027-182.902,5.301-245.064
			c-38.887,12.605-126.184,45.547-177.174,61.088c-36.094,11.029-62.877,15.898-78.418,18.047
			c1.217,11.172,2.221,24.277,2.936,38.672c0.932,13.248,1.289,26.641,0.932,40.031c0.072,59.154-5.943,126.258-24.994,162.852
			c-3.438,6.66-7.305,13.105-11.457,19.264c38.742-16.256,100.332-62.877,172.161-193.072c0,0-71.686,179.395-186.485,212.193
			c-17.832,21.27-39.316,39.604-61.586,56.004c-4.156,3.078-8.379,6.158-12.676,9.166
			C5656.793,2760.368,5640.324,2825.61,5602.296,2880.466z"/>
		<path fill="#867BB3" d="M5602.296,2880.466c0,0,22.057,19.693,59.009,43.686c2.578-16.543,6.375-37.74,16.473-63.021
			c24.922-62.09,24.922-142.01,65.598-193.215c4.727-5.943,9.668-11.674,14.682-16.83c-6.588,3.008-13.393,5.516-20.268,7.52h-0.07
			l0,0c-17.762,21.27-39.246,39.604-61.516,56.004c-4.156,3.078-8.379,6.158-12.676,9.166
			C5656.793,2760.368,5640.324,2825.61,5602.296,2880.466z M5773.096,2596.157c-2.721,8.951-5.873,17.045-9.525,24.063
			c-3.438,6.66-7.305,13.105-11.457,19.264c32.012-13.391,79.492-47.48,135.494-132.127c-25.209,28.287-96.035,90.734-92.885,66.314
			c4.012-31.152,5.945-67.676,6.947-100.045c1.361-45.404-1.791-81.068,12.891-82.285c21.342-1.791,117.303-20.41,161.706-39.889
			c44.4-19.48,15.611,81.926,27.643,159.27c8.666,55.932,51.061,118.379,73.979,148.742
			c15.254,73.191,35.305,158.984,54.283,199.877c10.6,22.844,13.463,46.404,12.818,67.174
			c39.174-25.066,62.664-46.049,62.664-46.049c-47.91-69.107-61.59-154.615-64.668-178.748
			c-10.742-10.6-21.055-21.557-30.938-32.943c-16.758-17.475-31.082-35.092-43.041-53.209l0,0
			c-15.111-22.773-26.354-46.264-34.018-70.971c-20.338-65.885-11.027-182.902,5.301-245.064
			c-38.887,12.605-126.184,45.547-177.174,61.088c-36.094,11.029-62.877,15.898-78.418,18.047
			c1.217,11.172,2.221,24.277,2.936,38.672c0.932,13.248,1.289,26.641,0.932,40.031
			C5788.637,2505.208,5784.698,2558.274,5773.096,2596.157L5773.096,2596.157z"/>
		<path fill="#4E32BC" d="M5431.353,2928.519c-3.008-40.246,11.243-95.389,91.165-138.932
			c116.229-63.377,193.287-111.145,227.232-176.529c26.211-50.486,26.139-171.086,19.479-232.746
			c-39.531,3.939-59.01-2.363-89.232-23.99c-0.43,5.299,0.359,17.33,0.789,23.061c7.734,97.752,38.6,214.412-70.325,262.824
			c-32.585,14.537-73.118,32.727-130.625,70.611c-28.932,23.131-53.209,49.27-65.599,86.797
			C5400.201,2842.224,5402.708,2890.778,5431.353,2928.519z"/>
		<path fill="#A698DD" d="M5694.606,2366.062c-4.654-2.865-9.523-6.088-14.609-9.74c-0.43,5.299,0.359,17.33,0.789,23.061
			c7.734,97.752,38.6,214.412-70.325,262.824c-32.585,14.537-73.118,32.727-130.625,70.611
			c-21.556,17.26-40.533,36.094-53.925,60.156c16.113-20.268,37.955-39.459,67.174-56.146
			c105.059-60.084,183.619-52.207,205.533-183.762C5709,2470.761,5696.325,2411.679,5694.606,2366.062z"/>
		<path fill="#392589" d="M5690.454,2515.233c-1.934,40.678-12.676,77.773-44.329,104.914c0.931,10.027,5.657,19.695,12.962,26.641
			c13.391,12.82,37.525,17.547,51.563,2.865c4.01-4.225,6.516-9.453,7.59-15.182l0.789-4.227
			c6.373-4.297,10.957-10.598,12.961-18.404l1.719-6.518c11.674-10.168,12.533-29.146,7.52-43.326
			C5734.137,2541.587,5715.875,2509.862,5690.454,2515.233z"/>
		<path fill="#392589" d="M5770.805,2397.786c-0.43-5.943-1.004-11.744-1.576-17.475c-29.648,2.938-47.982,0.145-68.033-10.527
			c11.887,12.82,28.859,26.068,49.199,27.572C5757.555,2397.858,5764.36,2398.001,5770.805,2397.786z"/>
		<path fill="#25185A" d="M5572.362,2777.915c15.469,13.82,30.078,27.07,48.482,35.879c12.891-30.438,22.272-63.309,27.715-94.674
			C5624.783,2740.675,5599.217,2760.368,5572.362,2777.915z"/>
		<path fill="#25185A" d="M6237.587,2777.915c-15.469,13.82-30.078,27.07-48.41,35.879c-12.963-30.438-22.344-63.309-27.787-94.674
			C6185.165,2740.675,6210.731,2760.368,6237.587,2777.915z"/>
		<path d="M5861.182,2120.425c0,0,7.232,4.941,17.689,0.285c10.527-4.654,59.297-14.465,77.055-21.125
			c17.762-6.66,13.395-18.691,13.395-18.691s9.453,5.084,5.871,17.33s-48.84,20.41-76.34,27.643
			c-12.176,3.152-19.266,4.941-23.992,5.658C5867.485,2132.741,5854.879,2130.593,5861.182,2120.425z"/>
		<path fill="#392589" d="M6052.034,2311.276c1.146-5.443,2.291-10.814,3.438-16.186c3.008-0.859,5.801-1.576,8.521-2.291
			c17.762-4.439,33.301-5.658,46.766-4.869C6090.204,2293.874,6068.935,2303.112,6052.034,2311.276z"/>
		<path fill="#EEEAFF" d="M6175.569,2273.177c49.057,25.566,97.752,106.992,191.281,119.023
			c-14.467,25.924-2.148,71.328,26.998,81.354l7.449,2.578c1.861,3.08,4.225,5.729,6.945,8.092
			c-5.012,6.66-8.736,15.039-9.023,23.348c-22.486-3.652-60.084-10.098-76.412-10.672c-22.416-0.859-70.037-20.41-70.037-20.41
			s7.23,7.664,14.32,12.676c7.02,4.941,7.02,4.941,7.02,4.941s-33.73-3.223-79.922-25.852
			c-15.539-7.592-30.148-13.607-43.828-17.832c-4.941-36.811-5.371-74.479-3.58-108.783c0.787-16.041,1.504-32.082,2.221-48.125
			c3.078-0.43,6.086-1.217,9.023-2.363C6166.761,2287.716,6172.849,2280.983,6175.569,2273.177z"/>
		<path fill="#FFFFFF" d="M6175.569,2273.177c49.057,25.566,97.752,106.992,191.281,119.023c-1.791,3.15-3.15,6.588-4.082,10.17
			c-78.346-5.945-144.232-78.777-201.521-112.723C6168.265,2285.925,6173.206,2279.981,6175.569,2273.177z"/>
		<path fill="#CCC1F4" d="M6146.278,2402.44c40.965,14.682,78.703,40.678,78.703,40.678s-6.156-10.742-8.164-13.248
			c-1.934-2.508-1.934-2.508-1.934-2.508s44.617,29.291,96.537,41.107c32.441,7.447,63.881,11.172,96.822,15.754
			c-5.012,6.66-8.736,15.039-9.023,23.348c-22.486-3.652-60.084-10.098-76.412-10.672c-28.789-1.074-70.037-20.41-70.037-20.41
			s7.23,7.664,14.32,12.676c7.02,4.941,7.02,4.941,7.02,4.941s-33.73-3.223-79.922-25.852
			c-15.539-7.592-30.148-13.607-43.828-17.832C6148.212,2434.452,6146.923,2418.339,6146.278,2402.44z"/>
		<path fill="#EEEAFF" d="M5839.625,1718.882c-4.869-39.961-13.678-81.425-28.717-120.096
			c-50.631-129.551-91.811-146.166-91.596-116.374c1.289,171.015-72.401,248.716,6.732,413.573
			c4.584-5.516,9.311-10.957,14.18-16.328c11.602-12.82,23.775-24.779,36.166-36.738c3.078-3.008,6.373-6.088,9.668-9.311
			c-0.789-129.049-47.553-241.912-47.553-241.912c44.76,65.313,58.438,155.188,59.082,229.381c0.502-0.717,1.074-1.361,1.576-2.078
			c0.645-0.859,1.145-1.789,1.646-2.721c3.58-7.377,3.365-19.121,3.223-27.143c-0.143-16.328-0.859-33.516,7.447-48.268
			C5817.999,1729.267,5828.096,1722.534,5839.625,1718.882z"/>
		<path d="M5949.911,1757.554c3.512-55.645,13.18-112.792,33.516-164.855c14.109-36.165,32.871-78.704,56.576-109.713
			c6.588-8.736,14.824-18.047,24.135-23.99c9.166-5.945,20.48-8.666,30.508-2.793c9.453,5.514,12.891,15.969,12.818,26.354
			c-0.357,40.677,4.01,79.707,10.814,119.811c5.871,34.59,13.32,69.18,16.973,104.127c7.375,71.113-4.369,129.693-35.02,194.289
			l-8.523,18.119C6052.679,1860.249,6001.044,1795.224,5949.911,1757.554z"/>
		<path fill="#EEEAFF" d="M5966.454,1761.493c3.152-52.064,12.031-110.071,32.586-162.707
			c50.631-129.551,91.809-146.166,91.594-116.374c-1.217,170.228,71.758,247.929-5.586,411.21
			c-13.75-19.91-29.504-40.463-47.408-60.516c-4.225-5.084-8.666-10.311-13.393-15.682c4.297-122.176,47.195-225.729,47.195-225.729
			c-41.537,60.585-56.289,142.369-58.725,213.053C5998.61,1789.565,5983.212,1773.812,5966.454,1761.493z"/>
		<path fill="#FFFFFF" d="M5839.625,1718.882c-4.869-39.961-13.678-81.425-28.717-120.096
			c-50.631-129.551-91.811-146.166-91.596-116.374c0.287,40.534-3.58,75.84-8.736,108.353c6.803-20.481,11.889-39.889,13.393-55.859
			c5.943-64.883,37.311-8.379,62.16,45.045c15.971,34.375,31.512,86.869,42.611,143.658
			C5832.178,1721.675,5835.831,1720.101,5839.625,1718.882z"/>
		<path fill="#FFFFFF" d="M5966.454,1761.493c3.152-52.064,12.031-110.071,32.586-162.707
			c50.631-129.551,91.809-146.166,91.594-116.374c-0.285,40.534,3.652,75.84,8.738,108.353
			c-6.805-20.481-11.889-39.889-13.393-55.859c-5.943-64.883-37.311-8.379-62.09,45.045
			c-20.053,43.041-39.316,114.369-50.201,186.986C5971.825,1765.503,5969.392,1763.642,5966.454,1761.493z"/>
		<path fill="#CCC1F4" d="M5741.157,1878.653c11.314-12.461,23.131-24.063,35.234-35.734c3.078-3.008,6.373-6.088,9.668-9.311
			c-0.574-86.08-21.484-164.855-35.379-207.896c-17.33,31.727-40.246,89.088-32.154,160.631
			C5722.536,1821.507,5731.202,1852.587,5741.157,1878.653z"/>
		<path fill="#CCC1F4" d="M6070.726,1873.642c-10.098-13.535-21.127-27.143-33.086-40.535c-4.225-5.084-8.666-10.311-13.393-15.682
			c2.793-79.637,22.059-151.393,35.092-191.713c17.26,31.727,40.176,89.088,32.084,160.631
			C6087.698,1819.286,6079.821,1848.647,6070.726,1873.642z"/>
		<g>
			<path d="M5780.616,1980.704c-7.877,0.145-8.092-11.816-0.215-11.959c0.143,0,47.48-8.451,85.508,24.85
				c5.943,5.229-0.287,14.395-6.803,9.883c-1.934-1.361-4.012-2.65-6.016-3.867c0.645,2.148,1.145,4.297,1.432,6.588
				c3.008,19.695-7.232,37.598-22.846,39.961c-15.539,2.363-30.578-11.816-33.586-31.51c-1.863-12.461,1.504-24.135,8.164-31.654
				C5791.286,1980.419,5780.688,1980.704,5780.616,1980.704z"/>
			<path d="M6029.333,1980.704c7.877,0.145,8.092-11.816,0.215-11.959c-0.145,0-47.41-8.451-85.508,24.85
				c-5.945,5.229,0.285,14.395,6.805,9.883c2.004-1.361,4.008-2.65,6.016-3.867c-0.645,2.148-1.074,4.297-1.434,6.588
				c-3.008,19.695,7.234,37.598,22.844,39.961c15.541,2.363,30.58-11.816,33.588-31.51c1.861-12.389-1.504-24.135-8.092-31.654
				C6018.661,1980.419,6029.261,1980.704,6029.333,1980.704z"/>
		</g>
		<g>
			<path fill="#FFFFFF" d="M5834.237,1993.591c4.244,0.889,7.311,6.572,6.846,12.695c-0.465,6.125-4.285,10.371-8.529,9.484
				s-7.311-6.572-6.846-12.695C5826.172,1996.95,5829.993,1992.704,5834.237,1993.591z"/>
			<path fill="#FFFFFF" d="M5975.712,1993.591c-4.246,0.889-7.311,6.572-6.846,12.695c0.465,6.125,4.283,10.371,8.529,9.484
				c4.244-0.887,7.309-6.572,6.844-12.695C5983.774,1996.95,5979.956,1992.704,5975.712,1993.591z"/>
		</g>
		<path fill="#4E32BC" d="M6378.595,2928.519c3.008-40.246-11.242-95.389-91.164-138.932
			c-116.158-63.377-190.709-153.684-224.727-219.066c-28.859-55.645-28.789-142.871-20.051-205.963
			c3.078-21.844,7.662-46.049,12.818-69.467c3.008-0.859,5.801-1.576,8.521-2.291c28.861-7.232,51.922-5.873,69.467-1.434
			c-0.717,16.543-1.432,33.016-2.291,49.486c-3.797,72.832,2.506,158.053,37.096,222.793
			c61.443,114.869,192.428,129.549,227.447,235.969C6409.747,2842.224,6407.241,2890.778,6378.595,2928.519z"/>
		<path fill="#A698DD" d="M6123.29,2289.29c3.582,0.572,7.02,1.289,10.17,2.076c-0.717,16.543-1.432,33.016-2.291,49.486
			c-3.797,72.832,2.506,158.053,37.096,222.793c57.436,107.42,175.74,127.258,219.426,216.346
			c-18.404-24.063-43.613-46.691-76.699-67.818c-90.162-57.363-129.406-95.318-156.334-144.66
			C6108.036,2482.22,6114.339,2382.175,6123.29,2289.29z"/>
		<path fill="#4E32BC" d="M5325.364,2940.05c0,0-51.992-18.621-76.341-77.486c-23.347-56.434,57.937-120.457,87.44-127.975
			C5301.875,2788.728,5279.602,2861.704,5325.364,2940.05z"/>
		<path d="M5886.032,2125.151c0.145,0.93,0.359,1.861,0.502,2.793c0.645,3.723,1.504,9.309,2.936,12.746
			c2.221,5.514,8.881,6.803,14.11,7.09c0.43,0,0.93,0,1.432,0c0.43,0,0.932,0,1.361,0c5.297-0.287,11.887-1.576,14.18-7.09
			c1.43-3.438,2.219-9.023,2.863-12.746c0.43-2.363,0.789-4.799,1.219-7.234l0.785-5.299c-10.813,2.793-22.199,5.299-31.366,7.734
			C5891.045,2123.933,5888.395,2124.577,5886.032,2125.151z"/>
		<path fill="#FFFFFF" d="M5905.011,2142.052c-4.44-0.072-9.167-0.932-10.241-3.51c-0.789-1.861-1.719-6.373-2.508-11.027
			c1.146-0.287,2.363-0.645,3.652-0.932c6.733-1.791,14.754-3.652,22.844-5.586c-1,6.158-2.434,14.824-3.578,17.545
			C5914.106,2141.12,5909.38,2141.979,5905.011,2142.052z"/>
		<path d="M5646.625,2465.103c0.645,0.932,1.146,1.934,1.719,2.865c9.883,17.76,28.289,38.242,44.113,51.42l10.242,8.449
			l-51.706,88.301l-11.028-2.363c-59.01-12.461-98.541-35.592-127.975-84.289c-9.167-15.111-9.382-21.127-15.325,1.934
			c-15.612-22.273-21.771-44.76-14.467-81.713c13.249-67.246,77.2-129.908,134.778-162.492l12.175-6.875l8.164,11.387
			c1.719,2.291,3.58,4.582,5.442,6.803c4.44,5.229,9.023,10.313,13.75,15.326c5.586,5.871,11.387,11.602,17.402,17.043l4.941,4.441
			l0.645,20.625c0.859,28.502,0,57.219-3.152,85.578l-0.93,7.662l-6.59,3.939C5661.95,2457.226,5654.289,2461.522,5646.625,2465.103
			z"/>
		<path fill="#EEEAFF" d="M5624.64,2300.819c-50.13,28.359-139.791,104.344-128.548,190.352c2.649-13.32,4.941-15.111,12.031-2.148
			c2.292,4.225,5.013,9.596,8.093,15.756c27.857,56.002,64.954,80.637,126.972,93.742l25.852-44.113
			c2.652-9.74,4.297-19.98,5.156-30.438c-10.383-9.811-28.215-28.145-39.458-48.41c-15.254-27.357-54.499-42.324-79.851-21.414
			c20.769-28.645,61.804-18.689,83.073,1.361c6.158-3.295,20.122-10.885,32.442-18.047c-2.793-30.578-8.883-66.387-8.883-96.465
			C5649.418,2329.394,5634.451,2314.427,5624.64,2300.819z"/>
		<path fill="#FFFFFF" d="M5624.64,2300.819c-32.083,18.119-80.423,55.859-108.066,103.197
			c38.815-40.963,85.078-72.26,117.376-91.523C5630.583,2308.554,5627.433,2304.616,5624.64,2300.819z"/>
		<path fill="#CCC1F4" d="M5513.208,2410.104c-13.393,24.992-20.84,52.492-17.116,81.066c2.649-13.32,4.941-15.111,12.031-2.148
			c2.292,4.225,5.013,9.596,8.093,15.756c27.857,56.002,64.954,80.637,126.972,93.742l13.605-23.203l0,0
			c-100.832-18.332-132.342-86.438-139.861-114.941C5512.492,2443.618,5512.492,2423.64,5513.208,2410.104z M5607.954,2438.749
			c11.315,3.15,22.058,9.311,30.007,16.758c6.158-3.295,20.122-10.885,32.442-18.047c-1.648-18.117-4.441-38.027-6.445-57.506l0,0
			C5655.793,2408.815,5621.56,2430.944,5607.954,2438.749z"/>
		<path d="M5727.407,2584.341l-1.719,6.518c-2.006,7.805-6.59,14.107-12.963,18.332l-0.787,4.297
			c-1.074,5.73-3.582,10.957-7.592,15.184c-14.037,14.609-38.1,9.953-51.562-2.865c-10.17-9.668-15.254-24.635-12.246-38.457
			c2.864-13.391-1.719-12.316-2.507-24.635c-1.074-16.9,5.085-35.592,20.125-44.83c7.16-4.369,4.008-6.016,8.664-12.605
			c3.152-4.512,7.52-7.734,12.605-9.668c27.928-10.598,47.98,23.777,55.5,45.332
			C5739.938,2555.194,5739.079,2574.173,5727.407,2584.341z"/>
		<path fill="#EEEAFF" d="M5721.391,2545.741c-6.088-17.402-20.84-42.754-36.811-36.666c-16.111,6.086-6.443,32.227,3.795,49.557
			C5708.643,2592.72,5730.629,2572.167,5721.391,2545.741z M5654.575,2590.429c-1.862,8.594,1.359,18.477,8.094,24.922
			c9.238,8.809,24.061,10.885,31.223,3.365c2.148-2.221,3.365-4.941,3.867-7.807c-13.75,1.146-29.934-8.092-39.172-16.543
			C5657.223,2593.077,5655.864,2591.788,5654.575,2590.429z M5665.747,2530.13c-2.148,1.359-14.681,10.025-13.32,31.652
			c1.504,23.633,34.518,42.182,47.623,37.74c7.807-2.648,10.67-8.234,11.744-12.244c-5.156,0.357-10.24-1.074-14.824-3.797
			c-7.59-4.439-13.463-11.959-17.832-19.406c-2.504-4.154-4.797-8.523-6.801-13.035
			C5669.614,2544.954,5666.891,2537.577,5665.747,2530.13z"/>
		<path fill="#CCC1F4" d="M5675.989,2524.042c0.285,10.527,6.229,24.135,12.387,34.59c16.688,28.145,34.59,19.049,35.164,0.143
			c-3.51,2.578-7.734,3.939-12.82,3.008C5696.182,2559.134,5682.79,2537.22,5675.989,2524.042z M5653.071,2550.468
			c2.723,10.742,8.379,21.557,19.48,28.717c30.148,19.336,39.242,8.094,39.242,8.094c-1.074,4.01-3.938,9.596-11.744,12.244
			c-13.105,4.441-46.119-14.107-47.623-37.74C5652.14,2557.558,5652.426,2553.763,5653.071,2550.468z M5654.575,2590.429
			c-1.862,8.594,1.359,18.477,8.094,24.922c9.238,8.809,24.061,10.885,31.223,3.365c2.148-2.221,3.365-4.941,3.867-7.807
			c-13.75,1.146-29.934-8.092-39.172-16.543C5657.223,2593.077,5655.864,2591.788,5654.575,2590.429z"/>
		<g>
			<circle fill="#A698DE" cx="6458.804" cy="2091.134" r="112.721"/>
			<circle fill="#7A65CD" cx="6458.804" cy="2091.133" r="79.349"/>
			<path fill="#4D2C80" fill-opacity="0.302" d="M6571.524,2091.134c0,62.232-50.488,112.721-112.721,112.721
				s-112.721-50.488-112.721-112.721c0-18.262,22.199-15.611,34.16-5.229c16.758,14.467,42.754,43.184,80.352,43.543
				c36.523,0.285,61.301-26.426,78.203-41.609C6549.755,2078.028,6571.524,2067.788,6571.524,2091.134z"/>
			<path fill="#FFFFFF" fill-opacity="0.702" d="M6487.735,1998.966c19.336,5.658,33.945,18.189,32.656,28.002
				c-1.219,9.811-17.902,13.248-37.168,7.662c-19.336-5.658-33.945-18.189-32.656-28.002
				C6451.786,1996.745,6468.472,1993.38,6487.735,1998.966z"/>
			<path d="M6322.235,2110.757c0,0,0.572-30.438-2.006-42.754c-2.578-12.391,26.139-40.391,36.523-45.977
				c10.313-5.586,19.623-1.219,9.023,11.816c-10.67,12.961-18.979,37.023-11.816,67.174c7.232,30.15,11.816,15.182,21.842,39.889
				c10.098,24.707,24.135,25.566,35.307,34.518c11.244,8.881,17.832,4.012,26.426-14.967c8.666-18.979,21.842-37.883,26.998-64.883
				c5.156-26.998-2.863-44.258,5.516-45.977c8.307-1.719,26.354,37.598,26.354,73.262c0,35.592-12.031,56.861,6.088,56.861
				c18.047,0,32.012-22.988,50.488-38.814c12.461-10.598,19.406-37.668,18.477-53.711c-0.859-24.85-9.742-47.766-24.207-66.027
				c3.152,0.357,3.152-0.145,9.453,2.148c22.488,8.092,23.777,54.141,30.508,76.34c5.156,17.117-4.369,26.641-11.531,53.354
				c-7.16,26.711-8.02,34.16-31.582,50.846c-23.559,16.615-46.262,31.869-41.32,53.354c4.871,21.555,14.609,30.148,6.301,41.105
				c-8.305,10.885-25.852,34.16-28.143,58.867s0,485.902,0,485.902s-1.719,31.869,7.734,60.873s23.275,44.473,18.404,58.008
				c-4.869,13.463-29.576,56.574-32.441,72.617c-2.863,16.111,8.881,49.412,1.434,64.094c-7.52,14.609-16.973,24.063-11.531,45.619
				c5.443,21.555-11.457,61.158-17.76,66.314c-6.373,5.227-4.869-33.301-12.104-61.158c-7.16-27.859-31.867-79.779-24.42-109.355
				c7.52-29.648,23.561-56.861,10.957-80.996c-12.676-24.135-20.123-35.092-8.666-58.008c11.531-22.988,20.697-48.268,20.697-63.809
				c0-15.469,0-464.061,0-477.811c0-13.82-17.475-48.84-27.857-59.439c-10.313-10.67,4.297-20.695,6.875-36.164
				c2.648-15.541-17.475-38.529-38.744-53.998c-21.27-15.541-36.166-30.436-40.748-53.998
				C6328.179,2132.312,6320.087,2123.146,6322.235,2110.757z"/>
			<path fill="#4D4D4D" d="M6509.935,2231.927c-6.156,7.664-9.309,15.898-7.16,25.281c4.871,21.555,14.609,30.148,6.301,41.105
				c-8.305,10.885-25.852,34.16-28.143,58.867s0,485.902,0,485.902s-1.719,31.869,7.734,60.873s23.275,44.473,18.404,58.008
				c-3.438,9.523-16.828,33.873-25.352,52.994l0,0c-13.105,23.346-27.355,76.555-27.355,76.555
				c-3.438-32.154,0.93-47.266,20.123-85.865c19.264-38.527,18.119-55.143,5.514-82.141c-12.676-26.928-10.383-90.736-10.383-90.736
				s0-301.496,0-368.098c0-66.672-0.287-123.82,16.973-146.236c17.258-22.344,7.447-28.072,8.307-57.361
				C6495.327,2246.536,6502.632,2237.442,6509.935,2231.927z M6320.874,2071.798c-0.143-1.361-0.357-2.65-0.645-3.795
				c-2.578-12.391,26.139-40.391,36.523-45.977c10.313-5.586,19.623-1.219,9.023,11.816c-10.67,12.961-18.979,37.023-11.816,67.174
				c7.232,30.15,11.816,15.182,21.842,39.889c9.813,23.99,23.348,25.494,34.375,33.73c-7.59-3.008-18.834-5.014-30.723-8.521
				c-14.752-4.297-12.746-25.424-26.281-43.041c-13.465-17.688-10.742-63.594-5.586-73.834c5.156-10.17-1.504-11.959-17.547,8.164
				C6326.46,2061.987,6323.452,2066.929,6320.874,2071.798z M6466.181,2064.421c-0.43-8.664-0.574-13.893,3.867-14.824
				c8.307-1.719,26.354,37.598,26.354,73.262c0,35.592-12.031,56.861,6.088,56.861c1.289,0,2.578-0.143,3.867-0.357
				c-11.459,3.725-20.84-2.291-20.84-16.4c0-23.273,9.094-33.586-2.723-75.193
				C6477.065,2067.501,6471.265,2061.558,6466.181,2064.421z M6557.845,2037.28c-3.078-5.658-6.66-11.029-10.598-16.113
				c3.152,0.357,3.152-0.145,9.453,2.148c22.488,8.092,23.777,54.141,30.508,76.34c2.004,6.732,1.789,12.246,0.285,18.119
				c-1.359-11.029-6.945-20.053-11.887-46.119C6571.239,2048.667,6564.005,2040.073,6557.845,2037.28z"/>
		</g>
		<path d="M6401.298,2476.132l-7.449-2.578c-29.863-10.24-42.109-57.863-25.781-83.43c8.309-13.035,23.777-20.912,38.529-15.254
			c6.016-6.947,14.537-11.674,23.131-14.609c10.6-3.652,25.066-5.801,35.736-1.791c10.385,3.867,24.35,13.535,33.229,20.268
			c10.383,7.877,24.707,19.98,28.719,32.656c5.871,18.404,3.723,36.736,2.148,55.572c-3.008,35.949-16.543,67.531-56.146,74.551
			c-15.756,2.793-33.443,3.15-48.627-2.363c-12.102-4.441-23.99-13.535-25.422-27.285c-1.074-9.668,2.936-19.766,8.879-27.645
			C6405.522,2481.86,6403.159,2479.212,6401.298,2476.132z"/>
		<path fill="#EEEAFF" d="M6401.728,2391.054c0,0-10.887-5.441-19.48,8.094c-10.742,16.828-1.934,51.99,17.045,58.508
			c-4.512-11.529,1.074-25.852,7.877-30.865C6407.169,2426.79,6394.136,2412.538,6401.728,2391.054z M6420.132,2414.257
			c0,0-9.096-8.521-4.082-22.916s33.373-20.982,43.541-17.188c10.242,3.867,47.336,28.145,51.848,42.324
			c4.512,14.252,3.223,27.715,1.363,49.055c-1.793,21.414-7.377,53.281-42.324,59.441c-34.949,6.158-53.426-5.586-54.428-14.896
			c-1.002-9.238,8.164-18.764,8.164-18.764s16.973-0.07,27.857-1.504c10.887-1.432,21.199-8.879,21.199-8.879
			s-46.766,4.654-57.723-13.75c-10.957-18.406-2.291-35.879,10.6-39.818c12.891-3.938,48.627,3.797,48.627,3.797
			S6465.321,2408.528,6420.132,2414.257z"/>
		<path fill="#CCC1F4" d="M6377.593,2418.269c0.215,16.471,8.521,34.875,21.699,39.387c-4.512-11.529,1.074-25.852,7.877-30.865
			c0,0-0.5-0.572-1.359-1.719c-2.578-3.08-8.953-9.096-17.977-8.881C6383.036,2416.263,6379.813,2417.122,6377.593,2418.269z
			 M6417.481,2410.677c1.004-2.793,4.727-5.801,13.75-8.594c22.846-6.947,39.818,22.057,42.969,28.002
			c-2.506-4.441-14.824-20.84-54.068-15.828C6420.132,2414.257,6418.771,2413.04,6417.481,2410.677z M6510.079,2484.224
			c-4.152,17.904-13.965,36.238-39.602,40.75c-34.949,6.158-53.426-5.586-54.428-14.896c-1.002-9.238,8.164-18.764,8.164-18.764
			s16.973-0.07,27.857-1.504c10.887-1.432,21.199-8.879,21.199-8.879s-34.877,3.508-51.42-7.377
			C6436.675,2451.425,6492.104,2476.562,6510.079,2484.224z"/>
	</g>
</g>
</svg>
