<?xml version="1.0" encoding="utf-8"?>
<!-- Generator: Adobe Illustrator 16.0.0, SVG Export Plug-In . SVG Version: 6.00 Build 0)  -->
<!DOCTYPE svg PUBLIC "-//W3C//DTD SVG 1.1//EN" "http://www.w3.org/Graphics/SVG/1.1/DTD/svg11.dtd">
<svg version="1.1" id="Layer_1" xmlns="http://www.w3.org/2000/svg" xmlns:xlink="http://www.w3.org/1999/xlink" x="0px" y="0px"
	 width="2300px" height="2300px" viewBox="0 0 2300 2300" enable-background="new 0 0 2300 2300" xml:space="preserve">
<g id="Layer_x0020_1">
	<g id="_327663728">
		<path d="M1380.961,2021.862c-14.682-4.228-29.291-10.527-43.041-17.045c-20.409-9.74-40.246-20.912-59.582-32.514
			c-24.637-14.752-48.698-34.947-60.014-62.091c-6.731-16.11-7.807-31.295-5.586-48.409c1.504-11.744,1.217-19.838-0.356-31.367
			l-1.791-13.033l12.246-4.871c26.567-10.455,55.932-23.774,79.276-40.246l28.359-19.979l-1.935,34.66
			c-1.504,28.002,5.229,49.844,34.303,59.153C1476.063,1882.286,1538.799,2067.622,1380.961,2021.862z M902.005,1846.12
			c29.075-9.311,35.807-31.151,34.231-59.153l-1.862-34.66l28.359,19.979c23.347,16.472,52.709,29.791,79.276,40.246l12.246,4.871
			l-1.791,13.033c-1.573,11.529-1.86,19.623-0.356,31.367c2.221,17.114,1.146,32.299-5.586,48.409
			c-11.314,27.144-35.377,47.338-60.014,62.091c-19.336,11.602-39.173,22.772-59.582,32.514
			c-13.75,6.519-28.359,12.818-43.041,17.045C726.049,2067.622,788.782,1882.286,902.005,1846.12z"/>
		<g>
			<path fill="#EEEAFF" d="M1229.066,1828.146c1.002,7.733,2.721,17.473,0.356,35.879c-2.434,18.332-5.012,56.287,57.578,93.885
				c186.627,112.006,149.674,9.668,71.328-8.736c62.162,7.019,78.705,39.746,82.285,63.308
				c22.271-7.591,21.127-26.783,13.535-45.188c-17.188-41.25-61.373-53.211-61.373-53.211c26.426,1.647,44.186,11.315,55.93,24.207
				c-16.543-31.082-48.195-62.521-90.949-76.197c-42.754-13.606-47.408-49.485-45.977-76.055
				C1287.719,1803.008,1255.994,1817.547,1229.066,1828.146z"/>
			<path fill="#EEEAFF" d="M1035.78,1828.146c-1.002,7.733-2.721,17.473-0.357,35.879c2.435,18.332,5.012,56.287-57.578,93.885
				c-186.627,112.006-149.674,9.668-71.328-8.736c-62.16,7.019-78.703,39.746-82.284,63.308
				c-22.271-7.591-21.197-26.783-13.535-45.188c17.188-41.25,61.374-53.211,61.374-53.211
				c-26.497,1.647-44.188,11.315-55.931,24.207c16.543-31.082,48.196-62.521,90.948-76.197
				c42.754-13.606,47.409-49.485,45.978-76.055C977.128,1803.008,1008.853,1817.547,1035.78,1828.146z"/>
		</g>
		<g>
			<path fill="#CCC1F4" d="M1229.066,1828.146c1.002,7.733,2.721,17.473,0.356,35.879c-2.434,18.332-5.012,56.287,57.578,93.885
				c122.389,73.406,148.6,54.715,130.123,27.93c-3.008,2.865-10.098,4.154-24.85,1.361c-41.968-8.092-140.65-61.947-141.867-102.193
				c-0.932-31.01,2.936-47.479-0.789-65.385C1242.601,1822.702,1235.654,1825.567,1229.066,1828.146z M1420.635,1973.808
				c12.963,12.176,18.119,26.641,19.98,38.672c22.271-7.59,21.127-26.783,13.534-45.188c-1.791-4.227-3.795-8.164-6.088-11.746
				c1.074,4.584,1.289,9.453,0,14.252C1444.34,1984.407,1429.371,1978.679,1420.635,1973.808z M1433.453,1925.756
				c5.945,3.651,10.957,7.877,15.254,12.532c-3.365-6.229-7.305-12.532-11.887-18.69
				C1436.748,1923.319,1435.029,1925.038,1433.453,1925.756z"/>
			<path fill="#CCC1F4" d="M1035.78,1828.146c-1.002,7.733-2.721,17.473-0.357,35.879c2.435,18.332,5.012,56.287-57.578,93.885
				c-122.389,73.406-148.6,54.715-130.123,27.93c3.009,2.865,10.099,4.154,24.851,1.361
				c41.967-8.092,140.649-61.947,141.868-102.193c0.931-31.01-2.938-47.479,0.788-65.385
				C1022.245,1822.702,1029.192,1825.567,1035.78,1828.146z M844.212,1973.808c-12.962,12.176-18.117,26.641-19.979,38.672
				c-22.271-7.59-21.197-26.783-13.535-45.188c1.791-4.227,3.796-8.164,6.088-11.746c-1.074,4.584-1.289,9.453,0,14.252
				C820.508,1984.407,835.476,1978.679,844.212,1973.808z M831.394,1925.756c-5.944,3.651-11.029,7.877-15.254,12.532
				c3.364-6.229,7.305-12.532,11.888-18.69C828.099,1923.319,829.817,1925.038,831.394,1925.756z"/>
		</g>
		<path d="M1425.219,1142.08l2.22,5.586c23.633,59.51,16.758,121.744-20.769,174.165c-7.877,11.029-20.41,22.416-34.231,31.728
			l1.004,6.875c1.646,11.027,3.223,22.271,5.299,33.156c5.586,28.719,15.111,56.934,26.354,83.86
			c5.658,13.535,11.746,26.855,18.334,40.104l17.115-5.084c39.246-11.674,88.086-24.637,129.408-23.92
			c26.354,0.502,50.918,6.875,69.606,26.498c17.045,17.902,25.496,43.184,34.877,65.598c11.173,26.855,23.275,49.342,44.187,70.111
			c18.979,18.834,35.594,41.393,45.332,66.529c43.256,111.646-36.094,166.504-133.99,200.662
			c39.316-60.656,35.377-106.203-18.906-158.054l-4.367-4.151c-19.838,3.866-39.891,7.018-59.799,10.024l-9.096,1.361
			c-10.383,21.983-30.938,42.18-57.291,62.805c-36.021,28.146-80.852,47.479-124.107,61.017
			c-22.629,7.09-43.612,11.815-66.743,16.256c-3.009-21.269-6.588-40.104-11.529-61.086c-2.865-12.318-5.945-24.635-9.096-36.881
			c-90.377,51.274-179.966,43.469-273.709,1.86c-3.009,11.603-5.872,23.275-8.595,35.021c-4.94,20.981-8.594,39.818-11.529,61.086
			c-23.131-4.439-44.114-9.166-66.744-16.256c-34.088-10.67-67.891-24.563-98.47-43.326c-32.298-19.767-76.985-56.074-87.513-92.525
			l-9.812-4.154c-38.744-16.327-76.557-40.104-103.912-72.401c-22.917-26.998-38.313-60.013-38.101-95.963
			c0.287-36.164,16.4-68.177,41.179-93.957c32.012-33.373,76.985-55.357,120.385-69.824c39.103-13.033,83.717-44.83,111.288-75.697
			c4.87-5.514,9.668-12.891,13.177-19.264l7.734-13.894l0.144-3.582c-11.673-16.472-19.622-36.021-22.486-57.22
			c-3.08-23.705-1.218-47.338,3.365-70.61c-12.891-8.236-17.115-20.341-18.262-24.423c-3.938-16.041-4.512-30.075,4.87-51.202
			l0.215-16.615c0.144-11.457,3.294-22.344,10.455-31.512c10.241-13.032,26.211-19.264,43.257-21.771
			c-8.737-9.668-18.691-18.834-28.789-26.139c-5.301-3.867-10.241-7.877-14.108-13.32c-11.387-15.969-7.806-35.879-2.722-53.496
			c4.154-14.396,9.812-28.717,15.541-42.539c8.88-21.34,18.477-42.467,28.216-63.377c17.474-37.742,38.026-72.978,62.948-105.562
			l-3.51-7.305c-31.438-65.383-43.685-124.68-36.164-196.795c3.651-34.949,11.028-69.537,16.973-104.127
			c6.803-40.105,11.1-79.135,10.813-119.811c-0.07-10.386,3.366-20.841,12.747-26.355c10.026-5.871,21.343-3.15,30.58,2.793
			c9.238,5.945,17.475,15.254,24.134,23.992c23.705,31.008,42.396,73.547,56.575,109.713c15.326,39.244,24.42,81.139,29.576,122.889
			c2.221-0.215,4.512-0.356,6.731-0.5c32.441-1.36,89.805,27.142,121.457,39.674c44.401,20.625,89.446,45.832,128.69,74.98
			c11.529,8.521,22.701,17.545,33.301,27.213c21.056,19.193,41.822,41.25,58.224,65.24c10.885-5.371,24.205-9.166,35.521-9.381
			c11.815-0.215,24.635,2.219,30.793,13.604c5.443,10.099,2.147,20.912-3.295,30.078c-2.004,3.367-3.795,7.734-5.299,11.387
			c-2.578,6.16-5.015,12.392-7.521,18.621c-4.297,10.742-11.172,29.219-18.477,37.883c-11.744,14.037-44.543,20.769-62.877,24.492
			c4.01,9.238,8.021,18.549,11.744,27.856c5.729,14.252,11.243,28.935,15.11,43.759c5.084,19.405,8.093,42.037-5.084,59.082
			c-0.287,0.356-0.573,0.715-0.858,1.073l9.238,8.308c4.653,4.151,8.307,10.383,9.811,16.397c3.51,14.539-4.154,27-15.541,35.38
			c-0.645,0.431-1.217,0.931-1.861,1.359c4.082,6.159,8.021,12.748,11.459,19.266c5.943,11.173,13.392,26.855,5.441,38.888
			c-2.363,3.58-5.514,7.231-8.307,10.526C1433.31,1133.271,1429.301,1137.711,1425.219,1142.08z M1319.015,1358.569l-12.316-1.074
			l9.596,1.576C1317.226,1358.929,1318.084,1358.713,1319.015,1358.569z M790.286,1606.569
			c26.713-41.178,50.847-84.432,69.467-129.119c0.071-0.215,0.215-0.502,0.286-0.717c-12.747,11.459-26.14,22.201-40.032,32.299
			c-20.625,14.968-41.752,29.361-63.164,43.185c-9.238,5.871-22.988,16.397-16.256,29.289
			C748.034,1595.756,775.104,1602.774,790.286,1606.569z"/>
		<path fill="#4E32BC" d="M1209.873,587.999c32.228,14.968,105.703,51.921,157.769,99.328
			c68.391,62.377,77.485,105.847,77.485,105.847s2.65-9.884,0-20.841c-2.721-10.957-5.084-14.536-5.084-14.536
			s16.472-9.955,32.941-10.24c16.543-0.287,20.268,5.729,12.748,18.332c-7.447,12.604-21.558,56.074-29.648,65.672
			c-8.092,9.596-45.045,17.115-45.045,17.115s-1.504-38.242-8.666-63.236c-7.231-24.992-20.981-32.441-20.981-32.441
			c12.461,28.646,18.906,58.296,11.959,88.73c-1.074-2.363-2.221-4.727-3.295-7.09c-11.887-25.637-26.783-51.133-41.75-75.051
			c-1.004-1.648-2.078-3.295-3.08-4.941c-18.906-32.012-43.756-68.607-74.908-103.555
			C1253.56,631.038,1232.791,608.122,1209.873,587.999z"/>
		<path fill="#4E32BC" d="M1194.834,1374.11c9.955,85.938,28.432,217.063,56.504,310.592
			c45.188,150.677,52.494,202.668,52.494,202.668s100.616-19.336,166.289-70.61c65.67-51.349,72.901-85.365,36.45-134.707
			c-30.864-41.752-121.313-167.148-144.303-285.24c-1.289-6.66-3.152-18.834-5.443-33.873c-8.521,4.512-17.114,8.021-24.991,9.955
			c-35.234,8.594-43.687,5.084-77.632-0.287l13.966-4.297c-21.271-3.438-51.851-9.884-75.912-18.263L1194.834,1374.11z"/>
		<path fill="#A698DD" d="M1523.4,1758.034c10.6-24.42,4.082-47.623-16.828-75.981c-29.219-39.531-111.719-153.828-140.006-266.119
			c11.241,83.932,75.409,203.457,131.696,281.73C1513.16,1718.288,1520.607,1738.771,1523.4,1758.034z"/>
		<path fill="#4E32BC" d="M1067.22,1397.241c-10.385,85.078-28.074,201.953-53.711,287.461
			c-45.188,150.677-52.494,202.668-52.494,202.668s-100.688-19.336-166.287-70.61c-65.67-51.349-72.903-85.365-36.452-134.707
			c30.222-40.963,117.733-162.136,142.871-278.15c4.082-18.906,7.377-38.17,10.385-57.578c22.128,10.742,47.623,14.467,73.476,8.379
			c2.938-0.645,5.657-1.432,8.235-2.363l0.933,1.576c10.67,17.476,29.146,27.572,49.483,27.715
			c8.881,0.072,17.904-1.791,25.926-5.586L1067.22,1397.241z"/>
		<path fill="#A698DD" d="M741.446,1758.034c-10.601-24.42-4.082-47.623,16.828-75.981
			c29.219-39.531,111.646-153.756,140.006-265.976c-11.314,83.859-75.409,203.384-131.697,281.586
			C751.687,1718.288,744.239,1738.771,741.446,1758.034z"/>
		<path fill="#A698DD" d="M1086.269,1363.01c-6.732,69.752-19.193,178.605-36.31,251.724
			c-26.998,115.301-45.188,180.684-45.188,180.684c74.407,43.541,180.826,43.541,255.306,0c0,0-18.191-65.383-45.189-180.684
			c-16.686-71.257-28.932-176.386-35.807-246.281l-2.437-23.99c-9.668-3.651-19.264-7.52-28.645-11.602
			c-7.02-3.08-29.863-12.533-37.669-10.886c-1.862,0.787-5.729,4.298-7.162,5.586c-2.721,2.291-5.371,4.582-8.092,6.804l0.071,1.073
			c0.43,7.949-1.434,15.685-5.442,22.56C1088.703,1359.788,1087.558,1361.435,1086.269,1363.01z"/>
		<path fill="#867BB3" d="M1079.394,1428.036c-7.091,62.091-17.045,133.703-29.435,186.697
			c-26.998,115.301-45.188,180.685-45.188,180.685c9.739,5.657,20.053,10.67,30.795,14.823c-4.584-19.049-5.657-43.325,2.649-72.114
			C1053.255,1685.489,1075.383,1550.64,1079.394,1428.036z M1229.281,1810.241c10.741-4.153,21.055-9.166,30.795-14.823
			c0,0-18.191-65.384-45.189-180.685c-12.389-52.994-22.344-124.68-29.434-186.697c4.01,122.604,26.139,257.453,41.178,310.091
			C1234.938,1766.915,1233.865,1791.192,1229.281,1810.241z M1178.724,1365.088l-2.078-20.625
			c-9.668-3.652-19.264-7.521-28.646-11.603c-7.019-3.08-29.862-12.533-37.669-10.885c-1.861,0.787-5.729,4.297-7.162,5.586
			c-2.721,2.291-5.371,4.582-8.092,6.803L1178.724,1365.088z"/>
		<path fill="#6B50D7" d="M872.858,1441.213c-17.402,17.902-38.171,36.379-62.734,54.211
			c-107.277,77.988-163.281,93.672-170.299,128.332c-7.02,34.662,47.98,50.634,47.98,50.634s-35.306-17.689-38.957-38.673
			c-3.652-20.983,25.638-40.317,37.955-46.979c12.39-6.66,37.383-23.348,37.383-23.348s-17.688,37.527,55.716,55.932
			c-11.53,17.188-23.489,34.016-35.593,50.416c-17.545,23.705-25.137,44.615-25.137,63.736
			c-166.574-70.324-190.709-231.027,18.334-300.707c36.235-12.104,85.006-42.969,118.594-80.496c0,0,7.733-8.664,15.254-22.271
			c-2.938,14.682-7.233,28.359-7.233,28.359c-14.896,44.399-53.353,102.623-179.321,176.387
			c87.011-37.742,191.066-108.998,195.722-211.979c5.014,4.797,10.385,9.094,15.971,12.891l-5.945,37.096
			C886.966,1395.522,879.017,1422.665,872.858,1441.213z M1431.664,1532.592c4.512-1.289,9.094-2.649,13.604-4.01
			c245.494-73.262,168.365,41.607,261.466,134.062c46.69,46.336,48.053,87.012,48.053,87.012s-4.728-40.461-143.371-12.031
			c-15.685,3.224-38.603,7.234-67.104,11.531c4.584-22.772-2.006-47.91-23.774-77.416
			C1488.238,1628.054,1457.229,1581.362,1431.664,1532.592z"/>
		<path fill="#4E32BC" d="M872.858,1441.213c-17.402,17.902-38.171,36.379-62.734,54.211
			c-107.277,77.988-163.281,93.672-170.299,128.332c-7.02,34.662,47.98,50.634,47.98,50.634s-35.306-17.689-38.957-38.673
			c-1.862-10.457,4.512-20.481,12.891-28.789c-7.305,18.834-4.011,50.273,75.982,74.265c-12.818,19.907-18.549,37.739-18.549,54.282
			c-75.124-31.725-121.242-81.782-130.124-133.631c10.027-15.541,27.716-29.721,56.647-40.604
			c132.701-49.988,212.408-105.634,244.849-186.484C886.966,1395.522,879.017,1422.665,872.858,1441.213z M1529.131,1684.487
			c42.181-3.295,74.908-6.519,93.527-9.096c97.396-13.463,126.687,58.08,131.342,71.973c-3.582-8.164-24.422-33.945-142.584-9.74
			c-15.684,3.224-38.602,7.234-67.104,11.531C1548.181,1729.674,1544.025,1708.549,1529.131,1684.487z"/>
		<path fill="#A698DD" d="M711.153,1573.915c7.305-4.727,13.033-8.522,13.033-8.522s-17.688,37.527,55.716,55.932
			c-1.935,2.936-3.938,5.871-5.944,8.809C720.319,1620.963,712.228,1587.163,711.153,1573.915z M856.101,1354.272
			c0,0,7.734-8.664,15.254-22.271c-2.937,14.682-7.232,28.358-7.232,28.358c-24.35,29.004-52.923,55.717-127.688,86.51
			c-50.346,20.769-115.156,46.05-141.797,98.472c16.543-43.472,62.377-83.789,142.871-110.572
			C773.743,1422.665,822.513,1391.799,856.101,1354.272z M1438.181,1544.696c90.233-21.414,160.059-44.402,205.963,7.59
			c-21.412-44.614-53.854-66.959-198.873-23.702c-4.513,1.358-9.095,2.721-13.605,4.01
			C1433.812,1536.674,1435.961,1540.685,1438.181,1544.696z"/>
		<path fill="#4E32BC" d="M1754.787,1798.713c-13.394,65.313-93.385,93.241-93.385,93.241s41.68-64.311-35.234-140.795
			C1670.642,1741.778,1770.685,1720.651,1754.787,1798.713z"/>
		<path fill="#EEEAFF" d="M1094.862,697.14c0,0,42.324,36.021,63.88,32.438c21.627-3.58-10.169-38.742-10.169-38.742
			s56.572,6.304,57.576-12.104c1.074-18.477-55.644-20.695-55.644-20.695s29.862-19.551,29.862-30.651s-59.512-7.447-85.508,11.102
			c-1.719,1.218-3.295,2.435-4.869,3.652c-8.164,20.981-24.35,37.598-42.754,51.133c-26.282,19.334-50.201,54.068-70.541,93.385
			c-18.905,60.871-35.02,82.068-39.459,111.933c-0.43,2.938-0.932,6.016-1.36,9.311c-7.376-6.158-9.739-11.1-9.739-11.1
			c-7.448,56.358,18.691,98.184,61.159,125.539c73.188-6.088,148.671-4.082,220.929,1.432c23.061,1.719,47.48,2.938,71.973,2.938
			c46.908-27.213,76.771-70.469,68.894-129.907c0,0-2.363,4.94-9.74,11.1c-0.43-3.295-0.93-6.373-1.358-9.311
			c-4.584-31.08-21.914-52.779-41.822-119.738c-9.883-16.687-20.697-32.871-32.299-48.842c-10.17-14.107-21.197-28.144-32.871-41.75
			c-7.377-7.306-11.744-10.67-11.744-10.67c7.949,29.36-44.473,27.213-44.473,27.213s5.586,4.799,9.311,18.905
			C1193.832,759.872,1121.646,754.001,1094.862,697.14z"/>
		<path d="M1120.356,945.926c0.43,2.222,1.002,4.369,1.719,6.088c2.292,5.441,8.881,6.73,14.107,7.019
			c0.501,0,0.932,0.072,1.434,0.072c0.501,0,0.931-0.072,1.359-0.072c5.301-0.287,11.889-1.576,14.181-7.019
			c1.432-3.438,2.291-9.022,2.936-12.819c0.357-2.291,0.787-4.654,1.146-7.019C1144.204,935.256,1131.457,941.415,1120.356,945.926z
			"/>
		<path fill="#FFFFFF" d="M1137.616,953.304c-4.44-0.072-9.167-0.933-10.241-3.511c-0.215-0.571-0.43-1.289-0.716-2.221
			c7.52-3.149,15.469-6.66,23.704-9.238c-0.788,4.8-1.72,9.599-2.507,11.459C1146.782,952.372,1142.056,953.231,1137.616,953.304z"
			/>
		<path fill="#CCC1F4" d="M1094.862,697.14c0,0,42.324,36.021,63.88,32.438c21.627-3.58-10.169-38.742-10.169-38.742
			s56.572,6.304,57.576-12.104c0.5-8.521-11.315-13.605-24.205-16.613c5.3,4.297,9.382,10.168,2.363,15.685
			c-13.178,10.313-56.218,4.151-56.218,4.151s29.218,28.359,11.674,28.861C1122.219,711.247,1094.862,697.14,1094.862,697.14z
			 M1150.507,658.038c0,0,29.862-19.551,29.862-30.651c0-4.152-8.594-6.302-20.625-6.23
			C1168.195,633.331,1150.507,658.038,1150.507,658.038z M1214.813,695.062c-11.959,10.887-40.03,9.74-40.03,9.74
			s3.725,3.223,7.09,12.03c8.521,1.433,23.562,3.078,31.797-1.219C1220.83,711.892,1218.183,702.297,1214.813,695.062z
			 M1177.289,743.259c-12.246,6.875-36.81,2.506-57.505-14.252c7.877,14.106,22.129,34.088,39.604,34.088
			C1171.418,763.095,1175.931,753.713,1177.289,743.259z"/>
		<path fill="#CCC1F4" d="M926.14,896.799c-7.448,56.359,18.69,98.185,61.158,125.539c73.189-6.088,148.671-4.082,220.93,1.433
			c23.061,1.719,47.479,2.938,71.973,2.938c46.908-27.213,76.77-70.469,68.893-129.907c0,0-2.865,98.971-210.33,106.418
			C931.366,1010.595,926.14,896.799,926.14,896.799z"/>
		<g>
			<path d="M1263.799,785.511c-9.166-0.216-39.746-0.357-63.233,6.803c-27.93,8.594-37.383,23.563-18.979,21.055
				c4.441-0.645,8.951-1.432,13.679-2.434c-1.789,4.654-2.793,9.953-3.009,15.469c-0.571,21.484,12.392,39.603,29.004,40.461
				c16.688,0.859,30.652-15.825,31.298-37.311c0.284-10.814-2.793-20.697-8.095-28.072c1.289-0.146,2.65-0.287,4.013-0.43
				c9.022-1.005,14.895-2.293,18.762-3.652C1277.836,793.674,1276.476,785.868,1263.799,785.511z"/>
			<path fill="#FFFFFF" d="M1216.66,804.272c-4.33-0.256-8.777,4.426-9.935,10.457s1.414,11.131,5.744,11.387
				c4.328,0.258,8.775-4.424,9.935-10.457C1223.56,809.629,1220.988,804.53,1216.66,804.272z"/>
			<path d="M1011.433,785.511c9.166-0.216,39.744-0.357,63.234,6.803c27.93,8.594,37.383,23.563,18.979,21.055
				c-4.44-0.645-8.952-1.432-13.68-2.434c1.791,4.654,2.793,9.953,3.009,15.469c0.573,21.484-12.39,39.603-29.004,40.461
				c-16.687,0.859-30.65-15.825-31.295-37.311c-0.357-10.814,2.793-20.697,8.093-28.072c-1.289-0.146-2.648-0.287-4.011-0.43
				c-9.023-1.005-14.968-2.293-18.763-3.652C997.396,793.674,998.756,785.868,1011.433,785.511z"/>
			<path fill="#FFFFFF" d="M1046.69,804.272c-4.328-0.256-8.776,4.426-9.935,10.457c-1.155,6.031,1.415,11.131,5.744,11.387
				c4.33,0.258,8.777-4.424,9.935-10.457C1053.593,809.629,1051.021,804.53,1046.69,804.272z"/>
		</g>
		<path d="M1122.435,904.604c-26.141-15.969-1.862-20.695,15.183-21.055c17.044,0.358,41.321,5.086,15.11,21.055
			C1138.618,913.198,1136.613,913.198,1122.435,904.604z"/>
		<path d="M1085.267,943.563c22.199,15.971,72.188-37.598,104.698-5.156C1147.929,919.573,1098.586,979.799,1085.267,943.563z"/>
		<path fill="#4E32BC" d="M965.956,1024.345c-5.441-7.377-11.744-15.111-18.834-22.701c-26.426-28.146-53.424-31.152-46.836-56.361
			c6.66-25.209,56.719-205.104,137.715-264.614c80.995-59.513,9.596-107.423,63.594-104.986
			c42.252,1.861,115.227,62.807,174.953,145.162c56.504,78.061,73.262,128.69,98.325,224.438
			c6.66,25.209-20.338,28.218-46.764,56.361c-7.662,8.233-14.467,16.687-20.195,24.563c22.847-0.933,45.476-3.15,66.888-7.232
			c1.934-0.43,3.938-0.932,6.016-1.504c9.023-9.381,18.691-17.904,27.357-24.205c21.627-15.613,16.758-46.551-32.228-152.109
			c-36.953-79.42-176.887-295.768-279.726-291.256c-69.035,3.009-27.57,65.957-50.988,97.183
			c-23.418,31.223-87.799,69.035-145.949,194.073c-58.08,125.109-53.854,136.496-32.299,152.109
			c12.891,9.309,27.856,23.416,39.746,38.17c12.963-1.576,26.998-3.152,38.313-4.656
			C951.991,1025.92,958.938,1025.06,965.956,1024.345z"/>
		<path fill="#A698DD" d="M1413.402,931.604c-6.947-21.699-19.121-50.848-37.455-90.449
			c-36.953-79.42-176.888-295.768-279.726-291.256c-69.035,3.008-27.57,65.957-50.988,97.183
			c-19.336,25.78-66.674,56.073-115.3,136.28c18.048-24.85,21.771-31.225,58.795-70.469c16.113-17.115,37.168-34.875,50.347-47.695
			c17.114-16.686,24.276-28.286,24.922-53.995c0.645-22.703,2.147-37.957,12.174-44.402
			c43.828-28.143,137.784,54.354,171.802,96.035C1305.693,733.519,1372.224,833.422,1413.402,931.604z"/>
		<path fill="#A698DD" d="M1209.873,587.999c32.228,14.968,105.703,51.921,157.769,99.328
			c50.272,45.834,68.463,81.427,74.621,97.109l0,0c0,0-77.486-107.853-195.291-159.986
			C1235.584,612.131,1223.123,599.601,1209.873,587.999z M1444.195,768.896c-2.291-8.308-4.152-11.101-4.152-11.101
			s16.471-9.954,32.94-10.239c7.593-0.146,12.533,1.073,14.824,3.651c-6.086,0-12.315,0.572-17.902,2.148
			C1454.224,757.868,1447.06,765.101,1444.195,768.896z"/>
		<path fill="#6B50D7" d="M1425.004,1019.474c0,0-52.637,32.371-217.924,19.838c-119.451-9.097-204.457-4.226-260.03,2.936
			c21.055,2.007,42.754,5.945,63.309,12.892c22.845,7.734,41.394,14.109,57.076,19.624c36.666-5.156,153.541,6.303,220.428,31.225
			c0,0-128.762-22.416-191.567-20.912c48.27,17.188,45.763,17.476,105.561,40.248c59.727,22.773,95.532,30.937,111.789,23.418
			c16.258-7.52,25.063-16.83-0.216-24.993c0,0,42.683,2.075,29.076,15.541c-13.678,13.391-31.869,37.381-107.422,7.733
			c-39.389-15.469-384.641-168.151-386-60.517c0,0,14.251-8.809,25.854-9.668c11.602-0.787,12.104-0.858,12.104-0.858
			s-20.77,8.81-33.229,23.274c-12.532,14.468-13.25,42.183-13.25,42.183s38.529-40.75,121.243-25.353
			c82.645,15.469,266.117,78.918,329.855,82.928c63.664,4.082,134.92-82.643,139.791-90.018c4.94-7.449-17.832-41.18-17.832-41.18
			s-27.859,23.705-31.654,28.719c-3.867,5.012,23.346,3.078,23.346,3.078s-26.711,13.178-40.963,7.162s37.886-48.125,56.146-61.59
			C1438.754,1031.72,1425.004,1019.474,1425.004,1019.474z"/>
		<path fill="#4E32BC" d="M1038.646,1064.807c10.598,3.652,20.123,6.947,28.789,9.955c36.666-5.156,153.539,6.303,220.427,31.225
			c0,0-128.763-22.416-191.567-20.912c48.27,17.188,45.762,17.476,105.561,40.248c59.727,22.773,95.533,30.937,111.789,23.418
			c16.258-7.52,25.063-16.83-0.215-24.994c0,0,27.643,1.361,31.295,8.882v-0.072v0.072c0.789,1.573,0.502,3.438-1.289,5.586
			c-3.224,10.168-13.679,31.651-46.334,42.608c-43.828,14.682-201.093-57.434-320.616-73.547
			c-119.523-16.186-135.925,34.16-135.925,34.16s38.529-40.75,121.243-25.353c82.645,15.47,266.117,78.918,329.855,82.929
			c63.664,4.082,134.92-82.644,139.791-90.019c4.94-7.449-17.832-41.18-17.832-41.18s-27.859,23.705-31.654,28.719
			c-3.867,5.012,23.346,3.078,23.346,3.078s-0.715,0.358-1.934,0.932l0,0c0,0-21.056,19.121-39.531,16.973
			c-10.24-1.217-6.017-12.461,2.508-23.633c4.082-5.514,10.67-12.246,17.976-18.979c-12.031,5.586-27.07,11.388-44.83,16.113
			c-50.918,13.465-114.512-20.553-190.565-25.494C1091.926,1061.871,1054.042,1063.662,1038.646,1064.807z"/>
		<path fill="#A698DD" d="M1425.004,1019.474c-0.932,0.573-54.141,32.299-217.924,19.838c-91.665-6.947-163.063-5.729-216.417-1.576
			c82.428,0.574,186.126,20.341,309.159,17.188C1401.441,1052.345,1422.496,1032.938,1425.004,1019.474z M1132.46,1105.986
			c-102.408-38.457-246.281-83.218-277.291-39.746C938.241,1046.401,1067.935,1084.43,1132.46,1105.986z"/>
		<path d="M977.701,1120.451c20.195-23.561,44.258-42.682,68.249-62.231c20.84-16.975,42.824-35.021,58.795-56.862
			c7.376-10.17,0.501-14.107,4.798-25.494c2.436-6.445,7.376-10.813,13.535-13.535c17.402-7.52,34.017,0.216,45.26,13.82
			c4.369,5.156,6.588,12.104,7.019,19.051c0.502,0.144,1.004,0.357,1.504,0.5c10.385,3.726,20.625,6.445,31.225,9.312
			c9.023,2.506,18.404,5.299,24.777,12.531c8.666,9.739,7.879,23.92,3.438,35.448c12.031,14.541,8.738,34.377-5.227,47.34
			l-1.146,1.002c0.287,3.582-0.071,7.162-0.932,10.672c-6.301,24.492-38.813,38.385-62.088,36.738l-16.328-1.219
			c-9.095,9.739-19.693,24.35-23.273,29.434c-15.111,21.412-27.07,45.762-40.104,68.535c-20.696,36.236-39.961,64.238-76.412,85.579
			c0,0,5.155,3.438,13.248,4.512c-13.894,8.379-22.987,15.397-39.029,19.121c-68.178,15.897-133.704-35.807-142.942-105.56
			c-5.299-40.463,4.011-80.709,16.257-119.023C897.995,1107.705,935.162,1113.648,977.701,1120.451z"/>
		<path fill="#EEEAFF" d="M858.75,1246.994c8.594,64.885,72.688,111.29,135.136,87.514c-3.149-0.646-17.688-3.652-19.406-5.156
			c77.558-22.773,99.543-106.063,139.074-162.063c17.903-25.278,34.732-44.758,45.546-45.401
			c11.244-0.646,26.998-4.154,33.802-13.466c0.858,11.675-15.539,20.41-24.777,23.563c20.695,1.504,54.641-15.185,42.608-37.742
			c-8.664-16.184-33.014-15.539-33.014-15.539s10.455-5.014,23.062-3.008c12.676,2.004,18.834,12.315,18.834,12.315
			s15.684-14.537,1.217-26.782c-14.537-12.319-47.408-14.539-47.408-14.539s5.873-5.155,17.33-4.44
			c11.387,0.717,28.719,7.377,28.719,7.377s6.803-14.252,0.859-20.912c-5.945-6.729-22.201-7.447-49.127-17.188
			c-26.999-9.811-42.969,0.359-42.969,0.359c8.521-10.885,18.763-12.246,30.147-10.527c0,0,1.435-9.238-2.937-14.537
			c-4.367-5.229-13.893-14.18-25.638-9.096c-11.743,5.156,2.865,13.822-11.528,33.516c-33.086,45.334-88.803,74.553-128.118,120.457
			c-21.056,24.635-39.961,41.68-68.464,32.368c23.705-5.729,30.508-11.387,44.114-28.502c0,0-26.713-4.297-50.989-4.297
			c-24.277,0-42.468,10.24-42.468,10.24C862.976,1170.797,853.952,1210.543,858.75,1246.994z"/>
		<path fill="#CCC1F4" d="M858.75,1246.994c8.594,64.885,72.688,111.29,135.136,87.514c-3.149-0.646-17.688-3.652-19.406-5.156
			c77.558-22.773,99.543-106.063,139.074-162.063c17.903-25.278,34.732-44.758,45.546-45.401
			c11.244-0.646,26.998-4.154,33.802-13.466c0.858,11.675-15.539,20.41-24.777,23.563c20.695,1.504,54.641-15.185,42.608-37.742
			c-2.506-4.582-6.229-7.805-10.239-10.098c4.94,7.949-16.613,17.977-45.832,21.844c-29.147,3.867-43.686,20.768-89.661,83.072
			c-45.978,62.375-69.036,70.324-69.036,70.324s0,0,6.016,0c6.017,0,13.535-3.078,13.535-3.078s-39.029,38.742-87.941,23.703
			c-48.912-14.968-50.703-73.189-45.117-108.854c3.295-21.271,12.389-32.94,19.193-38.887c-17.402,2.577-29.291,9.237-29.291,9.237
			C862.976,1170.797,853.952,1210.543,858.75,1246.994z M1187.244,1075.836c3.795-0.645,8.521-1.002,13.535-0.143
			c12.676,2.004,18.834,12.316,18.834,12.316s15.684-14.537,1.217-26.783c-2.721-2.291-6.017-4.226-9.668-5.874
			C1219.685,1063.877,1187.244,1075.836,1187.244,1075.836L1187.244,1075.836z M1200.922,1043.896
			c9.382,2.219,18.55,5.729,18.55,5.729s6.803-14.252,0.858-20.912c-0.215-0.284-0.502-0.571-0.789-0.858
			C1220.902,1037.808,1209.373,1042.104,1200.922,1043.896z M1146.711,1000.999c3.725-0.502,7.662-0.215,11.673,0.357
			c0,0,1.434-9.238-2.937-14.537c-1.289-1.576-3.079-3.438-5.155-5.156C1151.796,988.754,1148.431,997.274,1146.711,1000.999z"/>
		<path fill="#FFFFFF" d="M1125.083,994.124c-0.215,4.582-1.719,10.168-6.803,17.115c-33.086,45.333-88.803,74.552-128.118,120.456
			c-20.554,24.063-39.103,40.891-66.458,33.014h-0.072c0,0,30.365,25.353,78.348-24.492c47.98-49.771,42.683-45.832,83.287-83.358
			C1125.871,1019.258,1125.083,994.124,1125.083,994.124L1125.083,994.124z"/>
		<path fill="#EEEAFF" d="M1214.027,1218.063c56.504,1.934,134.133-8.021,151.465,54.854c-3.08-37.524-16.615-50.487-51.348-58.58
			c0,0,0.287-0.571,0.858-1.575c19.336-3.938,37.883-13.32,54.068-24.063c15.182-10.024,29.506-22.057,42.754-34.805
			c12.963,32.586,26.568,94.676-18.834,158.198c-14.109,19.621-44.832,39.459-65.17,44.473c-26.998,6.588-34.66,5.227-34.66,5.227
			s7.949-3.149,12.604-6.445c4.653-3.293,6.016-5.227,6.016-5.227s-43.612,5.801-75.409-3.939
			c-27.213-7.52-56.002-17.616-81.711-28.717c-21.629-9.453-38.172-14.252-48.411-11.815c-16.901,4.01-30.293,41.75-76.484,19.551
			c4.082,18.332,34.16,21.914,48.626,11.101c1.504,30.149-49.915,41.465-69.896,8.809c4.87-2.865,9.812-6.016,15.541-9.525
			c-8.093-1.073-13.249-4.512-13.249-4.512c36.451-21.34,55.716-49.343,76.412-85.579c4.727-8.235,9.31-16.686,13.965-25.209
			c12.891-6.729,27.07-11.1,40.247-9.522C1167.336,1213.908,1214.027,1218.063,1214.027,1218.063z"/>
		<path fill="#CCC1F4" d="M1365.922,1190.777c1.074-0.717,2.076-1.361,3.15-2.078c15.182-10.024,29.506-22.057,42.754-34.805
			c12.963,32.586,26.567,94.676-18.834,158.198c-14.109,19.621-44.832,39.459-65.17,44.473c-26.998,6.588-34.66,5.228-34.66,5.228
			s7.949-3.15,12.604-6.445c4.653-3.293,6.016-5.228,6.016-5.228s-43.613,5.802-75.41-3.938
			c-27.213-7.521-56.002-17.617-81.711-28.717c-21.628-9.453-38.171-14.252-48.41-11.816c-16.901,4.01-30.293,41.75-76.484,19.551
			c4.082,18.332,34.16,21.914,48.626,11.101c1.504,30.149-49.915,41.465-69.896,8.809c4.869-2.864,9.812-6.016,15.541-9.524
			c-8.094-1.074-13.25-4.512-13.25-4.512c36.452-21.341,55.717-49.344,76.412-85.58c4.728-8.235,9.311-16.686,13.966-25.209
			c4.153-2.147,8.45-4.082,12.747-5.655c-33.443,76.77,119.523,105.989,168.65,105.989c60.084,0,72.402-19.05,72.402-19.05
			s-0.358,5.3-2.793,9.738c-2.508,4.44-5.443,7.521-5.443,7.521s40.248-19.119,42.037-77.631
			C1389.84,1206.676,1376.808,1194.715,1365.922,1190.777z"/>
		<path fill="#4E32BC" d="M1184.021,1203.023c20.41,1.861,40.963,3.078,59.011,3.795c-9.812-2.148-19.623-4.512-29.361-7.018
			c-9.955-2.509-19.91-5.086-29.791-7.808C1183.879,1195.719,1183.949,1199.371,1184.021,1203.023z"/>
		<path fill="#867BB3" d="M1112.767,1199.729c11.815-1.791,25.137-2.221,39.816-0.215c5.657,0.787,11.458,1.432,17.259,2.075
			c0.072-4.366,0.216-8.809,0.431-13.248c-10.24-2.864-30.077-8.235-42.683-11.815
			C1122.29,1184.045,1117.421,1191.852,1112.767,1199.729z"/>
		<path fill="#392589" d="M1307.914,1026.206c22.846-0.932,45.476-3.149,66.887-7.231c1.935-0.43,3.939-0.932,6.017-1.504
			c9.022-9.381,18.69-17.904,27.356-24.205c10.886-7.879,15.111-19.623,10.24-42.826c-2.506,11.244-9.953,21.557-27.428,25.781
			C1344.795,987.249,1307.914,1026.206,1307.914,1026.206z M1487.31,763.095c-0.502,0.858-1.004,1.791-1.576,2.793
			c-7.447,12.604-21.557,56.073-29.648,65.672c-8.092,9.596-45.045,17.114-45.045,17.114s-1.074-28.286-5.945-52.063
			c8.379,6.59,23.349,16.187,38.744,14.969C1460.31,810.29,1468.902,779.71,1487.31,763.095z M1394.137,793.747
			c2.793,15.754,2.938,31.726-0.787,47.98c-1.073-2.363-2.221-4.728-3.295-7.09c-7.59-16.398-16.397-32.728-25.709-48.625l0,0
			c0,0,6.304,7.948,18.263,9.237C1387.978,795.823,1391.703,794.892,1394.137,793.747z M860.397,932.606
			c-14.468,41.68-7.808,50.272,6.588,60.658c12.891,9.309,27.856,23.416,39.746,38.17c12.963-1.576,26.998-3.152,38.313-4.656
			c6.946-0.858,13.895-1.719,20.911-2.435c0,0-18.834-22.7-77.773-48.125C871.497,968.987,863.405,952.515,860.397,932.606z"/>
		<g>
			<path fill="#A698DE" d="M526.961,1098.252c14.681-64.023,78.489-104.058,142.584-89.447
				c64.023,14.682,104.056,78.49,89.446,142.585c-14.682,64.022-78.489,104.127-142.584,89.446
				C552.384,1226.154,512.351,1162.346,526.961,1098.252z M1602.463,1482.176c5.658-24.563,30.078-39.889,54.57-34.303
				c24.563,5.656,39.889,30.076,34.231,54.568c-5.586,24.564-30.008,39.891-54.569,34.232
				C1612.203,1531.088,1596.877,1506.67,1602.463,1482.176z"/>
			<path fill="#7A65CD" d="M564.772,1106.916c9.884-43.184,52.924-70.183,96.106-60.3c43.185,9.884,70.182,52.925,60.299,96.108
				c-9.883,43.182-52.923,70.252-96.105,60.299C581.89,1193.141,554.892,1150.1,564.772,1106.916z M1622.015,1486.616
				c3.151-13.75,16.83-22.344,30.58-19.192s22.271,16.83,19.121,30.58c-3.08,13.75-16.759,22.271-30.509,19.192
				C1627.457,1514.045,1618.863,1500.366,1622.015,1486.616z"/>
			<path d="M696.615,1023.34c-15.325-13.104,56.862-12.889,74.191,68.682c7.091,33.301,36.595,66.385,77.988,88.371
				c-1.647,11.674-3.223,30.649-0.215,50.272c-87.084-27.5-106.349-5.942-124.396,4.584c-11.387,6.66-25.853,12.39-42.609,18.404
				c-19.336,7.09-42.254,5.514-54.643,0.144c0,0,1.79-5.943,18.834-8.664c38.386-6.017,84.146-36.023,88.444-61.66
				c4.368-25.711-18.62-66.744-46.335-80.924c-27.715-14.109,14.107-19.052,32.154-14.824c23.274,5.586,27.43,22.271,27.43-3.367
				C747.317,1010.952,686.661,1014.103,696.615,1023.34z M1335.414,1361.147c94.531,33.588,181.687,64.238,218.137,76.342
				c23.275,7.734,46.908,15.541,71.4,5.3c26.065-10.957,47.336-0.716,33.586,7.664c-13.679,8.448-36.595,26.567-35.521,52.135
				c0.5,11.602,18.476,48.77-6.303,33.229c-6.803-4.297-16.113-14.467-21.127-24.35c-8.951-17.688-34.23-27.428-53.281-34.088
				c-52.994-18.404-283.734-100.832-445.01-158.482c7.663-5.729,22.129-11.172,44.258,1.719
				c32.012,18.55,98.254,40.82,136.209,40.82l-4.082,3.438C1273.683,1364.872,1303.33,1374.897,1335.414,1361.147z"/>
			<path fill="#333333" d="M644.838,1228.445c22.415-5.871,53.567-14.895,67.747-45.617c23.348-50.561-71.041-70.611-68.535-95.176
				c1.647-15.971,36.452-11.529,63.522-4.654c9.167,2.363,22.487,5.656,22.344-7.233c-0.215-17.832-3.651-35.021-19.766-44.616
				c-5.3-3.15-10.742-5.443-13.464-7.807c-13.894-11.672,54.569-11.101,54.643,62.449c0.07,25.638-4.656,11.242-27.93,5.656
				c-18.047-4.225-59.655-4.367-31.94,9.813c27.786,14.18,51.347,53.639,46.979,79.348c-4.297,25.639-26.498,50.846-91.381,65.455
				c-10.886,2.437-17.188,5.086-20.123,7.807C612.897,1247.854,612.11,1237.039,644.838,1228.445z"/>
			<path fill="#FFFFFF" fill-opacity="0.702" d="M597.358,1049.194c11.242,7.378,11.959,26.14,1.574,41.896
				c-10.313,15.826-27.857,22.632-39.029,15.254c-11.243-7.377-11.959-26.139-1.575-41.895
				C568.642,1048.692,586.187,1041.817,597.358,1049.194z M1663.121,1488.622c-0.574-8.666,3.223-15.897,8.449-16.186
				c5.229-0.357,9.955,6.373,10.457,14.967c0.571,8.594-3.224,15.828-8.451,16.187
				C1668.349,1503.947,1663.621,1497.215,1663.121,1488.622z M638.106,1036.231c5.729,3.223,6.517,10.742,1.789,16.758
				c-4.798,6.089-13.248,8.38-18.978,5.229c-5.729-3.225-6.519-10.743-1.791-16.76
				C623.927,1035.372,632.377,1033.081,638.106,1036.231z"/>
		</g>
		<path d="M1182.375,578.331c3.365-56.504,13.033-114.727,33.658-167.647c14.18-36.166,32.871-78.705,56.573-109.713
			c6.66-8.738,14.896-18.047,24.136-23.992c9.237-5.943,20.553-8.664,30.508-2.793c9.453,5.516,12.892,15.971,12.818,26.355
			c-0.287,40.676,4.01,79.704,10.813,119.811c5.871,34.59,13.32,69.178,16.973,104.127c7.375,71.111-4.368,129.693-34.946,194.289
			l-9.884,20.91C1284.424,681.384,1233.222,616.644,1182.375,578.331z"/>
		<g>
			<path fill="#EEEAFF" d="M1072.304,536.866c-4.869-39.961-13.678-81.426-28.789-120.098
				c-50.631-129.549-91.81-146.164-91.522-116.373c1.218,171.016-72.474,248.717,6.659,413.571
				c4.584-5.514,9.312-10.957,14.181-16.327c11.602-12.818,23.775-24.777,36.237-36.738c3.078-3.008,6.373-6.086,9.597-9.31
				c-0.788-129.049-47.554-241.914-47.554-241.914c44.761,65.313,58.438,155.188,59.082,229.382
				c0.573-0.718,1.074-1.361,1.576-2.076c0.646-0.859,1.217-1.791,1.646-2.724c3.581-7.375,3.365-19.121,3.295-27.141
				c-0.215-16.328-0.932-33.516,7.375-48.268C1050.604,547.251,1060.702,540.519,1072.304,536.866z"/>
			<path fill="#EEEAFF" d="M1199.131,579.476c3.08-52.063,12.031-110.07,32.586-162.707
				c50.632-129.549,91.738-146.164,91.523-116.373c-1.22,170.227,71.756,247.93-5.517,411.209
				c-13.75-19.908-29.576-40.461-47.408-60.515c-4.225-5.084-8.735-10.313-13.463-15.684
				c4.298-122.174,47.267-225.729,47.267-225.729c-41.537,60.586-56.361,142.368-58.726,213.053
				c-11.028-11.816-22.916-23.633-35.521-34.732C1209.373,587.21,1205.291,584.06,1199.131,579.476z"/>
		</g>
		<path fill="#FFFFFF" d="M1072.304,536.866c-4.869-39.961-13.678-81.426-28.789-120.098
			c-50.631-129.549-91.81-146.164-91.522-116.373c0.287,40.532-3.652,75.84-8.736,108.354c6.803-20.481,11.888-39.891,13.32-55.858
			c5.942-64.884,37.311-8.379,62.161,45.045c15.97,34.375,31.511,86.867,42.683,143.658
			C1064.856,539.659,1068.509,538.083,1072.304,536.866z"/>
		<path fill="#FFFFFF" d="M1199.131,579.476c3.08-52.063,12.031-110.07,32.586-162.707
			c50.632-129.549,91.738-146.164,91.523-116.373c-0.287,40.532,3.651,75.84,8.735,108.354
			c-6.803-20.481-11.889-39.891-13.319-55.858c-5.943-64.884-37.312-8.379-62.162,45.045
			c-20.052,43.041-39.316,114.367-50.201,186.983C1204.502,583.487,1201.996,581.624,1199.131,579.476z"/>
		<path fill="#CCC1F4" d="M973.763,696.638c11.314-12.462,23.203-24.063,35.307-35.736c3.079-3.008,6.374-6.086,9.597-9.309
			c-0.502-86.082-21.483-164.857-35.378-207.896c-17.331,31.726-40.247,89.088-32.083,160.631
			C955.214,639.489,963.808,670.569,973.763,696.638z"/>
		<path fill="#CCC1F4" d="M1303.33,691.624c-10.098-13.534-21.125-27.141-33.014-40.532c-4.226-5.084-8.736-10.313-13.463-15.685
			c2.862-79.635,22.057-151.393,35.09-191.711c17.332,31.726,40.248,89.088,32.084,160.631
			C1320.303,637.269,1312.498,666.631,1303.33,691.624z"/>
	</g>
</g>
</svg>
